<?xml version="1.0" encoding="utf-8"?>
<!-- Generator: Adobe Illustrator 24.0.1, SVG Export Plug-In . SVG Version: 6.00 Build 0)  -->
<svg version="1.1" id="圖層_1" xmlns="http://www.w3.org/2000/svg" xmlns:xlink="http://www.w3.org/1999/xlink" x="0px" y="0px"
	 viewBox="0 0 254 355.8" style="enable-background:new 0 0 254 355.8;" xml:space="preserve">
<style type="text/css">
	.st0{fill:#FFBE23;}
	.st1{fill:#FFFFFF;}
</style>
<g>
	<g>
		<path class="st0" d="M0.3,309.9l35.5-48.5c19.5,18.6,42,31.2,67.1,31.2c29.9,0,49.3-12.6,49.3-36.8c0-27.7-14.7-44.1-82.2-44.1
			v-54.1c55,0,72.3-16.9,72.3-42.4c0-22.1-13-34.2-36.8-34.2c-21.6,0-38.1,10-57.6,26.8L9,60.6c29.9-25.1,61.9-39.8,100-39.8
			c66.7,0,110.4,31.2,110.4,88.7c0,32-17.3,57.1-51.9,71v2.2c35.9,10.8,62.3,36.8,62.3,78.3c0,60.2-55,93.9-119,93.9
			C59.6,354.9,23.7,337.2,0.3,309.9z"/>
	</g>
	<g>
		<path class="st1" d="M24.3,289.9l35.5-48.5c19.5,18.6,42,31.2,67.1,31.2c29.9,0,49.3-12.6,49.3-36.8c0-27.7-14.7-44.1-82.2-44.1
			v-54.1c55,0,72.3-16.9,72.3-42.4c0-22.1-13-34.2-36.8-34.2c-21.6,0-38.1,10-57.6,26.8L33,40.6C62.8,15.5,94.9,0.8,133,0.8
			c66.7,0,110.4,31.2,110.4,88.7c0,32-17.3,57.1-51.9,71v2.2c35.9,10.8,62.3,36.8,62.3,78.3c0,60.2-55,93.9-119,93.9
			C83.6,334.9,47.7,317.2,24.3,289.9z"/>
	</g>
</g>
</svg>
