<?xml version="1.0" encoding="utf-8"?>
<!-- Generator: Adobe Illustrator 24.0.1, SVG Export Plug-In . SVG Version: 6.00 Build 0)  -->
<svg version="1.1" id="圖層_1" xmlns="http://www.w3.org/2000/svg" xmlns:xlink="http://www.w3.org/1999/xlink" x="0px" y="0px"
	 viewBox="0 0 477 172.4" style="enable-background:new 0 0 477 172.4;" xml:space="preserve">
<style type="text/css">
	.st0{fill:none;}
	.st1{fill:#0948A6;}
</style>
<g>
	<path class="st0" d="M138.5,102.6c-2.4,8-10.6,14-20.3,14c-9.7,0-17.9-6-20.3-14c-1.9,1.4-3.9,2.4-6,3l-4.3,1.3l7.8,24.3h45.5
		l7.8-24.3l-4.4-1.3C142.2,104.9,140.2,103.9,138.5,102.6z"/>
	<path class="st0" d="M118.1,93.3c-3.4,0-6.7-0.9-9.7-2.8c-0.9-0.5-1.7-1.1-2.6-1.7c-0.4,3.7-1.8,7.2-4.1,10.1
		c0.7,7.4,7.8,13.2,16.5,13.2c8.6,0,15.7-5.8,16.5-13.1c-2.3-2.9-3.8-6.5-4.1-10.2c-0.9,0.6-1.8,1.2-2.6,1.7
		C124.9,92.3,121.5,93.3,118.1,93.3z"/>
	<path class="st0" d="M268.3,114.2c5.4-3.4,14.5-10.1,14.5-17.1V66.8c-2.8-0.8-10-1.9-20.2,2.8c-9.7,4.5-17.7,2-22.1-0.3v27.8
		c0,7.1,9.1,13.8,14.5,17.1C259,116.8,264.2,116.8,268.3,114.2z"/>
	<path class="st0" d="M456.8,131.1l-20.5-6.2c-3-0.9-5.6-2.4-8-4.4l-4.3-3.7l-19.5,24.4v31.2h8.7v-20.2h4.7v20.2h52.7
		C467.8,154.1,462.9,133,456.8,131.1z M418,147.4h-4.7v-4.5h4.7V147.4z"/>
	<path class="st0" d="M440,68.4h-2.3l0,15.7c0.7-0.4,1.4-1.3,2.2-2.9c1.5-3,2.3-6.4,2.3-10.2v-0.5C442.1,69.3,441.2,68.4,440,68.4z"
		/>
	<path class="st0" d="M404.9,133.6L389,121.2c-2.1,1.7-4.5,3-7.2,3.8l-20.5,6.2c-6.1,1.9-11.1,23-13.9,41.4H400v-32.8L404.9,133.6z"
		/>
	<path class="st0" d="M125.5,86.7c5.9-3.6,15.7-10.9,15.7-18.7V55.6c-7.1,1.4-15.2,2.2-23.1,2.2c-7.9,0-15.9-0.7-23-2.1V68
		c0,7.8,9.9,15,15.7,18.7C115.3,89.5,121,89.5,125.5,86.7z"/>
	<path class="st0" d="M153.1,108.2l-8.9,27.5H92.1l-8.9-27.5l-7.5,2.3v62h84.8v-62L153.1,108.2z M97.6,144.6h-4.9v-4.5h4.9V144.6z
		 M143.5,144.6h-4.9v-4.5h4.9V144.6z"/>
	<path class="st0" d="M440.7,63.9L441,59h-3.4v4.9h2.4C440.2,63.9,440.5,63.9,440.7,63.9z"/>
	<path class="st0" d="M35.4,105.4c-1.2,0-2.4-0.1-3.5-0.2v67.3h7.2v-67.3C37.9,105.3,36.6,105.4,35.4,105.4z"/>
	<path class="st0" d="M55.6,130.2l0,42.3h15.6v-60.6C63,114.5,56.9,121.6,55.6,130.2z"/>
	<path class="st0" d="M118.1,43.3c16.3,0,26.1-3.3,27-5.2v-6.4h0c0-11.9-13.8-24.5-16.8-24.7l-0.5,0c-1.7,0-3.2,0-4.2,0.7
		c-1.7,1.2-3.6,1.7-5.5,1.7c-0.1,0-0.1,0-0.1,0c-1.9,0-3.8-0.6-5.4-1.6c-1.1-0.7-2.6-0.7-4.3-0.7l-0.5,0c-3,0.1-16.7,12.3-16.7,24.7
		v6.4C91.7,39.9,101.6,43.3,118.1,43.3z"/>
	<path class="st0" d="M158.7,41.8c0-1.7-2.4-4.4-9.1-6.9l0,3.3c0,7.6-19.8,9.6-31.6,9.6c-11.7,0-31.6-2-31.6-9.6v-3.3
		c-6.6,2.4-9.1,5.1-9.1,6.9c0,4.8,15.5,11.4,40.6,11.4C143.3,53.2,158.7,46.6,158.7,41.8z"/>
	<path class="st0" d="M165,111.8v60.6h15.5v-43.1C179.2,121.4,173.1,114.4,165,111.8z"/>
	<path class="st0" d="M279.5,133.8l-0.4,0.4c-4.8,4.8-4.8,12.5,0,17.3l0.4,0.4l0.4-0.4c4.8-4.8,4.8-12.5,0-17.3L279.5,133.8z"/>
	<path class="st0" d="M433.1,86.2V59h-47.6v6.9l0,21.2c0.7,7.7,10.3,14.8,16.2,18.4c4.7,2.9,10.5,2.9,15.1,0
		C422.9,101.7,433.1,94.2,433.1,86.2z"/>
	<path class="st0" d="M409.3,112.1c-3.4,0-6.9-1-10-2.9c-0.9-0.5-1.8-1.1-2.7-1.8v7.1l-4.1,3.6l15.2,11.9l13.8-17.3v-5
		c-0.8,0.5-1.5,1-2.3,1.5C416.2,111.2,412.7,112.1,409.3,112.1z"/>
	<path class="st0" d="M377.6,45.2h63.5L441,33.1l1.1-0.7c3.9-2.2,6.3-6.4,6.3-10.8c0-6.9-5.6-12.5-12.5-12.5c-4.1,0-8,2-10.3,5.4
		l-2.3,3.4l-1.6-3.8c-2.1-4.9-6.8-8-12.2-8c-5.5,0-10.3,3.3-12.3,8.5l-1.6,4.2l-2.4-3.8c-2.3-3.7-6.3-5.9-10.6-5.9
		c-6.9,0-12.5,5.6-12.5,12.5c0,4.5,2.4,8.6,6.3,10.8l1.1,0.6L377.6,45.2z"/>
	<path class="st0" d="M294.6,115.6H294c-6.8,0-12.3,5.5-12.3,12.2v0.5h0.5c6.8,0,12.3-5.5,12.3-12.2V115.6z"/>
	<polygon class="st0" points="441.1,49.6 377.6,49.6 377.6,54.5 441.1,54.5 	"/>
	<path class="st0" d="M378.3,63.9c0.1,0,0.2,0,0.3,0h2.3V59h-3.2L378.3,63.9z"/>
	<path class="st0" d="M376.5,70.5V71c0,3.7,0.8,7.3,2.3,10.2c0.8,1.6,1.5,2.4,2.2,2.9V68.4h-2.3C377.5,68.4,376.5,69.3,376.5,70.5z"
		/>
	<rect x="413.3" y="142.9" class="st1" width="4.7" height="4.5"/>
	<rect x="413.3" y="152.3" class="st1" width="4.7" height="20.2"/>
	<path class="st1" d="M458.1,126.8l-20.5-6.2c-2.3-0.7-4.5-1.9-6.3-3.5l-5.3-4.6v-8.1c5.4-4.3,10.2-9.6,11.3-15.7
		c3.2-0.6,4.9-2.6,6.5-5.6c1.9-3.6,2.8-7.8,2.8-12.3v-0.5c0-1.6-0.6-3.1-1.5-4.2l0.4-7.3h0.1l-0.1-23.4c4.6-3.1,7.4-8.4,7.4-14
		c0-9.3-7.6-17-17-17c-4.4,0-8.6,1.7-11.8,4.7c-3.3-4.8-8.7-7.7-14.7-7.7c-6,0-11.6,3.1-14.8,8.1c-3.2-3.2-7.5-5-12.1-5
		c-9.4,0-17,7.6-17,17c0,5.6,2.8,10.9,7.5,14l0,23.4h0.2l0.7,6.8c-1.2,1.2-2,2.9-2,4.7V71c0,4.5,0.9,8.6,2.8,12.3
		c1.5,3,3.2,5,6.4,5.6c1.1,5.9,5.7,11.1,10.9,15.3v8.4l-5.3,4.6c-1.8,1.6-4,2.8-6.3,3.5l-20.5,6.2c-7.6,2.3-13.6,25.8-16.9,45.7h4.3
		c2.9-18.4,7.8-39.5,13.9-41.4l20.5-6.2c2.6-0.8,5-2.1,7.2-3.8l15.9,12.4l-4.8,6.1v32.8h4.5v-31.2l19.5-24.4l4.3,3.7
		c2.3,2,5,3.5,8,4.4l20.5,6.2c6.1,1.9,11.1,23,13.9,41.4h4.3C471.7,152.6,465.7,129.1,458.1,126.8z M442.1,71
		c0,3.8-0.8,7.2-2.3,10.2c-0.8,1.6-1.5,2.5-2.2,2.9l0-15.7h2.3c1.2,0,2.1,1,2.1,2.1V71z M437.6,63.9V59h3.4l-0.3,4.9
		c-0.2,0-0.5,0-0.7,0H437.6z M370.1,21.6c0-6.9,5.6-12.5,12.5-12.5c4.3,0,8.3,2.2,10.6,5.9l2.4,3.8l1.6-4.2c2-5.2,6.8-8.5,12.3-8.5
		c5.3,0,10.1,3.2,12.2,8l1.6,3.8l2.3-3.4c2.3-3.4,6.2-5.4,10.3-5.4c6.9,0,12.5,5.6,12.5,12.5c0,4.5-2.4,8.6-6.3,10.8l-1.1,0.7
		l0.1,12.1h-63.5l0-12.1l-1.1-0.6C372.5,30.2,370.1,26.1,370.1,21.6z M381,84.1c-0.7-0.4-1.3-1.3-2.2-2.9c-1.5-3-2.3-6.5-2.3-10.2
		v-0.5c0-1.2,1-2.1,2.1-2.1h2.3V84.1z M381,63.9h-2.3c-0.1,0-0.2,0-0.3,0l-0.5-4.9h3.2V63.9z M377.6,54.5l0-4.9h63.5l0,4.9H377.6z
		 M421.5,112.8l-13.8,17.3l-15.2-11.9l4.1-3.6v-7.1c0.9,0.6,1.8,1.2,2.7,1.8c3.1,1.9,6.5,2.9,10,2.9c3.4,0,6.9-1,10-2.9
		c0.8-0.5,1.5-1,2.3-1.5V112.8z M416.9,105.5c-4.7,2.9-10.5,2.9-15.1,0c-5.8-3.6-15.5-10.7-16.2-18.4l0-21.2V59h47.6v27.2
		C433.1,94.2,422.9,101.7,416.9,105.5z"/>
	<path class="st1" d="M305.9,133.4l-9.9-3l-1.3,4.3l9.9,3c8.9,2.7,14.9,10.7,14.9,19.9v14.8h4.5v-14.8
		C324,146.4,316.7,136.7,305.9,133.4z"/>
	<rect x="231.4" y="158.2" class="st1" width="13.5" height="4.5"/>
	<path class="st1" d="M299.1,116.1v-5H294c-9.3,0-16.8,7.5-16.8,16.7v1.9l-1.3,1.3c-6.6,6.5-6.6,17.1,0,23.7l3.6,3.6l3.6-3.6
		c6-6,6.5-15.4,1.5-22C292.7,131.6,299.1,124.6,299.1,116.1z M279.8,151.5l-0.4,0.4l-0.4-0.4c-4.8-4.8-4.8-12.5,0-17.3l0.4-0.4
		l0.4,0.4C284.6,138.9,284.6,146.7,279.8,151.5z M282.3,128.3h-0.5v-0.5c0-6.8,5.5-12.2,12.3-12.2h0.5v0.5
		C294.6,122.9,289,128.3,282.3,128.3z"/>
	<path class="st1" d="M57.8,97.1C64.9,90.8,69,81.9,69,72.5V35.9h-4.5v36.6c0,8.1-3.5,15.8-9.7,21.2c-1.6,1.4-3.2,2.5-5,3.5V35.9
		h-4.5v63.4c-4.3,1.5-9,2-13.6,1.5c-2.1-0.3-4.1-0.8-6-1.4V35.9h-4.5v61.3C12.3,92.1,6.4,82.4,6.4,71.4V35.9H1.9v35.5
		c0,15.8,10.7,29.4,25.4,33v68h4.5v-67.3c1.2,0.1,2.4,0.2,3.5,0.2c1.2,0,2.5-0.1,3.7-0.2v67.3h4.5v-68.1
		C48.8,103.1,53.7,100.6,57.8,97.1z"/>
	<path class="st1" d="M166,107.4l-20.4-6.2c-2-0.6-3.8-1.6-5.3-2.9c-3.4-2.9-5.4-7.1-5.4-11.5v-1.4c5.8-4.7,10.8-10.8,10.8-17.5
		V54.5c10.2-2.7,17.5-7,17.5-12.7c0-4.7-4.7-8.7-13.7-11.6C148.4,17,134.3,2.6,128.4,2.6l-0.5,0c-2.2,0-4.6,0-6.8,1.5
		c-0.8,0.6-1.8,0.9-2.9,0.9h0c-1,0-2.1-0.3-3-0.9c-2.1-1.5-4.6-1.4-6.7-1.4l-0.5,0c-5.4,0-20.1,13.4-21.2,27.5
		C77.7,33.1,73,37.1,73,41.8c0,5.8,7.3,10.1,17.6,12.8V68c0,6.8,5,12.8,10.8,17.5v1.3c0,4.4-1.9,8.5-5.3,11.5
		c-1.6,1.4-3.5,2.4-5.5,3.1l-20.2,6.1c-10.1,3-17.6,11.7-19.1,22.4v42.6h4.5l0-42.3c1.2-8.6,7.3-15.7,15.6-18.3v60.6h4.5v-62
		l7.5-2.3l8.9,27.5h52.1l8.9-27.5l7.5,2.3v62h4.5v-60.6c8.1,2.6,14.2,9.6,15.5,17.6v43.1h4.5l0-43.4
		C183.4,118.9,175.9,110.4,166,107.4z M91.1,31.8c0-12.3,13.8-24.6,16.7-24.7l0.5,0c1.7,0,3.2,0,4.3,0.7c1.6,1.1,3.5,1.6,5.4,1.6
		c0,0,0.1,0,0.1,0c2,0,3.8-0.6,5.5-1.7c1-0.7,2.5-0.7,4.2-0.7l0.5,0c2.9,0.2,16.8,12.8,16.8,24.7h0v6.4c-0.9,1.8-10.7,5.2-27,5.2
		c-16.5,0-26.4-3.4-27-5.1V31.8z M77.5,41.8c0-1.7,2.4-4.4,9.1-6.9v3.3c0,7.6,19.8,9.6,31.6,9.6c11.7,0,31.6-2,31.6-9.6l0-3.3
		c6.6,2.4,9.1,5.1,9.1,6.9c0,4.8-15.5,11.4-40.6,11.4C92.9,53.2,77.5,46.6,77.5,41.8z M95.1,68V55.6c7.1,1.4,15.1,2.1,23,2.1
		c7.9,0,16-0.7,23.1-2.2V68c0,7.8-9.9,15-15.7,18.7c-4.5,2.8-10.1,2.8-14.6,0C104.9,83,95.1,75.8,95.1,68z M134.6,99
		c-0.7,7.4-7.8,13.1-16.5,13.1c-8.7,0-15.8-5.8-16.5-13.2c2.3-2.9,3.8-6.4,4.1-10.1c0.9,0.6,1.8,1.2,2.6,1.7c3,1.9,6.3,2.8,9.7,2.8
		c3.4,0,6.7-0.9,9.7-2.8c0.9-0.5,1.7-1.1,2.6-1.7C130.8,92.5,132.3,96.1,134.6,99z M140.9,131.2H95.4l-7.8-24.3l4.3-1.3
		c2.1-0.6,4.1-1.7,6-3c2.4,8.1,10.6,14,20.3,14c9.7,0,17.9-5.9,20.3-14c1.8,1.3,3.7,2.3,5.9,2.9l4.4,1.3L140.9,131.2z"/>
	<rect x="138.6" y="140.1" class="st1" width="4.9" height="4.5"/>
	<rect x="301.8" y="157.7" class="st1" width="4.5" height="14.8"/>
	<rect x="92.7" y="140.1" class="st1" width="4.9" height="4.5"/>
	<rect x="216.8" y="157.7" class="st1" width="4.5" height="14.8"/>
	<path class="st1" d="M218.5,137.7l22-6.6c0.5-0.2,1-0.4,1.5-0.6c2,7.6,10,13.2,19.6,13.2c1.8,0,3.5-0.2,5.2-0.6l-1-4.4
		c-1.4,0.3-2.8,0.5-4.2,0.5c-8.2,0-14.9-5.1-15.5-11.4c2.7-2.5,4.3-6.1,4.3-10v-1.1c0.7,0.5,1.4,0.9,2.1,1.3
		c2.8,1.7,5.9,2.6,9.1,2.6c3.2,0,6.3-0.9,9.1-2.6c0.7-0.4,1.4-0.9,2.1-1.3v1.1c0,0.8,0.1,1.5,0.2,2.2l4.4-0.7
		c-0.1-0.5-0.1-1-0.1-1.5v-4.5c0.9-0.8,1.8-1.6,2.7-2.4c0.6,0.7,1.3,1.4,2.1,2l2.9-3.5c-0.7-0.6-1.4-1.2-1.9-1.8
		c2.6-3.2,4.3-6.8,4.3-10.6V65.2c0-0.9-0.5-1.7-1.3-2c-0.4-0.2-10.3-4.6-25.3,2.4c-11.9,5.5-20.6-1.8-21-2.1
		c-0.7-0.6-1.6-0.7-2.4-0.3c-0.8,0.4-1.3,1.2-1.3,2v31.9c0,3.8,1.7,7.4,4.3,10.6c-5.1,5.9-16.1,8.6-22.3,9.7c8.8-13.8,8-29,7.4-40.4
		c-0.1-1.8-0.2-3.5-0.2-5.1c-0.3-13.4,6.1-25.9,16.8-32.5c11.8-7.3,27.6-7.3,39.4,0c10.7,6.6,17.2,19.1,16.8,32.5
		c0,1.6-0.1,3.3-0.2,5.1c-0.6,11.4-1.4,26.6,7.4,40.4c-0.4-0.1-0.8-0.1-1.2-0.2l-0.9,4.4c2.1,0.4,3.8,0.7,5,0.8c0.1,0,0.3,0,0.4,0
		c1,0,2-0.5,2.5-1.4c0.6-1,0.5-2.4-0.2-3.3c-10-13.2-9.2-28.9-8.6-40.4c0.1-1.8,0.2-3.6,0.2-5.2c0.4-15-6.9-29-19-36.5
		c-13.2-8.2-30.9-8.2-44.2,0C227.4,43,220.2,57,220.5,72c0,1.6,0.1,3.3,0.2,5.2c0.6,11.4,1.4,27-8.4,40.1c-0.8,1-0.8,2.4-0.2,3.5
		c0.6,1.1,1.9,1.7,3.1,1.5c6.2-0.8,20.8-3.6,28-11.3c0.9,0.8,1.8,1.6,2.7,2.4v4.5c0,4.1-2.7,7.7-6.7,8.9l-22,6.6
		c-10.7,3.2-18,12.9-18.1,24v15h4.5v-14.8C203.7,148.4,209.7,140.4,218.5,137.7z M240.4,97.1V69.3c4.4,2.3,12.5,4.8,22.1,0.3
		c10.2-4.7,17.4-3.6,20.2-2.8v30.3c0,7.1-9.1,13.8-14.5,17.1c-4.1,2.5-9.3,2.5-13.4,0C249.5,110.9,240.4,104.2,240.4,97.1z"/>
</g>
</svg>
