<?xml version="1.0" encoding="utf-8"?>
<!-- Generator: Adobe Illustrator 24.0.1, SVG Export Plug-In . SVG Version: 6.00 Build 0)  -->
<svg version="1.1" id="圖層_1" xmlns="http://www.w3.org/2000/svg" xmlns:xlink="http://www.w3.org/1999/xlink" x="0px" y="0px"
	 viewBox="0 0 262.3 349.9" style="enable-background:new 0 0 262.3 349.9;" xml:space="preserve">
<style type="text/css">
	.st0{fill:#0948A6;}
	.st1{fill:#FAFAFA;}
</style>
<g>
	<path class="st0" d="M3.3,302.2l35.5-49.1c18.4,17.5,41.2,31.1,67.1,31.1c31.6,0,51.3-17.1,51.3-50.9c0-32.9-19.7-50.4-47.8-50.4
		c-18,0-26.8,3.5-46.1,15.8l-34.2-22.4l8.3-161.4h183.3v64.9H104.6l-4.8,55.3c11.8-4.8,21.5-6.6,33.8-6.6
		c55.3,0,101.8,32.5,101.8,103.1c0,73.2-55.3,115.8-118,115.8C65.2,347.4,29.2,327.6,3.3,302.2z"/>
</g>
<g>
	<g>
		<path class="st1" d="M28.3,290.2l35.5-49.1c18.4,17.5,41.2,31.1,67.1,31.1c31.6,0,51.3-17.1,51.3-50.9c0-32.9-19.7-50.4-47.8-50.4
			c-18,0-26.8,3.5-46.1,15.8l-34.2-22.4L62.5,2.9h183.3v64.9H129.6l-4.8,55.3c11.8-4.8,21.5-6.6,33.8-6.6
			c55.3,0,101.8,32.5,101.8,103.1c0,73.2-55.3,115.8-118,115.8C90.2,335.4,54.2,315.6,28.3,290.2z"/>
	</g>
</g>
</svg>
