<?xml version="1.0" encoding="utf-8"?>
<!-- Generator: Adobe Illustrator 24.0.1, SVG Export Plug-In . SVG Version: 6.00 Build 0)  -->
<svg version="1.1" id="圖層_1" xmlns="http://www.w3.org/2000/svg" xmlns:xlink="http://www.w3.org/1999/xlink" x="0px" y="0px"
	 viewBox="0 0 252.3 354.9" style="enable-background:new 0 0 252.3 354.9;" xml:space="preserve">
<style type="text/css">
	.st0{enable-background:new    ;}
	.st1{fill:#0948A6;}
	.st2{fill:#FFFFFF;}
</style>
<g>
	<g class="st0">
		<path class="st1" d="M182.3,104.4c-10.4-11.3-30.3-22.5-48-22.5c-33.3,0-59.7,23.8-62.8,93.9c16-20.3,43.3-31.6,61.5-31.6
			c53.7,0,94.4,31.2,94.4,101.3c0,68.4-48.5,109.1-106,109.1C60.7,354.5,1,307.3,1,190C1,73.6,62.4,20.4,129.1,20.4
			c42.4,0,73.6,17.7,93.9,38.5L182.3,104.4z M156.8,245.4c0-35.5-17.3-47.2-38.5-47.2c-16,0-32.5,7.8-45.4,29
			c6.5,53.7,26.4,69.7,46.7,69.7S156.8,281.8,156.8,245.4z"/>
	</g>
	<g class="st0">
		<path class="st2" d="M206.3,84.4c-10.4-11.3-30.3-22.5-48-22.5c-33.3,0-59.7,23.8-62.8,93.9c16-20.3,43.3-31.6,61.5-31.6
			c53.7,0,94.4,31.2,94.4,101.3c0,68.4-48.5,109.1-106,109.1C84.7,334.5,25,287.3,25,170C25,53.6,86.4,0.4,153.1,0.4
			c42.4,0,73.6,17.7,93.9,38.5L206.3,84.4z M180.8,225.4c0-35.5-17.3-47.2-38.5-47.2c-16,0-32.5,7.8-45.4,29
			c6.5,53.7,26.4,69.7,46.7,69.7S180.8,261.8,180.8,225.4z"/>
	</g>
</g>
</svg>
