<?xml version="1.0" encoding="utf-8"?>
<!-- Generator: Adobe Illustrator 24.0.1, SVG Export Plug-In . SVG Version: 6.00 Build 0)  -->
<svg version="1.1" id="圖層_1" xmlns="http://www.w3.org/2000/svg" xmlns:xlink="http://www.w3.org/1999/xlink" x="0px" y="0px"
	 viewBox="0 0 249.6 357" style="enable-background:new 0 0 249.6 357;" xml:space="preserve">
<style type="text/css">
	.st0{enable-background:new    ;}
	.st1{fill:#0948A6;}
	.st2{fill:#FFE282;}
</style>
<g>
	<g>
		<g class="st0">
			<path class="st1" d="M1.3,269.4c0-40.2,22.9-65.4,52.8-81.4v-2.2c-25.1-18.6-42-43.3-42-77.5c0-53.7,42.4-87,102.1-87
				c58,0,96.5,33.8,96.5,86.1c0,30.7-18.6,56.3-40.7,71.4v2.2c30.7,16,54.1,42.8,54.1,87c0,49.8-45,87.4-112.5,87.4
				C48.5,355.6,1.3,320.5,1.3,269.4z M152.8,265.1c0-28.1-24.7-40.2-64.1-57.1c-13,12.6-21.6,32-21.6,52.4
				c0,26.4,21.2,41.5,46.3,41.5C135.5,301.9,152.8,290.7,152.8,265.1z M148.5,112.8c0-23.4-13.4-38.1-36.4-38.1
				c-17.3,0-32.5,10.8-32.5,33.8c0,25.5,19.9,39.4,51.5,51.9C143.3,145.7,148.5,129.2,148.5,112.8z"/>
		</g>
	</g>
	<g class="st0">
		<path class="st2" d="M25.3,249.4c0-40.2,22.9-65.4,52.8-81.4v-2.2c-25.1-18.6-42-43.3-42-77.5c0-53.7,42.4-87,102.1-87
			c58,0,96.5,33.8,96.5,86.1c0,30.7-18.6,56.3-40.7,71.4v2.2c30.7,16,54.1,42.8,54.1,87c0,49.8-45,87.4-112.5,87.4
			C72.5,335.6,25.3,300.5,25.3,249.4z M176.8,245.1c0-28.1-24.7-40.2-64.1-57.1c-13,12.6-21.6,32-21.6,52.4
			c0,26.4,21.2,41.5,46.3,41.5C159.5,281.9,176.8,270.7,176.8,245.1z M172.5,92.8c0-23.4-13.4-38.1-36.4-38.1
			c-17.3,0-32.5,10.8-32.5,33.8c0,25.5,19.9,39.4,51.5,51.9C167.3,125.7,172.5,109.2,172.5,92.8z"/>
	</g>
</g>
</svg>
