<?xml version="1.0" encoding="utf-8"?>
<!-- Generator: Adobe Illustrator 24.0.1, SVG Export Plug-In . SVG Version: 6.00 Build 0)  -->
<svg version="1.1" id="圖層_1" xmlns="http://www.w3.org/2000/svg" xmlns:xlink="http://www.w3.org/1999/xlink" x="0px" y="0px"
	 viewBox="0 0 70 75" style="enable-background:new 0 0 70 75;" xml:space="preserve">
<style type="text/css">
	.st0{fill:#FF3C3C;}
	.st1{fill:#FFFFFF;}
</style>
<g>
	<path class="st0" d="M67.1,51.4c-1.1,2.6-7.7,2-9.4,4.1c-1.8,2.2,0.4,8.4-1.8,10.1c-2.2,1.7-7.6-2.2-10.2-1.2
		c-2.6,1-3.8,7.5-6.6,7.8c-2.7,0.3-5.5-5.7-8.2-6.1c-2.7-0.4-7,4.6-9.7,3.4c-2.6-1.1-2-7.7-4.1-9.4c-2.2-1.8-8.4,0.4-10.1-1.8
		c-1.7-2.2,2.2-7.6,1.2-10.2c-1-2.6-7.5-3.8-7.8-6.6c-0.3-2.7,5.7-5.5,6.1-8.2c0.4-2.7-4.6-7-3.4-9.7c1.1-2.6,7.7-2,9.4-4.1
		c1.8-2.2-0.4-8.4,1.8-10.1c2.2-1.7,7.6,2.2,10.2,1.2c2.6-1,3.8-7.5,6.6-7.8c2.7-0.3,5.5,5.7,8.2,6.1c2.7,0.4,7-4.6,9.7-3.4
		c2.6,1.1,2,7.7,4.1,9.4c2.2,1.8,8.4-0.4,10.1,1.8c1.7,2.2-2.2,7.6-1.2,10.2c1,2.6,7.5,3.8,7.8,6.6c0.3,2.7-5.7,5.5-6.1,8.2
		C63.2,44.4,68.2,48.7,67.1,51.4z"/>
</g>
<g>
	<path class="st1" d="M24.7,19.6c-0.4,0.3-0.9,0.6-1.3,0.9l-3.1,7.2l-0.8-0.3l2.7-6.3c-1.7,0.8-3.6,1.4-5.5,1.5
		c0-0.2-0.2-0.6-0.2-0.8c2.7-0.1,5.4-1.2,7.3-2.6l-5-2.1l0.3-0.7l9.4,4.1l-0.3,0.7L24.7,19.6z M23.9,21.5c0.9,1.4,2.1,3.3,2.5,4.5
		l-0.8,0.3c-0.4-1.2-1.5-3.2-2.5-4.6L23.9,21.5z"/>
	<path class="st1" d="M31,26.8c-0.6,0.9-1.4,1.8-2.1,2.4c0.2,0.2,0.4,0.6,0.7,1c0.6,0.8,1.5,1.3,2.8,1.9c1.5,0.6,3.2,1.3,4.5,1.7
		c-0.2,0.1-0.4,0.5-0.5,0.7c-0.8-0.3-3-1.1-4.3-1.7c-1.4-0.6-2.4-1.2-3-2c-0.3-0.5-0.6-1-0.8-1.1c-0.2-0.1-0.9,0.4-1.5,1l-0.2-0.9
		c0.5-0.3,1-0.6,1.4-0.7l0,0c0.7-0.4,1.5-1.2,2.1-2l-1.5-0.6c0.6-0.5,1.4-1.3,2.1-2l-1.3-0.6l0.3-0.7l2.2,1
		c-0.6,0.7-1.4,1.4-2.1,2.1l0.7,0.3l0.1,0L31,26.8z M31.2,23.1c0-0.6,0.1-1.5,0.1-2.2L32,21c0,0.7,0,1.6,0,2.1L31.2,23.1z
		 M37.6,31.6l-7.2-3.1l0.3-0.6l1.9,0.8l0.5-1.1L31.6,27l0.3-0.6l1.5,0.7l0.4-0.8l0.7,0.3L34,27.4l1.9,0.8l0.4-0.8l0.7,0.3l-0.4,0.8
		l1.6,0.7l-0.3,0.6L36.3,29l-0.5,1.1l2,0.9L37.6,31.6z M35.4,25.7c-0.1,0.1-0.3,0.4-0.4,0.5c-2.4-0.6-2.7-0.6-2.9-0.6
		c0-0.2,0-0.5,0-0.7c0.1,0,0.4-0.1,0.5-0.5l1-2.3l2.9,1.3l-0.8,1.8l-2.3-1L33,25.1L35.4,25.7z M33.4,30.1c-0.9,0.3-2,0.5-2.9,0.5
		c-0.1-0.2-0.2-0.5-0.4-0.7c0.9,0,2-0.1,2.7-0.3L33.4,30.1z M34,22.9l-0.3,0.8l1.7,0.7l0.3-0.8L34,22.9z M33.3,29l1.9,0.8l0.5-1.1
		l-1.9-0.8L33.3,29z M36.6,27.2c-0.7-0.3-0.8-0.6-0.5-1.3l1-2.2l3,1.3l-0.8,1.8l-2.4-1l-0.2,0.4c-0.1,0.3-0.1,0.4,0.1,0.5l1.5,0.6
		c0.2,0.1,0.5,0.2,0.7,0.3c-0.1,0.2-0.1,0.4-0.2,0.6c-0.2,0-0.5-0.1-0.7-0.3L36.6,27.2z M36,33c-0.3-0.7-0.9-1.6-1.6-2.3l0.6-0.1
		c0.7,0.8,1.4,1.7,1.8,2.4L36,33z M37.5,24.4l-0.3,0.8l1.7,0.7l0.3-0.8L37.5,24.4z"/>
	<path class="st1" d="M45.7,27.2c-0.7,0.7-1.4,1.3-2.2,1.8l-3.2,7.4l-0.7-0.3l2.7-6.3c-0.7,0.4-1.4,0.8-2.1,1c0-0.2-0.1-0.7-0.2-0.9
		c1.7-0.6,3.5-1.7,5-3.2L45.7,27.2z M46.8,33.8l-1.5,3.5l2.9,1.2l-0.3,0.7l-6.5-2.8l0.3-0.7l2.9,1.2l1.5-3.5l-3.2-1.4l0.3-0.7
		l3.2,1.4l1.3-3l-2.5-1.1l0.3-0.7l5.9,2.5l-0.3,0.7l-2.7-1.2l-1.3,3l3.1,1.4L50,35.1L46.8,33.8z"/>
	<path class="st1" d="M61,40.4c0,0-0.1,0.2-0.2,0.3c-1.2,2.2-1.8,3-2.3,3.2c-0.3,0.1-0.5,0.1-0.8,0c-0.3-0.1-0.8-0.3-1.3-0.6
		c0.1-0.2,0.1-0.5,0.1-0.7c0.5,0.3,1,0.5,1.3,0.6c0.2,0.1,0.3,0.1,0.4,0.1c0.3-0.1,0.8-0.8,1.8-2.5l-6.6-2.9
		c-0.8,0.3-1.7,0.4-2.6,0.5c0-0.2-0.1-0.6-0.1-0.8c2.5-0.2,4.8-1.2,6.8-2.7l-4-1.7l0.3-0.6l2.2,1c0-0.5,0-1.4-0.2-2l0.7,0
		c0.2,0.7,0.3,1.5,0.2,2l-0.7,0l2,0.9c0.6-0.5,1.1-1,1.6-1.6l0.6,0.5c-0.5,0.5-0.9,1-1.4,1.4l2.3,1c-0.4,0.6-0.8,1.3-1.2,1.8
		l1.3,0.5c-0.4,0.6-0.8,1.3-1.2,1.8L61,40.4z M50.2,40.1c0.9-0.2,1.7-1,2.3-1.7l0.5,0.5c-0.6,0.8-1.4,1.6-2.4,1.9L50.2,40.1z
		 M59.2,39.7c0.2-0.4,0.5-0.8,0.8-1.3l-4-1.7c-0.6,0.3-1.1,0.6-1.8,0.9L59.2,39.7z M54.4,39.4c-0.1,0.7-0.3,1.6-0.5,2.1l-0.7-0.2
		c0.3-0.5,0.5-1.4,0.6-2.1L54.4,39.4z M58.2,35.3c-0.4,0.3-0.9,0.7-1.4,1l2.4,1c0.3-0.3,0.6-0.8,0.8-1.2L58.2,35.3z M56.1,40
		c0,0.7,0,1.5-0.1,2l-0.7-0.1c0.1-0.5,0.2-1.4,0.2-2L56.1,40z M57.4,42.2c0-0.5,0-1.2-0.2-1.9l0.6,0C58,41,58,41.7,58,42.2
		L57.4,42.2z"/>
	<path class="st1" d="M22.1,34.7L18,44.2l-0.7-0.3l0.2-0.5l-7.7-3.3l-0.2,0.5l-0.7-0.3l4.1-9.5L22.1,34.7z M17.8,42.7l3.3-7.7
		l-7.7-3.3l-3.3,7.7L17.8,42.7z M14.8,39.4c-1.3-0.3-2.5-0.5-3.5-0.8l0.1-0.6c0.9,0.2,2.3,0.5,3.6,0.8L14.8,39.4z M18.8,37.3
		c-0.7,0.9-1.5,1.7-2.4,2.2c0,0.7,0.1,1.3,0.5,1.5c0.2,0.1,0.5-0.3,0.9-1c0.1,0.2,0.2,0.4,0.3,0.5c-0.7,1.1-1.2,1.4-1.6,1
		c-0.5-0.3-0.7-0.9-0.7-1.7c-0.7,0.3-1.4,0.5-2.1,0.7c0-0.2-0.2-0.5-0.2-0.7c0.8-0.1,1.6-0.3,2.3-0.8c0.1-1,0.4-2.3,0.8-3.6
		l-3.4-1.5l0.2-0.6l3.4,1.5c0.1-0.4,0.3-0.8,0.4-1.3l0.6,0.3c-0.2,0.4-0.3,0.8-0.5,1.3l2.5,1.1l-0.2,0.6l-2.4-1
		c-0.3,1.1-0.6,2-0.7,2.9c0.6-0.5,1.3-1.1,1.8-1.8L18.8,37.3z M15.7,36l-0.9,2.1l-2.4-1.1l0.9-2.1L15.7,36z M14.9,36.3l-1.4-0.6
		l-0.5,1.2l1.4,0.6L14.9,36.3z M19.3,35.8c-0.1-0.4-0.5-0.9-0.9-1.3l0.5-0.2c0.3,0.4,0.7,0.9,0.9,1.3L19.3,35.8z"/>
	<path class="st1" d="M27.8,43.8c-0.2,2.1,0.3,3.8,1.4,4.2c0.3,0.1,0.7-0.3,1.2-1.4c0.1,0.2,0.3,0.5,0.5,0.6
		c-0.8,1.5-1.3,1.8-2.1,1.5c-1.5-0.6-2.1-2.8-1.8-5.3L23.7,42l-1.2,2.9l2.9,0.5c-0.1,0.2-0.2,0.5-0.2,0.7c-3.3-0.5-3.7-0.5-4.1-0.5
		c0-0.2,0-0.6-0.1-0.8c0.2,0,0.6-0.1,0.8-0.6l3.5-8.1l7.8,3.4l-1.3,3.1l-3.3-1.4c-0.2,0.6-0.4,1.3-0.5,1.9l3.9,1.7l-0.3,0.7
		L27.8,43.8z M25.8,37.2L25,38.9l6.3,2.7l0.8-1.7L25.8,37.2z M27.2,42.7c0.1-0.6,0.3-1.2,0.5-1.9l-3-1.3L24,41.3L27.2,42.7z"/>
	<path class="st1" d="M35.9,45.7c-0.3-0.6-0.9-1.5-1.5-2.1l0.6-0.4c0.6,0.6,1.2,1.4,1.5,2L35.9,45.7z M32.2,49.6
		c1-0.6,2.5-1.7,3.6-2.6l0.3,0.7c-1.1,0.9-2.5,2-3.5,2.7L32.2,49.6z M36.9,40.6c0.6,0.6,1.3,1.5,1.6,2.1l-0.7,0.4
		c-0.3-0.6-1-1.5-1.5-2.1L36.9,40.6z M40.7,54c0-0.4,0-0.8,0-1.3c-4.4-1.3-4.9-1.4-5.2-1.4c0-0.2,0.1-0.6,0.1-0.8
		c0.2,0,0.6-0.1,1-0.4c0.4-0.2,1.7-1.1,2.8-2.1l-2.5-1.1l0.3-0.7l2.9,1.2l0.9-2l-2.4-1l0.3-0.7l2.4,1l0.8-1.9l0.7,0.3l-0.8,1.9
		l2.5,1.1l-0.3,0.7l-2.5-1.1l-0.9,2l2.9,1.3l-0.3,0.7l-3.2-1.4c-1.1,1-2.3,1.9-3.5,2.5l3.8,1.1c-0.1-0.6-0.2-1.3-0.4-1.9l0.7,0
		c0.4,1.3,0.6,3,0.6,4L40.7,54z"/>
	<path class="st1" d="M56.6,50.3l-0.8,1.9l-0.8-0.3l0.5-1.2l-7.8-3.4l-0.5,1.2l-0.7-0.3l0.8-1.9l4.5,1.9c0-0.4,0-0.8,0-1.1l0.8,0.1
		c0,0.4,0,1,0,1.3L56.6,50.3z M47.1,52.8l6.1,2.6l-1.4,3.3L51,58.4l0.2-0.4l-5.4-2.3l-0.2,0.5l-0.7-0.3l3.1-7.3l6.4,2.8l-1.2,2.8
		l-5.7-2.5L47.1,52.8z M48.5,49.5L47.9,51l5,2.2l0.6-1.5L48.5,49.5z M46.8,53.4L46.2,55l5.4,2.3l0.7-1.6L46.8,53.4z"/>
</g>
</svg>
