<?xml version="1.0" encoding="utf-8"?>
<!-- Generator: Adobe Illustrator 24.0.1, SVG Export Plug-In . SVG Version: 6.00 Build 0)  -->
<svg version="1.1" id="圖層_1" xmlns="http://www.w3.org/2000/svg" xmlns:xlink="http://www.w3.org/1999/xlink" x="0px" y="0px"
	 viewBox="0 0 46 46" style="enable-background:new 0 0 46 46;" xml:space="preserve">
<style type="text/css">
	.st0{fill:#FF3C3C;}
	.st1{fill:#FFFFFF;}
</style>
<g>
	<path class="st0" d="M45.4,23c0,1.7-6.1,2.6-6.6,4.2c-0.4,1.7,4.4,5.5,3.6,7c-0.9,1.5-6.6-0.8-7.8,0.4c-1.2,1.2,1.1,7-0.4,7.8
		c-1.5,0.8-5.3-4-7-3.6c-1.6,0.4-2.5,6.6-4.2,6.6c-1.7,0-2.6-6.1-4.2-6.6c-1.7-0.4-5.5,4.4-7,3.6c-1.5-0.9,0.8-6.6-0.4-7.8
		c-1.2-1.2-7,1.1-7.8-0.4c-0.8-1.5,4-5.3,3.6-7c-0.4-1.6-6.6-2.5-6.6-4.2c0-1.7,6.1-2.6,6.6-4.2c0.4-1.7-4.4-5.5-3.6-7
		c0.9-1.5,6.6,0.8,7.8-0.4c1.2-1.2-1.1-7,0.4-7.8c1.5-0.8,5.3,4,7,3.6c1.6-0.4,2.5-6.6,4.2-6.6c1.7,0,2.6,6.1,4.2,6.6
		c1.7,0.4,5.5-4.4,7-3.6c1.5,0.9-0.8,6.6,0.4,7.8c1.2,1.2,7-1.1,7.8,0.4c0.8,1.5-4,5.3-3.6,7C39.3,20.4,45.4,21.3,45.4,23z"/>
</g>
<g>
	<g>
		<g>
			<g>
				<path class="st1" d="M12.3,22.1c-0.2,0-0.5-0.1-0.7-0.2c-0.4-0.2-0.6-0.5-0.7-0.9c-0.2-0.8,0.2-1.6,1-1.8L23,15.6l0.9,2.8
					l-11.1,3.6C12.6,22.1,12.5,22.1,12.3,22.1z M22.5,16.5l-10.4,3.4c-0.4,0.1-0.6,0.6-0.5,1c0.1,0.2,0.2,0.4,0.4,0.5
					c0.2,0.1,0.4,0.1,0.6,0L23,18L22.5,16.5z"/>
			</g>
			<g>
				<path class="st1" d="M24.1,21.3l-2.6-8.1l7.3-2.4l2.6,8.1L24.1,21.3z M22.3,13.7l2.2,6.7l5.9-1.9l-2.2-6.7L22.3,13.7z"/>
			</g>
			<g>
				<path class="st1" d="M20.9,14.1L20.2,12c-0.1-0.4,0.1-0.8,0.5-0.9l7.3-2.4c0.4-0.1,0.8,0.1,0.9,0.5l0.7,2.1L20.9,14.1z M28.2,9
					l0.1,0.3l-7.3,2.4l0.5,1.5l7.4-2.4L28.2,9z"/>
			</g>
			<g>
				<path class="st1" d="M24.5,23.5c-0.1,0-0.2,0-0.3-0.1c-0.2-0.1-0.3-0.2-0.4-0.4l-0.7-2.1l8.7-2.8l0.7,2.1c0.1,0.2,0,0.4,0,0.6
					c-0.1,0.2-0.2,0.3-0.4,0.4l-7.3,2.4C24.7,23.5,24.6,23.5,24.5,23.5z M24,21.3l0.5,1.5l7.4-2.4l-0.5-1.5L24,21.3z"/>
			</g>
			<g>
				<path class="st1" d="M32.7,30.9l-9.2,0l0-3.2l9.2,0L32.7,30.9z M24.3,30.2l7.7,0l0-1.8l-7.7,0V30.2z"/>
			</g>
			<g>
				<path class="st1" d="M34.2,33.4l-12,0l0-3.2l12,0L34.2,33.4z M22.9,32.6l10.6,0l0-1.8l-10.6,0L22.9,32.6z"/>
			</g>
			<g>
				<rect x="11.9" y="32.6" class="st1" width="23.3" height="0.7"/>
			</g>
		</g>
	</g>
	<g>
		<rect x="27.8" y="24.2" class="st1" width="0.7" height="2.8"/>
	</g>
	<g>
		<rect x="24.5" y="24.6" transform="matrix(0.707 -0.7072 0.7072 0.707 -10.9797 25.1158)" class="st1" width="0.7" height="2.5"/>
	</g>
	<g>
		
			<rect x="30.3" y="25.5" transform="matrix(0.7072 -0.7071 0.7071 0.7072 -9.0232 29.8331)" class="st1" width="2.5" height="0.7"/>
	</g>
</g>
</svg>
