<?xml version="1.0" encoding="utf-8"?>
<!-- Generator: Adobe Illustrator 24.0.1, SVG Export Plug-In . SVG Version: 6.00 Build 0)  -->
<svg version="1.1" id="圖層_1" xmlns="http://www.w3.org/2000/svg" xmlns:xlink="http://www.w3.org/1999/xlink" x="0px" y="0px"
	 viewBox="0 0 158 205.4" style="enable-background:new 0 0 158 205.4;" xml:space="preserve">
<style type="text/css">
	.st0{fill:#E5E5E5;}
</style>
<g>
	<g>
		<g>
			<path class="st0" d="M68.4,49.9c-1.8-1.7-4.1-2.7-6.8-2.7c-7.1,0-12.8,5.7-12.8,12.7v6.6h-0.1c-3.8,0-7.1,2.4-8.3,5.9l-3.1,8.9
				c-1.6,4.7-2.4,9.6-2.4,14.5c0,4.5,1.4,8.8,4,12.4c8.9,12.3,13.6,26.7,13.6,41.8h5.7c0-16.2-5.1-31.8-14.6-45
				c-1.9-2.7-3-5.8-3-9.1c0-4.3,0.7-8.6,2.1-12.7l3.1-8.9c0.4-1.3,1.6-2.1,2.9-2.1h18.5c3,0,5.4,2.4,5.4,5.4v3.2
				c0,3-2.4,5.4-5.4,5.4H51.7v5.6h5.9c13.8,0,18.7,2.8,18.7,10.8H82c0-7.3-3.2-11.3-7.5-13.6c1.5-1.3,2.7-3.1,3.3-5.1
				c2.9,0,5.6-1.2,7.6-3.1c1.8,1.9,4.3,3.1,7.1,3.1h3.2c2.7,0,5.1-1.1,6.9-2.8c1.7,1.7,4.1,2.8,6.7,2.8h3c0.5,0,0.9,0,1.4-0.1v23.9
				c0,14.3-6.2,28.1-16.9,37.7l-2.9,2.6l3.8,4.1l2.9-2.6c11.9-10.7,18.8-25.9,18.8-41.8V80.4c1.3-1.5,2-3.5,2-5.6V62
				c0-5.4-4.5-9.8-9.9-9.8h-1.6c-1.9,0-3.6,0.5-5.1,1.4c-1.6-3.7-5.3-6.3-9.6-6.3h-1.8c-2.8,0-5.3,1.1-7.2,2.8
				c-2.1-2.6-5.3-4.3-8.9-4.3C73.7,45.8,70.5,47.4,68.4,49.9z M65.9,57v9.5H54.5v-6.6c0-3.9,3.2-7.1,7.2-7.1
				C64,52.8,65.9,54.6,65.9,57L65.9,57C65.9,56.9,65.9,56.9,65.9,57z M105.5,62c0-2.3,1.9-4.2,4.3-4.2h1.6c2.4,0,4.3,1.9,4.3,4.2
				v12.7c0,1.9-1.5,3.4-3.4,3.4h-3c-2.1,0-3.7-1.7-3.7-3.7V62z M88.5,57.6c0-2.6,2.1-4.7,4.8-4.7h1.8c2.6,0,4.8,2.1,4.8,4.7V74
				c0,2.3-1.9,4.2-4.2,4.2h-3.2c-2.2,0-3.9-1.7-3.9-3.9V57.6z M82.9,57v16.1c0,2.6-2,4.7-4.6,5v-0.7c0-4.5-2.8-8.4-6.8-10.1V57
				c0-3.1,2.5-5.6,5.7-5.6C80.3,51.4,82.9,53.9,82.9,57z M151.8,27.7c-23.7,0-46.4-7.2-65.7-20.8L79,2l-7.1,5
				c-19.3,13.6-42,20.8-65.7,20.8H3.4v49.1c0,52,28.5,100.1,74.2,125.8l1.4,0.8l1.4-0.8c45.8-25.6,74.2-73.8,74.2-125.8V27.7H151.8z
				 M149,76.8c0,49.4-26.8,95.3-70,120.1C35.8,172.1,9,126.3,9,76.8V33.3c23.9-0.6,46.7-8,66.2-21.8L79,8.8l3.8,2.7
				c19.5,13.7,42.3,21.2,66.2,21.8V76.8z"/>
		</g>
	</g>
</g>
</svg>
