<?xml version="1.0" encoding="utf-8"?>
<!-- Generator: Adobe Illustrator 24.0.1, SVG Export Plug-In . SVG Version: 6.00 Build 0)  -->
<svg version="1.1" id="圖層_1" xmlns="http://www.w3.org/2000/svg" xmlns:xlink="http://www.w3.org/1999/xlink" x="0px" y="0px"
	 viewBox="0 0 35 35" style="enable-background:new 0 0 35 35;" xml:space="preserve">
<style type="text/css">
	.st0{fill:#FFFFFF;}
</style>
<g>
	<path class="st0" d="M17.5,6.3c-7.8,0-14.1,5-14.1,11.2c0,2.3,0.9,4.6,2.6,6.5l-2.4,3.3c-0.2,0.3-0.2,0.7,0,1
		c0.2,0.2,0.4,0.4,0.7,0.4c0.1,0,0.2,0,0.3,0l5.5-1.7c2.2,1.1,4.8,1.7,7.5,1.7c7.8,0,14.1-5,14.1-11.2C31.6,11.3,25.3,6.3,17.5,6.3z
		 M17.5,26.9c-2.5,0-4.9-0.6-7-1.7c-0.1-0.1-0.3-0.1-0.4-0.1c-0.1,0-0.2,0-0.3,0l-3.3,1l1.3-1.8c0.3-0.4,0.2-0.8-0.1-1.1
		c-1.7-1.7-2.6-3.7-2.6-5.8c0-5.2,5.5-9.4,12.3-9.4s12.3,4.2,12.3,9.4C29.9,22.7,24.3,26.9,17.5,26.9z"/>
	<path class="st0" d="M11.5,16.1c-0.7,0-1.3,0.6-1.3,1.3s0.6,1.3,1.3,1.3s1.3-0.6,1.3-1.3C12.7,16.7,12.2,16.1,11.5,16.1z"/>
	<path class="st0" d="M17.5,16.1c-0.7,0-1.3,0.6-1.3,1.3s0.6,1.3,1.3,1.3s1.3-0.6,1.3-1.3S18.2,16.1,17.5,16.1z"/>
	<path class="st0" d="M23.6,16.1c-0.7,0-1.3,0.6-1.3,1.3s0.6,1.3,1.3,1.3s1.3-0.6,1.3-1.3C24.8,16.7,24.3,16.1,23.6,16.1z"/>
</g>
</svg>
