<?xml version="1.0" encoding="utf-8"?>
<!-- Generator: Adobe Illustrator 24.0.1, SVG Export Plug-In . SVG Version: 6.00 Build 0)  -->
<svg version="1.1" id="圖層_1" xmlns="http://www.w3.org/2000/svg" xmlns:xlink="http://www.w3.org/1999/xlink" x="0px" y="0px"
	 viewBox="0 0 35 35" style="enable-background:new 0 0 35 35;" xml:space="preserve">
<style type="text/css">
	.st0{fill:#FFFFFF;}
</style>
<g>
	<path class="st0" d="M12.7,22.3c0.4,0.4,1,0.4,1.4,0l8.4-8.4c0.4-0.4,0.4-1,0-1.4c-0.4-0.4-1-0.4-1.4,0l-8.4,8.4
		C12.3,21.3,12.3,21.9,12.7,22.3z"/>
	<path class="st0" d="M17,20.8c0,0.8-0.2,1.6-0.9,2.3l-3.5,3.5c-1.2,1.2-3.1,1.2-4.2,0c-1.2-1.2-1.2-3.1,0-4.2l3.5-3.5
		c0.6-0.6,1.5-0.9,2.3-0.9l1.7-1.7c-1.8-0.7-3.9-0.4-5.3,1.1l-3.5,3.5c-1.9,1.9-1.9,5.1,0,7c1.9,2,5.1,2,7,0l3.5-3.5
		c1.4-1.4,1.8-3.5,1.1-5.3L17,20.8z"/>
	<path class="st0" d="M28,7c-1.9-1.9-5.1-1.9-7,0l-3.4,3.4c-1.4,1.4-1.8,3.5-1.1,5.3l1.7-1.7c-0.1-0.8,0.2-1.6,0.8-2.2l3.5-3.5
		c1.2-1.2,3.1-1.2,4.2,0c1.1,1.2,1.2,3.1,0,4.2L23.2,16c-0.6,0.6-1.5,0.9-2.3,0.9l-1.7,1.7c1.8,0.7,3.9,0.3,5.3-1.1L28,14
		C29.9,12.1,29.9,8.9,28,7z"/>
</g>
</svg>
