<?xml version="1.0" encoding="utf-8"?>
<!-- Generator: Adobe Illustrator 24.0.1, SVG Export Plug-In . SVG Version: 6.00 Build 0)  -->
<svg version="1.1" id="圖層_1" xmlns="http://www.w3.org/2000/svg" xmlns:xlink="http://www.w3.org/1999/xlink" x="0px" y="0px"
	 viewBox="0 0 35 35" style="enable-background:new 0 0 35 35;" xml:space="preserve">
<style type="text/css">
	.st0{fill:#FFFFFF;}
</style>
<path class="st0" d="M27,6.4h0.9V4.6H10c-1.6,0-2.9,1.3-2.9,2.9V27c0,1.9,1.5,3.4,3.4,3.4h17.4V8.6H27c-0.6,0-1.1-0.5-1.1-1.1
	S26.4,6.4,27,6.4z M11.1,10.4v18.2h-0.6c-0.9,0-1.6-0.7-1.6-1.6V10.1c0.4,0.1,0.7,0.2,1.1,0.2L11.1,10.4L11.1,10.4z M24.4,8.6H10
	c-0.6,0-1.1-0.5-1.1-1.1S9.4,6.4,10,6.4h14.4c-0.1,0.3-0.3,0.7-0.3,1.1S24.3,8.3,24.4,8.6z M21.1,17.7l-1.6-1.6l-1.6,1.6v-7.3h3.2
	V17.7z M12.9,10.4h3.2v11.5l3.4-3.4l3.4,3.4V10.4h3.2v18.2H12.9V10.4z"/>
</svg>
