<?xml version="1.0" encoding="utf-8"?>
<!-- Generator: Adobe Illustrator 24.0.1, SVG Export Plug-In . SVG Version: 6.00 Build 0)  -->
<svg version="1.1" id="圖層_1" xmlns="http://www.w3.org/2000/svg" xmlns:xlink="http://www.w3.org/1999/xlink" x="0px" y="0px"
	 viewBox="0 0 51.5 51.2" style="enable-background:new 0 0 51.5 51.2;" xml:space="preserve">
<style type="text/css">
	.st0{fill:#0948A6;}
</style>
<g>
	<g>
		<g>
			<path class="st0" d="M4.5,27.8l21.7-7l1.3,4L26,25.3l1.4,4.4c0.1,0.4,0.4,0.7,0.7,0.9c0.2,0.1,0.4,0.2,0.7,0.2
				c0.2,0,0.3,0,0.5-0.1l15.3-4.9c0.4-0.1,0.7-0.4,0.9-0.7c0.2-0.4,0.2-0.8,0.1-1.1l-1.4-4.4l-1.5,0.5L38.1,6.1l1.5-0.5l-1.4-4.4
				c-0.3-0.8-1.1-1.2-1.9-1L21,5.2c-0.8,0.3-1.2,1.1-1,1.9l1.4,4.4L23,11l1.3,4L2.6,22c-1.6,0.5-2.5,2.2-2,3.8
				c0.2,0.8,0.8,1.4,1.5,1.8c0.4,0.2,0.9,0.3,1.4,0.3C3.8,27.9,4.2,27.9,4.5,27.8z M43.2,21.3l1,3l-15.3,4.9l-1-3L43.2,21.3z
				 M41.2,20.3l-11.7,3.8l-0.6,0.2l-1.3-4l0,0l-0.9-2.7l-2.3-7.1l12.3-4L41.2,20.3z M22.4,9.6l-1-3l15.3-4.9l-0.2-0.7l1.2,3.7
				L22.4,9.6z M2.8,26.3c-0.4-0.2-0.7-0.5-0.8-0.9c-0.3-0.8,0.2-1.7,1-2l21.7-7l1,3L4,26.4C3.6,26.5,3.2,26.5,2.8,26.3z M49,49.6
				v-5.1h-3v-5.1H27v5.1h-3v5.1H2.7V51h48.3v-1.5H49z M28.5,40.8h16.1v3.6H28.5V40.8z M47.5,49.6h-22v-3.6h22V49.6z M37.2,37.9v-5.7
				h-1.5v5.7H37.2z M27.2,34.2l3.7,3.6l1.1-1l-3.7-3.6L27.2,34.2z M41.1,36.8l1.1,1l3.7-3.6l-1.1-1L41.1,36.8z"/>
		</g>
	</g>
</g>
</svg>
