<?xml version="1.0" encoding="utf-8"?>
<!-- Generator: Adobe Illustrator 24.0.1, SVG Export Plug-In . SVG Version: 6.00 Build 0)  -->
<svg version="1.1" id="圖層_1" xmlns="http://www.w3.org/2000/svg" xmlns:xlink="http://www.w3.org/1999/xlink" x="0px" y="0px"
	 viewBox="0 0 64.3 50.3" style="enable-background:new 0 0 64.3 50.3;" xml:space="preserve">
<style type="text/css">
	.st0{fill:#0948A6;}
</style>
<g>
	<path class="st0" d="M61.1,22.7l-3.9-8.6L57,13.7l-0.6,0l-0.1,0v-0.1h-7.7h-0.5h-4.9h-0.8h-7.7v0.1l0,0l-0.6,0l-4.1,9.1h-2v0.7
		c0,3.2,3,5.9,6.8,5.9c3.7,0,6.8-2.6,6.8-5.9v-0.7h-2l-3.5-7.7h6.5v4.1h2.3v13.8h-6.7c-1.3,0-2.3,0.9-2.3,2.1v1.6h1.7V35
		c0-0.3,0.3-0.6,0.7-0.6H53c0.4,0,0.7,0.3,0.7,0.6v1.6h1.7V35c0-1.1-1-2.1-2.3-2.1h-6.7V19.2h2.3v-4.1h6.5l-3.5,7.7h-2v0.7
		c0,3.2,3,5.9,6.8,5.9c3.7,0,6.8-2.6,6.8-5.9v-0.7H61.1z M39.6,24.2c-0.4,2.1-2.5,3.6-5,3.6s-4.6-1.6-5-3.6H39.6z M37.5,22.7h-5.8
		l2.9-6.4L37.5,22.7z M47,17.7h-3v-2.6h3V17.7z M56.4,16.3l2.9,6.4h-5.8L56.4,16.3z M56.4,27.9c-2.5,0-4.6-1.6-5-3.6h10
		C61,26.3,58.9,27.9,56.4,27.9z M46.3,39h-1.7v2.9H17.5v2.7c0,1.7-1.6,3.2-3.6,3.2c-2,0-3.6-1.4-3.6-3.2V5.1c0-1-0.4-1.8-1-2.5H41
		c2,0,3.6,1.4,3.6,3.2v3.1h1.7V5.8c0-2.6-2.4-4.6-5.3-4.6H5.7c-2.5,0-4.6,1.8-4.6,4v7.1h7.4v32.2c0,2.6,2.4,4.6,5.3,4.6h31.6
		c2.9,0,5.3-2.1,5.3-4.6v-2.7h-4.4V39z M8.6,10.8H2.8V5.1c0-1.4,1.3-2.5,2.9-2.5c1.6,0,2.9,1.1,2.9,2.5V10.8z M49,43.3v1.2
		c0,1.7-1.6,3.2-3.6,3.2H17.7c0.9-0.8,1.4-1.9,1.4-3.2v-1.2h25.5h1.7H49z M33.6,9.7H15.3v1.5h18.3V9.7z M31.2,13.9h-16v1.5h16V13.9z
		 M28.1,18.1H15.3v1.5h12.8V18.1z M23.5,22.2h-8.3v1.5h8.3V22.2z M18.3,29.7h2.2c0.7,0,1.3,0.5,1.3,1.2h1.7c0-1.5-1.3-2.6-3-2.6
		h-0.3V27h-1.7v1.2h-0.3c-1.7,0-3,1.2-3,2.6c0,1.5,1.3,2.6,3,2.6h2.2c0.7,0,1.3,0.5,1.3,1.2c0,0.6-0.6,1.2-1.3,1.2h-0.3h-1.7h-0.3
		c-0.7,0-1.3-0.5-1.3-1.2h-1.7c0,1.5,1.3,2.6,3,2.6h0.3v1.2h1.7v-1.2h0.3c1.7,0,3-1.2,3-2.6s-1.3-2.6-3-2.6h-2.2
		c-0.7,0-1.3-0.5-1.3-1.2C16.9,30.2,17.5,29.7,18.3,29.7z"/>
</g>
</svg>
