<?xml version="1.0" encoding="utf-8"?>
<!-- Generator: Adobe Illustrator 24.0.1, SVG Export Plug-In . SVG Version: 6.00 Build 0)  -->
<svg version="1.1" id="圖層_1" xmlns="http://www.w3.org/2000/svg" xmlns:xlink="http://www.w3.org/1999/xlink" x="0px" y="0px"
	 viewBox="0 0 35 35" style="enable-background:new 0 0 35 35;" xml:space="preserve">
<style type="text/css">
	.st0{fill:#FFFFFF;}
</style>
<g>
	<path class="st0" d="M31.5,19.7l-1.6-1.6c-0.8-0.8-2-0.8-2.8,0L27,18.2l-5.4-5.4l0.8-0.8c0.1-0.1,0.1-0.2,0.2-0.3
		c0.2,0.1,0.4,0.1,0.5,0.1c0.5,0,1-0.2,1.4-0.6L26,9.7c0.8-0.8,0.8-2,0-2.8L22.1,3c-0.8-0.7-2.1-0.7-2.8,0l-1.5,1.5
		c-0.6,0.6-0.8,1.5-0.4,2.2c-0.1,0-0.1,0.1-0.2,0.1l-4.7,4.7c-0.1,0.1-0.2,0.3-0.2,0.5c-0.3-0.1-0.6-0.2-0.9-0.2
		c-0.5,0-1,0.2-1.4,0.6l-1.5,1.5c-0.8,0.8-0.8,2,0,2.8l3.9,3.9c0.4,0.4,0.9,0.6,1.4,0.6s1-0.2,1.4-0.6l1.5-1.5
		c0.6-0.6,0.8-1.5,0.4-2.2c0.2,0,0.4-0.1,0.6-0.2l0.8-0.8l5.4,5.4c-0.4,0.4-0.6,0.9-0.6,1.4s0.2,1,0.6,1.4l1.6,1.6
		c0.4,0.4,0.9,0.6,1.4,0.6s1-0.2,1.5-0.7l3.1-3.1c0.4-0.4,0.6-0.9,0.6-1.4S31.9,20.1,31.5,19.7z M19,5.7l1.5-1.5
		c0.2-0.1,0.3-0.1,0.4,0l3.9,3.9c0.1,0.1,0.1,0.3,0,0.4L23.3,10c-0.1,0.1-0.2,0.1-0.2,0.1c-0.1,0-0.1,0-0.2-0.1L19,6.1
		C18.9,6,18.9,5.8,19,5.7z M15.5,17.9L14,19.4c-0.1,0.1-0.3,0.1-0.4,0l-3.9-3.9c-0.1-0.1-0.1-0.3,0-0.4l1.5-1.5
		c0.1-0.1,0.2-0.1,0.2-0.1c0.1,0,0.1,0,0.2,0.1l3.9,3.9C15.6,17.6,15.6,17.8,15.5,17.9z M30.2,21.3l-3.1,3.1
		c-0.1,0.1-0.2,0.1-0.2,0.1c-0.1,0-0.1,0-0.2-0.1l-1.6-1.6C25,22.7,25,22.6,25,22.6c0-0.1,0-0.1,0.1-0.2l0.6-0.6
		c0.3-0.3,0.3-0.9,0-1.2L19.1,14c-0.2-0.1-0.4-0.2-0.6-0.2c-0.3,0-0.5,0.1-0.7,0.2L17,14.8L14.2,12l3.5-3.5l2.8,2.8l-0.8,0.8
		c-0.3,0.3-0.3,0.9,0,1.2l6.6,6.7c0.3,0.3,0.9,0.3,1.2,0l0.7-0.7c0.1-0.1,0.3-0.1,0.4,0l1.6,1.6c0.1,0.1,0.1,0.1,0.1,0.2
		S30.3,21.2,30.2,21.3z"/>
	<path class="st0" d="M21.8,26.3H20v-1.2c0-1.1-0.9-2.1-2.1-2.1H7.8c-1.1,0-2.1,0.9-2.1,2.1v1.2h-2c-0.4,0-0.8,0.4-0.8,0.9v4.4
		c0,0.5,0.3,0.9,0.8,0.9h18.1c0.5,0,0.9-0.4,0.8-0.9v-4.4C22.6,26.7,22.3,26.3,21.8,26.3z M20.9,30.8H4.6v-2.7h2
		c0.4,0,0.8-0.4,0.8-0.9v-2.1c0-0.2,0.2-0.4,0.4-0.4h10.1c0.2,0,0.4,0.2,0.4,0.4v2.1c0,0.5,0.3,0.9,0.8,0.9h1.8V30.8z"/>
</g>
</svg>
