<?xml version="1.0" encoding="utf-8"?>
<!-- Generator: Adobe Illustrator 24.0.1, SVG Export Plug-In . SVG Version: 6.00 Build 0)  -->
<svg version="1.1" id="圖層_1" xmlns="http://www.w3.org/2000/svg" xmlns:xlink="http://www.w3.org/1999/xlink" x="0px" y="0px"
	 viewBox="0 0 35 35" style="enable-background:new 0 0 35 35;" xml:space="preserve">
<style type="text/css">
	.st0{fill:#FFFFFF;}
</style>
<path class="st0" d="M34.1,16L34.1,16L28.4,5.1c0,0-0.1-0.2-0.3-0.4c-0.1-0.1-0.2-0.2-0.3-0.3c-0.1-0.1-0.2-0.1-0.3-0.2
	c0,0-0.1,0.1-0.1,0.1c-0.1,0-0.1,0-0.2,0L7.8,10.1c0,0-0.1,0-0.1,0.1c-0.1-0.1-0.1-0.1-0.2-0.2c-0.6,0.3-0.9,0.9-0.9,0.9L0.9,21.7
	v0.1C0.8,22,0.6,22.5,0.8,23c1.4,2.3,4,3.9,7,3.9c2.9,0,5.4-1.5,6.8-3.8c0.2-0.5-0.1-1.2-0.1-1.2l-5.3-10c-0.1-0.2-0.1-0.3-0.1-0.4
	c0,0,0,0-0.1-0.1l7.9-2.3V27c0,0.2-0.1,0.7-0.6,1l-3.5,2.2c0,0-0.9,0.6,0,0.6h10c0.7,0,0-0.5,0-0.5l-3.6-2.2
	c-0.6-0.4-0.7-0.8-0.7-1.1V8.6l7.1-2.1l-5.1,9.6c0,0-0.3,0.6-0.1,1.2c1.5,2.3,4,3.8,6.8,3.8c2.9,0,5.5-1.6,7-3.9
	C34.4,16.7,34.2,16.2,34.1,16z M13,21.8L13,21.8c0,0.4,0.2,0.9-0.1,0.9H2.7c-0.3,0-0.3-0.3-0.2-0.6l0.2-0.3l4.9-9.3
	c0,0,0.2-0.4,0.5,0L13,21.8z M32.5,16.8H22.3c-0.5-0.1-0.3-0.5-0.2-0.8l0.1-0.1l4.9-9.3c0.2-0.4,0.5,0,0.5,0l4.9,9.3l0.2,0.3
	C32.8,16.5,32.9,16.8,32.5,16.8z"/>
</svg>
