<?xml version="1.0" encoding="utf-8"?>
<!-- Generator: Adobe Illustrator 24.0.1, SVG Export Plug-In . SVG Version: 6.00 Build 0)  -->
<svg version="1.1" id="圖層_1" xmlns="http://www.w3.org/2000/svg" xmlns:xlink="http://www.w3.org/1999/xlink" x="0px" y="0px"
	 viewBox="0 0 35 35" style="enable-background:new 0 0 35 35;" xml:space="preserve">
<style type="text/css">
	.st0{fill:#FFFFFF;}
</style>
<g>
	<path class="st0" d="M10.9,12.3L10.9,12.3c0,0.1,0,0.2,0.1,0.4l0.3,1.4c0.6,3,3.2,5.2,6.3,5.2c3.1,0,5.7-2.2,6.3-5.2l0.8-4.3
		c0.3-1.9-0.3-3.9-1.6-5.3C21.8,2.9,19.9,2,18,2h-1c-1.9,0-3.8,0.8-5.1,2.3c-1.3,1.5-1.9,3.4-1.6,5.4L10.9,12.3z M14.2,9.4
		c0.5-0.3,1.2-0.3,2.1,0.1c2.5,1.1,4.5,1.1,5.8,1c0.4,0.6,0.2,1.3,0.2,1.4c0,0.1,0,0.2,0,0.3l-0.3,1.6c-0.4,2.1-2.3,3.6-4.4,3.6
		c-2.1,0-4-1.5-4.4-3.6l-0.3-1.5C12.9,11.4,13.3,9.9,14.2,9.4z M22.2,8.5c-1,0.2-2.8,0.3-5.2-0.7c-0.8-0.3-1.5-0.5-2.1-0.5
		c-0.7,0-1.2,0.2-1.8,0.5c-0.3,0.2-0.6,0.5-0.9,0.8c0.1-1,0.5-2.1,1.2-2.9C14.3,4.6,15.6,4,17,4h1c1.4,0,2.7,0.6,3.6,1.6
		c0.7,0.8,1.1,1.8,1.2,2.9C22.6,8.4,22.4,8.4,22.2,8.5z"/>
	<path class="st0" d="M31.5,31.8l-1.8-8.4c-0.2-0.8-0.8-1.5-1.6-1.8l-5.2-1.9c-0.4-0.1-0.7,0-1,0.2l-4.3,4.3l-4.3-4.3
		c-0.3-0.3-0.7-0.4-1-0.2l-5.2,1.9c-0.8,0.3-1.4,1-1.6,1.8l-1.8,8.4c-0.1,0.3,0,0.6,0.2,0.8C3.9,32.8,4.2,33,4.5,33h26
		c0.3,0,0.5-0.1,0.8-0.4C31.5,32.3,31.5,32.1,31.5,31.8z M29.3,31H5.7l1.5-7.3c0-0.2,0.2-0.3,0.3-0.4l4.7-1.7l4.6,4.6
		c0.2,0.2,0.4,0.3,0.7,0.3c0,0,0,0,0,0c0.3,0,0.5-0.1,0.7-0.3l4.6-4.6l4.7,1.7c0.2,0.1,0.3,0.2,0.3,0.4L29.3,31z"/>
</g>
</svg>
