<?xml version="1.0" encoding="utf-8"?>
<!-- Generator: Adobe Illustrator 24.0.1, SVG Export Plug-In . SVG Version: 6.00 Build 0)  -->
<svg version="1.1" id="圖層_1" xmlns="http://www.w3.org/2000/svg" xmlns:xlink="http://www.w3.org/1999/xlink" x="0px" y="0px"
	 viewBox="0 0 35 35" style="enable-background:new 0 0 35 35;" xml:space="preserve">
<style type="text/css">
	.st0{fill:#FFFFFF;}
</style>
<g id="_x31_">
	<g>
		<path class="st0" d="M29.1,17v-3.9c0-1.2-1.1-2-2.2-2h-5.9c-1.2,0-2,0.9-2,2v0.3V17c-1.8,1.3-3,3.4-3.3,5.7c0,0,0,0,0,0
			c0,0.3-0.1,0.7-0.1,1c0,4.6,3.8,8.4,8.4,8.4s8.5-3.8,8.5-8.4C32.3,20.9,31,18.5,29.1,17z M23.9,13.1c0.6,0,1.1,0.5,1.1,1.1
			s-0.5,1.1-1.1,1.1s-1.1-0.5-1.1-1.1S23.2,13.1,23.9,13.1z M27.1,26.9c-0.9,0.9-2,1.4-3.3,1.4c-1.2,0-2.4-0.5-3.3-1.4
			c-0.6-0.6-1-1.3-1.2-2.1c0-0.2-0.1-0.4-0.1-0.6c0,0,0,0,0-0.1c0-0.1,0-0.1,0-0.2c0,0,0,0,0-0.1c0-0.1,0-0.2,0-0.3
			c0-0.1,0-0.2,0-0.3c0,0,0,0,0-0.1c0-0.1,0-0.1,0-0.2c0,0,0,0,0-0.1c0-0.1,0-0.1,0-0.2c0,0,0,0,0,0c0-0.1,0-0.2,0.1-0.2
			c0.2-0.8,0.6-1.6,1.2-2.2c0.9-0.9,2-1.4,3.3-1.4c1.2,0,2.4,0.5,3.3,1.4s1.4,2,1.4,3.3C28.5,24.9,28,26.1,27.1,26.9z"/>
		<path class="st0" d="M14.5,26.9c-0.5,0.5-1.1,0.9-1.8,1.2c-1.2,0.4-2.4,0.4-3.5-0.2c-1.1-0.5-2-1.5-2.4-2.6
			c-0.4-1.2-0.4-2.4,0.2-3.5c0.5-1.1,1.5-2,2.6-2.4c1.2-0.4,2.4-0.4,3.5,0.2c0.5,0.2,1,0.6,1.4,1c0.2-0.5,0.4-1,0.6-1.4
			c0.6-1.1,1.5-2.1,2.3-2.9v-3.1c0-0.1,0-0.3,0-0.4l-3.5-1.6c-1-0.5-2.3,0-2.8,1l-1.6,3.5c-2.5,0.5-4.7,2.2-5.9,4.7
			c-2,4.2-0.2,9.2,4,11.2c3,1.4,6.5,0.9,8.9-1.1c-0.7-0.8-1.3-1.7-1.7-2.7C14.6,27.4,14.5,27.2,14.5,26.9z M14.9,13.7
			c0.6,0,1.1,0.5,1.1,1.1c0,0.6-0.5,1.1-1.1,1.1c-0.6,0-1.1-0.5-1.1-1.1C13.7,14.2,14.2,13.7,14.9,13.7z"/>
		<path class="st0" d="M16.6,11.5c1.6,0,2.9-1.3,2.9-2.9c0,0,0-0.1,0-0.1c0.1,0,0.3,0,0.4,0c0.4,0,0.8-0.1,1.2-0.3
			c0.4,1.1,1.5,2,2.7,2c1.6,0,2.9-1.3,2.9-2.9c0-1.6-1.3-2.9-2.9-2.9c-0.4,0-0.8,0.1-1.2,0.3c-0.4-1.1-1.5-2-2.7-2
			c-1.6,0-2.9,1.3-2.9,2.9c0,0,0,0.1,0,0.1c-0.1,0-0.3,0-0.4,0c-1.6,0-2.9,1.3-2.9,2.9S15,11.5,16.6,11.5z M23.9,6.1
			c0.7,0,1.3,0.6,1.3,1.3s-0.6,1.3-1.3,1.3c-0.7,0-1.3-0.6-1.3-1.3C22.6,6.7,23.1,6.1,23.9,6.1z M19.9,4.4c0.7,0,1.3,0.6,1.3,1.3
			S20.6,7,19.9,7c-0.7,0-1.3-0.6-1.3-1.3S19.2,4.4,19.9,4.4z M16.6,7.3c0.7,0,1.3,0.6,1.3,1.3s-0.6,1.3-1.3,1.3
			c-0.7,0-1.3-0.6-1.3-1.3C15.3,7.9,15.9,7.3,16.6,7.3z"/>
	</g>
</g>
</svg>
