<?xml version="1.0" encoding="utf-8"?>
<!-- Generator: Adobe Illustrator 24.0.1, SVG Export Plug-In . SVG Version: 6.00 Build 0)  -->
<svg version="1.1" id="圖層_2_1_" xmlns="http://www.w3.org/2000/svg" xmlns:xlink="http://www.w3.org/1999/xlink" x="0px"
	 y="0px" viewBox="0 0 1189.3 832.9" style="enable-background:new 0 0 1189.3 832.9;" xml:space="preserve">
<style type="text/css">
	.st0{fill:none;stroke:#FFBE23;stroke-miterlimit:10;}
</style>
<path class="st0" d="M0.4,587.5c7.3,8.2,14.3,17.2,21.3,25.2c1,1,3,2,4,3c67,73,147,129,238,165c4,2,9,4,13,6c2,1,3,0,5,1
	c91,36,189,45,286,36c3,0,7-2,10-2c21-2,40-5,61-10c16-4,31-8,47-12c27-8,53-18,79-30c4-1,8-3,12-4c90-42,166-101,230-180
	c1-1,1-3,2-4c12-14,22-28,32-44c2-2,5-4,6-7c3-6,6-10,9-16c1-1,2-2,3-3c17-29,31-58,44-88c3-9,7-17,10-25c1-2,0-4-1-5.7"/>
<path class="st0" d="M1141.3,287.4c14.4-94.7,13.4-192.8-14.3-284.7"/>
</svg>
