<?xml version="1.0" encoding="utf-8"?>
<!-- Generator: Adobe Illustrator 24.0.1, SVG Export Plug-In . SVG Version: 6.00 Build 0)  -->
<svg version="1.1" id="圖層_2_1_" xmlns="http://www.w3.org/2000/svg" xmlns:xlink="http://www.w3.org/1999/xlink" x="0px"
	 y="0px" viewBox="0 0 580.3 1327.1" style="enable-background:new 0 0 580.3 1327.1;" xml:space="preserve">
<style type="text/css">
	.st0{fill:none;stroke:#FFBE23;stroke-miterlimit:10;}
</style>
<path class="st0" d="M-3.5,1311.7c9.5-2.5,18.5-4.5,28.5-6.5c19-5,37-11,55-17c23-9,44-19,66-29c26-13,49-27,74-44
	c16-12,31-22,46-35c15-14,30-26,44-40c69-70,123-150,159.3-240.5"/>
<path class="st0" d="M522.8,699.5c11.2-80.3,9.2-159.3-2.8-240.3c-2-10-4-18-6-28c-10-55-25-106-48-156c-1-2,0-3-1-5
	c-45-99-107-190-189.6-260.4"/>
</svg>
