<?xml version="1.0" encoding="utf-8"?>
<!-- Generator: Adobe Illustrator 24.0.1, SVG Export Plug-In . SVG Version: 6.00 Build 0)  -->
<svg version="1.1" id="圖層_2" xmlns="http://www.w3.org/2000/svg" xmlns:xlink="http://www.w3.org/1999/xlink" x="0px" y="0px"
	 viewBox="0 0 368.8 286.3" style="enable-background:new 0 0 368.8 286.3;" xml:space="preserve">
<style type="text/css">
	.st0{fill:#0948A6;}
	.st1{fill:#4273BC;}
	.st2{fill:#057EC0;}
</style>
<g>
	<g>
		<g>
			<polygon class="st0" points="232.2,230.8 226.9,230.8 226.9,195.7 228.4,195.7 228.4,229.3 230.7,229.3 230.7,195.7 232.2,195.7 
							"/>
		</g>
		<g>
			<polygon class="st0" points="226.4,195.1 198.8,193.5 198.8,189.4 226.5,189.4 226.5,190.9 200.3,190.9 200.3,192.1 226.5,193.6 
							"/>
		</g>
		<g>
			<polygon class="st0" points="232.7,195.1 232.6,193.6 258.9,192.1 258.9,190.9 232.6,190.9 232.6,189.4 260.4,189.4 260.4,193.5 
							"/>
		</g>
		<g>
			<path class="st0" d="M229.6,197c-2.5,0-4.5-2-4.5-4.5c0-2.5,2-4.5,4.5-4.5c2.5,0,4.5,2,4.5,4.5C234.1,194.9,232.1,197,229.6,197z
				 M229.6,189.4c-1.7,0-3,1.4-3,3s1.4,3,3,3c1.7,0,3-1.4,3-3S231.3,189.4,229.6,189.4z"/>
		</g>
		<g>
			<path class="st0" d="M232.2,189.2h-1.5v-1.8c0-0.6-0.5-1.2-1.2-1.2c-0.6,0-1.2,0.5-1.2,1.2v1.8h-1.5v-1.8c0-1.5,1.2-2.6,2.6-2.6
				c1.5,0,2.6,1.2,2.6,2.6V189.2z"/>
		</g>
		<g>
			<g>
				<polygon class="st0" points="269.1,200.9 254.8,195.2 261.8,208.9 260.4,209.6 252.4,193.8 252.8,193.3 253.1,192.9 
					253.6,193.1 269.7,199.5 				"/>
			</g>
			<g>
				<path class="st0" d="M271.6,210.5c-3.2,3.5-8.7,3.8-12.2,0.7l-0.6-0.5l11.7-12.8l0.6,0.5C274.6,201.5,274.8,206.9,271.6,210.5z
					 M261,210.5c2.9,2.1,7,1.7,9.5-1c2.5-2.7,2.5-6.9,0.2-9.5L261,210.5z"/>
			</g>
		</g>
		<g>
			<g>
				<polygon class="st0" points="200.8,210.6 203.9,195.5 191.6,204.8 190.7,203.7 204.8,192.9 205.3,193.2 205.8,193.5 205.7,194 
					202.3,210.9 				"/>
			</g>
			<g>
				<path class="st0" d="M191.8,214.7c-4.1-2.5-5.3-7.9-2.8-11.8l0.4-0.6l14.7,9.2l-0.4,0.6C201.2,216.1,195.9,217.3,191.8,214.7z
					 M189.9,204.3c-1.6,3.2-0.4,7.2,2.7,9.1c3.1,2,7.2,1.3,9.4-1.5L189.9,204.3z"/>
			</g>
		</g>
	</g>
	<path class="st0" d="M15.5,129.6v-3.2h53.3v6.2h1.5c3.6,0,7.9-2.3,8-3.1V62.9c1.7-0.4,2.9-1.1,3.5-1.9l-9.2-7.3l-4.6,5.1H16.2
		l-10-4.2v78.5h1.5C11.7,133.1,15.5,130.8,15.5,129.6z M15.5,61.3h53.3V124H15.5V61.3z"/>
	<path class="st0" d="M51.7,94.1c-1.4-5.4-2-11.4-2.3-17.6h15.5c1.2,0,2-0.4,2.3-1.4c-1.3-1.3-3.1-2.7-4.5-3.9
		c2.6-2.4,1.6-8-9.7-8.5l-0.8,0.6c2.1,1.9,4.4,5.2,5.3,8.1l0.3,0.2L56,74h-6.7c-0.1-2.4-0.1-4.9-0.1-7.3c2-0.2,2.7-1.1,3-2.1
		l-11.4-2c0.1,3.8,0.2,7.7,0.3,11.4H17.4l0.7,2.5h23.2c0.2,2.6,0.3,5.3,0.7,7.9l-6.7-5L32,82.7h-4.3l-7.2-3v22.5h1
		c2.7,0,5.8-1.6,5.8-2.1v-2.1h5.2v2.6h1.1c2.5,0,5.8-1.7,5.9-2.3V85.6c1.1-0.2,2.1-0.7,2.4-1.1c0.9,6.7,2.2,13.1,4.4,18.8
		c-5,7.2-11,12.8-17.6,16.9l0.8,1c7.4-2.9,14-6.7,19.6-12.1c1.6,2.9,3.5,5.6,5.7,7.9c2.7,2.9,8.3,5.7,11.3,2.6
		c1.2-1.3,0.8-3.3-1.5-7.2l1.4-11.7l-0.9-0.2c-1,3-2.5,6.7-3.5,8.5c-0.7,1.3-1.1,1.4-2,0.3c-1.9-1.9-3.3-4.2-4.6-6.7
		c3.7-4.9,6.7-10.6,9.2-17.4c2,0.3,3.1-0.3,3.5-1.4l-10.8-4.5C55.6,84.7,53.8,89.6,51.7,94.1z M32.6,95.6h-5.2V85h5.2V95.6z"/>
	<path class="st0" d="M42.1,102.6c-10.3,1.8-20.5,3.3-25,3.8l4.9,9.8c0.9-0.3,1.7-1,2.1-2.1c8.4-4.4,14.4-8,18.2-10.5L42.1,102.6z"
		/>
	<path class="st0" d="M111.1,130.8c11.9-6.7,21.4-13.1,26.7-16.7l-0.3-0.9c-7.4,2.3-14.8,4.4-20.9,6.2V97.9h19.1
		c3.2,14.5,10.8,26.6,26.3,33.2c5.3,2.1,11.7,3.4,14.2-0.7c1.3-2.3,0.6-4.3-2.5-7.3l1.2-11.4l-0.9-0.2c-1.3,3.3-3.2,7.1-4.4,9
		c-0.9,1.2-1.7,1.5-3.4,0.8c-10.9-4.2-17.1-12.9-20.1-23.5h27.5c1.3,0,2.2-0.4,2.5-1.4c-4-3.4-10.4-8.3-10.4-8.3l-5.8,7.3h-14.4
		c-1.1-4.8-1.6-9.9-1.6-15.1h12.6v4.5h1.7c3.4,0,8.4-2.1,8.5-2.6V63.5c1.8-0.3,2.9-1.1,3.4-1.8l-9.8-7.4l-4.6,5.1h-37.7l-11.3-4.3
		v62.7c0,2.3-0.5,3.2-3.6,5l5.7,10.4C109.4,132.9,110.3,132,111.1,130.8z M116.5,61.8h39.7v16.1h-39.7V61.8z M116.5,80.3h17
		c0.2,5.2,0.7,10.3,1.6,15.1h-18.6V80.3z"/>
	<path class="st0" d="M195.7,107.3h-4v1.7c1.9,0.2,3.3,0.5,4.5,1.4c2.1,1.4,2.5,9.4,0.9,18.3c0.6,3.3,2.6,4.5,4.7,4.5
		c4,0,6.9-2.9,7-7.2c0.3-7.6-3.2-10.7-3.2-15.3c-0.1-2.3,0.5-5.5,1.4-8.5c1.2-4.9,7.7-25.8,11.4-37.2l-1.5-0.3
		c-16.7,37.4-16.7,37.4-18.6,40.8C197.4,107.3,196.9,107.3,195.7,107.3z"/>
	<path class="st0" d="M197.7,54.1l-0.7,0.6c3.1,3.2,6.7,8.2,7.9,12.9C214.1,73.6,221.6,56.2,197.7,54.1z"/>
	<path class="st0" d="M255.7,91.7h-10.4V73.4h19.6c1.3,0,2.2-0.4,2.5-1.4c-3.8-3.3-9.8-8.2-9.8-8.2l-5.4,7.1h-6.8V56.7
		c2.2-0.3,2.9-1.2,3.2-2.4l-13.2-1.1v17.8h-16.8l0.7,2.5h16.1v18.3h-22.7l0.7,2.4h20.7c-3,7.8-10.9,20.4-16.6,24.5
		c-0.9,0.7-3.1,1.2-3.1,1.2l4.8,11.8c0.9-0.3,1.5-0.9,2.1-1.9c14.9-3.4,27.1-6.7,35.3-9.3c1.5,3.4,2.7,6.7,3.3,10
		c10.7,8.4,19-14-11.4-26l-0.9,0.5c2.7,3.8,5.6,8.4,7.9,13.2c-12.7,0.9-24.9,1.5-33.1,1.9c8.2-5.2,17.5-13.2,22.6-19.4
		c1.7,0.2,2.8-0.5,3.2-1.3l-11.4-5.2h32.5c1.3,0,2.1-0.4,2.4-1.4c-3.8-3.5-10.3-8.5-10.3-8.5L255.7,91.7z"/>
	<path class="st0" d="M190.6,73.5l-0.7,0.5c3,2.9,6.5,7.8,7.6,12C206.4,91.7,213.4,74.8,190.6,73.5z"/>
	<path class="st0" d="M293.5,81.4c3.1-1.8,5.1-6.1,4.4-12.2h52.5c-0.3,3.1-0.9,6.8-1.5,9.5l0.8,0.5c3.8-2,8.5-5.4,11.3-7.9
		c1.9-0.2,2.6-0.3,3.2-1l-9.2-8.9l-5.3,5.4h-21c5.8-2.5,6.6-13.6-12-13.8l-0.6,0.5c3.2,2.7,5.6,7.5,5.6,12c0.7,0.5,1.5,0.9,2.1,1.2
		h-26.3c-0.4-1.6-0.9-3.2-1.6-5h-1c0.3,3.9-3.2,7.6-6.1,9.1c-3.1,1.3-5.2,4-4.3,7.6C285.7,82.1,290.5,83.3,293.5,81.4z"/>
	<path class="st0" d="M344.1,132.6c3.4,0,8.3-2.1,8.4-2.8v-19.4c1.6-0.3,2.6-1,3.2-1.7l-9.6-7.2l-4.6,5h-30.8V95.8h26.1v4.1h1.7
		c3.2,0,8.3-1.7,8.4-2.2V81.8c1.5-0.3,2.6-1,3.1-1.6l-9.4-7.1l-4.5,4.9h-24.7l-10.7-4.4v59.5h1.6c4.4,0,8.5-2.4,8.5-3.6v-3.2h31.6
		v6.3H344.1z M310.8,80.3h26.1v13.1h-26.1V80.3z M310.8,123.8v-14.9h31.6v14.9H310.8z"/>
	<path class="st0" d="M62.9,192H2.6l0.8,2.7h76.5c1.5,0,2.4-0.4,2.6-1.4c-4.7-4.4-12.6-11.3-12.6-11.3L62.9,192z"/>
	<path class="st0" d="M96.6,186.5l0.7,2.4h38.9c1.2,0,2.1-0.4,2.3-1.4c-3.3-3.1-8.7-7.5-8.7-7.5l-4.9,6.5h-2.9V173h11.4
		c1.2,0,2.1-0.4,2.2-1.4c-3.2-3-8.4-7.3-8.4-7.3l-4.7,6.2h-0.6v-11.6c2-0.3,2.6-1,2.7-2.1l-12.3-1.1v14.9H99.5l0.7,2.5h12.2v13.5
		H96.6z"/>
	<path class="st0" d="M123.8,223.2v-16.6h12.1c1.2,0,2-0.4,2.2-1.4c-2.8-3.1-7.9-7.6-7.9-7.6l-4.4,6.5h-2.1v-10.5
		c1.9-0.3,2.5-1,2.6-2.1l-11.8-1.3v29.2c-2.3-1.6-4.4-3.6-6.1-6.3c1-4.5,1.7-9.1,2.1-13.4c2-0.2,2.8-0.9,3.2-2.1l-11.5-2.1
		c0.2,13-1.5,30.3-7.2,41.8l1,0.8c5.7-5.7,9.3-13.5,11.4-21.4c6.2,13.5,16.7,16.7,35.2,16.7h28.4c0.2-3.8,2-7.1,5.6-7.9v-1
		c-8,0.3-26.2,0.3-33.7,0.3C135.3,224.6,129,224.4,123.8,223.2z"/>
	<path class="st0" d="M162.3,192.9c3,0,7.8-1.7,7.9-2.2v-21.7c1.9-0.3,3.1-1.1,3.7-1.9l-9.6-7.3l-4.4,5h-10.3l-10.4-3.9v48
		c0,6.7,2.1,8.6,10.4,8.6h8.2c13.4,0,17.3-1.7,17.3-5.7c0-1.6-0.7-2.7-3.2-3.8l-0.3-13.5h-0.9c-1.5,5.8-3,11.2-3.9,12.8
		c-0.5,1-1.1,1.3-2,1.4c-1.1,0-3.3,0.1-6,0.1h-6.9c-2.7,0-3.2-0.5-3.2-2.1v-18.5h12.2v4.8H162.3z M148.5,185.7v-18.5h12.2v18.5
		H148.5z"/>
	<path class="st0" d="M255.6,179.2c3.7-2,8.5-5.6,11.3-8.2c1.8-0.2,2.6-0.3,3.3-1l-8.9-8.5l-5,5.1h-53.6c-0.3-1.4-0.8-2.9-1.4-4.4
		h-1.2c0.3,4.2-2.9,8.1-5.8,9.6c-2.5,1.2-4.3,3.5-3.3,6.5c1,3.1,5,3.8,7.6,2.1c2.9-1.7,5-5.7,4.4-11.4h43.8
		c-9.9,2.6-28.4,5.7-42.8,7l0.2,1.5c6.7,0.2,14.1,0.2,21,0v11.7h9.8v-12c2.8-0.1,5.6-0.3,8.1-0.4c-0.9,3.7-2.5,8.7-4.1,12.4h3
		c3.6-2.1,7.3-4.8,9.8-6.9c1.8,0.2,2.9-0.4,3.3-1.5l-11.4-4.2c2-0.1,3.9-0.3,5.7-0.4c2.3,1,4,1.1,5,0.4l-7.2-7.8h9.7
		c-0.6,3.1-1.4,7-2.1,9.6L255.6,179.2z"/>
	<path class="st0" d="M208.4,178.3l-0.7,0.4c1.5,2.1,3,5.8,2.7,9c0.8,0.7,1.6,1.3,2.5,1.6h3.9C221.4,187.6,222.6,180.2,208.4,178.3z
		"/>
	<path class="st0" d="M223.5,155.1l-0.6,0.5c2.1,2.1,3.6,5.9,3.2,9.1C234.8,171.9,245.2,155.3,223.5,155.1z"/>
	<path class="st0" d="M350.5,223.3c0,1.1-0.5,1.6-2,1.6c-1.8,0-11.1-0.7-11.1-0.7v1.2c4.4,0.8,6.3,1.9,7.9,3.5
		c1.4,1.5,1.8,3.8,2,7.1c11.6-1.1,13.2-5,13.2-12v-64.6c2.1-0.3,3-1.1,3.1-2.4l-13.1-1.3V223.3z"/>
	<path class="st0" d="M315.9,183.3c4.3-4.4,8.7-10.3,12.5-15.8c2,0.2,3.1-0.6,3.5-1.6l-11.8-4.5c-1.7,7.4-3.8,16.1-5.4,21.4
		L315.9,183.3z"/>
	<path class="st0" d="M287.7,161.6l-0.9,0.4c2.6,5.3,5,12.6,5,19C299.7,188.9,309.3,171.9,287.7,161.6z"/>
	<path class="st0" d="M342.8,213.7v-46.1c2.3-0.3,3-1.2,3.2-2.4l-12.6-1.2v39.2c-3.2-3.2-8.6-7.6-8.6-7.6l-4.9,6.7h-7.3
		c0.2-2.1,0.3-4.4,0.3-6.7V188H329c1.3,0,2.1-0.4,2.3-1.4c-3.2-3.2-8.6-7.7-8.6-7.7l-4.9,6.6H313v-26.1c2.2-0.3,2.9-1.2,3.1-2.4
		l-12.8-1.3v29.8H287l0.7,2.5h15.5v7.7c0,2.3-0.1,4.5-0.3,6.7h-18.5l0.7,2.5h17.6c-1.5,12.6-6.7,22.5-18.5,30.1l0.7,0.9
		c17.7-6.2,25.3-16.8,27.4-31h19.1c0.9,0,1.6-0.3,2-0.9v12.4h1.7C338.8,216.4,342.8,214.6,342.8,213.7z"/>
	<g>
		<path class="st0" d="M250.7,201.9l-2.1-0.9l-3.9,4.4l-13.5,0c0.5,0.7,0.6,1.7,0.2,2.4h3.4v0h10.5v8.7h-10.5v0h-3.5
			c0.6,0.7,0.7,1.7,0.4,2.5h13.6v9.3h-30.8V219h13.1c-0.3-0.8-0.2-1.8,0.4-2.5h-2.7v0h-10.8v-8.7h10.8v0h2.1
			c-0.3-0.8-0.3-1.7,0.2-2.4l-22.9,0h0v30.2h1.7c5,0,8-2.2,8-3v-1.9h30.8v4h1.7c3.1,0,8.1-1.5,8.2-2.1v-23.6
			c1.5-0.3,2.5-0.9,2.9-1.5L250.7,201.9z"/>
	</g>
</g>
<g>
	<path class="st1" d="M28.3,3.5v23.9h-0.8V26H6.4v1.5H5.5V3.5H28.3z M27.5,25.2V4.3H6.4v20.9H27.5z M17.2,19.8
		c-3.1,0.7-6.4,1.5-8.8,2l-0.3-0.8c2.3-0.5,5.6-1.2,9-2L17.2,19.8z M23.9,11.7c-0.7,2.9-1.8,5.3-3.3,7.4c0.8,2.1,1.9,3.5,3.3,3.7
		c0.5,0.1,0.8-1.2,1-3.2c0.2,0.2,0.5,0.3,0.7,0.3c-0.3,2.7-0.8,3.8-1.9,3.6C22.2,23.3,21,22,20,19.8c-1.3,1.6-2.8,3-4.5,4.1
		c-0.1-0.2-0.4-0.5-0.7-0.6c1.9-1.1,3.5-2.6,4.8-4.4c-0.9-2.4-1.5-5.7-1.8-9.2H8.4V8.9h9.4c-0.1-1.2-0.2-2.4-0.3-3.6h0.8
		c0.1,1.2,0.2,2.4,0.3,3.6h7v0.8h-6.9c0.3,3.2,0.8,6.2,1.6,8.5c1.2-1.9,2.2-4.1,2.8-6.6L23.9,11.7z M15.9,12.1v5.5H9.7v-5.5H15.9z
		 M15,12.9h-4.5v3.9H15V12.9z M24,7.9c-0.8-0.7-2.2-1.6-3.4-2.1L21,5.3c1.2,0.5,2.7,1.3,3.4,2L24,7.9z"/>
	<path class="st1" d="M66.5,17.1c1.6,5.5,4.9,9.2,8.4,9.2c1,0,1.4-1.1,1.5-4.3c0.2,0.2,0.5,0.3,0.8,0.4C77,25.9,76.5,27,74.9,27
		c-4.1,0-7.6-4.1-9.3-10H56V26l6.9-1.9c0,0.2,0.1,0.6,0.1,0.8c-7.1,2.1-7.9,2.4-8.3,2.7c-0.1-0.2-0.3-0.6-0.5-0.8
		c0.3-0.2,1-0.6,1-1.7V3.7h19.4v7.1h-9.1c0.1,1.9,0.4,3.7,0.8,5.4h10.6v0.8H66.5z M56,4.6v5.5h17.8V4.6H56z M65.4,16.3
		c-0.4-1.7-0.7-3.5-0.8-5.4H56v5.4H65.4z"/>
	<path class="st1" d="M123.2,13.2c-0.3-0.5-0.8-1.1-1.3-1.7c-5.3,0.4-6.7,0.5-7.3,0.6c2.9,2.4,6.8,4.3,10.3,5.3
		c-0.2,0.2-0.4,0.5-0.6,0.7c-4.3-1.4-9.5-4.3-12.4-7.5c-2.7,3.7-7.1,6.2-11.7,7.8c-0.1-0.1-0.4-0.5-0.7-0.7c5.2-1.7,10-4.5,12.5-8.7
		l0.8,0.3c-0.1,0.2-0.3,0.4-0.4,0.6c0.5,0.6,1.2,1.2,1.8,1.8c-0.1-0.2-0.1-0.4-0.2-0.6c0.3-0.1,0.6-0.2,0.9-0.5
		c0.4-0.3,1.7-1.7,2.4-3.1l0.8,0.4c-0.8,1.2-1.7,2.2-2.5,3l5.5-0.3c-0.6-0.6-1.1-1.1-1.7-1.6l0.7-0.4c1.4,1.2,2.9,2.8,3.6,3.9
		L123.2,13.2z M108.6,12.7c-0.2-0.3-0.4-0.6-0.6-1c-5.7,0.3-6.5,0.4-6.9,0.5c-0.1-0.2-0.2-0.7-0.3-1c0.4-0.1,0.8-0.3,1.2-0.6
		c0.5-0.3,2.3-1.9,3.4-3.4l0.8,0.4c-1.2,1.4-2.4,2.6-3.6,3.5l4.8-0.2c-0.4-0.4-0.7-0.8-1.1-1.1l0.7-0.4c0.9,0.8,1.9,2,2.4,2.8
		L108.6,12.7z M120.3,7.8c-0.5-0.5-1.1-1.1-1.9-1.7c-12.9,0.6-14,0.7-14.6,0.9c0-0.2-0.2-0.7-0.3-1c0.4,0,1-0.3,1.6-0.6
		c0.7-0.4,3.1-1.9,4.8-3.5l0.8,0.5c-1.7,1.4-3.4,2.6-5.1,3.5l11.8-0.5c-1-0.7-2-1.4-3-2l0.6-0.5c2.1,1.2,4.6,3,5.9,4.3L120.3,7.8z
		 M120.6,20.5c-3.2,3.4-9.6,5.8-16.5,6.9c-0.1-0.2-0.3-0.6-0.5-0.8c6.9-1,13.2-3.2,16.3-6.5L120.6,20.5z M113.9,14.7
		c-2.3,2-6.2,3.8-9.5,4.9c-0.1-0.2-0.4-0.4-0.6-0.6c3.2-1,7.1-2.7,9.4-4.6L113.9,14.7z M117,17.6c-2.7,2.3-7.5,4.4-11.8,5.5
		c-0.1-0.2-0.4-0.5-0.6-0.7c4.3-1,9-2.9,11.6-5.2L117,17.6z"/>
	<path class="st1" d="M172.2,19.8v0.8h-25v-0.8h3.1l-0.6-15.3c1.7-0.6,3.8-1.5,5-2.2l0.6,0.7c-1.3,0.7-3.2,1.4-4.8,2l0.2,4h4.4v0.8
		h-4.4l0.2,4.5h4.3v0.8H151l0.2,4.6h17.3c0.1-1.2,0.2-2.8,0.2-4.4h-4.5v-0.8h4.5c0.1-1.5,0.1-3,0.2-4.6h-4.6V9.2h4.6
		c0.1-1.7,0.1-3.2,0.1-4.7h-4.9V3.7h5.7c-0.1,4.9-0.3,12.1-0.5,16.1H172.2z M156.6,22.1c-2.1,1.9-5.4,3.9-8.1,5.2
		c-0.1-0.2-0.4-0.5-0.6-0.6c2.7-1.2,6.1-3.2,7.8-5L156.6,22.1z M159.2,13c-0.4,2.1-1.2,4.2-2.1,5.6c-0.1-0.1-0.5-0.3-0.8-0.4
		c1-1.4,1.7-3.3,2-5.3L159.2,13z M161.7,11.1H157V2.3h0.8v3.3h4.9v0.8h-4.9v3.9h4.3v0h0.4v7.8c0,0.6-0.1,0.8-0.6,1
		c-0.5,0.2-1.4,0.2-2.8,0.2c-0.1-0.3-0.2-0.6-0.4-0.8c1.3,0,2.2,0,2.5,0c0.3,0,0.4-0.1,0.4-0.4V11.1z M163.3,21.7
		c3.1,1.5,6.3,3.4,8.3,4.9l-0.6,0.6c-2-1.5-5.1-3.4-8.2-5L163.3,21.7z"/>
	<path class="st1" d="M206.1,13.4h3.8v0.8h-3.8v12.9h-0.8V14.2h-5.9c-0.1,4.9-0.7,9.4-4.3,13.1c-0.2-0.2-0.4-0.4-0.7-0.5
		c3.4-3.5,4.1-8,4.1-12.6h-3.9v-0.8h3.9V4.6h-3.2V3.7h13.6v0.8h-2.9V13.4z M205.3,13.4V4.6h-5.9v8.8H205.3z M212.8,20.6H212V5.4h0.8
		V20.6z M218.6,2.7v23.2c0,0.9-0.4,1.2-1,1.4c-0.6,0.2-2,0.2-4.5,0.1c-0.1-0.2-0.2-0.5-0.4-0.8c2.2,0.1,3.9,0,4.3,0
		c0.5,0,0.8-0.2,0.8-0.7V2.7H218.6z"/>
	<path class="st1" d="M267.4,19.2h-2.9v5h-0.8v-1.3h-8.4v2.9c0,1-0.3,1.3-1,1.5c-0.7,0.2-2.1,0.2-4.4,0.2c-0.1-0.3-0.2-0.6-0.4-0.9
		c2,0.1,3.8,0,4.3,0c0.5,0,0.7-0.2,0.7-0.7v-2.9h-9.7v-0.8h9.7v-2.9h-11.9v-0.8h11.9v-2.7h-9.4v-0.8h9.4v-2.7H246V7.8h8.5V5.6H243
		V4.8h11.5V2.1h0.8v2.7H267v0.8h-11.7v2.2h8.8v4.3h-8.8v2.7h9.2v3.6h2.9V19.2z M254.4,11.3V8.6h-7.6v2.7H254.4z M255.3,8.6v2.7h8
		V8.6H255.3z M255.3,18.4h8.4v-2.7h-8.4V18.4z M263.7,19.2h-8.4v2.9h8.4V19.2z"/>
	<path class="st1" d="M314.2,20c-0.8-0.7-1.8-1.5-2.9-2.2v9.4h-0.8v-1h-15.6v1H294v-9.1c-1.3,0.6-2.7,1.1-3.9,1.5
		c-0.1-0.2-0.4-0.5-0.6-0.6c3.7-1,8.1-3.3,10.8-5.8h-10.1v-0.8h11.8V8.6c-2.7,0.2-5.4,0.3-7.9,0.3c0-0.2-0.1-0.5-0.3-0.8
		c5.5-0.1,12.6-0.5,16.2-1.2l0.6,0.7c-2,0.4-4.8,0.7-7.8,0.9v4h4.3c0.6-1,1.3-2.5,1.8-3.5l0.8,0.4c-0.5,1-1.1,2.2-1.7,3.1h6.6v0.8
		h-9.4c3.7,2,7.3,4.2,9.6,6.2L314.2,20z M291.8,9.2H291V4.6h11.3C302,3.9,301.5,3,301,2.3l0.8-0.3c0.6,0.8,1.1,1.8,1.5,2.6h10.9v4.5
		h-0.8V5.5h-21.6V9.2z M302.1,18.3h-7.3v3.1h7.3V18.3z M294.8,25.4h7.3v-3.2h-7.3V25.4z M296.1,9.4c0.6,0.8,1.3,1.8,1.5,2.5
		l-0.8,0.4c-0.2-0.7-0.8-1.8-1.4-2.5L296.1,9.4z M301.4,13.3c-1.5,1.5-3.8,3-6,4.2h6.7v-4.2H301.4z M310.9,17.5
		c-2.1-1.4-4.6-2.9-7.2-4.2h-0.8v4.2H310.9z M310.4,18.3h-7.5v3.1h7.5V18.3z M310.4,25.4v-3.2h-7.5v3.2H310.4z"/>
	<path class="st1" d="M345.5,13.4c0,1.4-0.1,2.8-0.2,4.1h6.7v0.8h-6.8c-0.6,3.5-2.1,6.6-5.9,9.2c-0.2-0.1-0.4-0.4-0.7-0.5
		c3.7-2.4,5.2-5.4,5.8-8.6h-6.8v-0.8h6.9c0.2-1.3,0.3-2.7,0.3-4.1v-1.8h-6v-0.8h6V2.2h0.8v8.5h5.9v0.8h-5.9V13.4z M341.7,9.7
		c-0.6-1.5-2-3.8-3.2-5.5l0.7-0.3c1.2,1.7,2.6,4,3.2,5.4L341.7,9.7z M351.7,3.9c-1,2-2.2,4.4-3.2,5.9c-0.1-0.1-0.5-0.4-0.8-0.5
		c1.2-1.6,2.3-3.7,3.1-5.7L351.7,3.9z M354.4,5.5h0.8v15.2h-0.8V5.5z M361.3,2.6v23.2c0,0.9-0.4,1.2-1,1.4c-0.7,0.2-2,0.2-4.5,0.1
		c-0.1-0.2-0.2-0.5-0.4-0.8c2.2,0.1,3.9,0,4.3,0c0.5,0,0.8-0.2,0.8-0.7V2.6H361.3z"/>
</g>
<g>
	<path class="st2" d="M11.8,274.6l0.2,3.2h-0.2c-0.3-0.9-0.7-1.6-1.2-2c-0.5-0.4-1.2-0.6-1.9-0.6c-0.6,0-1.2,0.2-1.7,0.5
		c-0.5,0.3-0.9,0.8-1.2,1.5s-0.4,1.5-0.4,2.5c0,0.8,0.1,1.6,0.4,2.2s0.7,1.1,1.2,1.4s1.2,0.5,1.8,0.5c0.6,0,1.1-0.1,1.6-0.4
		c0.5-0.3,1-0.8,1.5-1.5l0.2,0.1c-0.5,0.8-1,1.4-1.6,1.8s-1.4,0.6-2.2,0.6c-1.5,0-2.7-0.6-3.6-1.7c-0.6-0.8-0.9-1.8-0.9-3
		c0-0.9,0.2-1.8,0.6-2.5c0.4-0.8,1-1.4,1.7-1.8c0.7-0.4,1.5-0.6,2.4-0.6c0.7,0,1.3,0.2,2,0.5c0.2,0.1,0.3,0.2,0.4,0.2
		c0.1,0,0.2,0,0.3-0.1c0.1-0.1,0.2-0.3,0.3-0.5H11.8z"/>
	<path class="st2" d="M26.8,283.8v0.3h-4v-0.3h0.3c0.4,0,0.7-0.1,0.8-0.3c0.1-0.1,0.2-0.5,0.2-1.1v-6c0-0.5,0-0.8-0.1-0.9
		c0-0.1-0.1-0.2-0.3-0.3c-0.2-0.1-0.4-0.2-0.6-0.2h-0.3v-0.3h4v0.3h-0.3c-0.4,0-0.7,0.1-0.8,0.3c-0.1,0.1-0.2,0.5-0.2,1.1v6
		c0,0.5,0,0.8,0.1,0.9c0,0.1,0.1,0.2,0.3,0.3c0.2,0.1,0.4,0.2,0.6,0.2H26.8z"/>
	<path class="st2" d="M45.1,274.8l0.1,2.2h-0.3c-0.1-0.4-0.1-0.7-0.2-0.8c-0.1-0.3-0.3-0.5-0.6-0.6c-0.2-0.1-0.5-0.2-0.9-0.2h-1.3
		v7.1c0,0.6,0.1,0.9,0.2,1.1c0.2,0.2,0.4,0.3,0.8,0.3h0.3v0.3h-3.9v-0.3h0.3c0.4,0,0.7-0.1,0.8-0.4c0.1-0.1,0.2-0.5,0.2-1v-7.1h-1.1
		c-0.4,0-0.7,0-0.9,0.1c-0.2,0.1-0.4,0.3-0.6,0.5s-0.3,0.6-0.3,1h-0.3l0.1-2.2H45.1z"/>
	<path class="st2" d="M59.7,283.8v0.3h-4v-0.3H56c0.4,0,0.7-0.1,0.8-0.3c0.1-0.1,0.2-0.5,0.2-1.1v-6c0-0.5,0-0.8-0.1-0.9
		c0-0.1-0.1-0.2-0.3-0.3c-0.2-0.1-0.4-0.2-0.6-0.2h-0.3v-0.3h4v0.3h-0.3c-0.4,0-0.7,0.1-0.8,0.3c-0.1,0.1-0.2,0.5-0.2,1.1v6
		c0,0.5,0,0.8,0.1,0.9c0,0.1,0.1,0.2,0.3,0.3c0.2,0.1,0.4,0.2,0.6,0.2H59.7z"/>
	<path class="st2" d="M77.9,274.8l-6.1,8.7h3.8c0.6,0,1-0.1,1.3-0.4c0.3-0.3,0.6-0.8,0.8-1.6l0.2,0l-0.4,2.5H70v-0.3l5.9-8.5h-3
		c-0.5,0-0.8,0.1-1.1,0.2c-0.2,0.1-0.4,0.3-0.5,0.5c-0.1,0.2-0.2,0.6-0.3,1.1h-0.3l0.2-2.3H77.9z"/>
	<path class="st2" d="M91.1,275.3v3.7h2c0.5,0,0.9-0.1,1.1-0.2c0.2-0.2,0.4-0.6,0.4-1.1h0.3v3.2h-0.3c-0.1-0.5-0.1-0.7-0.2-0.9
		c-0.1-0.2-0.2-0.3-0.4-0.4c-0.2-0.1-0.5-0.1-0.9-0.1h-2v3.1c0,0.4,0,0.7,0.1,0.7s0.1,0.2,0.2,0.2c0.1,0.1,0.3,0.1,0.5,0.1h1.6
		c0.5,0,0.9,0,1.1-0.1c0.2-0.1,0.5-0.2,0.7-0.4c0.3-0.3,0.6-0.7,0.9-1.3h0.3l-0.8,2.3h-7.1v-0.3h0.3c0.2,0,0.4-0.1,0.6-0.2
		c0.1-0.1,0.2-0.2,0.3-0.3c0.1-0.1,0.1-0.4,0.1-0.9v-6c0-0.6-0.1-1-0.2-1.1c-0.2-0.2-0.4-0.3-0.8-0.3h-0.3v-0.3h7.1l0.1,2h-0.3
		c-0.1-0.5-0.2-0.8-0.3-1c-0.1-0.2-0.3-0.3-0.5-0.4c-0.2-0.1-0.5-0.1-1-0.1H91.1z"/>
	<path class="st2" d="M106.3,274.8h2.5l5.7,7v-5.3c0-0.6-0.1-0.9-0.2-1.1c-0.2-0.2-0.4-0.3-0.8-0.3h-0.3v-0.3h3.2v0.3h-0.3
		c-0.4,0-0.7,0.1-0.8,0.4c-0.1,0.1-0.2,0.5-0.2,1v7.8h-0.2l-6.1-7.5v5.7c0,0.6,0.1,0.9,0.2,1.1c0.2,0.2,0.4,0.3,0.8,0.3h0.3v0.3
		h-3.2v-0.3h0.3c0.4,0,0.7-0.1,0.8-0.4c0.1-0.1,0.2-0.5,0.2-1V276c-0.3-0.3-0.5-0.5-0.6-0.6c-0.1-0.1-0.3-0.2-0.6-0.3
		c-0.1,0-0.3-0.1-0.6-0.1V274.8z"/>
	<path class="st2" d="M142.6,279.7v2.7c0,0.6,0.1,0.9,0.2,1.1c0.2,0.2,0.4,0.3,0.8,0.3h0.4v0.3h-4v-0.3h0.3c0.4,0,0.7-0.1,0.8-0.4
		c0.1-0.1,0.1-0.5,0.1-1v-6c0-0.6-0.1-0.9-0.2-1.1c-0.2-0.2-0.4-0.3-0.8-0.3H140v-0.3h3.4c0.8,0,1.5,0.1,2,0.3s0.9,0.5,1.2,0.9
		c0.3,0.4,0.5,0.9,0.5,1.4c0,0.8-0.2,1.4-0.7,1.8c-0.5,0.5-1.2,0.7-2.1,0.7c-0.2,0-0.5,0-0.7,0C143.2,279.8,142.9,279.8,142.6,279.7
		z M142.6,279.3c0.2,0,0.5,0.1,0.6,0.1c0.2,0,0.3,0,0.5,0c0.5,0,0.9-0.2,1.2-0.6c0.3-0.4,0.5-0.8,0.5-1.4c0-0.4-0.1-0.8-0.2-1.1
		c-0.2-0.3-0.4-0.6-0.7-0.8s-0.6-0.3-1-0.3c-0.2,0-0.5,0-0.9,0.1V279.3z"/>
	<path class="st2" d="M163.7,281h-3.6l-0.6,1.5c-0.2,0.4-0.2,0.6-0.2,0.8c0,0.1,0.1,0.3,0.2,0.4c0.1,0.1,0.4,0.2,0.9,0.2v0.3h-2.9
		v-0.3c0.4-0.1,0.6-0.2,0.8-0.3c0.2-0.2,0.5-0.7,0.8-1.3l3.3-7.6h0.2l3.2,7.7c0.3,0.6,0.5,1,0.7,1.2s0.5,0.3,0.9,0.3v0.3h-3.7v-0.3
		c0.4,0,0.6-0.1,0.7-0.2c0.1-0.1,0.2-0.2,0.2-0.4c0-0.2-0.1-0.5-0.3-1L163.7,281z M163.5,280.5l-1.6-3.7l-1.6,3.7H163.5z"/>
	<path class="st2" d="M186.7,284.1h-2.5l-3.1-4.3c-0.2,0-0.4,0-0.6,0c-0.1,0-0.1,0-0.2,0c-0.1,0-0.1,0-0.2,0v2.7
		c0,0.6,0.1,0.9,0.2,1.1c0.2,0.2,0.4,0.3,0.8,0.3h0.4v0.3h-4v-0.3h0.3c0.4,0,0.7-0.1,0.8-0.4c0.1-0.1,0.1-0.5,0.1-1v-6
		c0-0.6-0.1-0.9-0.2-1.1c-0.2-0.2-0.4-0.3-0.8-0.3h-0.3v-0.3h3.4c1,0,1.7,0.1,2.2,0.2s0.9,0.4,1.2,0.8c0.3,0.4,0.5,0.8,0.5,1.4
		c0,0.6-0.2,1.1-0.6,1.5c-0.4,0.4-0.9,0.7-1.7,0.9l1.9,2.7c0.4,0.6,0.8,1,1.1,1.2c0.3,0.2,0.7,0.3,1.2,0.4V284.1z M180.1,279.3
		c0.1,0,0.2,0,0.2,0c0.1,0,0.1,0,0.2,0c0.9,0,1.6-0.2,2-0.6s0.7-0.9,0.7-1.5c0-0.6-0.2-1-0.5-1.4s-0.8-0.5-1.4-0.5
		c-0.3,0-0.6,0-1.1,0.1V279.3z"/>
	<path class="st2" d="M204.5,274.8l0.1,2.2h-0.3c0-0.4-0.1-0.7-0.2-0.8c-0.1-0.3-0.3-0.5-0.6-0.6c-0.2-0.1-0.5-0.2-0.9-0.2h-1.3v7.1
		c0,0.6,0.1,0.9,0.2,1.1c0.2,0.2,0.4,0.3,0.8,0.3h0.3v0.3h-3.9v-0.3h0.3c0.4,0,0.7-0.1,0.8-0.4c0.1-0.1,0.2-0.5,0.2-1v-7.1h-1.1
		c-0.4,0-0.7,0-0.9,0.1c-0.2,0.1-0.4,0.3-0.6,0.5s-0.3,0.6-0.3,1h-0.3l0.1-2.2H204.5z"/>
	<path class="st2" d="M219,283.8v0.3h-4v-0.3h0.3c0.4,0,0.7-0.1,0.8-0.3c0.1-0.1,0.2-0.5,0.2-1.1v-6c0-0.5,0-0.8-0.1-0.9
		c0-0.1-0.1-0.2-0.3-0.3c-0.2-0.1-0.4-0.2-0.6-0.2h-0.3v-0.3h4v0.3h-0.3c-0.4,0-0.7,0.1-0.8,0.3c-0.1,0.1-0.2,0.5-0.2,1.1v6
		c0,0.5,0,0.8,0.1,0.9c0,0.1,0.1,0.2,0.3,0.3c0.2,0.1,0.4,0.2,0.6,0.2H219z"/>
	<path class="st2" d="M237.6,274.6l0.2,3.2h-0.2c-0.3-0.9-0.7-1.6-1.2-2c-0.5-0.4-1.2-0.6-1.9-0.6c-0.6,0-1.2,0.2-1.7,0.5
		c-0.5,0.3-0.9,0.8-1.2,1.5c-0.3,0.7-0.4,1.5-0.4,2.5c0,0.8,0.1,1.6,0.4,2.2s0.7,1.1,1.2,1.4c0.5,0.3,1.2,0.5,1.8,0.5
		c0.6,0,1.1-0.1,1.6-0.4c0.5-0.3,1-0.8,1.5-1.5l0.2,0.1c-0.5,0.8-1,1.4-1.6,1.8s-1.4,0.6-2.2,0.6c-1.5,0-2.7-0.6-3.6-1.7
		c-0.6-0.8-0.9-1.8-0.9-3c0-0.9,0.2-1.8,0.6-2.5c0.4-0.8,1-1.4,1.7-1.8c0.7-0.4,1.5-0.6,2.4-0.6c0.7,0,1.3,0.2,2,0.5
		c0.2,0.1,0.3,0.2,0.4,0.2c0.1,0,0.2,0,0.3-0.1c0.1-0.1,0.2-0.3,0.3-0.5H237.6z"/>
	<path class="st2" d="M252.6,283.8v0.3h-4v-0.3h0.3c0.4,0,0.7-0.1,0.8-0.3c0.1-0.1,0.2-0.5,0.2-1.1v-6c0-0.5,0-0.8-0.1-0.9
		c0-0.1-0.1-0.2-0.3-0.3c-0.2-0.1-0.4-0.2-0.6-0.2h-0.3v-0.3h4v0.3h-0.3c-0.4,0-0.7,0.1-0.8,0.3c-0.1,0.1-0.2,0.5-0.2,1.1v6
		c0,0.5,0,0.8,0.1,0.9c0,0.1,0.1,0.2,0.3,0.3c0.2,0.1,0.4,0.2,0.6,0.2H252.6z"/>
	<path class="st2" d="M265.6,279.7v2.7c0,0.6,0.1,0.9,0.2,1.1c0.2,0.2,0.4,0.3,0.8,0.3h0.4v0.3h-4v-0.3h0.3c0.4,0,0.7-0.1,0.8-0.4
		c0.1-0.1,0.1-0.5,0.1-1v-6c0-0.6-0.1-0.9-0.2-1.1c-0.2-0.2-0.4-0.3-0.8-0.3H263v-0.3h3.4c0.8,0,1.5,0.1,2,0.3s0.9,0.5,1.2,0.9
		c0.3,0.4,0.5,0.9,0.5,1.4c0,0.8-0.2,1.4-0.7,1.8c-0.5,0.5-1.2,0.7-2.1,0.7c-0.2,0-0.5,0-0.7,0C266.2,279.8,265.9,279.8,265.6,279.7
		z M265.6,279.3c0.2,0,0.5,0.1,0.6,0.1c0.2,0,0.3,0,0.5,0c0.5,0,0.9-0.2,1.2-0.6c0.3-0.4,0.5-0.8,0.5-1.4c0-0.4-0.1-0.8-0.2-1.1
		c-0.2-0.3-0.4-0.6-0.7-0.8s-0.6-0.3-1-0.3c-0.2,0-0.5,0-0.9,0.1V279.3z"/>
	<path class="st2" d="M286.8,281h-3.6l-0.6,1.5c-0.2,0.4-0.2,0.6-0.2,0.8c0,0.1,0.1,0.3,0.2,0.4c0.1,0.1,0.4,0.2,0.9,0.2v0.3h-2.9
		v-0.3c0.4-0.1,0.6-0.2,0.8-0.3c0.2-0.2,0.5-0.7,0.8-1.3l3.3-7.6h0.2l3.2,7.7c0.3,0.6,0.5,1,0.7,1.2c0.2,0.2,0.5,0.3,0.9,0.3v0.3
		h-3.7v-0.3c0.4,0,0.6-0.1,0.7-0.2c0.1-0.1,0.2-0.2,0.2-0.4c0-0.2-0.1-0.5-0.3-1L286.8,281z M286.6,280.5l-1.6-3.7l-1.6,3.7H286.6z"
		/>
	<path class="st2" d="M308.4,274.8l0.1,2.2h-0.3c0-0.4-0.1-0.7-0.2-0.8c-0.1-0.3-0.3-0.5-0.6-0.6c-0.2-0.1-0.5-0.2-0.9-0.2h-1.3v7.1
		c0,0.6,0.1,0.9,0.2,1.1c0.2,0.2,0.4,0.3,0.8,0.3h0.3v0.3h-3.9v-0.3h0.3c0.4,0,0.7-0.1,0.8-0.4c0.1-0.1,0.2-0.5,0.2-1v-7.1h-1.1
		c-0.4,0-0.7,0-0.9,0.1c-0.2,0.1-0.4,0.3-0.6,0.5s-0.3,0.6-0.3,1h-0.3l0.1-2.2H308.4z"/>
	<path class="st2" d="M322.9,283.8v0.3h-4v-0.3h0.3c0.4,0,0.7-0.1,0.8-0.3c0.1-0.1,0.2-0.5,0.2-1.1v-6c0-0.5,0-0.8-0.1-0.9
		c0-0.1-0.1-0.2-0.3-0.3c-0.2-0.1-0.4-0.2-0.6-0.2H319v-0.3h4v0.3h-0.3c-0.4,0-0.7,0.1-0.8,0.3c-0.1,0.1-0.2,0.5-0.2,1.1v6
		c0,0.5,0,0.8,0.1,0.9c0,0.1,0.1,0.2,0.3,0.3c0.2,0.1,0.4,0.2,0.6,0.2H322.9z"/>
	<path class="st2" d="M338.2,274.6c1.2,0,2.2,0.5,3.1,1.4c0.9,0.9,1.3,2.1,1.3,3.4c0,1.4-0.4,2.6-1.3,3.5s-2,1.4-3.2,1.4
		c-1.3,0-2.3-0.5-3.2-1.4c-0.9-0.9-1.3-2.1-1.3-3.5c0-1.5,0.5-2.7,1.5-3.6C335.9,275,337,274.6,338.2,274.6z M338.1,275.1
		c-0.8,0-1.5,0.3-2,0.9c-0.6,0.8-0.9,1.9-0.9,3.4c0,1.5,0.3,2.7,1,3.5c0.5,0.6,1.2,0.9,2,0.9c0.9,0,1.6-0.3,2.2-1
		c0.6-0.7,0.9-1.8,0.9-3.2c0-1.6-0.3-2.8-0.9-3.5C339.6,275.4,339,275.1,338.1,275.1z"/>
	<path class="st2" d="M352.8,274.8h2.5l5.7,7v-5.3c0-0.6-0.1-0.9-0.2-1.1c-0.2-0.2-0.4-0.3-0.8-0.3h-0.3v-0.3h3.2v0.3h-0.3
		c-0.4,0-0.7,0.1-0.8,0.4c-0.1,0.1-0.2,0.5-0.2,1v7.8h-0.2l-6.1-7.5v5.7c0,0.6,0.1,0.9,0.2,1.1c0.2,0.2,0.4,0.3,0.8,0.3h0.3v0.3
		h-3.2v-0.3h0.3c0.4,0,0.7-0.1,0.8-0.4c0.1-0.1,0.2-0.5,0.2-1V276c-0.3-0.3-0.5-0.5-0.6-0.6c-0.1-0.1-0.3-0.2-0.6-0.3
		c-0.1,0-0.3-0.1-0.6-0.1V274.8z"/>
</g>
</svg>
