<?xml version="1.0" encoding="utf-8"?>
<!-- Generator: Adobe Illustrator 24.0.1, SVG Export Plug-In . SVG Version: 6.00 Build 0)  -->
<svg version="1.1" xmlns="http://www.w3.org/2000/svg" xmlns:xlink="http://www.w3.org/1999/xlink" x="0px" y="0px"
	 viewBox="0 0 209.7 153.1" style="enable-background:new 0 0 209.7 153.1;" xml:space="preserve">
<style type="text/css">
	.st0{fill:#FFFFFF;}
	.st1{fill:#0B2775;stroke:#000000;stroke-miterlimit:10;}
	.st2{fill:#E6E6E6;}
	.st3{fill:#FFFFFF;stroke:#000000;stroke-miterlimit:10;}
	.st4{fill:#FFFFFF;stroke:#000000;stroke-linecap:round;stroke-linejoin:round;stroke-miterlimit:10;}
</style>
<g id="分離模式">
</g>
<g id="圖層_2">
	<g>
		<g>
			<g>
				<g>
					<g>
						<g>
							<path class="st0" d="M163.5,41.4h-1.2c-0.6,0-1.1,0.5-1.1,1.1v0.1c0,1,0.2,2,0.7,2.9c0.5,0.9,0.8,1.2,1.7,1.2l0,0L163.5,41.4
								z"/>
						</g>
					</g>
					<g>
						<g>
							<path class="st0" d="M177.1,41.4h1.2c0.6,0,1.1,0.5,1.1,1.1v0.1c0,1-0.2,2-0.7,2.9c-0.5,0.9-0.8,1.2-1.7,1.2l0,0L177.1,41.4z
								"/>
						</g>
					</g>
					<g>
						<g>
							<path d="M178.9,41.6l0.3-1.8c0.3-1.5,0.2-3.2-0.3-4.6c-1.3-3.5-4.7-6-8.6-5.9c-3.9-0.1-7.3,2.4-8.6,5.9
								c-0.5,1.5-0.6,3.1-0.3,4.6l0.3,1.8c0.6,0,1.2-0.1,1.8-0.1c0-0.3-0.4-3.3,1.2-4.2c0.5-0.3,1.1-0.3,2-0.2
								c1.7,0.1,2.1,0.7,3.8,0.9c0.9,0.1,1.9,0.2,2.4-0.4c0.6-0.7-0.2-1.9,0.2-2.2c0.6-0.4,2.9,1,3.8,3.3c0.4,1.1,0.4,2.1,0.3,2.8
								C177.7,41.5,178.3,41.5,178.9,41.6z"/>
						</g>
					</g>
					<g>
						<g>
							<path class="st0" d="M173.3,35.2c1.4,0,3.8,2.9,3.8,4.3v7.1c0,2.3-2.5,4.3-4.5,5.5c-1.4,0.9-3.2,0.9-4.6,0
								c-2-1.2-4.5-3.2-4.5-5.5v-5.5c0-1.5,0-4.3,2.3-4.3c1.4,0,5,1.7,6.5,1C174.2,36.9,172.2,35.3,173.3,35.2z"/>
						</g>
					</g>
					<g>
						<g>
							<path d="M152.9,84.2L152.9,84.2c0-2.9,1.9-25.5,4.7-26.3l6.4-1.9h12.5l6.4,1.9c2.8,0.9,4.7,23.5,4.7,26.4l0,0L152.9,84.2z"/>
						</g>
					</g>
					<g>
						<g>
							<path class="st0" d="M166.4,50.9v2.9c1.3,1,2.6,2,3.9,3c0.5-0.4,0.9-0.8,1.4-1.3c0.8-0.7,1.6-1.4,2.5-2.1v-2.6
								c-0.1,0.2-1.5,2-3.9,1.9C167.9,52.8,166.6,51.1,166.4,50.9z"/>
						</g>
					</g>
					<g>
						<g>
							<path class="st0" d="M168.2,59l1.2,1.2c0.5,0.5,1.4,0.5,1.9,0l1.2-1.2c-0.7-0.7-1.4-1.5-2.1-2.2
								C169.6,57.5,168.9,58.3,168.2,59z"/>
						</g>
					</g>
					<g>
						<g>
							<polygon class="st0" points="172.3,74.2 171.3,60.1 169.2,60.1 168.2,74.2 							"/>
						</g>
					</g>
					<g>
						<g>
							<g>
								<polygon class="st0" points="176.5,55.9 172.9,59.5 170.3,56.8 174.5,53.2 								"/>
							</g>
						</g>
						<g>
							<g>
								<g>
									<polygon class="st0" points="164,55.9 167.7,59.5 170.3,56.8 166.1,53.2 									"/>
								</g>
							</g>
						</g>
					</g>
					<g>
						<g>
							<g>
								<g>
									<g>
										<g>
											<rect x="173.6" y="50.9" width="1" height="2.6"/>
										</g>
									</g>
									<g>
										<g>
											<path d="M188.1,84.2h-1c0-2.7-1.8-25.1-4.4-25.9l-6.4-1.9l0.3-1l6.4,1.9C186.1,58.3,188.1,81.1,188.1,84.2z"/>
										</g>
									</g>
									<g>
										<g>
											<rect x="165.9" y="50.9" width="1" height="2.9"/>
										</g>
									</g>
									<g>
										<g>
											<path d="M153.4,84.2h-1c0-3.2,2.1-26,5.1-26.9l6.4-1.9l0.3,1l-6.4,1.9C155.2,59.1,153.4,81.5,153.4,84.2z"/>
										</g>
									</g>
								</g>
								<g>
									<g>
										<path d="M170.3,53.4c-0.9,0-1.8-0.2-2.5-0.7c-2.2-1.3-4.7-3.5-4.7-5.9v-5.5c0-1.4,0-4.8,2.8-4.8c0.6,0,1.5,0.2,2.4,0.5
											c1.4,0.4,3.1,0.9,3.9,0.5c0.7-0.3,0.6-0.7,0.4-1.3c-0.1-0.3-0.2-0.7,0-1c0.1-0.2,0.4-0.3,0.7-0.3c0.8,0,1.7,0.6,2.2,1.2
											c1,1,2,2.5,2,3.6v7.1c0,2.5-2.6,4.6-4.7,5.9C172,53.1,171.2,53.4,170.3,53.4z M165.9,37.3c-1.5,0-1.8,1.5-1.8,3.8v5.5
											c0,2.1,2.7,4.1,4.3,5.1c1.2,0.8,2.8,0.8,4,0c1.6-1,4.3-3,4.3-5.1v-7.1c0-0.7-0.8-2-1.7-2.9c-0.5-0.5-1-0.8-1.3-0.9
											c0,0,0,0,0,0c0.2,0.6,0.5,1.7-0.9,2.4c-1.1,0.5-2.9,0-4.6-0.4C167.1,37.6,166.3,37.3,165.9,37.3z"/>
									</g>
								</g>
								<g>
									<g>
										<path d="M164,47.3h-0.5c-1.2,0-1.7-0.5-2.1-1.5c-0.5-0.9-0.7-2-0.7-3.2v-0.1c0-0.9,0.7-1.6,1.6-1.6h1.7L164,47.3z
											 M162.3,41.9c-0.4,0-0.6,0.3-0.6,0.6v0.1c0,1,0.2,1.9,0.6,2.7c0.3,0.5,0.5,0.7,0.7,0.8l0-4.3H162.3z"/>
									</g>
								</g>
								<g>
									<g>
										<g>
											<path d="M161.2,41.7l-0.3-1.8c-0.3-1.8-0.2-3.4,0.4-4.9c1.4-3.8,5.1-6.3,9.1-6.2c4-0.1,7.6,2.4,9,6.2
												c0.5,1.4,0.7,3.1,0.4,4.9l-0.3,1.8l-1-0.2l0.3-1.8c0.3-1.6,0.2-3.1-0.3-4.4c-1.3-3.4-4.5-5.7-8.1-5.5
												c-3.6-0.1-6.9,2.1-8.1,5.5c-0.5,1.3-0.6,2.8-0.3,4.4l0.3,1.8L161.2,41.7z"/>
										</g>
									</g>
									<g>
										<g>
											<path d="M177.1,47.3h-0.5l0-6.4h1.7c0.9,0,1.6,0.7,1.6,1.6v0.1c0,1.2-0.2,2.2-0.7,3.2C178.7,46.8,178.2,47.3,177.1,47.3z
												 M177.6,41.9l0,4.3c0.3-0.1,0.5-0.3,0.7-0.8c0.4-0.8,0.6-1.7,0.6-2.7v-0.1c0-0.4-0.3-0.6-0.6-0.6H177.6z"/>
										</g>
									</g>
								</g>
							</g>
							<g>
								<g>
									<g>
										<path d="M172.8,60.2l-3.3-3.4l5-4.3l2.7,3.5L172.8,60.2z M171,56.8l1.9,1.9l3-2.9l-1.5-1.9L171,56.8z"/>
									</g>
								</g>
								<g>
									<g>
										<g>
											<path d="M167.7,60.2l-4.4-4.2l2.7-3.5l5,4.3L167.7,60.2z M164.7,55.9l3,2.9l1.9-1.9l-3.4-2.9L164.7,55.9z"/>
										</g>
									</g>
								</g>
							</g>
						</g>
						<g>
							<g>
								<path d="M170.3,61c-0.5,0-0.9-0.2-1.3-0.5l-1.2-1.2l0.7-0.7l1.2,1.2c0.3,0.3,0.9,0.3,1.2,0l1.2-1.2l0.7,0.7l-1.2,1.2
									C171.2,60.9,170.7,61,170.3,61z"/>
							</g>
						</g>
						<g>
							<g>
								<polygon points="168.7,74.4 167.8,74.1 168.8,60 169.7,60.3 								"/>
							</g>
						</g>
						<g>
							<g>
								<polygon points="171.8,74.4 170.8,60.3 171.8,60 172.8,74.1 								"/>
							</g>
						</g>
					</g>
				</g>
				<polygon class="st1" points="159.2,58 170.3,66.4 182.3,58.3 183.9,59.7 184.6,65.8 179.3,73.2 179.3,74.9 161.5,74.9 
					161.5,73.2 156.4,65.1 157.3,59.6 				"/>
			</g>
		</g>
		<g>
			<g>
				<g>
					<path class="st0" d="M26.1,61.8V47.5c0-4.9,3.9-8.8,8.8-8.8c4.9,0,8.8,3.9,8.8,8.8V62L26.1,61.8z"/>
				</g>
			</g>
			<g>
				<g>
					<g>
						<path class="st0" d="M48.3,79.8V66.9c0-2.3-1.5-4.3-3.7-4.9l-4.9-1.5c-1.1-0.3-1.8-1.3-1.8-2.5v-1.4c-0.1,0.1-1.2,1.6-3.1,1.5
							c-1.7-0.1-2.7-1.3-2.8-1.5c0,0.5,0,0.9,0,1.4c0,1.1-0.7,2.1-1.8,2.5l-4.9,1.5c-2.2,0.7-3.7,2.7-3.7,4.9v0v13H48.3z"/>
					</g>
				</g>
			</g>
			<g>
				<g>
					<path class="st0" d="M30.1,60.5l1.8,2.6c1.4,2.1,4.6,2.1,6,0l1.8-2.6c-0.3-0.1-0.9-0.4-1.4-1.1c-0.9-1.2-0.5-2.6-0.4-2.8
						c-0.1,0.1-1.2,1.6-3.1,1.5c-1.7-0.1-2.7-1.3-2.8-1.5c0.1,0.2,0.4,1.4-0.3,2.6C31.2,60,30.4,60.4,30.1,60.5z"/>
				</g>
			</g>
			<g>
				<g>
					<path class="st0" d="M40.1,46.2v7.1c0,1.8-1.9,3.3-3.4,4.2c-1.1,0.7-2.4,0.7-3.5,0c-1.5-0.9-3.4-2.5-3.4-4.2v-7.1
						c0,0,2.2,1.9,5.2,0.5C38.1,45.3,40.1,46.2,40.1,46.2z"/>
				</g>
			</g>
			<g>
				<g>
					<g>
						<g>
							<path d="M44.2,62h-1V47.5c0-4.6-3.7-8.3-8.3-8.3s-8.3,3.7-8.3,8.3v14.2h-1V47.5c0-5.1,4.2-9.3,9.3-9.3s9.3,4.2,9.3,9.3V62z"
								/>
						</g>
					</g>
					<g>
						<g>
							<g>
								<path d="M22.1,79.8h-1v-13c0-2.5,1.6-4.6,4-5.4L30,60c0.9-0.3,1.5-1.1,1.5-2v-1.4h1V58c0,1.4-0.9,2.6-2.2,3l-4.9,1.5
									c-2,0.6-3.3,2.4-3.3,4.4V79.8z"/>
							</g>
						</g>
						<g>
							<g>
								<path d="M48.8,79.8h-1V66.9c0-2.1-1.3-3.8-3.3-4.4l-4.9-1.5c-1.3-0.4-2.2-1.6-2.2-3v-1.4h1V58c0,0.9,0.6,1.7,1.5,2l4.9,1.5
									c2.4,0.7,4,2.9,4,5.4V79.8z"/>
							</g>
						</g>
					</g>
					<g>
						<g>
							<path d="M34.9,58.6c-0.7,0-1.4-0.2-2-0.6c-1.7-1-3.7-2.7-3.7-4.7v-7.1c0-0.2,0.1-0.4,0.3-0.5c0.2-0.1,0.4-0.1,0.5,0.1
								c0.1,0.1,2,1.7,4.7,0.5c3.3-1.6,5.5-0.6,5.6-0.5c0.2,0.1,0.3,0.3,0.3,0.5v7.1c0,2-2,3.6-3.7,4.7
								C36.3,58.4,35.6,58.6,34.9,58.6z M30.2,47.2v6.2c0,1.6,2,3.1,3.2,3.8c0.9,0.6,2.1,0.6,3,0c1.2-0.7,3.2-2.2,3.2-3.8v-6.8
								c-0.6-0.2-2.2-0.4-4.5,0.6C33,48.2,31.2,47.7,30.2,47.2z"/>
						</g>
					</g>
					<g>
						<g>
							<path d="M34.9,65.2c-1.4,0-2.7-0.7-3.4-1.8l-1.8-2.6l0.8-0.6l1.8,2.6c0.6,0.9,1.5,1.4,2.6,1.4c1.1,0,2-0.5,2.6-1.4l1.8-2.6
								l0.8,0.6l-1.8,2.6C37.6,64.5,36.3,65.2,34.9,65.2z"/>
						</g>
					</g>
				</g>
			</g>
		</g>
		<g>
			<g>
				<g>
					<g>
						<g>
							<path class="st0" d="M63.4,81V66c0.3-2.1,1.8-3.9,3.9-4.5l4.5-1.4c0.5-0.2,1-0.4,1.4-0.8l0,0c0.8-0.7,1.3-1.8,1.3-2.9v-0.7
								H81v0.7c0,1.1,0.5,2.2,1.4,3l0,0c0.4,0.3,0.9,0.6,1.4,0.7l4.5,1.4c2.1,0.6,3.5,2.4,3.9,4.4V81H63.4z"/>
						</g>
					</g>
				</g>
				<g>
					<g>
						<path class="st0" d="M81.9,58.8c0,2.1-1.9,3.7-4.2,3.7c-2.3,0-4.2-1.7-4.2-3.7c0.4-0.9,0.8-1.9,1.1-2.8
							c0.2,0.2,1.4,1.4,3.3,1.3c1.5-0.1,2.5-1,2.7-1.3C81.1,56.9,81.5,57.9,81.9,58.8z"/>
					</g>
				</g>
				<g>
					<g>
						<g>
							<g>
								<g>
									<g>
										<g>
											<g>
												<path d="M92.6,81h-1V65.9c-0.3-1.8-1.7-3.4-3.5-3.9l-4.5-1.4c-0.6-0.2-1.1-0.5-1.5-0.8c-1-0.8-1.6-2-1.6-3.3v-0.7h1v0.7
													c0,1,0.4,1.9,1.2,2.6c0.4,0.3,0.7,0.5,1.2,0.6l4.5,1.4c2.2,0.7,3.9,2.6,4.2,4.8L92.6,81z"/>
											</g>
										</g>
										<g>
											<g>
												<path d="M63.9,81h-1V66c0.3-2.4,2-4.3,4.2-5l4.5-1.4c0.5-0.1,0.9-0.4,1.2-0.7c0.8-0.7,1.2-1.6,1.2-2.6v-0.7h1v0.7
													c0,1.3-0.5,2.5-1.5,3.3c-0.5,0.4-1,0.7-1.6,0.9l-4.5,1.4c-1.9,0.6-3.3,2.2-3.5,4.1L63.9,81z"/>
											</g>
										</g>
									</g>
								</g>
							</g>
						</g>
						<g>
							<g>
								<path d="M77.8,63c-2.6,0-4.7-1.9-4.7-4.2h1c0,1.8,1.6,3.2,3.7,3.2c2,0,3.7-1.4,3.7-3.2h1C82.4,61.1,80.3,63,77.8,63z"/>
							</g>
						</g>
					</g>
				</g>
			</g>
			<g>
				<g>
					<g>
						<path class="st2" d="M70.8,45.5h-1.2c-0.6,0-1.1,0.5-1.1,1.1v0.1c0,1,0.2,2,0.7,2.9c0.5,0.9,0.8,1.2,1.7,1.2l0,0L70.8,45.5z"
							/>
					</g>
				</g>
				<g>
					<g>
						<path class="st2" d="M84.4,45.5h1.2c0.6,0,1.1,0.5,1.1,1.1v0.1c0,1-0.2,2-0.7,2.9c-0.5,0.9-0.8,1.2-1.7,1.2l0,0L84.4,45.5z"/>
					</g>
				</g>
				<g>
					<g>
						<path class="st0" d="M86.2,45.6l0.3-1.8c0.3-1.5,0.2-3.2-0.3-4.6c-1.3-3.5-4.7-6-8.6-5.9c-3.9-0.1-7.3,2.4-8.6,5.9
							c-0.5,1.5-0.6,3.1-0.3,4.6l0.3,1.8c0.6,0,1.2-0.1,1.8-0.1c0-0.5-0.2-3.6,1.4-4.4c0.1-0.1,0.2-0.1,0.4-0.1
							c3.2,0,6.3-0.1,9.5-0.1c0.3,0,0.6,0,0.8,0.1c1.2,0.5,1.8,2.3,1.6,4.5C85,45.5,85.6,45.5,86.2,45.6z"/>
					</g>
				</g>
				<g>
					<g>
						<path class="st0" d="M84.3,45.2v5.5c0,2.3-2.5,4.3-4.5,5.5c-1.4,0.9-3.2,0.9-4.6,0c-2-1.2-4.5-3.2-4.5-5.5v-5.5
							c0-1.5,0-4.3,2.3-4.3H82C84.3,40.8,84.3,43.7,84.3,45.2"/>
					</g>
				</g>
				<g>
					<g>
						<g>
							<g>
								<g>
									<g>
										<path d="M77.6,57.4c-0.9,0-1.8-0.2-2.5-0.7c-2.2-1.3-4.7-3.5-4.7-5.9v-5.5c0-1.4,0-4.8,2.8-4.8H82c2.8,0,2.8,3.4,2.8,4.8
											v5.5c0,2.5-2.6,4.6-4.7,5.9C79.3,57.1,78.4,57.4,77.6,57.4z M73.1,41.3c-1.5,0-1.8,1.5-1.8,3.8v5.5c0,2.1,2.7,4.1,4.3,5.1
											c1.2,0.8,2.8,0.8,4,0c1.6-1,4.3-3,4.3-5.1v-5.5c0-2.3-0.3-3.8-1.8-3.8H73.1z"/>
									</g>
								</g>
								<g>
									<g>
										<path d="M71.3,51.3h-0.5c-1.2,0-1.7-0.5-2.1-1.5c-0.5-0.9-0.7-2-0.7-3.2v-0.1c0-0.9,0.7-1.6,1.6-1.6h1.7L71.3,51.3z
											 M69.6,46c-0.4,0-0.6,0.3-0.6,0.6v0.1c0,1,0.2,1.9,0.6,2.7c0.3,0.5,0.5,0.7,0.7,0.8l0-4.3H69.6z"/>
									</g>
								</g>
								<g>
									<g>
										<g>
											<path d="M86.7,45.7l-1-0.2l0.3-1.8c0.3-1.6,0.2-3.1-0.3-4.4c-1.3-3.4-4.5-5.7-8.1-5.5c-3.6-0.1-6.9,2.1-8.1,5.5
												c-0.5,1.3-0.6,2.8-0.3,4.4l0.3,1.8l-1,0.2l-0.3-1.8C67.9,42,68,40.4,68.6,39c1.4-3.8,5-6.3,9.1-6.2c4-0.1,7.6,2.4,9,6.2
												c0.5,1.4,0.7,3.1,0.4,4.9L86.7,45.7z"/>
										</g>
									</g>
									<g>
										<g>
											<path d="M84.4,51.3v-1c0.6,0,0.8-0.1,1.2-0.9c0.4-0.8,0.6-1.7,0.6-2.7v-0.1c0-0.4-0.3-0.6-0.6-0.6h-1.2v-1h1.2
												c0.9,0,1.6,0.7,1.6,1.6v0.1c0,1.1-0.2,2.2-0.7,3.2C86,50.8,85.5,51.3,84.4,51.3z"/>
										</g>
									</g>
								</g>
							</g>
						</g>
					</g>
				</g>
			</g>
		</g>
		<rect x="1.4" y="76.4" class="st3" width="106.8" height="4.9"/>
		<rect x="8" y="81.6" class="st3" width="93.6" height="70.5"/>
		<rect x="131.4" y="76.4" class="st3" width="76.8" height="4.9"/>
		<rect x="138" y="81.6" class="st3" width="63.6" height="70.5"/>
		<rect x="114.1" y="15.6" class="st3" width="12.7" height="136.5"/>
		<rect x="26.7" y="102.6" class="st3" width="156.3" height="28.5"/>
		<g>
			<g>
				<path d="M73.7,119.5v1.7H56.1v-1.7H58v-9.2h4V108h1.6v2.3h2.4V108h1.7v2.3H72v9.2H73.7z M63.4,122.4c-1.5,1.2-3.9,2.5-5.8,3.3
					c-0.3-0.4-0.9-1-1.4-1.3c2-0.7,4.3-2,5.5-3L63.4,122.4z M59.7,112v2.9H62V112H59.7z M59.7,119.5H62v-3.1h-2.3V119.5z M63.7,112
					v2.9h2.4V112H63.7z M66.1,116.5h-2.4v3.1h2.4V116.5z M67.7,121.3c2,1,4.3,2.2,5.6,3.1l-1.6,1.2c-1.2-0.9-3.3-2.1-5.2-3.1
					L67.7,121.3z M67.8,112v2.9h2.4V112H67.8z M67.8,119.5h2.4v-3.1h-2.4V119.5z"/>
				<path d="M93.6,123.4v1.6H76.5v-1.6h7.7v-2h-5.7v-1.6h5.7v-1.5h-1.4v-3.9h-2.1c-0.3,1.6-1,3.3-2.9,4.4c-0.2-0.3-0.8-1-1.2-1.2
					c1.6-0.9,2.2-2,2.4-3.1h-2.2v-1.6H79v-2.3h-1.7v-1.6H86v1.6h-1.6v2.3h2v1.6h-2v3.5H86v1.8h5.6v1.6H86v2H93.6z M82.7,112.7v-2.3
					h-2v2.3H82.7z M89,115.6h-1.6v-6.4H89V115.6z M92.6,116.6c0,0.9-0.2,1.3-0.8,1.6c-0.6,0.2-1.6,0.3-2.9,0.3
					c-0.1-0.5-0.3-1.2-0.5-1.6c1,0,1.9,0,2.2,0c0.3,0,0.4-0.1,0.4-0.3v-8.3h1.7V116.6z"/>
				<path d="M102.9,109.5c-0.6,1.6-1.2,3.5-1.8,5c1.3,1.5,1.6,2.9,1.6,4c0,1.1-0.2,2-0.8,2.4c-0.3,0.2-0.6,0.3-1,0.4
					c-0.4,0.1-0.8,0.1-1.3,0c0-0.4-0.2-1.1-0.4-1.6c0.4,0,0.7,0,1,0c0.2,0,0.4-0.1,0.6-0.2c0.3-0.2,0.4-0.7,0.4-1.2
					c0-1-0.3-2.2-1.6-3.7c0.5-1.3,1-2.9,1.3-4.1h-2.1v15.2H97v-16.8h4.4l0.2-0.1L102.9,109.5z M113.9,115.3v1.6h-11.2v-1.6h6.7
					c0.5-1,1-2.5,1.3-3.5l1.8,0.4c-0.4,1-0.9,2.2-1.4,3.1H113.9z M113.4,111.7h-10.2v-1.6h4.3c-0.2-0.6-0.4-1.3-0.6-1.9l1.7-0.3
					c0.3,0.7,0.7,1.5,0.8,2.2h4V111.7z M103.8,118.4h8.9v7.2h-1.8v-0.9h-5.4v0.9h-1.7V118.4z M105.1,115.3c-0.1-0.8-0.4-2.2-0.8-3.1
					l1.6-0.3c0.4,1,0.8,2.3,0.9,3.1L105.1,115.3z M105.5,119.9v3.2h5.4v-3.2H105.5z"/>
				<path d="M132.6,120.8c-0.4-0.3-0.8-0.6-1.2-1v5.7h-1.7V125h-8.7v0.6h-1.7V120c-0.6,0.3-1.2,0.5-1.8,0.7
					c-0.2-0.4-0.7-1.1-1.1-1.4c2-0.6,4.2-1.6,5.8-2.7h-5.2v-1.5h3.4c-0.2-0.4-0.4-1-0.7-1.4l1.1-0.3l-0.8,0c0-0.4-0.2-0.9-0.3-1.2
					c3.5-0.1,7.7-0.3,10.2-0.7l1,1.2c-1.3,0.2-3,0.4-4.7,0.5v1.9h2.3c0.3-0.6,0.7-1.4,0.9-2l1.7,0.5c-0.3,0.5-0.7,1.1-1,1.6h3.6v1.5
					h-4.5c1.9,1.1,3.7,2.3,4.9,3.2L132.6,120.8z M118.8,113.1h-1.7v-3.6h7c-0.2-0.4-0.3-0.7-0.5-1l1.8-0.5c0.2,0.4,0.6,1,0.8,1.5h7
					v3.6h-1.7v-2h-12.8V113.1z M124.4,120.1h-3.4v1.2h3.4V120.1z M120.9,123.8h3.4v-1.3h-3.4V123.8z M124.4,113.3
					c-1.1,0.1-2.1,0.1-3.1,0.1c0.3,0.5,0.7,1.2,0.8,1.6l-0.1,0h2.4V113.3z M124.3,116.6c-0.8,0.8-1.8,1.6-2.9,2.2h3L124.3,116.6
					L124.3,116.6z M129.7,120.1H126v1.2h3.6V120.1z M129.7,123.8v-1.3H126v1.3H129.7z M130,118.9c-1.2-0.7-2.5-1.6-3.8-2.2h-0.2v2.2
					H130z"/>
				<path d="M142.9,114.1h4.4v1.6h-4.4v1.7h3.8v5c0,0.7-0.1,1.2-0.6,1.5c-0.5,0.3-1.2,0.3-2.2,0.3c0-0.4-0.2-1.1-0.5-1.5
					c0.7,0,1.3,0,1.5,0c0.2,0,0.2-0.1,0.2-0.2V119h-2.2v6.6h-1.7V119h-2.1v5.1h-1.6v-6.7h3.7v-1.7h-4.5v-1.6h1.3
					c-0.4-0.2-1.1-0.5-1.5-0.6c0.8-1.3,1.5-3.2,1.8-5l1.7,0.3c-0.2,0.6-0.3,1.3-0.5,1.9h1.7v-2.5h1.7v2.5h3.7v1.6h-3.7V114.1z
					 M141.2,114.1v-1.7h-2.2c-0.2,0.7-0.5,1.3-0.8,1.7H141.2z M150.1,120.4h-1.6v-10.6h1.6V120.4z M153.5,108.3v15
					c0,1.1-0.2,1.6-0.9,1.9c-0.6,0.3-1.7,0.3-3.1,0.3c-0.1-0.5-0.3-1.3-0.6-1.8c1.1,0,2.1,0,2.4,0c0.3,0,0.4-0.1,0.4-0.4v-15.1
					H153.5z"/>
			</g>
		</g>
		<g>
			<path class="st4" d="M65.5,29.1c2.7-2,4.6-5.2,4.6-8.9c0-6.1-4.9-11-11-11c-1.1,0-2,0.2-3,0.5C54.3,5.2,50,2,44.9,2
				c-6.6,0-12,5.4-12,12c0,5.6,3.8,10.3,9,11.6c0,1.1-0.2,2.8-0.9,3.9c-0.9,1.5,3.4-0.9,4.8-3.7c1.2-0.1,2.4-0.3,3.4-0.8
				c1.8,3.6,5.5,6.1,9.8,6.1c1.1,0,2.2-0.2,3.3-0.6c3.1,2.6,6,1.7,6,1.7C66.9,31.9,66,30.2,65.5,29.1z"/>
		</g>
		<g>
			<path class="st4" d="M200.9,13.1c0-6.6-5.3-11.9-11.9-11.9c-6.6,0-11.9,5.3-11.9,11.9c0,5.7,4,10.5,9.4,11.6
				c-0.3,1.5-1,3.6-2.1,4.2c0,0,3.6-0.5,6.1-4C196.3,24.3,200.9,19.2,200.9,13.1z"/>
		</g>
	</g>
</g>
</svg>
