<?xml version="1.0" encoding="utf-8"?>
<!-- Generator: Adobe Illustrator 24.0.1, SVG Export Plug-In . SVG Version: 6.00 Build 0)  -->
<svg version="1.1" id="分離模式" xmlns="http://www.w3.org/2000/svg" xmlns:xlink="http://www.w3.org/1999/xlink" x="0px"
	 y="0px" viewBox="0 0 209.7 170" style="enable-background:new 0 0 209.7 170;" xml:space="preserve">
<style type="text/css">
	.st0{fill:#FFFFFF;stroke:#000000;stroke-linecap:round;stroke-linejoin:round;stroke-miterlimit:10;}
	.st1{fill:#FFFFFF;}
	.st2{fill:#0B2775;stroke:#000000;stroke-miterlimit:10;}
	.st3{fill:#E6E6E6;}
	.st4{fill:#FFFFFF;stroke:#000000;stroke-miterlimit:10;}
</style>
<g>
	<g>
		<path class="st0" d="M153.4,23.5c0-8.7-7.1-15.8-15.8-15.8c-5.9,0-11,3.2-13.7,8c-2.7-4.8-7.8-8-13.7-8c-4.9,0-9.3,2.3-12.2,5.8
			C96,7,90,2.3,82.9,2.3c-7,0-12.9,4.5-15,10.8c-2.1-1-4.4-1.6-6.9-1.6c-8.7,0-15.8,7.1-15.8,15.8c0,3,0.9,5.9,2.4,8.3l-3.8,4.7
			l5.7-2.2c2.9,3.1,7,5,11.5,5c7,0,12.9-4.5,15-10.8c2.1,1,4.4,1.6,6.9,1.6c0.9,0,1.7-0.1,2.5-0.2c0,1.8-0.4,4.4-1.9,5.7
			c0,0,4.8-2.5,7.1-7.6c1.7-1,3.2-2.2,4.4-3.7c1.4,4.6,4.8,8.3,9.3,10c1.2,2.1,3,4.7,5.2,5.7c0,0-0.9-1.9-0.4-4.6
			c0.4,0,0.7,0.1,1.1,0.1c5.9,0,11-3.2,13.7-8c2.7,4.8,7.8,8,13.7,8c3.5,0,6.7-1.2,9.4-3.1c1.6,1.7,4.3,4,6.4,3.9c0,0-2-3.9-2.7-7.7
			C152.4,29.8,153.4,26.8,153.4,23.5z"/>
	</g>
	<g>
		<g>
			<g>
				<rect x="149" y="57.4" width="17.2" height="23.7"/>
				<g>
					<g>
						<path class="st1" d="M151.5,61.1h-1.1c-0.6,0-1,0.5-1,1v0.1c0,0.9,0.2,1.8,0.6,2.6c0.4,0.8,0.8,1.1,1.5,1.1l0,0V61.1z"/>
					</g>
				</g>
				<g>
					<g>
						<path class="st1" d="M163.7,61.1h1.1c0.6,0,1,0.5,1,1v0.1c0,0.9-0.2,1.8-0.6,2.6c-0.4,0.8-0.8,1.1-1.5,1.1l0,0V61.1z"/>
					</g>
				</g>
				<g>
					<g>
						<path d="M165.3,61.2l0.3-1.7c0.2-1.4,0.2-2.8-0.3-4.1c-1.2-3.1-4.2-5.4-7.7-5.3c-3.5-0.1-6.5,2.1-7.7,5.3
							c-0.5,1.3-0.5,2.8-0.3,4.1l0.3,1.7c0.5,0,1.1-0.1,1.6-0.1c0-0.2-0.4-3,1.1-3.8c0.5-0.3,1-0.2,1.8-0.2c1.6,0.1,1.9,0.6,3.4,0.8
							c0.8,0.1,1.7,0.1,2.1-0.4c0.5-0.7-0.2-1.7,0.2-2c0.5-0.4,2.6,0.9,3.4,3c0.4,1,0.3,1.9,0.2,2.5
							C164.2,61.1,164.8,61.2,165.3,61.2z"/>
					</g>
				</g>
				<g>
					<g>
						<path class="st1" d="M160.3,55.6c1.3,0,3.4,2.6,3.4,3.9v6.4c0,2-2.3,3.9-4,5c-1.3,0.8-2.8,0.8-4.1,0c-1.8-1.1-4-2.9-4-5V61
							c0-1.4,0-3.9,2.1-3.9c1.3,0,4.5,1.5,5.8,0.9C161.1,57,159.3,55.6,160.3,55.6z"/>
					</g>
				</g>
				<g>
					<g>
						<path d="M142,100.5L142,100.5c0-2.6,1.7-23.9,4.3-24.7l5.7-1.7h11.2l5.7,1.7c2.5,0.8,4.3,22.1,4.3,24.7l0,0H142z"/>
					</g>
				</g>
				<g>
					<g>
						<path class="st1" d="M154.1,69.6v2.6c1.2,0.9,2.3,1.8,3.5,2.7c0.4-0.4,0.8-0.8,1.3-1.1c0.7-0.6,1.5-1.2,2.2-1.9v-2.3
							c-0.1,0.2-1.4,1.8-3.5,1.7C155.4,71.3,154.2,69.8,154.1,69.6z"/>
					</g>
				</g>
				<g>
					<g>
						<path class="st1" d="M155.7,76.8l1.1,1c0.5,0.5,1.2,0.5,1.7,0l1.1-1c-0.6-0.7-1.3-1.3-1.9-2C156.9,75.5,156.3,76.2,155.7,76.8
							z"/>
					</g>
				</g>
				<g>
					<g>
						<polygon class="st1" points="159.4,90.5 158.5,77.9 156.6,77.9 155.7,90.5 						"/>
					</g>
				</g>
				<g>
					<g>
						<g>
							<polygon class="st1" points="163.2,74.1 159.9,77.3 157.6,74.9 161.3,71.7 							"/>
						</g>
					</g>
					<g>
						<g>
							<g>
								<polygon class="st1" points="151.9,74.1 155.2,77.3 157.6,74.9 153.8,71.7 								"/>
							</g>
						</g>
					</g>
				</g>
				<g>
					<g>
						<g>
							<g>
								<g>
									<g>
										<rect x="160.6" y="69.6" width="0.9" height="2.3"/>
									</g>
								</g>
								<g>
									<g>
										<path d="M173.6,100.5h-0.9c0-2.5-1.6-23.6-3.9-24.3l-5.7-1.7l0.3-0.9l5.7,1.7C171.7,76.2,173.6,97.6,173.6,100.5z"/>
									</g>
								</g>
								<g>
									<g>
										<rect x="153.6" y="69.6" width="0.9" height="2.6"/>
									</g>
								</g>
								<g>
									<g>
										<path d="M142.4,100.5h-0.9c0-2.9,1.8-24.3,4.6-25.1l5.7-1.7l0.3,0.9l-5.7,1.7C144,76.9,142.4,98,142.4,100.5z"/>
									</g>
								</g>
							</g>
							<g>
								<g>
									<path d="M157.6,71.8c-0.8,0-1.6-0.2-2.3-0.7c-1.9-1.2-4.2-3.1-4.2-5.3v-4.9c0-1.3,0-4.3,2.5-4.3c0.5,0,1.3,0.2,2.2,0.5
										c1.2,0.4,2.8,0.8,3.5,0.5c0.6-0.3,0.5-0.6,0.4-1.1c-0.1-0.3-0.2-0.6,0-0.9c0.1-0.2,0.3-0.3,0.6-0.3c0.7,0,1.5,0.6,2,1
										c0.9,0.9,1.8,2.3,1.8,3.3V66c0,2.2-2.3,4.1-4.2,5.3C159.1,71.6,158.3,71.8,157.6,71.8z M153.6,57.4c-1.4,0-1.6,1.4-1.6,3.4
										v4.9c0,1.9,2.4,3.7,3.8,4.6c1.1,0.7,2.5,0.7,3.6,0c1.4-0.9,3.8-2.7,3.8-4.6v-6.4c0-0.6-0.7-1.8-1.6-2.6
										c-0.5-0.5-0.9-0.7-1.2-0.8l0,0c0.2,0.5,0.5,1.5-0.8,2.2c-1,0.5-2.6,0-4.1-0.4C154.7,57.6,154,57.4,153.6,57.4z"/>
								</g>
							</g>
							<g>
								<g>
									<path d="M151.9,66.4h-0.4c-1,0-1.5-0.5-1.9-1.3s-0.6-1.8-0.6-2.8v-0.1c0-0.8,0.7-1.5,1.5-1.5h1.5L151.9,66.4z M150.4,61.6
										c-0.3,0-0.6,0.3-0.6,0.6v0.1c0,0.9,0.2,1.7,0.5,2.4c0.2,0.5,0.4,0.7,0.7,0.8v-3.9H150.4z"/>
								</g>
							</g>
							<g>
								<g>
									<g>
										<path d="M149.4,61.3l-0.3-1.7c-0.3-1.6-0.2-3.1,0.3-4.4c1.3-3.4,4.6-5.7,8.1-5.6c3.6-0.1,6.8,2.1,8.1,5.6
											c0.5,1.3,0.6,2.8,0.3,4.4l-0.3,1.7l-0.9-0.1l0.3-1.7c0.2-1.4,0.1-2.8-0.3-3.9c-1.1-3.1-4-5.1-7.3-5
											c-3.2-0.1-6.1,1.9-7.3,5c-0.4,1.1-0.5,2.5-0.3,3.9l0.3,1.7L149.4,61.3z"/>
									</g>
								</g>
								<g>
									<g>
										<path d="M163.6,66.4h-0.4v-5.7h1.5c0.8,0,1.5,0.7,1.5,1.5v0.1c0,1-0.2,2-0.6,2.8C165.1,65.9,164.7,66.4,163.6,66.4z
											 M164.1,61.6v3.9c0.2-0.1,0.4-0.3,0.7-0.8c0.4-0.7,0.5-1.5,0.5-2.4v-0.1c0-0.3-0.3-0.6-0.6-0.6H164.1z"/>
									</g>
								</g>
							</g>
						</g>
						<g>
							<g>
								<g>
									<path d="M159.9,77.9l-3-3l4.5-3.8l2.4,3.1L159.9,77.9z M158.2,74.9l1.7,1.7l2.7-2.6l-1.3-1.7L158.2,74.9z"/>
								</g>
							</g>
							<g>
								<g>
									<g>
										<path d="M155.3,77.9l-3.9-3.8l2.4-3.1l4.5,3.8L155.3,77.9z M152.5,74l2.7,2.6l1.7-1.7l-3-2.6L152.5,74z"/>
									</g>
								</g>
							</g>
						</g>
					</g>
					<g>
						<g>
							<path d="M157.6,78.7c-0.4,0-0.8-0.2-1.2-0.5l-1.1-1l0.6-0.6l1.1,1c0.3,0.3,0.8,0.3,1.1,0l1.1-1l0.6,0.6l-1.1,1
								C158.4,78.5,158,78.7,157.6,78.7z"/>
						</g>
					</g>
					<g>
						<g>
							<polygon points="156.2,90.6 155.3,90.4 156.2,77.8 157.1,78 							"/>
						</g>
					</g>
					<g>
						<g>
							<polygon points="158.9,90.6 158,78 158.9,77.8 159.8,90.4 							"/>
						</g>
					</g>
				</g>
			</g>
			<polygon class="st2" points="147.7,75.9 157.6,83.5 168.3,76.2 169.4,78.4 170.4,82.9 165.6,89.6 165.6,91.1 149.7,91.1 
				149.7,89.6 145.1,82.3 146.1,78.1 			"/>
		</g>
		<g>
			<g>
				<g>
					<path class="st1" d="M41.1,78.6V64.4c0-4.9,3.9-8.8,8.8-8.8s8.8,3.9,8.8,8.8v14.5L41.1,78.6z"/>
				</g>
			</g>
			<g>
				<g>
					<g>
						<path class="st1" d="M63.3,96.7v-13c0-2.3-1.5-4.3-3.7-4.9l-4.9-1.5c-1.1-0.3-1.8-1.3-1.8-2.5v-1.4c-0.1,0.1-1.2,1.6-3.1,1.5
							c-1.7-0.1-2.7-1.3-2.8-1.5c0,0.5,0,0.9,0,1.4c0,1.1-0.7,2.1-1.8,2.5l-4.9,1.5c-2.2,0.7-3.7,2.7-3.7,4.9l0,0v13H63.3z"/>
					</g>
				</g>
			</g>
			<g>
				<g>
					<path class="st1" d="M45.1,77.3l1.8,2.6c1.4,2.1,4.6,2.1,6,0l1.8-2.6c-0.3-0.1-0.9-0.4-1.4-1.1c-0.9-1.2-0.5-2.6-0.4-2.8
						c-0.1,0.1-1.2,1.6-3.1,1.5c-1.7-0.1-2.7-1.3-2.8-1.5c0.1,0.2,0.4,1.4-0.3,2.6C46.2,76.9,45.4,77.2,45.1,77.3z"/>
				</g>
			</g>
			<g>
				<g>
					<path class="st1" d="M55.1,63.1v7.1c0,1.8-1.9,3.3-3.4,4.2c-1.1,0.7-2.4,0.7-3.5,0c-1.5-0.9-3.4-2.5-3.4-4.2v-7.1
						c0,0,2.2,1.9,5.2,0.5C53.1,62.2,55.1,63.1,55.1,63.1z"/>
				</g>
			</g>
			<g>
				<g>
					<g>
						<g>
							<path d="M59.2,78.9h-1V64.4c0-4.6-3.7-8.3-8.3-8.3s-8.3,3.7-8.3,8.3v14.2h-1V64.4c0-5.1,4.2-9.3,9.3-9.3s9.3,4.2,9.3,9.3
								V78.9z"/>
						</g>
					</g>
					<g>
						<g>
							<g>
								<path d="M37.1,96.7h-1v-13c0-2.5,1.6-4.6,4-5.4l4.9-1.5c0.9-0.3,1.5-1.1,1.5-2v-1.4h1v1.4c0,1.4-0.9,2.6-2.2,3l-4.9,1.5
									c-2,0.6-3.3,2.4-3.3,4.4V96.7z"/>
							</g>
						</g>
						<g>
							<g>
								<path d="M63.8,96.7h-1v-13c0-2.1-1.3-3.8-3.3-4.4l-4.9-1.5c-1.3-0.4-2.2-1.6-2.2-3v-1.4h1v1.4c0,0.9,0.6,1.7,1.5,2l4.9,1.5
									c2.4,0.7,4,2.9,4,5.4V96.7z"/>
							</g>
						</g>
					</g>
					<g>
						<g>
							<path d="M49.9,75.5c-0.7,0-1.4-0.2-2-0.6c-1.7-1-3.7-2.7-3.7-4.7v-7.1c0-0.2,0.1-0.4,0.3-0.5s0.4-0.1,0.5,0.1
								c0.1,0.1,2,1.7,4.7,0.5c3.3-1.6,5.5-0.6,5.6-0.5c0.2,0.1,0.3,0.3,0.3,0.5v7.1c0,2-2,3.6-3.7,4.7
								C51.3,75.3,50.6,75.5,49.9,75.5z M45.2,64v6.2c0,1.6,2,3.1,3.2,3.8c0.9,0.6,2.1,0.6,3,0c1.2-0.7,3.2-2.2,3.2-3.8v-6.8
								C54,63.2,52.4,63,50.1,64C48,65.1,46.2,64.6,45.2,64z"/>
						</g>
					</g>
					<g>
						<g>
							<path d="M49.9,82.1c-1.4,0-2.7-0.7-3.4-1.8l-1.8-2.6l0.8-0.6l1.8,2.6c0.6,0.9,1.5,1.4,2.6,1.4s2-0.5,2.6-1.4l1.8-2.6l0.8,0.6
								l-1.8,2.6C52.6,81.4,51.3,82.1,49.9,82.1z"/>
						</g>
					</g>
				</g>
			</g>
		</g>
		<g>
			<g>
				<g>
					<g>
						<g>
							<path class="st1" d="M108.4,97.9v-15c0.3-2.1,1.8-3.9,3.9-4.5l4.5-1.4c0.5-0.2,1-0.4,1.4-0.8l0,0c0.8-0.7,1.3-1.8,1.3-2.9
								v-0.7h6.4v0.7c0,1.1,0.5,2.2,1.4,3l0,0c0.4,0.3,0.9,0.6,1.4,0.7l4.5,1.4c2.1,0.6,3.5,2.4,3.9,4.4v15.1
								C137.1,97.9,108.4,97.9,108.4,97.9z"/>
						</g>
					</g>
				</g>
				<g>
					<g>
						<path class="st1" d="M126.9,75.7c0,2.1-1.9,3.7-4.2,3.7c-2.3,0-4.2-1.7-4.2-3.7c0.4-0.9,0.8-1.9,1.1-2.8
							c0.2,0.2,1.4,1.4,3.3,1.3c1.5-0.1,2.5-1,2.7-1.3C126.1,73.8,126.5,74.7,126.9,75.7z"/>
					</g>
				</g>
				<g>
					<g>
						<g>
							<g>
								<g>
									<g>
										<g>
											<g>
												<path d="M137.6,97.9h-1V82.7c-0.3-1.8-1.7-3.4-3.5-3.9l-4.5-1.4c-0.6-0.2-1.1-0.5-1.5-0.8c-1-0.8-1.6-2-1.6-3.3v-0.7h1
													v0.7c0,1,0.4,1.9,1.2,2.6c0.4,0.3,0.7,0.5,1.2,0.6l4.5,1.4c2.2,0.7,3.9,2.6,4.2,4.8V97.9z"/>
											</g>
										</g>
										<g>
											<g>
												<path d="M108.9,97.9h-1v-15c0.3-2.4,2-4.3,4.2-5l4.5-1.4c0.5-0.1,0.9-0.4,1.2-0.7c0.8-0.7,1.2-1.6,1.2-2.6v-0.7h1v0.7
													c0,1.3-0.5,2.5-1.5,3.3c-0.5,0.4-1,0.7-1.6,0.9l-4.5,1.4c-1.9,0.6-3.3,2.2-3.5,4.1L108.9,97.9z"/>
											</g>
										</g>
									</g>
								</g>
							</g>
						</g>
						<g>
							<g>
								<path d="M122.8,79.9c-2.6,0-4.7-1.9-4.7-4.2h1c0,1.8,1.6,3.2,3.7,3.2c2,0,3.7-1.4,3.7-3.2h1C127.4,78,125.3,79.9,122.8,79.9
									z"/>
							</g>
						</g>
					</g>
				</g>
			</g>
			<g>
				<g>
					<g>
						<path class="st3" d="M115.8,62.3h-1.2c-0.6,0-1.1,0.5-1.1,1.1v0.1c0,1,0.2,2,0.7,2.9s0.8,1.2,1.7,1.2l0,0L115.8,62.3z"/>
					</g>
				</g>
				<g>
					<g>
						<path class="st3" d="M129.4,62.3h1.2c0.6,0,1.1,0.5,1.1,1.1v0.1c0,1-0.2,2-0.7,2.9s-0.8,1.2-1.7,1.2l0,0L129.4,62.3z"/>
					</g>
				</g>
				<g>
					<g>
						<path class="st1" d="M131.2,62.5l0.3-1.8c0.3-1.5,0.2-3.2-0.3-4.6c-1.3-3.5-4.7-6-8.6-5.9c-3.9-0.1-7.3,2.4-8.6,5.9
							c-0.5,1.5-0.6,3.1-0.3,4.6l0.3,1.8c0.6,0,1.2-0.1,1.8-0.1c0-0.5-0.2-3.6,1.4-4.4c0.1-0.1,0.2-0.1,0.4-0.1
							c3.2,0,6.3-0.1,9.5-0.1c0.3,0,0.6,0,0.8,0.1c1.2,0.5,1.8,2.3,1.6,4.5C130,62.4,130.6,62.4,131.2,62.5z"/>
					</g>
				</g>
				<g>
					<g>
						<path class="st1" d="M129.3,62.1v5.5c0,2.3-2.5,4.3-4.5,5.5c-1.4,0.9-3.2,0.9-4.6,0c-2-1.2-4.5-3.2-4.5-5.5v-5.5
							c0-1.5,0-4.3,2.3-4.3h8.9C129.3,57.7,129.3,60.5,129.3,62.1"/>
					</g>
				</g>
				<g>
					<g>
						<g>
							<g>
								<g>
									<g>
										<path d="M122.6,74.2c-0.9,0-1.8-0.2-2.5-0.7c-2.2-1.3-4.7-3.5-4.7-5.9v-5.5c0-1.4,0-4.8,2.8-4.8h8.9
											c2.8,0,2.8,3.4,2.8,4.8v5.5c0,2.5-2.6,4.6-4.7,5.9C124.3,74,123.4,74.2,122.6,74.2z M118.1,58.2c-1.5,0-1.8,1.5-1.8,3.8
											v5.5c0,2.1,2.7,4.1,4.3,5.1c1.2,0.8,2.8,0.8,4,0c1.6-1,4.3-3,4.3-5.1V62c0-2.3-0.3-3.8-1.8-3.8H118.1z"/>
									</g>
								</g>
								<g>
									<g>
										<path d="M116.3,68.2h-0.5c-1.2,0-1.7-0.5-2.1-1.5c-0.5-0.9-0.7-2-0.7-3.2v-0.1c0-0.9,0.7-1.6,1.6-1.6h1.7V68.2z
											 M114.6,62.8c-0.4,0-0.6,0.3-0.6,0.6v0.1c0,1,0.2,1.9,0.6,2.7c0.3,0.5,0.5,0.7,0.7,0.8v-4.3L114.6,62.8L114.6,62.8z"/>
									</g>
								</g>
								<g>
									<g>
										<g>
											<path d="M131.7,62.6l-1-0.2l0.3-1.8c0.3-1.6,0.2-3.1-0.3-4.4c-1.3-3.4-4.5-5.7-8.1-5.5c-3.6-0.1-6.9,2.1-8.1,5.5
												c-0.5,1.3-0.6,2.8-0.3,4.4l0.3,1.8l-1,0.2l-0.3-1.8c-0.3-1.8-0.2-3.4,0.4-4.9c1.4-3.8,5-6.3,9.1-6.2c4-0.1,7.6,2.4,9,6.2
												c0.5,1.4,0.7,3.1,0.4,4.9L131.7,62.6z"/>
										</g>
									</g>
									<g>
										<g>
											<path d="M129.4,68.2v-1c0.6,0,0.8-0.1,1.2-0.9s0.6-1.7,0.6-2.7v-0.1c0-0.4-0.3-0.6-0.6-0.6h-1.2v-1h1.2
												c0.9,0,1.6,0.7,1.6,1.6v0.1c0,1.1-0.2,2.2-0.7,3.2C131,67.7,130.5,68.2,129.4,68.2z"/>
										</g>
									</g>
								</g>
							</g>
						</g>
					</g>
				</g>
			</g>
		</g>
		<g>
			<g>
				<g>
					<g>
						<path class="st1" d="M77.8,58.3h-1.2c-0.6,0-1.1,0.5-1.1,1.1v0.1c0,1,0.2,2,0.7,2.9c0.5,0.9,0.8,1.2,1.7,1.2l0,0L77.8,58.3z"
							/>
					</g>
				</g>
				<g>
					<g>
						<path class="st1" d="M91.4,58.3h1.2c0.6,0,1.1,0.5,1.1,1.1v0.1c0,1-0.2,2-0.7,2.9c-0.5,0.9-0.8,1.2-1.7,1.2l0,0L91.4,58.3z"/>
					</g>
				</g>
				<g>
					<g>
						<path d="M93.3,58.5l0.3-1.8c0.3-1.5,0.2-3.2-0.3-4.6c-1.3-3.5-4.7-6-8.6-5.9c-3.9-0.1-7.3,2.4-8.6,5.9
							c-0.5,1.5-0.6,3.1-0.3,4.6l0.3,1.8c0.6,0,1.2-0.1,1.8-0.1c0-0.3-0.4-3.3,1.2-4.2c0.5-0.3,1.1-0.3,2-0.2
							c1.7,0.1,2.1,0.7,3.8,0.9c0.9,0.1,1.9,0.2,2.4-0.4c0.6-0.7-0.2-1.9,0.2-2.2c0.6-0.4,2.9,1,3.8,3.3c0.4,1.1,0.4,2.1,0.3,2.8
							C92,58.4,92.7,58.4,93.3,58.5z"/>
					</g>
				</g>
				<g>
					<g>
						<path class="st1" d="M87.6,52.1c1.4,0,3.8,2.9,3.8,4.3v7.1c0,2.3-2.5,4.3-4.5,5.5c-1.4,0.9-3.2,0.9-4.6,0
							c-2-1.2-4.5-3.2-4.5-5.5V58c0-1.5,0-4.3,2.3-4.3c1.4,0,5,1.7,6.5,1C88.5,53.8,86.5,52.2,87.6,52.1z"/>
					</g>
				</g>
				<g>
					<g>
						<path d="M67.2,101.1L67.2,101.1c0-2.9,1.9-25.5,4.7-26.3l6.4-1.9h12.5l6.4,1.9c2.8,0.9,4.7,23.5,4.7,26.4l0,0L67.2,101.1z"/>
					</g>
				</g>
				<g>
					<g>
						<path class="st1" d="M80.7,67.8v2.9c1.3,1,2.6,2,3.9,3c0.5-0.4,0.9-0.8,1.4-1.3c0.8-0.7,1.6-1.4,2.5-2.1v-2.6
							c-0.1,0.2-1.5,2-3.9,1.9C82.2,69.7,80.9,68,80.7,67.8z"/>
					</g>
				</g>
				<g>
					<g>
						<path class="st1" d="M82.5,75.9l1.2,1.2c0.5,0.5,1.4,0.5,1.9,0l1.2-1.2c-0.7-0.7-1.4-1.5-2.1-2.2
							C83.9,74.4,83.2,75.1,82.5,75.9z"/>
					</g>
				</g>
				<g>
					<g>
						<polygon class="st1" points="86.6,91.1 85.6,77 83.6,77 82.6,91.1 						"/>
					</g>
				</g>
				<g>
					<g>
						<g>
							<polygon class="st1" points="90.9,72.8 87.2,76.3 84.6,73.7 88.8,70.1 							"/>
						</g>
					</g>
					<g>
						<g>
							<g>
								<polygon class="st1" points="78.4,72.8 82,76.3 84.6,73.7 80.4,70.1 								"/>
							</g>
						</g>
					</g>
				</g>
				<g>
					<g>
						<g>
							<g>
								<g>
									<g>
										<rect x="88" y="67.8" width="1" height="2.6"/>
									</g>
								</g>
								<g>
									<g>
										<path d="M102.5,101.1h-1c0-2.7-1.8-25.1-4.4-25.9l-6.4-1.9l0.3-1l6.4,1.9C100.4,75.2,102.5,97.9,102.5,101.1z"/>
									</g>
								</g>
								<g>
									<g>
										<rect x="80.2" y="67.8" width="1" height="2.9"/>
									</g>
								</g>
								<g>
									<g>
										<path d="M67.7,101.1h-1c0-3.2,2.1-26,5.1-26.9l6.4-1.9l0.3,1l-6.4,1.9C69.5,76,67.7,98.4,67.7,101.1z"/>
									</g>
								</g>
							</g>
							<g>
								<g>
									<path d="M84.6,70.2c-0.9,0-1.8-0.2-2.5-0.7c-2.2-1.3-4.7-3.5-4.7-5.9V58c0-1.4,0-4.8,2.8-4.8c0.6,0,1.5,0.2,2.4,0.5
										c1.4,0.4,3.1,0.9,3.9,0.5c0.7-0.3,0.6-0.7,0.4-1.3c-0.1-0.3-0.2-0.7,0-1c0.1-0.2,0.4-0.3,0.7-0.3c0.8,0,1.7,0.6,2.2,1.2
										c1,1,2,2.5,2,3.6v7.1c0,2.5-2.6,4.6-4.7,5.9C86.4,70,85.5,70.2,84.6,70.2z M80.2,54.2c-1.5,0-1.8,1.5-1.8,3.8v5.5
										c0,2.1,2.7,4.1,4.3,5.1c1.2,0.8,2.8,0.8,4,0c1.6-1,4.3-3,4.3-5.1v-7.1c0-0.7-0.8-2-1.7-2.9c-0.5-0.5-1-0.8-1.3-0.9l0,0
										c0.2,0.6,0.5,1.7-0.9,2.4c-1.1,0.5-2.9,0-4.6-0.4C81.5,54.4,80.7,54.2,80.2,54.2z"/>
								</g>
							</g>
							<g>
								<g>
									<path d="M78.4,64.2h-0.5c-1.2,0-1.7-0.5-2.1-1.5c-0.5-0.9-0.7-2-0.7-3.2v-0.1c0-0.9,0.7-1.6,1.6-1.6h1.7V64.2z M76.7,58.8
										c-0.4,0-0.6,0.3-0.6,0.6v0.1c0,1,0.2,1.9,0.6,2.7c0.3,0.5,0.5,0.7,0.7,0.8v-4.3h-0.7V58.8z"/>
								</g>
							</g>
							<g>
								<g>
									<g>
										<path d="M75.5,58.5l-0.3-1.8c-0.3-1.8-0.2-3.4,0.4-4.9c1.4-3.8,5.1-6.3,9.1-6.2c4-0.1,7.6,2.4,9,6.2
											c0.5,1.4,0.7,3.1,0.4,4.9l-0.3,1.8l-1-0.2l0.3-1.8c0.3-1.6,0.2-3.1-0.3-4.4c-1.3-3.4-4.5-5.7-8.1-5.5
											c-3.6-0.1-6.9,2.1-8.1,5.5c-0.5,1.3-0.6,2.8-0.3,4.4l0.3,1.8L75.5,58.5z"/>
									</g>
								</g>
								<g>
									<g>
										<path d="M91.4,64.2h-0.5v-6.4h1.7c0.9,0,1.6,0.7,1.6,1.6v0.1c0,1.2-0.2,2.2-0.7,3.2C93.1,63.7,92.6,64.2,91.4,64.2z
											 M91.9,58.8v4.3c0.3-0.1,0.5-0.3,0.7-0.8c0.4-0.8,0.6-1.7,0.6-2.7v-0.1c0-0.4-0.3-0.6-0.6-0.6h-0.7V58.8z"/>
									</g>
								</g>
							</g>
						</g>
						<g>
							<g>
								<g>
									<path d="M87.2,77l-3.3-3.4l5-4.3l2.7,3.5L87.2,77z M85.3,73.7l1.9,1.9l3-2.9l-1.5-1.9L85.3,73.7z"/>
								</g>
							</g>
							<g>
								<g>
									<g>
										<path d="M82,77l-4.4-4.2l2.7-3.5l5,4.3L82,77z M79,72.7l3,2.9l1.9-1.9l-3.4-2.9L79,72.7z"/>
									</g>
								</g>
							</g>
						</g>
					</g>
					<g>
						<g>
							<path d="M84.6,77.9c-0.5,0-0.9-0.2-1.3-0.5l-1.2-1.2l0.7-0.7l1.2,1.2c0.3,0.3,0.9,0.3,1.2,0l1.2-1.2l0.7,0.7l-1.2,1.2
								C85.5,77.7,85.1,77.9,84.6,77.9z"/>
						</g>
					</g>
					<g>
						<g>
							<polygon points="83.1,91.2 82.1,91 83.1,76.9 84.1,77.1 							"/>
						</g>
					</g>
					<g>
						<g>
							<polygon points="86.2,91.2 85.2,77.1 86.1,76.9 87.1,91 							"/>
						</g>
					</g>
				</g>
			</g>
			<polygon class="st2" points="73.6,74.9 84.6,83.3 96.6,75.1 98.2,76.6 98.9,82.6 93.6,90.1 93.6,91.8 75.8,91.8 75.8,90.1 
				70.7,82 71.6,76.5 			"/>
		</g>
	</g>
	<rect x="1.4" y="93.2" class="st4" width="206.8" height="4.9"/>
	<rect x="8" y="98.5" class="st4" width="193.6" height="70.5"/>
	<rect x="26.7" y="119.5" class="st4" width="156.3" height="28.5"/>
	<g>
		<path d="M72.5,125.8v16.8h-1.8v-0.8H58.2v0.8h-1.7v-16.8H72.5z M70.7,140.1v-12.7H58.2v12.7H70.7z M69.3,131.9
			c-0.5,1.7-1.2,3.3-2.1,4.5c0.3,0.8,0.7,1.3,1.2,1.4c0.2,0.1,0.4-0.7,0.5-1.9c0.3,0.3,0.8,0.7,1.1,0.8c-0.3,2.2-1.1,2.9-2.2,2.5
			c-0.7-0.2-1.3-0.7-1.7-1.6c-0.7,0.7-1.4,1.4-2.3,1.9c-0.2-0.3-0.7-0.8-1-1.1c0.5-0.3,1-0.7,1.5-1c-1.9,0.3-3.8,0.7-5.3,0.9
			l-0.2-1.3c1.4-0.2,3.5-0.5,5.6-0.8v1.2c0.4-0.4,0.8-0.8,1.2-1.2c-0.5-1.5-0.7-3.3-0.9-5.3h-5.6v-1.3h5.5c0-0.6-0.1-1.2-0.1-1.8H66
			c0,0.6,0.1,1.2,0.1,1.8h2.7c-0.4-0.4-1.2-1-1.9-1.3l0.8-0.8c0.7,0.3,1.5,0.8,2,1.3l-0.8,0.9H70v1.3h-3.8c0.1,1.4,0.3,2.7,0.6,3.8
			c0.5-0.9,0.9-1.9,1.2-3L69.3,131.9z M63.9,132v3.7h-4.2V132H63.9z M62.7,133h-1.8v1.6h1.8V133z"/>
		<path d="M87.1,135.9c0.9,2.8,2.5,4.7,3.9,4.6c0.5,0,0.7-0.8,0.8-2.8c0.4,0.4,1.1,0.7,1.6,0.9c-0.3,3-1,3.7-2.5,3.7
			c-2.5,0-4.6-2.7-5.7-6.4h-5.4v4.3l4.6-1c0,0.5,0.1,1.3,0.2,1.7c-5.4,1.3-6.2,1.5-6.7,1.8c-0.1-0.5-0.5-1.2-0.8-1.6
			c0.4-0.2,0.9-0.7,0.9-1.5v-13.7h13.7v5.8h-5.3c0.1,0.9,0.2,1.8,0.4,2.6H93v1.7h-5.9V135.9z M79.8,127.5v2.5h10v-2.5H79.8z
			 M84.8,134.2c-0.2-0.8-0.3-1.7-0.3-2.6h-4.7v2.6H84.8z"/>
		<path d="M99.5,133.6c-0.7-0.6-2.3-1.5-3.5-2.1l0.9-1.3c1.2,0.5,2.8,1.3,3.6,1.9L99.5,133.6z M96.6,141.1c1-1.4,2.5-3.9,3.6-6.1
			l1.3,1.2c-1,2-2.3,4.3-3.4,6.1L96.6,141.1z M98,125.1c1.2,0.5,2.8,1.3,3.6,2l-1,1.5c-0.7-0.7-2.3-1.6-3.6-2.1L98,125.1z
			 M111.6,142.5c-0.2-0.5-0.4-1.1-0.8-1.8c-6.8,0.8-7.6,1-8.2,1.2c-0.1-0.4-0.4-1.3-0.6-1.8c0.4-0.1,0.8-0.5,1.2-1.2
			c0.4-0.5,1.5-2.4,2.4-4.4h-3.9v-1.7h4.7v-3.1h-3.9V128h3.9v-3.1h1.8v3.1h4.1v1.7h-4.1v3.1h4.8v1.7h-5.3c-0.9,1.9-2,3.8-3,5.3
			l5.3-0.6c-0.5-0.8-1-1.5-1.5-2.2l1.4-0.7c1.3,1.7,2.7,3.9,3.3,5.4L111.6,142.5z"/>
		<path d="M133,126.7v3.5h-1.9v-1.8h-12.6v1.8h-1.8v-3.5h7.5c-0.1-0.5-0.3-1-0.6-1.4l1.8-0.4c0.3,0.5,0.6,1.3,0.8,1.8H133z
			 M120.9,136.4h10.3v6h-1.8v-0.7h-8.5v0.8h-1.8v-12.7h11.5v5.1h-9.7C120.9,134.9,120.9,136.4,120.9,136.4z M120.9,131.3v2h7.9v-2
			H120.9z M120.9,137.9v2.2h8.5v-2.2H120.9z"/>
		<path d="M142.5,130.9h4.4v1.6h-4.4v1.7h3.8v5c0,0.7-0.1,1.2-0.6,1.5s-1.2,0.3-2.2,0.3c0-0.4-0.2-1.1-0.5-1.5c0.7,0,1.3,0,1.5,0
			s0.2-0.1,0.2-0.2v-3.4h-2.2v6.6h-1.7v-6.6h-2.1v5.1h-1.6v-6.7h3.7v-1.7h-4.5V131h1.3c-0.4-0.2-1.1-0.5-1.5-0.6
			c0.8-1.3,1.5-3.2,1.8-5l1.7,0.3c-0.2,0.6-0.3,1.3-0.5,1.9h1.7V125h1.7v2.5h3.7v1.6h-3.7L142.5,130.9L142.5,130.9z M140.8,130.9
			v-1.7h-2.2c-0.2,0.7-0.5,1.3-0.8,1.7H140.8z M149.7,137.2H148v-10.6h1.6L149.7,137.2L149.7,137.2z M153.1,125.2v15
			c0,1.1-0.2,1.6-0.9,1.9c-0.6,0.3-1.7,0.3-3.1,0.3c-0.1-0.5-0.3-1.3-0.6-1.8c1.1,0,2.1,0,2.4,0c0.3,0,0.4-0.1,0.4-0.4v-15.1
			L153.1,125.2L153.1,125.2z"/>
	</g>
</g>
</svg>
