<?xml version="1.0" encoding="utf-8"?>
<!-- Generator: Adobe Illustrator 24.0.1, SVG Export Plug-In . SVG Version: 6.00 Build 0)  -->
<svg version="1.1" id="圖層_1" xmlns="http://www.w3.org/2000/svg" xmlns:xlink="http://www.w3.org/1999/xlink" x="0px" y="0px"
	 viewBox="0 0 579.8 200.8" style="enable-background:new 0 0 579.8 200.8;" xml:space="preserve">
<style type="text/css">
	.st0{fill:#FFFFFF;}
	.st1{fill:#0B2775;stroke:#000000;stroke-miterlimit:10;}
	.st2{fill:#E6E6E6;}
	.st3{fill:#FFFFFF;stroke:#000000;stroke-miterlimit:10;}
	.st4{fill:none;stroke:#917414;stroke-miterlimit:10;}
	.st5{fill:none;stroke:#09283B;stroke-linecap:round;stroke-linejoin:round;stroke-miterlimit:10;}
	.st6{fill:none;stroke:#917414;stroke-miterlimit:10;stroke-dasharray:3.9917,3.9917;}
</style>
<g id="分離模式">
	<g>
		<g>
			<rect x="423.2" y="16.8" width="17.2" height="23.7"/>
			<g>
				<g>
					<path class="st0" d="M425.8,20.5h-1.1c-0.6,0-1,0.5-1,1v0.1c0,0.9,0.2,1.8,0.6,2.6c0.4,0.8,0.8,1.1,1.5,1.1l0,0V20.5z"/>
				</g>
			</g>
			<g>
				<g>
					<path class="st0" d="M437.9,20.5h1.1c0.6,0,1,0.5,1,1v0.1c0,0.9-0.2,1.8-0.6,2.6c-0.4,0.8-0.8,1.1-1.5,1.1l0,0V20.5z"/>
				</g>
			</g>
			<g>
				<g>
					<path d="M439.6,20.6l0.3-1.7c0.2-1.4,0.2-2.8-0.3-4.1c-1.2-3.1-4.2-5.4-7.7-5.3c-3.5-0.1-6.5,2.1-7.7,5.3
						c-0.5,1.3-0.5,2.8-0.3,4.1l0.3,1.7c0.5,0,1.1-0.1,1.6-0.1c0-0.2-0.4-3,1.1-3.8c0.5-0.3,1-0.2,1.8-0.2c1.6,0.1,1.9,0.6,3.4,0.8
						c0.8,0.1,1.7,0.1,2.1-0.4c0.5-0.7-0.2-1.7,0.2-2c0.5-0.4,2.6,0.9,3.4,3c0.4,1,0.3,1.9,0.2,2.5C438.5,20.5,439,20.6,439.6,20.6z
						"/>
				</g>
			</g>
			<g>
				<g>
					<path class="st0" d="M434.5,15c1.3,0,3.4,2.6,3.4,3.9v6.4c0,2-2.3,3.9-4,5c-1.3,0.8-2.8,0.8-4.1,0c-1.8-1.1-4-2.9-4-5v-4.9
						c0-1.4,0-3.9,2.1-3.9c1.3,0,4.5,1.5,5.8,0.9C435.4,16.4,433.5,15,434.5,15z"/>
				</g>
			</g>
			<g>
				<g>
					<path d="M416.3,59.9L416.3,59.9c0-2.6,1.7-23.9,4.3-24.7l5.7-1.7h11.2l5.7,1.7c2.5,0.8,4.3,22.1,4.3,24.7l0,0H416.3z"/>
				</g>
			</g>
			<g>
				<g>
					<path class="st0" d="M428.4,29v2.6c1.2,0.9,2.3,1.8,3.5,2.7c0.4-0.4,0.8-0.8,1.3-1.1c0.7-0.6,1.5-1.2,2.2-1.9V29
						c-0.1,0.2-1.4,1.8-3.5,1.7C429.7,30.7,428.5,29.2,428.4,29z"/>
				</g>
			</g>
			<g>
				<g>
					<path class="st0" d="M429.9,36.2l1.1,1c0.5,0.5,1.2,0.5,1.7,0l1.1-1c-0.6-0.7-1.3-1.3-1.9-2C431.2,34.9,430.6,35.6,429.9,36.2z
						"/>
				</g>
			</g>
			<g>
				<g>
					<polygon class="st0" points="433.6,49.9 432.8,37.3 430.9,37.3 430,49.9 					"/>
				</g>
			</g>
			<g>
				<g>
					<g>
						<polygon class="st0" points="437.4,33.5 434.1,36.7 431.8,34.3 435.6,31.1 						"/>
					</g>
				</g>
				<g>
					<g>
						<g>
							<polygon class="st0" points="426.2,33.5 429.5,36.7 431.8,34.3 428.1,31.1 							"/>
						</g>
					</g>
				</g>
			</g>
			<g>
				<g>
					<g>
						<g>
							<g>
								<g>
									<rect x="434.8" y="29" width="0.9" height="2.3"/>
								</g>
							</g>
							<g>
								<g>
									<path d="M447.8,59.9h-0.9c0-2.5-1.6-23.6-3.9-24.3l-5.7-1.7l0.3-0.9l5.7,1.7C446,35.6,447.8,57,447.8,59.9z"/>
								</g>
							</g>
							<g>
								<g>
									<rect x="427.9" y="29" width="0.9" height="2.6"/>
								</g>
							</g>
							<g>
								<g>
									<path d="M416.7,59.9h-0.9c0-2.9,1.8-24.3,4.6-25.1l5.7-1.7l0.3,0.9l-5.7,1.7C418.3,36.3,416.7,57.4,416.7,59.9z"/>
								</g>
							</g>
						</g>
						<g>
							<g>
								<path d="M431.8,31.2c-0.8,0-1.6-0.2-2.3-0.7c-1.9-1.2-4.2-3.1-4.2-5.3v-4.9c0-1.3,0-4.3,2.5-4.3c0.5,0,1.3,0.2,2.2,0.5
									c1.2,0.4,2.8,0.8,3.5,0.5c0.6-0.3,0.5-0.6,0.4-1.1c-0.1-0.3-0.2-0.6,0-0.9c0.1-0.2,0.3-0.3,0.6-0.3c0.7,0,1.5,0.6,2,1
									c0.9,0.9,1.8,2.3,1.8,3.3v6.4c0,2.2-2.3,4.1-4.2,5.3C433.4,31,432.6,31.2,431.8,31.2z M427.9,16.8c-1.4,0-1.6,1.4-1.6,3.4
									v4.9c0,1.9,2.4,3.7,3.8,4.6c1.1,0.7,2.5,0.7,3.6,0c1.4-0.9,3.8-2.7,3.8-4.6v-6.4c0-0.6-0.7-1.8-1.6-2.6
									c-0.5-0.5-0.9-0.7-1.2-0.8l0,0c0.2,0.5,0.5,1.5-0.8,2.2c-1,0.5-2.6,0-4.1-0.4C429,17,428.3,16.8,427.9,16.8z"/>
							</g>
						</g>
						<g>
							<g>
								<path d="M426.2,25.8h-0.4c-1,0-1.5-0.5-1.9-1.3s-0.6-1.8-0.6-2.8v-0.1c0-0.8,0.7-1.5,1.5-1.5h1.5L426.2,25.8z M424.7,21
									c-0.3,0-0.6,0.3-0.6,0.6v0.1c0,0.9,0.2,1.7,0.5,2.4c0.2,0.5,0.4,0.7,0.7,0.8V21H424.7z"/>
							</g>
						</g>
						<g>
							<g>
								<g>
									<path d="M423.7,20.7l-0.3-1.7c-0.3-1.6-0.2-3.1,0.3-4.4c1.3-3.4,4.6-5.7,8.1-5.6c3.6-0.1,6.8,2.1,8.1,5.6
										c0.5,1.3,0.6,2.8,0.3,4.4l-0.3,1.7l-0.9-0.1l0.3-1.7c0.2-1.4,0.1-2.8-0.3-3.9c-1.1-3.1-4-5.1-7.3-5c-3.2-0.1-6.1,1.9-7.3,5
										c-0.4,1.1-0.5,2.5-0.3,3.9l0.3,1.7L423.7,20.7z"/>
								</g>
							</g>
							<g>
								<g>
									<path d="M437.9,25.8h-0.4v-5.7h1.5c0.8,0,1.5,0.7,1.5,1.5v0.1c0,1-0.2,2-0.6,2.8C439.4,25.3,439,25.8,437.9,25.8z
										 M438.4,21v3.9c0.2-0.1,0.4-0.3,0.7-0.8c0.4-0.7,0.5-1.5,0.5-2.4v-0.1c0-0.3-0.3-0.6-0.6-0.6H438.4z"/>
								</g>
							</g>
						</g>
					</g>
					<g>
						<g>
							<g>
								<path d="M434.1,37.3l-3-3l4.5-3.8l2.4,3.1L434.1,37.3z M432.5,34.3l1.7,1.7l2.7-2.6l-1.3-1.7L432.5,34.3z"/>
							</g>
						</g>
						<g>
							<g>
								<g>
									<path d="M429.5,37.3l-3.9-3.8l2.4-3.1l4.5,3.8L429.5,37.3z M426.8,33.4l2.7,2.6l1.7-1.7l-3-2.6L426.8,33.4z"/>
								</g>
							</g>
						</g>
					</g>
				</g>
				<g>
					<g>
						<path d="M431.8,38.1c-0.4,0-0.8-0.2-1.2-0.5l-1.1-1l0.6-0.6l1.1,1c0.3,0.3,0.8,0.3,1.1,0l1.1-1l0.6,0.6l-1.1,1
							C432.7,37.9,432.2,38.1,431.8,38.1z"/>
					</g>
				</g>
				<g>
					<g>
						<polygon points="430.4,50 429.6,49.8 430.5,37.2 431.3,37.4 						"/>
					</g>
				</g>
				<g>
					<g>
						<polygon points="433.2,50 432.3,37.4 433.2,37.2 434.1,49.8 						"/>
					</g>
				</g>
			</g>
		</g>
		<polygon class="st1" points="421.9,35.3 431.8,42.9 442.6,35.6 443.6,37.8 444.7,42.3 439.9,49 439.9,50.5 423.9,50.5 423.9,49 
			419.4,41.7 420.4,37.5 		"/>
	</g>
	<g>
		<g>
			<g>
				<path class="st0" d="M46,39.2V25c0-4.9,3.9-8.8,8.8-8.8s8.8,3.9,8.8,8.8v14.5L46,39.2z"/>
			</g>
		</g>
		<g>
			<g>
				<g>
					<path class="st0" d="M68.2,57.3v-13c0-2.3-1.5-4.3-3.7-4.9l-4.9-1.5c-1.1-0.3-1.8-1.3-1.8-2.5V34c-0.1,0.1-1.2,1.6-3.1,1.5
						C53,35.4,52,34.2,51.9,34c0,0.5,0,0.9,0,1.4c0,1.1-0.7,2.1-1.8,2.5l-4.9,1.5c-2.2,0.7-3.7,2.7-3.7,4.9l0,0v13
						C41.5,57.3,68.2,57.3,68.2,57.3z"/>
				</g>
			</g>
		</g>
		<g>
			<g>
				<path class="st0" d="M50,37.9l1.8,2.6c1.4,2.1,4.6,2.1,6,0l1.8-2.6c-0.3-0.1-0.9-0.4-1.4-1.1c-0.9-1.2-0.5-2.6-0.4-2.8
					c-0.1,0.1-1.2,1.6-3.1,1.5C53,35.4,52,34.2,51.9,34c0.1,0.2,0.4,1.4-0.3,2.6C51,37.5,50.3,37.8,50,37.9z"/>
			</g>
		</g>
		<g>
			<g>
				<path class="st0" d="M60,23.7v7.1c0,1.8-1.9,3.3-3.4,4.2c-1.1,0.7-2.4,0.7-3.5,0c-1.5-0.9-3.4-2.5-3.4-4.2v-7.1
					c0,0,2.2,1.9,5.2,0.5C58,22.8,60,23.7,60,23.7z"/>
			</g>
		</g>
		<g>
			<g>
				<g>
					<g>
						<path d="M64.1,39.5h-1V25c0-4.6-3.7-8.3-8.3-8.3s-8.3,3.7-8.3,8.3v14.2h-1V25c0-5.1,4.2-9.3,9.3-9.3s9.3,4.2,9.3,9.3V39.5z"/>
					</g>
				</g>
				<g>
					<g>
						<g>
							<path d="M42,57.3h-1v-13c0-2.5,1.6-4.6,4-5.4l4.9-1.5c0.9-0.3,1.5-1.1,1.5-2V34h1v1.4c0,1.4-0.9,2.6-2.2,3l-4.9,1.5
								c-2,0.6-3.3,2.4-3.3,4.4V57.3z"/>
						</g>
					</g>
					<g>
						<g>
							<path d="M68.7,57.3h-1v-13c0-2.1-1.3-3.8-3.3-4.4l-4.9-1.5c-1.3-0.4-2.2-1.6-2.2-3V34h1v1.4c0,0.9,0.6,1.7,1.5,2l4.9,1.5
								c2.4,0.7,4,2.9,4,5.4C68.7,44.3,68.7,57.3,68.7,57.3z"/>
						</g>
					</g>
				</g>
				<g>
					<g>
						<path d="M54.8,36.1c-0.7,0-1.4-0.2-2-0.6c-1.7-1-3.7-2.7-3.7-4.7v-7.1c0-0.2,0.1-0.4,0.3-0.5s0.4-0.1,0.5,0.1
							c0.1,0.1,2,1.7,4.7,0.5c3.3-1.6,5.5-0.6,5.6-0.5c0.2,0.1,0.3,0.3,0.3,0.5v7.1c0,2-2,3.6-3.7,4.7
							C56.2,35.9,55.5,36.1,54.8,36.1z M50.1,24.6v6.2c0,1.6,2,3.1,3.2,3.8c0.9,0.6,2.1,0.6,3,0c1.2-0.7,3.2-2.2,3.2-3.8V24
							c-0.6-0.2-2.2-0.4-4.5,0.6C52.9,25.7,51.1,25.2,50.1,24.6z"/>
					</g>
				</g>
				<g>
					<g>
						<path d="M54.8,42.7c-1.4,0-2.7-0.7-3.4-1.8l-1.8-2.6l0.8-0.6l1.8,2.6c0.6,0.9,1.5,1.4,2.6,1.4s2-0.5,2.6-1.4l1.8-2.6l0.8,0.6
							l-1.8,2.6C57.5,42,56.2,42.7,54.8,42.7z"/>
					</g>
				</g>
			</g>
		</g>
	</g>
	<g>
		<g>
			<g>
				<g>
					<g>
						<path class="st0" d="M85.4,57.3v-15c0.3-2.1,1.8-3.9,3.9-4.5l4.5-1.4c0.5-0.2,1-0.4,1.4-0.8l0,0c0.8-0.7,1.3-1.8,1.3-2.9V32
							h6.4v0.7c0,1.1,0.5,2.2,1.4,3l0,0c0.4,0.3,0.9,0.6,1.4,0.7l4.5,1.4c2.1,0.6,3.5,2.4,3.9,4.4v15.1
							C114.1,57.3,85.4,57.3,85.4,57.3z"/>
					</g>
				</g>
			</g>
			<g>
				<g>
					<path class="st0" d="M103.9,35.1c0,2.1-1.9,3.7-4.2,3.7c-2.3,0-4.2-1.7-4.2-3.7c0.4-0.9,0.8-1.9,1.1-2.8
						c0.2,0.2,1.4,1.4,3.3,1.3c1.5-0.1,2.5-1,2.7-1.3C103.1,33.2,103.5,34.1,103.9,35.1z"/>
				</g>
			</g>
			<g>
				<g>
					<g>
						<g>
							<g>
								<g>
									<g>
										<g>
											<path d="M114.6,57.3h-1V42.1c-0.3-1.8-1.7-3.4-3.5-3.9l-4.5-1.4c-0.6-0.2-1.1-0.5-1.5-0.8c-1-0.8-1.6-2-1.6-3.3V32h1v0.7
												c0,1,0.4,1.9,1.2,2.6c0.4,0.3,0.7,0.5,1.2,0.6l4.5,1.4c2.2,0.7,3.9,2.6,4.2,4.8L114.6,57.3z"/>
										</g>
									</g>
									<g>
										<g>
											<path d="M85.9,57.3h-1v-15c0.3-2.4,2-4.3,4.2-5l4.5-1.4c0.5-0.1,0.9-0.4,1.2-0.7c0.8-0.7,1.2-1.6,1.2-2.6V32h1v0.7
												c0,1.3-0.5,2.5-1.5,3.3c-0.5,0.4-1,0.7-1.6,0.9l-4.5,1.4c-1.9,0.6-3.3,2.2-3.5,4.1L85.9,57.3z"/>
										</g>
									</g>
								</g>
							</g>
						</g>
					</g>
					<g>
						<g>
							<path d="M99.7,39.3c-2.6,0-4.7-1.9-4.7-4.2h1c0,1.8,1.6,3.2,3.7,3.2c2,0,3.7-1.4,3.7-3.2h1C104.4,37.4,102.3,39.3,99.7,39.3z
								"/>
						</g>
					</g>
				</g>
			</g>
		</g>
		<g>
			<g>
				<g>
					<path class="st2" d="M92.8,21.7h-1.2c-0.6,0-1.1,0.5-1.1,1.1V23c0,1,0.2,2,0.7,2.9s0.8,1.2,1.7,1.2l0,0L92.8,21.7z"/>
				</g>
			</g>
			<g>
				<g>
					<path class="st2" d="M106.3,21.7h1.2c0.6,0,1.1,0.5,1.1,1.1V23c0,1-0.2,2-0.7,2.9s-0.8,1.2-1.7,1.2l0,0L106.3,21.7z"/>
				</g>
			</g>
			<g>
				<g>
					<path class="st0" d="M108.2,21.9l0.3-1.8c0.3-1.5,0.2-3.2-0.3-4.6c-1.3-3.5-4.7-6-8.6-5.9c-3.9-0.1-7.3,2.4-8.6,5.9
						c-0.5,1.5-0.6,3.1-0.3,4.6l0.3,1.8c0.6,0,1.2-0.1,1.8-0.1c0-0.5-0.2-3.6,1.4-4.4c0.1-0.1,0.2-0.1,0.4-0.1
						c3.2,0,6.3-0.1,9.5-0.1c0.3,0,0.6,0,0.8,0.1c1.2,0.5,1.8,2.3,1.6,4.5C107,21.8,107.6,21.8,108.2,21.9z"/>
				</g>
			</g>
			<g>
				<g>
					<path class="st0" d="M106.3,21.5V27c0,2.3-2.5,4.3-4.5,5.5c-1.4,0.9-3.2,0.9-4.6,0c-2-1.2-4.5-3.2-4.5-5.5v-5.5
						c0-1.5,0-4.3,2.3-4.3h8.9C106.3,17.1,106.3,19.9,106.3,21.5"/>
				</g>
			</g>
			<g>
				<g>
					<g>
						<g>
							<g>
								<g>
									<path d="M99.5,33.6c-0.9,0-1.8-0.2-2.5-0.7c-2.2-1.3-4.7-3.5-4.7-5.9v-5.5c0-1.4,0-4.8,2.8-4.8h8.9c2.8,0,2.8,3.4,2.8,4.8
										V27c0,2.5-2.6,4.6-4.7,5.9C101.3,33.4,100.4,33.6,99.5,33.6z M95.1,17.6c-1.5,0-1.8,1.5-1.8,3.8V27c0,2.1,2.7,4.1,4.3,5.1
										c1.2,0.8,2.8,0.8,4,0c1.6-1,4.3-3,4.3-5.1v-5.5c0-2.3-0.3-3.8-1.8-3.8L95.1,17.6L95.1,17.6z"/>
								</g>
							</g>
							<g>
								<g>
									<path d="M93.3,27.6h-0.5c-1.2,0-1.7-0.5-2.1-1.5c-0.5-0.9-0.7-2-0.7-3.2v-0.1c0-0.9,0.7-1.6,1.6-1.6h1.7V27.6z M91.6,22.2
										c-0.4,0-0.6,0.3-0.6,0.6V23c0,1,0.2,1.9,0.6,2.7c0.3,0.5,0.5,0.7,0.7,0.8v-4.3H91.6z"/>
								</g>
							</g>
							<g>
								<g>
									<g>
										<path d="M108.7,22l-1-0.2L108,20c0.3-1.6,0.2-3.1-0.3-4.4c-1.3-3.4-4.5-5.7-8.1-5.5c-3.6-0.1-6.9,2.1-8.1,5.5
											c-0.5,1.3-0.6,2.8-0.3,4.4l0.3,1.8l-1,0.2l-0.3-1.8c-0.3-1.8-0.2-3.4,0.4-4.9c1.4-3.8,5-6.3,9.1-6.2c4-0.1,7.6,2.4,9,6.2
											c0.5,1.4,0.7,3.1,0.4,4.9L108.7,22z"/>
									</g>
								</g>
								<g>
									<g>
										<path d="M106.3,27.6v-1c0.6,0,0.8-0.1,1.2-0.9c0.4-0.8,0.6-1.7,0.6-2.7v-0.1c0-0.4-0.3-0.6-0.6-0.6h-1.2v-1h1.2
											c0.9,0,1.6,0.7,1.6,1.6V23c0,1.1-0.2,2.2-0.7,3.2C108,27.1,107.5,27.6,106.3,27.6z"/>
									</g>
								</g>
							</g>
						</g>
					</g>
				</g>
			</g>
		</g>
	</g>
	<g>
		<g>
			<g>
				<g>
					<path class="st0" d="M384.4,13.8h-1.2c-0.6,0-1.1,0.5-1.1,1.1V15c0,1,0.2,2,0.7,2.9s0.8,1.2,1.7,1.2l0,0L384.4,13.8z"/>
				</g>
			</g>
			<g>
				<g>
					<path class="st0" d="M398,13.8h1.2c0.6,0,1.1,0.5,1.1,1.1V15c0,1-0.2,2-0.7,2.9s-0.8,1.2-1.7,1.2l0,0L398,13.8z"/>
				</g>
			</g>
			<g>
				<g>
					<path d="M399.9,13.9l0.3-1.8c0.3-1.5,0.2-3.2-0.3-4.6c-1.3-3.5-4.7-6-8.6-5.9c-3.9-0.1-7.3,2.4-8.6,5.9
						c-0.5,1.5-0.6,3.1-0.3,4.6l0.3,1.8c0.6,0,1.2-0.1,1.8-0.1c0-0.3-0.4-3.3,1.2-4.2c0.5-0.3,1.1-0.3,2-0.2
						c1.7,0.1,2.1,0.7,3.8,0.9c0.9,0.1,1.9,0.2,2.4-0.4c0.6-0.7-0.2-1.9,0.2-2.2c0.6-0.4,2.9,1,3.8,3.3c0.4,1.1,0.4,2.1,0.3,2.8
						C398.6,13.8,399.2,13.9,399.9,13.9z"/>
				</g>
			</g>
			<g>
				<g>
					<path class="st0" d="M394.2,7.6c1.4,0,3.8,2.9,3.8,4.3V19c0,2.3-2.5,4.3-4.5,5.5c-1.4,0.9-3.2,0.9-4.6,0
						c-2-1.2-4.5-3.2-4.5-5.5v-5.5c0-1.5,0-4.3,2.3-4.3c1.4,0,5,1.7,6.5,1C395.1,9.2,393.1,7.6,394.2,7.6z"/>
				</g>
			</g>
			<g>
				<g>
					<path d="M373.8,56.5L373.8,56.5c0-2.9,1.9-25.5,4.7-26.3l6.4-1.9h12.5l6.4,1.9c2.8,0.9,4.7,23.5,4.7,26.4l0,0L373.8,56.5z"/>
				</g>
			</g>
			<g>
				<g>
					<path class="st0" d="M387.3,23.3v2.9c1.3,1,2.6,2,3.9,3c0.5-0.4,0.9-0.8,1.4-1.3c0.8-0.7,1.6-1.4,2.5-2.1v-2.6
						c-0.1,0.2-1.5,2-3.9,1.9C388.8,25.2,387.5,23.5,387.3,23.3z"/>
				</g>
			</g>
			<g>
				<g>
					<path class="st0" d="M389.1,31.3l1.2,1.2c0.5,0.5,1.4,0.5,1.9,0l1.2-1.2c-0.7-0.7-1.4-1.5-2.1-2.2
						C390.5,29.9,389.8,30.6,389.1,31.3z"/>
				</g>
			</g>
			<g>
				<g>
					<polygon class="st0" points="393.2,46.6 392.2,32.5 390.2,32.5 389.2,46.6 					"/>
				</g>
			</g>
			<g>
				<g>
					<g>
						<polygon class="st0" points="397.5,28.3 393.8,31.8 391.2,29.2 395.4,25.6 						"/>
					</g>
				</g>
				<g>
					<g>
						<g>
							<polygon class="st0" points="384.9,28.3 388.6,31.8 391.2,29.2 387,25.6 							"/>
						</g>
					</g>
				</g>
			</g>
			<g>
				<g>
					<g>
						<g>
							<g>
								<g>
									<rect x="394.6" y="23.3" width="1" height="2.6"/>
								</g>
							</g>
							<g>
								<g>
									<path d="M409.1,56.6h-1c0-2.7-1.8-25.1-4.4-25.9l-6.4-1.9l0.3-1l6.4,1.9C407,30.6,409.1,53.4,409.1,56.6z"/>
								</g>
							</g>
							<g>
								<g>
									<rect x="386.8" y="23.3" width="1" height="2.9"/>
								</g>
							</g>
							<g>
								<g>
									<path d="M374.3,56.6h-1c0-3.2,2.1-26,5.1-26.9l6.4-1.9l0.3,1l-6.4,1.9C376.1,31.5,374.3,53.8,374.3,56.6z"/>
								</g>
							</g>
						</g>
						<g>
							<g>
								<path d="M391.2,25.7c-0.9,0-1.8-0.2-2.5-0.7c-2.2-1.3-4.7-3.5-4.7-5.9v-5.5c0-1.4,0-4.8,2.8-4.8c0.6,0,1.5,0.2,2.4,0.5
									c1.4,0.4,3.1,0.9,3.9,0.5c0.7-0.3,0.6-0.7,0.4-1.3c-0.1-0.3-0.2-0.7,0-1c0.1-0.2,0.4-0.3,0.7-0.3c0.8,0,1.7,0.6,2.2,1.2
									c1,1,2,2.5,2,3.6v7c0,2.5-2.6,4.6-4.7,5.9C393,25.5,392.1,25.7,391.2,25.7z M386.8,9.7c-1.5,0-1.8,1.5-1.8,3.8V19
									c0,2.1,2.7,4.1,4.3,5.1c1.2,0.8,2.8,0.8,4,0c1.6-1,4.3-3,4.3-5.1v-7.1c0-0.7-0.8-2-1.7-2.9c-0.5-0.5-1-0.8-1.3-0.9l0,0
									c0.2,0.6,0.5,1.7-0.9,2.4c-1.1,0.5-2.9,0-4.6-0.4C388.1,9.9,387.2,9.7,386.8,9.7z"/>
							</g>
						</g>
						<g>
							<g>
								<path d="M384.9,19.7h-0.5c-1.2,0-1.7-0.5-2.1-1.5c-0.5-0.9-0.7-2-0.7-3.2v-0.1c0-0.9,0.7-1.6,1.6-1.6h1.7V19.7z M383.2,14.3
									c-0.4,0-0.6,0.3-0.6,0.6V15c0,1,0.2,1.9,0.6,2.7c0.3,0.5,0.5,0.7,0.7,0.8v-4.3h-0.7V14.3z"/>
							</g>
						</g>
						<g>
							<g>
								<g>
									<path d="M382.1,14l-0.3-1.8c-0.3-1.8-0.2-3.4,0.4-4.9c1.4-3.8,5.1-6.3,9.1-6.2c4-0.1,7.6,2.4,9,6.2
										c0.5,1.4,0.7,3.1,0.4,4.9l-0.3,1.8l-1-0.2l0.3-1.8c0.3-1.6,0.2-3.1-0.3-4.4c-1.3-3.4-4.5-5.7-8.1-5.5
										c-3.6-0.1-6.9,2.1-8.1,5.5c-0.5,1.3-0.6,2.8-0.3,4.4l0.3,1.8L382.1,14z"/>
								</g>
							</g>
							<g>
								<g>
									<path d="M398,19.7h-0.5v-6.4h1.7c0.9,0,1.6,0.7,1.6,1.6V15c0,1.2-0.2,2.2-0.7,3.2C399.7,19.1,399.2,19.7,398,19.7z
										 M398.5,14.3v4.3c0.3-0.1,0.5-0.3,0.7-0.8c0.4-0.8,0.6-1.7,0.6-2.7V15c0-0.4-0.3-0.6-0.6-0.6L398.5,14.3L398.5,14.3z"/>
								</g>
							</g>
						</g>
					</g>
					<g>
						<g>
							<g>
								<path d="M393.8,32.5l-3.3-3.4l5-4.3l2.7,3.5L393.8,32.5z M391.9,29.2l1.9,1.9l3-2.9l-1.5-1.9L391.9,29.2z"/>
							</g>
						</g>
						<g>
							<g>
								<g>
									<path d="M388.6,32.5l-4.4-4.2l2.7-3.5l5,4.3L388.6,32.5z M385.6,28.2l3,2.9l1.9-1.9l-3.4-2.9L385.6,28.2z"/>
								</g>
							</g>
						</g>
					</g>
				</g>
				<g>
					<g>
						<path d="M391.2,33.4c-0.5,0-0.9-0.2-1.3-0.5l-1.2-1.2l0.7-0.7l1.2,1.2c0.3,0.3,0.9,0.3,1.2,0L393,31l0.7,0.7l-1.2,1.2
							C392.1,33.2,391.7,33.4,391.2,33.4z"/>
					</g>
				</g>
				<g>
					<g>
						<polygon points="389.6,46.7 388.7,46.5 389.7,32.4 390.6,32.6 						"/>
					</g>
				</g>
				<g>
					<g>
						<polygon points="392.7,46.7 391.7,32.6 392.7,32.4 393.7,46.5 						"/>
					</g>
				</g>
			</g>
		</g>
		<polygon class="st1" points="380.2,30.3 391.2,38.8 403.2,30.6 404.8,32.1 405.5,38.1 400.2,45.5 400.2,47.3 382.4,47.3 
			382.4,45.5 377.3,37.5 378.2,32 		"/>
	</g>
	<g>
		<g>
			<rect x="342" y="16.8" width="17.2" height="23.7"/>
			<g>
				<g>
					<path class="st0" d="M344.5,20.5h-1.1c-0.6,0-1,0.5-1,1v0.1c0,0.9,0.2,1.8,0.6,2.6c0.4,0.8,0.8,1.1,1.5,1.1l0,0V20.5z"/>
				</g>
			</g>
			<g>
				<g>
					<path class="st0" d="M356.7,20.5h1.1c0.6,0,1,0.5,1,1v0.1c0,0.9-0.2,1.8-0.6,2.6c-0.4,0.8-0.8,1.1-1.5,1.1l0,0V20.5z"/>
				</g>
			</g>
			<g>
				<g>
					<path d="M358.3,20.6l0.3-1.7c0.2-1.4,0.2-2.8-0.3-4.1c-1.2-3.1-4.2-5.4-7.7-5.3c-3.5-0.1-6.5,2.1-7.7,5.3
						c-0.5,1.3-0.5,2.8-0.3,4.1l0.3,1.7c0.5,0,1.1-0.1,1.6-0.1c0-0.2-0.4-3,1.1-3.8c0.5-0.3,1-0.2,1.8-0.2c1.6,0.1,1.9,0.6,3.4,0.8
						c0.8,0.1,1.7,0.1,2.1-0.4c0.5-0.7-0.2-1.7,0.2-2c0.5-0.4,2.6,0.9,3.4,3c0.4,1,0.3,1.9,0.2,2.5
						C357.2,20.5,357.8,20.6,358.3,20.6z"/>
				</g>
			</g>
			<g>
				<g>
					<path class="st0" d="M353.3,15c1.3,0,3.4,2.6,3.4,3.9v6.4c0,2-2.3,3.9-4,5c-1.3,0.8-2.8,0.8-4.1,0c-1.8-1.1-4-2.9-4-5v-4.9
						c0-1.4,0-3.9,2.1-3.9c1.3,0,4.5,1.5,5.8,0.9C354.1,16.4,352.3,15,353.3,15z"/>
				</g>
			</g>
			<g>
				<g>
					<path d="M335,59.9L335,59.9c0-2.6,1.7-23.9,4.3-24.7l5.7-1.7h11.2l5.7,1.7c2.5,0.8,4.3,22.1,4.3,24.7l0,0H335z"/>
				</g>
			</g>
			<g>
				<g>
					<path class="st0" d="M347.1,29v2.6c1.2,0.9,2.3,1.8,3.5,2.7c0.4-0.4,0.8-0.8,1.3-1.1c0.7-0.6,1.5-1.2,2.2-1.9V29
						c-0.1,0.2-1.4,1.8-3.5,1.7C348.4,30.7,347.2,29.2,347.1,29z"/>
				</g>
			</g>
			<g>
				<g>
					<path class="st0" d="M348.7,36.2l1.1,1c0.5,0.5,1.2,0.5,1.7,0l1.1-1c-0.6-0.7-1.3-1.3-1.9-2C349.9,34.9,349.3,35.6,348.7,36.2z
						"/>
				</g>
			</g>
			<g>
				<g>
					<polygon class="st0" points="352.4,49.9 351.5,37.3 349.6,37.3 348.7,49.9 					"/>
				</g>
			</g>
			<g>
				<g>
					<g>
						<polygon class="st0" points="356.2,33.5 352.9,36.7 350.6,34.3 354.3,31.1 						"/>
					</g>
				</g>
				<g>
					<g>
						<g>
							<polygon class="st0" points="345,33.5 348.3,36.7 350.6,34.3 346.8,31.1 							"/>
						</g>
					</g>
				</g>
			</g>
			<g>
				<g>
					<g>
						<g>
							<g>
								<g>
									<rect x="353.6" y="29" width="0.9" height="2.3"/>
								</g>
							</g>
							<g>
								<g>
									<path d="M366.6,59.9h-0.9c0-2.5-1.6-23.6-3.9-24.3l-5.7-1.7l0.3-0.9l5.7,1.7C364.7,35.6,366.6,57,366.6,59.9z"/>
								</g>
							</g>
							<g>
								<g>
									<rect x="346.6" y="29" width="0.9" height="2.6"/>
								</g>
							</g>
							<g>
								<g>
									<path d="M335.4,59.9h-0.9c0-2.9,1.8-24.3,4.6-25.1l5.7-1.7l0.3,0.9l-5.7,1.7C337,36.3,335.4,57.4,335.4,59.9z"/>
								</g>
							</g>
						</g>
						<g>
							<g>
								<path d="M350.6,31.2c-0.8,0-1.6-0.2-2.3-0.7c-1.9-1.2-4.2-3.1-4.2-5.3v-4.9c0-1.3,0-4.3,2.5-4.3c0.5,0,1.3,0.2,2.2,0.5
									c1.2,0.4,2.8,0.8,3.5,0.5c0.6-0.3,0.5-0.6,0.4-1.1c-0.1-0.3-0.2-0.6,0-0.9c0.1-0.2,0.3-0.3,0.6-0.3c0.7,0,1.5,0.6,2,1
									c0.9,0.9,1.8,2.3,1.8,3.3v6.4c0,2.2-2.3,4.1-4.2,5.3C352.1,31,351.4,31.2,350.6,31.2z M346.6,16.8c-1.4,0-1.6,1.4-1.6,3.4
									v4.9c0,1.9,2.4,3.7,3.8,4.6c1.1,0.7,2.5,0.7,3.6,0c1.4-0.9,3.8-2.7,3.8-4.6v-6.4c0-0.6-0.7-1.8-1.6-2.6
									c-0.5-0.5-0.9-0.7-1.2-0.8l0,0c0.2,0.5,0.5,1.5-0.8,2.2c-1,0.5-2.6,0-4.1-0.4C347.8,17,347,16.8,346.6,16.8z"/>
							</g>
						</g>
						<g>
							<g>
								<path d="M345,25.8h-0.4c-1,0-1.5-0.5-1.9-1.3s-0.6-1.8-0.6-2.8v-0.1c0-0.8,0.7-1.5,1.5-1.5h1.5L345,25.8z M343.4,21
									c-0.3,0-0.6,0.3-0.6,0.6v0.1c0,0.9,0.2,1.7,0.5,2.4c0.2,0.5,0.4,0.7,0.7,0.8V21H343.4z"/>
							</g>
						</g>
						<g>
							<g>
								<g>
									<path d="M342.4,20.7l-0.3-1.7c-0.3-1.6-0.2-3.1,0.3-4.4c1.3-3.4,4.6-5.7,8.1-5.6c3.6-0.1,6.8,2.1,8.1,5.6
										c0.5,1.3,0.6,2.8,0.3,4.4l-0.3,1.7l-0.9-0.1l0.3-1.7c0.2-1.4,0.1-2.8-0.3-3.9c-1.1-3.1-4-5.1-7.3-5c-3.2-0.1-6.1,1.9-7.3,5
										c-0.4,1.1-0.5,2.5-0.3,3.9l0.3,1.7L342.4,20.7z"/>
								</g>
							</g>
							<g>
								<g>
									<path d="M356.7,25.8h-0.4v-5.7h1.5c0.8,0,1.5,0.7,1.5,1.5v0.1c0,1-0.2,2-0.6,2.8C358.1,25.3,357.7,25.8,356.7,25.8z
										 M357.1,21v3.9c0.2-0.1,0.4-0.3,0.7-0.8c0.4-0.7,0.5-1.5,0.5-2.4v-0.1c0-0.3-0.3-0.6-0.6-0.6H357.1z"/>
								</g>
							</g>
						</g>
					</g>
					<g>
						<g>
							<g>
								<path d="M352.9,37.3l-3-3l4.5-3.8l2.4,3.1L352.9,37.3z M351.2,34.3l1.7,1.7l2.7-2.6l-1.3-1.7L351.2,34.3z"/>
							</g>
						</g>
						<g>
							<g>
								<g>
									<path d="M348.3,37.3l-3.9-3.8l2.4-3.1l4.5,3.8L348.3,37.3z M345.6,33.4l2.7,2.6l1.7-1.7l-3-2.6L345.6,33.4z"/>
								</g>
							</g>
						</g>
					</g>
				</g>
				<g>
					<g>
						<path d="M350.6,38.1c-0.4,0-0.8-0.2-1.2-0.5l-1.1-1l0.6-0.6l1.1,1c0.3,0.3,0.8,0.3,1.1,0l1.1-1l0.6,0.6l-1.1,1
							C351.4,37.9,351,38.1,350.6,38.1z"/>
					</g>
				</g>
				<g>
					<g>
						<polygon points="349.2,50 348.3,49.8 349.2,37.2 350.1,37.4 						"/>
					</g>
				</g>
				<g>
					<g>
						<polygon points="351.9,50 351.1,37.4 351.9,37.2 352.8,49.8 						"/>
					</g>
				</g>
			</g>
		</g>
		<polygon class="st1" points="340.7,35.3 350.6,42.9 361.3,35.6 362.4,37.8 363.4,42.3 358.6,49 358.6,50.5 342.7,50.5 342.7,49 
			338.1,41.7 339.1,37.5 		"/>
	</g>
	<g>
		<g>
			<g>
				<path class="st0" d="M225.6,39.2V25c0-4.9,3.9-8.8,8.8-8.8c4.9,0,8.8,3.9,8.8,8.8v14.5L225.6,39.2z"/>
			</g>
		</g>
		<g>
			<g>
				<g>
					<path class="st0" d="M247.8,57.3v-13c0-2.3-1.5-4.3-3.7-4.9l-4.9-1.5c-1.1-0.3-1.8-1.3-1.8-2.5V34c-0.1,0.1-1.2,1.6-3.1,1.5
						c-1.7-0.1-2.7-1.3-2.8-1.5c0,0.5,0,0.9,0,1.4c0,1.1-0.7,2.1-1.8,2.5l-4.9,1.5c-2.2,0.7-3.7,2.7-3.7,4.9l0,0v13
						C221.1,57.3,247.8,57.3,247.8,57.3z"/>
				</g>
			</g>
		</g>
		<g>
			<g>
				<path class="st0" d="M229.6,37.9l1.8,2.6c1.4,2.1,4.6,2.1,6,0l1.8-2.6c-0.3-0.1-0.9-0.4-1.4-1.1c-0.9-1.2-0.5-2.6-0.4-2.8
					c-0.1,0.1-1.2,1.6-3.1,1.5c-1.7-0.1-2.7-1.3-2.8-1.5c0.1,0.2,0.4,1.4-0.3,2.6C230.6,37.5,229.9,37.8,229.6,37.9z"/>
			</g>
		</g>
		<g>
			<g>
				<path class="st0" d="M239.6,23.7v7.1c0,1.8-1.9,3.3-3.4,4.2c-1.1,0.7-2.4,0.7-3.5,0c-1.5-0.9-3.4-2.5-3.4-4.2v-7.1
					c0,0,2.2,1.9,5.2,0.5C237.6,22.8,239.6,23.7,239.6,23.7z"/>
			</g>
		</g>
		<g>
			<g>
				<g>
					<g>
						<path d="M243.7,39.5h-1V25c0-4.6-3.7-8.3-8.3-8.3s-8.3,3.7-8.3,8.3v14.2h-1V25c0-5.1,4.2-9.3,9.3-9.3s9.3,4.2,9.3,9.3V39.5z"
							/>
					</g>
				</g>
				<g>
					<g>
						<g>
							<path d="M221.6,57.3h-1v-13c0-2.5,1.6-4.6,4-5.4l4.9-1.5c0.9-0.3,1.5-1.1,1.5-2V34h1v1.4c0,1.4-0.9,2.6-2.2,3l-4.9,1.5
								c-2,0.6-3.3,2.4-3.3,4.4V57.3z"/>
						</g>
					</g>
					<g>
						<g>
							<path d="M248.3,57.3h-1v-13c0-2.1-1.3-3.8-3.3-4.4l-4.9-1.5c-1.3-0.4-2.2-1.6-2.2-3V34h1v1.4c0,0.9,0.6,1.7,1.5,2l4.9,1.5
								c2.4,0.7,4,2.9,4,5.4V57.3z"/>
						</g>
					</g>
				</g>
				<g>
					<g>
						<path d="M234.4,36.1c-0.7,0-1.4-0.2-2-0.6c-1.7-1-3.7-2.7-3.7-4.7v-7.1c0-0.2,0.1-0.4,0.3-0.5s0.4-0.1,0.5,0.1
							c0.1,0.1,2,1.7,4.7,0.5c3.3-1.6,5.5-0.6,5.6-0.5c0.2,0.1,0.3,0.3,0.3,0.5v7.1c0,2-2,3.6-3.7,4.7
							C235.8,35.9,235.1,36.1,234.4,36.1z M229.7,24.6v6.2c0,1.6,2,3.1,3.2,3.8c0.9,0.6,2.1,0.6,3,0c1.2-0.7,3.2-2.2,3.2-3.8V24
							c-0.6-0.2-2.2-0.4-4.5,0.6C232.5,25.7,230.7,25.2,229.7,24.6z"/>
					</g>
				</g>
				<g>
					<g>
						<path d="M234.4,42.7c-1.4,0-2.7-0.7-3.4-1.8l-1.8-2.6l0.8-0.6l1.8,2.6c0.6,0.9,1.5,1.4,2.6,1.4s2-0.5,2.6-1.4l1.8-2.6l0.8,0.6
							l-1.8,2.6C237.1,42,235.8,42.7,234.4,42.7z"/>
					</g>
				</g>
			</g>
		</g>
	</g>
	<g>
		<g>
			<g>
				<g>
					<g>
						<path class="st0" d="M265,57.3v-15c0.3-2.1,1.8-3.9,3.9-4.5l4.5-1.4c0.5-0.2,1-0.4,1.4-0.8l0,0c0.8-0.7,1.3-1.8,1.3-2.9V32
							h6.4v0.7c0,1.1,0.5,2.2,1.4,3l0,0c0.4,0.3,0.9,0.6,1.4,0.7l4.5,1.4c2.1,0.6,3.5,2.4,3.9,4.4v15.1
							C293.7,57.3,265,57.3,265,57.3z"/>
					</g>
				</g>
			</g>
			<g>
				<g>
					<path class="st0" d="M283.5,35.1c0,2.1-1.9,3.7-4.2,3.7c-2.3,0-4.2-1.7-4.2-3.7c0.4-0.9,0.8-1.9,1.1-2.8
						c0.2,0.2,1.4,1.4,3.3,1.3c1.5-0.1,2.5-1,2.7-1.3C282.7,33.2,283.1,34.1,283.5,35.1z"/>
				</g>
			</g>
			<g>
				<g>
					<g>
						<g>
							<g>
								<g>
									<g>
										<g>
											<path d="M294.2,57.3h-1V42.1c-0.3-1.8-1.7-3.4-3.5-3.9l-4.5-1.4c-0.6-0.2-1.1-0.5-1.5-0.8c-1-0.8-1.6-2-1.6-3.3V32h1v0.7
												c0,1,0.4,1.9,1.2,2.6c0.4,0.3,0.7,0.5,1.2,0.6l4.5,1.4c2.2,0.7,3.9,2.6,4.2,4.8L294.2,57.3z"/>
										</g>
									</g>
									<g>
										<g>
											<path d="M265.5,57.3h-1v-15c0.3-2.4,2-4.3,4.2-5l4.5-1.4c0.5-0.1,0.9-0.4,1.2-0.7c0.8-0.7,1.2-1.6,1.2-2.6V32h1v0.7
												c0,1.3-0.5,2.5-1.5,3.3c-0.5,0.4-1,0.7-1.6,0.9l-4.5,1.4c-1.9,0.6-3.3,2.2-3.5,4.1L265.5,57.3z"/>
										</g>
									</g>
								</g>
							</g>
						</g>
					</g>
					<g>
						<g>
							<path d="M279.3,39.3c-2.6,0-4.7-1.9-4.7-4.2h1c0,1.8,1.6,3.2,3.7,3.2c2,0,3.7-1.4,3.7-3.2h1C284,37.4,281.9,39.3,279.3,39.3z
								"/>
						</g>
					</g>
				</g>
			</g>
		</g>
		<g>
			<g>
				<g>
					<path class="st2" d="M272.4,21.7h-1.2c-0.6,0-1.1,0.5-1.1,1.1V23c0,1,0.2,2,0.7,2.9s0.8,1.2,1.7,1.2l0,0L272.4,21.7z"/>
				</g>
			</g>
			<g>
				<g>
					<path class="st2" d="M285.9,21.7h1.2c0.6,0,1.1,0.5,1.1,1.1V23c0,1-0.2,2-0.7,2.9s-0.8,1.2-1.7,1.2l0,0L285.9,21.7z"/>
				</g>
			</g>
			<g>
				<g>
					<path class="st0" d="M287.8,21.9l0.3-1.8c0.3-1.5,0.2-3.2-0.3-4.6c-1.3-3.5-4.7-6-8.6-5.9c-3.9-0.1-7.3,2.4-8.6,5.9
						c-0.5,1.5-0.6,3.1-0.3,4.6l0.3,1.8c0.6,0,1.2-0.1,1.8-0.1c0-0.5-0.2-3.6,1.4-4.4c0.1-0.1,0.2-0.1,0.4-0.1
						c3.2,0,6.3-0.1,9.5-0.1c0.3,0,0.6,0,0.8,0.1c1.2,0.5,1.8,2.3,1.6,4.5C286.6,21.8,287.2,21.8,287.8,21.9z"/>
				</g>
			</g>
			<g>
				<g>
					<path class="st0" d="M285.9,21.5V27c0,2.3-2.5,4.3-4.5,5.5c-1.4,0.9-3.2,0.9-4.6,0c-2-1.2-4.5-3.2-4.5-5.5v-5.5
						c0-1.5,0-4.3,2.3-4.3h8.9C285.9,17.1,285.9,19.9,285.9,21.5"/>
				</g>
			</g>
			<g>
				<g>
					<g>
						<g>
							<g>
								<g>
									<path d="M279.1,33.6c-0.9,0-1.8-0.2-2.5-0.7c-2.2-1.3-4.7-3.5-4.7-5.9v-5.5c0-1.4,0-4.8,2.8-4.8h8.9c2.8,0,2.8,3.4,2.8,4.8
										V27c0,2.5-2.6,4.6-4.7,5.9C280.9,33.4,280,33.6,279.1,33.6z M274.7,17.6c-1.5,0-1.8,1.5-1.8,3.8V27c0,2.1,2.7,4.1,4.3,5.1
										c1.2,0.8,2.8,0.8,4,0c1.6-1,4.3-3,4.3-5.1v-5.5c0-2.3-0.3-3.8-1.8-3.8L274.7,17.6L274.7,17.6z"/>
								</g>
							</g>
							<g>
								<g>
									<path d="M272.9,27.6h-0.5c-1.2,0-1.7-0.5-2.1-1.5c-0.5-0.9-0.7-2-0.7-3.2v-0.1c0-0.9,0.7-1.6,1.6-1.6h1.7V27.6z
										 M271.2,22.2c-0.4,0-0.6,0.3-0.6,0.6V23c0,1,0.2,1.9,0.6,2.7c0.3,0.5,0.5,0.7,0.7,0.8v-4.3H271.2z"/>
								</g>
							</g>
							<g>
								<g>
									<g>
										<path d="M288.3,22l-1-0.2l0.3-1.8c0.3-1.6,0.2-3.1-0.3-4.4c-1.3-3.4-4.5-5.7-8.1-5.5c-3.6-0.1-6.9,2.1-8.1,5.5
											c-0.5,1.3-0.6,2.8-0.3,4.4l0.3,1.8l-1,0.2l-0.3-1.8c-0.3-1.8-0.2-3.4,0.4-4.9c1.4-3.8,5-6.3,9.1-6.2c4-0.1,7.6,2.4,9,6.2
											c0.5,1.4,0.7,3.1,0.4,4.9L288.3,22z"/>
									</g>
								</g>
								<g>
									<g>
										<path d="M285.9,27.6v-1c0.6,0,0.8-0.1,1.2-0.9c0.4-0.8,0.6-1.7,0.6-2.7v-0.1c0-0.4-0.3-0.6-0.6-0.6h-1.2v-1h1.2
											c0.9,0,1.6,0.7,1.6,1.6V23c0,1.1-0.2,2.2-0.7,3.2C287.6,27.1,287.1,27.6,285.9,27.6z"/>
									</g>
								</g>
							</g>
						</g>
					</g>
				</g>
			</g>
		</g>
	</g>
	<g>
		<g>
			<g>
				<path class="st0" d="M180.7,39.2V25c0-4.9,3.9-8.8,8.8-8.8c4.9,0,8.8,3.9,8.8,8.8v14.5L180.7,39.2z"/>
			</g>
		</g>
		<g>
			<g>
				<g>
					<path class="st0" d="M202.9,57.3v-13c0-2.3-1.5-4.3-3.7-4.9l-4.9-1.5c-1.1-0.3-1.8-1.3-1.8-2.5V34c-0.1,0.1-1.2,1.6-3.1,1.5
						c-1.7-0.1-2.7-1.3-2.8-1.5c0,0.5,0,0.9,0,1.4c0,1.1-0.7,2.1-1.8,2.5l-4.9,1.5c-2.2,0.7-3.7,2.7-3.7,4.9l0,0v13
						C176.2,57.3,202.9,57.3,202.9,57.3z"/>
				</g>
			</g>
		</g>
		<g>
			<g>
				<path class="st0" d="M184.7,37.9l1.8,2.6c1.4,2.1,4.6,2.1,6,0l1.8-2.6c-0.3-0.1-0.9-0.4-1.4-1.1c-0.9-1.2-0.5-2.6-0.4-2.8
					c-0.1,0.1-1.2,1.6-3.1,1.5c-1.7-0.1-2.7-1.3-2.8-1.5c0.1,0.2,0.4,1.4-0.3,2.6C185.7,37.5,185,37.8,184.7,37.9z"/>
			</g>
		</g>
		<g>
			<g>
				<path class="st0" d="M194.7,23.7v7.1c0,1.8-1.9,3.3-3.4,4.2c-1.1,0.7-2.4,0.7-3.5,0c-1.5-0.9-3.4-2.5-3.4-4.2v-7.1
					c0,0,2.2,1.9,5.2,0.5C192.7,22.8,194.7,23.7,194.7,23.7z"/>
			</g>
		</g>
		<g>
			<g>
				<g>
					<g>
						<path d="M198.8,39.5h-1V25c0-4.6-3.7-8.3-8.3-8.3s-8.3,3.7-8.3,8.3v14.2h-1V25c0-5.1,4.2-9.3,9.3-9.3s9.3,4.2,9.3,9.3V39.5z"
							/>
					</g>
				</g>
				<g>
					<g>
						<g>
							<path d="M176.7,57.3h-1v-13c0-2.5,1.6-4.6,4-5.4l4.9-1.5c0.9-0.3,1.5-1.1,1.5-2V34h1v1.4c0,1.4-0.9,2.6-2.2,3l-4.9,1.5
								c-2,0.6-3.3,2.4-3.3,4.4V57.3z"/>
						</g>
					</g>
					<g>
						<g>
							<path d="M203.4,57.3h-1v-13c0-2.1-1.3-3.8-3.3-4.4l-4.9-1.5c-1.3-0.4-2.2-1.6-2.2-3V34h1v1.4c0,0.9,0.6,1.7,1.5,2l4.9,1.5
								c2.4,0.7,4,2.9,4,5.4V57.3z"/>
						</g>
					</g>
				</g>
				<g>
					<g>
						<path d="M189.5,36.1c-0.7,0-1.4-0.2-2-0.6c-1.7-1-3.7-2.7-3.7-4.7v-7.1c0-0.2,0.1-0.4,0.3-0.5s0.4-0.1,0.5,0.1
							c0.1,0.1,2,1.7,4.7,0.5c3.3-1.6,5.5-0.6,5.6-0.5c0.2,0.1,0.3,0.3,0.3,0.5v7.1c0,2-2,3.6-3.7,4.7
							C190.9,35.9,190.2,36.1,189.5,36.1z M184.8,24.6v6.2c0,1.6,2,3.1,3.2,3.8c0.9,0.6,2.1,0.6,3,0c1.2-0.7,3.2-2.2,3.2-3.8V24
							c-0.6-0.2-2.2-0.4-4.5,0.6C187.6,25.7,185.8,25.2,184.8,24.6z"/>
					</g>
				</g>
				<g>
					<g>
						<path d="M189.5,42.7c-1.4,0-2.7-0.7-3.4-1.8l-1.8-2.6l0.8-0.6l1.8,2.6c0.6,0.9,1.5,1.4,2.6,1.4s2-0.5,2.6-1.4l1.8-2.6l0.8,0.6
							l-1.8,2.6C192.2,42,190.9,42.7,189.5,42.7z"/>
					</g>
				</g>
			</g>
		</g>
	</g>
	<g>
		<g>
			<g>
				<g>
					<g>
						<path class="st0" d="M130.3,57.3v-15c0.3-2.1,1.8-3.9,3.9-4.5l4.5-1.4c0.5-0.2,1-0.4,1.4-0.8l0,0c0.8-0.7,1.3-1.8,1.3-2.9V32
							h6.4v0.7c0,1.1,0.5,2.2,1.4,3l0,0c0.4,0.3,0.9,0.6,1.4,0.7l4.5,1.4c2.1,0.6,3.5,2.4,3.9,4.4v15.1
							C159,57.3,130.3,57.3,130.3,57.3z"/>
					</g>
				</g>
			</g>
			<g>
				<g>
					<path class="st0" d="M148.8,35.1c0,2.1-1.9,3.7-4.2,3.7s-4.2-1.7-4.2-3.7c0.4-0.9,0.8-1.9,1.1-2.8c0.2,0.2,1.4,1.4,3.3,1.3
						c1.5-0.1,2.5-1,2.7-1.3C148,33.2,148.4,34.1,148.8,35.1z"/>
				</g>
			</g>
			<g>
				<g>
					<g>
						<g>
							<g>
								<g>
									<g>
										<g>
											<path d="M159.5,57.3h-1V42.1c-0.3-1.8-1.7-3.4-3.5-3.9l-4.5-1.4c-0.6-0.2-1.1-0.5-1.5-0.8c-1-0.8-1.6-2-1.6-3.3V32h1v0.7
												c0,1,0.4,1.9,1.2,2.6c0.4,0.3,0.7,0.5,1.2,0.6l4.5,1.4c2.2,0.7,3.9,2.6,4.2,4.8L159.5,57.3z"/>
										</g>
									</g>
									<g>
										<g>
											<path d="M130.8,57.3h-1v-15c0.3-2.4,2-4.3,4.2-5l4.5-1.4c0.5-0.1,0.9-0.4,1.2-0.7c0.8-0.7,1.2-1.6,1.2-2.6V32h1v0.7
												c0,1.3-0.5,2.5-1.5,3.3c-0.5,0.4-1,0.7-1.6,0.9l-4.5,1.4c-1.9,0.6-3.3,2.2-3.5,4.1L130.8,57.3z"/>
										</g>
									</g>
								</g>
							</g>
						</g>
					</g>
					<g>
						<g>
							<path d="M144.6,39.3c-2.6,0-4.7-1.9-4.7-4.2h1c0,1.8,1.6,3.2,3.7,3.2c2,0,3.7-1.4,3.7-3.2h1
								C149.3,37.4,147.2,39.3,144.6,39.3z"/>
						</g>
					</g>
				</g>
			</g>
		</g>
		<g>
			<g>
				<g>
					<path class="st2" d="M137.7,21.7h-1.2c-0.6,0-1.1,0.5-1.1,1.1V23c0,1,0.2,2,0.7,2.9s0.8,1.2,1.7,1.2l0,0L137.7,21.7z"/>
				</g>
			</g>
			<g>
				<g>
					<path class="st2" d="M151.2,21.7h1.2c0.6,0,1.1,0.5,1.1,1.1V23c0,1-0.2,2-0.7,2.9s-0.8,1.2-1.7,1.2l0,0L151.2,21.7z"/>
				</g>
			</g>
			<g>
				<g>
					<path class="st0" d="M153.1,21.9l0.3-1.8c0.3-1.5,0.2-3.2-0.3-4.6c-1.3-3.5-4.7-6-8.6-5.9c-3.9-0.1-7.3,2.4-8.6,5.9
						c-0.5,1.5-0.6,3.1-0.3,4.6l0.3,1.8c0.6,0,1.2-0.1,1.8-0.1c0-0.5-0.2-3.6,1.4-4.4c0.1-0.1,0.2-0.1,0.4-0.1
						c3.2,0,6.3-0.1,9.5-0.1c0.3,0,0.6,0,0.8,0.1c1.2,0.5,1.8,2.3,1.6,4.5C151.9,21.8,152.5,21.8,153.1,21.9z"/>
				</g>
			</g>
			<g>
				<g>
					<path class="st0" d="M151.2,21.5V27c0,2.3-2.5,4.3-4.5,5.5c-1.4,0.9-3.2,0.9-4.6,0c-2-1.2-4.5-3.2-4.5-5.5v-5.5
						c0-1.5,0-4.3,2.3-4.3h8.9C151.2,17.1,151.2,19.9,151.2,21.5"/>
				</g>
			</g>
			<g>
				<g>
					<g>
						<g>
							<g>
								<g>
									<path d="M144.4,33.6c-0.9,0-1.8-0.2-2.5-0.7c-2.2-1.3-4.7-3.5-4.7-5.9v-5.5c0-1.4,0-4.8,2.8-4.8h8.9c2.8,0,2.8,3.4,2.8,4.8
										V27c0,2.5-2.6,4.6-4.7,5.9C146.2,33.4,145.3,33.6,144.4,33.6z M140,17.6c-1.5,0-1.8,1.5-1.8,3.8V27c0,2.1,2.7,4.1,4.3,5.1
										c1.2,0.8,2.8,0.8,4,0c1.6-1,4.3-3,4.3-5.1v-5.5c0-2.3-0.3-3.8-1.8-3.8L140,17.6L140,17.6z"/>
								</g>
							</g>
							<g>
								<g>
									<path d="M138.2,27.6h-0.5c-1.2,0-1.7-0.5-2.1-1.5c-0.5-0.9-0.7-2-0.7-3.2v-0.1c0-0.9,0.7-1.6,1.6-1.6h1.7V27.6z
										 M136.5,22.2c-0.4,0-0.6,0.3-0.6,0.6V23c0,1,0.2,1.9,0.6,2.7c0.3,0.5,0.5,0.7,0.7,0.8v-4.3H136.5z"/>
								</g>
							</g>
							<g>
								<g>
									<g>
										<path d="M153.6,22l-1-0.2l0.3-1.8c0.3-1.6,0.2-3.1-0.3-4.4c-1.3-3.4-4.5-5.7-8.1-5.5c-3.6-0.1-6.9,2.1-8.1,5.5
											c-0.5,1.3-0.6,2.8-0.3,4.4l0.3,1.8l-1,0.2l-0.3-1.8c-0.3-1.8-0.2-3.4,0.4-4.9c1.4-3.8,5-6.3,9.1-6.2c4-0.1,7.6,2.4,9,6.2
											c0.5,1.4,0.7,3.1,0.4,4.9L153.6,22z"/>
									</g>
								</g>
								<g>
									<g>
										<path d="M151.2,27.6v-1c0.6,0,0.8-0.1,1.2-0.9S153,24,153,23v-0.1c0-0.4-0.3-0.6-0.6-0.6h-1.2v-1h1.2
											c0.9,0,1.6,0.7,1.6,1.6V23c0,1.1-0.2,2.2-0.7,3.2C152.9,27.1,152.4,27.6,151.2,27.6z"/>
									</g>
								</g>
							</g>
						</g>
					</g>
				</g>
			</g>
		</g>
	</g>
	<rect x="1.3" y="52.6" class="st3" width="576.8" height="4.9"/>
	<rect x="7.9" y="57.9" class="st3" width="563.6" height="141.5"/>
</g>
<g id="圖層_3">
	<g>
		<g>
			<circle class="st4" cx="54.9" cy="86.4" r="9"/>
			<g>
				<line class="st5" x1="342.6" y1="79.1" x2="357.1" y2="93.6"/>
				<line class="st5" x1="349.6" y1="86.6" x2="342.6" y2="93.6"/>
				<line class="st5" x1="357.1" y1="79.1" x2="352.3" y2="83.9"/>
			</g>
			<circle class="st4" cx="234.5" cy="86.4" r="9"/>
			<circle class="st4" cx="144.7" cy="86.4" r="9"/>
			<circle class="st4" cx="99.8" cy="86.4" r="9"/>
			<circle class="st4" cx="279.4" cy="86.4" r="9"/>
			<circle class="st4" cx="189.6" cy="86.4" r="9"/>
			<g>
				<line class="st5" x1="426.4" y1="79.1" x2="440.9" y2="93.6"/>
				<line class="st5" x1="433.4" y1="86.6" x2="426.4" y2="93.6"/>
				<line class="st5" x1="440.9" y1="79.1" x2="436.1" y2="83.9"/>
			</g>
			<g>
				<line class="st5" x1="384.4" y1="79.1" x2="398.9" y2="93.6"/>
				<line class="st5" x1="391.4" y1="86.6" x2="384.4" y2="93.6"/>
				<line class="st5" x1="398.9" y1="79.1" x2="394.1" y2="83.9"/>
			</g>
		</g>
		<g>
			<g>
				<line class="st5" x1="182.3" y1="121.2" x2="196.8" y2="135.6"/>
				<line class="st5" x1="189.3" y1="128.7" x2="182.3" y2="135.6"/>
				<line class="st5" x1="196.8" y1="121.2" x2="192" y2="125.9"/>
			</g>
			<g>
				<line class="st5" x1="272.1" y1="121.2" x2="286.6" y2="135.6"/>
				<line class="st5" x1="279.1" y1="128.7" x2="272.1" y2="135.6"/>
				<line class="st5" x1="286.6" y1="121.2" x2="281.8" y2="125.9"/>
			</g>
			<g>
				<line class="st5" x1="227.2" y1="121.2" x2="241.7" y2="135.6"/>
				<line class="st5" x1="234.2" y1="128.7" x2="227.2" y2="135.6"/>
				<line class="st5" x1="241.7" y1="121.2" x2="236.9" y2="125.9"/>
			</g>
			<g>
				<line class="st5" x1="47.6" y1="121.2" x2="62.1" y2="135.6"/>
				<line class="st5" x1="54.6" y1="128.7" x2="47.6" y2="135.6"/>
				<line class="st5" x1="62.1" y1="121.2" x2="57.4" y2="125.9"/>
			</g>
			<g>
				<line class="st5" x1="137.4" y1="121.2" x2="151.9" y2="135.6"/>
				<line class="st5" x1="144.4" y1="128.7" x2="137.4" y2="135.6"/>
				<line class="st5" x1="151.9" y1="121.2" x2="147.2" y2="125.9"/>
			</g>
			<g>
				<line class="st5" x1="92.5" y1="121.2" x2="107" y2="135.6"/>
				<line class="st5" x1="99.5" y1="128.7" x2="92.5" y2="135.6"/>
				<line class="st5" x1="107" y1="121.2" x2="102.3" y2="125.9"/>
			</g>
			<circle class="st4" cx="391.6" cy="128.4" r="9"/>
			<circle class="st4" cx="433.6" cy="128.4" r="9"/>
			<circle class="st4" cx="349.8" cy="128.4" r="9"/>
		</g>
		<g>
			<circle class="st4" cx="349.8" cy="170.4" r="9"/>
			<g>
				<line class="st5" x1="426.4" y1="163.2" x2="440.9" y2="177.7"/>
				<line class="st5" x1="433.4" y1="170.7" x2="426.4" y2="177.7"/>
				<line class="st5" x1="440.9" y1="163.2" x2="436.1" y2="168"/>
			</g>
			<g>
				<line class="st5" x1="384.4" y1="163.2" x2="398.9" y2="177.7"/>
				<line class="st5" x1="391.4" y1="170.7" x2="384.4" y2="177.7"/>
				<line class="st5" x1="398.9" y1="163.2" x2="394.1" y2="168"/>
			</g>
			<circle class="st4" cx="54.9" cy="170.4" r="9"/>
			<circle class="st4" cx="234.5" cy="170.4" r="9"/>
			<circle class="st4" cx="144.7" cy="170.4" r="9"/>
			<circle class="st4" cx="99.8" cy="170.4" r="9"/>
			<circle class="st4" cx="189.6" cy="170.4" r="9"/>
			<g>
				<line class="st5" x1="272.1" y1="163.2" x2="286.6" y2="177.7"/>
				<line class="st5" x1="279.1" y1="170.7" x2="272.1" y2="177.7"/>
				<line class="st5" x1="286.6" y1="163.2" x2="281.8" y2="168"/>
			</g>
		</g>
		<g>
			<g>
				<line class="st4" x1="44.2" y1="107.4" x2="46.2" y2="107.4"/>
				<line class="st6" x1="50.2" y1="107.4" x2="527.2" y2="107.4"/>
				<line class="st4" x1="529.2" y1="107.4" x2="531.2" y2="107.4"/>
			</g>
		</g>
		<g>
			<g>
				<line class="st4" x1="44.2" y1="149.4" x2="46.2" y2="149.4"/>
				<line class="st6" x1="50.2" y1="149.4" x2="527.2" y2="149.4"/>
				<line class="st4" x1="529.2" y1="149.4" x2="531.2" y2="149.4"/>
			</g>
		</g>
	</g>
</g>
<g>
	<path d="M479.6,81.9c-0.8,0.9-1.7,1.8-2.6,2.4c-0.3-0.5-1-1.6-1.5-2.1c1.8-1.2,3.5-3.2,4.6-5.2l2.3,0.7c-0.3,0.6-0.6,1.2-1,1.8
		h13.8v2.3H479.6z M476,96.8c0.8-1,1.8-2.8,2.5-4.3l2.5,0.7c-0.6,1.5-1.6,3.5-2.4,4.7L476,96.8z M493.2,87v2.8h2.6v2.3h-19.6v-2.3h3
		V87h-2.4v-2.3h2.4v-2h2.3v2h1.5v-2h2.2v2h1.7v-2h2.2v2h1.7v-2h2.4v2h2.2V87H493.2z M481.5,89.8h1.5V87h-1.5V89.8z M484.6,93.2
		c0.3,1.3,0.5,3.1,0.5,4.1l-2.6,0.4c0-1.1-0.2-2.9-0.4-4.2L484.6,93.2z M485.2,87v2.8h1.7V87H485.2z M489.1,93
		c0.5,1.3,1.1,3,1.3,4.1l-2.6,0.5c-0.1-1.1-0.6-2.8-1.1-4.2L489.1,93z M490.8,87h-1.7v2.8h1.7V87z M493.5,92.4
		c0.9,1.3,2,3.1,2.6,4.3l-2.6,1.1c-0.4-1.1-1.5-3.1-2.4-4.5L493.5,92.4z"/>
	<path d="M504.4,84.3h2.5v6.1c0,3.5-1,6-6,7.5c-0.3-0.6-1.1-1.4-1.6-1.9c1.9-0.5,3.2-1.2,3.9-2c-1.8,0.2-3.6,0.4-5.1,0.6l-0.2-2.3
		c1.7-0.1,4-0.3,6.4-0.5c0.1-0.4,0.1-0.7,0.1-1.1h-5.1v-2.1h5.1v-1h-5.6v-2.2h5.6V84.3z M517.1,83.8h-18V78h18V83.8z M504.2,80.1
		h-2.6v1.7h2.6V80.1z M509.3,80.1h-2.7v1.7h2.7V80.1z M518,94.4h-6.3v3.3H509V84.3h2.7v1.1h5.9v2.2h-5.9v1h5.3v2.2h-5.3v1.3h6.3
		V94.4z M514.5,80.1h-2.8v1.7h2.8V80.1z"/>
	<path d="M479.6,122.9c-0.8,0.9-1.7,1.8-2.6,2.4c-0.3-0.5-1-1.6-1.5-2.1c1.8-1.2,3.5-3.2,4.6-5.2l2.3,0.7c-0.3,0.6-0.6,1.2-1,1.8
		h13.8v2.3H479.6z M476,137.8c0.8-1,1.8-2.8,2.5-4.3l2.5,0.7c-0.6,1.5-1.6,3.5-2.4,4.7L476,137.8z M493.2,128v2.8h2.6v2.3h-19.6
		v-2.3h3V128h-2.4v-2.3h2.4v-2h2.3v2h1.5v-2h2.2v2h1.7v-2h2.2v2h1.7v-2h2.4v2h2.2v2.3H493.2z M481.5,130.8h1.5V128h-1.5V130.8z
		 M484.6,134.2c0.3,1.3,0.5,3.1,0.5,4.1l-2.6,0.4c0-1.1-0.2-2.9-0.4-4.2L484.6,134.2z M485.2,128v2.8h1.7V128H485.2z M489.1,134
		c0.5,1.3,1.1,3,1.3,4.1l-2.6,0.5c-0.1-1.1-0.6-2.8-1.1-4.2L489.1,134z M490.8,128h-1.7v2.8h1.7V128z M493.5,133.4
		c0.9,1.3,2,3.1,2.6,4.3l-2.6,1.1c-0.4-1.1-1.5-3.1-2.4-4.5L493.5,133.4z"/>
	<path d="M504.4,125.3h2.5v6.1c0,3.5-1,6-6,7.5c-0.3-0.6-1.1-1.4-1.6-1.9c1.9-0.5,3.2-1.2,3.9-2c-1.8,0.2-3.6,0.4-5.1,0.6l-0.2-2.3
		c1.7-0.1,4-0.3,6.4-0.5c0.1-0.4,0.1-0.7,0.1-1.1h-5.1v-2.1h5.1v-1h-5.6v-2.2h5.6V125.3z M517.1,124.8h-18V119h18V124.8z
		 M504.2,121.1h-2.6v1.7h2.6V121.1z M509.3,121.1h-2.7v1.7h2.7V121.1z M518,135.4h-6.3v3.3H509v-13.5h2.7v1.1h5.9v2.2h-5.9v1h5.3
		v2.2h-5.3v1.3h6.3V135.4z M514.5,121.1h-2.8v1.7h2.8V121.1z"/>
	<path d="M484,164.3c-0.2,0.6-0.6,1.2-0.9,1.7h10.2v10.9c0,1.3-0.2,2-1.1,2.4c-0.9,0.4-2.1,0.4-3.9,0.4c-0.1-0.7-0.5-1.8-0.8-2.5
		c1.1,0.1,2.4,0.1,2.8,0.1c0.4,0,0.5-0.1,0.5-0.4v-1.3h-8.3c-0.4,1.7-1.1,3.3-2.4,4.4c-0.4-0.5-1.3-1.7-1.9-2c1.9-1.7,2-4,2-6.1
		v-1.8c-0.8,0.9-1.7,1.7-2.7,2.4c-0.4-0.6-1.2-1.5-1.7-2c2.2-1.5,4-3.7,5.3-6.1h-4.8v-2.5h5.9c0.4-0.9,0.6-1.8,0.9-2.7l2.7,0.6
		c-0.2,0.7-0.5,1.4-0.7,2h10.7v2.5H484z M490.8,173.4V172h-7.9c0,0.5,0,0.9,0,1.4H490.8z M490.8,168.4h-7.9v1.4h7.9V168.4z"/>
	<path d="M504.4,166.3h2.5v6.1c0,3.5-1,6-6,7.5c-0.3-0.6-1.1-1.4-1.6-1.9c1.9-0.5,3.2-1.2,3.9-2c-1.8,0.2-3.6,0.4-5.1,0.6l-0.2-2.3
		c1.7-0.1,4-0.3,6.4-0.5c0.1-0.4,0.1-0.7,0.1-1.1h-5.1v-2.1h5.1v-1h-5.6v-2.2h5.6V166.3z M517.1,165.8h-18V160h18V165.8z
		 M504.2,162.1h-2.6v1.7h2.6V162.1z M509.3,162.1h-2.7v1.7h2.7V162.1z M518,176.4h-6.3v3.3H509v-13.5h2.7v1.1h5.9v2.2h-5.9v1h5.3
		v2.2h-5.3v1.3h6.3V176.4z M514.5,162.1h-2.8v1.7h2.8V162.1z"/>
</g>
</svg>
