<?xml version="1.0" encoding="utf-8"?>
<!-- Generator: Adobe Illustrator 24.0.1, SVG Export Plug-In . SVG Version: 6.00 Build 0)  -->
<svg version="1.1" id="分離模式" xmlns="http://www.w3.org/2000/svg" xmlns:xlink="http://www.w3.org/1999/xlink" x="0px"
	 y="0px" viewBox="0 0 41.9 41.5" style="enable-background:new 0 0 41.9 41.5;" xml:space="preserve">
<g>
	<g>
		<g>
			<g>
				<path d="M39.8,35.9L22.1,18.4l2.6-2.7l1,1l2.9-3c0.3-0.2,0.4-0.6,0.4-0.9c0-0.2,0-0.4-0.1-0.6c0-0.2,0-0.3-0.2-0.4L18.4,1.6
					c-0.2-0.3-0.6-0.4-0.9-0.4c-0.4,0-0.7,0.2-0.9,0.4l-2.9,3l1,1l-9.2,9.6l-1-1l-2.9,3c-0.5,0.6-0.5,1.4,0,1.9l10.3,10
					c0.6,0.5,1.4,0.5,1.9,0l2.9-3L15.6,25l2.6-2.7l17.7,17.5c1.1,1.1,2.8,1.1,3.9,0c0.6-0.5,0.8-1.2,0.8-2c0-0.4-0.1-0.8-0.4-1.2
					C40.2,36.4,40,36.1,39.8,35.9z M15.4,4.6l2-2.1l10.4,10.2l-2,2.1L15.4,4.6z M15.4,6.7l8,7.7l0.4,0.4l-2.6,2.7l0,0l-1.8,1.9
					l-4.7,4.8l-8.4-8.1L15.4,6.7z M14.8,26.2l-2,2.1L2.4,18.1l-0.5,0.5l2.4-2.5L14.8,26.2z M39.3,37.9c0,0.4-0.1,0.8-0.4,1
					c-0.5,0.6-1.4,0.6-2,0L19.2,21.5l2-2.1l17.7,17.5C39.1,37.2,39.3,37.5,39.3,37.9z"/>
			</g>
		</g>
	</g>
</g>
</svg>
