<?xml version="1.0" encoding="utf-8"?>
<!-- Generator: Adobe Illustrator 24.0.1, SVG Export Plug-In . SVG Version: 6.00 Build 0)  -->
<svg version="1.1" id="圖層_1" xmlns="http://www.w3.org/2000/svg" xmlns:xlink="http://www.w3.org/1999/xlink" x="0px" y="0px"
	 viewBox="0 0 163.7 170.6" style="enable-background:new 0 0 163.7 170.6;" xml:space="preserve">
<style type="text/css">
	.st0{fill:#FFFFFF;}
</style>
<g>
	<path class="st0" d="M139.7,118.1l-23.1-6.9c-1.3-0.4-2.6-0.9-3.8-1.5l-0.1-0.3l-0.4,0.1c-1.7-1-3.3-2.2-4.7-3.6
		c-3.6-3.6-5.6-8.2-5.9-13.2c6.7-6.7,11.4-16.4,12-25.3c3.3-0.4,5.6-1.7,7.3-6c0,0,0,0,0,0h13.9V55h6.5l-0.4-2.5
		c-0.2-1.2-4.1-28.4-15.2-39.7c-6.6-6.8-14.4-5.5-18.8-3.3c-6.3-7.6-15.4-8.9-24.7-8.9c-0.2,0-0.4,0-0.7,0
		c-10.5,0-18.9,1.8-24.8,8.9C52.5,7.2,44.7,6,38.2,12.7c-11,11.4-15,38.6-15.2,39.7L22.7,55h6.5v6.3H43c0,0,0,0,0,0
		c1.7,4.3,4,5.7,7.3,6c0.6,8.8,5.2,18.3,11.7,25v0.4c0,5.5-2.4,10.6-6.6,14.2c-2,1.8-4.4,3-7,3.8L24,118.1
		c-13.8,4.1-23,16.3-23.1,30.5v21.6h4.5v-21.3c0-12.3,8-22.9,19.9-26.4l22.8-6.8l-0.1,0.2c0.8,0.2,1.8,0.4,2.7,0.7
		c17.1,3.9,35.8,3.6,54-0.6l7-1.7c1.1,0.5,2.3,1,3.5,1.3l23.1,6.9c11.9,3.6,19.9,14.2,19.9,26.4v21.3h4.5v-21.3
		C162.8,134.6,153.5,122.2,139.7,118.1z M122.6,15.8c8.2,8.4,12.3,27.8,13.5,34.7h-5.7v6.3h-7.9c0.7-3.1,1-6.5,0.9-10.1
		c-0.1-4.1-3.4-7.3-7.4-7.3l-0.9,0.1c0-0.9,0-1.6,0-2.5c0-0.8,0-1.7,0.1-3c0.1-4.5-0.8-8.3-2.3-13.2c-0.9-3-2-5.6-3.3-7.8
		C112.4,12,117.7,10.8,122.6,15.8z M81.7,5c0.2,0,0.4,0,0.6,0c13,0,22,2.9,26.2,17.2c1.4,4.6,2.1,7.9,2.1,11.9c0,1.3,0,2.2-0.1,3
		c0,1.1-0.1,2,0,3.2c-2.4,0.2-4.4,1.3-5.8,2.3c-2.2-2.8-5.6-4.6-9.4-4.6c-3.7,0-7,1.7-9.2,4.3c-1.2-1-2.7-1.6-4.4-1.6
		c-1.7,0-3.3,0.6-4.5,1.7c-2.2-2.6-5.5-4.3-9.2-4.3c-4,0-7.5,2-9.7,5c-1.3-0.7-3-1.4-4.9-2.1c0-1.6,0-2.5,0-3.8l-0.1-3
		c0-4,0.7-7.3,2.1-11.9C59.7,7.9,68.3,5,81.7,5z M88.5,47.1c1-2.7,3.7-4.7,6.9-4.7c4,0,7.3,3.2,7.3,7.2c0,4-3.3,7.2-7.3,7.2
		S88,53.6,88,49.6C88,48.8,88.2,48,88.5,47.1L88.5,47.1C88.5,47.2,88.5,47.1,88.5,47.1z M75.4,49.6c0,4-3.3,7.2-7.3,7.2
		c-4,0-7.3-3.2-7.3-7.2c0-4,3.3-7.2,7.3-7.2C72.2,42.4,75.4,45.7,75.4,49.6z M40.7,46.8c-0.1,3.6,0.2,7,0.9,10.1h-7.9v-6.3h-5.7
		c1.2-6.9,5.3-26.3,13.5-34.7c4.9-5,10.2-3.8,12.9-2.6c-1.2,2.2-2.3,4.8-3.2,7.8c-1.5,4.9-2.3,8.7-2.3,13.2c0,1.3,0,2.2,0.1,3
		c0,0.9,0,1.6,0,2.5l-0.9-0.1C44.1,39.5,40.8,42.7,40.7,46.8z M54.8,65.2V63h-2.3c-3.2,0-4.1-0.3-5.3-3.3c-1.5-3.6-2.1-7.9-2-12.8
		c0-1.6,1.2-2.8,2.7-2.9l2.8,0.7c2.4,0.6,4.5,1.6,5.9,2.4c-0.2,0.8-0.3,1.7-0.3,2.6c0,6.4,5.3,11.7,11.9,11.7
		c6.5,0,11.9-5.2,11.9-11.7c0-0.9-0.1-1.8-0.3-2.6c0.1-1.1,1-1.9,2.1-1.9c1,0,1.8,0.7,2.1,1.6c-0.3,1-0.4,1.9-0.4,3
		c0,6.4,5.3,11.7,11.9,11.7c6.5,0,11.9-5.2,11.9-11.7c0-1-0.1-2-0.4-2.9c0.8-0.7,2.2-1.7,3.9-1.9l0,0.5l5.5-1.3
		c1.5,0.1,2.6,1.4,2.7,2.9c0.1,4.9-0.5,9.2-2,12.8c-1.2,3-2.1,3.3-5.3,3.3h-2.3v2.2c0,10.7-6.9,23-16.2,28.7
		c-6.4,3.9-15.7,3.9-22.2,0C61.7,88.2,54.8,75.9,54.8,65.2z M103.7,111.5c-16.4,3.8-33.1,4.3-48.7,1.3c1.2-0.7,2.3-1.5,3.4-2.4
		c4.3-3.7,7.1-8.7,7.9-14.2c0.7,0.5,1.5,1.1,2.2,1.5c3.9,2.4,8.7,3.7,13.5,3.7c4.8,0,9.6-1.3,13.5-3.7c0.7-0.4,1.4-0.9,2.1-1.4
		c0.9,4.8,3.3,9.2,6.8,12.7c0.6,0.7,1.3,1.3,2,1.8L103.7,111.5z M71.2,79.7H72l3.4-2.5c0.6,0.1,1.4,0.6,2.1,1
		c1.3,0.7,2.8,1.5,4.5,1.5c0,0,0.1,0,0.2,0c1.7,0,3.2-0.8,4.6-1.5c0.9-0.4,1.9-0.9,2.7-1l2.6,2.5h0.9c2.3,0,4.4-1.1,5.6-3
		c1-1.5,1.2-3.3,0.8-5c-0.4-1.7-1.5-3.2-3.1-4l-0.4-0.2c-4.2-2.4-9-3.7-13.9-3.7h-0.2c-4.9,0-9.7,1.3-13.9,3.7
		c-1.6,0.9-2.8,2.5-3.2,4.3c-0.4,1.8,0,3.7,1.1,5.2C67,78.7,69.1,79.7,71.2,79.7z M69.1,72.7c0.1-0.6,0.5-1.1,1-1.4
		c3.5-2,7.5-3.1,11.6-3.1h0.2c4.1,0,8.1,1.1,11.6,3.1l0.4,0.2c0.5,0.3,0.8,0.7,0.9,1.3c0.1,0.5,0,1.1-0.3,1.5
		c-0.2,0.4-0.6,0.6-1,0.8l-2.2-2.1l-0.7-0.1c-2.3-0.4-4.3,0.5-6.1,1.4c-1,0.5-2.1,1-2.8,1c-0.5,0.2-1.5-0.5-2.3-1
		c-1.3-0.7-2.8-1.6-4.5-1.6c-0.3,0-0.7,0-1,0.1l-3.6,2.3c-0.5-0.1-0.9-0.4-1.1-0.8C69.1,73.9,69,73.3,69.1,72.7z"/>
</g>
</svg>
