<?xml version="1.0" encoding="utf-8"?>
<!-- Generator: Adobe Illustrator 24.0.1, SVG Export Plug-In . SVG Version: 6.00 Build 0)  -->
<svg version="1.1" id="分離模式" xmlns="http://www.w3.org/2000/svg" xmlns:xlink="http://www.w3.org/1999/xlink" x="0px"
	 y="0px" viewBox="0 0 46.3 14.4" style="enable-background:new 0 0 46.3 14.4;" xml:space="preserve">
<path d="M45.6,10.9c0,0.2,0.1,0.4,0.1,0.6v-1.1C45.7,10.6,45.6,10.8,45.6,10.9z M0.6,11.5c0-0.2,0-0.4,0.1-0.6
	c0-0.2-0.1-0.4-0.1-0.6V11.5z M42.7,8.5h-5.5c0.3-0.3,0.5-0.8,0.5-1.2V3c0-1.1-0.9-2-2-2h-25c-1.1,0-2,0.9-2,2v4.3
	c0,0.5,0.2,0.9,0.5,1.2H3.6c-1.5,0-2.7,1.1-2.9,2.4c0.3,1.4,1.5,2.4,2.9,2.4h39.1c1.5,0,2.7-1.1,2.9-2.4C45.3,9.6,44.1,8.5,42.7,8.5
	z"/>
</svg>
