<?xml version="1.0" encoding="utf-8"?>
<!-- Generator: Adobe Illustrator 24.0.1, SVG Export Plug-In . SVG Version: 6.00 Build 0)  -->
<svg version="1.1" id="圖層_1" xmlns="http://www.w3.org/2000/svg" xmlns:xlink="http://www.w3.org/1999/xlink" x="0px" y="0px"
	 viewBox="0 0 26.2 38.6" style="enable-background:new 0 0 26.2 38.6;" xml:space="preserve">
<style type="text/css">
	.st0{fill:#FFFFFF;}
</style>
<g>
	<path class="st0" d="M17.7,11.2c0-2.8-2.4-4-5.7-4c-2.9,0-5.2,1.3-7.2,3.6L0,6.3C3.1,2.5,7.8,0,13.1,0c7.4,0,13.1,3.3,13.1,10.4
		c0,7.2-10.4,7.7-9.9,14.3H8.5C7.7,17.1,17.7,15.6,17.7,11.2z M12.4,27.6c3.5,0,5.9,2.2,5.9,5.5s-2.5,5.5-5.9,5.5s-5.9-2.3-5.9-5.5
		S9,27.6,12.4,27.6z"/>
</g>
</svg>
