<?xml version="1.0" encoding="utf-8"?>
<!-- Generator: Adobe Illustrator 24.0.1, SVG Export Plug-In . SVG Version: 6.00 Build 0)  -->
<svg version="1.1" id="圖層_1" xmlns="http://www.w3.org/2000/svg" xmlns:xlink="http://www.w3.org/1999/xlink" x="0px" y="0px"
	 viewBox="0 0 315.8 26.1" style="enable-background:new 0 0 315.8 26.1;" xml:space="preserve">
<style type="text/css">
	.st0{fill:#0062C6;}
</style>
<g>
	<path class="st0" d="M6.3,9.9c-0.9,1-1.9,1.9-3,2.6l-0.3-0.2C4.9,9.6,6.7,5.4,7.8,1.4l4,1.4c-0.1,0.3-0.4,0.5-1,0.5
		c-0.6,1.2-1.2,2.3-1.8,3.3L10,7C10,7.2,9.7,7.4,9.3,7.4v8.1c0,0.2-1.2,0.8-2.4,0.8l-0.6,0V9.9z M7.1,16.6c1.2,3.1,0.3,5.3-0.9,6.1
		c-0.8,0.5-2,0.4-2.3-0.5c-0.2-0.8,0.2-1.5,1-1.9c1-0.6,2-2,1.9-3.6L7.1,16.6z M20.9,21.5c0.9,0.3,1.1,0.6,1.1,1.1
		c0,1.3-1.2,1.6-6.2,1.6h-3.2c-2.9,0-3.5-0.5-3.5-2.4V16l3.7,0.3c0,0.4-0.3,0.6-0.8,0.7v4.4c0,0.4,0.1,0.5,1.1,0.5h3
		c1.1,0,2.1,0,2.5,0c0.4,0,0.6-0.1,0.8-0.3c0.3-0.4,0.7-1.4,1.2-2.8h0.2L20.9,21.5z M10.2,9.9c1.3-2.1,2.5-5.4,3.1-8.6l3.9,1.2
		c-0.1,0.3-0.4,0.5-1,0.5c-0.3,0.5-0.5,1-0.7,1.5h7L24,3l2.7,2.5c-0.2,0.2-0.5,0.3-1,0.3c-0.9,0.8-2.5,1.9-3.7,2.4l-0.2-0.2
		c0.3-0.8,0.6-2,0.8-2.9H15c-1.3,2.1-2.8,3.7-4.5,4.9L10.2,9.9z M17,9.4c-0.1,0.3-0.4,0.5-1,0.5c-1.4,2.4-3.2,4.1-5.3,5l-0.3-0.2
		c1.3-1.5,2.4-3.9,3.1-6.5L17,9.4z M13.9,15.1c6.3,1.9,3.6,6.4,1.4,4.3c-0.1-1.4-0.9-3.1-1.6-4.2L13.9,15.1z M19.9,15.5
		c0,0.2-1.2,0.6-2.2,0.6h-0.5V6.5l3.7,0.4c0,0.4-0.2,0.6-0.9,0.7V15.5z M21.3,16.2c7.3,2.3,4.6,7.9,2,5.6c0-1.9-1.1-4-2.2-5.5
		L21.3,16.2z M21.3,8.7c7.4,2.2,5,7.6,2.3,5.6c-0.3-1.8-1.5-4-2.6-5.4L21.3,8.7z"/>
	<path class="st0" d="M53.4,21.5c0.9,1.4,1,2.1,0.6,2.5c-1.1,1.1-3.1,0.2-4.2-0.8c-1.2-1-2.2-2.1-3.1-3.4c-2,1.7-4.4,3.2-7.3,4.2
		l-0.2-0.3c2.6-1.5,4.8-3.5,6.5-5.7c-1.1-2.3-1.7-4.9-2-7.8h-4.6v3.6c1.4-0.2,2.9-0.5,4.4-0.8l0,0.3c-1.2,0.6-2.7,1.2-4.5,2v5.9
		c0,2-0.5,3.4-3.9,3.7c-0.1-0.9-0.2-1.7-0.6-2.1c-0.4-0.5-1-0.8-2.4-1v-0.3c0,0,2.8,0.2,3.4,0.2c0.4,0,0.6-0.2,0.6-0.5v-4.6
		c-1.1,0.5-2.3,0.9-3.7,1.4c-0.2,0.3-0.4,0.5-0.7,0.6l-1.3-3.4c1.1-0.1,3.2-0.5,5.7-0.9v-4.1h-5.5l-0.2-0.7h5.7V5.6
		c-1.8,0.3-3.7,0.6-5.5,0.7L30.7,6c3.4-1.1,7.5-3,9.5-4.4l3.2,2.7c-0.3,0.3-0.8,0.3-1.6,0C41,4.6,40.1,4.8,39.2,5v4.5h4.5
		c-0.2-2.4-0.3-5-0.3-7.7l3.8,0.4c0,0.3-0.2,0.6-0.9,0.7c0,2.3,0,4.6,0.2,6.7h3.2l1.6-1.9c0,0,1.8,1.3,2.9,2.2
		c-0.1,0.3-0.4,0.4-0.7,0.4h-6.9c0.2,1.8,0.6,3.5,1.1,5c0.8-1.4,1.5-2.9,2-4.3l3.6,1.6c-0.1,0.3-0.4,0.5-1,0.4
		c-0.8,1.6-1.9,3.3-3.3,4.9c0.7,1.1,1.5,2,2.5,2.7c0.4,0.4,0.6,0.3,0.8-0.1c0.4-0.7,1.1-2,1.5-3.1l0.2,0.1L53.4,21.5z M47.8,2.8
		C54.4,4,52,8.8,49.6,7c-0.1-1.4-1.1-3.1-2-4L47.8,2.8z"/>
	<path class="st0" d="M82,4.7C81.8,5,81.4,5,80.8,5.1c-1,1.7-2.5,4.4-3.9,6.1c3,1.8,4.3,4.4,4.3,6.5c0,2.5-1.1,4.1-4.1,4.1
		c0-0.8-0.1-2-0.3-2.3c-0.2-0.3-0.7-0.5-1.3-0.6v-0.4h1.8c0.2,0,0.4,0,0.6-0.1c0.4-0.2,0.6-0.7,0.6-1.5c0-1.8-0.6-3.8-2.2-5.6
		c0.5-1.7,1.2-4.8,1.5-6.9H75v19.7c0,0.2-0.9,0.9-2.3,0.9h-0.5V10.3c-0.1,0.2-0.3,0.3-0.7,0.3h-4.7c-0.8,0.9-1.7,1.8-2.7,2.7h2.6
		l1.3-1.4l2.7,2c-0.1,0.2-0.5,0.4-1,0.5v9.3c0,0.2-1.4,0.7-2.3,0.7H67v-2.1h-3.8v1.6c0,0.2-0.9,0.8-2.2,0.8h-0.5V16
		c-0.9,0.5-1.7,1-2.7,1.5l-0.2-0.3c1-0.7,2-1.5,2.9-2.3v-2.7l2,0.7c0.7-0.8,1.3-1.5,1.9-2.3h-6.4l-0.2-0.7h4.3V6.2h-3.4l-0.2-0.7
		h3.6V1.6l3.7,0.3c-0.1,0.4-0.3,0.6-0.9,0.7v2.9h0.5l1.2-1.8c0,0,0.7,0.6,1.3,1.2c0.5-0.9,0.8-1.8,1.2-2.7l3.1,1.5V2.1l3.1,1.5h2.2
		l1.5-1.5L82,4.7z M63.4,14l-0.1,0.1v3.4H67V14H63.4z M67,21.6v-3.5h-3.8v3.5H67z M65,6.2v3.7c0.9-1.2,1.7-2.5,2.3-3.7H65z
		 M69.9,8.1c0,0,1.5,1.2,2.4,2.1V4c-0.2,0.2-0.4,0.3-0.9,0.2c-1,1.9-2.3,3.9-3.8,5.8h1.1L69.9,8.1z"/>
	<path class="st0" d="M105.7,3.5c0,0,2,1.5,3.1,2.5c-0.1,0.3-0.4,0.4-0.7,0.4h-12c-0.6,1.1-1.2,2.1-2,3.2L95,9.8h6.9l1.4-1.6l3,2.3
		c-0.2,0.2-0.6,0.5-1.1,0.6v10.2c0,2-0.5,3.1-3.9,3.5c-0.1-1-0.2-1.7-0.6-2.1c-0.4-0.5-1-0.8-2.2-1v-0.3c0,0,2.7,0.2,3.2,0.2
		c0.4,0,0.6-0.2,0.6-0.5v-2.9h-7.9c-0.4,2.4-1.6,4.9-4.6,6.7l-0.2-0.2c1.9-2.8,2-6.5,2-9.8v-2.2c-1.6,1.5-3.4,2.9-5.5,3.9l-0.2-0.2
		C89,13.7,91.4,10,93,6.4h-6.6l-0.2-0.7h7.1c0.6-1.5,1.1-3,1.4-4.4l4.1,1.2c-0.1,0.3-0.3,0.5-1,0.5c-0.4,0.9-0.8,1.8-1.2,2.7h7.4
		L105.7,3.5z M102.2,17.4v-3.1h-7.7v0.5c0,0.8,0,1.7-0.1,2.6H102.2z M94.5,10.5v3.1h7.7v-3.1H94.5z"/>
	<path class="st0" d="M123.9,17.3c-1.6,1.2-4.5,3.4-8.2,5.7c-0.3,0.4-0.6,0.6-0.8,0.8l-1.6-3.5c0.8-0.5,1-0.7,1-1.2V9.3l3.2,1.5h2.5
		v-6h-6.3L113.3,4h6.3l1.3-1.4l2.7,2.1c-0.1,0.2-0.5,0.4-1,0.5v6.9c0,0.2-1.4,0.8-2.4,0.8h-0.5v-1.5H117v7.9c2-0.6,4.4-1.4,6.8-2.3
		L123.9,17.3z M134.7,8.3c-0.6,3.9-1.8,7.2-4,10c1.6,1.5,3.6,2.6,6.1,3.3l-0.1,0.3c-1.4,0.4-2.2,1.2-2.5,2.7
		c-2.3-1.1-3.9-2.6-5.2-4.5c-2.4,2.1-5.5,3.7-9.7,4.8l-0.2-0.3c4-1.7,6.8-3.9,8.8-6.5c-1-2.1-1.6-4.5-2-7.2
		c-1.1,1.7-2.4,3.1-3.9,4.2l-0.3-0.2c2.1-3.3,4-8.3,4.7-13.5l4.2,1c-0.1,0.3-0.4,0.6-1,0.6c-0.5,1.7-1.1,3.2-1.8,4.7h4.9l1.6-2.1
		c0,0,1.8,1.4,2.8,2.4c-0.1,0.3-0.4,0.4-0.7,0.4H134.7z M127.4,8.3c-0.4,0.7-0.7,1.3-1.1,2c0.6,2.4,1.5,4.4,2.7,6.1
		c1.4-2.4,2.1-5.1,2.5-8.1H127.4z"/>
	<path class="st0" d="M143.1,11.3c1.7,5.6-3.7,4.6-1.9,2.3c0.8-0.3,1.4-1.2,1.5-2.3L143.1,11.3z M159.1,17.1c-1.1,1.6-2.6,2.9-4.4,4
		c2.6,0.7,5.8,1.1,9.7,1.1l0,0.3c-1,0.4-1.6,1.1-1.8,2.3c-4.5-0.4-7.7-1.3-10.1-2.6c-3.2,1.4-7.1,2.3-11.4,2.8l-0.1-0.4
		c3.8-0.8,7.3-1.9,10-3.4c-1.2-0.9-2.1-1.9-3-3.1c-1.8,1.4-4,2.5-6.2,3.1l-0.2-0.3c2.5-1.5,4.9-4.1,6.2-6.7c-0.2,0-0.4-0.2-0.6-0.4
		c0-1-0.4-2.3-0.8-3.1l0.3-0.1c2.4,1.2,2.5,2.8,1.9,3.4l0.8,0.3V8.9l2.4,1h1.7l0.9-0.9l1.8,1.4c-0.1,0.1-0.3,0.2-0.6,0.3v3.1
		c0,0.2-1,0.6-1.7,0.6h-0.3v-0.9h-2.2v0.5c0,0.1-0.5,0.5-1.4,0.6l1.8,0.6c-0.1,0.2-0.3,0.4-1,0.3c-0.3,0.4-0.6,0.7-1,1h9l1.5-1.9
		c0,0,1.7,1.3,2.8,2.2c-0.1,0.3-0.4,0.4-0.7,0.4H159.1z M141.2,9.3c0,0,0.4-0.1,0.6-0.2c0.9-0.5,2-1.5,3-2.5c-0.6,0.2-1.3,0.5-2,0.7
		c-0.1,0.2-0.3,0.3-0.4,0.4l-1-2.2c0,0,0.4-0.1,0.6-0.2c1.1-0.7,2.5-2.9,2.9-4.1l2.8,1.6c-0.1,0.2-0.4,0.4-0.9,0.3
		c-0.9,0.8-2.2,1.8-3.5,2.6c0.7,0,1.6,0,2.4-0.1c0.5-0.6,0.9-1.2,1.2-1.7l2.4,1.8c-0.2,0.2-0.5,0.4-1,0.2c-0.5,0.4-1.1,0.9-1.7,1.4
		c4.1,1.8,2,4.8,0.6,3.3c0-0.3-0.1-0.6-0.1-0.9c-1.1,0.4-2.8,0.9-4.5,1.4c-0.1,0.2-0.3,0.3-0.4,0.4L141.2,9.3z M146.3,7.4
		c-0.9,0.6-1.9,1.3-2.8,1.8c1,0,2.2-0.1,3.5-0.1C146.7,8.5,146.5,7.9,146.3,7.4z M144.5,11c3.4,2.5,1.1,5.1-0.2,3.5
		c0.2-1.1,0.1-2.5-0.1-3.4L144.5,11z M148.5,4.7L148.3,4h5.9l1-1.2c0,0,1.1,0.9,1.8,1.5c-0.1,0.3-0.3,0.4-0.6,0.4H148.5z
		 M149.1,17.1c-0.2,0.2-0.5,0.4-0.7,0.6c1.1,1.1,2.4,1.9,4,2.6c1.3-0.9,2.4-2,3.2-3.2H149.1z M154.3,4.9c0,0,1,0.8,1.6,1.4
		c-0.1,0.3-0.3,0.4-0.6,0.4h-5.8L149.3,6h4.2L154.3,4.9z M154.3,6.9c0,0,1,0.8,1.6,1.4c-0.1,0.3-0.3,0.4-0.6,0.4h-5.8l-0.2-0.7h4.2
		L154.3,6.9z M150.7,1.2c4.6,0.4,2.7,3.8,0.9,2.4c-0.1-0.8-0.6-1.8-1.1-2.3L150.7,1.2z M151.4,10.6v2.2h2.2v-2.2H151.4z M157.5,11.2
		c1.8,5.1-3.3,4.1-1.5,1.8c0.6-0.3,1-1,1.1-1.8H157.5z M155.9,5.6c0,0,0.4-0.1,0.5-0.2c1.2-0.8,2.6-3,3.1-4.1l2.7,1.5
		c-0.1,0.2-0.4,0.4-0.9,0.3c-0.9,0.9-2.3,1.9-3.6,2.6c0.8,0,1.6,0,2.5-0.1c0.6-0.7,1.1-1.4,1.4-1.9l2.4,1.8c-0.1,0.2-0.5,0.4-1,0.2
		c-0.5,0.5-1.2,1.1-2,1.6c4.2,1.7,2.5,4.6,1,3.3c0-0.3-0.1-0.6-0.2-0.9c-1.2,0.4-2.9,0.9-4.6,1.3c-0.1,0.1-0.3,0.2-0.4,0.3l-0.9-2.1
		c0,0,0.4-0.1,0.6-0.2c0.9-0.5,1.9-1.4,2.8-2.4c-0.7,0.3-1.4,0.5-2.1,0.7c-0.1,0.2-0.3,0.3-0.4,0.3L155.9,5.6z M160.8,7.5
		c-0.9,0.6-1.8,1.2-2.7,1.7c1,0,2.3-0.1,3.5-0.1C161.4,8.5,161.1,7.9,160.8,7.5z M159,10.8c3.5,2.2,1.3,4.8,0,3.3
		c0.2-1.1-0.1-2.4-0.4-3.2L159,10.8z M161.1,10.6c4,1.7,2.2,4.6,0.8,3.2c-0.1-1-0.6-2.3-1.1-3.1L161.1,10.6z"/>
	<path class="st0" d="M182.2,5.2c0,0,1.8,1.4,3,2.4c-0.1,0.3-0.4,0.4-0.7,0.4h-15.5l-0.2-0.7h11.8L182.2,5.2z M190.7,3.8
		c-0.2,0.2-0.5,0.5-1.1,0.6v16.9c0,2.1-0.5,3.3-4.3,3.6c-0.1-1-0.3-1.7-0.9-2.1c-0.6-0.5-1.3-0.8-3-1.1v-0.4c0,0,3.8,0.2,4.5,0.2
		c0.5,0,0.7-0.2,0.7-0.6V3.9h-16.9l-0.2-0.7h16.9l1.4-1.6L190.7,3.8z M182,19.6c0,0.2-1.4,0.8-2.4,0.8h-0.5v-2h-5.4v2.2
		c0,0.3-1.2,0.9-2.4,0.9h-0.4V10l2.9,1.2h5l1.4-1.5l2.8,2.1c-0.2,0.2-0.5,0.4-1,0.5V19.6z M179.1,17.7v-5.8h-5.4v5.8H179.1z"/>
	<path class="st0" d="M195.9,7.4c6.7,0.4,4.6,5.3,2,3.7c-0.3-1.3-1.4-2.7-2.2-3.5L195.9,7.4z M204.1,4.9c-1.1,3.3-3,9.5-3.3,10.9
		c-0.2,0.9-0.4,1.8-0.4,2.5c0,1.4,1.1,2.3,1,4.5c0,1.3-0.9,2.1-2.1,2.1c-0.6,0-1.2-0.4-1.4-1.3c0.5-2.6,0.4-5-0.3-5.4
		c-0.4-0.3-0.8-0.4-1.3-0.4v-0.5h1.2c0.4,0,0.5,0,0.8-0.5c0.6-1,0.6-1,5.5-12L204.1,4.9z M198,1.7c7,0.6,4.8,5.7,2.1,4
		c-0.4-1.4-1.4-2.8-2.3-3.8L198,1.7z M216.7,10.5c0,0,1.9,1.5,3,2.5c-0.1,0.3-0.3,0.4-0.7,0.4h-9.5l3.3,1.5
		c-0.1,0.2-0.4,0.4-0.9,0.4c-1.5,1.8-4.2,4.2-6.6,5.7c2.4-0.1,6-0.3,9.7-0.6c-0.7-1.4-1.5-2.8-2.3-3.9l0.2-0.2
		c8.9,3.5,6.5,10.1,3.3,7.6c-0.2-1-0.5-1.9-1-2.9c-2.4,0.8-6,1.7-10.3,2.7c-0.2,0.3-0.4,0.5-0.6,0.6l-1.4-3.5c0,0,0.6-0.1,0.9-0.3
		c1.7-1.2,4-4.9,4.9-7.2h-6.1l-0.2-0.7h6.7V7.4h-4.7l-0.2-0.7h4.9V1.4l3.9,0.3c-0.1,0.4-0.3,0.6-0.9,0.7v4.2h2l1.6-2.1
		c0,0,1.8,1.4,2.9,2.4c-0.1,0.3-0.4,0.4-0.7,0.4H212v5.4h3.1L216.7,10.5z"/>
	<path class="st0" d="M234.7,6.8c-0.2,0.2-0.5,0.4-1.1,0.5v14.9c0,0.2-1.4,0.8-2.3,0.8h-0.4v-2h-3.8V23c0,0.3-1.1,1-2.3,1h-0.5V5
		l2.8,1.2h0.2c0.2-1.4,0.4-3.3,0.5-4.7l4.1,1c-0.1,0.4-0.5,0.6-1,0.6c-0.7,0.9-1.6,2.2-2.4,3.2h2.2l1.3-1.5L234.7,6.8z M227.1,6.9
		v6.2h3.8V6.9H227.1z M230.9,20.4v-6.6h-3.8v6.6H230.9z M246.9,6.8c-0.2,0.2-0.5,0.4-1.1,0.5c-0.2,10.1-0.5,14.7-1.9,16.1
		c-0.9,1-2,1.4-3.7,1.4c0-1-0.1-1.7-0.6-2.1c-0.5-0.5-1.4-0.9-2.7-1.1l0-0.4c1.2,0.1,2.9,0.2,3.6,0.2c0.5,0,0.7-0.1,0.9-0.3
		c0.9-0.9,1.2-5.8,1.4-14.4h-4.7c-1.2,2.1-2.6,3.9-4.2,5.3l-0.3-0.2c1.4-2.6,2.7-6.6,3.4-10.5l4,1.2c-0.1,0.3-0.4,0.5-1,0.5
		c-0.4,1.1-0.9,2.1-1.4,3h4l1.6-1.6L246.9,6.8z M235.8,11.2c7.3,2.2,4.6,7.6,1.9,5.3c-0.1-1.8-1.1-3.8-2.1-5.2L235.8,11.2z"/>
	<path class="st0" d="M271.2,1.3c0,0,2,1.5,3.2,2.6c0,0.3-0.3,0.4-0.7,0.4h-3.1v16.9c0,2-0.6,3.5-4.5,3.7c-0.1-1-0.3-1.7-0.9-2.1
		c-0.6-0.5-1.4-0.8-3.2-1.1v-0.3c0,0,4.1,0.2,4.9,0.2c0.5,0,0.7-0.2,0.7-0.6V4.2H251l-0.2-0.7h18.6L271.2,1.3z M263.7,18
		c0,0.2-1.5,0.7-2.4,0.7h-0.5v-2.1h-4.3v2.2c0,0.3-1.2,0.9-2.4,0.9h-0.4V7.2l2.9,1.2h3.9l1.3-1.5l2.8,2.1c-0.2,0.2-0.5,0.4-1,0.5V18
		z M260.8,15.9V9.1h-4.3v6.8H260.8z"/>
	<path class="st0" d="M285.9,4.7c7,1.7,4.5,6.9,2,4.9c0-0.5-0.2-1.1-0.4-1.7c-1.8,0.6-4.2,1.3-7.1,2c0,0.1-0.1,0.1-0.1,0.2l2.6,0.9
		h3.2l1.2-1.4l2.8,2.1c-0.2,0.2-0.5,0.4-1.1,0.5v9.4c0,1.9-0.4,2.9-3.2,3.2c0-0.9-0.2-1.5-0.4-1.9c-0.3-0.4-0.7-0.7-1.6-0.9v-0.4
		c0,0,1.6,0.1,2,0.1c0.3,0,0.5-0.1,0.5-0.4v-2.9c-0.9,0.7-1.9,1.3-3,2c-0.1,0.3-0.3,0.5-0.6,0.7l-0.5-1.3c-0.4,1.9-1.4,3.9-3.5,5.3
		l-0.2-0.2c1.5-2.6,1.5-5.9,1.5-9v-5.4l0,0l-1.2-3.1c0,0,0.5-0.1,0.8-0.2c1.4-1,3.4-4.1,3.9-5.8l3.8,1.4c-0.1,0.2-0.4,0.5-0.9,0.4
		c-1.2,1.4-3.3,3-5.1,4.2c1.7,0,3.9-0.1,6.2-0.2c-0.4-0.9-1-1.6-1.5-2.3L285.9,4.7z M282.4,11.7v2.2c4.1-1.6,4.9,2.6,2.5,2.3
		c-0.6-0.5-1.5-1-2.5-1.3v1c0,0.7,0,1.5-0.1,2.3c1.2-0.2,2.6-0.5,3.9-0.9v-5.6H282.4z M293.8,12.3c-2.5,0-2.9-0.5-2.9-2.4V1.7
		l3.7,0.3c0,0.3-0.3,0.6-0.8,0.6v2.9h2.7l1.4-1.9c0,0,1.6,1.3,2.5,2.2c-0.1,0.3-0.3,0.4-0.7,0.4h-5.9v3c0,0.4,0.1,0.5,0.8,0.5h1.9
		c0.6,0,1.3,0,1.6,0c0.2,0,0.6,0,0.7,0c0.2,0,0.5-0.1,0.8-0.2h0.2l0.1,0.1c0.8,0.3,1.1,0.6,1.1,1.2c0,1.2-1.1,1.7-4.9,1.7H293.8z
		 M300.2,21.2c0.8,0.4,1,0.7,1,1.2c0,1.2-1.1,1.7-5,1.7h-2.3c-2.5,0-3-0.6-3-2.5v-8.9l3.7,0.3c0,0.4-0.3,0.6-0.8,0.7v2.8h2.9
		l1.4-1.9c0,0,1.6,1.3,2.5,2.2c-0.1,0.3-0.3,0.4-0.7,0.4h-6.1V21c0,0.4,0.1,0.5,0.8,0.5h1.9c0.7,0,1.4,0,1.7,0
		c0.3,0,0.5-0.1,0.6-0.2c0.3-0.3,0.7-1.3,1-2.3h0.3L300.2,21.2z"/>
	<path class="st0" d="M308.6,21c0-1.1,0.9-2,2-2c1.2,0,2.1,0.9,2.1,2c0,1.1-0.9,2-2.1,2C309.5,23,308.6,22.1,308.6,21z M312.6,5.7
		c0,1.3-0.2,3.3-1,7.8l-0.5,3.4h-0.8l-0.5-3.4c-0.8-4.5-1-6.5-1-7.8c0-1.5,0.8-2.3,2-2.3S312.6,4.1,312.6,5.7z"/>
</g>
</svg>
