<?xml version="1.0" encoding="utf-8"?>
<!-- Generator: Adobe Illustrator 24.0.1, SVG Export Plug-In . SVG Version: 6.00 Build 0)  -->
<svg version="1.1" id="圖層_1" xmlns="http://www.w3.org/2000/svg" xmlns:xlink="http://www.w3.org/1999/xlink" x="0px" y="0px"
	 viewBox="0 0 306.3 280.9" style="enable-background:new 0 0 306.3 280.9;" xml:space="preserve">
<style type="text/css">
	.st0{fill:#FFBF3A;}
	.st1{fill-rule:evenodd;clip-rule:evenodd;fill:#FFBF3A;}
	.st2{fill-rule:evenodd;clip-rule:evenodd;fill:#0445A3;}
	.st3{fill:#FFBE23;}
</style>
<g>
	<g>
		<path class="st0" d="M245.9,159.2l7-15.1c1.9-4.1,0.2-9.1-3.9-11.1c-2-1-4.3-1.1-6.4-0.3c-2.2,0.8-3.9,2.4-4.9,4.4
			c-0.7,1.4-2.1,4.5-3.3,7.2c-1,2.1-1.9,4.1-2.3,5l-0.2,0.1l0-46.9c0-5.1-4.1-9.2-9.2-9.2c0,0,0,0,0,0c-1.2,0-2.4,0.2-3.5,0.7
			c-0.9-4.1-4.5-7.1-8.8-7.1c0,0,0,0,0,0c-2.4,0-4.7,0.9-6.4,2.6c-1.3,1.3-2.2,2.9-2.5,4.7c-1.1-0.4-2.2-0.7-3.4-0.7c0,0,0,0,0,0
			c-2.5,0-4.8,1-6.5,2.7c-1.7,1.7-2.7,4-2.7,6.5v2.6c-0.9-0.3-1.8-0.5-2.7-0.5c-2.3,0-4.5,0.9-6.2,2.5c-1.7,1.6-2.6,3.8-2.6,6.2
			l0,53.5c0,5.1,2.6,12,7.1,14.5c0.9,0.5,1.4,1.4,1.4,2.3v93c0,1.6,1.3,3,3,3c1.6,0,3-1.3,3-3v-93c0-3-1.7-5.9-4.4-7.4
			c-2.1-1.2-4.1-5.8-4.1-9.4l0-53.5c0-0.8,0.3-1.5,0.8-2c0.5-0.5,1.3-0.8,2-0.8c1.5,0,2.8,1.3,2.8,2.8V138v0c0,1.6,1.3,3,3,3
			c1.6,0,3-1.3,3-3v0v-24.4v-10.8c0-0.9,0.3-1.7,1-2.3c0.6-0.6,1.4-1,2.3-1c0,0,0,0,0,0c1.8,0,3.3,1.5,3.3,3.3v35.3v0
			c0,1.6,1.3,3,3,3c1.6,0,3-1.3,3-3v0v-35.3v-6.9c0-0.8,0.3-1.6,0.9-2.2c0.6-0.6,1.4-0.9,2.2-0.9c0,0,0,0,0,0c1.7,0,3.1,1.4,3.1,3.1
			v6.6v35.5v0c0,1.6,1.3,3,3,3c1.6,0,3-1.3,3-3v0v-35.5c0-0.9,0.3-1.7,1-2.3c0.6-0.6,1.4-1,2.3-1c0,0,0,0,0,0c0.9,0,1.7,0.3,2.3,1
			c0.6,0.6,1,1.4,1,2.3l0,48.7c-1.1,0.2-2.5,0.3-3.9,0.4c-8.3,0.7-22.1,2-25.1,18.2c-0.3,1.6,0.8,3.1,2.4,3.4c0.2,0,0.4,0,0.5,0
			c1.4,0,2.6-1,2.9-2.4c2-11,9.8-12.5,19.8-13.4c2.8-0.2,5.2-0.5,7.2-1.2c0,0,0,0,0.1,0l4.3-1.4c1.4-0.5,2.6-1.5,3.2-2.8
			c0.4-0.8,1.4-3,2.4-5.3c1.2-2.7,2.6-5.7,3.3-7.1c0.3-0.6,0.9-1.1,1.5-1.4c0.6-0.2,1.3-0.2,1.8,0.1c1.2,0.6,1.7,2,1.1,3.3
			l-7.1,15.3c-0.1,0.1-0.1,0.3-0.2,0.4c-0.1,0.3-0.3,0.6-0.5,0.8c-0.1,0.1-0.1,0.1-0.2,0.2c-5.6,6.2-14.2,15.3-16.5,17.2
			c0,0,0,0,0,0c-0.2,0.1-0.3,0.2-0.5,0.3c-2.2,1.7-3.6,4.3-3.6,7v94c0,1.6,1.3,3,3,3c1.6,0,3-1.3,3-3v-94c0-0.5,0.1-0.9,0.4-1.3
			c0.1-0.1,0.2-0.2,0.3-0.3l0.2-0.2c0.1-0.2,0.4-0.4,0.7-0.7c3.4-2.6,14.8-15.2,17.4-18C244.8,161.6,245.5,160.5,245.9,159.2z
			 M299.2,206.8c-1.8-0.9-3.9-1-5.8-0.3c-2,0.7-3.6,2.2-4.5,4c-0.6,1.2-1.8,3.9-2.8,6.2c-0.5,1.1-0.9,2.1-1.3,2.9l0-38.6
			c0-2.2-0.9-4.3-2.4-5.9c-1.6-1.6-3.7-2.4-5.9-2.4c0,0,0,0,0,0c-0.9,0-1.8,0.2-2.7,0.5c-1-3.4-4.1-6-7.9-6c0,0,0,0,0,0
			c-2.2,0-4.2,0.8-5.8,2.4c-1.1,1.1-1.8,2.4-2.1,3.8c-0.8-0.3-1.7-0.4-2.7-0.4c0,0,0,0,0,0c-2.2,0-4.3,0.9-5.9,2.4
			c-1.6,1.6-2.4,3.7-2.4,5.9v1.7c-0.6-0.2-1.2-0.3-1.9-0.3c0,0-0.1,0-0.1,0c-2.1,0-4.1,0.8-5.5,2.3c-1.5,1.5-2.3,3.5-2.3,5.6l0,45.9
			c0,4.5,2.3,10.6,6.3,12.8c0.6,0.4,1,1,1,1.6v26.1c0,1.6,1.3,3,3,3c1.6,0,3-1.3,3-3v-26.1c0-2.7-1.5-5.3-4-6.7
			c-1.7-1-3.3-4.8-3.3-7.7l0-45.9c0-0.5,0.2-1,0.6-1.4c0.4-0.4,0.9-0.6,1.4-0.6c1.1,0,2,0.9,2,2v21v0c0,1.6,1.3,3,3,3
			c1.6,0,3-1.3,3-3v0v-21v-9.3c0-0.6,0.3-1.2,0.7-1.7c0.5-0.5,1.1-0.7,1.7-0.7c0,0,0,0,0,0c1.3,0,2.4,1.1,2.4,2.4v30.3v0
			c0,1.6,1.3,3,3,3c1.6,0,3-1.3,3-3v0v-30.3v-5.9c0-0.6,0.2-1.2,0.7-1.6c0.4-0.4,1-0.7,1.6-0.7c0,0,0,0,0,0c1.2,0,2.2,1,2.2,2.2v5.7
			v30.5v0c0,1.6,1.3,3,3,3c1.6,0,3-1.3,3-3v0v-30.5c0-0.6,0.2-1.2,0.7-1.7c0.5-0.5,1.1-0.7,1.7-0.7c0,0,0,0,0,0
			c0.6,0,1.2,0.3,1.7,0.7c0.5,0.5,0.7,1.1,0.7,1.7l0,41.4c-0.9,0.1-1.9,0.2-2.9,0.3c-7.2,0.6-19.3,1.7-21.9,16
			c-0.3,1.6,0.8,3.1,2.4,3.4c0.2,0,0.4,0,0.5,0c1.4,0,2.6-1,2.9-2.4c1.7-9.1,8.2-10.4,16.6-11.2c2.4-0.2,4.5-0.4,6.2-1
			c0,0,0,0,0.1,0l3.6-1.2c1.3-0.4,2.4-1.4,3-2.7c0.3-0.7,1.2-2.5,2.1-4.5c1.1-2.3,2.3-4.9,2.8-6.1c0.2-0.4,0.6-0.8,1.1-1
			c0.2-0.1,0.7-0.2,1.2,0c0.8,0.4,1.2,1.4,0.8,2.2l-6.1,13.1c-0.1,0.1-0.1,0.3-0.2,0.4c-0.1,0.2-0.2,0.4-0.3,0.5
			c-0.1,0.1-0.1,0.1-0.2,0.2c-5.7,6.2-12.2,13.2-14,14.7c0,0,0,0-0.1,0c-0.1,0.1-0.2,0.1-0.4,0.2c-2,1.5-3.2,3.9-3.2,6.4v27
			c0,1.6,1.3,3,3,3c1.6,0,3-1.3,3-3v-27c0-0.3,0.1-0.6,0.2-0.9c0.1-0.1,0.1-0.1,0.2-0.2c0,0,0,0,0,0l0.1-0.1
			c0.1-0.1,0.3-0.3,0.6-0.6c3-2.3,12.7-13,14.9-15.5c0.9-0.8,1.5-1.8,1.8-2.9l6-12.9C304.5,213.1,303,208.6,299.2,206.8z
			 M169.4,184.8c-1.5-1.5-3.5-2.3-5.6-2.3c-0.7,0-1.3,0.1-1.9,0.3v-1.7c0-2.2-0.9-4.3-2.4-5.9c-1.6-1.6-3.7-2.4-5.9-2.4c0,0,0,0,0,0
			c-0.9,0-1.8,0.2-2.7,0.4c-0.4-1.4-1.1-2.7-2.1-3.8c-1.5-1.5-3.6-2.4-5.8-2.4c0,0,0,0,0,0c-3.7,0-6.9,2.5-7.9,6
			c-0.9-0.3-1.8-0.5-2.7-0.5c0,0,0,0,0,0c-2.2,0-4.3,0.9-5.9,2.4c-1.6,1.6-2.4,3.7-2.4,5.9l0,38.6c-0.4-0.8-0.8-1.8-1.3-2.9
			c-1.1-2.3-2.3-4.9-2.8-6.2c-0.9-1.9-2.5-3.3-4.5-4c-1.9-0.7-4-0.6-5.8,0.3c-3.7,1.8-5.3,6.3-3.6,10l6,12.9c0.4,1.1,1,2.1,1.8,2.9
			c2.2,2.4,12,13.1,14.9,15.5c0.3,0.3,0.4,0.5,0.6,0.6l0.1,0.1c0,0,0,0,0,0c0.1,0.1,0.1,0.1,0.2,0.2c0.1,0.3,0.2,0.6,0.2,0.9v27
			c0,1.6,1.3,3,3,3c1.6,0,3-1.3,3-3v-27c0-2.5-1.2-4.8-3.2-6.4c-0.1-0.1-0.2-0.2-0.4-0.2c0,0,0,0-0.1,0c-1.8-1.5-8.4-8.4-14-14.7
			c-0.1-0.1-0.1-0.1-0.2-0.2c-0.2-0.1-0.3-0.3-0.3-0.5c0-0.2-0.1-0.3-0.2-0.4l-6.1-13.2c-0.4-0.8,0-1.8,0.8-2.2c0.5-0.2,1-0.1,1.2,0
			c0.5,0.2,0.9,0.5,1.1,1c0.6,1.2,1.8,3.8,2.8,6.1c0.9,2,1.7,3.8,2.1,4.5c0.6,1.3,1.7,2.2,3,2.7l3.6,1.2c0,0,0,0,0.1,0
			c1.7,0.6,3.8,0.8,6.2,1c8.4,0.7,14.9,2,16.6,11.2c0.3,1.4,1.5,2.4,2.9,2.4c0.2,0,0.4,0,0.5,0c1.6-0.3,2.7-1.8,2.4-3.4
			c-2.6-14.3-14.7-15.3-21.9-16c-1.1-0.1-2.1-0.2-2.9-0.3l0-41.4c0-0.6,0.2-1.2,0.7-1.7c0.5-0.5,1.1-0.7,1.7-0.7c0,0,0,0,0,0
			c0.6,0,1.2,0.2,1.7,0.7c0.5,0.5,0.7,1.1,0.7,1.7v30.5v0c0,1.6,1.3,3,3,3c1.6,0,3-1.3,3-3v0v-30.5v-5.7c0-1.2,1-2.2,2.2-2.2
			c0,0,0,0,0,0c0.6,0,1.2,0.2,1.6,0.7c0.4,0.4,0.7,1,0.7,1.6v5.9v30.3v0c0,1.6,1.3,3,3,3c1.6,0,3-1.3,3-3v0v-30.3
			c0-1.3,1.1-2.4,2.4-2.4c0,0,0,0,0,0c0.6,0,1.2,0.2,1.7,0.7c0.5,0.5,0.7,1.1,0.7,1.7v9.3v21v0c0,1.6,1.3,3,3,3c1.6,0,3-1.3,3-3v0
			v-21c0-1.1,0.9-2,2-2c0.5,0,1,0.2,1.4,0.6c0.4,0.4,0.6,0.9,0.6,1.4l0,45.9c0,2.9-1.6,6.7-3.3,7.7c-2.4,1.4-4,4-4,6.7v26.1
			c0,1.6,1.3,3,3,3c1.6,0,3-1.3,3-3v-26.1c0-0.6,0.4-1.3,1-1.6c3.9-2.3,6.3-8.3,6.3-12.8l0-45.9
			C171.8,188.3,170.9,186.3,169.4,184.8z"/>
	</g>
</g>
<g>
	<g>
		<path class="st1" d="M130.4,129.9c24.4-27,25.1-68.7,0.4-96.6c-26.5-30-72.4-32.8-102.3-6.2c-30,26.5-32.8,72.4-6.2,102.3
			c24.7,28,66.2,32.3,96,11.2l14.3,4L130.4,129.9z"/>
	</g>
</g>
<g>
	<g>
		<path class="st2" d="M140.5,123.9c24.4-27,25.1-68.7,0.4-96.6c-26.5-30-72.4-32.8-102.3-6.2c-30,26.5-32.8,72.4-6.2,102.3
			c24.7,28,66.2,32.3,96,11.2l14.3,4L140.5,123.9z"/>
	</g>
</g>
<g>
	<path class="st3" d="M58.5,46l-6.7-14.4h5.7l1.9,5c0.6,1.7,1.2,3.2,1.8,5h0.1c0.6-1.7,1.2-3.3,1.9-5l1.9-5h5.6L63.8,46v7.9h-5.3V46
		z"/>
	<path class="st3" d="M73.3,42.6c0-7.3,4.1-11.5,10.2-11.5s10.2,4.2,10.2,11.5c0,7.3-4.1,11.7-10.2,11.7S73.3,49.9,73.3,42.6z
		 M88.3,42.6c0-4.3-1.8-6.9-4.8-6.9s-4.7,2.5-4.7,6.9c0,4.3,1.8,7.1,4.7,7.1S88.3,47,88.3,42.6z"/>
	<path class="st3" d="M99.3,43.4V31.6h5.3V44c0,4.2,1.3,5.7,3.7,5.7c2.4,0,3.8-1.5,3.8-5.7V31.6h5.2v11.8c0,7.5-3,10.9-8.9,10.9
		C102.4,54.3,99.3,50.9,99.3,43.4z"/>
	<path class="st3" d="M54.6,72.9c0-7.4,5-11.7,10.6-11.7c2.9,0,5.2,1.4,6.8,2.9l-2.8,3.4c-1.1-1-2.3-1.7-3.9-1.7
		c-2.9,0-5.2,2.6-5.2,6.9c0,4.4,2,7,5.2,7c1.8,0,3.2-0.9,4.3-2l2.8,3.4c-1.9,2.2-4.4,3.3-7.3,3.3C59.4,84.3,54.6,80.4,54.6,72.9z"/>
	<path class="st3" d="M87.6,78.8H81l-1.3,5.1h-5.5l6.9-22.3h6.4l6.9,22.3h-5.6L87.6,78.8z M86.6,74.6l-0.5-1.9
		c-0.6-2.2-1.2-4.9-1.8-7.2h-0.1c-0.5,2.3-1.1,4.9-1.7,7.2L82,74.6H86.6z"/>
	<path class="st3" d="M98.4,61.6h5.5l5.5,10.7l2.2,4.9h0.1c-0.3-2.4-0.7-5.6-0.7-8.2v-7.4h5.1v22.3h-5.5l-5.5-10.8l-2.2-4.9h-0.1
		c0.2,2.5,0.7,5.5,0.7,8.2v7.4h-5.1V61.6z"/>
	<path class="st3" d="M39.2,91.6h5.4v8.5h7.3v-8.5h5.3v22.3h-5.3v-9.2h-7.3v9.2h-5.4V91.6z"/>
	<path class="st3" d="M63.9,91.6h14.2V96h-8.8v4.1h7.5v4.5h-7.5v4.7h9.1v4.5H63.9V91.6z"/>
	<path class="st3" d="M84.3,91.6h5.4v17.8h8.7v4.5h-14V91.6z"/>
	<path class="st3" d="M103.7,91.6h7.8c4.9,0,9,1.7,9,7.3c0,5.3-4.1,7.6-8.8,7.6h-2.6v7.4h-5.4V91.6z M111.4,102.3
		c2.6,0,3.9-1.2,3.9-3.4c0-2.2-1.4-3-4-3h-2.2v6.4H111.4z"/>
	<path class="st3" d="M126,111c0-1.8,1.3-3.3,3.1-3.3c1.9,0,3.2,1.5,3.2,3.3c0,1.9-1.3,3.3-3.2,3.3C127.3,114.3,126,112.8,126,111z
		 M126.7,95.7l-0.2-4.7h5.4l-0.2,4.7l-0.8,10.1h-3.4L126.7,95.7z"/>
</g>
</svg>
