<?xml version="1.0" encoding="utf-8"?>
<!-- Generator: Adobe Illustrator 22.0.1, SVG Export Plug-In . SVG Version: 6.00 Build 0)  -->
<svg version="1.1" id="圖層_1" xmlns="http://www.w3.org/2000/svg" xmlns:xlink="http://www.w3.org/1999/xlink" x="0px" y="0px"
	 viewBox="0 0 411.7 411.7" style="enable-background:new 0 0 411.7 411.7;" xml:space="preserve">
<style type="text/css">
	.st0{fill:#B1871C;}
	.st1{fill:#FFFFFF;}
</style>
<title>award_06</title>
<g id="圖層_1_1_">
	<circle class="st0" cx="205.8" cy="205.8" r="205.8"/>
</g>
<g id="圖層_7">
	<path class="st1" d="M195.5,206.9c-2.2-0.9-4.6-1.3-7-1c-3.8,0.4-7,3-8.3,6.6c-1.5,5,0.6,9.6,5.6,12.5c0.6,0.4,1.3,0.7,2,1
		c1.5,0.7,4.7,1.9,3.6,4.1c-0.7,1.5-3,2-4.6,2.1c-2.9,0.1-5.8-0.4-8.5-1.6c-0.7-0.2-1.4-0.5-2.1-0.9c1-2.6,1.5-5.3,1.5-8.1
		c0-14.8-12.6-19.6-18-20.7v7.3c1,0.2,11.7,2.6,11.7,13.4c0,1.8-0.3,3.6-1,5.3c-3.9-2.1-7.5-4.7-10.7-7.7v8.1c1.9,1.9,4,3.6,6.3,5
		c-1.9,1.3-4,2.3-6.3,2.8v7.3c4.8-0.9,9.3-3.3,12.8-6.8c1.1,0.5,2.2,1,3.4,1.4c3.8,1.5,7.7,2.3,11.8,2.4c4.5,0,9.7-1.9,11.2-6.5
		c2.4-7.6-4.6-11.5-8-13.2c-0.6-0.3-1.2-0.6-1.6-0.9c-3.3-1.9-2.6-3.9-2.4-4.5c0.5-1,1.5-1.7,2.6-1.8c2-0.3,4-0.1,5.9,0.7
		c2.6,1.3,5,3.2,6.7,5.5V249h7.2v-40.4l9.4,6.3c-1.5,3.6-2.1,7.5-1.6,11.4c0.8,6.4,5.3,11.7,11.5,13.4c1.4,0.4,2.9,0.5,4.4,0.5
		c6.3-0.3,11-4.9,11-11c0-3.4-1.6-6.6-4.3-8.7c-0.4-0.4-1.5-1.2-11-7.5c1.4-1.5,5.2-1.9,6.9-1.7c7.5,0.8,14.3,4.9,18.4,11.2v-10.4
		c-4.1-3.9-9.4-6.5-15-7.2c-5.4-0.8-11.2-0.5-16.5,4l-14.9-9.9l-5.6-3.7v15.7C200.1,209.2,197.9,207.8,195.5,206.9z M234,225.2
		c2,1.3,2.5,4.1,1.2,6.1c-0.8,1.2-2.1,1.9-3.6,1.9c-4.9,0.2-7.2-4.9-7.5-7.8c-0.2-2.2,0-4.3,0.6-6.4L234,225.2z"/>
	<path class="st1" d="M292.2,126.2c1.8-4.5,3.6-9.1,5.5-13.7c-0.3-0.1-0.6-0.1-0.9-0.1c-20,0-40,0-60,0c-1.3,0-1.7,0.6-2.1,1.6
		c-3.2,8.1-6.5,16.3-9.7,24.4c-1.2,2.9-2.2,3.5-5.2,2.9c-9.2-1.8-18.6-1.8-27.8,0c-3,0.6-4.1,0-5.2-2.9c-3.2-8-6.4-16-9.5-24
		c-0.3-1.3-1.6-2.2-2.9-2c-19.4,0.1-38.7,0-58.1,0H114c0.3,0.9,0.5,1.4,0.7,1.9c7.7,19.3,15.5,38.7,23.2,58c1,2.3,0.9,4.9-0.5,7.1
		c-9.4,16.4-13.4,33.9-10.1,52.8c3.3,18.5,11.4,34.5,25.8,46.8c20.3,17.4,43.6,24.2,70,18.2c38.1-8.7,61.7-40.8,62.4-77.3
		c0.3-14.5-3.9-28.1-11.4-40.6c-1.3-2-1.5-4.5-0.5-6.7C279.9,157.1,286.1,141.7,292.2,126.2z M132.9,139.8c-2-4.6-4.1-9.1-6-13.7
		c-0.5-1.2-0.5-2.6-0.2-3.9c0.2-0.6,1.7-1.2,2.6-1.3c6.5-0.1,13-0.1,19.5-0.1c6.3,0,12.6,0.1,18.9,0c1.7-0.2,3.2,0.8,3.8,2.4
		c2.5,5.6,5.2,11.1,7.4,16.8c1.3,3.2,0.4,4.6-2.4,5.8c-10.3,4.1-19.7,10.2-27.5,18.1c-2.3,2.2-4.6,1.8-6-1.3
		C139.7,155.1,136.3,147.5,132.9,139.8z M277,219.7c0.9,38.7-32.3,71.2-71.1,71.3s-72.2-32.7-71.4-72.6c0.8-38.6,32-69.6,70.6-70.1
		C244.6,147.6,278,180.8,277,219.7z M268.8,162.5c-1.2,2.9-4.1,3.7-6.5,1.3c-7.6-7.8-16.8-13.8-26.9-17.8c-2.9-1.1-3.9-2.8-2.5-6.2
		c2.2-5.4,4.7-10.7,7-16c0.6-1.8,2.3-3,4.2-2.8c6.3,0.1,12.6,0.1,18.9,0.1h18.6c3.5,0,4.6,1.8,3.2,5.2c-3.1,7-6.2,14-9.3,21.1
		C273.3,152.3,270.9,157.3,268.8,162.5z"/>
</g>
</svg>
