<?xml version="1.0" encoding="utf-8"?>
<!-- Generator: Adobe Illustrator 22.0.1, SVG Export Plug-In . SVG Version: 6.00 Build 0)  -->
<svg version="1.1" id="圖層_1" xmlns="http://www.w3.org/2000/svg" xmlns:xlink="http://www.w3.org/1999/xlink" x="0px" y="0px"
	 viewBox="0 0 411.7 411.7" style="enable-background:new 0 0 411.7 411.7;" xml:space="preserve">
<style type="text/css">
	.st0{fill:#B1871C;}
	.st1{fill:#FFFFFF;}
</style>
<g id="圖層_1_1_">
	<circle class="st0" cx="205.8" cy="205.8" r="205.8"/>
</g>
<g>
	<circle class="st1" cx="224.2" cy="241" r="3.8"/>
	<circle class="st1" cx="196" cy="241" r="3.8"/>
	<path class="st1" d="M111.1,273.5c-2.1,0-3.8-1.7-3.8-3.8v-71.1c0-4.8,1.9-9.3,5.2-12.8c0.2-0.3,0.6-0.6,0.9-0.9l3.1-2.8l-3.4-2.3
		c-12.7-8.6-20.3-22.9-20.3-38c0-25.4,20.9-46.1,46.6-46.1c16,0,31.2,8.6,39.6,22.4l2.9,4.6l2.9-4.6c8.3-13.8,23.4-22.4,39.6-22.4
		c25.4,0,46.1,20.7,46.1,46.1c0,15.1-7.5,29.3-20,37.9l-3.4,2.3l3.1,2.8c4,3.6,6.2,8.5,6.2,13.8V209h23.6l27.4-13.7
		c0.6-0.2,1.1-0.4,1.7-0.4c0.7,0,1.4,0.2,2,0.6c1.1,0.7,1.8,1.9,1.8,3.2v56.5c0,1.3-0.7,2.5-1.8,3.2c-0.6,0.3-1.3,0.6-2,0.6
		c-0.6,0-1.2-0.1-1.7-0.4l-27.4-13.7h-23.6v25c0,2.1-1.7,3.8-3.8,3.8L111.1,273.5L111.1,273.5z M125.3,187.8
		c-5.6,0-10.4,5-10.4,10.8V266h133.7v-67.3c0-5.9-4.8-10.8-10.4-10.8H125.3z M284.4,215.1v23.6l20.7,10.4v-44.3L284.4,215.1z
		 M256.1,237.2h20.7v-20.7h-20.7V237.2z M224.2,103.1c-21.2,0-38.6,17.4-38.6,38.6s17.4,38.6,38.6,38.6s38.6-17.4,38.6-38.6
		S245.4,103.1,224.2,103.1z M178.9,165.5c-2,3.3-4.5,6.4-7.3,9.2l-5.7,5.6h31.7l-5.7-5.6c-2.8-2.8-5.3-5.9-7.3-9.2l-2.9-4.6
		L178.9,165.5z M139.5,103.1c-21.6,0-39,17.4-39,38.6s17.5,38.6,39,38.6c21.2,0,38.6-17.4,38.6-38.6S160.7,103.1,139.5,103.1z"/>
	<path class="st1" d="M139.5,159.6c-9.8,0-17.9-8.1-17.9-17.9s8.1-17.9,17.9-17.9c9.8,0,17.9,8.1,17.9,17.9
		C157.4,151.6,149.3,159.6,139.5,159.6z M139.5,131.4c-5.7,0-10.4,4.6-10.4,10.4c0,5.7,4.6,10.4,10.4,10.4c5.7,0,10.4-4.6,10.4-10.4
		C149.8,136.1,145.1,131.4,139.5,131.4z"/>
	<path class="st1" d="M224.2,159.6c-9.8,0-17.9-8.1-17.9-17.9s8.1-17.9,17.9-17.9c9.8,0,17.9,8.1,17.9,17.9
		C242.1,151.6,234,159.6,224.2,159.6z M224.2,131.4c-5.7,0-10.4,4.6-10.4,10.4c0,5.7,4.6,10.4,10.4,10.4c5.7,0,10.4-4.6,10.4-10.4
		C234.5,136.1,229.9,131.4,224.2,131.4z"/>
	<path class="st1" d="M139.5,216.6c-2.1,0-3.8-1.7-3.8-3.8s1.7-3.8,3.8-3.8h84.7c2.1,0,3.8,1.7,3.8,3.8s-1.7,3.8-3.8,3.8H139.5z"/>
	<path class="st1" d="M309.3,145.5c-2.1,0-3.8-1.7-3.8-3.8v-10.4h-10.4c-2.1,0-3.8-1.7-3.8-3.8s1.7-3.8,3.8-3.8h10.4v-10.3
		c0-2.1,1.7-3.8,3.8-3.8c2.1,0,3.8,1.7,3.8,3.8v10.4h10.4c2.1,0,3.8,1.7,3.8,3.8c0,2.1-1.7,3.8-3.8,3.8h-10.4v10.4
		C313.1,143.8,311.4,145.5,309.3,145.5z"/>
	<path class="st1" d="M294.7,315.8c-2.1,0-3.8-1.7-3.8-3.8v-10.4h-10.4c-2.1,0-3.8-1.7-3.8-3.8c0-2.1,1.7-3.8,3.8-3.8h10.4v-10.4
		c0-2.1,1.7-3.8,3.8-3.8c2.1,0,3.8,1.7,3.8,3.8v10.4h10.4c2.1,0,3.8,1.7,3.8,3.8c0,2.1-1.7,3.8-3.8,3.8h-10.4v10.4
		C298.5,314.2,296.8,315.8,294.7,315.8z"/>
	<path class="st1" d="M125.3,330c-2.1,0-3.8-1.7-3.8-3.8v-10.4h-10.4c-2.1,0-3.8-1.7-3.8-3.8c0-2.1,1.7-3.8,3.8-3.8h10.4v-10.4
		c0-2.1,1.7-3.8,3.8-3.8s3.8,1.7,3.8,3.8v10.4h10.4c2.1,0,3.8,1.7,3.8,3.8c0,2.1-1.7,3.8-3.8,3.8h-10.4v10.4
		C129.1,328.3,127.4,330,125.3,330z"/>
</g>
</svg>
