<?xml version="1.0" encoding="utf-8"?>
<!-- Generator: Adobe Illustrator 22.0.1, SVG Export Plug-In . SVG Version: 6.00 Build 0)  -->
<svg version="1.1" id="圖層_1" xmlns="http://www.w3.org/2000/svg" xmlns:xlink="http://www.w3.org/1999/xlink" x="0px" y="0px"
	 viewBox="0 0 411.7 411.7" style="enable-background:new 0 0 411.7 411.7;" xml:space="preserve">
<style type="text/css">
	.st0{fill:#B1871C;}
	.st1{fill:#FFFFFF;}
</style>
<g id="圖層_1_1_">
	<circle class="st0" cx="205.8" cy="205.8" r="205.8"/>
</g>
<g>
	<path class="st1" d="M209.3,329.2c-0.2,0-0.5,0-0.7,0c-18.5-0.3-33.6-8.5-44.8-24.6c-4.4-6.3-7.4-13.4-8.8-21.1
		c-0.6-3-2.5-4.6-5.7-4.6l-21.2,0c-3.5,0-6.9,0-10.4,0c-12.5,0-22.6-10.2-22.6-22.7c0-44,0-88,0-132c0-12.5,10.2-22.6,22.7-22.7
		c12.7,0,25.5,0,38.2,0l53,0c0,0,0.1,0,0.1,0l90.6,0c6.4,0,12.3,2.4,16.6,6.6c4.3,4.3,6.6,10.2,6.6,16.5c0,25.7,0,131.2,0,131.2
		c0,12.9-10.1,23-22.9,23l-31,0c-3.6,0-5.3,1.4-6,5.1c-2.8,13.4-9.7,24.8-19.9,33.1C233.5,324.9,221.4,329.2,209.3,329.2
		C209.3,329.2,209.3,329.2,209.3,329.2z M208.8,320.3c0.5,0,1,0,1.4,0c12,0,23.3-4.7,31.7-13.3c8.3-8.4,13-19.6,13.2-31.4
		c0.3-12.6-4.2-24.4-12.7-33.2c-8.5-8.8-19.9-13.9-32.3-14.1c-0.3,0-0.7,0-1,0c-25.6,0-45.9,19.9-46.2,45.4
		c-0.2,12.7,4.6,24.6,13.3,33.4c8.4,8.5,19.6,13.2,31.6,13.2C208.1,320.3,208.4,320.3,208.8,320.3z M288.5,269.7
		c5.1,0,9.3,0.1,13.2,0.2c0.1,0,0.3,0,0.4,0c3.1,0,6.1-1.2,8.3-3.5c2.3-2.4,3.6-5.5,3.6-9c-0.2-45.9-0.2-91,0-134.1
		c0-3.7-1.3-7-3.6-9.3c-2.3-2.4-5.5-3.6-9.2-3.6l-0.1,0c-12.4,0.1-25.5,0.2-42.5,0.2c-8.2,0-16.3,0-24.5,0c-8.2,0-16.3,0-24.5,0
		h-0.2c-8.1,0-16.2,0-24.3,0c-8.1,0-16.2,0-24.3,0c-17.8,0-31.5,0-44.5-0.1h-0.1c-3.3,0-6.3,1.3-8.6,3.6c-2.2,2.2-3.4,5.1-3.4,8
		c0.1,30.1,0.1,60.8,0.1,90.4c0,15.3,0,30.7,0,46c0,6.6,4.6,11.2,11.1,11.3c4.8,0,9.5,0,13.1,0l12.2,0c3,0,6.1,0,9.1,0
		c2.4,0,4.1-1.3,5-3.9c0.3-0.7,0.4-1.5,0.5-2.2c0.1-0.4,0.1-0.8,0.2-1.2c5.9-24.5,28.6-43,52.9-43.2l0.3,0c12.4,0,24.8,4.6,34.8,13
		c10.1,8.4,16.9,19.9,19.4,32.4c0.7,3.6,2.4,5.1,6.1,5.1l0.6,0c3.1,0,6.3,0,9.4,0C282.2,269.7,285.4,269.7,288.5,269.7z"/>
	<path class="st1" d="M141.6,245.1c-2.4,0-4.2-2-4.3-4.8c-0.1-1.8-0.1-3.6-0.1-5.3c0-0.7,0-1.5,0-2.2c0-14.2,0-28.4,0-42.6l0-48.4
		c0-5.8,2.3-6.6,4.5-6.6l0.1,0c1.5,0,2.6,0.5,3.3,1.5c0.8,1.1,1.2,2.8,1.2,5.2l0,19.8c0,25.7,0,51.4,0,77.2c0,2.4-0.1,4.3-2,5.4
		C143.4,244.9,142.5,245.1,141.6,245.1z"/>
	<path class="st1" d="M276.3,245.2c-2,0-3.7-1.6-4.2-3.8c-0.2-0.9-0.2-1.8-0.2-2.7l0-12.3c0-27.8,0-56.6,0.1-85c0-1.6,0.5-4,1.7-5.2
		c0.7-0.7,1.7-1.1,2.7-1.1c1.9,0,3.6,1.3,4.2,3.2c0.3,1.1,0.4,2.4,0.4,3.4c0,12.7,0,25.4,0,38.1l0,10.3c0,3.7,0,7.5,0,11.2
		c0,12.3,0,25.1-0.1,37.7c0,1.7-0.8,4.1-2,5.2C278.1,244.9,277.2,245.2,276.3,245.2z"/>
	<path class="st1" d="M242.6,211.5c-2.5,0-4.3-2.2-4.4-5.3c-0.1-5.2-0.1-10.6,0-15.7c0-2.2,0-4.4,0-6.6c0-3.6,0-7.2,0-10.8
		c0-2.8,0-5.5,0-8.3c0-7.8,0-15.8,0.1-23.8c0-1.6,0.8-3.9,2-4.9c0.8-0.6,1.7-1,2.6-1c2,0,3.7,1.6,4.2,3.8c0.2,0.7,0.2,1.5,0.2,2.2
		c0,21.5,0,42.9,0,64.4c0,2.1-0.2,4-2,5.1C244.4,211.2,243.5,211.5,242.6,211.5z"/>
	<path class="st1" d="M175.2,211.5c-2.5,0-4.2-2.1-4.3-5.2c-0.1-4.2-0.1-8.6,0-12.7c0-1.8,0-3.6,0-5.4l0-14.6c0,0,0-0.1,0-0.1l0-8.5
		c0-8,0-15.9,0-23.9c0-2.2,0.2-4,2-5.1c0.9-0.5,1.8-0.8,2.6-0.8c2.4,0,4.2,2,4.4,4.8c0.1,1.9,0.1,3.8,0.1,5.6c0,0.8,0,1.7,0,2.5
		l0,11.3c0,15.3,0,30.6,0,45.9c0,2.2-0.2,4.2-2.1,5.3C176.9,211.2,176,211.5,175.2,211.5z"/>
	<path class="st1" d="M208.9,203.1c-2.5,0-4.3-2.2-4.3-5.3c-0.1-6.2-0.1-12.6,0-18.7c0-2.6,0-5.2,0-7.8l0-10c0-6.6,0-13.5,0-20.2
		c0-2.5,0.4-4.2,2.3-5.2c0.8-0.4,1.7-0.6,2.5-0.6c2.5,0,4.2,2.1,4.3,5.2c0.1,4,0.1,8.1,0,12c0,1.7,0,3.4,0,5l0,8
		c0,10.6,0,21.1,0,31.7c0,2.1-0.2,4-2,5.1C210.7,202.8,209.8,203.1,208.9,203.1z"/>
	<path class="st1" d="M209.1,295.7c-1.3,0-2.5-0.5-3.5-1.5c-5.9-5.5-11.6-11.4-16.3-16.3c-0.6-0.7-2.6-3-0.9-5.6
		c0.6-0.8,1.5-1.5,2.5-2.2c0.4-0.3,0.8-0.5,1.1-0.8c0.5,0.3,1,0.6,1.5,0.8c1.2,0.7,2.3,1.3,3.2,2c1.6,1.4,3.1,2.9,4.6,4.4
		c0.8,0.8,1.7,1.7,2.5,2.5c0.8,0.8,1.8,1.6,2.9,1.6c1.2,0,2.2-0.9,3-1.8c0.7-0.8,1.3-1.7,1.9-2.8c2.5-4.9,5-9.9,7.4-14.7l2.7-5.5
		c0.7-1.4,1.9-3,4.1-3c0.7,0,1.5,0.2,2.3,0.6c1,0.5,1.7,1.2,2,2.2c0.4,1.2,0.3,2.6-0.4,4c-5.3,10.8-10.8,21.8-16.7,33.6
		C212.2,294.8,210.7,295.7,209.1,295.7z"/>
</g>
</svg>
