<?xml version="1.0" encoding="utf-8"?>
<!-- Generator: Adobe Illustrator 22.0.1, SVG Export Plug-In . SVG Version: 6.00 Build 0)  -->
<svg version="1.1" id="圖層_1" xmlns="http://www.w3.org/2000/svg" xmlns:xlink="http://www.w3.org/1999/xlink" x="0px" y="0px"
	 viewBox="0 0 411.7 411.7" style="enable-background:new 0 0 411.7 411.7;" xml:space="preserve">
<style type="text/css">
	.st0{fill:#B1871C;}
	.st1{fill:#FFFFFF;}
</style>
<g id="圖層_1_1_">
	<circle class="st0" cx="205.8" cy="205.8" r="205.8"/>
</g>
<g>
	<path class="st1" d="M255.7,95.7c-0.7,0-1.4-0.2-2-0.5c-1-0.5-1.8-1.4-2.2-2.6c-0.4-1.1-0.3-2.3,0.3-3.4c0.8-1.5,2.3-2.4,3.9-2.4
		c0.7,0,1.4,0.2,2,0.5c1,0.5,1.8,1.4,2.2,2.6c0.4,1.1,0.3,2.3-0.3,3.4C258.9,94.8,257.4,95.7,255.7,95.7z"/>
	<path class="st1" d="M289.4,265.2c-1,0-2.1-0.4-2.9-1.1c-0.9-0.8-1.4-1.8-1.5-3c-0.1-1.2,0.3-2.3,1-3.2
		c16.3-19.1,25.3-43.5,25.3-68.6c0-30.3-13.1-59.2-35.9-79.3c-0.9-0.8-1.5-2-1.5-3.3c0-1.1,0.4-2.1,1.1-2.9c0.8-1,2-1.5,3.3-1.5
		c1.1,0,2.1,0.4,2.9,1.1l0.3,0.3h0c5.9,5.2,11.2,11,15.9,17.2c4.8,6.4,8.9,13.3,12.2,20.5c3.4,7.4,6,15.1,7.8,23
		c1.8,8.1,2.7,16.5,2.7,24.9c0,13.9-2.5,27.4-7.3,40.3c-4.7,12.4-11.5,23.9-20.1,34C291.9,264.7,290.7,265.2,289.4,265.2z"/>
	<path class="st1" d="M122.3,265.2c-1.3,0-2.5-0.6-3.3-1.5c-8.7-10.1-15.5-21.6-20.1-34c-4.8-12.9-7.3-26.4-7.3-40.3
		c0-7.8,0.8-15.5,2.3-23c1.5-7.4,3.7-14.6,6.7-21.5c2.9-6.8,6.4-13.3,10.5-19.4c4.1-6.1,8.8-11.8,14-16.9c5.2-5.2,10.9-9.9,16.9-14
		c6.1-4.1,12.6-7.7,19.4-10.5c6.9-2.9,14.1-5.2,21.5-6.7c7.5-1.5,15.2-2.3,23-2.3c8.5,0,16.9,0.9,25.1,2.7c2.4,0.5,3.9,2.9,3.3,5.2
		c-0.2,1-0.8,1.9-1.6,2.5c-0.8,0.6-1.8,0.9-2.7,0.9c-0.3,0-0.6,0-0.9-0.1c-7.5-1.7-15.3-2.5-23.1-2.5c-28.2,0-54.7,11-74.6,30.9
		c-19.9,19.9-30.9,46.5-30.9,74.6c0,25,8.9,49.2,25.1,68.3v0.7l0.6,0c0.6,0.8,0.8,1.8,0.8,2.8c-0.1,1.2-0.6,2.2-1.5,3
		C124.3,264.8,123.3,265.2,122.3,265.2z"/>
	<path class="st1" d="M189.4,336.7c-1.2,0-2.3-0.5-3.1-1.3c-0.8-0.8-1.3-2-1.3-3.1v-12.1h-9.3c-1.2,0-2.3-0.5-3.1-1.3
		c-0.8-0.8-1.3-2-1.3-3.1v-12.1h-14.8c-2.4,0-4.4-2-4.4-4.4c0-2.4,2-4.4,4.4-4.4h14.8v-7.7h-14.8c-2.4,0-4.4-2-4.4-4.4
		c0-2.4,2-4.4,4.4-4.4h14.8l0.2-0.9c0.4-2.1,2.2-3.6,4.3-3.6s3.9,1.5,4.3,3.6l0.2,0.9h51.6v-24.3c0-1.7,1-3.3,2.5-4
		c23.5-11,38.7-34.9,38.7-60.8c0-17.9-7-34.8-19.6-47.4c-12.7-12.7-29.5-19.6-47.4-19.6s-34.8,7-47.4,19.6
		c-12.7,12.7-19.6,29.5-19.6,47.4c0,15.9,5.7,31.3,15.9,43.4c1.6,1.8,1.3,4.6-0.5,6.2c-0.8,0.7-1.8,1-2.8,1c-1.3,0-2.5-0.6-3.4-1.6
		c-5.7-6.7-10.1-14.3-13.2-22.5c-3.2-8.5-4.8-17.4-4.8-26.6c0-10.2,2-20.2,6-29.5c1.9-4.5,4.2-8.8,7-12.9c2.7-4,5.8-7.8,9.3-11.2
		c3.4-3.4,7.2-6.5,11.2-9.3c4.1-2.7,8.4-5.1,12.9-7c9.4-4,19.3-6,29.5-6c10.2,0,20.2,2,29.5,6c4.5,1.9,8.8,4.3,12.9,7
		c4,2.7,7.8,5.8,11.2,9.3c3.4,3.4,6.5,7.2,9.3,11.2c2.7,4.1,5.1,8.4,7,12.9c4,9.4,6,19.3,6,29.5c0,7.1-1,14.2-3,21
		c-1.9,6.6-4.7,12.9-8.3,18.8c-7.2,11.6-17.3,21.1-29.4,27.4l-0.6,0.3v21.5h14.8c2.4,0,4.4,2,4.4,4.4c0,2.4-2,4.4-4.4,4.4h-14.8v7.7
		h14.8c2.4,0,4.4,2,4.4,4.4c0,2.4-2,4.4-4.4,4.4h-14.8v12.1c0,1.2-0.5,2.3-1.3,3.1c-0.8,0.8-2,1.3-3.1,1.3h-9.3v12.1
		c0,1.2-0.5,2.3-1.3,3.1c-0.8,0.8-2,1.3-3.1,1.3H189.4z M193.8,327.9h24.2v-7.7h-24.2V327.9z M180,311.4h51.7v-7.7H180V311.4z
		 M180,294.9h51.7v-7.7H180V294.9z"/>
	<path class="st1" d="M172.6,257.1c-0.7,0-1.4-0.2-2-0.5c-2.1-1.1-3-3.8-1.8-5.9c0.8-1.5,2.3-2.4,3.9-2.4c0.7,0,1.3,0.2,1.9,0.4
		l0.1,0.1c1,0.5,1.8,1.5,2.1,2.6c0.3,1.1,0.2,2.3-0.3,3.4C175.8,256.1,174.3,257.1,172.6,257.1z"/>
	<path class="st1" d="M172.9,182.8c-1.2,0-2.3-0.5-3.1-1.3c-0.8-0.8-1.3-2-1.3-3.1v-22c0-1.2,0.5-2.3,1.3-3.1c0.8-0.8,2-1.3,3.1-1.3
		h22c1.2,0,2.3,0.5,3.1,1.3c0.8,0.8,1.3,2,1.3,3.1v22c0,1.2-0.5,2.3-1.3,3.1c-0.8,0.8-2,1.3-3.1,1.3H172.9z M177.3,174h13.2v-13.2
		h-13.2V174z"/>
	<path class="st1" d="M216.8,232.2c-1.2,0-2.3-0.5-3.1-1.3c-0.8-0.8-1.3-2-1.3-3.1v-22c0-1.2,0.5-2.3,1.3-3.1c0.8-0.8,2-1.3,3.1-1.3
		h22c1.2,0,2.3,0.5,3.1,1.3c0.8,0.8,1.3,2,1.3,3.1v22c0,1.2-0.5,2.3-1.3,3.1c-0.8,0.8-2,1.3-3.1,1.3H216.8z M221.2,223.4h13.2v-13.2
		h-13.2V223.4z"/>
	<rect x="228.9" y="152" class="st1" width="8.8" height="8.8"/>
	<rect x="212.4" y="152" class="st1" width="8.8" height="8.8"/>
	<rect x="228.9" y="168.5" class="st1" width="8.8" height="8.8"/>
	<rect x="228.9" y="185" class="st1" width="8.8" height="8.8"/>
	<rect x="212.4" y="168.5" class="st1" width="8.8" height="8.8"/>
	<rect x="212.4" y="185" class="st1" width="8.8" height="8.8"/>
	<rect x="245.4" y="168.5" class="st1" width="8.8" height="8.8"/>
	<rect x="245.4" y="185" class="st1" width="8.8" height="8.8"/>
	<rect x="174" y="223.4" class="st1" width="8.8" height="8.8"/>
	<rect x="190.5" y="223.4" class="st1" width="8.8" height="8.8"/>
	<rect x="174" y="206.9" class="st1" width="8.8" height="8.8"/>
	<rect x="174" y="190.5" class="st1" width="8.8" height="8.8"/>
	<rect x="190.5" y="206.9" class="st1" width="8.8" height="8.8"/>
	<rect x="190.5" y="190.5" class="st1" width="8.8" height="8.8"/>
	<rect x="157.5" y="206.9" class="st1" width="8.8" height="8.8"/>
	<rect x="157.5" y="190.5" class="st1" width="8.8" height="8.8"/>
</g>
</svg>
