<?xml version="1.0" encoding="utf-8"?>
<!-- Generator: Adobe Illustrator 22.0.1, SVG Export Plug-In . SVG Version: 6.00 Build 0)  -->
<svg version="1.1" id="圖層_1" xmlns="http://www.w3.org/2000/svg" xmlns:xlink="http://www.w3.org/1999/xlink" x="0px" y="0px"
	 viewBox="0 0 411.7 411.7" style="enable-background:new 0 0 411.7 411.7;" xml:space="preserve">
<style type="text/css">
	.st0{fill:#B1871C;}
	.st1{fill:#FFFFFF;}
</style>
<g id="圖層_1_1_">
	<circle class="st0" cx="205.8" cy="205.8" r="205.8"/>
</g>
<g>
	<path class="st1" d="M183.8,100.8h-74.9c-4.9,0-8.8,4-8.8,8.8v74.9c0,4.9,4,8.8,8.8,8.8h74.9c4.9,0,8.8-4,8.8-8.8v-74.9
		C192.6,104.7,188.6,100.8,183.8,100.8z M185.4,186.1c-0.2,0.2-0.4,0.2-0.6,0.2h-77c-0.5,0-0.8-0.4-0.8-0.8v-77
		c0-0.5,0.4-0.8,0.8-0.8h77c0.5,0,0.8,0.4,0.8,0.8l0,77C185.7,185.7,185.6,185.9,185.4,186.1z"/>
	<path class="st1" d="M302.8,100.8h-74.9c-4.9,0-8.8,4-8.8,8.8v74.9c0,4.9,4,8.8,8.8,8.8h74.9c4.9,0,8.8-4,8.8-8.8v-74.9
		C311.6,104.7,307.7,100.8,302.8,100.8z M304.5,186.1c-0.2,0.2-0.4,0.2-0.6,0.2h-77c-0.5,0-0.8-0.4-0.8-0.8v-77
		c0-0.5,0.4-0.8,0.8-0.8h77c0.5,0,0.8,0.4,0.8,0.8l0,77C304.7,185.7,304.6,185.9,304.5,186.1z"/>
	<path class="st1" d="M183.8,218.4h-74.9c-4.9,0-8.8,4-8.8,8.8v74.9c0,4.9,4,8.8,8.8,8.8h74.9c4.9,0,8.8-4,8.8-8.8v-74.9
		C192.6,222.4,188.6,218.4,183.8,218.4z M185.4,303.8c-0.2,0.2-0.4,0.2-0.6,0.2h-77c-0.5,0-0.8-0.4-0.8-0.8v-77
		c0-0.5,0.4-0.8,0.8-0.8h77c0.5,0,0.8,0.4,0.8,0.8l0,77C185.7,303.4,185.6,303.6,185.4,303.8z"/>
	<path class="st1" d="M302.8,218.4h-74.9c-4.9,0-8.8,4-8.8,8.8v74.9c0,4.9,4,8.8,8.8,8.8h74.9c4.9,0,8.8-4,8.8-8.8v-74.9
		C311.6,222.4,307.7,218.4,302.8,218.4z M304.5,303.8c-0.2,0.2-0.4,0.2-0.6,0.2h-77c-0.5,0-0.8-0.4-0.8-0.8v-77
		c0-0.5,0.4-0.8,0.8-0.8h77c0.5,0,0.8,0.4,0.8,0.8l0,77C304.7,303.4,304.6,303.6,304.5,303.8z"/>
	<path class="st1" d="M169.5,261.7L132,240.3c-0.5-0.3-1.1-0.5-1.7-0.5c-0.6,0-1.2,0.2-1.7,0.5c-1.1,0.6-1.7,1.8-1.7,3v42.8
		c0,1.2,0.7,2.4,1.7,3c1,0.6,2.4,0.6,3.5,0l37.4-21.4c1.1-0.6,1.7-1.8,1.7-3C171.2,263.5,170.5,262.3,169.5,261.7z M159.5,265.4
		l-24.5,14c-0.1,0.1-0.3,0.1-0.4,0.1c-0.1,0-0.3,0-0.4-0.1c-0.3-0.1-0.4-0.4-0.4-0.7v-28c0-0.3,0.2-0.6,0.4-0.7
		c0.3-0.2,0.6-0.2,0.8,0l24.5,14c0.3,0.1,0.4,0.4,0.4,0.7C159.9,265,159.8,265.3,159.5,265.4z"/>
	<path class="st1" d="M167.7,122.2h-42.8c-4.9,0-8.8,4-8.8,8.8v21.4c0,4.9,4,8.8,8.8,8.8h8.9c0.2,0,0.4,0.1,0.6,0.2l14.8,14.8
		c0.8,0.8,2.1,1.2,3.2,0.9c1.2-0.3,2.1-1.1,2.5-2.3l4.4-13.1c0.1-0.3,0.4-0.6,0.8-0.6h7.6c4.9,0,8.8-4,8.8-8.8V131
		C176.5,126.1,172.6,122.2,167.7,122.2z M169.6,153.4c0,0.5-0.4,0.8-0.8,0.8H157c-1.5,0-2.8,1-3.3,2.4l-3.2,9.5
		c-0.1,0.3-0.3,0.5-0.6,0.5c-0.1,0-0.1,0-0.2,0c-0.2,0-0.4-0.1-0.6-0.2l-11.2-11.2c-0.6-0.6-1.5-1-2.4-1h-11.8
		c-0.5,0-0.8-0.4-0.8-0.8v-23.5c0-0.5,0.4-0.8,0.8-0.8h44.9c0.5,0,0.8,0.4,0.8,0.8V153.4z"/>
	<path class="st1" d="M281,122.3c-3.9,0-7.7,1.5-10.3,4.1l-4.8,4.8c-0.3,0.3-0.9,0.3-1.2,0l-4.8-4.8c-2.6-2.6-6.4-4.1-10.3-4.1
		c-3.9,0-7.7,1.5-10.3,4.1c-5.7,5.7-5.7,15,0,20.7l23.5,23.7c1.3,1.3,3.6,1.3,4.9,0l23.5-23.7c5.7-5.7,5.7-15,0-20.7
		C288.7,123.8,285,122.3,281,122.3z M286.4,142.3l-20.5,20.6c-0.2,0.2-0.4,0.2-0.6,0.2c-0.2,0-0.4-0.1-0.6-0.2l-20.5-20.6
		c-3-3-3-7.9,0-10.9c2.9-2.9,7.9-2.9,10.7,0l7.8,7.9c1.2,1.2,3.7,1.2,4.9,0l7.8-7.9c1.4-1.4,3.3-2.2,5.4-2.2s4,0.8,5.4,2.2
		C289.4,134.3,289.4,139.2,286.4,142.3z"/>
	<rect x="240.5" y="266.6" class="st1" width="6.9" height="23"/>
	<rect x="261.9" y="255.9" class="st1" width="6.9" height="33.7"/>
	<rect x="283.3" y="239.8" class="st1" width="6.9" height="49.7"/>
</g>
</svg>
