<?xml version="1.0" encoding="utf-8"?>
<!-- Generator: Adobe Illustrator 22.0.1, SVG Export Plug-In . SVG Version: 6.00 Build 0)  -->
<svg version="1.1" id="圖層_1" xmlns="http://www.w3.org/2000/svg" xmlns:xlink="http://www.w3.org/1999/xlink" x="0px" y="0px"
	 viewBox="0 0 411.7 411.7" style="enable-background:new 0 0 411.7 411.7;" xml:space="preserve">
<style type="text/css">
	.st0{fill:#B1871C;}
	.st1{fill:#FFFFFF;}
</style>
<g id="圖層_1_1_">
	<circle class="st0" cx="205.8" cy="205.8" r="205.8"/>
</g>
<g>
	<path class="st1" d="M182.9,349c-9.3,0-18.7,0-27.7-0.1c-7.8-0.1-13.1-5.6-13.3-13.7c0-1.6,0-3.3,0.1-4.9c0.1-4.2,0.2-8.6-1-12.9
		c-1.1-3.6-2.3-6.4-3.9-8.9l-0.1-0.2c-3.6-5.4-7.4-11-11.2-16.4c-4.4-6.2-6.7-13.2-7.1-21.5c-0.3-7,0.1-14.2,0.6-20.4
		c0.9-12,0.6-24.2,0.4-35.9l0-1.5c-0.1-6.4,1.1-12.2,3.5-17.4c4.7-9.7,7.7-20.6,9.6-34.3c0.9-6.1,6.2-10.7,12.5-10.7
		c0.8,0,1.5,0.1,2.3,0.2c0.7,0.1,1.1,0.2,1.5,0.2c0.7,0,1.2-0.2,1.6-0.6c0.5-0.5,0.7-1.3,0.7-2.7c-0.1-15.1-0.1-30.5-0.1-45.4
		c0,0,0-11.5,0-11.5c0-4.5,0.8-9.2,3.7-12.8c1.4-1.7,3.1-3,5-4c3.3-1.8,6.4-2.8,10.1-2.8c2.3,0,4.6,0,6.9,0c7.1,0,14.2,0,21.2,0
		c8.3,0,16.7,0,25,0c7.1,0,14.2,0,21.2,0c2.4,0,4.8,0,7.2,0c10,0,19,7.3,19,17.8c0,16.7,0,31.8,0,46.4c0,1.1,0,2,0.5,2.5
		c0.3,0.3,0.7,0.4,1.1,0.4c0.5,0,1-0.1,1.8-0.4c2.2-0.8,4.5-1.3,6.8-1.3c7.4,0,13.8,4.4,16.5,11.1c3.7,9.4-0.6,19.1-10.1,23.2
		c-4.2,1.8-9.1,3.9-14,5.8c-1.9,0.8-2.7,1.8-2.7,3.9l0,0.2c0.1,6.6,0.4,7,7.2,7c0,0,0.5,0,0.7,0c1,0,1.9,0,2.9-0.1
		c0.9,0,1.9-0.1,2.8-0.1c1.8,0,4.2,0.1,6.6,0.8c7.2,2.3,11.4,7.2,12.4,14.6c0.9,6.5-1.3,12-6.7,16.3c-0.1,0.1-0.2,0.2-0.3,0.2
		c-0.9,0.7-2.2,1.7-0.7,3.9c5.5,8.3,3.9,18-4,24.1c-1.4,1.1-1.8,1.9-0.6,3.7c4,5.9,4.5,12,1.3,18.2c-3.2,6.3-8.7,9.7-15.8,9.7
		c-3.9,0-6.2,0.8-8.2,4.9c-2.7,5.7-7.9,8.9-14.7,9c-2.2,0-3.6,0.7-5.1,2.5c-5.8,6.9-12.6,12.3-20,16.1c-3.1,1.6-4.4,3.8-4.3,7.2
		c0.1,4,0.1,8,0.1,11.9c0,1.5,0,3,0,4.4c0,8.1-5.5,13.8-13.4,13.9C201.3,349,191.9,349,182.9,349z M145.7,157.8
		c-3.1,0-5.3,2.2-5.8,5.7c-1.5,12.5-4.4,23.1-8.8,32.3c-2.7,5.6-4,11.5-3.9,17.4c0.1,7.2,0.2,14.9,0.2,22.4c0,4.9-0.3,9.9-0.6,14.7
		c-0.4,6.5-0.7,13.3-0.5,20c0.2,6,1.8,11.4,4.9,16c2.9,4.3,5.8,8.6,8.7,12.8l2.7,3.9c4.1,6,6.3,11.9,6.7,17.9c0.2,3,0.2,6,0.2,9
		c0,1.7,0,3.5,0,5.2c0.1,4,2.2,6.2,6.1,6.2c9,0,18,0,26.9,0c9.2,0,18.5,0,27.7,0c3.9,0,6-2.2,6-6.2l0-3c0-4.4,0-8.9,0-13.4
		c-0.1-6.2,2.5-10.6,7.8-13.6c5.4-3,10.1-6.4,14.7-10.8c0.2-0.2,0.3-0.6,0.2-0.8c-0.1-0.3-0.4-0.5-0.7-0.5H235c-6.3,0-12.8,0-19-0.1
		c-6.2,0-12.7-0.1-19-0.1c-10.3,0-18.7,0.1-26.5,0.2c-0.1,0-0.3,0-0.4,0c-5.3,0-10.2-2-13.7-5.7c-3.5-3.6-5.4-8.5-5.2-13.6
		c0.3-9.6,0.3-19.4,0.2-28.9c0-4.6-0.1-9.3-0.1-14c0-1.4-0.2-2.7-2.2-3.5c-1.5-0.6-2.4-1.6-2.6-2.9c-0.2-1.3,0.4-2.6,1.6-3.5
		c1.2-1,2.2-2.2,3.1-3.8c3-5.6,5.1-11.4,6.5-15.9c3.6-11.5,4.1-21.9,1.3-31.5c-1.8-6.4-5.7-10.3-11.3-11.7
		C146.9,157.9,146.3,157.8,145.7,157.8z M220.7,285.4c10.2,0,20.4,0,30.6,0c5,0,8.4-1.8,10.4-5.6c0.9-1.7,1.1-3-0.9-4.5
		c-4.2-3.1-6.7-7.5-7.2-12.5c-0.5-5,1.2-9.8,4.8-13.6c1.5-1.6,1.2-2.6,0-4c-6.3-7.1-6.4-17.1-0.1-23.9c1.7-1.8,1.3-2.9-0.1-4.4
		c-3.4-3.8-5.1-8.7-4.6-13.6c0.5-4.9,3-9.3,7.2-12.4c1.7-1.3,2.1-2.7,2.1-4.4c0-13.3,0-26.8,0-39.9c0,0,0-27.7,0-31.2
		c0-8.5,0-17.3,0-25.9c0-6.1-3.3-10.2-8.8-11c-0.7-0.1-1.6-0.2-2.6-0.2c-0.5,0-1,0-1.5,0c-0.5,0-1,0-1.4,0l-0.8,0
		c-4.6,0-5.1,0.3-5.2,5.8c-0.1,7.1-5.7,12.8-12.7,12.8c-6.2,0-12.5,0.1-18.7,0.1c-6.5,0-13,0-19.5-0.1c-6.3,0-11.7-4.9-12.6-11.4
		c-0.1-0.6,0-1.4,0.1-2.2c0.2-1.7,0.4-3.6-1.2-4.7c-2-1.2-4.9-0.7-7.2-0.6c-2.6,0.1-5.5,0.7-7.7,2.2c-3,2-4.3,5.6-4.3,9.1
		c0,14.5,0,29.2,0,43.4c0,6.8,0,13.7,0,20.5c0,1,0,2.2,1.1,3.3c5.8,6,8.4,13.9,8.1,25.1c-0.3,12-3.1,23.9-8.2,35.5
		c-0.7,1.5-1,3-1,4.5c0,9.4,0,18.8,0,28.2c0,8,0,16,0,24c0,7.3,4,11.3,11.4,11.4c2.2,0,4.4,0,6.6,0c2,0,4,0,6,0c2,0,4,0,6,0
		L220.7,285.4z M272,251.1c-0.4,0-0.8,0-1.2,0c-5.3,0.4-9.4,4.4-9.6,9.7c-0.2,5.1,3.7,9.7,8.6,10.4c1.2,0.2,2.5,0.2,3.9,0.2
		c0,0,0,0,0,0c1.3,0,2.6-0.1,3.9-0.2c4.4-0.5,8.1-4.2,8.6-8.5c0.5-5.1-1.9-9.2-6.4-11c-1.4-0.5-2.7-0.6-3.9-0.6c-0.2,0-1.1,0-1.3,0
		c-0.2,0-0.4,0-0.7,0c-0.3,0-0.6,0-1,0C272.7,251.1,272.3,251.1,272,251.1z M274.6,243.4c0.4,0,0.8,0,1.1,0.1c0,0,0.1,0,0.1,0
		c0.6,0,1.2,0,1.8,0c0.5,0,1,0,1.5,0c0.6,0,1.2,0,1.8,0c5.6-0.2,9.9-4.3,10.2-9.8c0.3-5.2-3.6-9.7-8.9-10.4c-2-0.3-4-0.4-6-0.4
		c-2,0-4,0.1-5.9,0.4c-5,0.7-8.6,4.5-8.9,9.5c-0.3,4.7,2.9,8.9,7.8,10.4c1.2,0.3,2.3,0.4,3.1,0.4c0.4,0,0.8,0,1.2,0
		C273.8,243.4,274.2,243.4,274.6,243.4z M278.5,195c-2.3,0-4.7,0-7.2,0.1c-5.5,0.2-9.7,4.2-10.1,9.6c-0.4,5.2,3.2,9.5,8.6,10.6
		c1,0.2,2.1,0.3,3.4,0.3c0.6,0,1.3,0,1.9,0c0.6,0,1.1,0,1.7,0c0.4,0,0.8,0,1.1,0c0.9,0,1.8,0,2.6,0c0.7,0,1.5,0,2.2,0
		c1,0,1.8,0,2.6,0c5.8-0.2,10.2-4.5,10.3-9.9c0.1-5.8-4.2-10.3-10-10.5C283.3,195,280.9,195,278.5,195z M280.6,144
		c-0.7,0-1.5,0.1-2.2,0.2c-6.6,1.3-7.9,2.8-7.8,9.5l0,4.1c0,0.8,0,1.7,0,2.5c0,2,0,4.1,0,6.2c0,0.6,0,1.3,0.5,1.7
		c0.2,0.2,0.5,0.4,0.9,0.4c0.3,0,0.7-0.1,1.3-0.3c1.8-0.8,3.6-1.5,5.4-2.2c2-0.8,4.1-1.7,6.1-2.5c5-2.2,7.4-7.6,5.7-12.7
		C289,146.6,285.1,144,280.6,144z M188.7,78.5c-1,0-1.5,0.6-1.7,1c-1.1,2.1-1,4.6,0.2,6.7c1.2,2.1,3.3,3.3,5.6,3.4c1,0,2.2,0,3.5,0
		c0.9,0,1.9,0,2.8,0c0.9,0,1.8,0,2.7,0l14.7,0c3.8,0,7.7,0,11.5,0c5.1,0,6.8-1.7,6.8-6.8c0-0.2,0-0.4,0-0.6c0-0.3,0-0.7,0-1
		c0.1-0.9,0-1.6-0.4-2.1c-0.6-0.6-1.5-0.7-2.3-0.7l-0.1,0c-3,0-6.1,0-10.2,0c-1.9,0-9.3,0-11.1,0l-9.4,0c-3.9,0-7.8,0-11.6,0
		c-0.1,0-0.3,0-0.4,0C189.2,78.5,189,78.5,188.7,78.5z"/>
	<path class="st1" d="M209.9,274.3l-9.6,0c-2.5,0-5,0-7.5,0c-1.9,0-4.3-0.6-4.4-3.6c-0.1-1.1,0.3-2,0.9-2.7c0.8-0.8,1.9-1.3,3.4-1.3
		c6.2,0,12.4-0.1,18.5-0.1c5.9,0,11.9,0,17.8,0.1c1.4,0,2.6,0.4,3.4,1.3c0.7,0.7,1,1.7,0.9,2.7c-0.2,3.1-2.8,3.5-4.4,3.6
		c-2.4,0-4.9,0-7.3,0L209.9,274.3z"/>
	<path class="st1" d="M173.6,157.8c-0.1,0-0.2,0-0.3,0c-2.2-0.2-3.4-1.7-3.4-4.3c0-2.6,0-5.2,0-7.8l0-3.4c0-1.1,0-2.3,0-3.4
		c0-2.5,0-5.2,0-7.8c0-1.8,0.6-4,3.5-4.1c0.1,0,0.2,0,0.3,0c2.3,0,3.8,1.5,3.9,3.8c0.1,7.9,0.1,15.7,0,23.2
		C177.4,156.2,175.8,157.8,173.6,157.8z"/>
	<path class="st1" d="M173.6,115.8c-0.1,0-0.3,0-0.4,0c-2.1-0.2-3.3-1.6-3.4-4c0-0.5,0-1,0-1.4l0-1c0-0.4,0-0.7,0-1.1
		c0-3,1.4-4.7,3.8-4.7l0.1,0c2.3,0,3.8,1.8,3.9,4.5l0,0.4c0,1.3,0.1,2.6-0.1,3.9C177.2,114.6,175.8,115.8,173.6,115.8z"/>
	<path class="st1" d="M194.5,330.3c-2.6,0-5.2-0.1-7.8-0.3c-2.1-0.2-3-2-2.9-3.8c0.1-1.9,1.5-3.4,3.4-3.5c0.9,0,1.8-0.1,3-0.1
		c0.7,0,1.5,0,2.2,0c0.7,0,1.5,0,2.2,0l0.2,0c0.7,0,1.4,0,2.1,0c0.7,0,1.5,0,2.2,0c1,0,1.9,0,2.7,0c2,0.1,3.5,1.6,3.6,3.6
		c0.1,1.7-1.2,3.6-3.1,3.7C199.7,330.2,197.1,330.3,194.5,330.3z"/>
	<path class="st1" d="M166.4,330.2c-0.7,0-1.5,0-2.2-0.1c-2.3-0.2-3.8-1.7-3.6-4c0.1-2.1,1.6-3.4,4-3.4c0.3,0,0.5,0,0.8,0
		c0.2,0,1,0,1.2,0c0.1,0,0.1,0,0.2,0c0.3,0,0.6,0,0.9,0c0.3,0,0.6,0,0.8,0c0.4,0,0.7,0,1,0c2,0.2,3.3,1.5,3.4,3.5
		c0.1,2.1-1.1,3.6-3,3.8C168.7,330.2,167.5,330.2,166.4,330.2z"/>
</g>
</svg>
