<?xml version="1.0" encoding="utf-8"?>
<!-- Generator: Adobe Illustrator 24.0.1, SVG Export Plug-In . SVG Version: 6.00 Build 0)  -->
<svg version="1.1" id="四色版" xmlns="http://www.w3.org/2000/svg" xmlns:xlink="http://www.w3.org/1999/xlink" x="0px" y="0px"
	 viewBox="0 0 29.8 76.5" style="enable-background:new 0 0 29.8 76.5;" xml:space="preserve">
<style type="text/css">
	.st0{fill:#FFFFFF;}
	.st1{opacity:0.4;fill:#FFFFFF;}
</style>
<g>
	<path class="st0" d="M29.3,42c0,1.8-1.5,3.3-3.3,3.3c-1.8,0-3.3-1.5-3.3-3.3c0-1.8,1.5-3.3,3.3-3.3C27.9,38.7,29.3,40.2,29.3,42z"
		/>
	<path class="st1" d="M9.1,22.8c0,2.4-1.9,4.3-4.3,4.3c-2.4,0-4.3-1.9-4.3-4.3s1.9-4.3,4.3-4.3C7.2,18.5,9.1,20.4,9.1,22.8z"/>
	<path class="st0" d="M22.9,9.9c0,1.7-1.4,3.1-3.1,3.1c-1.7,0-3.1-1.4-3.1-3.1s1.4-3.1,3.1-3.1C21.5,6.8,22.9,8.2,22.9,9.9z"/>
	<path class="st1" d="M26,57.5c0.3,2.2-1.2,4.3-3.4,4.6c-2.2,0.3-4.3-1.2-4.6-3.4c-0.3-2.2,1.2-4.3,3.4-4.6
		C23.6,53.7,25.7,55.3,26,57.5z"/>
	<path class="st0" d="M16.2,60c0.4,2.6-1.4,5-3.9,5.3c-2.6,0.4-5-1.4-5.3-3.9c-0.4-2.6,1.4-5,3.9-5.3C13.4,55.7,15.8,57.4,16.2,60z"
		/>
	<path class="st1" d="M17.1,2.4c0.2,1.1-0.6,2.2-1.7,2.4C14.3,5,13.2,4.2,13,3c-0.2-1.1,0.6-2.2,1.7-2.4C15.9,0.5,17,1.3,17.1,2.4z"
		/>
	<circle class="st0" cx="17.1" cy="72.9" r="3"/>
	<circle class="st1" cx="21.3" cy="67.7" r="1.6"/>
	<circle class="st1" cx="18.6" cy="46.3" r="1.6"/>
	<path class="st1" d="M16.7,49.7c1,0.9,1.1,2.4,0.2,3.5c-0.9,1-2.4,1.1-3.5,0.2c-1-0.9-1.1-2.4-0.2-3.5C14.1,49,15.7,48.9,16.7,49.7
		z"/>
</g>
</svg>
