<?xml version="1.0" encoding="utf-8"?>
<!-- Generator: Adobe Illustrator 24.0.1, SVG Export Plug-In . SVG Version: 6.00 Build 0)  -->
<svg version="1.1" id="分離模式" xmlns="http://www.w3.org/2000/svg" xmlns:xlink="http://www.w3.org/1999/xlink" x="0px"
	 y="0px" viewBox="0 0 781.4 416.4" style="enable-background:new 0 0 781.4 416.4;" xml:space="preserve">
<style type="text/css">
	.st0{display:none;}
	.st1{fill:#FFFFFF;}
	.st2{opacity:0.4;fill:#FFFFFF;}
	.st3{fill:none;stroke:#FFFFFF;stroke-width:3;stroke-miterlimit:10;}
	.st4{opacity:0.2;fill:none;stroke:#FFFFFF;stroke-width:3;stroke-miterlimit:10;}
</style>
<g id="aJrmCS_1_" class="st0">
	
		<image style="display:inline;overflow:visible;" width="750" height="514" id="aJrmCS_2_" xlink:href="FB0AFE1D7C478CD6.jpg"  transform="matrix(1 0 0 1 -129.6407 -44.1827)">
	</image>
</g>
<g>
	<path class="st1" d="M562.6,252.1c0-7,5.6-12.6,12.6-12.6c7,0,12.6,5.6,12.6,12.6c0,7-5.6,12.6-12.6,12.6
		C568.2,264.7,562.6,259.1,562.6,252.1z"/>
	<path class="st2" d="M640.3,325.8c0-9.2,7.5-16.7,16.7-16.7c9.2,0,16.7,7.5,16.7,16.7c0,9.2-7.5,16.7-16.7,16.7
		C647.8,342.4,640.3,335,640.3,325.8z"/>
	<path class="st1" d="M587.5,375.2c0-6.6,5.3-11.9,11.9-11.9c6.6,0,11.9,5.3,11.9,11.9s-5.3,11.9-11.9,11.9
		C592.8,387.1,587.5,381.8,587.5,375.2z"/>
	<path class="st2" d="M575.4,192.5c-1.3-8.5,4.6-16.5,13.1-17.7c8.5-1.3,16.5,4.6,17.7,13.1c1.3,8.5-4.6,16.5-13.1,17.7
		C584.6,206.8,576.7,201,575.4,192.5z"/>
	<path class="st1" d="M613,182.7c-1.5-9.9,5.3-19.1,15.2-20.6c9.9-1.5,19.1,5.3,20.6,15.2c1.5,9.9-5.3,19.1-15.2,20.6
		C623.7,199.4,614.5,192.6,613,182.7z"/>
	<path class="st2" d="M609.4,404.1c-0.7-4.4,2.3-8.4,6.7-9.1c4.4-0.7,8.4,2.3,9.1,6.7c0.7,4.4-2.3,8.4-6.7,9.1
		C614.2,411.5,610.1,408.5,609.4,404.1z"/>
	<circle class="st1" cx="609.7" cy="133.1" r="11.4"/>
	<circle class="st2" cx="593.4" cy="153" r="6"/>
	<circle class="st2" cx="603.7" cy="235.4" r="6"/>
	<path class="st2" d="M611.1,222.2c-3.9-3.4-4.3-9.4-0.9-13.3c3.4-3.9,9.4-4.3,13.3-0.9c3.9,3.4,4.3,9.4,0.9,13.3
		C621,225.2,615.1,225.6,611.1,222.2z"/>
	<path class="st2" d="M69.8,189.1c-2.6-17.2,9.2-33.3,26.5-35.9c17.2-2.6,33.3,9.2,35.9,26.5c2.6,17.2-9.2,33.3-26.5,35.9
		C88.4,218.2,72.4,206.3,69.8,189.1z"/>
	<path class="st2" d="M674.5,173.4c-4.3-28.4,15.2-54.9,43.6-59.2c28.4-4.3,54.9,15.2,59.2,43.6c4.3,28.4-15.2,54.9-43.6,59.2
		C705.3,221.4,678.8,201.8,674.5,173.4z"/>
	<path class="st1" d="M6,118.8c-0.6-4,2.2-7.8,6.2-8.4c4-0.6,7.8,2.2,8.4,6.2c0.6,4-2.2,7.8-6.2,8.4C10.4,125.6,6.7,122.8,6,118.8z"
		/>
	<path class="st3" d="M15.3,155.2c-0.6-4,2.2-7.8,6.2-8.4c4-0.6,7.8,2.2,8.4,6.2c0.6,4-2.2,7.8-6.2,8.4
		C19.7,162.1,15.9,159.3,15.3,155.2z"/>
	<path class="st4" d="M564,105.2c-6.9-46,24.7-88.9,70.7-95.9c46-6.9,88.9,24.7,95.9,70.7c6.9,46-24.7,88.9-70.7,95.9
		C613.9,182.9,570.9,151.2,564,105.2z"/>
</g>
</svg>
