<?xml version="1.0" encoding="utf-8"?>
<!-- Generator: Adobe Illustrator 24.0.1, SVG Export Plug-In . SVG Version: 6.00 Build 0)  -->
<svg version="1.1" id="四色版" xmlns="http://www.w3.org/2000/svg" xmlns:xlink="http://www.w3.org/1999/xlink" x="0px" y="0px"
	 viewBox="0 0 48.2 55.4" style="enable-background:new 0 0 48.2 55.4;" xml:space="preserve">
<style type="text/css">
	.st0{fill:#FFFFFF;}
	.st1{opacity:0.4;fill:#FFFFFF;}
</style>
<g>
	<path class="st0" d="M44.1,7.3c0.4,2.6-1.4,5.1-4,5.5c-2.6,0.4-5.1-1.4-5.5-4c-0.4-2.6,1.4-5.1,4-5.5C41.3,2.8,43.7,4.6,44.1,7.3z"
		/>
	<path class="st0" d="M17.2,20.5c0.5,3.6-2,7-5.6,7.6c-3.6,0.5-7-2-7.6-5.6c-0.5-3.6,2-7,5.6-7.6C13.3,14.4,16.7,16.9,17.2,20.5z"/>
	<ellipse transform="matrix(0.5899 -0.8075 0.8075 0.5899 -8.35 31.9585)" class="st1" cx="27.3" cy="24.2" rx="4.1" ry="4.1"/>
	<path class="st0" d="M29.7,36c0.4,2.6-1.4,5-3.9,5.3c-2.6,0.4-5-1.4-5.3-3.9c-0.4-2.6,1.4-5,3.9-5.3C26.9,31.7,29.3,33.4,29.7,36z"
		/>
	<path class="st1" d="M37,41.1c0.2,1.1-0.6,2.2-1.7,2.4c-1.1,0.2-2.2-0.6-2.4-1.7c-0.2-1.1,0.6-2.2,1.7-2.4
		C35.8,39.1,36.8,39.9,37,41.1z"/>
	<path class="st0" d="M41.5,48.8c0.2,1.6-0.9,3.1-2.5,3.4c-1.6,0.2-3.1-0.9-3.4-2.5c-0.2-1.6,0.9-3.1,2.5-3.4
		C39.7,46.1,41.2,47.2,41.5,48.8z"/>
	<path class="st1" d="M43.5,43.3c0.1,0.9-0.5,1.7-1.3,1.8c-0.9,0.1-1.6-0.5-1.8-1.3c-0.1-0.9,0.5-1.7,1.3-1.8
		C42.6,41.8,43.4,42.4,43.5,43.3z"/>
</g>
</svg>
