<?xml version="1.0" encoding="utf-8"?>
<!-- Generator: Adobe Illustrator 24.0.1, SVG Export Plug-In . SVG Version: 6.00 Build 0)  -->
<svg version="1.1" id="分離模式" xmlns="http://www.w3.org/2000/svg" xmlns:xlink="http://www.w3.org/1999/xlink" x="0px"
	 y="0px" viewBox="0 0 30.2 77.4" style="enable-background:new 0 0 30.2 77.4;" xml:space="preserve">
<style type="text/css">
	.st0{fill:#FFFFFF;}
	.st1{opacity:0.4;fill:#FFFFFF;enable-background:new    ;}
</style>
<path class="st0" d="M26,38.8c-1.8,0-3.3-1.5-3.3-3.3s1.5-3.3,3.3-3.3s3.3,1.5,3.3,3.3S27.8,38.8,26,38.8z"/>
<path class="st1" d="M4.8,58.9c-2.4,0-4.3-1.9-4.3-4.3c0-2.4,1.9-4.3,4.3-4.3s4.3,1.9,4.3,4.3C9.1,57,7.2,59,4.8,58.9z"/>
<path class="st0" d="M19.7,70.6c-1.7,0-3.1-1.4-3.1-3.1c0-1.7,1.4-3.1,3.1-3.1s3.1,1.4,3.1,3.1C22.8,69.2,21.5,70.6,19.7,70.6z"/>
<path class="st1" d="M21.4,23.4c-2.2-0.3-3.7-2.4-3.4-4.6c0.3-2.2,2.4-3.7,4.6-3.4s3.7,2.4,3.4,4.6S23.6,23.7,21.4,23.4z"/>
<path class="st0" d="M10.9,21.3C8.4,21,6.6,18.6,7,16c0.3-2.5,2.7-4.3,5.3-3.9c2.5,0.3,4.3,2.7,3.9,5.3C15.8,20,13.4,21.8,10.9,21.3
	z"/>
<path class="st1" d="M14.7,76.7c-1.1-0.2-1.9-1.3-1.7-2.4c0.2-1.1,1.3-1.9,2.4-1.7c1.1,0.2,1.9,1.3,1.7,2.4
	C17,76.1,15.9,76.9,14.7,76.7z"/>
<circle class="st0" cx="17.1" cy="4.5" r="3"/>
<circle class="st1" cx="21.3" cy="9.7" r="1.6"/>
<circle class="st1" cx="18.6" cy="31.1" r="1.6"/>
<path class="st1" d="M13.2,27.5c-0.9-1.1-0.8-2.6,0.2-3.5c1.1-0.9,2.6-0.8,3.5,0.2c0.9,1.1,0.8,2.6-0.2,3.5
	C15.7,28.6,14.1,28.5,13.2,27.5z"/>
</svg>
