<?xml version="1.0" encoding="utf-8"?>
<!-- Generator: Adobe Illustrator 24.0.1, SVG Export Plug-In . SVG Version: 6.00 Build 0)  -->
<svg version="1.1" id="圖層_2" xmlns="http://www.w3.org/2000/svg" xmlns:xlink="http://www.w3.org/1999/xlink" x="0px" y="0px"
	 viewBox="0 0 33.3 20.3" style="enable-background:new 0 0 33.3 20.3;" xml:space="preserve">
<style type="text/css">
	.st0{fill:#FFFFFF;}
</style>
<g>
	<path class="st0" d="M29.7,8.1c-2.1-2.7-7.3-7.3-13-7.3c-5.7,0-10.9,4.6-13,7.3c-0.5,0.6-0.7,1.3-0.8,2c0,0.7,0.3,1.4,0.8,2
		c2.1,2.7,7.3,7.3,13,7.3s10.9-4.6,13-7.3c0.5-0.6,0.8-1.3,0.8-2C30.4,9.5,30.2,8.8,29.7,8.1z M16.7,16.2c-3.4,0-6.1-2.7-6.1-6.1
		S13.3,4,16.7,4s6.1,2.7,6.1,6.1S20,16.2,16.7,16.2z"/>
</g>
</svg>
