<?xml version="1.0" encoding="utf-8"?>
<!-- Generator: Adobe Illustrator 24.0.1, SVG Export Plug-In . SVG Version: 6.00 Build 0)  -->
<svg version="1.1" id="GIFT" xmlns="http://www.w3.org/2000/svg" xmlns:xlink="http://www.w3.org/1999/xlink" x="0px" y="0px"
	 viewBox="0 0 134 133" style="enable-background:new 0 0 134 133;" xml:space="preserve">
<style type="text/css">
	.st0{fill:#043988;}
</style>
<g>
	<path class="st0" d="M96.1,46.9h-6.5c3.6-3.4,4.3-9,1.6-13.4c-2-3.1-5.3-5-9-5c-2,0-4,0.6-5.7,1.7c-3.8,2.4-7.8,11.4-9.5,15.5
		c-1.7-4.1-5.7-13.2-9.5-15.5c-1.7-1.1-3.7-1.7-5.7-1.7c-3.7,0-7.1,1.9-9,5c-2.7,4.3-2,9.9,1.6,13.4h-6.5c-1.1,0-1.9,0.9-1.9,1.9
		v16.5c0,1.1,0.9,1.9,1.9,1.9H39v35.2c0,1.1,0.9,1.9,1.9,1.9h19h14.2h19c1.1,0,1.9-0.9,1.9-1.9V67.3h1.1c1.1,0,1.9-0.9,1.9-1.9V48.9
		C98,47.8,97.2,46.9,96.1,46.9z M94.2,63.4h-1.1H76V50.8h18.1V63.4z M72.2,50.8v12.6H61.8V50.8H72.2z M78.5,33.5
		c1.1-0.7,2.3-1.1,3.6-1.1c2.3,0,4.5,1.2,5.8,3.2c2,3.2,1.1,7.4-2.1,9.4c-0.7,0.4-3,1.4-10.7,1.4c-1.5,0-3,0-4.1-0.1
		C73.1,41.3,76.3,34.9,78.5,33.5z M46.1,35.6c1.3-2,3.4-3.2,5.8-3.2c1.3,0,2.5,0.4,3.6,1.1c2.2,1.4,5.4,7.8,7.6,12.8
		c-1.2,0-2.6,0.1-4.1,0.1h0c-7.6,0-10-1-10.7-1.4C45,43,44.1,38.8,46.1,35.6z M39.8,50.8H58v12.6h-17h-1.1V50.8z M42.9,67.3H58v33.3
		H42.9V67.3z M61.8,100.5V67.3h10.3v33.3H61.8z M91.1,100.5H76V67.3h15.1V100.5z"/>
	<g>
		<g>
			<path class="st0" d="M67.3,130.3c-8.6,0-17-1.7-24.8-5c-7.6-3.2-14.4-7.8-20.3-13.7c-5.9-5.9-10.5-12.7-13.7-20.3
				c-3.3-7.9-5-16.2-5-24.8c0-8.6,1.7-17,5-24.8c3.2-7.6,7.8-14.4,13.7-20.3c5.9-5.9,12.7-10.5,20.3-13.7c7.9-3.3,16.2-5,24.8-5
				c8.6,0,17,1.7,24.8,5c0.1,0,0.2,0.1,0.3,0.1l0.1,0.1c0.6,0.3,1.1,0.8,1.3,1.4c0.2,0.6,0.2,1.4-0.2,2l-0.1,0.2
				c-0.6,1.1-2,1.6-3.1,1.1c-7.4-3.2-15.2-4.8-23.2-4.8C35,7.8,8.6,34.1,8.6,66.5c0,32.4,26.3,58.7,58.7,58.7
				c25.3,0,47.7-16.1,55.7-40.2c0.3-1,1.3-1.7,2.3-1.7h0.2c0.8,0,1.5,0.4,2,1c0.5,0.6,0.6,1.5,0.3,2.2c-0.5,1.6-1.1,3.2-1.8,4.7
				c-3.2,7.6-7.8,14.4-13.7,20.3c-5.9,5.9-12.7,10.5-20.3,13.7C84.3,128.6,76,130.3,67.3,130.3z"/>
		</g>
		<g>
			<path class="st0" d="M107,22.4c-0.6,0-1.1-0.2-1.6-0.6c-2.6-2.2-5.4-4.2-8.3-5.9c-1.1-0.7-1.5-2.1-0.9-3.3l0.1-0.2
				c0.3-0.6,0.9-1,1.5-1.2c0.6-0.2,1.3-0.1,1.9,0.2c3.2,1.9,6.2,4,9.1,6.5c0.5,0.5,0.9,1.1,0.9,1.8c0,0.7-0.3,1.4-0.8,1.9l-0.1,0.1
				C108.1,22.1,107.6,22.4,107,22.4z"/>
		</g>
		<g>
			<path class="st0" d="M128,59.8h-0.2c-1.2,0-2.3-0.9-2.4-2.1c-1.5-10-5.6-19.4-11.9-27.4c-0.8-1-0.7-2.5,0.3-3.3l0.1-0.1
				c0.5-0.5,1.2-0.7,1.9-0.6c0.7,0.1,1.3,0.4,1.7,0.9c3.5,4.4,6.4,9.3,8.6,14.5c2.1,4.9,3.5,10.1,4.3,15.3c0.1,0.7-0.1,1.4-0.6,2
				C129.4,59.5,128.7,59.8,128,59.8z"/>
		</g>
	</g>
</g>
</svg>
