<?xml version="1.0" encoding="utf-8"?>
<!-- Generator: Adobe Illustrator 24.0.1, SVG Export Plug-In . SVG Version: 6.00 Build 0)  -->
<svg version="1.1" id="圖層_3" xmlns="http://www.w3.org/2000/svg" xmlns:xlink="http://www.w3.org/1999/xlink" x="0px" y="0px"
	 viewBox="0 0 32 33" style="enable-background:new 0 0 32 33;" xml:space="preserve">
<style type="text/css">
	.st0{fill:#FFFFFF;}
	.st1{fill:#609DE9;}
</style>
<g>
	<g>
		<circle class="st0" cx="16" cy="16.5" r="15.4"/>
	</g>
	<g id="_235249872">
		<g>
			<path class="st1" d="M9.9,17.2c-0.4,0-0.8-0.3-0.8-0.8v-4.1c0-0.4,0.3-0.8,0.8-0.8h10.5l-1.3-1.3c-0.3-0.3-0.3-0.8,0-1.1
				s0.8-0.3,1.1,0l2.6,2.6c0.2,0.2,0.3,0.5,0.2,0.8s-0.4,0.5-0.7,0.5H10.6v3.4C10.6,16.9,10.3,17.2,9.9,17.2z"/>
		</g>
		<g>
			<path class="st1" d="M12.4,23.9c-0.2,0-0.4-0.1-0.5-0.2l-2.6-2.6c-0.2-0.2-0.3-0.5-0.2-0.8s0.4-0.5,0.7-0.5h11.6v-3.4
				c0-0.4,0.3-0.8,0.8-0.8s0.8,0.3,0.8,0.8v4.1c0,0.4-0.3,0.8-0.8,0.8H11.7l1.3,1.3c0.3,0.3,0.3,0.8,0,1.1
				C12.8,23.8,12.6,23.9,12.4,23.9z"/>
		</g>
	</g>
</g>
</svg>
