<?xml version="1.0" encoding="utf-8"?>
<!-- Generator: Adobe Illustrator 24.0.1, SVG Export Plug-In . SVG Version: 6.00 Build 0)  -->
<svg version="1.1" id="圖層_3" xmlns="http://www.w3.org/2000/svg" xmlns:xlink="http://www.w3.org/1999/xlink" x="0px" y="0px"
	 viewBox="0 0 24 35.6" style="enable-background:new 0 0 24 35.6;" xml:space="preserve">
<style type="text/css">
	.st0{fill:#FFFFFF;}
	.st1{fill:#609DE9;}
</style>
<g>
	<g>
		<g>
			<polygon class="st0" points="0.8,1.4 0.8,33.4 2,34.3 5.3,31.6 8.6,34.3 12,31.6 15.3,34.3 18.7,31.6 22,34.3 23.2,33.3 
				23.2,1.4 			"/>
		</g>
	</g>
	<g>
		<path class="st1" d="M20.2,8.8H3.8c-0.3,0-0.5-0.2-0.5-0.5s0.2-0.5,0.5-0.5h16.4c0.3,0,0.5,0.2,0.5,0.5S20.5,8.8,20.2,8.8z"/>
	</g>
	<g>
		<path class="st1" d="M20.2,14.4H3.8c-0.3,0-0.5-0.2-0.5-0.5s0.2-0.5,0.5-0.5h16.4c0.3,0,0.5,0.2,0.5,0.5S20.5,14.4,20.2,14.4z"/>
	</g>
	<g>
		<path class="st1" d="M13.7,19.9H3.8c-0.3,0-0.5-0.2-0.5-0.5s0.2-0.5,0.5-0.5h9.9c0.3,0,0.5,0.2,0.5,0.5S14,19.9,13.7,19.9z"/>
	</g>
</g>
</svg>
