<?xml version="1.0" encoding="utf-8"?>
<!-- Generator: Adobe Illustrator 24.0.1, SVG Export Plug-In . SVG Version: 6.00 Build 0)  -->
<svg version="1.1" id="圖層_2_1_" xmlns="http://www.w3.org/2000/svg" xmlns:xlink="http://www.w3.org/1999/xlink" x="0px"
	 y="0px" viewBox="0 0 453.5 144.4" style="enable-background:new 0 0 453.5 144.4;" xml:space="preserve">
<style type="text/css">
	.st0{fill:#FFFFFF;}
</style>
<g>
	<g>
		<g>
			<g>
				<path class="st0" d="M120.5,52c-1.7-1.1-3.7-1.1-5.8-0.1c-3.2,1.6-6.1,4.7-8.1,8.9c-2.1,4.4-3.2,9.5-3.2,15
					c0,5.7,1.9,10.2,5.3,12.3c1.3,0.8,2.7,1.2,4.1,1.2c1.2,0,2.4-0.3,3.6-0.9c5.7-2.8,8.2-11,8.2-11.1l-2.4-0.6c0,0.1-3,6.5-6.4,8.2
					c-1.1,0.5-2.1,0.6-2.9,0.1c-1.9-1.2-3-5.5-3-12.4l0-0.1l15.7-7.7C125.7,59.2,123.6,53.9,120.5,52 M110.1,68.8
					c0.3-3.8,1-7.3,2-9.9c0.9-2.3,2.1-3.8,3.2-4.4c0.5-0.3,1-0.2,1.5,0c1.5,0.9,2.5,4.8,2.5,9.7L110.1,68.8z M99.5,60.2L95,87
					l-5.1-22.1l-4.7,2.3L80.7,94l-5.1-22.1l-5.5,2.7l7.3,32.1l5.2-2.5l4.3-25.6l4.8,21.1l5.2-2.5l6.5-38.8L99.5,60.2z M67.1,78
					c-1.6-1-3.7-1-5.8,0c-3,1.5-4.5,3.7-5.2,4.9V63.3l-6.6,3.2v53.7l6.6-3.2V91c0-2.2,0.5-4.4,1.6-6.3c0.8-1.5,1.7-2.5,2.6-2.9
					c0.7-0.3,1.2-0.3,1.7-0.1c1.2,0.7,1.3,3.2,1.3,4.6l0,27.2l6.6-3.2V84.7C69.9,81.5,68.9,79.2,67.1,78 M45.1,114.4
					c0,0.1-3,6.5-6.4,8.2c-1.1,0.5-2.1,0.6-2.9,0.1c-1.9-1.2-3-5.5-3-12.4c0-3.7,0.4-7.4,1.5-10.9c0.9-2.7,2.4-6.2,5.4-7.1
					c2.1-0.7,4.2,0.2,5.9,1.5c0-0.7,0-4,0-4c0,0-0.8-0.7-2.1-1c-1.2-0.3-3.3-0.4-5.8,0.8c-3.2,1.6-6.1,4.7-8.1,8.9
					c-2.1,4.4-3.2,9.5-3.2,15c0,5.7,1.9,10.2,5.3,12.3c1.3,0.8,2.7,1.2,4.1,1.2c1.2,0,2.4-0.3,3.6-0.9c5.7-2.8,8.2-11,8.2-11.1
					L45.1,114.4z M194.7,15.8c-1.7-1.1-3.7-1.1-5.8-0.1c-3.2,1.6-6.1,4.7-8.1,8.9c-2.1,4.4-3.2,9.5-3.2,15c0,5.7,1.9,10.2,5.3,12.3
					c1.3,0.8,2.7,1.2,4.1,1.2c1.2,0,2.4-0.3,3.6-0.9c5.7-2.8,8.2-11,8.2-11.1l0-0.1l-2.4-0.6l0,0.1c0,0.1-3,6.5-6.4,8.2
					c-1.1,0.5-2.1,0.6-2.9,0.1c-1.9-1.2-3-5.5-3-12.4l0-0.1l15.7-7.7v0C199.8,23,197.7,17.7,194.7,15.8 M184.3,32.6
					c0.3-3.8,1-7.3,2-9.9c0.9-2.3,2.1-3.8,3.2-4.4c0.3-0.1,0.5-0.2,0.7-0.2c0.3,0,0.5,0.1,0.8,0.2c1.5,0.9,2.5,4.8,2.5,9.7
					L184.3,32.6z M145.3,39.7c-1.6-1-3.4-1-5.4,0c-2,1-4,3.6-5.4,7l0-3.5l-6.4,3.1v52.8l6.4-3.1V72.3c1,2,2.4,3.4,3.9,3.9
					c1.3,0.4,2.6,0.3,4-0.4c2.6-1.3,4.8-4.1,6.3-8.1c1.4-3.6,2.1-8.1,2.1-12.7c0-3.2-0.5-6.5-1.4-9.2
					C148.4,42.8,147,40.7,145.3,39.7 M140,72.2c-0.7,0.4-1.5,0.5-2.2,0.1c-2-1.3-3.3-6.3-3.3-12.9c0-3,0.1-6.1,0.8-9
					c0.4-2,2.3-7.8,5.5-5.7c2.3,1.4,3.5,7.8,3.5,13.1c0,2.9-0.2,5.9-0.9,8.7c-0.4,1.4-0.8,2.9-1.6,4.2
					C141.3,71.2,140.7,71.8,140,72.2 M7.4,87.2c0-3.1,2-6,5-6.9c3.4-1.1,7.1-0.1,10,1.9l0-5.2c-2.6-1.1-5.4-1.5-7.9-1.3
					C11.5,76,9,77,6.8,78.8C4.2,81,1.4,84.6,1.4,91.6c0,8.6,5.5,14.3,10.2,19.7c3.8,4.4,7.2,8.8,7.2,13.6c0,4.4-2.4,8.2-6.2,9
					c-2.5,0.6-6.4,0.3-10.8-3l0,6.3c1.4,1,4.3,1.9,7.6,1.9c2.8,0,5.9-0.7,8.7-2.5c3.2-2.2,7.1-6.6,7.1-15c0-7.9-5-13.8-9.8-19.5
					C11.2,97.2,7.4,92.5,7.4,87.2 M170.4,27.4c-1.6-1-3.4-1-5.4,0c-2,1-4,3.6-5.4,7l0-3.5l-6.4,3.1v52.8l6.4-3.1V60
					c1,2,2.4,3.4,3.9,3.9c1.3,0.4,2.6,0.3,4-0.4c2.6-1.3,4.8-4.1,6.3-8.1c1.4-3.6,2.1-8.1,2.1-12.7c0-3.2-0.5-6.5-1.4-9.2
					C173.4,30.6,172,28.5,170.4,27.4 M165.1,59.9c-0.7,0.4-1.5,0.5-2.2,0.1c-2-1.3-3.3-6.3-3.3-12.9c0-3,0.1-6.1,0.8-9
					c0.4-2,2.3-7.8,5.5-5.7c2.3,1.4,3.5,7.8,3.5,13.1c0,2.9-0.2,5.9-0.9,8.7c-0.4,1.4-0.8,2.9-1.6,4.2
					C166.4,58.9,165.8,59.6,165.1,59.9 M216.8,33.1c0-9.9-11.6-13.1-11.6-19.3c0-2,1.4-3.9,3.3-4.4c2.2-0.6,4.4,0.1,6.3,1.1V7.2
					c0,0-4.2-2.3-9.1,0.4c-2.2,1.3-5,3.6-5,8.6c0,10.2,11.4,11.4,11.4,19.3c-0.3,5.4-7.3,5.3-11.1,3.9l0,4
					c7.4,2.4,16.3-2.5,15.7-10.8"/>
			</g>
			<g>
				<g>
					<path class="st0" d="M220.7,2c-2.1,0-4,1.6-4,3.8c0,2.2,1.8,3.9,3.9,4c2,0,3.9-1.7,3.9-3.9C224.6,3.8,222.8,2.1,220.7,2z
						 M220.6,9.1c-1.8,0-3.2-1.5-3.2-3.3c0-1.8,1.5-3.2,3.2-3.2c1.7,0,3.1,1.5,3.1,3.3C223.7,7.8,222.3,9.2,220.6,9.1z"/>
				</g>
				<g>
					<path class="st0" d="M221.3,6.1c0.7-0.1,1.1-0.4,1.1-1.2c0-0.8-0.5-1.2-1.6-1.2h-1.7v4.4h0.7l0-1.9h0.8l1.2,1.9h0.8L221.3,6.1z
						 M219.8,5.6l0-1.4l0.9,0c0.5,0,1,0.1,1,0.7c0,0.7-0.5,0.7-1,0.7H219.8z"/>
				</g>
			</g>
		</g>
		<g>
			<path class="st0" d="M112.4,129.6l2.9-1.6v1.6l-2.9,1.6v1.9l2.6-1.5v6.4l-1.7,0.9v-0.6l-3.7,2v1l-1.6,0.9v-6.9l2.6-1.5v-1.9
				l-3.1,1.7v-1.6l3.1-1.7v-1.8l-1.8,1v-1.5c-0.4,0.6-0.8,1.1-1.2,1.7c-0.1-0.3-0.5-1.1-0.8-1.4c1.6-2,3.3-4.7,4.2-7l1.5-0.2
				c-0.1,0.3-0.2,0.5-0.3,0.8c1.4,0.3,2.8,0.8,3.5,1.4l-1,2.1c-0.7-0.6-2.1-1.2-3.4-1.6c-0.7,1.4-1.5,2.8-2.4,4.1l5-2.8v1.6
				l-1.7,0.9V129.6z M113.4,134.2l-3.7,2v2.6l3.7-2V134.2z M124.3,122.1c-0.4,1.8-0.9,3.9-1.4,5.3l-1.4,0.4c0.2-0.8,0.5-1.9,0.8-3.1
				l-1.8,1v7.9c0,0.9-0.1,1.6-0.7,2.2c-0.6,0.6-1.4,1.1-2.6,1.8c-0.1-0.5-0.3-1.1-0.5-1.5c0.8-0.4,1.6-0.9,1.8-1
				c0.2-0.2,0.3-0.3,0.3-0.5v-7.9l-3.3,1.8v-1.8l4.3-2.4c-0.9-0.5-2.3-0.9-3.5-1.1l1.2-1.7c0.6,0.1,1.2,0.2,1.8,0.3
				c0.6-0.9,1.2-2,1.7-3.1l-5,2.8v-1.7l6.2-3.5l0.4-0.3l1.1,0.2c-0.8,1.9-2,4.1-3.2,5.9c0.4,0.2,0.9,0.4,1.1,0.6l-0.6,0.8l1.7-1
				l0.3-0.2L124.3,122.1z M129.4,125.6v1.6l-1.6,0.9v-13.9l5.2-2.9v12.3L129.4,125.6z M129.4,115.2v8.5l2-1.1v-8.5L129.4,115.2z
				 M140.3,115.5c1,2,2.7,3.5,4.4,3.9c-0.4,0.6-1,1.7-1.3,2.3c-1.3-0.5-2.6-1.8-3.6-3.4v6.7l-1.8,1v-6.7c-1.2,2.9-2.7,5.8-4.4,8
				c-0.3-0.3-0.8-0.7-1.2-0.8c2.1-2.4,4-6,5.1-9.2l-3.8,2.1v-1.9l4.3-2.4v-3.1l-3.6,2V112l3.6-2v-3.2l1.8-1v3.2l4-2.2v1.9l-4,2.2
				v3.1l4.7-2.6v1.9L140.3,115.5z M147.5,118.6c0.9-1.8,1.6-4.1,2-6l1.6-0.2c-0.5,2-1.1,4.5-2,6.4L147.5,118.6z M162.6,103.4
				l-13.3,7.4v-9.6l13.3-7.4V103.4z M151,104.3l4.1-2.3v-2.3L151,102V104.3z M151,108.2l4.1-2.3v-2.3l-4.1,2.3V108.2z M158.2,112.5
				c0.9-0.5,1-0.9,1.1-3.2c0.4,0.1,1.1,0,1.6-0.2c-0.2,3-0.8,4-2.6,5l-3.5,2c-2.2,1.2-2.8,1-2.8-0.9v-3.8l1.8-1v3.8
				c0,0.6,0.2,0.6,1.2,0L158.2,112.5z M157.6,110.6c-0.8-0.5-2.4-0.9-3.8-0.9l1.2-1.9c1.4,0,3,0.3,3.9,0.7L157.6,110.6z M160.9,96.5
				l-4,2.2v2.3l4-2.2V96.5z M160.9,100.4l-4,2.2v2.3l4-2.2V100.4z M162,105.4c1.1,1,2.2,2.4,2.6,3.7l-1.7,1.7
				c-0.4-1.2-1.4-2.8-2.4-3.8L162,105.4z M178.5,87.4c-0.9,2.2-2.1,4.3-3.3,6c-0.3-0.3-0.9-0.7-1.2-0.9c1.7-2.4,3.3-5.5,4.2-8.4
				l1.7-0.4c-0.2,0.5-0.4,1.1-0.6,1.6l11.3-6.3v1.5L178.5,87.4z M179.4,98.6c-0.9,2.1-2.4,4.7-3.9,6.4c-0.2-0.3-0.8-0.6-1.1-0.8
				c1.4-1.4,2.9-3.7,3.7-5.4L179.4,98.6z M181.4,96.4v5.3l-1.6,0.9v-5.3l-4.9,2.7v-1.5l4.9-2.7v-3.4l1.6-0.9v3.4l1.9-1.1l-1.1,0.1
				c0.5-1.1,1.2-2.6,1.6-3.6l1.6-0.3c-0.6,1.3-1.4,2.8-1.9,3.8l2.7-1.5v1.5L181.4,96.4z M177.3,93.8c0.6,0.5,1.2,1.2,1.4,1.8
				l-1.4,1.4c-0.2-0.6-0.8-1.4-1.3-1.8L177.3,93.8z M188.3,85.6c0,6.2,0.1,10.2,1.5,9.5c0.4-0.2,0.5-1.5,0.5-3.2
				c0.4,0.2,0.8,0.5,1.2,0.6c-0.1,2.8-0.5,4-1.7,4.7c-2.7,1.5-3.1-2.5-3.1-8.9L176.1,94v-1.5L188.3,85.6z M178.1,90.2v-1.5l11.1-6.2
				V84L178.1,90.2z M182.9,96.1c1.2,0.3,2.8,0.8,3.5,1.3l-1.1,1.8c-0.7-0.5-2.2-1.1-3.4-1.4L182.9,96.1z M197.8,83
				c-0.7-0.3-2.3-0.4-3.5-0.3l0.9-2c1.2-0.1,2.7-0.1,3.5,0.1L197.8,83z M194.9,92.6c1-2.1,2.5-5.6,3.6-8.6l1.3,0.5
				c-1,2.8-2.2,6-3.4,8.6L194.9,92.6z M198.9,76.7c-0.7-0.3-2.3-0.5-3.5-0.4l1-2c1.2-0.2,2.8-0.1,3.6,0.1L198.9,76.7z M208.8,84.3
				c1.1-0.6,1.2-1.1,1.4-3.1c0.4,0.1,1.1,0,1.5-0.2c-0.2,2.7-0.8,3.7-2.9,4.9l-4.8,2.7c-2.5,1.4-3.2,1.2-3.2-1.1v-8.7
				c-0.3,0.7-0.7,1.3-1,1.9c-0.3-0.2-0.9-0.7-1.2-0.8c1.6-2.6,2.8-6,3.6-9.1l1.7-0.5c-0.2,0.7-0.4,1.4-0.6,2.1l7.4-4.2v0.9
				c0,7.2,0,9.6-0.5,10.6c-0.3,0.7-0.7,1.1-1.2,1.5c-0.5,0.3-1.2,0.8-2,1.2c0-0.5-0.2-1.2-0.5-1.5c0.7-0.3,1.3-0.7,1.6-0.8
				c0.2-0.1,0.4-0.3,0.5-0.6c0.2-0.5,0.3-2.6,0.3-8.4l-6.5,3.6c-0.3,0.9-0.6,1.7-1,2.5l6-3.3v6.5l-5.1,2.8v3.4c0,1,0.2,1.1,1.6,0.3
				L208.8,84.3z M202.6,78.2v3.3l3.5-2v-3.3L202.6,78.2z M221.4,65.8c-0.9,6-3,11.2-5.7,14.9c-0.3-0.3-1-0.7-1.4-0.7
				c2.3-3,4.1-7,4.9-11.4l-4.3,2.4v-2l5-2.8l0.3-0.3L221.4,65.8z M230.5,60.1c-1.3,2.3-2.9,5-4.3,7c1.5,1.7,3.5,2.6,5.8,2.5
				c-0.4,0.6-1,1.8-1.3,2.5c-2.8-0.1-5-1.8-6.7-4.5v7.7c0,1.2-0.2,2-0.9,2.6c-0.6,0.7-1.6,1.4-3.1,2.2c-0.1-0.5-0.4-1.4-0.7-1.8
				c1.1-0.5,2-1.1,2.4-1.3c0.3-0.2,0.4-0.3,0.4-0.7V59.7l1.9-1v5c0.4,0.9,0.8,1.7,1.3,2.4c1.2-2,2.6-4.5,3.5-6.3L230.5,60.1z"/>
		</g>
	</g>
	<g>
		<path class="st0" d="M414,78.2c-1-0.8-4-0.8-5.1,0.2c-0.7,0.6-1,2.9-0.3,4c0.3,0.5,1.1,1.1,2.4,1.3c2.1,0.3,2.9-1.4,3.3-2.2
			C415.4,79.7,415.1,79.2,414,78.2 M409.2,68.7c-0.3-1.1-2-0.9-3.1-0.7c-1.7,0.4-6.1,0.7-8.5,0c-1.4-0.4-4.6-1-7,0
			c-2.4,1-3.7,1.7-6,5.5c-0.5,0.9-2.6,4.4-3.8,4.1c-1.4-0.3-1.8-5.8-0.4-7.3c0.2-0.2,0.5-0.5,1-0.7c44.2-25.9,8.7-53.5-5.6-5
			c-0.3,1.1-0.7,1.9-1,2.1c-1.4,1.3-4.1,2.3-6.1,3.5c-0.6,0.3-6.3,2.7-6.7,4.9c-0.2,1.5,0.4,2.1,1.3,2.7c0.6,0.4,2.3,0.2,3-0.2
			c0.7-0.4,5.9-3.8,7.4-3.6c0.6,0,0.4,1.2,0.5,1.6c0.3,2.7,1.3,6.2,3.1,7.6c4.9,3.7,10.8-5.9,10.8-6c1.2-1.7,1.5-2.4,2.7-3.7
			c1.6-1.7,5.3-0.6,6.4-0.6c3.8,0,5.3,0.5,8.7-0.9C409,71,409.5,69.6,409.2,68.7 M383.3,58.9c11-26.6,24.9-14.3,2.7,1.7
			c-1.4,1-3.8,2.8-4.1,2.5C381.6,62.8,382.9,59.7,383.3,58.9 M366,18.8c-0.7-1.1-1.6-1.1-2.6-0.5l-2,1.3l1.9,2.9l2-1.3
			C366.3,20.6,366.7,19.8,366,18.8 M391,18.4c2.1,0,3.9-1.7,3.9-3.9c0-2.1-1.8-3.9-3.9-3.9c-2.1,0-3.9,1.7-3.9,3.9
			C387.1,16.7,388.9,18.4,391,18.4 M421.5,22.2c0.6-0.8,0.2-1.7-0.7-2.2l-2.3-1.6l-1.7,2.5l2.5,1.7
			C420.1,23.2,420.9,23.1,421.5,22.2 M365.9,102.9l-1.5-0.9l-1.7,2.6l1.5,0.9c0.9,0.6,1.8,0.9,2.5-0.2
			C367.4,104.1,366.8,103.4,365.9,102.9 M390.5,2.1c-33.9,0.1-61.3,27.7-61.2,61.7c0.1,33.9,27.7,61.3,61.7,61.2
			c33.9-0.1,61.3-27.7,61.2-61.7C452,29.3,424.4,1.9,390.5,2.1 M417.2,14.1l5.7,3.9c2,1.3,3.3,3.6,1.8,5.8c-0.8,1.2-2.2,2-3.7,1.6
			l0,0c1,1.1,0.4,2.7-0.2,3.8c-0.3,0.5-1.4,2.2-1.3,2.9l-2.9-2c0-0.6,0.7-1.7,0.9-2c0.7-1.2,1.3-2.5-0.1-3.4l-2.2-1.5l-2.8,4.1
			l-2.9-2L417.2,14.1z M391,7.2c4,0,7.3,3.2,7.3,7.3c0,4-3.2,7.3-7.3,7.3c-4,0-7.3-3.2-7.3-7.3C383.7,10.5,386.9,7.2,391,7.2
			 M362.4,15.6c2.1-1.4,4.8-1.6,6.5,1.1c1.8,2.8,0.9,5-1.7,6.6l-2.5,1.6l2.4,3.8l-3,1.9L357,19L362.4,15.6z M347,47.2l1.6-3.2
			c1.5,0.7,2.4,0,3-1.3c0.5-0.9,0.6-2.1-0.3-2.6c-1.1-0.5-2.2,1.1-3.5,2.6c-1.4,1.5-3.1,2.9-5.3,1.8c-2.6-1.3-2.3-4.5-1.2-6.8
			c1.2-2.4,3.6-4.2,6.4-2.9l-1.6,3.2c-1.1-0.6-2,0.2-2.5,1.2c-0.3,0.7-0.5,1.6,0.3,2.1c0.9,0.5,2-1.2,3.4-2.7
			c1.4-1.5,3.1-2.8,5.3-1.7c3.1,1.6,2.7,4.7,1.4,7.3C352.6,46.9,350.2,48.8,347,47.2 M368.5,106.4c-0.9,1.4-2.6,2.2-4.7,0.8l-2-1.3
			l-2,3.1l-1.9-1.2l5.5-8.5l3.9,2.5C369.5,103.1,369.4,105,368.5,106.4 M377.9,117.2l-0.1-2.4l-3.7-1.1l-1.4,1.9l-2.2-0.6l6.6-8.7
			l2.2,0.7l0.8,10.8L377.9,117.2z M394.7,118.6c-0.3-0.6-0.3-1.6-0.4-2.4c-0.2-1.1-0.6-1.5-1.7-1.5l-2.2,0.1l0.1,4l-2.2,0.1
			l-0.2-10.2l5.5-0.1c1.8,0,3,1.2,3,2.7c0,1.2-0.4,2.1-1.6,2.6l0,0c1.1,0.3,1.4,1.3,1.5,2.3c0.1,0.6,0.1,1.8,0.5,2.4L394.7,118.6z
			 M405.4,116.8l-2.9-9.8l2.1-0.6l2.9,9.8L405.4,116.8z M419.3,111.1c-1.9,1.2-4.3,1.3-5.6-0.9l1.9-1.1c0.7,1.2,1.9,1.1,2.9,0.5
			c0.7-0.4,1.6-1.2,1-2.1c-0.6-0.9-2-0.3-3.5,0.1c-1.5,0.4-3.1,0.7-4.1-0.9c-1.1-1.8,0.1-3.7,1.7-4.6c1.8-1.1,4-1.3,5.2,0.7
			l-1.9,1.1c-0.7-1-1.6-0.8-2.5-0.3c-0.6,0.4-1.2,1-0.7,1.8c0.4,0.7,0.9,0.5,3.4-0.2c0.7-0.2,2.9-1,4.1,1
			C422.3,107.8,421.7,109.7,419.3,111.1 M390.8,101.1c-20.7,0.1-37.6-16.7-37.7-37.4C353.1,42.9,369.8,26,390.5,26
			c20.7-0.1,37.6,16.7,37.7,37.4C428.3,84.1,411.6,101,390.8,101.1 M438.7,42.3l-9.5,4.5l-1.5-3.2l9.5-4.5l-1.7-3.7l2.8-1.3l5,10.5
			l-2.8,1.3L438.7,42.3z M392.7,110.2l-2.5,0.1l0.1,2.9l2.5-0.1c1,0,1.5-0.5,1.5-1.5C394.2,110.6,393.7,110.2,392.7,110.2
			 M377.6,109.1l-2.3,3.2l2.5,0.7L377.6,109.1L377.6,109.1z"/>
	</g>
	<g>
		<path class="st0" d="M293.7,77.5c-0.4,0-0.8-0.1-1.1-0.4l-37.5-37.5c-0.6-0.6-0.6-1.6,0-2.2c0.6-0.6,1.6-0.6,2.2,0l37.5,37.5
			c0.6,0.6,0.6,1.6,0,2.2C294.5,77.4,294.1,77.5,293.7,77.5z"/>
	</g>
	<g>
		<path class="st0" d="M256.2,77.5c-0.4,0-0.8-0.1-1.1-0.4c-0.6-0.6-0.6-1.6,0-2.2l37.5-37.5c0.6-0.6,1.6-0.6,2.2,0
			c0.6,0.6,0.6,1.6,0,2.2l-37.5,37.5C257,77.4,256.6,77.5,256.2,77.5z"/>
	</g>
</g>
</svg>
