<?xml version="1.0" encoding="utf-8"?>
<!-- Generator: Adobe Illustrator 24.0.1, SVG Export Plug-In . SVG Version: 6.00 Build 0)  -->
<svg version="1.1" id="GIFT" xmlns="http://www.w3.org/2000/svg" xmlns:xlink="http://www.w3.org/1999/xlink" x="0px" y="0px"
	 viewBox="0 0 40 36.1" style="enable-background:new 0 0 40 36.1;" xml:space="preserve">
<style type="text/css">
	.st0{fill:#DB2828;}
</style>
<path class="st0" d="M26,4c-1.3-2.1-3.5-3.5-6-3.5c-2.5,0-4.8,1.3-6,3.5L1.5,24.9c-1.4,2.2-1.4,4.8-0.1,7.1c1.3,2.2,3.6,3.6,6.1,3.6
	h24.9c2.6,0,4.8-1.3,6.1-3.6c1.3-2.2,1.2-4.9-0.1-7.1L26,4z M20,30.1c-1.6,0-2.8-1.3-2.8-2.8c0-1.6,1.3-2.8,2.8-2.8
	c1.6,0,2.8,1.3,2.8,2.8C22.8,28.8,21.6,30.1,20,30.1z M23,10.9l-0.8,9.4c0,0.6-0.3,1.1-0.8,1.5C21,22,20.5,22.2,20,22.2
	c-0.1,0-0.1,0-0.2,0c-1-0.1-1.9-0.9-2-2L17,10.9c-0.1-0.8,0.2-1.6,0.7-2.2c0.5-0.6,1.2-1,2-1.1c0.8-0.1,1.6,0.2,2.2,0.7
	c0.6,0.5,1,1.2,1.1,2C23,10.5,23,10.7,23,10.9z"/>
</svg>
