<?xml version="1.0" encoding="utf-8"?>
<!-- Generator: Adobe Illustrator 22.0.0, SVG Export Plug-In . SVG Version: 6.00 Build 0)  -->
<svg version="1.1" id="圖層_1" xmlns="http://www.w3.org/2000/svg" xmlns:xlink="http://www.w3.org/1999/xlink" x="0px" y="0px"
	 viewBox="0 0 101.7 105" style="enable-background:new 0 0 101.7 105;" xml:space="preserve">
<style type="text/css">
	.st0{fill:#7EB2D1;}
</style>
<path class="st0" d="M48.9,3.9c-0.6,0.5-1.1,1.2-1.6,2c-2.5,4.1-3.4,8.5-3.8,13.1c-0.3,4.8-0.3,9.6-0.4,14.5c-0.1,0.8-0.2,1.3-1,1.7
	c-4.6,2.4-9.2,5-13.8,7.6c-0.4,0.2-0.6,0.4-1.2,0.6c-0.1-0.6,0-1.2-0.2-1.7c-0.1-0.9-0.6-1.5-1.4-1.6C23.9,40,22.5,40,21,40
	c-1.1,0.1-1.6,0.8-1.6,1.8c-0.1,1.1-0.2,2.2,0,3.3c0.3,2-0.6,3-2.4,4c-4.8,2.5-9.4,5.2-14.1,7.8C2.3,57.2,2,57.6,2,57.8
	c0,1,0,2,0,3.2c0.6-0.1,1-0.2,1.4-0.2c10.2-2,20.3-3.8,30.3-5.9c3.1-0.5,6.1-0.5,9.2-0.6c0.2,0,0.4,0.1,0.5,0.1
	c0,0.2,0.1,0.3,0.1,0.6c0.7,8.7,1.3,17.2,2,25.7c0,0.7-0.3,1-0.8,1.3c-4.9,2.5-10,5.2-14.9,7.7c-0.4,0.2-0.8,0.6-0.8,1
	c-0.1,1.4,0,2.9,0,4.5c6-1.3,11.9-2.5,18-3.9c1.1,3.7,1.6,7.3,3.1,10.7c0.1,0.1,0.3,0,0.4,0.1c1-3.5,2.1-7.1,3.1-10.7
	c5.9,1.5,11.8,3,18,4.6c0-1.5-0.2-2.7-0.1-3.8c0.1-1-0.3-1.5-1.1-1.9c-4.8-2.6-9.6-5.3-14.4-7.9c-0.8-0.4-1-0.8-0.9-1.8
	c0.7-8.2,1.4-16.3,2.1-24.5c0-0.5,0.1-1,0.2-1.6c2.9,0.3,5.7,0.4,8.5,1c10.8,2.3,21.4,4.8,32.2,7.1c0.4,0.1,0.7,0.1,1.5,0.3
	c-0.1-0.9-0.3-1.8-0.2-2.4c0.1-1-0.2-1.6-1.1-2.1c-5-2.9-10-5.9-14.9-8.7c-0.7-0.4-1-0.8-0.9-1.7c0-1.6,0.1-3.2,0-4.8
	c0-1.3-0.6-1.8-1.8-1.9c-0.8-0.1-1.7-0.1-2.5-0.2c-3-0.1-3.1,0.1-3.4,3.1l-0.1,0.1c-0.1-0.1-0.3-0.2-0.5-0.3
	c-4.9-3.3-10-6.6-14.9-10c-0.3-0.2-0.7-0.8-0.7-1.3c-0.2-4-0.2-8-0.3-12c-0.1-4.6-0.9-9.1-2.7-13.4C55,6,54.3,4.9,53.4,3.8
	C51.9,2.5,50.2,2.5,48.9,3.9z"/>
</svg>
