<?xml version="1.0" encoding="utf-8"?>
<!-- Generator: Adobe Illustrator 22.0.0, SVG Export Plug-In . SVG Version: 6.00 Build 0)  -->
<svg version="1.1" id="圖層_2_拷貝_2" xmlns="http://www.w3.org/2000/svg" xmlns:xlink="http://www.w3.org/1999/xlink" x="0px"
	 y="0px" viewBox="0 0 838 308" style="enable-background:new 0 0 838 308;" xml:space="preserve">
<style type="text/css">
	.st0{fill:#00307C;}
	.st1{fill:#FFFFFF;}
	.st2{fill:#EB1353;}
</style>
<g>
	<g>
		<g>
			<g>
				<path class="st0" d="M240.4,105.3c-4.2,0-6.1-1.9-5.7-5.9l5.1-59.1c-0.1-3.9,2-5.9,6.1-6l58.7-3.5c4.2-0.3,6.1,1.6,5.8,5.6
					l-5.1,59.7c0.1,3.7-2.3,5.6-7.1,5.7L240.4,105.3z M252.1,45.8l17.9-1.1l0.3-3.1l-22,1.3l-4.7,54.4l17.9-1.1
					c-0.4-0.4-1.1-1.2-2.3-2.3c-2.3-1.9-3.1-3.6-2.4-5.1l-8.8,0.5c-3.4-2.1-3.1-4.4,0.9-6.9l32-1.9l0.2-2.2l-30.8,1.8
					c-3.4-1.9-3.2-4.1,0.6-6.6l16.6-1l0.2-2.2L254,71.2c-4,0.4-5.7-1.4-5.1-5.6l0.3-4.1c0.1-3.9,2-6,5.5-6.2l14.4-0.9l0.2-2.2
					l-17.6,1.1C248.2,51.3,248.3,48.8,252.1,45.8z M268.3,64.1L257,64.8l-0.2,2.5l11.3-0.7L268.3,64.1z M257.3,61.7l11.3-0.7
					l0.2-2.5l-11.3,0.7L257.3,61.7z M268.7,95.8c-0.1-1.9,0.5-3.3,1.6-4.5c0.7-0.7,1.9-0.7,3.8-0.2c0.4,0,0.8,0,1.3-0.1
					c0,0.2,0.1,0.3,0.3,0.3c2.9,0.7,4.4,0.3,4.5-1.2l0.2-2.8l-15.1,0.9l2.2,3c0.9,2,0.3,3.6-1.7,4.8L268.7,95.8z M287.6,69.2
					l-11.3,0.7l-0.2,2.2l11.6-0.7C287.2,70.4,287.1,69.7,287.6,69.2z M276.8,63.6l-0.2,2.5l11-0.7l0.2-2.5L276.8,63.6z M277.3,58
					l-0.2,2.5l11-0.7l0.2-2.5L277.3,58z M301,39.8l-22.3,1.3l-0.3,3.1l18.2-1.1c2.7,2.3,2.6,4.8-0.3,7.5l-18.5,1.1l-0.2,2.2
					l15.1-0.9c2.5,0.3,3.7,1.4,3.8,3.5l-0.7,8.7c-0.1,0.6-0.4,1.4-1.1,2.2l0,0.3c1.5,1.8,2.7,3.4,3.7,4.8L301,39.8z M298.2,76
					c-0.8,1.7-1.8,2.5-3,2.4c-1.5,0.3-2.5-0.1-3-1.1l-2.5,0.2l-0.2,2.5l4.7-0.3c1.9,0.1,2.7,1.2,2.5,3.3c-0.2,2.3-1.2,3.5-3.1,3.6
					l-4.7,0.3l-0.3,3.8c-0.1,1.7-0.6,3-1.3,4.1l9.4-0.6L298.2,76z"/>
				<path class="st1" d="M240.3,111.3c-3.8,0-6.8-1.2-8.9-3.4c-1.4-1.6-3.1-4.4-2.7-9l5-58.8c0-4.2,1.7-6.8,3.1-8.3
					c2.1-2.2,5.1-3.4,8.8-3.4l58.6-3.5c4-0.2,7.1,0.8,9.3,3.1c1.5,1.5,3.2,4.3,2.8,9l-5.1,59.4c0,3.9-1.6,6.3-2.9,7.8
					c-2.3,2.4-5.6,3.6-9.9,3.7l-57.7,3.5C240.6,111.3,240.4,111.3,240.3,111.3z M240.4,105.3L240.4,105.3L240.4,105.3z"/>
			</g>
			<g>
				<path class="st0" d="M343.6,68L341.4,94c0,5-2.5,7.4-7.5,7.3c-4.6,0.3-6.6-1.2-5.9-4.3c0.2-2.1,1.3-3.2,3.4-3.3
					c1.9,0.1,2.8-0.3,2.9-1.1l0.4-5l-9.7,0.6l-0.9,10.6c-0.2,2.5-1.6,3.8-4.1,4c-2.5,0.2-3.6-1-3.1-3.5l2.5-29.7
					c-2.8,0.6-4-0.8-3.7-4.1l0.6-7.2c0.1-3.3,1.3-5.1,3.6-5.2l1.4-16.9c0.1-3.1,1.9-4.8,5.4-5l15.7-0.9c3.6-0.4,5.1,1.1,4.6,4.7
					l-1.4,16.6c1.4,0.1,2.2,1.4,2.2,3.9l-0.7,8.1C346.6,66.6,345.5,68.1,343.6,68z M323.3,61.2l-0.2,2.2l17-1l0.2-1.9
					c-0.1-0.8-0.6-1.3-1.4-1.5l-14.1,0.8C323.8,59.9,323.3,60.3,323.3,61.2z M335.6,77.8l-9.7,0.6l-0.3,4.1l9.7-0.6L335.6,77.8z
					 M326.3,73.1l9.7-0.6l0.2-2.8c-0.2-0.4-0.5-0.7-0.9-0.9l-7.9,0.5c-0.6,0-1,0.4-1,1L326.3,73.1z M330.1,46.4l-2.5,0.2l-0.5,5.6
					l3.5-0.2l0.4-4.7C330.8,46.9,330.5,46.6,330.1,46.4z M336.2,44.8l-0.6,6.9l3.5-0.2l1.1-12.8c0.1-0.6-0.3-1-1.2-1.2l-9.7,0.6
					c-0.6,0.2-1,0.8-1.1,1.6l-0.1,1.6l5-0.3C335.4,40.8,336.4,42.1,336.2,44.8z M348.4,81.7l0.6-6.6c0.1-3.1,1.8-4.8,5.1-5l26.1-1.6
					c3.6-0.4,5.1,1.1,4.6,4.7l-0.5,6.2c-0.3,3.3-2,5-5.1,5l-0.9,0.1c-0.6,2.1-1.3,3.8-2,5.1l8.8-0.5c1.9,0.1,2.8,1.1,2.9,2.9
					c-0.2,2.5-1.4,3.8-3.5,3.9L346,98.3c-2.5,0.2-3.7-1-3.4-3.5c0-2.1,1.3-3.2,4-3.4l8.2-0.5c-0.3-1.2-0.7-2.9-1.1-4.9l-0.9,0.1
					C349.3,86.5,347.9,85.1,348.4,81.7z M350.8,61.1l34.9-2.1c2.1,0.1,3,1.2,2.8,3.2c-0.2,2.5-1.4,3.7-3.4,3.6l-34.9,2.1
					c-2.3,0.3-3.3-0.6-2.9-2.9C347.3,62.5,348.5,61.2,350.8,61.1z M356.4,32.1l5.7-0.3l0.2-2.2c0.2-2.1,1.5-3.2,4-3.4
					c2.1-0.1,3.1,0.9,2.9,2.9l-0.2,2.2l3.8-0.2l0.2-2.2c0-2.1,1.2-3.2,3.7-3.3c2.3-0.1,3.4,0.8,3.2,2.9l-0.2,2.2l5.7-0.3
					c3.3,0,4.9,1.4,4.7,4.1l-1.4,15.9c-0.4,4.2-2,6.1-4.9,5.9L355.1,58c-4,0.4-5.8-0.9-5.3-4l1.4-16.6
					C351.3,34.1,353,32.3,356.4,32.1z M376.9,77.5l0.1-1.2c-0.1-0.8-0.6-1.3-1.4-1.5l-17.9,1.1c-1.1,0.3-1.5,0.8-1.4,1.6l-0.1,1.2
					c-0.3,1.1,0.1,1.4,1.1,1.2l17.9-1.1C376.2,79,376.8,78.6,376.9,77.5z M358.4,51.9l1.9-0.1l0.3-4.1l-3.5,0.2l-0.2,2.5
					C356.7,51.5,357.2,52,358.4,51.9z M357.9,39.5l-0.2,2.5l3.5-0.2l0.3-4.1l-1.9,0.1C358.4,38.1,357.8,38.7,357.9,39.5z M362,90.5
					l6.9-0.4c0.7-1.3,1.4-3,2-5.1l-10.1,0.6C361.3,87.3,361.7,88.9,362,90.5z M367.6,47.3l-0.3,4.1l3.8-0.2l0.3-4.1L367.6,47.3z
					 M368.1,41.4l3.8-0.2l0.3-4.1l-3.8,0.2L368.1,41.4z M378.2,46.7l-0.3,4.1l2.2-0.1c0.8,0,1.4-0.6,1.7-1.7l0.2-2.5L378.2,46.7z
					 M378.8,40.7l3.8-0.2l0.2-2.5c-0.1-0.8-0.6-1.3-1.4-1.5l-2.2,0.1L378.8,40.7z"/>
				<path class="st1" d="M319.6,108.7c-3.5,0-5.6-1.5-6.7-2.8c-1.2-1.4-2.5-3.7-2-7.5l2.1-24.6c-0.1-0.1-0.3-0.2-0.4-0.3
					c-2.2-2-3.2-4.9-2.9-8.7l0.6-7c0.1-4.4,1.7-7.2,3.9-8.9l1.1-13.2c0.2-6.2,4.4-10.2,11.1-10.6l15.6-0.9c4.5-0.5,7.2,1.2,8.6,2.7
					c0.2,0.2,0.3,0.3,0.5,0.5c1.4-0.7,3.1-1.1,4.9-1.2h0l0.9-0.1c1.2-3,4-5.5,8.9-5.8c2.1-0.1,3.8,0.3,5,1c1.4-0.9,3.2-1.5,5.3-1.6
					c3.8-0.2,6,1.2,7.3,2.5c0.5,0.5,1.1,1.3,1.5,2.3c0.1,0,0.2,0,0.2,0c3.6,0,6.4,1.1,8.3,3.2c1.2,1.3,2.6,3.7,2.3,7.4l-1.4,15.9
					c-0.2,2.3-0.7,4.3-1.5,5.8c0.9,1.3,1.6,3.3,1.4,6c-0.3,3.5-1.8,5.9-3.8,7.4c0.2,1.1,0.2,2.4,0,3.9l-0.5,6.1
					c-0.1,1.5-0.5,2.9-1,4.1c2.8,1.4,4.5,4.2,4.6,7.7c0,0.2,0,0.5,0,0.7c-0.5,5.5-4,9.1-9.1,9.4l-38.3,2.3c-1.1,0.1-2.1,0-3-0.2
					c-2.4,2.1-5.5,3.1-9.3,3.1c-1.4,0.1-4.4,0.2-7.1-1.1c-1.7,1.5-3.9,2.4-6.5,2.6C320.1,108.7,319.9,108.7,319.6,108.7z
					 M376.9,77.5L376.9,77.5L376.9,77.5z M360.7,48.2l0.8,0.1l0-0.5l-0.8,0.1L360.7,48.2z M378,40.1l0,0.6l0.8-0.1l0-0.4L378,40.1z"
					/>
			</g>
			<g>
				<path class="st0" d="M407.3,69.2c-2.3,0.1-3.6-1-3.8-3.5c0.4-2.5,1.8-3.9,4.1-4.3l48.7-2.9c3.9,0.8,4.4,2.9,1.6,6.4
					c-4,2.5-8.3,4.9-13.1,7l19.2-1.2c2.5,0.1,3.7,1.4,3.7,4.1c-0.5,2.9-1.9,4.5-4.5,4.6l-21,1.3c0,2.3,0,4.5,0.1,6.5
					c-0.4,7.1-9.1,10.4-26.2,10c-3.9-0.2-6.2-1.3-6.9-3.3c-0.4-3.1,0.9-5,3.9-5.8c1.3-0.1,3.6,0,7.2,0.2c8.3,0.5,12.4-0.3,12.4-2.6
					c0.2-1.9,0.2-3.3,0.1-4.4l-33,2c-2.5,0.2-3.6-1.2-3.4-4.1c0.4-2.7,1.9-4.3,4.5-4.6l31.1-1.9c-0.7-1.2,2.1-3,8.6-5.5L407.3,69.2z
					 M431.6,28.8l-0.3-0.6c-0.4-0.4-0.5-0.7-0.2-0.9c-0.9-2.2,0.1-3.9,2.9-5.2c3-1,5-0.5,6.1,1.5c0.5,1.2,1.2,2.7,2.1,4.5l25.4-1.5
					c2.3,0.1,3.4,1.5,3.4,4.1c-0.4,2.7-1.8,4.2-4.1,4.3l-63.8,3.8c-2.3,0.1-3.4-1.1-3.4-3.8c0.4-2.7,1.8-4.3,4.1-4.6L431.6,28.8z
					 M411.3,58.4c-3.8,0.6-5.4-1.1-4.9-5.3l0.6-6.6c0.1-3.1,2-4.9,5.8-5.3l45.5-2.7c3.1,0,4.7,1.5,4.6,4.4l-0.7,7.8
					c-0.3,3.1-2.2,4.8-5.7,5L411.3,58.4z M453,49l0.3-3.4l-37.7,2.3l-0.3,3.4L453,49z"/>
				<path class="st1" d="M418.7,103.3c-0.9,0-1.8,0-2.7,0c0,0-0.1,0-0.1,0c-8.3-0.4-11.3-4.3-12.3-7.5c-0.1-0.4-0.2-0.8-0.3-1.1
					c-0.2-2,0-3.9,0.6-5.6l-3.6,0.2c-3.7,0.2-6-1.3-7.3-2.6c-1.3-1.4-2.8-3.9-2.5-8.1c0-0.1,0-0.3,0.1-0.4c0.7-4.6,3.5-7.9,7.6-9.2
					c-0.3-0.9-0.5-1.8-0.6-2.9c0-0.5,0-1,0.1-1.5c0.4-2.6,1.6-4.9,3.3-6.5c-0.5-1.7-0.7-3.6-0.4-5.8l0.5-6.3c0-0.5,0.1-0.9,0.1-1.4
					c-2.1-0.4-3.5-1.3-4.4-2.2c-1.3-1.3-2.9-3.6-2.8-7.5c0-0.3,0-0.6,0.1-0.9c0.8-5.3,4.3-8.8,9.2-9.6c0.2,0,0.4,0,0.5-0.1l21.6-1.3
					c0.8-2.5,2.7-4.9,6.5-6.6c0.2-0.1,0.3-0.1,0.5-0.2c8.6-2.9,12.4,2.6,13.3,4.3c0.1,0.2,0.2,0.3,0.2,0.5c0.1,0.2,0.2,0.4,0.3,0.7
					l21.4-1.3c0.2,0,0.4,0,0.5,0c4.6,0.1,9.3,3.4,9.2,10.2c0,0.3,0,0.6-0.1,0.9c-0.8,5-3.9,8.3-8.3,9.1c0.1,0.6,0.1,1.3,0.1,2
					c0,0.1,0,0.3,0,0.4l-0.7,7.8c-0.2,2.9-1.4,5.3-3.1,7.1c0,0.1,0.1,0.2,0.1,0.2c0.7,2,0.6,4.1-0.3,6.3c5.3,0.5,8.8,4.5,8.7,10.1
					c0,0.3,0,0.6-0.1,0.9c-0.9,5.7-4.6,9.4-10,9.7l-15.4,0.9c0,0.3,0,0.5,0,0.8c0,0.1,0,0.3,0,0.4C447.7,98,437.7,103.3,418.7,103.3
					z M436.5,76.6c0.3,0.2,0.5,0.5,0.8,0.7c0.6-0.9,1.5-1.7,2.6-2.1c-0.2-0.3-0.4-0.7-0.6-1.1c-0.8,0.4-1.4,0.7-1.8,0.9
					c-0.1,0.1-0.1,0.3-0.2,0.4C437.1,75.9,436.8,76.2,436.5,76.6z"/>
			</g>
			<g>
				<path class="st0" d="M483.6,31.6l5-0.3c0.1-1,0.3-2.4,0.7-4.1c0.1-1.5,0.3-2.8,0.7-4.1c0.2-2.5,1.8-3.8,4.7-4
					c2.9,0,4.4,1.3,4.4,3.8c-0.1,0.6-0.3,1.8-0.6,3.5c-0.4,2.3-0.6,3.8-0.7,4.4l8.5-0.5c4.2-0.5,5.8,2.2,4.9,8.1
					c-1.4,11.1-4.7,22.4-10.1,33.9c2.6,1.7,4.9,3.6,7,5.8c1.5,2.2,1.4,4.2-0.2,5.9c-2,1.8-4.1,2-6.3,0.7c-0.4-0.2-0.9-0.6-1.5-1.2
					c-2-1.3-3.5-2.3-4.4-2.8c-5.7,5.9-10.2,9.7-13.5,11.4c-2.6,1-4.4,0.6-5.5-1.2c-1.1-2-0.7-3.9,1.1-5.7c0.4-0.2,1.3-0.9,2.7-2
					c3.6-3.1,6.5-5.8,8.8-8c-0.8-0.4-2.4-1.2-4.8-2.5c-1.8-1.1-3-2-3.5-2.6c-2.9-0.7-3.2-3.5-1.1-8.6c0.1-0.6,0.5-2,1.3-4.1
					c2.2-6.8,4.2-12.5,5.8-17.1l-4.1,0.2c-2.7,0.2-4.1-1.2-4-4.1C479.3,33.6,480.9,32,483.6,31.6z M493.9,67.7
					c4.4-10.2,7.1-19.4,8-27.5c-0.2-0.4-0.5-0.7-0.9-0.9l-5,0.3c-2.4,8.4-4.4,14.9-6,19.3c-1.1,3-1.5,4.6-1.3,4.7
					C488.2,64.1,490,65.4,493.9,67.7z M516.2,30.3c-2.5,0.2-3.8-1.2-3.7-4.1c0.4-2.7,1.9-4.3,4.5-4.6l29.5-1.8
					c4.3,0.8,5.1,3.2,2.5,7.3c-1.2,1.3-3.8,4.2-7.9,8.6c-4.3,4.4-6.4,6.7-6.2,6.9c0,0.4,0.3,1.3,1,2.7c0.7,1.2,1.5,2.6,2.5,4.2
					l8.8-0.5c2.5,0.1,3.8,1.4,4,4.1c-0.5,2.9-1.9,4.5-4.5,4.6l-6.3,0.4c1.2,5.3,0.8,11.9-1.4,19.7c-4.5,11-13.3,14.9-26.3,11.5
					c-3.2-1.5-4.3-3.6-3.2-6.3c1.5-2.6,3.9-3.3,7.4-2.3c5.9,1.9,10,0.9,12.5-3.2c2.6-6,3.1-12.2,1.6-18.7l-18.2,1.1
					c-2.5,0.2-3.8-1.1-3.7-3.8c0.2-2.9,1.6-4.6,4.2-4.9l14.8-0.9c-0.6-0.8-1.3-1.9-2.2-3.3c-1.4-1.2-1.9-2.4-1.6-3.6
					c0.2-1.9,3-5.5,8.4-10.8c0.2-0.2,0.6-0.5,1-1c0.5-0.7,0.7-1.2,0.8-1.6c-0.2-0.4-0.7-0.6-1.5-0.5L516.2,30.3z"/>
				<path class="st1" d="M479.7,98.5c-3.9,0-6.7-2.1-8.2-4.6c-0.1-0.1-0.1-0.2-0.2-0.3c-2.4-4.4-1.5-9.2,2.2-12.8
					c0.4-0.3,0.8-0.7,1.2-0.9c0.1-0.1,0.6-0.4,1.8-1.4c0.9-0.8,1.8-1.5,2.6-2.3c-0.5-0.3-0.9-0.7-1.3-1c-1.9-0.8-3.4-2.2-4.3-4
					c-2-3.9-0.8-8.3,0.5-11.6c0.2-1,0.6-2.3,1.4-4.5c1.1-3.4,2.2-6.6,3.2-9.5c-1.3-0.5-2.2-1.2-2.9-1.9c-1.4-1.3-2.9-3.7-2.9-7.7
					c0-0.3,0-0.6,0.1-0.9c0.9-5.3,4.5-8.9,9.9-9.6c0.1,0,0.3,0,0.4,0l0.2,0c0.1-1.2,0.3-2.4,0.6-3.5c0.7-5.2,4.6-8.6,10.3-9
					c0.1,0,0.3,0,0.4,0c5.1,0.1,10.3,3.1,10.3,9.8c0,0.2,0,0.3,0,0.5c0,0.3-0.1,0.6-0.1,0.9l0.8,0c0.4,0,0.7-0.1,1-0.1
					c1.1-4.7,4.5-7.9,9.3-8.6c0.2,0,0.3,0,0.5,0l29.5-1.8c0.5,0,1,0,1.4,0.1c5.1,0.9,7.3,3.6,8.2,5.7c1.4,3.2,0.8,6.8-1.7,10.7
					c-0.2,0.3-0.3,0.5-0.5,0.7c-1.2,1.4-4,4.4-8,8.7c0,0-0.1,0.1-0.1,0.1c-1.4,1.5-2.5,2.6-3.3,3.4l4.7-0.3c0.2,0,0.3,0,0.5,0
					c5.6,0.1,9.5,3.9,9.9,9.7c0,0.5,0,0.9-0.1,1.4c-0.9,5.7-4.6,9.3-10,9.7c0.1,4.7-0.7,9.8-2.2,15.6c-0.1,0.2-0.1,0.5-0.2,0.7
					c-5.6,13.8-17.5,19.2-33.4,15.1c-0.3-0.1-0.7-0.2-1-0.4c-1.9-0.9-3.4-2-4.6-3.3c-2.3,0.3-4.7-0.2-6.9-1.5
					c-0.8-0.4-1.5-0.9-2.2-1.6c-4.6,4.5-8.4,7.5-11.6,9.1c-0.2,0.1-0.4,0.2-0.6,0.3C482.6,98.3,481.1,98.5,479.7,98.5z M474.9,79.9
					C474.9,79.9,474.9,79.9,474.9,79.9C474.9,79.9,474.9,79.9,474.9,79.9z M514.2,74.2c1.4,0,2.9,0.2,4.4,0.7c0,0,0.1,0,0.1,0
					c3.7,1.2,4.7,0.4,5.3-0.3c1.3-3.1,1.9-6.3,1.8-9.7l-12.7,0.8c-1,0.1-1.9,0-2.7-0.2c-0.6,1.6-1.2,3.2-1.9,4.7
					c1.4,1.1,2.6,2.3,3.9,3.5c0.1,0.1,0.3,0.3,0.4,0.4C513.2,74.2,513.7,74.2,514.2,74.2z M495,73.6c0,0.2,0.1,0.3,0.1,0.5
					c0,0.2,0.1,0.4,0.1,0.6c0.1,0,0.2,0,0.3,0c-0.2-0.4-0.3-0.7-0.4-1.1C495.2,73.6,495.1,73.6,495,73.6z M533.2,53.1
					c0.2,0.1,0.3,0.1,0.5,0.2c-0.1-0.1-0.2-0.3-0.3-0.5C533.3,52.9,533.2,53,533.2,53.1z M517.1,39.2c-0.2,1.9-0.5,3.7-0.9,5.6
					l1.9-0.1c-0.1-0.8,0-1.7,0.1-2.5c0.2-1.6,1-3.5,3-6.2l-3.8,0.2C517.3,37.5,517.2,38.5,517.1,39.2z M540.7,41.4L540.7,41.4
					L540.7,41.4z M539.1,38.3c0.4,0.4,0.7,0.7,0.9,1.2C539.8,39.1,539.5,38.7,539.1,38.3z M539.1,38.3
					C539.1,38.3,539.1,38.3,539.1,38.3C539.1,38.3,539.1,38.3,539.1,38.3z M505.3,34.8L505.3,34.8z M516.2,29.6
					C516.2,29.6,516.2,29.6,516.2,29.6l-0.2-2.9L516.2,29.6z M539.2,26.2c0.4,0.5,0.6,0.9,0.7,1.2c0.1,0.2,0.1,0.3,0.2,0.5
					c0.6-0.7,1.2-1.3,1.7-1.9L539.2,26.2z M516,26.2L516,26.2l-0.1-1.9c0,0,0,0,0,0L516,26.2z"/>
			</g>
			<g>
				<path class="st0" d="M592.9,18.2l0.3-3.1c0.2-1.9,1.8-2.9,5-3.1c2.9,0,4.4,1,4.4,2.8l-0.2,2.8l27.3-1.6c1.9,0.1,2.8,1.5,2.8,4.2
					c-0.4,2.7-1.7,4.1-3.8,4.3l-23.2,1.4l-0.2,2.8l16.6-1c2.5,0.1,3.7,1.5,3.7,4.4l-0.5,5.3l4.1-0.2c2.1,0.1,3,1.4,2.8,3.9
					c-0.4,2.7-1.7,4.1-3.8,4.3l-3.8,0.2l-0.6,7.5c1.9-0.3,3.4,0.5,4.5,2.5c0.9,1.8,0.3,3.6-1.7,5.4c-3.8,3.3-7.8,6.5-12.1,9.4
					c2.7,2.1,6.5,4.1,11.4,5.8c2,1.1,2.2,3.1,0.7,5.9c-1.4,2.2-3.4,2.9-5.8,2.2c-8.4-3.8-14.8-8.5-19.1-14.1l-0.7,8.1
					c-0.2,5.2-3.8,8.1-10.7,8.7c-3.3,0-6-0.1-8.1-0.1c-2-0.5-3-2-2.7-4.5c0.4-2.5,1.8-3.8,4.1-4c0.4,0,1.5,0,3.1,0.1
					c1.4,0.1,2.5,0.2,3.1,0.1c1.7-0.3,2.6-1.1,2.7-2.3l0.6-6.6c-1.7,3.2-9.2,7.2-22.3,11.9c-1.9,0.3-3.3-0.4-4.2-2.2
					c-0.5-2,0.1-3.6,1.7-4.8c0.6-0.2,2-0.7,4.2-1.5c2.8-1.2,4.7-2.1,5.6-2.8c-2-1.3-3.9-2.9-5.9-4.6c-2.3-2.6-1.8-4.9,1.5-6.9
					c-1.6-0.3-2.3-1.3-1.9-3c0-2.7,1.6-4.1,4.7-4.3l18.2-1.1l0.3-3.1l-24.8,1.5l-0.2,2.2c-1.8,15.9-4.3,27.4-7.7,34.7
					c-1.6,2.2-3.6,2.9-5.8,2.2c-2.2-0.7-2.9-2.2-2.1-4.5c3.9-11,6.3-22,7.2-33.1l2.1-25c0.1-3.5,1.6-5.4,4.5-5.6L592.9,18.2z
					 M576.2,30.4l20.1-1.2l0.2-2.8l-22.6,1.4c-1.7,0.1-2.5,0.7-2.3,1.7l-1,11.3l24.8-1.5l0.2-2.8l-20.4,1.2
					C571.9,35.3,572.2,32.9,576.2,30.4z M590.2,64.1c0.8,0,1.6,0.4,2.4,1.4c0.2,0.2,0.4,0.3,0.6,0.3l0.7-8.1l-17.6,1.1
					c0.6,0.2,2.5,1.4,5.6,3.7c2.9,2.3,3.7,3.9,2.4,4.8c0.2-0.2,0.6-0.4,1-0.7C587.3,65,588.9,64.2,590.2,64.1z M602.7,57.1
					c1.2,2.8,3.2,5.5,5.9,8c3.5-2.1,7.1-5.1,10.8-9L602.7,57.1z M603.9,46.8l-0.3,3.1l11.6-0.7c0.6,0.2,1-0.3,1-1.3l0.2-1.9
					L603.9,46.8z M604.5,35.9l-0.2,2.8l12.6-0.8l0.2-1.9c-0.2-0.6-0.5-0.9-1.2-0.9L604.5,35.9z"/>
				<path class="st1" d="M557.9,94.2c-1.1,0-2.2-0.2-3.4-0.5c-3.4-1-5-3.1-5.8-4.6c-0.8-1.6-1.5-4.2-0.2-7.6
					c3.7-10.5,6-21.1,6.9-31.6l2.1-24.8c0.3-7.8,5.4-10.9,10.2-11.2l19.9-1.2c0.8-2.5,3.3-6.1,10.1-6.5c0.1,0,0.3,0,0.4,0
					c5.4,0.1,8.3,2.5,9.6,5.3l21.5-1.3c0.2,0,0.4,0,0.7,0c3.9,0.2,8.5,3,8.5,10.2c0,0.3,0,0.6-0.1,0.9c-0.8,4.6-3.3,7.8-7,8.9
					c0.1,0.5,0.1,0.9,0.1,1.4c2.1,0.5,3.4,1.6,4.3,2.6c1.2,1.3,2.5,3.7,2.2,7.5c0,0.2,0,0.3-0.1,0.5c-0.7,4.1-2.8,7.1-5.9,8.5
					c0.6,0.7,1.1,1.4,1.5,2.2c0,0.1,0.1,0.1,0.1,0.2c2.1,4.3,0.9,9-3.1,12.5c-1.6,1.4-3.3,2.8-5,4.2c0.8,0.3,1.6,0.6,2.4,1
					c0.3,0.1,0.6,0.3,0.9,0.4c3.7,2.1,6.8,7,3.1,13.9c-0.1,0.2-0.2,0.3-0.3,0.5c-2.9,4.3-7.5,6-12.4,4.7c-0.3-0.1-0.6-0.2-0.9-0.3
					c-4.5-2.1-8.6-4.4-12.1-7c-1.4,4.2-5.2,9.3-15.4,10.3c-0.2,0-0.4,0-0.6,0c-3.4,0-6.2-0.1-8.3-0.1c-0.4,0-0.8-0.1-1.2-0.2
					c-3.3-0.8-5.7-2.9-6.7-5.9c-0.4,0.2-0.8,0.3-1.3,0.5c-0.3,0.1-0.7,0.2-1,0.3c-1.3,0.2-2.6,0.2-3.8,0c-0.1,0.2-0.2,0.4-0.2,0.5
					c-0.2,0.4-0.4,0.8-0.7,1.1C564.5,92.5,561.3,94.2,557.9,94.2z M599.4,63.6l-0.1,1.1c0.2-0.1,0.4-0.1,0.5-0.2c0,0,0.1,0,0.1,0
					C599.8,64.2,599.6,63.9,599.4,63.6z M592.9,18.2L592.9,18.2L592.9,18.2z"/>
			</g>
			<g>
				<path class="st2" d="M59.4,135.1l-0.2,2.8l16.6-1l0.2-2.5c0.1-1.5,1.8-2.3,4.9-2.5c2.9,0,4.4,0.8,4.5,2.2l-0.2,2.2l16.3-1
					c1.9,0.1,2.8,1.6,2.7,4.5c-0.5,2.9-1.7,4.5-3.8,4.6l-16,1l-0.3,3.1l5-0.3c4.6-0.3,6.6,1.8,6,6.2l-1,11.9
					c-0.4,4.6-2.7,6.9-6.8,6.9l-18.2,1.1l-0.2,2.5l23.2-1.4c4.4-0.3,6.4,1.9,6,6.5L97,196.6c0.1,6.2-3.3,9.2-10.1,9
					c-2.1-0.1-5.2-0.4-9.3-1c-3.7-2.7-3.3-5.3,1.3-7.9c0.6,0.2,1.7,0.3,3.4,0.4c1.8,0.3,3.3,0.4,4.3,0.4c0.6,0,1.1-0.3,1.3-0.7
					l1.1-12.5c0.1-0.6-0.2-0.9-0.9-0.9l-4.4,0.3c2.2,3.4,3.5,6.2,4,8.5c-1.8,3.6-4,4.3-6.7,2c-8.5,1.5-16.9,3-25.4,4.3
					c-4.2,0.9-8.4,1.4-12.3,1.7c-2.3,0.1-3.3-1.2-3.1-4.2c0-2.7,1.5-4.2,4.5-4.6c4.6-0.5,9.4-1.1,14.2-1.8l0.3-4.1l-19.8,1.2
					c-0.6,0-1,0.3-1,0.7l-1.5,17.8c-0.4,1.9-2,3-5,3.4c-2.9,0-4.3-1-4.1-2.9l1.7-20c0.4-4.2,2.6-6.5,6.8-6.9l23.6-1.4l0.2-2.5
					L40.9,176c-4,0.4-5.7-1.6-5.1-6.2l1.1-12.8c0.3-3.5,2.3-5.5,6.1-6l5.7-0.3l0.3-3.1l-16.6,1c-2.3,0.1-3.3-1.4-3.1-4.5
					c0.4-2.7,1.9-4.3,4.5-4.6l16-1l0.2-2.8C53.4,132.4,56.6,132.2,59.4,135.1z M45.3,168.6l15.4-0.9l0.2-2.5l-15.4,0.9L45.3,168.6z
					 M46,160.5l15.4-0.9l0.2-2.5L46.2,158L46,160.5z M75.4,146l-17,1l-0.3,3.1l17-1L75.4,146z M68.3,184.9l-0.3,3.4
					c2.7-0.2,5.5-0.5,8.2-1.1l-1.3-2.7L68.3,184.9z M69.8,167.1l15.1-0.9l0.2-2.5L70,164.6L69.8,167.1z M85.6,158.1l0.2-2.5
					l-15.1,0.9l-0.2,2.5L85.6,158.1z"/>
				<path class="st1" d="M31.9,214.6C31.9,214.6,31.8,214.6,31.9,214.6c-3.6,0-6.3-1.1-8.1-3c-1.5-1.7-2.3-3.9-2.1-6.3l1.7-20
					c0.4-4.9,2.8-8.6,6.5-10.7c-0.4-1.6-0.4-3.4-0.2-5.4l1.1-12.7c0.1-0.7,0.2-1.3,0.3-1.9c-2.1-0.2-4-1-5.4-2.5
					c-2-2-2.8-4.9-2.5-8.5c0-0.1,0-0.3,0.1-0.4c0.9-5.3,4.4-8.9,9.5-9.6c0.2,0,0.3,0,0.5,0l11.4-0.7c0.3-0.5,0.6-1,1.1-1.4
					c6.9-6.7,13.8-4.7,17.9-0.5c0.2,0.2,0.4,0.4,0.6,0.7l6.5-0.4c1.1-2.3,3.6-4.9,9.8-5.3c0.1,0,0.3,0,0.4,0
					c5.3,0.1,7.9,2.1,9.2,4.1l11-0.7c0.2,0,0.4,0,0.7,0c4,0.2,8.5,3.1,8.4,10.6c0,0.3,0,0.6-0.1,0.9c-1.3,8.2-7,9.4-9.1,9.6
					c0.3,1.3,0.4,2.8,0.1,4.6l-1,11.8c-0.1,1.6-0.4,3-0.9,4.3c0.8,0.5,1.4,1,1.9,1.5c2.3,2.4,3.3,5.7,3,9.8l-1.2,14.4
					c0,4.5-1.3,8.1-4,10.7c-2.9,2.8-7,4.2-12.3,4c-2.3-0.1-5.6-0.4-9.9-1.1c-1-0.1-1.9-0.5-2.7-1.1c-3.4-2.4-4.6-5-4.9-7.2
					c-4.2,0.7-8.3,1.4-12.5,2c-4.4,0.9-8.8,1.5-13,1.8c-0.3,0-0.5,0-0.8,0c0,0.1,0,0.1,0,0.2c-0.4,2.1-2.2,7.2-10.1,8.2
					C32.4,214.6,32.2,214.6,31.9,214.6z M45,197.4C45,197.4,45,197.4,45,197.4C45,197.4,45,197.4,45,197.4z M53.3,143.4
					C53.3,143.4,53.3,143.4,53.3,143.4c0.1,0.1,0.1,0.1,0.2,0.2c0.4-0.6,0.9-1.1,1.4-1.5c0,0,0,0,0,0c-0.1-0.1-0.1-0.1-0.2-0.2
					C54.3,142.5,53.8,143,53.3,143.4z M79.5,141.7c0,0,0.1,0.1,0.1,0.1c0,0,0,0,0,0c0.4-0.5,0.8-0.9,1.3-1.2c0,0,0,0,0,0
					c-0.1-0.1-0.1-0.1-0.2-0.2C80.4,140.8,80,141.3,79.5,141.7z"/>
			</g>
			<g>
				<path class="st2" d="M112.6,163.9c-2.5,0.2-3.6-1.3-3.4-4.5c0.3-3.1,1.7-4.9,4.2-5.2l63.1-3.8c2.7,0,3.9,1.7,3.6,5.1
					c-0.5,2.9-2.2,4.5-5.1,4.7l-17.3,1l-2.2,25.9c-0.2,2.1,0.9,3.1,3.2,2.9l6-0.4c2.7,0.5,4.3-3.3,5-11.2c0.2-2.5,1.8-3.8,4.7-4
					c2.9,0,4.4,1.3,4.4,3.8c-0.6,14.5-5.7,21.4-15.2,20.5l-7.2,0.4c-8.4,0.7-12.1-2.7-11-10.2l2.3-27.2l-9.4,0.6
					c-2,18.8-9.4,31.8-22.1,38.9c-3.9,2.3-6.8,2.9-8.6,1.8c-2.7-2.5-2.3-5.1,1.3-7.9c12.2-6.3,18.8-17.1,19.6-32.3L112.6,163.9z
					 M121.8,143.5c-2.7,0.2-3.9-1.4-3.7-4.8c0.7-3.2,2.4-4.9,5.1-5.3l49.3-3c2.5,0.1,3.7,1.6,3.7,4.8c-0.3,3.3-1.7,5.1-4.2,5.2
					L121.8,143.5z"/>
				<path class="st1" d="M109.8,209.7c-1.8,0-3.6-0.4-5.3-1.5c-0.3-0.2-0.6-0.4-0.9-0.7c-3.2-3-3.7-6.1-3.6-8.2
					c0.2-3.3,2-6.2,5.4-8.8c0.3-0.2,0.6-0.4,0.9-0.5c8.4-4.4,13.5-11.1,15.5-20.5l-8.8,0.5c0,0,0,0,0,0c-3.7,0.2-5.9-1.3-7.2-2.6
					c-2-2-2.8-4.8-2.5-8.4c0.5-5.9,4-9.9,9.3-10.7c0.2,0,0.3,0,0.5,0l3.2-0.2c-0.6-0.4-1.1-0.8-1.5-1.2c-2-2.1-2.9-5-2.6-8.6
					c0-0.3,0.1-0.5,0.1-0.8c1.2-5.6,4.9-9.2,10.2-10c0.1,0,0.3,0,0.4,0l49.3-3c0.2,0,0.3,0,0.5,0c6.7,0.2,9.6,5.6,9.5,10.9
					c0,0.1,0,0.3,0,0.4c-0.4,4.3-2.1,7.1-4.4,8.8c2.9,0.4,4.8,1.8,5.9,2.9c1.9,2.1,2.7,5,2.4,8.6c0,0.1,0,0.3-0.1,0.4
					c-0.9,5.7-4.9,9.4-10.7,9.7l-12.1,0.7l-1.5,17l1-0.1c0.3-1,0.7-2.8,0.9-5.8c0.5-5.5,4.4-9.1,10.3-9.5c0.1,0,0.3,0,0.4,0
					c5.1,0.1,10.3,3.1,10.3,9.8c0,0.1,0,0.2,0,0.2c-0.5,10.6-3.1,17.8-8,22.2c-2.4,2.1-6.7,4.6-13.2,4.1l-6.7,0.4
					c-6.3,0.5-11-0.9-14.1-4.2c-2.9-3.1-4-7.3-3.3-12.7l0.6-6.7c-4.2,11.1-11.2,19.5-20.8,24.9C117.7,207.5,113.9,209.7,109.8,209.7
					z M112.6,163.9L112.6,163.9L112.6,163.9z M133.2,159.1c0,0,0.1,0.1,0.1,0.1c0,0,0.1-0.1,0.1-0.1L133.2,159.1z M152.3,157.9
					c0.1,0.1,0.2,0.2,0.3,0.3c0.1-0.1,0.1-0.3,0.2-0.4L152.3,157.9z M175,154.2L175,154.2z"/>
			</g>
			<g>
				<path class="st2" d="M221.7,141.9c2.7-4.7,5.1-9.6,7.2-14.7c0.3-1.3,1.1-2.2,2.4-2.9c2.8-1,4.8-0.5,6.1,1.5
					c0.1,1.4-0.2,3.1-0.7,5l22.6-1.4c2.7,0,4,1.6,4,4.7c-0.5,3.1-2.1,4.8-4.8,5l-26.4,1.6c-1.2,1.7-2.9,4.1-5,7.1
					c-0.7,1.1-1.1,1.7-1.1,1.9c-1.9,2.4-3.9,3.2-6.2,2.5c-2.4-0.9-3.1-2.6-2.1-5.2c0.3-0.6,0.5-1.2,0.8-1.6l-12.3,0.7l-0.8,5.6
					l8.5-0.5c4.2-0.3,6.1,1.7,5.7,5.9l-1.4,16.6c-0.7,11-2.7,18.1-5.9,21.2c-1.8,2-4.8,3.2-8.7,3.6c-4.8-0.1-7-1.9-6.7-5.2
					c0.2-2.7,1.7-4.2,4.5-4.6c0.2,0.2,0.5,0.3,0.9,0.3c0.8,0.2,1.7,0.1,2.5-0.2c1,0.1,1.8-0.7,2.4-2.6c0.6-1.7,1.1-5.3,1.6-11
					l1.1-13.1c-0.2-0.4-0.5-0.7-0.9-0.9l-5,0.3c-2.9,14.9-6.1,26.2-9.5,33.8c-1.5,3.2-3.6,4.5-6.3,3.8c-2.8-0.9-3.6-2.9-2.3-6.1
					c5.7-13.4,9.5-28.9,11.5-46.4l-3.1,0.2c-2.7,0.2-4.1-1.3-4-4.4c0.5-3.1,2.1-4.9,4.8-5.3l7.2-0.4c-0.6-0.2-1.2-1.7-1.8-4.6
					c-0.4-2.3,0.5-3.9,2.9-4.8c2.6-1,4.5-0.5,5.8,1.5c2,3.8,2.6,6.3,1.9,7.3l7.2-0.4C221.6,135.9,222.6,137.9,221.7,141.9z
					 M223.6,155.4c-0.1-3.5,2.1-5.6,6.8-6.3c6.2-1.4,13.5-3.9,21.9-7.5c2.8-1,4.7-0.4,5.8,1.8c0.6,2.9-0.4,5-3,6.4
					c-3.7,1.9-7.2,3.3-10.4,4.4c0,2.7,0.3,5.4,0.9,8l8.9-4.9c2-0.9,3.7-0.4,5.2,1.6c1,2.4,0.8,4.3-0.8,5.6c-2,1.4-5.8,3.7-11.5,6.9
					c0.7,6.2,3.3,11.3,7.7,15.4c2.5,2.3,2.8,4.9,0.9,7.7c-2.3,2.4-4.8,2.6-7.5,0.5c-7.9-7.4-12.1-20.1-12.7-38.1l-2.6,0.8l-2.4,27.8
					c2.6-0.8,4.1-1.3,4.5-1.5c2.3-0.6,3.9,0.4,4.8,2.8c0.4,2.3-0.4,4-2.6,5.1c-8,3-12.9,4.2-14.7,3.7c-1.8-0.3-2.5-2.6-1.9-7
					L223.6,155.4z"/>
				<path class="st1" d="M189.7,205.4c-0.9,0-1.9-0.1-2.8-0.4c-0.1,0-0.2-0.1-0.3-0.1c-3.7-1.1-5.5-3.4-6.3-5.1
					c-1.2-2.6-1.2-5.7,0.2-9c4.8-11.2,8.2-24.1,10.2-38.4c-1.5-0.5-2.7-1.3-3.4-2c-1.4-1.3-3-3.8-2.9-8c0-0.3,0-0.5,0.1-0.8
					c0.9-5.7,4.6-9.6,9.9-10.3c0,0,0.1,0,0.1,0c0-4.2,2.5-7.7,6.7-9.4c0,0,0.1,0,0.1-0.1c5.2-2,10.2-0.5,13,3.9
					c0.1,0.2,0.2,0.3,0.3,0.5c0.6,1.2,1.2,2.5,1.7,3.8l1.7-0.1c0.1,0,0.3,0,0.4,0c0.9,0,1.8,0.1,2.5,0.3c0.8-1.6,1.5-3.3,2.2-5
					c0.8-2.7,2.6-4.9,5.3-6.3c0.3-0.1,0.5-0.3,0.8-0.4c5.4-1.9,10.3-0.5,13.2,3.9c0.4,0.6,0.6,1.2,0.8,1.9l15.7-0.9
					c0.2,0,0.3,0,0.5,0c3.9,0.1,6.3,1.9,7.5,3.4c1.6,1.9,2.4,4.4,2.4,7.5c0,0.3,0,0.5-0.1,0.8c-0.6,3.8-2.4,6.7-5,8.4
					c0.4,3.5-0.6,6.6-2.8,9c1.1,0.7,2.1,1.7,3,2.8c0.3,0.4,0.5,0.8,0.7,1.3c2.1,4.8,1.2,9.5-2.4,12.6c-0.2,0.1-0.3,0.3-0.5,0.4
					c-1.7,1.1-4.4,2.8-8.2,5c1,3.1,2.6,5.7,5.1,7.9c4.7,4.4,5.3,10.3,1.8,15.5c-0.2,0.3-0.4,0.5-0.6,0.8c-4.4,4.7-10.4,5.1-15.6,1.1
					c-0.1-0.1-0.3-0.2-0.4-0.4c-1-0.9-1.9-1.9-2.8-2.9c-0.4,0.3-0.8,0.5-1.3,0.8c-0.2,0.1-0.5,0.2-0.7,0.3
					c-11.1,4.1-15.3,4.6-18.1,3.9c-1.2-0.3-3-0.9-4.4-2.5c-0.1,0.1-0.2,0.2-0.2,0.3c-2.8,3-7,4.8-12.4,5.4c-0.3,0-0.6,0-0.8,0
					c-2.9-0.1-5.3-0.6-7.2-1.7C194.4,204.5,192.1,205.4,189.7,205.4z M226.6,192L226.6,192L226.6,192z M223.7,189.7
					C223.7,189.7,223.7,189.7,223.7,189.7C223.7,189.7,223.7,189.7,223.7,189.7z M242.6,167.4c0,0.1,0,0.2,0,0.3
					c0-0.1,0.1-0.1,0.1-0.2C242.7,167.4,242.6,167.4,242.6,167.4z M204,131C204,131,204,131,204,131C204,131,204,131,204,131z"/>
			</g>
			<g>
				<path class="st2" d="M271.7,148.8l7.9-0.5c2.9,0,4.3,1.9,4.2,5.7l-2.1,24.1c2.5,4.6,8,6.8,16.3,6.5l36.4-2.2
					c2.5-0.2,3.7,0.9,3.5,3.2c-0.2,2.5-1.6,3.8-4.1,4l-36.8,2.2c-6.7,0.2-12.6-1.7-17.6-5.8c-1-0.6-2-0.5-3.1,0.2
					c-0.5,0.4-1,1.1-1.7,2c-0.7,0.9-1.4,2-2.2,3.2c-2.5,2.2-4.5,3-6.1,2.2c-2.4-1.7-2.7-3.8-1-6.2c2.3-2.8,5.2-5.8,8.6-8.9l1.7-20.3
					c0.1-0.8-0.3-1.3-1.1-1.5l-3.5,0.2c-3.2,0.4-4.4-0.9-3.7-3.8C267.3,150.6,268.7,149.2,271.7,148.8z M282.8,139.7
					c-2.8,1.2-4.6,0.6-5.5-1.8c-0.5-1-1.5-2.5-2.7-4.5c-0.6-0.8-1.1-1.7-1.6-2.7c-1.2-2.8-0.5-4.8,2.1-6c2.4-1,4.4-0.5,6.1,1.5
					c0.2,0.6,0.4,1.2,0.8,1.8c1.7,2.4,2.7,4.4,3.2,6C285.8,136.7,285,138.6,282.8,139.7z M310.7,134.3l-10.4,0.6l-0.4,5l7.5-0.5
					c3.1,0,4.7,1.4,4.7,4.1c-0.1,1.7-0.3,3.1-0.4,4.4c-0.3,8.7-0.9,16.5-1.7,23.4c-1.4,6.5-5.7,9.3-12.9,8.2c-2.7,0-4-1-3.8-2.9
					c0.2-2.7,1.6-4,4.1-4c3.3,0.4,4.9-0.3,4.9-2.2c0.1-0.6,0.1-1.2,0.2-1.9c1.2-8.8,1.9-15.7,2.1-20.6c0.1-0.6-0.4-1-1.5-1.2
					l-3.8,0.2l-0.1,1.6c-1.4,11.3-3.6,20.3-6.7,27.1c-2,3.6-4.2,4.8-6.5,3.5c-2.4-0.7-2.4-3.1,0-7.1c2.9-6.6,4.8-15.2,6-25.9
					l0.9-10.9c-2.9,0.2-4.4-1.1-4.4-3.8c0.4-2.5,2.1-4,5.1-4.3l4.7-0.3c-0.3-1.2-0.5-2.2-0.7-3.1c-0.6-2.7,0-4.4,1.7-5.1
					c2.6-0.8,4.4-0.5,5.5,0.9c0.2,0.6,0.5,1.9,0.9,4c0.3,1,0.7,1.9,1,2.7l4.1-0.2c2.3,0.1,3.5,1.3,3.7,3.8
					C314.3,132.8,313,134.2,310.7,134.3z M329,121.7c-0.2,0.4-0.4,0.9-0.4,1.3c-0.2,0.4-0.4,0.8-0.4,1l12.9-0.8
					c2.3,0.1,3.4,1.5,3.4,4.1c-0.4,2.7-1.8,4.2-4.1,4.3l-15.7,0.9c-0.5,0.7-1.1,1.4-1.8,2.3c-0.7,0.9-1.2,1.5-1.4,2
					c0,0.2-0.1,0.3-0.3,0.3c-0.2,0.2-0.2,0.3,0,0.3l14.8-0.9c3.1,0,4.5,1.1,4.1,3.2c-0.2,2.3-3.1,5.8-8.7,10.5
					c0.7,1.6,1.4,3,2.1,4.2l6.3-0.4c1.9,0.1,2.7,1.3,2.5,3.6c-0.2,2.3-1.2,3.5-3.1,3.6l-4.4,0.3c0.1,1.2,0.1,2.6,0,4
					c-0.6,4.4-2,7.8-4.3,10.2c-4.7,3.6-10,4.1-16.1,1.6c-2.2-1.1-2.9-2.6-2.1-4.5c1-2.3,2.7-3.3,4.9-2.8c2.2,0.7,4,1,5.2,0.9
					c2.1,0.3,3.3-1.3,3.9-4.9c0.1-1.5,0.2-2.8,0.3-4.1l-11,0.7c-2.5,0.2-3.7-0.9-3.5-3.2c0.2-2.3,1.6-3.6,4.1-4l8.2-0.5l-0.3-0.3
					c-1.5-2-2-3.2-1.6-3.6c0.1-0.8,1.3-2.7,3.6-5.5c0.7-0.5,1.1-0.9,1.4-1.3l-7.9,0.5c-2.5-0.1-3.2-1.7-2.1-4.8
					c-2.1,0.8-3.6,0.3-4.3-1.3c-0.7-1.4-0.3-3.1,1.4-5.1c2.3-2.4,4.6-6.8,7.1-13.2c0.8-1.9,2.3-2.7,4.6-2.5
					C328.3,118.4,329.2,119.7,329,121.7z"/>
				<path class="st1" d="M267.6,199.9c-1.5,0-2.7-0.4-3.7-0.8c-0.4-0.2-0.7-0.4-1.1-0.6c-5-3.7-6-9.3-2.4-14.4
					c0.1-0.1,0.2-0.2,0.3-0.4c2.1-2.5,4.6-5.2,7.4-7.9l1.1-12.7c-3-0.2-4.9-1.5-6-2.7c-1.3-1.4-2.6-3.9-1.9-7.9
					c0.3-4.2,2.9-8.7,9.6-9.5c0.1,0,0.3,0,0.4,0l1.8-0.1c-0.5-0.6-0.9-1.4-1.3-2.3c-0.5-0.8-1.2-2.1-2.3-3.7c-0.7-1-1.3-2-2-3.2
					c-0.1-0.1-0.2-0.3-0.2-0.5c-2.5-5.8-0.5-11.3,5.1-13.9c0.1,0,0.2-0.1,0.2-0.1c4.7-1.9,9.6-0.8,12.9,3.1c0.4,0.5,0.7,1,1,1.5
					c1.3-1,2.9-1.7,4.7-2.2c0.2-4.4,2.8-7.1,5.6-8.3c0.2-0.1,0.4-0.1,0.6-0.2c6.7-2,10.3,0.9,11.9,2.9c0.6,0.7,1,1.5,1.2,2.4
					c0.1,0.4,0.2,1,0.5,1.9c1.4,0.1,2.6,0.3,3.8,0.8c0.4-0.9,0.8-1.8,1.2-2.9c0-0.1,0-0.1,0.1-0.2c1.8-4.4,5.9-6.7,10.9-6.1
					c0.2,0,0.5,0.1,0.7,0.1c3.2,0.8,5.6,2.8,6.7,5.5l6.4-0.4c0.2,0,0.4,0,0.5,0c4.6,0.1,9.3,3.4,9.2,10.2c0,0.3,0,0.6-0.1,0.9
					c-0.6,3.6-2.3,6.3-4.9,7.9c0.5,1.3,0.6,2.8,0.4,4.4c-0.3,2.4-1.6,4.9-4,7.8c2,0.5,3.4,1.6,4.2,2.6c1.1,1.3,2.4,3.6,2.1,7.2
					c-0.4,4.8-3.4,8.3-7.7,9c-0.6,3.6-1.7,6.8-3.3,9.5c2.1,0.4,3.5,1.4,4.4,2.4c1.2,1.3,2.6,3.5,2.3,7.1c-0.5,5.5-4.2,9.1-9.7,9.5
					l-36.8,2.2c-0.1,0-0.1,0-0.2,0c-6.9,0.2-13.1-1.5-18.6-5c-0.3,0.5-0.6,1-1,1.6c-0.3,0.6-0.7,1.1-1.2,1.5
					C273,198.9,270,199.9,267.6,199.9z M270.1,191C270.1,191,270.1,191,270.1,191C270.1,191,270.1,191,270.1,191z M326.6,155.3
					C326.6,155.3,326.6,155.3,326.6,155.3C326.6,155.3,326.6,155.3,326.6,155.3z M326.7,155.3C326.7,155.3,326.7,155.3,326.7,155.3
					C326.7,155.3,326.7,155.3,326.7,155.3z M326.7,155.3C326.7,155.3,326.7,155.3,326.7,155.3C326.7,155.3,326.7,155.3,326.7,155.3z
					 M326.7,155.3C326.7,155.3,326.7,155.3,326.7,155.3C326.7,155.3,326.7,155.3,326.7,155.3z M326.7,155.3
					C326.7,155.3,326.7,155.3,326.7,155.3C326.7,155.3,326.7,155.3,326.7,155.3z M267.3,153.1L267.3,153.1L267.3,153.1z
					 M298.6,147.6L298.6,147.6C298.6,147.6,298.6,147.6,298.6,147.6z M282.8,139.7L282.8,139.7L282.8,139.7z M279.3,135.6
					C279.3,135.6,279.3,135.6,279.3,135.6C279.3,135.6,279.3,135.6,279.3,135.6z M310.4,128.3C310.4,128.3,310.4,128.3,310.4,128.3
					L310.4,128.3z"/>
			</g>
			<g>
				<path class="st2" d="M354.7,128.6l5.3-0.3l0.7-8.8c0.2-2.5,1.8-3.8,4.7-4c2.7,0,4.1,1.3,4,3.8l-0.7,8.4l3.8-0.2
					c2.3,0.1,3.4,1.5,3.4,4.2c-0.4,2.7-1.8,4.2-4.1,4.3l-3.8,0.2l-1,11.9c2.2-1.4,3.9-1.7,5.1-0.9c1.4,1,1.9,2.6,1.5,4.9
					c-0.1,1.2-2.6,3.5-7.4,6.7l-1.9,22.2c-0.6,5-3.3,7.7-7.9,7.9c-2.9,0-5.4-0.5-7.4-1.4c-2.2-0.9-3-2.4-2.4-4.5
					c0.6-1.9,2-2.8,4.3-2.7c0.2,0.2,0.7,0.4,1.5,0.5c2,0.5,3.1-0.1,3.3-1.8l1.3-15.6c-2.7,1.8-4.7,2.7-6.2,2.5
					c-2.7,0-3.8-1.6-3.3-4.8c0.5-1.5,1.6-2.7,3.1-3.6c0.7-0.5,1.9-1.1,3.6-2.1c1.5-0.9,2.8-1.7,3.6-2.4l1.4-16.2l-5.7,0.3
					c-2.7,0.2-4.1-1.1-4-3.8C350.2,130.5,351.9,129,354.7,128.6z M372.4,180.4l4.6-53.4c0.1-5.6,2.6-8.4,7.6-8.5
					c13-1.2,23.8-2.6,32.2-4.1c3.4-0.4,5.2,0.8,5.6,3.7c-0.2,2.7-2.1,4.5-5.5,5.3c-1.3,0.3-3.2,0.6-5.7,1c-2.5,0.4-4.1,0.6-4.7,0.6
					l-1.3,15.6l12.9-0.8c2.3,0.1,3.3,1.5,3.1,4.2c-0.4,2.7-1.8,4.2-4.1,4.3l-12.3,0.7c-0.4,14.1,1.7,22.9,6.2,26.4
					c0.2-0.2,0.5-1.5,0.9-3.8c0.4-2.1,0.7-4.8,1-8.1c0.2-2.5,1.6-3.8,4.1-4c2.5,0.1,3.7,1.3,3.7,3.8c-1,13.7-3.4,21.2-7.2,22.5
					c-3.2,0.6-6.2-0.6-9.1-3.5c-6-5-8.7-16-8.1-32.8l-12.6,0.8l-1.9,22.2c0.9-0.7,3-2.7,6.5-6c1.8-1.6,3.6-1.8,5.4-0.6
					c1.8,1.3,2,3,0.8,4.9c-1.2,1.5-2.3,2.8-3.5,3.9c0.8,0.2,2,0.6,3.6,1.3c1.9,1.5,3.6,3,4.9,4.4c1.1,1.8,0.8,3.6-0.8,5.3
					c-2,1.6-3.9,1.8-5.7,0.7c-1.6-1.2-3.2-2.6-4.9-4.4c-1.4-1-1.9-2-1.6-3c-3.3,2.5-5.7,4.2-7,5.1
					C374.6,186.4,372.2,185.1,372.4,180.4z M384.5,141.7l12.2-0.7l1.3-15l-10.1,1.2c-1.5,0.1-2.2,0.7-2.3,1.7L384.5,141.7z"/>
				<path class="st1" d="M356.4,194.8C356.4,194.8,356.4,194.8,356.4,194.8c-3.8,0-7-0.7-9.8-1.9c-5-2.1-7.2-6.7-5.8-11.7
					c0,0,0-0.1,0-0.1c1.3-4.2,4.7-6.8,9.2-7l0.2-2.3c-3.5-0.2-5.6-1.8-6.7-3.1c-1.8-2.2-2.5-5-2-8.5c0.1-0.4,0.2-0.8,0.3-1.2
					c1-2.7,2.9-5,5.5-6.6c0.8-0.6,2.1-1.3,3.9-2.2c0.3-0.2,0.6-0.4,0.9-0.5l0.6-6.5c-3.1-0.1-5.1-1.4-6.3-2.5
					c-1.3-1.3-2.9-3.5-2.8-7.4c0-0.4,0.1-0.9,0.2-1.3c1.2-5.1,4.9-8.5,10.1-9.2c0.1,0,0.3,0,0.5,0l0.2,0l0.3-3.6
					c0.5-5.5,4.4-9.1,10.3-9.5c0.2,0,0.3,0,0.5,0c4.7,0.1,8.2,2.6,9.5,6.5c2.3-2.2,5.4-3.5,9.2-3.6c12.7-1.2,23.3-2.5,31.5-4
					c0.1,0,0.2,0,0.4-0.1c6.6-0.8,11.5,2.7,12.3,8.9c0.1,0.4,0.1,0.9,0,1.3c-0.2,2.5-1.6,8.6-10,10.6c0,0-0.1,0-0.1,0
					c-1.5,0.3-3.5,0.7-6.2,1.1c0,0,0,0,0,0l-0.3,3.9l5.9-0.4c0.2,0,0.4,0,0.5,0c3.4,0.1,5.5,1.7,6.6,2.9c1.2,1.4,2.6,3.8,2.2,7.7
					c0,0.2,0,0.3-0.1,0.5c-0.7,4.6-3.4,7.8-7.2,8.9c4.2,1.1,6.9,4.7,6.9,9.4c0,0.1,0,0.3,0,0.4c-1.2,17.3-4.6,25.6-11.3,27.8
					c-0.2,0.1-0.5,0.1-0.8,0.2c-2.8,0.5-6.8,0.4-11-2.3c-0.1,0.1-0.2,0.3-0.4,0.4c-0.2,0.2-0.5,0.5-0.7,0.7c-4,3.2-8.6,3.5-12.6,1
					c-0.1-0.1-0.2-0.1-0.3-0.2c-1.4-1.1-2.9-2.3-4.4-3.8c-0.9,0.6-1.6,1.2-2.2,1.6c-0.3,0.2-0.5,0.3-0.8,0.5
					c-4.7,2.2-8.6,2.3-11.7,0.3c-0.7-0.5-1.5-1.1-2.1-2c-2.2,4.3-6.3,6.8-11.6,7.1C356.6,194.8,356.5,194.8,356.4,194.8z
					 M378.4,181.4L378.4,181.4L378.4,181.4z M355.2,176C355.2,176,355.2,176,355.2,176C355.2,176,355.2,176,355.2,176z M350.8,159.8
					L350.8,159.8L350.8,159.8z M389.3,155.8l-0.3,3.5c0.5-0.1,0.9-0.2,1.4-0.3c-0.1-1.1-0.1-2.2-0.1-3.3L389.3,155.8z M410.8,154.5
					c0,0.3,0,0.6,0,0.8c0.5-0.4,1-0.7,1.5-0.9L410.8,154.5z M391.3,132.8l-0.2,2.5l0.1,0l0.2-2.5L391.3,132.8z"/>
			</g>
			<g>
				<path class="st2" d="M436.8,122.4c0.2-5.2,2.9-7.9,7.9-8.2l49.3-3c5.4-0.3,7.9,1.8,7.3,6.4l-4.5,52.8c-0.3,8.1-6.7,11-19.2,8.6
					c-2.9-0.7-4.1-2.2-3.7-4.8c0.9-2.7,2.7-4,5.6-3.8c5.9,1.3,8.6,0.5,8-2.3l1-12.2l-19.2,1.2l-1.5,17.8c-0.4,2.3-2.1,3.6-5,4
					c-3.1,0.2-4.6-0.9-4.4-3.2l1.6-18.1l-17.3,1c-1.5,8.2-3.7,15.3-6.5,21.2c-1.8,3.4-4.3,4.9-7.6,4.5c-3.2-1-3.9-3.2-2-6.4
					C432.5,168.8,435.8,150.2,436.8,122.4z M460.8,148.6l0.7-8.4l-16.6,1l-0.7,8.4L460.8,148.6z M445.6,131.8l16.6-1l0.7-8.4
					l-14.1,0.8c-1.9,0.1-2.8,1-2.7,2.7L445.6,131.8z M470.9,139.6l-0.7,8.4l19.2-1.2l0.7-8.4L470.9,139.6z M472.4,121.8l-0.7,8.4
					l19.2-1.2l0.5-5.9c0.1-1.7-0.5-2.5-2-2.4L472.4,121.8z"/>
				<path class="st1" d="M429.7,190.5c-0.6,0-1.2,0-1.8-0.1c-0.4,0-0.7-0.1-1.1-0.2c-4.2-1.4-5.9-3.9-6.6-5.8
					c-1.1-2.9-0.6-6,1.4-9.4c3.6-5.8,8.1-19.6,9.2-52.7c0,0,0,0,0-0.1c0.4-8.3,5.4-13.5,13.5-14l49.3-3c4.8-0.3,8.5,0.9,10.9,3.5
					c1.5,1.7,3.3,4.7,2.7,9.5l-4.5,52.6c-0.3,6.1-3,9.5-5.3,11.4c-4.6,3.6-11.4,4.5-20.9,2.7c-0.1,0-0.2,0-0.2,0
					c-2.3-0.5-4.2-1.5-5.6-2.9c-1.5,1.4-3.7,2.5-6.9,3c-0.1,0-0.3,0-0.4,0c-3.6,0.2-6.5-0.7-8.4-2.7c-1.7-1.8-2.6-4.2-2.3-6.9
					l1-11.2l-5.8,0.3c-1.5,6.8-3.6,12.8-6,18.1c0,0.1-0.1,0.1-0.1,0.2C439,187.7,434.7,190.5,429.7,190.5z M478.8,176.5L478.8,176.5
					L478.8,176.5z M478.6,173.1L478.6,173.1L478.6,173.1z M475,162.8l-0.2,2.4c1.6-0.6,3.3-0.8,5.3-0.7c0.3,0,0.5,0.1,0.8,0.1
					c0.4,0.1,0.7,0.1,1,0.2l0.2-2.5L475,162.8z M464.3,153.5C464.3,153.5,464.3,153.5,464.3,153.5c0.1,0.1,0.1,0.1,0.2,0.2
					c0.4-0.6,0.9-1.1,1.4-1.5c0,0,0,0,0,0c-0.1-0.1-0.1-0.1-0.2-0.2C465.3,152.6,464.8,153.1,464.3,153.5z M460.8,148.6L460.8,148.6
					L460.8,148.6z M465.6,135.8c0.1,0.1,0.1,0.1,0.2,0.2c0.1,0.1,0.1,0.1,0.2,0.2c0.4-0.6,1-1.2,1.6-1.6c-0.1-0.1-0.1-0.1-0.2-0.2
					c-0.1-0.1-0.1-0.1-0.2-0.2C466.8,134.9,466.2,135.4,465.6,135.8z"/>
			</g>
			<g>
				<path class="st2" d="M510.3,132.3c-0.8-2.4,0.3-4.5,3.3-6.1c1.1-0.5,2.3-1.1,3.6-1.8c10.1-4.1,19.4-10,27.7-17.5
					c3.1-2.5,6.6-2.4,10.3,0.3c6.2,5,13.8,9.3,22.6,12.9c4.2,1.6,6.5,3.6,6.7,5.8c-0.2,2.5-1.4,4-3.5,4.6c-2.4,0.8-6-0.4-11-3.4
					c1.2,3.5,0,5.6-3.4,6.4l-15.1,0.9l-0.5,5.9l23.6-1.4c2.3,0.1,3.4,1.5,3.4,4.1c-0.5,2.9-1.8,4.5-4.1,4.6l-23.6,1.4l-1.6,18.4
					l6.3-0.4c2.7-4.5,4.9-8.9,6.8-13.2c1.3-2.8,3.3-3.8,6.2-3.2c2.4,0.9,3.1,2.9,2,6.1c-2,4.1-3.7,7.3-5.2,9.6l10.1-0.6
					c2.5,0.1,3.8,1.2,4.1,3.5c-0.4,2.7-1.9,4.3-4.5,4.6l-62.5,3.8c-2.9,0-4.4-1.4-4.3-4.1c0.6-2.3,2.4-3.7,5.3-4.1l26.7-1.6
					l1.6-18.4l-24.2,1.5c-2.7,0.2-4-1.2-3.7-4.1c0.6-2.7,2.3-4.3,5.1-4.7l23.6-1.4l0.5-5.9l-15.1,0.9c-3.2,0.4-4.3-1.3-3.3-5.1
					c-2.7,1.8-5.1,3.1-7.2,3.9C512.9,136,510.7,135.2,510.3,132.3z M524.5,166.6c-0.7-1.2-2.5-4.2-5.2-9c-1.1-1.6-0.6-3.2,1.7-4.8
					c2-1.2,3.8-1.1,5.6,0.3c2.4,3.2,4.3,6.3,5.5,9.3c0.2,2.3-0.7,4.1-2.7,5.4C527.3,168.8,525.6,168.4,524.5,166.6z M529.8,127.4
					l36.4-2.2c-4.4-2-9.6-5.1-15.5-9.3c-1.6-0.9-3.1-0.9-4.4,0.3C541.4,120.4,535.9,124.1,529.8,127.4z"/>
				<path class="st1" d="M512,183.9C512,183.9,512,183.9,512,183.9c-6.3-0.1-10.4-4.1-10.3-10.1c0-0.5,0.1-1,0.2-1.5
					c1.2-4.7,5-7.8,10.4-8.5c0.1,0,0.3,0,0.4,0l3.2-0.2c-0.5-0.9-1-1.8-1.6-2.9c-0.8-1.2-1.3-2.7-1.4-4.2c-1.3-0.5-2.3-1.3-2.9-2
					c-1.3-1.4-2.8-3.9-2.5-8c0-0.3,0.1-0.6,0.1-0.9c0.5-1.9,1.3-3.6,2.4-5c-0.5-0.2-1-0.5-1.5-0.8c-2.1-1.3-3.5-3.5-4-6.2
					c-0.7-2.5-1.4-8.6,6.4-12.7c0.1-0.1,0.3-0.1,0.4-0.2c0.9-0.4,2-0.9,3.2-1.6c0.2-0.1,0.4-0.2,0.6-0.3c9.4-3.8,18.2-9.4,26-16.4
					c0.1-0.1,0.2-0.2,0.3-0.3c5.2-4.1,11.6-4.1,17.5,0.1c0.1,0.1,0.2,0.1,0.3,0.2c5.7,4.6,12.8,8.7,21.1,12
					c6.5,2.5,10,6.1,10.5,10.8c0,0.4,0,0.7,0,1.1c-0.4,4.9-3.3,8.6-7.8,9.8c-0.2,0.1-0.4,0.1-0.7,0.2c1.3,1.6,2.1,3.9,2,6.7
					c0,0.3,0,0.6-0.1,0.9c-0.8,4.9-3.5,8.2-7.5,9.3c0.1,1.6-0.1,3.5-0.8,5.6c-0.1,0.2-0.2,0.5-0.3,0.7c-0.1,0.1-0.1,0.2-0.2,0.4
					c5.4,0.2,9.2,3.7,9.7,8.9c0.1,0.5,0,1,0,1.6c-0.9,5.3-4.4,8.9-9.5,9.6c-0.2,0-0.3,0-0.5,0l-62.5,3.8
					C512.3,183.9,512.1,183.9,512,183.9z M567.5,156.3L567.5,156.3L567.5,156.3z"/>
			</g>
			<g>
				<path class="st2" d="M601.4,116c-3.1,0.2-4.7-1.4-4.6-4.7c0.5-3.3,2.3-5.2,5.5-5.6l54.3-3.3c2.7,0,4.1,1.7,4.3,5
					c-0.7,3.4-2.4,5.1-5.1,5.3l-22.6,1.4l-1,11.6l25.8-1.5c2.7,0,4,1.6,4,4.7c-0.5,3.3-2.1,5.1-4.8,5.3l-24.2,1.5
					c5.8,12.3,13.7,20.4,23.5,24.4c4.8,2,6.2,4.6,4,7.8c-1.5,3-4.6,3.7-9.2,2.1c-11.5-4.9-19.8-12.6-24.9-23.1
					c-5.8,9.3-14.9,17.8-27.2,25.6c-5.1,3.2-8.3,3.5-9.8,0.9c-2-3.4-1.3-5.8,2.2-7.3c14.5-8.3,24.1-18.2,28.8-29.7l-22.6,1.4
					c-3.1,0.2-4.7-1.3-4.6-4.4c0.3-3.3,2-5.2,5.2-5.6l24.2-1.5l1-11.6L601.4,116z"/>
				<path class="st1" d="M592.3,181c-0.9,0-1.7-0.1-2.5-0.3c-2.4-0.6-4.5-2.2-5.8-4.5c-2.4-4.1-2.1-7.3-1.4-9.3
					c0.6-1.9,2.2-4.5,6.1-6.3c9.1-5.3,16-11.2,20.9-17.7l-11.6,0.7c-4.1,0.2-6.7-1.3-8-2.6c-1.4-1.3-3-3.8-2.9-7.9
					c0-0.1,0-0.3,0-0.4c0.5-6.2,4.4-10.3,10.4-11c0.1,0,0.3,0,0.4,0l0.3,0c-2-0.5-3.4-1.5-4.3-2.3c-1.4-1.4-3.1-3.9-3-8.2
					c0-0.2,0-0.5,0.1-0.7c0.9-6,4.9-10,10.7-10.7c0.1,0,0.3,0,0.4,0l54.3-3.3c0.2,0,0.3,0,0.5,0c7.2,0.1,9.9,5.9,10.1,10.8
					c0,0.5,0,1-0.1,1.5c-1.3,6.1-4.8,8.5-7.7,9.5c3.3,0.3,5.3,1.9,6.5,3.3c1.6,1.9,2.4,4.4,2.4,7.5c0,0.3,0,0.5-0.1,0.8
					c-0.9,6.2-4.8,10-10.4,10.4l-14.6,0.9c4.4,6.5,9.6,10.9,15.8,13.4c4.5,1.9,7.3,4.5,8.4,7.9c0.6,2,0.8,5-1.4,8.6
					c-4.4,8.1-13.6,5.7-16.4,4.8c-0.1,0-0.3-0.1-0.4-0.2c-9.6-4.1-17.3-10.1-23-17.8c-6,7.1-13.9,13.8-23.5,19.9
					C598.4,179.8,595.2,181,592.3,181z M626.2,140.8c0.1,0,0.2,0,0.3,0c0.9,0,1.8,0.3,2.6,0.7c-0.6-1.1-1.2-2.3-1.7-3.5
					c-0.9-1.8-0.8-3.9,0.3-5.6c0.4-0.6,0.9-1.2,1.4-1.7c-0.5-0.3-0.9-0.6-1.3-1c-0.1-0.1-0.2-0.3-0.4-0.4c-0.7,1.1-1.8,2-3.1,2.5
					c0.3,0.3,0.6,0.6,0.8,0.9c1.2,1.7,1.5,3.9,0.7,5.8c-0.3,0.8-0.7,1.6-1.1,2.4C625.2,140.9,625.7,140.8,626.2,140.8z M597,131.6
					L597,131.6L597,131.6z M601.4,116L601.4,116L601.4,116z M602.8,111.8L602.8,111.8L602.8,111.8z M627.4,110.1
					c0.1,0.1,0.2,0.2,0.3,0.3c0.1,0.1,0.2,0.3,0.4,0.4c0.2-0.3,0.4-0.5,0.6-0.8L627.4,110.1z M600.8,110L600.8,110L600.8,110z"/>
			</g>
			<g>
				<path class="st2" d="M681.8,111.1c-3.1,0.2-4.7-1.4-4.6-4.7c0.5-3.3,2.3-5.2,5.5-5.6l54.3-3.3c2.7,0,4.1,1.7,4.3,5
					c-0.7,3.4-2.4,5.1-5.1,5.3l-22.6,1.4l-1,11.6l25.8-1.5c2.7,0,4,1.6,4,4.7c-0.5,3.3-2.1,5.1-4.8,5.3l-24.2,1.5
					c5.8,12.3,13.7,20.4,23.5,24.4c4.8,2,6.2,4.6,4,7.8c-1.5,3-4.6,3.7-9.2,2.1c-11.5-4.9-19.8-12.6-24.9-23.1
					c-5.8,9.3-14.9,17.8-27.2,25.6c-5.1,3.2-8.3,3.5-9.8,0.9c-2-3.4-1.3-5.8,2.2-7.3c14.5-8.3,24.1-18.2,28.8-29.7l-22.6,1.4
					c-3.1,0.2-4.7-1.3-4.6-4.4c0.3-3.3,2-5.2,5.2-5.6l24.2-1.5l1-11.6L681.8,111.1z"/>
				<path class="st1" d="M672.8,176.2c-0.9,0-1.7-0.1-2.5-0.3c-2.4-0.6-4.5-2.2-5.8-4.5c-2.4-4.1-2.1-7.3-1.4-9.3
					c0.6-1.9,2.2-4.5,6.1-6.3c9.1-5.3,16-11.2,20.9-17.7l-11.6,0.7c-4.1,0.2-6.7-1.3-8-2.6c-1.4-1.3-3-3.8-2.9-7.9
					c0-0.1,0-0.3,0-0.4c0.5-6.2,4.4-10.3,10.4-11c0.1,0,0.3,0,0.4,0l0.3,0c-2-0.5-3.4-1.5-4.3-2.3c-1.4-1.4-3.1-3.9-3-8.2
					c0-0.2,0-0.5,0.1-0.7c0.9-6,4.9-10,10.7-10.7c0.1,0,0.3,0,0.4,0l54.3-3.3c0.2,0,0.3,0,0.5,0c7.2,0.1,9.9,5.9,10.1,10.8
					c0,0.5,0,1-0.1,1.5c-1.3,6.1-4.8,8.5-7.7,9.5c3.3,0.3,5.3,1.9,6.5,3.3c1.6,1.9,2.4,4.4,2.4,7.5c0,0.3,0,0.5-0.1,0.8
					c-0.9,6.2-4.8,10-10.4,10.4l-14.6,0.9c4.4,6.5,9.6,10.9,15.8,13.4c4.6,1.9,7.3,4.5,8.4,7.9c0.6,2,0.8,5-1.4,8.6
					c-4.4,8.1-13.6,5.7-16.4,4.8c-0.1,0-0.3-0.1-0.4-0.2c-9.6-4.1-17.3-10.1-23-17.8c-6,7.1-13.9,13.8-23.5,19.9
					C678.9,175,675.6,176.2,672.8,176.2z M706.7,136c0.1,0,0.2,0,0.3,0c0.9,0,1.8,0.3,2.6,0.7c-0.6-1.1-1.2-2.3-1.7-3.5
					c-0.9-1.8-0.8-3.9,0.3-5.6c0.4-0.6,0.9-1.2,1.4-1.7c-0.5-0.3-0.9-0.6-1.3-1c-0.1-0.1-0.2-0.3-0.4-0.4c-0.7,1.1-1.8,2-3.1,2.5
					c0.3,0.3,0.6,0.6,0.8,0.9c1.2,1.7,1.5,3.9,0.7,5.8c-0.3,0.8-0.7,1.6-1.1,2.4C705.6,136,706.1,136,706.7,136z M677.4,126.8
					L677.4,126.8L677.4,126.8z M681.8,111.1L681.8,111.1L681.8,111.1z M683.2,106.9L683.2,106.9L683.2,106.9z M707.8,105.3
					c0.1,0.1,0.2,0.2,0.3,0.3c0.1,0.1,0.2,0.3,0.4,0.4c0.2-0.3,0.4-0.5,0.6-0.8L707.8,105.3z M681.2,105.1L681.2,105.1L681.2,105.1z
					"/>
			</g>
			<g>
				<path class="st2" d="M757.3,104.7l5.3-0.3l0.7-8.1c0.2-2.5,1.8-3.9,4.7-4.3c2.7,0,4.1,1.3,4,3.8l-0.7,8.1l2.8-0.2
					c2.7,0,4,1.4,4,4.1c-0.4,2.7-2,4.2-4.7,4.3l-2.8,0.2l-1.1,13.1l2-1c2.6-1,4.4-0.4,5.5,1.8c0.6,2.7-0.3,4.8-2.7,6.4
					c-0.2,0.2-0.6,0.5-1,0.7c-1.5,0.9-3.1,1.7-4.6,2.5l-1.8,21.6c-0.1,6-3,8.7-8.8,8c-2.9-0.2-5.5-0.6-7.7-1.1
					c-2.4-1.1-3.3-2.8-2.7-5.1c0.8-2.1,2.5-3.2,5-3.1c0.2,0.2,0.5,0.3,0.9,0.3c3.3,0.6,4.9,0.1,4.8-1.5l1.3-15.3
					c-2.2,1.2-4.1,1.9-5.8,2.2c-3.1,0-4.4-1.6-4-4.7c0.2-2.1,1.7-3.7,4.5-4.9c0.6-0.2,1.4-0.6,2.3-1.1c1.7-0.7,3-1.3,3.9-1.8
					l1.4-16.3l-6,0.4c-2.3,0.1-3.3-1.2-3.1-4.2C753.3,106.5,754.8,105.1,757.3,104.7z M787.9,101.3l10.1-0.6l0.5-6.3
					c0.2-2.5,1.8-4,4.8-4.6c2.9,0,4.4,1.3,4.4,3.8l-0.6,6.6l9.7-0.6c5.5-0.5,7.9,1.5,7.3,6.1l-4.1,47.5c-0.2,4.6-3.1,6.9-8.7,7.1
					l-27.6,1.7c-6.5,0.6-9.2-1.4-7.9-6.1l4-46.9C779.8,104.2,782.5,101.7,787.9,101.3z M787.2,153.6l6.3-0.4l1.6-18.4l-8.5,0.5
					l-1.4,16.6C784.8,153.3,785.5,153.9,787.2,153.6z M787.4,126.2l8.5-0.5l1.4-16.2l-6.6,0.4c-1.3,0.3-2,1.1-2.1,2.3L787.4,126.2z
					 M812.7,133.7l-8.5,0.5l-1.6,18.4l6.6-0.4c1.3-0.1,1.9-0.7,2-2L812.7,133.7z M806.4,108.9l-1.4,16.2l8.5-0.5l1.2-13.7
					c-0.1-1.4-0.6-2.2-1.7-2.4L806.4,108.9z"/>
				<path class="st1" d="M759.8,171.4c-0.7,0-1.5,0-2.3-0.1c-3.2-0.3-5.9-0.7-8.4-1.2c-0.4-0.1-0.8-0.2-1.2-0.4
					c-5.1-2.3-7.4-7-6-12.1c0.1-0.2,0.1-0.4,0.2-0.6c1.7-4.5,5.7-7.1,10.7-7l0.2-2.4c-3.7-0.2-5.8-1.9-7-3.2c-1.3-1.5-2.6-4.1-2-8.2
					c0.3-2.5,1.7-7,8.1-9.7c0.1,0,0.2-0.1,0.3-0.1c0.3-0.1,0.7-0.3,1.5-0.7c0.2-0.1,0.3-0.2,0.5-0.2c0.2-0.1,0.4-0.2,0.5-0.2
					l0.5-5.9c-2.4-0.1-4.5-0.9-6-2.5c-1.9-2-2.8-4.7-2.5-8.2c0-0.2,0-0.3,0.1-0.5c0.8-5.1,4.4-8.5,9.5-9.3c0.2,0,0.3,0,0.5,0l0.2,0
					l0.3-3c0.5-5.4,4.2-9,9.9-9.8c0.3,0,0.6-0.1,0.9,0c6,0.1,10,4,9.9,9.8c0,0.2,0,0.3,0,0.5l-0.2,2c0.2,0.1,0.3,0.1,0.5,0.2
					c2.3-1.8,5.4-2.9,9.2-3.1l0,0l4.9-0.3l0.1-1.1c0.4-5.2,4-8.9,9.6-10c0.4-0.1,0.8-0.1,1.2-0.1c7.1,0.1,10.3,5,10.3,9.8
					c0,0.1,0,0.1,0,0.2l2.7-0.2c4.8-0.4,8.5,0.6,11,3.2c1.6,1.6,3.3,4.6,2.7,9.5l-4,47.3c-0.4,7.7-5.8,12.4-14.5,12.7l-27.5,1.6
					c-2.3,0.2-8.7,0.7-12.4-3.7c0,0-0.1-0.1-0.1-0.1c-0.7,1.7-1.8,3.2-3.1,4.3C766.2,170.4,763.3,171.4,759.8,171.4z M752.4,154.9
					C752.4,154.9,752.4,154.9,752.4,154.9C752.4,154.9,752.4,154.9,752.4,154.9z M799.4,130.6C799.4,130.6,799.4,130.6,799.4,130.6
					C799.4,130.6,799.4,130.6,799.4,130.6c0.1,0,0.1-0.1,0.1-0.1C799.5,130.5,799.4,130.6,799.4,130.6z M800.6,129.3
					c0,0-0.1,0.1-0.1,0.1C800.6,129.5,800.6,129.4,800.6,129.3C800.7,129.4,800.7,129.4,800.6,129.3
					C800.7,129.4,800.7,129.4,800.6,129.3z M771.4,127.3L771.4,127.3L771.4,127.3z"/>
			</g>
			<g>
				<path class="st0" d="M8.9,289.7l4.7-54.6c0.4-4.7,3-7.4,7.8-7.9c4.5,0,6.6,2.3,6.5,7l-4.7,54.6c-0.6,4.5-3.2,6.9-7.7,7.2
					C10.7,296.3,8.5,294.2,8.9,289.7z"/>
				<path class="st1" d="M14.6,302c-3.7,0-6.6-1.1-8.8-3.3c-1.6-1.6-3.4-4.6-2.9-9.5l4.7-54.6c0.7-7.6,5.4-12.5,13.1-13.4
					c0.2,0,0.5,0,0.7,0c4.8,0,7.6,1.9,9.2,3.5c2.3,2.4,3.4,5.7,3.3,9.8c0,0.1,0,0.2,0,0.3l-4.7,54.6c0,0.1,0,0.2,0,0.3
					c-1,7.4-5.9,11.9-13.3,12.3C15.4,302,15,302,14.6,302z M14.9,291L14.9,291L14.9,291z M21.7,233.2c-1.7,0.2-2,0.8-2.1,2.4
					L14.9,290c0.1,0,0.1,0,0.2,0c1.5-0.1,1.9-0.2,2.1-1.9l4.6-54.2c0-0.3,0-0.5,0-0.7C21.8,233.2,21.7,233.2,21.7,233.2z M8.9,289.7
					L8.9,289.7L8.9,289.7z"/>
			</g>
			<g>
				<path class="st0" d="M43.1,287.6l4.1-48.2l-10.5,0.6c-3.5,0.2-5.2-1.9-5.1-6.4c0.6-4,2.6-6.2,6.2-6.7l35.7-2.1
					c3.7,0,5.7,2,5.8,6c-0.6,4.5-3,6.9-7,7.1l-10.5,0.6l-4.1,48.2c-0.9,4.5-3.6,6.9-8.1,7.2C44.9,294.2,42.7,292.1,43.1,287.6z"/>
				<path class="st1" d="M48.8,299.9c-3.7,0-6.6-1.1-8.8-3.3c-1.6-1.6-3.4-4.6-2.9-9.5l3.5-41.3L37,246c-4.1,0.2-6.7-1.4-8.1-2.8
					c-2.3-2.2-3.4-5.5-3.3-9.8c0-0.2,0-0.5,0.1-0.7c1-6.7,5.1-10.9,11.3-11.8c0.1,0,0.3,0,0.4,0l35.7-2.1c0.1,0,0.3,0,0.4,0
					c7,0,11.5,4.5,11.8,11.7c0,0.4,0,0.7-0.1,1.1c-1,7.3-5.7,11.9-12.5,12.3l-5.3,0.3l-3.7,43c0,0.2,0,0.4-0.1,0.6
					c-1.4,7.2-6.4,11.6-13.6,12C49.6,299.9,49.2,299.9,48.8,299.9z M49.1,289L49.1,289L49.1,289z M47.2,233.4c1.6,0,3.2,0.6,4.3,1.8
					c1.2,1.2,1.8,3,1.7,4.7l-4.1,48c0.1,0,0.1,0,0.2,0c1.6-0.1,2.1-0.4,2.5-2.1l4.1-47.8c0.3-3,2.6-5.3,5.6-5.5l10.5-0.6
					c0.6,0,0.8-0.2,0.8-0.2c0.1,0,0.2-0.3,0.4-0.9l-34.8,2.1c-0.3,0.1-0.4,0.1-0.4,0.1c0,0.1-0.2,0.3-0.3,0.9l9.2-0.6
					C47,233.4,47.1,233.4,47.2,233.4z M43.1,287.6L43.1,287.6L43.1,287.6z"/>
			</g>
			<g>
				<path class="st0" d="M77.6,285.5l4.6-53.8c0.6-4.5,3.2-7.1,7.8-7.9l24.8-1.5c3.7,0,5.7,2,5.8,6c-0.6,4.5-3,6.9-7,7.1L96,236.5
					l-1.2,13.8l15-0.9c4,0,6,2.1,6.2,6.3c-0.9,4.5-3.3,6.9-7.3,7.1l-15,0.9l-1.8,20.9c-0.6,4.5-3.2,6.9-7.7,7.2
					C79.4,292.1,77.2,290,77.6,285.5z"/>
				<path class="st1" d="M83.4,297.9c-3.7,0-6.6-1.1-8.8-3.3c-1.6-1.6-3.4-4.6-2.9-9.5l4.6-53.8c0-0.1,0-0.2,0-0.3
					c1-7,5.6-11.8,12.7-13c0.2,0,0.4-0.1,0.6-0.1l24.8-1.5c0.1,0,0.3,0,0.4,0c7,0,11.5,4.5,11.8,11.7c0,0.4,0,0.7-0.1,1.1
					c-1,7.3-5.7,11.8-12.5,12.3l-12.5,0.7l-0.1,1.7l8.1-0.5c0.1,0,0.3,0,0.4,0c7.2,0,11.9,4.7,12.2,12.1c0,0.5,0,0.9-0.1,1.4
					c-1.4,7.2-6.1,11.6-12.9,12l-9.8,0.6l-1.3,15.8c0,0.1,0,0.2,0,0.3c-1,7.4-5.9,11.9-13.3,12.3C84.1,297.9,83.7,297.9,83.4,297.9z
					 M83.6,286.9L83.6,286.9L83.6,286.9z M88.2,232.4l-4.6,53.4c0.1,0,0.1,0,0.2,0c1.5-0.1,1.9-0.2,2.1-1.9l1.8-20.7
					c0.3-3,2.6-5.3,5.6-5.5l15-0.9c0.7,0,1.2-0.1,1.6-1.5l-14.8,0.9c-1.7,0.1-3.4-0.6-4.7-1.8s-1.8-3-1.7-4.7L90,236
					c0.3-3,2.6-5.3,5.6-5.5l17.7-1.1c0.6,0,0.8-0.2,0.8-0.2c0.1,0,0.2-0.3,0.4-0.9l-23.8,1.4C88.9,230.2,88.4,230.8,88.2,232.4z
					 M77.6,285.5L77.6,285.5L77.6,285.5z"/>
			</g>
			<g>
				<path class="st0" d="M155.3,235c2.7-4.7,5.1-9.6,7.2-14.7c0.3-1.3,1.1-2.2,2.4-2.9c2.8-1,4.8-0.5,6.1,1.5c0.1,1.4-0.2,3.1-0.7,5
					l22.6-1.4c2.7,0,4,1.6,4,4.7c-0.5,3.1-2.1,4.8-4.8,5l-26.4,1.6c-1.2,1.7-2.9,4.1-5,7.1c-0.7,1.1-1.1,1.7-1.1,1.9
					c-1.9,2.4-3.9,3.2-6.2,2.5c-2.4-0.9-3.1-2.6-2.1-5.2c0.3-0.6,0.5-1.2,0.8-1.6l-12.3,0.7l-0.8,5.6l8.5-0.5
					c4.2-0.3,6.1,1.7,5.7,5.9L152,267c-0.7,11-2.7,18.1-5.9,21.2c-1.8,2-4.8,3.2-8.7,3.6c-4.8-0.1-7-1.9-6.7-5.2
					c0.2-2.7,1.7-4.2,4.5-4.6c0.2,0.2,0.5,0.3,0.9,0.3c0.8,0.2,1.7,0.1,2.5-0.2c1,0.1,1.8-0.7,2.4-2.6c0.6-1.7,1.1-5.4,1.6-11
					l1.1-13.1c-0.2-0.4-0.5-0.7-0.9-0.9l-5,0.3c-2.9,14.9-6.1,26.2-9.5,33.8c-1.5,3.2-3.6,4.5-6.3,3.8c-2.8-0.9-3.6-2.9-2.3-6.1
					c5.7-13.4,9.5-28.9,11.5-46.4l-3.1,0.2c-2.7,0.2-4.1-1.3-4-4.4c0.5-3.1,2.1-4.9,4.8-5.3l7.2-0.4c-0.6-0.2-1.2-1.7-1.8-4.6
					c-0.4-2.3,0.5-3.9,2.9-4.8c2.6-1,4.5-0.5,5.8,1.5c2,3.8,2.6,6.3,1.9,7.3l7.2-0.4C155.2,229,156.3,231.1,155.3,235z M157.3,248.6
					c-0.1-3.5,2.1-5.6,6.8-6.3c6.2-1.4,13.5-3.9,21.9-7.5c2.8-1,4.7-0.4,5.8,1.8c0.6,2.9-0.4,5-3,6.4c-3.7,1.9-7.2,3.3-10.4,4.4
					c0,2.7,0.3,5.4,0.9,8l8.9-4.9c2-0.9,3.7-0.4,5.2,1.6c1,2.4,0.8,4.3-0.8,5.6c-2,1.4-5.8,3.7-11.5,6.9c0.7,6.2,3.3,11.3,7.7,15.4
					c2.5,2.3,2.8,4.9,0.9,7.7c-2.3,2.4-4.8,2.6-7.5,0.5c-7.9-7.4-12.1-20.1-12.7-38.1l-2.6,0.8l-2.4,27.8c2.6-0.8,4.1-1.3,4.5-1.5
					c2.3-0.6,3.9,0.4,4.8,2.8c0.4,2.3-0.4,4-2.6,5.1c-8,3-12.9,4.2-14.7,3.7c-1.8-0.3-2.5-2.6-1.9-7L157.3,248.6z"/>
				<path class="st1" d="M123.3,298.6c-0.9,0-1.9-0.1-2.8-0.4c-0.1,0-0.2-0.1-0.3-0.1c-3.7-1.1-5.5-3.4-6.3-5.1
					c-1.2-2.6-1.2-5.7,0.2-9c4.8-11.2,8.2-24.1,10.3-38.4c-1.5-0.5-2.7-1.3-3.4-2c-1.4-1.3-3-3.8-2.9-8c0-0.3,0-0.5,0.1-0.8
					c0.9-5.7,4.6-9.6,9.9-10.3c0,0,0.1,0,0.1,0c0-4.2,2.5-7.7,6.7-9.4c0,0,0.1,0,0.1-0.1c5.2-2,10.2-0.5,13,3.9
					c0.1,0.2,0.2,0.3,0.3,0.5c0.6,1.2,1.2,2.5,1.7,3.8l1.7-0.1c0.1,0,0.3,0,0.4,0c0.9,0,1.8,0.1,2.5,0.3c0.8-1.6,1.5-3.3,2.2-5
					c0.8-2.7,2.6-4.9,5.3-6.3c0.3-0.1,0.5-0.3,0.8-0.4c5.4-1.9,10.3-0.5,13.2,3.9c0.4,0.6,0.6,1.2,0.8,1.9l15.7-0.9
					c0.2,0,0.3,0,0.5,0c3.9,0.1,6.3,1.9,7.5,3.4c1.6,1.9,2.4,4.4,2.4,7.5c0,0.3,0,0.5-0.1,0.8c-0.6,3.8-2.4,6.7-5,8.4
					c0.4,3.5-0.6,6.6-2.8,9c1.1,0.7,2.1,1.7,3,2.8c0.3,0.4,0.5,0.8,0.7,1.3c2.1,4.8,1.2,9.5-2.4,12.6c-0.2,0.1-0.3,0.3-0.5,0.4
					c-1.7,1.1-4.4,2.8-8.2,5c1,3.1,2.6,5.7,5.1,7.9c4.7,4.4,5.3,10.3,1.8,15.5c-0.2,0.3-0.4,0.5-0.6,0.8c-4.4,4.7-10.4,5.1-15.6,1.1
					c-0.1-0.1-0.3-0.2-0.4-0.4c-1-0.9-1.9-1.9-2.8-2.9c-0.4,0.3-0.8,0.5-1.3,0.8c-0.2,0.1-0.5,0.2-0.7,0.3
					c-11.1,4.1-15.3,4.6-18.1,3.9c-1.2-0.3-3-0.9-4.4-2.5c-0.1,0.1-0.2,0.2-0.2,0.3c-2.8,3-7,4.8-12.4,5.4c-0.3,0-0.6,0-0.8,0
					c-2.9-0.1-5.3-0.6-7.2-1.7C128,297.7,125.8,298.6,123.3,298.6z M160.3,285.2L160.3,285.2L160.3,285.2z M157.3,282.9
					C157.3,282.9,157.3,282.9,157.3,282.9C157.3,282.9,157.3,282.9,157.3,282.9z M176.2,260.6c0,0.1,0,0.2,0,0.3
					c0-0.1,0.1-0.1,0.1-0.2C176.3,260.6,176.3,260.6,176.2,260.6z M188.4,240.3L188.4,240.3L188.4,240.3z M137.6,224.2L137.6,224.2
					C137.6,224.2,137.6,224.2,137.6,224.2z"/>
			</g>
			<g>
				<path class="st0" d="M208.7,224.7c0.2-5.2,2.2-7.8,6-7.8l55.3-3.3c3.3-0.2,4.9,1.5,4.6,5l-0.9,10.6c-0.2,2.9-1.9,4.4-5.1,4.3
					L261,234l-0.4,4.4l9.1-0.5c2.7,0,4.2,1.3,4.4,3.8c-0.2,2.7-1.7,4.1-4.4,4.3l-9.7,0.6l-0.3,4.1l10.4-0.6c2.5,0.1,3.8,1.4,4,4.1
					c-0.4,2.7-1.9,4.2-4.4,4.3l-23.6,1.4c1.2,3.2,2.8,5.8,5,7.8c4.1-1.9,7.6-4.1,10.6-6.5c2.2-1.4,4.1-1.2,5.6,0.6
					c1.3,2,0.9,3.9-1.1,5.7c-2.9,2.5-5.7,4.2-8.3,5.2c2.4,1.5,5,2.4,7.9,2.6c6.6,0.2,8.3,2.7,5,7.5c-1.2,1.7-4,2-8.5,0.8
					c-13.7-3.1-22.2-10.8-25.5-23l-7.5,0.5l-1.3,15c1.7-0.3,3.2-0.6,4.5-0.9c3.4-1,5.4-1.6,6.1-1.6c2.3,0.3,3.4,1.7,3.4,4.1
					c-0.2,1.9-1.4,3.2-3.8,4c-1.7,0.3-3.2,0.7-4.5,1.2c-3.4,1-6.3,1.8-8.6,2.4c-4.7,1.3-6.6-0.8-5.7-6.5l1.5-17.2l-7.5,0.5
					c-1,6.3-2.4,12.2-4.3,17.7c-1.7,5.1-4.1,7.3-7.1,6.6c-2.9,0-3.7-2.1-2.3-6.1c3.8-10,6.3-20.9,7.5-32.8L208.7,224.7z
					 M221.1,240.7l7.9-0.5l0.4-4.4l-13.5,0.8l-0.9,10c-0.2,2.3-0.5,4.5-0.9,6.6l13.8-0.8l0.3-4.1l-7.9,0.5c-2.5,0.2-3.8-1.1-3.7-3.8
					C217.1,242.5,218.5,241.1,221.1,240.7z M216.8,225.1l-0.3,3.8l48.7-2.9l0.3-3.8L216.8,225.1z M237,247.9l-0.3,4.1l14.1-0.8
					l0.3-4.1L237,247.9z M251.9,238.9l0.4-4.4l-14.1,0.8l-0.4,4.4L251.9,238.9z"/>
				<path class="st1" d="M202.6,292.2c-0.6,0-1.2-0.1-1.7-0.1c-3.8-0.2-5.9-2.3-6.8-3.6c-2.8-4-1.1-8.9-0.6-10.5
					c0-0.1,0-0.1,0.1-0.2c3.6-9.4,6-19.9,7.1-31.2l1.9-22.3c0.6-12.1,8.9-13.4,11.7-13.4l55.2-3.3c4.3-0.3,6.8,1.4,8.2,2.8
					c1.4,1.5,3.1,4.2,2.7,8.7l-0.9,10.6c-0.2,2.1-0.8,4-1.9,5.5c1.3,1.5,2.2,3.6,2.4,5.9c0,0.3,0,0.7,0,1c-0.2,2.3-0.9,4.2-2.1,5.8
					c1.1,1.5,1.8,3.5,2,5.7c0,0.5,0,0.9-0.1,1.4c-0.7,4-2.8,7-6.1,8.4c0.1,2.3-0.6,4.5-2.2,6.6c2.2,0.7,4.4,2.1,5.7,4.7
					c1.2,2.3,1.8,6.1-1.8,11.3c-2.7,4-7.7,5.1-14.9,3.2c-5.8-1.3-10.7-3.4-15-6.1c-1.4,1.8-3.4,3.2-6,4c-0.3,0.1-0.5,0.1-0.8,0.2
					c-1.3,0.2-2.5,0.5-3.4,0.9c-0.1,0.1-0.3,0.1-0.4,0.1c-3.5,1-6.5,1.9-8.9,2.4c-5.2,1.4-8.4-0.1-10.2-1.7
					c-1.4-1.3-2.4-2.9-2.8-4.8C210.2,290.8,205.7,292.2,202.6,292.2z M236.5,275.5L236.5,275.5L236.5,275.5z M269.5,239.9
					L269.5,239.9z M208.7,224.7L208.7,224.7L208.7,224.7z"/>
			</g>
			<g>
				<path class="st0" d="M289.9,221.1c-2.5,0.2-3.6-1.2-3.4-4.1c0.2-2.7,1.6-4.2,4.1-4.6l62.5-3.8c2.5,0.1,3.7,1.4,3.7,4.1
					c-0.5,2.9-1.9,4.5-4.5,4.6l-26.4,1.6l-0.4,5l17.3-1c5.2-0.5,7.6,1.5,7,6.1l-1.8,20.9l3.1-0.2c2.3,0.1,3.3,1.6,3.1,4.5
					c-0.4,2.7-1.8,4.2-4.1,4.3l-2.5,0.2l-1.1,12.5c-0.3,6.4-5.9,9.3-16.7,8.5c-3.3-0.4-4.8-2-4.6-4.7c0.6-2.3,2.5-3.6,5.6-3.8
					c0,0.2,0.2,0.3,0.6,0.3c3.9,0.2,6-0.8,6.2-2.9l0.8-9.4l-41.1,2.5l-1.4,16.6c-0.4,2.3-2.1,3.6-5,4c-2.9,0-4.3-1.2-4.1-3.5
					l1.4-16.6l-3.1,0.2c-2.7,0.2-4.1-1.1-4-3.8c0.2-2.9,1.7-4.6,4.5-4.9l3.5-0.2l1.8-20.6c0-4.8,2.7-7.2,8.1-7.3l17.6-1.1l0.4-5
					L289.9,221.1z M298.7,247l-0.5,5.9l16-1l0.5-5.9L298.7,247z M300.8,233.5c-0.6,0.2-1,0.6-1,1l-0.4,5l16-1l0.5-5.9L300.8,233.5z
					 M323.3,251.4l15.7-0.9l0.5-5.9l-15.7,0.9L323.3,251.4z M324.9,232l-0.5,5.9l15.7-0.9l0.4-5c-0.2-0.4-0.5-0.7-0.9-0.9L324.9,232
					z"/>
				<path class="st1" d="M291,288.2C290.9,288.2,290.9,288.2,291,288.2c-3.4,0-6.1-1.1-7.9-3.1c-1.2-1.3-2.5-3.5-2.2-6.9l0.9-10.2
					c-1.8-0.5-3-1.3-3.8-2.1c-1.3-1.3-2.9-3.5-2.8-7.4c0-0.2,0-0.3,0-0.5c0.5-5.3,3.5-9,8.4-10.1l1.3-15.4c0-2.3,0.5-4.3,1.4-6.1
					c-1.4-0.5-2.4-1.3-3.1-2c-1.3-1.4-2.8-3.9-2.5-8.1c0.5-5.5,3.9-9.3,9.3-10c0.2,0,0.3,0,0.5,0l62.5-3.8c0.2,0,0.3,0,0.5,0
					c5.8,0.1,9.6,4.2,9.6,10.2c0,0.3,0,0.6-0.1,0.9c-0.8,4.9-3.6,8.2-7.8,9.3c0.7,1.7,1.1,3.8,0.8,6.6l-1.3,14.7
					c1.6,0.6,2.7,1.5,3.4,2.3c1.8,2,2.6,4.7,2.3,8.1c0,0.2,0,0.3-0.1,0.5c-0.7,4.5-3.3,7.7-7,8.8l-0.6,7.6c-0.2,4-1.8,7.4-4.6,9.8
					c-4,3.5-10,4.9-18.5,4.2c-0.1,0-0.2,0-0.3,0c-7.9-1-10.2-6.6-9.8-11.2c0-0.3,0.1-0.7,0.2-1c0.5-1.9,2.1-5.8,7-7.5l-23.6,1.4
					l-1,11.4c0,0.2,0,0.4-0.1,0.5c-0.4,2.3-2.2,7.9-10.2,8.9C291.5,288.2,291.2,288.2,291,288.2z M336.9,271.6
					C336.9,271.6,336.9,271.6,336.9,271.6C336.9,271.6,336.9,271.6,336.9,271.6z"/>
			</g>
			<g>
				<path class="st0" d="M366.9,238.8c-2.5,0.2-3.6-1.2-3.4-4.1c0.4-2.7,1.9-4.3,4.5-4.6l7.9-0.5c3.8,0,5.6,1.8,5.5,5.6l-1.8,20.6
					c0.2,7.2,6.8,10.7,19.7,10.3l28.9-1.7c2.9,0,4.4,1.2,4.4,3.5c-0.4,2.5-2.2,4-5.4,4.4l-32.7,2c-6.5,0.4-12.7-1.3-18.6-5.1
					c-1.2-0.8-1.9-1.2-2.1-1.4c-0.4,0-1.4,0.9-3,2.7c-1.6,1.8-2.7,3-3.1,3.6c-2.5,2.2-4.7,2.8-6.7,1.6c-2.2-1.3-2.4-3.1-0.8-5.2
					c5.6-6.8,9-10.9,10.1-12.4l1.5-17.8c-0.1-0.8-0.6-1.3-1.4-1.5L366.9,238.8z M368.6,214.8c-2.2-1.1-2.7-2.8-1.4-5.2
					c1.4-2.2,3.5-3,6.2-2.5c2.2,0.9,5.1,2.6,8.6,5.1c1.5,1.8,1.6,3.8,0.4,6.2c-1.6,2.2-3.5,2.6-5.4,1.3
					C373.4,217.5,370.6,215.9,368.6,214.8z M396.2,213.4c-0.4-0.2-0.8-0.6-1.1-1.2c-1.5-1.8-2.1-3.4-1.8-4.9c0.9-3.8,3.7-4.8,8.4-3
					c1.1,1.2,2.5,3.3,4.2,6.3c0.3,0.8,0.8,1.5,1.4,2.1l7.9-0.5c0.5-0.7,1.2-1.9,2.2-3.9c0.8-1.7,1.5-3,2.2-3.9
					c1.2-2.4,3.2-3.4,5.9-3.2c2.5,0.5,3.4,2,2.7,4.5c-1,2.3-2,4.3-3,5.8l6.6-0.4c2.5,0.1,3.7,1.5,3.7,4.4c-0.7,2.9-2.3,4.5-4.8,4.6
					l-16.6,1c-0.5,3.1-1,6.3-1.4,9.4l18.8-1.1c2.3,0.1,3.3,1.6,3.1,4.5c-0.4,2.7-1.8,4.2-4.1,4.3l-19.5,1.2
					c-3.5,11.2-9.3,19-17.6,23.4c-3.3,1.9-5.7,1.7-7.1-0.5c-1-2.4,0-4.7,3.1-6.7c5.9-3.7,10-8.9,12.3-15.7l-14.8,0.9
					c-2.9,0.2-4.4-1.2-4.3-4.1c0.6-2.7,2.4-4.3,5.4-4.7l16-1c0.5-3.1,1-6.3,1.4-9.4l-15.7,0.9c-2.3,0.1-3.4-1.2-3.4-4.1
					c0.5-2.9,1.8-4.6,4.2-4.9L396.2,213.4z M411.9,249.5c-1.9-1.7-1.8-3.7,0.5-5.9c2.2-1.8,4.5-2,6.9-0.7c4.7,3.7,8.3,7.5,10.9,11.5
					c1.2,2.8,0.7,5.1-1.5,6.9c-2.4,1.6-4.6,1.2-6.5-1.2C419,256.3,415.6,252.8,411.9,249.5z"/>
				<path class="st1" d="M363,282.1c-2.3,0-4.1-0.8-5.1-1.3c-0.1,0-0.1-0.1-0.1-0.1c-3.2-1.9-4.3-4.5-4.6-6.2
					c-0.3-1.8-0.3-4.6,2.1-7.8c0-0.1,0.1-0.1,0.2-0.2c5-6.1,7.6-9.3,8.9-10.9l0.9-10.8c-2.6-0.3-4.3-1.5-5.4-2.5
					c-1.3-1.4-2.8-3.9-2.5-8.1c0-0.1,0-0.3,0.1-0.4c0.9-5.3,4.4-8.9,9.5-9.6c0.2,0,0.3,0,0.5,0l4.7-0.3c-2.7-1.6-4.9-2.8-6.5-3.7
					c-3.1-1.6-4.3-3.9-4.8-5.5c-0.5-1.7-0.8-4.4,1-7.8c0.1-0.2,0.2-0.4,0.3-0.5c2.7-4.1,7.2-6,12.2-5.1c0.4,0.1,0.9,0.2,1.3,0.4
					c2.7,1.1,5.9,3,9.8,5.7c0.4,0.3,0.8,0.6,1.1,1c0.1,0.1,0.2,0.2,0.3,0.3c0.1-0.1,0.3-0.1,0.4-0.2c0-0.9,0.1-1.7,0.2-2.3
					c0,0,0-0.1,0-0.1c1.1-4.2,3.5-6.3,5.4-7.2c3-1.6,6.7-1.5,11,0.1c0.8,0.3,1.5,0.8,2.1,1.4c1.4,1.4,2.8,3.5,4.5,6.4l1.1-0.1
					c0.1-0.2,0.2-0.4,0.4-0.7c0.9-1.9,1.7-3.4,2.6-4.5c2.4-4.2,6.6-6.3,11.5-5.8c0.2,0,0.4,0,0.6,0.1c3.6,0.7,5.5,2.6,6.4,4.1
					c0.8,1.3,1.6,3.2,1.3,6c4.4,1.1,7.2,4.9,7.2,10.2c0,0.4-0.1,0.8-0.1,1.3c-0.8,3.5-2.7,6.2-5.2,7.8c0.9,0.5,1.6,1.2,2.1,1.7
					c1.8,2,2.6,4.7,2.3,8.1c0,0.2,0,0.3-0.1,0.5c-0.9,5.5-4.5,9-9.7,9.3l-0.6,0c2,2.1,3.8,4.3,5.2,6.6c0.2,0.3,0.3,0.6,0.5,0.9
					c1.4,3.3,1.5,6.6,0.2,9.4c1.5,1.5,2.5,3.7,2.5,6.4c0,0.3,0,0.7-0.1,1c-0.9,5.2-4.7,8.6-10.5,9.3c-0.1,0-0.3,0-0.4,0l-32.7,2
					c-7.1,0.4-14-1.2-20.4-5c-1.4,1.6-1.8,2.1-1.9,2.2c-0.3,0.3-0.5,0.7-0.9,1C368.4,281.3,365.4,282.1,363,282.1z M428.5,270.4
					C428.5,270.4,428.5,270.4,428.5,270.4C428.5,270.4,428.5,270.4,428.5,270.4z M409.9,255.8c-0.9,1.4-1.9,2.6-3,3.9l6.5-0.4
					C412.2,258.1,411,256.9,409.9,255.8z M386.2,247.1l-0.3,3.7c0,0,0.1,0,0.1-0.1c1.8-1.1,3.4-2.4,4.8-3.9L387,247
					C386.8,247.1,386.5,247.1,386.2,247.1z M401.8,215.6c-0.1,0.2-0.1,0.3-0.2,0.5l0.6,0C402,215.9,401.9,215.8,401.8,215.6z
					 M380.3,214.6L380.3,214.6L380.3,214.6z"/>
			</g>
			<g>
				<path class="st2" d="M527.7,252.6l17.3-1c4.7,0,7.1,1.9,7,5.9c-0.6,4.3-3,6.5-7.3,6.8l-32.3,1.9c-4.8,0.3-7-1.7-6.6-5.9
					c-0.1-1.2,0.6-2.9,2.3-5c2.2-2.4,4.4-4.7,6.6-7.1c9-9.2,15.6-16.8,19.9-22.8c2.5-3.1,3.9-6.2,4.1-9.2c-0.1-4.5-2.2-6.8-6.1-7.1
					c-4,0.2-7.1,3.3-9.4,9.1c-1.9,4.8-4.2,7.2-7,7.1c-4.8,0.3-6.9-1.8-6.6-6.3c2.3-12.8,10.5-20.5,24.4-23
					c13.4,0.2,20,6.4,19.7,18.5c-0.6,7-7.1,17.2-19.4,30.5C531,248.8,528.8,251.3,527.7,252.6z"/>
				<path class="st1" d="M511.5,272.2c-3.7,0-6.7-1.1-8.8-3.3c-1.5-1.5-3.2-4.2-2.9-8.7c-0.1-3.6,2-6.7,3.6-8.7
					c0.1-0.1,0.2-0.2,0.3-0.3l6.6-7.1c0,0,0.1-0.1,0.1-0.1c8.8-9,15.2-16.4,19.3-22c0.1-0.1,0.1-0.2,0.2-0.3c1.6-2,2.6-3.9,2.8-5.6
					c0-0.4-0.1-0.7-0.1-0.8c-1.7,0.5-3.1,3.4-3.8,5.2c-3.6,9-8.6,11-12.4,11c0,0,0,0,0,0c-4.1,0.2-7.4-0.9-9.7-3.3
					c-1.6-1.6-3.4-4.6-2.9-9.5c0-0.2,0-0.4,0.1-0.6c2.8-15.2,12.9-24.8,29.2-27.8c0.4-0.1,0.8-0.1,1.2-0.1
					c8.7,0.1,15.3,2.5,19.7,7.1c4.1,4.3,6.1,10.2,5.9,17.6c0,0.1,0,0.2,0,0.4c-0.7,7.9-6.4,17.6-17.9,30.6l2.8-0.2
					c0.2,0,0.3,0,0.5,0c4.2,0,7.4,1.2,9.7,3.5c1.5,1.5,3.2,4.2,3.1,8.5c0,0.2,0,0.5-0.1,0.7c-1,7-5.8,11.5-12.9,11.9l-32.3,1.9
					C512.3,272.2,511.9,272.2,511.5,272.2z M512.6,259.2c-0.3,0.4-0.6,0.8-0.7,1c0,0,0.1,0,0.1,0l32.3-1.9c1-0.1,1.3-0.1,1.5-0.6
					c-0.2,0-0.4,0-0.6,0l-17.1,1c-2.4,0.1-4.6-1.2-5.7-3.3c-1.1-2.1-0.8-4.7,0.8-6.6c1.1-1.3,3.2-3.6,6.7-7.6
					c14.7-15.9,17.5-23.6,17.9-26.9c0.1-4-0.8-6.9-2.6-8.8c-2-2.1-5.6-3.2-10.7-3.4c-10.8,2.2-16.8,7.7-18.8,17.3c0,0,0.1,0,0.1,0
					c0.3-0.3,1-1.3,1.8-3.3c3.9-10.2,10.1-12.6,14.6-12.9c0.3,0,0.5,0,0.8,0c7,0.5,11.5,5.4,11.7,12.9c0,0.2,0,0.5,0,0.7
					c-0.4,4.1-2.1,8.3-5.3,12.3c-4.5,6.2-11.1,13.8-20.3,23.3L512.6,259.2z M511.7,259.5C511.7,259.5,511.7,259.5,511.7,259.5
					C511.7,259.5,511.7,259.5,511.7,259.5z"/>
			</g>
			<g>
				<path class="st2" d="M565.7,271.9c-1.4,1.6-3.2,2.7-5.5,3.3c-3.7-0.3-5.5-2.3-5.5-6c0.1-0.7,0.3-1.8,0.6-3
					c0-0.5,0.2-0.8,0.4-0.8l9-13.9c1.1-1.8,3.1-3,5.9-3.7c3.7,0.3,5.7,2.3,5.8,6c-0.1,0.7-0.4,1.8-1,3l-0.4,0.8L565.7,271.9z"/>
				<path class="st1" d="M560.2,281.2c-0.1,0-0.3,0-0.4,0c-6.9-0.5-11.1-5.1-11-12.1c0-0.1,0-0.3,0-0.4c0.1-1,0.3-2.2,0.7-3.7
					c0.3-1.6,1-2.8,1.8-3.7l8.5-13.1c2-3.1,5.2-5.2,9.6-6.3c0.6-0.1,1.2-0.2,1.8-0.1c6.7,0.5,11.1,5,11.4,11.7c0,0.3,0,0.5,0,0.8
					c-0.1,1.5-0.6,3.1-1.6,5.1c-0.1,0.1-0.1,0.3-0.2,0.4l-0.4,0.8c-0.1,0.1-0.1,0.2-0.2,0.3l-9.4,14.3c-0.2,0.2-0.3,0.5-0.5,0.7
					c-2.2,2.4-5,4.2-8.4,5.1C561.2,281.1,560.7,281.2,560.2,281.2z M565.7,271.9L565.7,271.9L565.7,271.9z M556.1,271.4
					C556.1,271.4,556.1,271.4,556.1,271.4C556.1,271.4,556.1,271.4,556.1,271.4z"/>
			</g>
			<g>
				<path class="st2" d="M608.5,260.7c-16,0.7-23.4-10.2-22.2-32.9c2.7-22.7,12.1-34.9,28.2-36.6c16-0.2,23.5,11,22.5,33.6
					C634,247.6,624.5,259.5,608.5,260.7z M609.5,248.4c7-0.4,11.1-8,12.4-22.7c1.3-14.7-1.6-22-8.6-21.8c-7,0.7-11.1,8.3-12.1,23
					C599.8,241.7,602.5,248.8,609.5,248.4z"/>
				<path class="st1" d="M607,266.8c-7.6,0-13.7-2.3-18.3-6.9c-6.5-6.6-9.3-17.1-8.5-32.3c0-0.1,0-0.3,0-0.4
					c2.1-17.7,9.6-39.4,33.5-41.9c0.2,0,0.4,0,0.6,0c8.2-0.1,15,2.4,19.8,7.4c6.5,6.7,9.4,17.3,8.8,32.4c0,0.2,0,0.3,0,0.5
					c-2.3,17.8-10.1,39.3-34,41.1c-0.1,0-0.1,0-0.2,0C608.2,266.8,607.6,266.8,607,266.8z M608.5,260.7L608.5,260.7L608.5,260.7z
					 M592.2,228.4c-0.6,11.2,1.2,19.1,5,23c2.4,2.5,6,3.6,10.8,3.4c4.8-0.4,19-1.6,22.9-30.4c0.4-11.2-1.4-19.2-5.4-23.3
					c-2.5-2.5-6-3.8-10.7-3.8c0,0-0.1,0-0.1,0C609.7,197.8,595.7,199.8,592.2,228.4z M608.9,254.4c-3.6,0-6.8-1.3-9.2-3.8
					c-4.3-4.4-5.7-12.1-4.5-24.1c1.2-17.9,7.1-27.5,17.5-28.5c0.1,0,0.3,0,0.4,0c4-0.1,7.4,1.3,10,4c4.3,4.5,5.8,12.2,4.7,24.3
					c-1.5,18.1-7.6,27.5-18,28.2l0,0C609.6,254.4,609.3,254.4,608.9,254.4z M609.5,248.4L609.5,248.4L609.5,248.4z M613.7,209.9
					c-3.3,0.6-5.7,7-6.4,17.4c0,0.1,0,0.1,0,0.2c-1.2,11.9,0.9,14.5,1.2,14.7c0,0,0.1,0.1,0.8,0.1c3.3-0.2,5.9-6.6,6.8-17.2
					c1-11.7-1.1-14.6-1.5-15C614.3,210.1,614.2,210,613.7,209.9z"/>
			</g>
			<g>
				<path class="st2" d="M663.3,257.5c-16,0.7-23.4-10.2-22.2-32.9c2.7-22.7,12.1-34.9,28.2-36.6c16-0.2,23.5,11,22.5,33.6
					C688.8,244.3,679.3,256.2,663.3,257.5z M664.4,245.1c7-0.4,11.1-8,12.4-22.7c1.3-14.7-1.6-22-8.6-21.8c-7,0.7-11.1,8.3-12.1,23
					C654.6,238.4,657.3,245.5,664.4,245.1z"/>
				<path class="st1" d="M661.9,263.5c-7.6,0-13.7-2.3-18.3-6.9c-6.5-6.6-9.3-17.1-8.5-32.3c0-0.1,0-0.3,0-0.4
					c2.1-17.7,9.6-39.4,33.5-41.9c0.2,0,0.4,0,0.6,0c8.3-0.2,15,2.4,19.8,7.4c6.5,6.7,9.4,17.3,8.8,32.4c0,0.2,0,0.3,0,0.5
					c-2.3,17.8-10.1,39.3-34,41.1c-0.1,0-0.1,0-0.2,0C663,263.5,662.4,263.5,661.9,263.5z M663.3,257.5L663.3,257.5L663.3,257.5z
					 M647.1,225.1c-0.6,11.2,1.2,19.1,5,23c2.4,2.5,6,3.6,10.8,3.4c4.8-0.4,19-1.6,22.8-30.4c0.4-11.2-1.4-19.2-5.4-23.3
					c-2.5-2.5-6-3.8-10.7-3.8c0,0-0.1,0-0.1,0C664.5,194.5,650.5,196.5,647.1,225.1z M663.8,251.1c-3.6,0-6.8-1.3-9.2-3.8
					c-4.3-4.4-5.7-12.1-4.5-24.2c1.2-17.9,7.1-27.5,17.5-28.5c0.1,0,0.3,0,0.4,0c4-0.1,7.4,1.3,10,4c4.3,4.5,5.8,12.2,4.7,24.3
					c-1.5,18.1-7.6,27.5-18,28.2l0,0C664.4,251.1,664.1,251.1,663.8,251.1z M664.4,245.1L664.4,245.1L664.4,245.1z M668.5,206.7
					c-3.3,0.6-5.7,7-6.4,17.4c0,0.1,0,0.1,0,0.2c-1.2,11.9,0.9,14.5,1.2,14.7c0,0,0.1,0.1,0.8,0.1c3.3-0.2,5.9-6.6,6.8-17.2
					c1-11.7-1.1-14.6-1.5-15C669.1,206.8,669,206.7,668.5,206.7z"/>
			</g>
			<g>
				<path class="st2" d="M718.1,254.2c-16,0.7-23.4-10.2-22.2-32.9c2.7-22.7,12.1-34.9,28.2-36.6c16-0.2,23.5,11,22.5,33.6
					C743.7,241,734.2,252.9,718.1,254.2z M719.2,241.8c7-0.4,11.1-8,12.4-22.7c1.3-14.7-1.6-22-8.6-21.8c-7,0.7-11.1,8.3-12.1,23
					C709.4,235.1,712.2,242.2,719.2,241.8z"/>
				<path class="st1" d="M716.7,260.2c-7.6,0-13.7-2.3-18.3-6.9c-6.5-6.6-9.3-17.1-8.5-32.3c0-0.1,0-0.3,0-0.4
					c2.1-17.7,9.6-39.4,33.5-41.9c0.2,0,0.4,0,0.6,0c8.3-0.1,15,2.4,19.8,7.4c6.5,6.7,9.4,17.3,8.8,32.4c0,0.2,0,0.3,0,0.5
					c-2.3,17.8-10.1,39.3-34,41.1c-0.1,0-0.1,0-0.2,0C717.8,260.2,717.3,260.2,716.7,260.2z M718.1,254.2L718.1,254.2L718.1,254.2z
					 M701.9,221.8c-0.6,11.2,1.2,19.1,5,23c2.4,2.5,6,3.6,10.8,3.4c4.8-0.4,19-1.6,22.9-30.4c0.4-11.2-1.4-19.2-5.4-23.3
					c-2.5-2.5-6-3.8-10.7-3.8c0,0-0.1,0-0.1,0C719.4,191.2,705.3,193.2,701.9,221.8z M718.6,247.8c-3.6,0-6.8-1.3-9.2-3.8
					c-4.3-4.4-5.7-12.1-4.5-24.1c1.2-17.9,7.1-27.5,17.5-28.5c0.1,0,0.3,0,0.4,0c4-0.1,7.4,1.3,10,4c4.3,4.5,5.8,12.2,4.7,24.3
					c-1.5,18.1-7.6,27.5-18,28.2l0,0C719.2,247.8,718.9,247.8,718.6,247.8z M723.4,203.4c-3.3,0.6-5.7,7-6.4,17.4c0,0.1,0,0.1,0,0.2
					c-1.2,11.9,0.9,14.5,1.2,14.7c0,0,0.1,0.1,0.8,0.1l0,0c3.3-0.2,5.9-6.6,6.8-17.2c1-11.7-1.1-14.6-1.5-15
					C724,203.5,723.9,203.4,723.4,203.4z"/>
			</g>
			<g>
				<path class="st2" d="M757.2,214.5c-2.5,0.2-3.6-1.3-3.4-4.5c0.3-3.1,1.7-4.9,4.2-5.2l63.1-3.8c2.7,0,3.9,1.7,3.6,5.1
					c-0.5,2.9-2.2,4.5-5.1,4.7l-17.3,1l-2.2,25.9c-0.2,2.1,0.9,3.1,3.2,2.9l6-0.4c2.7,0.5,4.3-3.3,5-11.2c0.2-2.5,1.8-3.8,4.7-4
					c2.9,0,4.4,1.3,4.4,3.8c-0.6,14.5-5.7,21.4-15.2,20.5l-7.2,0.4c-8.4,0.7-12.1-2.7-11-10.2l2.3-27.2l-9.4,0.6
					c-2,18.8-9.4,31.8-22.1,38.9c-3.9,2.3-6.8,2.9-8.6,1.8c-2.7-2.5-2.3-5.1,1.3-7.8c12.2-6.3,18.8-17.1,19.6-32.3L757.2,214.5z
					 M766.5,194c-2.7,0.2-3.9-1.4-3.7-4.8c0.7-3.1,2.4-4.9,5.1-5.3l49.3-3c2.5,0.1,3.7,1.6,3.7,4.8c-0.3,3.3-1.7,5.1-4.2,5.2
					L766.5,194z"/>
				<path class="st1" d="M754.4,260.2c-1.8,0-3.6-0.4-5.3-1.5c-0.3-0.2-0.6-0.4-0.9-0.7c-3.2-3-3.7-6.1-3.6-8.2
					c0.2-3.3,2-6.2,5.4-8.8c0.3-0.2,0.6-0.4,0.9-0.5c8.4-4.4,13.5-11.1,15.5-20.5l-8.8,0.5h0c-3.7,0.2-5.9-1.3-7.2-2.6
					c-2-2-2.8-4.8-2.5-8.4c0.5-5.9,4-9.9,9.3-10.7c0.2,0,0.3,0,0.5,0l3.2-0.2c-0.6-0.4-1.1-0.8-1.5-1.2c-2-2.1-2.9-5-2.6-8.6
					c0-0.3,0.1-0.5,0.1-0.8c1.2-5.6,4.9-9.2,10.2-10c0.1,0,0.3,0,0.4,0l49.3-3c0.2,0,0.3,0,0.5,0c6.7,0.2,9.6,5.6,9.5,10.9
					c0,0.1,0,0.3,0,0.4c-0.4,4.3-2.1,7.1-4.4,8.8c2.9,0.4,4.8,1.8,5.9,2.9c1.9,2.1,2.7,5,2.4,8.5c0,0.1,0,0.3-0.1,0.4
					c-0.9,5.7-4.9,9.4-10.7,9.7l-12.1,0.7l-1.5,17l1-0.1c0.3-1,0.7-2.8,0.9-5.8c0.5-5.5,4.4-9.1,10.3-9.5c0.1,0,0.3,0,0.4,0
					c5.1,0.1,10.3,3.1,10.3,9.8c0,0.1,0,0.2,0,0.2c-0.5,10.6-3.1,17.8-8,22.2c-2.4,2.1-6.7,4.6-13.2,4.1l-6.7,0.4
					c-6.3,0.5-11-0.9-14.1-4.2c-2.9-3.1-4-7.3-3.3-12.7l0.6-6.7c-4.2,11.1-11.2,19.5-20.8,24.9C762.4,258,758.5,260.2,754.4,260.2z
					 M757.2,214.5L757.2,214.5L757.2,214.5z M777.8,209.6c0,0,0.1,0.1,0.1,0.1c0,0,0.1-0.1,0.1-0.1L777.8,209.6z M797,208.4
					c0.1,0.1,0.2,0.2,0.3,0.3c0.1-0.1,0.1-0.3,0.2-0.4L797,208.4z M756.9,208.5C756.9,208.5,756.9,208.5,756.9,208.5L756.9,208.5z
					 M819.6,204.7L819.6,204.7z M768.8,190.3L768.8,190.3L768.8,190.3z"/>
			</g>
		</g>
		<g>
			<g>
				<circle class="st0" cx="434.2" cy="20.3" r="13.6"/>
			</g>
			<g>
				<path class="st1" d="M434.2,39.9c-10.8,0-19.6-8.8-19.6-19.6s8.8-19.6,19.6-19.6s19.6,8.8,19.6,19.6S445,39.9,434.2,39.9z
					 M434.2,12.7c-4.2,0-7.6,3.4-7.6,7.6s3.4,7.6,7.6,7.6s7.6-3.4,7.6-7.6S438.4,12.7,434.2,12.7z"/>
			</g>
		</g>
		<g>
			<g>
				<path class="st0" d="M240.4,105.3c-4.2,0-6.1-1.9-5.7-5.9l5.1-59.1c-0.1-3.9,2-5.9,6.1-6l58.7-3.5c4.2-0.3,6.1,1.6,5.8,5.6
					l-5.1,59.7c0.1,3.7-2.3,5.6-7.1,5.7L240.4,105.3z M252.1,45.8l17.9-1.1l0.3-3.1l-22,1.3l-4.7,54.4l17.9-1.1
					c-0.4-0.4-1.1-1.2-2.3-2.3c-2.3-1.9-3.1-3.6-2.4-5.1l-8.8,0.5c-3.4-2.1-3.1-4.4,0.9-6.9l32-1.9l0.2-2.2l-30.8,1.8
					c-3.4-1.9-3.2-4.1,0.6-6.6l16.6-1l0.2-2.2L254,71.2c-4,0.4-5.7-1.4-5.1-5.6l0.3-4.1c0.1-3.9,2-6,5.5-6.2l14.4-0.9l0.2-2.2
					l-17.6,1.1C248.2,51.3,248.3,48.8,252.1,45.8z M268.3,64.1L257,64.8l-0.2,2.5l11.3-0.7L268.3,64.1z M257.3,61.7l11.3-0.7
					l0.2-2.5l-11.3,0.7L257.3,61.7z M268.7,95.8c-0.1-1.9,0.5-3.3,1.6-4.5c0.7-0.7,1.9-0.7,3.8-0.2c0.4,0,0.8,0,1.3-0.1
					c0,0.2,0.1,0.3,0.3,0.3c2.9,0.7,4.4,0.3,4.5-1.2l0.2-2.8l-15.1,0.9l2.2,3c0.9,2,0.3,3.6-1.7,4.8L268.7,95.8z M287.6,69.2
					l-11.3,0.7l-0.2,2.2l11.6-0.7C287.2,70.4,287.1,69.7,287.6,69.2z M276.8,63.6l-0.2,2.5l11-0.7l0.2-2.5L276.8,63.6z M277.3,58
					l-0.2,2.5l11-0.7l0.2-2.5L277.3,58z M301,39.8l-22.3,1.3l-0.3,3.1l18.2-1.1c2.7,2.3,2.6,4.8-0.3,7.5l-18.5,1.1l-0.2,2.2
					l15.1-0.9c2.5,0.3,3.7,1.4,3.8,3.5l-0.7,8.7c-0.1,0.6-0.4,1.4-1.1,2.2l0,0.3c1.5,1.8,2.7,3.4,3.7,4.8L301,39.8z M298.2,76
					c-0.8,1.7-1.8,2.5-3,2.4c-1.5,0.3-2.5-0.1-3-1.1l-2.5,0.2l-0.2,2.5l4.7-0.3c1.9,0.1,2.7,1.2,2.5,3.3c-0.2,2.3-1.2,3.5-3.1,3.6
					l-4.7,0.3l-0.3,3.8c-0.1,1.7-0.6,3-1.3,4.1l9.4-0.6L298.2,76z"/>
			</g>
			<g>
				<path class="st0" d="M343.6,68L341.4,94c0,5-2.5,7.4-7.5,7.3c-4.6,0.3-6.6-1.2-5.9-4.3c0.2-2.1,1.3-3.2,3.4-3.3
					c1.9,0.1,2.8-0.3,2.9-1.1l0.4-5l-9.7,0.6l-0.9,10.6c-0.2,2.5-1.6,3.8-4.1,4c-2.5,0.2-3.6-1-3.1-3.5l2.5-29.7
					c-2.8,0.6-4-0.8-3.7-4.1l0.6-7.2c0.1-3.3,1.3-5.1,3.6-5.2l1.4-16.9c0.1-3.1,1.9-4.8,5.4-5l15.7-0.9c3.6-0.4,5.1,1.1,4.6,4.7
					l-1.4,16.6c1.4,0.1,2.2,1.4,2.2,3.9l-0.7,8.1C346.6,66.6,345.5,68.1,343.6,68z M323.3,61.2l-0.2,2.2l17-1l0.2-1.9
					c-0.1-0.8-0.6-1.3-1.4-1.5l-14.1,0.8C323.8,59.9,323.3,60.3,323.3,61.2z M335.6,77.8l-9.7,0.6l-0.3,4.1l9.7-0.6L335.6,77.8z
					 M326.3,73.1l9.7-0.6l0.2-2.8c-0.2-0.4-0.5-0.7-0.9-0.9l-7.9,0.5c-0.6,0-1,0.4-1,1L326.3,73.1z M330.1,46.4l-2.5,0.2l-0.5,5.6
					l3.5-0.2l0.4-4.7C330.8,46.9,330.5,46.6,330.1,46.4z M336.2,44.8l-0.6,6.9l3.5-0.2l1.1-12.8c0.1-0.6-0.3-1-1.2-1.2l-9.7,0.6
					c-0.6,0.2-1,0.8-1.1,1.6l-0.1,1.6l5-0.3C335.4,40.8,336.4,42.1,336.2,44.8z M348.4,81.7l0.6-6.6c0.1-3.1,1.8-4.8,5.1-5l26.1-1.6
					c3.6-0.4,5.1,1.1,4.6,4.7l-0.5,6.2c-0.3,3.3-2,5-5.1,5l-0.9,0.1c-0.6,2.1-1.3,3.8-2,5.1l8.8-0.5c1.9,0.1,2.8,1.1,2.9,2.9
					c-0.2,2.5-1.4,3.8-3.5,3.9L346,98.3c-2.5,0.2-3.7-1-3.4-3.5c0-2.1,1.3-3.2,4-3.4l8.2-0.5c-0.3-1.2-0.7-2.9-1.1-4.9l-0.9,0.1
					C349.3,86.5,347.9,85.1,348.4,81.7z M350.8,61.1l34.9-2.1c2.1,0.1,3,1.2,2.8,3.2c-0.2,2.5-1.4,3.7-3.4,3.6l-34.9,2.1
					c-2.3,0.3-3.3-0.6-2.9-2.9C347.3,62.5,348.5,61.2,350.8,61.1z M356.4,32.1l5.7-0.3l0.2-2.2c0.2-2.1,1.5-3.2,4-3.4
					c2.1-0.1,3.1,0.9,2.9,2.9l-0.2,2.2l3.8-0.2l0.2-2.2c0-2.1,1.2-3.2,3.7-3.3c2.3-0.1,3.4,0.8,3.2,2.9l-0.2,2.2l5.7-0.3
					c3.3,0,4.9,1.4,4.7,4.1l-1.4,15.9c-0.4,4.2-2,6.1-4.9,5.9L355.1,58c-4,0.4-5.8-0.9-5.3-4l1.4-16.6
					C351.3,34.1,353,32.3,356.4,32.1z M376.9,77.5l0.1-1.2c-0.1-0.8-0.6-1.3-1.4-1.5l-17.9,1.1c-1.1,0.3-1.5,0.8-1.4,1.6l-0.1,1.2
					c-0.3,1.1,0.1,1.4,1.1,1.2l17.9-1.1C376.2,79,376.8,78.6,376.9,77.5z M358.4,51.9l1.9-0.1l0.3-4.1l-3.5,0.2l-0.2,2.5
					C356.7,51.5,357.2,52,358.4,51.9z M357.9,39.5l-0.2,2.5l3.5-0.2l0.3-4.1l-1.9,0.1C358.4,38.1,357.8,38.7,357.9,39.5z M362,90.5
					l6.9-0.4c0.7-1.3,1.4-3,2-5.1l-10.1,0.6C361.3,87.3,361.7,88.9,362,90.5z M367.6,47.3l-0.3,4.1l3.8-0.2l0.3-4.1L367.6,47.3z
					 M368.1,41.4l3.8-0.2l0.3-4.1l-3.8,0.2L368.1,41.4z M378.2,46.7l-0.3,4.1l2.2-0.1c0.8,0,1.4-0.6,1.7-1.7l0.2-2.5L378.2,46.7z
					 M378.8,40.7l3.8-0.2l0.2-2.5c-0.1-0.8-0.6-1.3-1.4-1.5l-2.2,0.1L378.8,40.7z"/>
			</g>
			<g>
				<path class="st0" d="M407.3,69.2c-2.3,0.1-3.6-1-3.8-3.5c0.4-2.5,1.8-3.9,4.1-4.3l48.7-2.9c3.9,0.8,4.4,2.9,1.6,6.4
					c-4,2.5-8.3,4.9-13.1,7l19.2-1.2c2.5,0.1,3.7,1.4,3.7,4.1c-0.5,2.9-1.9,4.5-4.5,4.6l-21,1.3c0,2.3,0,4.5,0.1,6.5
					c-0.4,7.1-9.1,10.4-26.2,10c-3.9-0.2-6.2-1.3-6.9-3.3c-0.4-3.1,0.9-5,3.9-5.8c1.3-0.1,3.6,0,7.2,0.2c8.3,0.5,12.4-0.3,12.4-2.6
					c0.2-1.9,0.2-3.3,0.1-4.4l-33,2c-2.5,0.2-3.6-1.2-3.4-4.1c0.4-2.7,1.9-4.3,4.5-4.6l31.1-1.9c-0.7-1.2,2.1-3,8.6-5.5L407.3,69.2z
					 M431.6,28.8l-0.3-0.6c-0.4-0.4-0.5-0.7-0.2-0.9c-0.9-2.2,0.1-3.9,2.9-5.2c3-1,5-0.5,6.1,1.5c0.5,1.2,1.2,2.7,2.1,4.5l25.4-1.5
					c2.3,0.1,3.4,1.5,3.4,4.1c-0.4,2.7-1.8,4.2-4.1,4.3l-63.8,3.8c-2.3,0.1-3.4-1.1-3.4-3.8c0.4-2.7,1.8-4.3,4.1-4.6L431.6,28.8z
					 M411.3,58.4c-3.8,0.6-5.4-1.1-4.9-5.3l0.6-6.6c0.1-3.1,2-4.9,5.8-5.3l45.5-2.7c3.1,0,4.7,1.5,4.6,4.4l-0.7,7.8
					c-0.3,3.1-2.2,4.8-5.7,5L411.3,58.4z M453,49l0.3-3.4l-37.7,2.3l-0.3,3.4L453,49z"/>
			</g>
			<g>
				<path class="st0" d="M483.6,31.6l5-0.3c0.1-1,0.3-2.4,0.7-4.1c0.1-1.5,0.3-2.8,0.7-4.1c0.2-2.5,1.8-3.8,4.7-4
					c2.9,0,4.4,1.3,4.4,3.8c-0.1,0.6-0.3,1.8-0.6,3.5c-0.4,2.3-0.6,3.8-0.7,4.4l8.5-0.5c4.2-0.5,5.8,2.2,4.9,8.1
					c-1.4,11.1-4.7,22.4-10.1,33.9c2.6,1.7,4.9,3.6,7,5.8c1.5,2.2,1.4,4.2-0.2,5.9c-2,1.8-4.1,2-6.3,0.7c-0.4-0.2-0.9-0.6-1.5-1.2
					c-2-1.3-3.5-2.3-4.4-2.8c-5.7,5.9-10.2,9.7-13.5,11.4c-2.6,1-4.4,0.6-5.5-1.2c-1.1-2-0.7-3.9,1.1-5.7c0.4-0.2,1.3-0.9,2.7-2
					c3.6-3.1,6.5-5.8,8.8-8c-0.8-0.4-2.4-1.2-4.8-2.5c-1.8-1.1-3-2-3.5-2.6c-2.9-0.7-3.2-3.5-1.1-8.6c0.1-0.6,0.5-2,1.3-4.1
					c2.2-6.8,4.2-12.5,5.8-17.1l-4.1,0.2c-2.7,0.2-4.1-1.2-4-4.1C479.3,33.6,480.9,32,483.6,31.6z M493.9,67.7
					c4.4-10.2,7.1-19.4,8-27.5c-0.2-0.4-0.5-0.7-0.9-0.9l-5,0.3c-2.4,8.4-4.4,14.9-6,19.3c-1.1,3-1.5,4.6-1.3,4.7
					C488.2,64.1,490,65.4,493.9,67.7z M516.2,30.3c-2.5,0.2-3.8-1.2-3.7-4.1c0.4-2.7,1.9-4.3,4.5-4.6l29.5-1.8
					c4.3,0.8,5.1,3.2,2.5,7.3c-1.2,1.3-3.8,4.2-7.9,8.6c-4.3,4.4-6.4,6.7-6.2,6.9c0,0.4,0.3,1.3,1,2.7c0.7,1.2,1.5,2.6,2.5,4.2
					l8.8-0.5c2.5,0.1,3.8,1.4,4,4.1c-0.5,2.9-1.9,4.5-4.5,4.6l-6.3,0.4c1.2,5.3,0.8,11.9-1.4,19.7c-4.5,11-13.3,14.9-26.3,11.5
					c-3.2-1.5-4.3-3.6-3.2-6.3c1.5-2.6,3.9-3.3,7.4-2.3c5.9,1.9,10,0.9,12.5-3.2c2.6-6,3.1-12.2,1.6-18.7l-18.2,1.1
					c-2.5,0.2-3.8-1.1-3.7-3.8c0.2-2.9,1.6-4.6,4.2-4.9l14.8-0.9c-0.6-0.8-1.3-1.9-2.2-3.3c-1.4-1.2-1.9-2.4-1.6-3.6
					c0.2-1.9,3-5.5,8.4-10.8c0.2-0.2,0.6-0.5,1-1c0.5-0.7,0.7-1.2,0.8-1.6c-0.2-0.4-0.7-0.6-1.5-0.5L516.2,30.3z"/>
			</g>
			<g>
				<path class="st0" d="M592.9,18.2l0.3-3.1c0.2-1.9,1.8-2.9,5-3.1c2.9,0,4.4,1,4.4,2.8l-0.2,2.8l27.3-1.6c1.9,0.1,2.8,1.5,2.8,4.2
					c-0.4,2.7-1.7,4.1-3.8,4.3l-23.2,1.4l-0.2,2.8l16.6-1c2.5,0.1,3.7,1.5,3.7,4.4l-0.5,5.3l4.1-0.2c2.1,0.1,3,1.4,2.8,3.9
					c-0.4,2.7-1.7,4.1-3.8,4.3l-3.8,0.2l-0.6,7.5c1.9-0.3,3.4,0.5,4.5,2.5c0.9,1.8,0.3,3.6-1.7,5.4c-3.8,3.3-7.8,6.5-12.1,9.4
					c2.7,2.1,6.5,4.1,11.4,5.8c2,1.1,2.2,3.1,0.7,5.9c-1.4,2.2-3.4,2.9-5.8,2.2c-8.4-3.8-14.8-8.5-19.1-14.1l-0.7,8.1
					c-0.2,5.2-3.8,8.1-10.7,8.7c-3.3,0-6-0.1-8.1-0.1c-2-0.5-3-2-2.7-4.5c0.4-2.5,1.8-3.8,4.1-4c0.4,0,1.5,0,3.1,0.1
					c1.4,0.1,2.5,0.2,3.1,0.1c1.7-0.3,2.6-1.1,2.7-2.3l0.6-6.6c-1.7,3.2-9.2,7.2-22.3,11.9c-1.9,0.3-3.3-0.4-4.2-2.2
					c-0.5-2,0.1-3.6,1.7-4.8c0.6-0.2,2-0.7,4.2-1.5c2.8-1.2,4.7-2.1,5.6-2.8c-2-1.3-3.9-2.9-5.9-4.6c-2.3-2.6-1.8-4.9,1.5-6.9
					c-1.6-0.3-2.3-1.3-1.9-3c0-2.7,1.6-4.1,4.7-4.3l18.2-1.1l0.3-3.1l-24.8,1.5l-0.2,2.2c-1.8,15.9-4.3,27.4-7.7,34.7
					c-1.6,2.2-3.6,2.9-5.8,2.2c-2.2-0.7-2.9-2.2-2.1-4.5c3.9-11,6.3-22,7.2-33.1l2.1-25c0.1-3.5,1.6-5.4,4.5-5.6L592.9,18.2z
					 M576.2,30.4l20.1-1.2l0.2-2.8l-22.6,1.4c-1.7,0.1-2.5,0.7-2.3,1.7l-1,11.3l24.8-1.5l0.2-2.8l-20.4,1.2
					C571.9,35.3,572.2,32.9,576.2,30.4z M590.2,64.1c0.8,0,1.6,0.4,2.4,1.4c0.2,0.2,0.4,0.3,0.6,0.3l0.7-8.1l-17.6,1.1
					c0.6,0.2,2.5,1.4,5.6,3.7c2.9,2.3,3.7,3.9,2.4,4.8c0.2-0.2,0.6-0.4,1-0.7C587.3,65,588.9,64.2,590.2,64.1z M602.7,57.1
					c1.2,2.8,3.2,5.5,5.9,8c3.5-2.1,7.1-5.1,10.8-9L602.7,57.1z M603.9,46.8l-0.3,3.1l11.6-0.7c0.6,0.2,1-0.3,1-1.3l0.2-1.9
					L603.9,46.8z M604.5,35.9l-0.2,2.8l12.6-0.8l0.2-1.9c-0.2-0.6-0.5-0.9-1.2-0.9L604.5,35.9z"/>
			</g>
			<g>
				<path class="st2" d="M59.4,135.1l-0.2,2.8l16.6-1l0.2-2.5c0.1-1.5,1.8-2.3,4.9-2.5c2.9,0,4.4,0.8,4.5,2.2l-0.2,2.2l16.3-1
					c1.9,0.1,2.8,1.6,2.7,4.5c-0.5,2.9-1.7,4.5-3.8,4.6l-16,1l-0.3,3.1l5-0.3c4.6-0.3,6.6,1.8,6,6.2l-1,11.9
					c-0.4,4.6-2.7,6.9-6.8,6.9l-18.2,1.1l-0.2,2.5l23.2-1.4c4.4-0.3,6.4,1.9,6,6.5L97,196.6c0.1,6.2-3.3,9.2-10.1,9
					c-2.1-0.1-5.2-0.4-9.3-1c-3.7-2.7-3.3-5.3,1.3-7.9c0.6,0.2,1.7,0.3,3.4,0.4c1.8,0.3,3.3,0.4,4.3,0.4c0.6,0,1.1-0.3,1.3-0.7
					l1.1-12.5c0.1-0.6-0.2-0.9-0.9-0.9l-4.4,0.3c2.2,3.4,3.5,6.2,4,8.5c-1.8,3.6-4,4.3-6.7,2c-8.5,1.5-16.9,3-25.4,4.3
					c-4.2,0.9-8.4,1.4-12.3,1.7c-2.3,0.1-3.3-1.2-3.1-4.2c0-2.7,1.5-4.2,4.5-4.6c4.6-0.5,9.4-1.1,14.2-1.8l0.3-4.1l-19.8,1.2
					c-0.6,0-1,0.3-1,0.7l-1.5,17.8c-0.4,1.9-2,3-5,3.4c-2.9,0-4.3-1-4.1-2.9l1.7-20c0.4-4.2,2.6-6.5,6.8-6.9l23.6-1.4l0.2-2.5
					L40.9,176c-4,0.4-5.7-1.6-5.1-6.2l1.1-12.8c0.3-3.5,2.3-5.5,6.1-6l5.7-0.3l0.3-3.1l-16.6,1c-2.3,0.1-3.3-1.4-3.1-4.5
					c0.4-2.7,1.9-4.3,4.5-4.6l16-1l0.2-2.8C53.4,132.4,56.6,132.2,59.4,135.1z M45.3,168.6l15.4-0.9l0.2-2.5l-15.4,0.9L45.3,168.6z
					 M46,160.5l15.4-0.9l0.2-2.5L46.2,158L46,160.5z M75.4,146l-17,1l-0.3,3.1l17-1L75.4,146z M68.3,184.9l-0.3,3.4
					c2.7-0.2,5.5-0.5,8.2-1.1l-1.3-2.7L68.3,184.9z M69.8,167.1l15.1-0.9l0.2-2.5L70,164.6L69.8,167.1z M85.6,158.1l0.2-2.5
					l-15.1,0.9l-0.2,2.5L85.6,158.1z"/>
			</g>
			<g>
				<path class="st2" d="M112.6,163.9c-2.5,0.2-3.6-1.3-3.4-4.5c0.3-3.1,1.7-4.9,4.2-5.2l63.1-3.8c2.7,0,3.9,1.7,3.6,5.1
					c-0.5,2.9-2.2,4.5-5.1,4.7l-17.3,1l-2.2,25.9c-0.2,2.1,0.9,3.1,3.2,2.9l6-0.4c2.7,0.5,4.3-3.3,5-11.2c0.2-2.5,1.8-3.8,4.7-4
					c2.9,0,4.4,1.3,4.4,3.8c-0.6,14.5-5.7,21.4-15.2,20.5l-7.2,0.4c-8.4,0.7-12.1-2.7-11-10.2l2.3-27.2l-9.4,0.6
					c-2,18.8-9.4,31.8-22.1,38.9c-3.9,2.3-6.8,2.9-8.6,1.8c-2.7-2.5-2.3-5.1,1.3-7.9c12.2-6.3,18.8-17.1,19.6-32.3L112.6,163.9z
					 M121.8,143.5c-2.7,0.2-3.9-1.4-3.7-4.8c0.7-3.2,2.4-4.9,5.1-5.3l49.3-3c2.5,0.1,3.7,1.6,3.7,4.8c-0.3,3.3-1.7,5.1-4.2,5.2
					L121.8,143.5z"/>
			</g>
			<g>
				<path class="st2" d="M221.7,141.9c2.7-4.7,5.1-9.6,7.2-14.7c0.3-1.3,1.1-2.2,2.4-2.9c2.8-1,4.8-0.5,6.1,1.5
					c0.1,1.4-0.2,3.1-0.7,5l22.6-1.4c2.7,0,4,1.6,4,4.7c-0.5,3.1-2.1,4.8-4.8,5l-26.4,1.6c-1.2,1.7-2.9,4.1-5,7.1
					c-0.7,1.1-1.1,1.7-1.1,1.9c-1.9,2.4-3.9,3.2-6.2,2.5c-2.4-0.9-3.1-2.6-2.1-5.2c0.3-0.6,0.5-1.2,0.8-1.6l-12.3,0.7l-0.8,5.6
					l8.5-0.5c4.2-0.3,6.1,1.7,5.7,5.9l-1.4,16.6c-0.7,11-2.7,18.1-5.9,21.2c-1.8,2-4.8,3.2-8.7,3.6c-4.8-0.1-7-1.9-6.7-5.2
					c0.2-2.7,1.7-4.2,4.5-4.6c0.2,0.2,0.5,0.3,0.9,0.3c0.8,0.2,1.7,0.1,2.5-0.2c1,0.1,1.8-0.7,2.4-2.6c0.6-1.7,1.1-5.3,1.6-11
					l1.1-13.1c-0.2-0.4-0.5-0.7-0.9-0.9l-5,0.3c-2.9,14.9-6.1,26.2-9.5,33.8c-1.5,3.2-3.6,4.5-6.3,3.8c-2.8-0.9-3.6-2.9-2.3-6.1
					c5.7-13.4,9.5-28.9,11.5-46.4l-3.1,0.2c-2.7,0.2-4.1-1.3-4-4.4c0.5-3.1,2.1-4.9,4.8-5.3l7.2-0.4c-0.6-0.2-1.2-1.7-1.8-4.6
					c-0.4-2.3,0.5-3.9,2.9-4.8c2.6-1,4.5-0.5,5.8,1.5c2,3.8,2.6,6.3,1.9,7.3l7.2-0.4C221.6,135.9,222.6,137.9,221.7,141.9z
					 M223.6,155.4c-0.1-3.5,2.1-5.6,6.8-6.3c6.2-1.4,13.5-3.9,21.9-7.5c2.8-1,4.7-0.4,5.8,1.8c0.6,2.9-0.4,5-3,6.4
					c-3.7,1.9-7.2,3.3-10.4,4.4c0,2.7,0.3,5.4,0.9,8l8.9-4.9c2-0.9,3.7-0.4,5.2,1.6c1,2.4,0.8,4.3-0.8,5.6c-2,1.4-5.8,3.7-11.5,6.9
					c0.7,6.2,3.3,11.3,7.7,15.4c2.5,2.3,2.8,4.9,0.9,7.7c-2.3,2.4-4.8,2.6-7.5,0.5c-7.9-7.4-12.1-20.1-12.7-38.1l-2.6,0.8l-2.4,27.8
					c2.6-0.8,4.1-1.3,4.5-1.5c2.3-0.6,3.9,0.4,4.8,2.8c0.4,2.3-0.4,4-2.6,5.1c-8,3-12.9,4.2-14.7,3.7c-1.8-0.3-2.5-2.6-1.9-7
					L223.6,155.4z"/>
			</g>
			<g>
				<path class="st2" d="M271.7,148.8l7.9-0.5c2.9,0,4.3,1.9,4.2,5.7l-2.1,24.1c2.5,4.6,8,6.8,16.3,6.5l36.4-2.2
					c2.5-0.2,3.7,0.9,3.5,3.2c-0.2,2.5-1.6,3.8-4.1,4l-36.8,2.2c-6.7,0.2-12.6-1.7-17.6-5.8c-1-0.6-2-0.5-3.1,0.2
					c-0.5,0.4-1,1.1-1.7,2c-0.7,0.9-1.4,2-2.2,3.2c-2.5,2.2-4.5,3-6.1,2.2c-2.4-1.7-2.7-3.8-1-6.2c2.3-2.8,5.2-5.8,8.6-8.9l1.7-20.3
					c0.1-0.8-0.3-1.3-1.1-1.5l-3.5,0.2c-3.2,0.4-4.4-0.9-3.7-3.8C267.3,150.6,268.7,149.2,271.7,148.8z M282.8,139.7
					c-2.8,1.2-4.6,0.6-5.5-1.8c-0.5-1-1.5-2.5-2.7-4.5c-0.6-0.8-1.1-1.7-1.6-2.7c-1.2-2.8-0.5-4.8,2.1-6c2.4-1,4.4-0.5,6.1,1.5
					c0.2,0.6,0.4,1.2,0.8,1.8c1.7,2.4,2.7,4.4,3.2,6C285.8,136.7,285,138.6,282.8,139.7z M310.7,134.3l-10.4,0.6l-0.4,5l7.5-0.5
					c3.1,0,4.7,1.4,4.7,4.1c-0.1,1.7-0.3,3.1-0.4,4.4c-0.3,8.7-0.9,16.5-1.7,23.4c-1.4,6.5-5.7,9.3-12.9,8.2c-2.7,0-4-1-3.8-2.9
					c0.2-2.7,1.6-4,4.1-4c3.3,0.4,4.9-0.3,4.9-2.2c0.1-0.6,0.1-1.2,0.2-1.9c1.2-8.8,1.9-15.7,2.1-20.6c0.1-0.6-0.4-1-1.5-1.2
					l-3.8,0.2l-0.1,1.6c-1.4,11.3-3.6,20.3-6.7,27.1c-2,3.6-4.2,4.8-6.5,3.5c-2.4-0.7-2.4-3.1,0-7.1c2.9-6.6,4.8-15.2,6-25.9
					l0.9-10.9c-2.9,0.2-4.4-1.1-4.4-3.8c0.4-2.5,2.1-4,5.1-4.3l4.7-0.3c-0.3-1.2-0.5-2.2-0.7-3.1c-0.6-2.7,0-4.4,1.7-5.1
					c2.6-0.8,4.4-0.5,5.5,0.9c0.2,0.6,0.5,1.9,0.9,4c0.3,1,0.7,1.9,1,2.7l4.1-0.2c2.3,0.1,3.5,1.3,3.7,3.8
					C314.3,132.8,313,134.2,310.7,134.3z M329,121.7c-0.2,0.4-0.4,0.9-0.4,1.3c-0.2,0.4-0.4,0.8-0.4,1l12.9-0.8
					c2.3,0.1,3.4,1.5,3.4,4.1c-0.4,2.7-1.8,4.2-4.1,4.3l-15.7,0.9c-0.5,0.7-1.1,1.4-1.8,2.3c-0.7,0.9-1.2,1.5-1.4,2
					c0,0.2-0.1,0.3-0.3,0.3c-0.2,0.2-0.2,0.3,0,0.3l14.8-0.9c3.1,0,4.5,1.1,4.1,3.2c-0.2,2.3-3.1,5.8-8.7,10.5
					c0.7,1.6,1.4,3,2.1,4.2l6.3-0.4c1.9,0.1,2.7,1.3,2.5,3.6c-0.2,2.3-1.2,3.5-3.1,3.6l-4.4,0.3c0.1,1.2,0.1,2.6,0,4
					c-0.6,4.4-2,7.8-4.3,10.2c-4.7,3.6-10,4.1-16.1,1.6c-2.2-1.1-2.9-2.6-2.1-4.5c1-2.3,2.7-3.3,4.9-2.8c2.2,0.7,4,1,5.2,0.9
					c2.1,0.3,3.3-1.3,3.9-4.9c0.1-1.5,0.2-2.8,0.3-4.1l-11,0.7c-2.5,0.2-3.7-0.9-3.5-3.2c0.2-2.3,1.6-3.6,4.1-4l8.2-0.5l-0.3-0.3
					c-1.5-2-2-3.2-1.6-3.6c0.1-0.8,1.3-2.7,3.6-5.5c0.7-0.5,1.1-0.9,1.4-1.3l-7.9,0.5c-2.5-0.1-3.2-1.7-2.1-4.8
					c-2.1,0.8-3.6,0.3-4.3-1.3c-0.7-1.4-0.3-3.1,1.4-5.1c2.3-2.4,4.6-6.8,7.1-13.2c0.8-1.9,2.3-2.7,4.6-2.5
					C328.3,118.4,329.2,119.7,329,121.7z"/>
			</g>
			<g>
				<path class="st2" d="M354.7,128.6l5.3-0.3l0.7-8.8c0.2-2.5,1.8-3.8,4.7-4c2.7,0,4.1,1.3,4,3.8l-0.7,8.4l3.8-0.2
					c2.3,0.1,3.4,1.5,3.4,4.2c-0.4,2.7-1.8,4.2-4.1,4.3l-3.8,0.2l-1,11.9c2.2-1.4,3.9-1.7,5.1-0.9c1.4,1,1.9,2.6,1.5,4.9
					c-0.1,1.2-2.6,3.5-7.4,6.7l-1.9,22.2c-0.6,5-3.3,7.7-7.9,7.9c-2.9,0-5.4-0.5-7.4-1.4c-2.2-0.9-3-2.4-2.4-4.5
					c0.6-1.9,2-2.8,4.3-2.7c0.2,0.2,0.7,0.4,1.5,0.5c2,0.5,3.1-0.1,3.3-1.8l1.3-15.6c-2.7,1.8-4.7,2.7-6.2,2.5
					c-2.7,0-3.8-1.6-3.3-4.8c0.5-1.5,1.6-2.7,3.1-3.6c0.7-0.5,1.9-1.1,3.6-2.1c1.5-0.9,2.8-1.7,3.6-2.4l1.4-16.2l-5.7,0.3
					c-2.7,0.2-4.1-1.1-4-3.8C350.2,130.5,351.9,129,354.7,128.6z M372.4,180.4l4.6-53.4c0.1-5.6,2.6-8.4,7.6-8.5
					c13-1.2,23.8-2.6,32.2-4.1c3.4-0.4,5.2,0.8,5.6,3.7c-0.2,2.7-2.1,4.5-5.5,5.3c-1.3,0.3-3.2,0.6-5.7,1c-2.5,0.4-4.1,0.6-4.7,0.6
					l-1.3,15.6l12.9-0.8c2.3,0.1,3.3,1.5,3.1,4.2c-0.4,2.7-1.8,4.2-4.1,4.3l-12.3,0.7c-0.4,14.1,1.7,22.9,6.2,26.4
					c0.2-0.2,0.5-1.5,0.9-3.8c0.4-2.1,0.7-4.8,1-8.1c0.2-2.5,1.6-3.8,4.1-4c2.5,0.1,3.7,1.3,3.7,3.8c-1,13.7-3.4,21.2-7.2,22.5
					c-3.2,0.6-6.2-0.6-9.1-3.5c-6-5-8.7-16-8.1-32.8l-12.6,0.8l-1.9,22.2c0.9-0.7,3-2.7,6.5-6c1.8-1.6,3.6-1.8,5.4-0.6
					c1.8,1.3,2,3,0.8,4.9c-1.2,1.5-2.3,2.8-3.5,3.9c0.8,0.2,2,0.6,3.6,1.3c1.9,1.5,3.6,3,4.9,4.4c1.1,1.8,0.8,3.6-0.8,5.3
					c-2,1.6-3.9,1.8-5.7,0.7c-1.6-1.2-3.2-2.6-4.9-4.4c-1.4-1-1.9-2-1.6-3c-3.3,2.5-5.7,4.2-7,5.1
					C374.6,186.4,372.2,185.1,372.4,180.4z M384.5,141.7l12.2-0.7l1.3-15l-10.1,1.2c-1.5,0.1-2.2,0.7-2.3,1.7L384.5,141.7z"/>
			</g>
			<g>
				<path class="st2" d="M436.8,122.4c0.2-5.2,2.9-7.9,7.9-8.2l49.3-3c5.4-0.3,7.9,1.8,7.3,6.4l-4.5,52.8c-0.3,8.1-6.7,11-19.2,8.6
					c-2.9-0.7-4.1-2.2-3.7-4.8c0.9-2.7,2.7-4,5.6-3.8c5.9,1.3,8.6,0.5,8-2.3l1-12.2l-19.2,1.2l-1.5,17.8c-0.4,2.3-2.1,3.6-5,4
					c-3.1,0.2-4.6-0.9-4.4-3.2l1.6-18.1l-17.3,1c-1.5,8.2-3.7,15.3-6.5,21.2c-1.8,3.4-4.3,4.9-7.6,4.5c-3.2-1-3.9-3.2-2-6.4
					C432.5,168.8,435.8,150.2,436.8,122.4z M460.8,148.6l0.7-8.4l-16.6,1l-0.7,8.4L460.8,148.6z M445.6,131.8l16.6-1l0.7-8.4
					l-14.1,0.8c-1.9,0.1-2.8,1-2.7,2.7L445.6,131.8z M470.9,139.6l-0.7,8.4l19.2-1.2l0.7-8.4L470.9,139.6z M472.4,121.8l-0.7,8.4
					l19.2-1.2l0.5-5.9c0.1-1.7-0.5-2.5-2-2.4L472.4,121.8z"/>
			</g>
			<g>
				<path class="st2" d="M510.3,132.3c-0.8-2.4,0.3-4.5,3.3-6.1c1.1-0.5,2.3-1.1,3.6-1.8c10.1-4.1,19.4-10,27.7-17.5
					c3.1-2.5,6.6-2.4,10.3,0.3c6.2,5,13.8,9.3,22.6,12.9c4.2,1.6,6.5,3.6,6.7,5.8c-0.2,2.5-1.4,4-3.5,4.6c-2.4,0.8-6-0.4-11-3.4
					c1.2,3.5,0,5.6-3.4,6.4l-15.1,0.9l-0.5,5.9l23.6-1.4c2.3,0.1,3.4,1.5,3.4,4.1c-0.5,2.9-1.8,4.5-4.1,4.6l-23.6,1.4l-1.6,18.4
					l6.3-0.4c2.7-4.5,4.9-8.9,6.8-13.2c1.3-2.8,3.3-3.8,6.2-3.2c2.4,0.9,3.1,2.9,2,6.1c-2,4.1-3.7,7.3-5.2,9.6l10.1-0.6
					c2.5,0.1,3.8,1.2,4.1,3.5c-0.4,2.7-1.9,4.3-4.5,4.6l-62.5,3.8c-2.9,0-4.4-1.4-4.3-4.1c0.6-2.3,2.4-3.7,5.3-4.1l26.7-1.6
					l1.6-18.4l-24.2,1.5c-2.7,0.2-4-1.2-3.7-4.1c0.6-2.7,2.3-4.3,5.1-4.7l23.6-1.4l0.5-5.9l-15.1,0.9c-3.2,0.4-4.3-1.3-3.3-5.1
					c-2.7,1.8-5.1,3.1-7.2,3.9C512.9,136,510.7,135.2,510.3,132.3z M524.5,166.6c-0.7-1.2-2.5-4.2-5.2-9c-1.1-1.6-0.6-3.2,1.7-4.8
					c2-1.2,3.8-1.1,5.6,0.3c2.4,3.2,4.3,6.3,5.5,9.3c0.2,2.3-0.7,4.1-2.7,5.4C527.3,168.8,525.6,168.4,524.5,166.6z M529.8,127.4
					l36.4-2.2c-4.4-2-9.6-5.1-15.5-9.3c-1.6-0.9-3.1-0.9-4.4,0.3C541.4,120.4,535.9,124.1,529.8,127.4z"/>
			</g>
			<g>
				<path class="st2" d="M601.4,116c-3.1,0.2-4.7-1.4-4.6-4.7c0.5-3.3,2.3-5.2,5.5-5.6l54.3-3.3c2.7,0,4.1,1.7,4.3,5
					c-0.7,3.4-2.4,5.1-5.1,5.3l-22.6,1.4l-1,11.6l25.8-1.5c2.7,0,4,1.6,4,4.7c-0.5,3.3-2.1,5.1-4.8,5.3l-24.2,1.5
					c5.8,12.3,13.7,20.4,23.5,24.4c4.8,2,6.2,4.6,4,7.8c-1.5,3-4.6,3.7-9.2,2.1c-11.5-4.9-19.8-12.6-24.9-23.1
					c-5.8,9.3-14.9,17.8-27.2,25.6c-5.1,3.2-8.3,3.5-9.8,0.9c-2-3.4-1.3-5.8,2.2-7.3c14.5-8.3,24.1-18.2,28.8-29.7l-22.6,1.4
					c-3.1,0.2-4.7-1.3-4.6-4.4c0.3-3.3,2-5.2,5.2-5.6l24.2-1.5l1-11.6L601.4,116z"/>
			</g>
			<g>
				<path class="st2" d="M681.8,111.1c-3.1,0.2-4.7-1.4-4.6-4.7c0.5-3.3,2.3-5.2,5.5-5.6l54.3-3.3c2.7,0,4.1,1.7,4.3,5
					c-0.7,3.4-2.4,5.1-5.1,5.3l-22.6,1.4l-1,11.6l25.8-1.5c2.7,0,4,1.6,4,4.7c-0.5,3.3-2.1,5.1-4.8,5.3l-24.2,1.5
					c5.8,12.3,13.7,20.4,23.5,24.4c4.8,2,6.2,4.6,4,7.8c-1.5,3-4.6,3.7-9.2,2.1c-11.5-4.9-19.8-12.6-24.9-23.1
					c-5.8,9.3-14.9,17.8-27.2,25.6c-5.1,3.2-8.3,3.5-9.8,0.9c-2-3.4-1.3-5.8,2.2-7.3c14.5-8.3,24.1-18.2,28.8-29.7l-22.6,1.4
					c-3.1,0.2-4.7-1.3-4.6-4.4c0.3-3.3,2-5.2,5.2-5.6l24.2-1.5l1-11.6L681.8,111.1z"/>
			</g>
			<g>
				<path class="st2" d="M757.3,104.7l5.3-0.3l0.7-8.1c0.2-2.5,1.8-3.9,4.7-4.3c2.7,0,4.1,1.3,4,3.8l-0.7,8.1l2.8-0.2
					c2.7,0,4,1.4,4,4.1c-0.4,2.7-2,4.2-4.7,4.3l-2.8,0.2l-1.1,13.1l2-1c2.6-1,4.4-0.4,5.5,1.8c0.6,2.7-0.3,4.8-2.7,6.4
					c-0.2,0.2-0.6,0.5-1,0.7c-1.5,0.9-3.1,1.7-4.6,2.5l-1.8,21.6c-0.1,6-3,8.7-8.8,8c-2.9-0.2-5.5-0.6-7.7-1.1
					c-2.4-1.1-3.3-2.8-2.7-5.1c0.8-2.1,2.5-3.2,5-3.1c0.2,0.2,0.5,0.3,0.9,0.3c3.3,0.6,4.9,0.1,4.8-1.5l1.3-15.3
					c-2.2,1.2-4.1,1.9-5.8,2.2c-3.1,0-4.4-1.6-4-4.7c0.2-2.1,1.7-3.7,4.5-4.9c0.6-0.2,1.4-0.6,2.3-1.1c1.7-0.7,3-1.3,3.9-1.8
					l1.4-16.3l-6,0.4c-2.3,0.1-3.3-1.2-3.1-4.2C753.3,106.5,754.8,105.1,757.3,104.7z M787.9,101.3l10.1-0.6l0.5-6.3
					c0.2-2.5,1.8-4,4.8-4.6c2.9,0,4.4,1.3,4.4,3.8l-0.6,6.6l9.7-0.6c5.5-0.5,7.9,1.5,7.3,6.1l-4.1,47.5c-0.2,4.6-3.1,6.9-8.7,7.1
					l-27.6,1.7c-6.5,0.6-9.2-1.4-7.9-6.1l4-46.9C779.8,104.2,782.5,101.7,787.9,101.3z M787.2,153.6l6.3-0.4l1.6-18.4l-8.5,0.5
					l-1.4,16.6C784.8,153.3,785.5,153.9,787.2,153.6z M787.4,126.2l8.5-0.5l1.4-16.2l-6.6,0.4c-1.3,0.3-2,1.1-2.1,2.3L787.4,126.2z
					 M812.7,133.7l-8.5,0.5l-1.6,18.4l6.6-0.4c1.3-0.1,1.9-0.7,2-2L812.7,133.7z M806.4,108.9l-1.4,16.2l8.5-0.5l1.2-13.7
					c-0.1-1.4-0.6-2.2-1.7-2.4L806.4,108.9z"/>
			</g>
			<g>
				<path class="st0" d="M8.9,289.7l4.7-54.6c0.4-4.7,3-7.4,7.8-7.9c4.5,0,6.6,2.3,6.5,7l-4.7,54.6c-0.6,4.5-3.2,6.9-7.7,7.2
					C10.7,296.3,8.5,294.2,8.9,289.7z"/>
			</g>
			<g>
				<path class="st0" d="M43.1,287.6l4.1-48.2l-10.5,0.6c-3.5,0.2-5.2-1.9-5.1-6.4c0.6-4,2.6-6.2,6.2-6.7l35.7-2.1
					c3.7,0,5.7,2,5.8,6c-0.6,4.5-3,6.9-7,7.1l-10.5,0.6l-4.1,48.2c-0.9,4.5-3.6,6.9-8.1,7.2C44.9,294.2,42.7,292.1,43.1,287.6z"/>
			</g>
			<g>
				<path class="st0" d="M77.6,285.5l4.6-53.8c0.6-4.5,3.2-7.1,7.8-7.9l24.8-1.5c3.7,0,5.7,2,5.8,6c-0.6,4.5-3,6.9-7,7.1L96,236.5
					l-1.2,13.8l15-0.9c4,0,6,2.1,6.2,6.3c-0.9,4.5-3.3,6.9-7.3,7.1l-15,0.9l-1.8,20.9c-0.6,4.5-3.2,6.9-7.7,7.2
					C79.4,292.1,77.2,290,77.6,285.5z"/>
			</g>
			<g>
				<path class="st0" d="M155.3,235c2.7-4.7,5.1-9.6,7.2-14.7c0.3-1.3,1.1-2.2,2.4-2.9c2.8-1,4.8-0.5,6.1,1.5c0.1,1.4-0.2,3.1-0.7,5
					l22.6-1.4c2.7,0,4,1.6,4,4.7c-0.5,3.1-2.1,4.8-4.8,5l-26.4,1.6c-1.2,1.7-2.9,4.1-5,7.1c-0.7,1.1-1.1,1.7-1.1,1.9
					c-1.9,2.4-3.9,3.2-6.2,2.5c-2.4-0.9-3.1-2.6-2.1-5.2c0.3-0.6,0.5-1.2,0.8-1.6l-12.3,0.7l-0.8,5.6l8.5-0.5
					c4.2-0.3,6.1,1.7,5.7,5.9L152,267c-0.7,11-2.7,18.1-5.9,21.2c-1.8,2-4.8,3.2-8.7,3.6c-4.8-0.1-7-1.9-6.7-5.2
					c0.2-2.7,1.7-4.2,4.5-4.6c0.2,0.2,0.5,0.3,0.9,0.3c0.8,0.2,1.7,0.1,2.5-0.2c1,0.1,1.8-0.7,2.4-2.6c0.6-1.7,1.1-5.4,1.6-11
					l1.1-13.1c-0.2-0.4-0.5-0.7-0.9-0.9l-5,0.3c-2.9,14.9-6.1,26.2-9.5,33.8c-1.5,3.2-3.6,4.5-6.3,3.8c-2.8-0.9-3.6-2.9-2.3-6.1
					c5.7-13.4,9.5-28.9,11.5-46.4l-3.1,0.2c-2.7,0.2-4.1-1.3-4-4.4c0.5-3.1,2.1-4.9,4.8-5.3l7.2-0.4c-0.6-0.2-1.2-1.7-1.8-4.6
					c-0.4-2.3,0.5-3.9,2.9-4.8c2.6-1,4.5-0.5,5.8,1.5c2,3.8,2.6,6.3,1.9,7.3l7.2-0.4C155.2,229,156.3,231.1,155.3,235z M157.3,248.6
					c-0.1-3.5,2.1-5.6,6.8-6.3c6.2-1.4,13.5-3.9,21.9-7.5c2.8-1,4.7-0.4,5.8,1.8c0.6,2.9-0.4,5-3,6.4c-3.7,1.9-7.2,3.3-10.4,4.4
					c0,2.7,0.3,5.4,0.9,8l8.9-4.9c2-0.9,3.7-0.4,5.2,1.6c1,2.4,0.8,4.3-0.8,5.6c-2,1.4-5.8,3.7-11.5,6.9c0.7,6.2,3.3,11.3,7.7,15.4
					c2.5,2.3,2.8,4.9,0.9,7.7c-2.3,2.4-4.8,2.6-7.5,0.5c-7.9-7.4-12.1-20.1-12.7-38.1l-2.6,0.8l-2.4,27.8c2.6-0.8,4.1-1.3,4.5-1.5
					c2.3-0.6,3.9,0.4,4.8,2.8c0.4,2.3-0.4,4-2.6,5.1c-8,3-12.9,4.2-14.7,3.7c-1.8-0.3-2.5-2.6-1.9-7L157.3,248.6z"/>
			</g>
			<g>
				<path class="st0" d="M208.7,224.7c0.2-5.2,2.2-7.8,6-7.8l55.3-3.3c3.3-0.2,4.9,1.5,4.6,5l-0.9,10.6c-0.2,2.9-1.9,4.4-5.1,4.3
					L261,234l-0.4,4.4l9.1-0.5c2.7,0,4.2,1.3,4.4,3.8c-0.2,2.7-1.7,4.1-4.4,4.3l-9.7,0.6l-0.3,4.1l10.4-0.6c2.5,0.1,3.8,1.4,4,4.1
					c-0.4,2.7-1.9,4.2-4.4,4.3l-23.6,1.4c1.2,3.2,2.8,5.8,5,7.8c4.1-1.9,7.6-4.1,10.6-6.5c2.2-1.4,4.1-1.2,5.6,0.6
					c1.3,2,0.9,3.9-1.1,5.7c-2.9,2.5-5.7,4.2-8.3,5.2c2.4,1.5,5,2.4,7.9,2.6c6.6,0.2,8.3,2.7,5,7.5c-1.2,1.7-4,2-8.5,0.8
					c-13.7-3.1-22.2-10.8-25.5-23l-7.5,0.5l-1.3,15c1.7-0.3,3.2-0.6,4.5-0.9c3.4-1,5.4-1.6,6.1-1.6c2.3,0.3,3.4,1.7,3.4,4.1
					c-0.2,1.9-1.4,3.2-3.8,4c-1.7,0.3-3.2,0.7-4.5,1.2c-3.4,1-6.3,1.8-8.6,2.4c-4.7,1.3-6.6-0.8-5.7-6.5l1.5-17.2l-7.5,0.5
					c-1,6.3-2.4,12.2-4.3,17.7c-1.7,5.1-4.1,7.3-7.1,6.6c-2.9,0-3.7-2.1-2.3-6.1c3.8-10,6.3-20.9,7.5-32.8L208.7,224.7z
					 M221.1,240.7l7.9-0.5l0.4-4.4l-13.5,0.8l-0.9,10c-0.2,2.3-0.5,4.5-0.9,6.6l13.8-0.8l0.3-4.1l-7.9,0.5c-2.5,0.2-3.8-1.1-3.7-3.8
					C217.1,242.5,218.5,241.1,221.1,240.7z M216.8,225.1l-0.3,3.8l48.7-2.9l0.3-3.8L216.8,225.1z M237,247.9l-0.3,4.1l14.1-0.8
					l0.3-4.1L237,247.9z M251.9,238.9l0.4-4.4l-14.1,0.8l-0.4,4.4L251.9,238.9z"/>
			</g>
			<g>
				<path class="st0" d="M289.9,221.1c-2.5,0.2-3.6-1.2-3.4-4.1c0.2-2.7,1.6-4.2,4.1-4.6l62.5-3.8c2.5,0.1,3.7,1.4,3.7,4.1
					c-0.5,2.9-1.9,4.5-4.5,4.6l-26.4,1.6l-0.4,5l17.3-1c5.2-0.5,7.6,1.5,7,6.1l-1.8,20.9l3.1-0.2c2.3,0.1,3.3,1.6,3.1,4.5
					c-0.4,2.7-1.8,4.2-4.1,4.3l-2.5,0.2l-1.1,12.5c-0.3,6.4-5.9,9.3-16.7,8.5c-3.3-0.4-4.8-2-4.6-4.7c0.6-2.3,2.5-3.6,5.6-3.8
					c0,0.2,0.2,0.3,0.6,0.3c3.9,0.2,6-0.8,6.2-2.9l0.8-9.4l-41.1,2.5l-1.4,16.6c-0.4,2.3-2.1,3.6-5,4c-2.9,0-4.3-1.2-4.1-3.5
					l1.4-16.6l-3.1,0.2c-2.7,0.2-4.1-1.1-4-3.8c0.2-2.9,1.7-4.6,4.5-4.9l3.5-0.2l1.8-20.6c0-4.8,2.7-7.2,8.1-7.3l17.6-1.1l0.4-5
					L289.9,221.1z M298.7,247l-0.5,5.9l16-1l0.5-5.9L298.7,247z M300.8,233.5c-0.6,0.2-1,0.6-1,1l-0.4,5l16-1l0.5-5.9L300.8,233.5z
					 M323.3,251.4l15.7-0.9l0.5-5.9l-15.7,0.9L323.3,251.4z M324.9,232l-0.5,5.9l15.7-0.9l0.4-5c-0.2-0.4-0.5-0.7-0.9-0.9L324.9,232
					z"/>
			</g>
			<g>
				<path class="st0" d="M366.9,238.8c-2.5,0.2-3.6-1.2-3.4-4.1c0.4-2.7,1.9-4.3,4.5-4.6l7.9-0.5c3.8,0,5.6,1.8,5.5,5.6l-1.8,20.6
					c0.2,7.2,6.8,10.7,19.7,10.3l28.9-1.7c2.9,0,4.4,1.2,4.4,3.5c-0.4,2.5-2.2,4-5.4,4.4l-32.7,2c-6.5,0.4-12.7-1.3-18.6-5.1
					c-1.2-0.8-1.9-1.2-2.1-1.4c-0.4,0-1.4,0.9-3,2.7c-1.6,1.8-2.7,3-3.1,3.6c-2.5,2.2-4.7,2.8-6.7,1.6c-2.2-1.3-2.4-3.1-0.8-5.2
					c5.6-6.8,9-10.9,10.1-12.4l1.5-17.8c-0.1-0.8-0.6-1.3-1.4-1.5L366.9,238.8z M368.6,214.8c-2.2-1.1-2.7-2.8-1.4-5.2
					c1.4-2.2,3.5-3,6.2-2.5c2.2,0.9,5.1,2.6,8.6,5.1c1.5,1.8,1.6,3.8,0.4,6.2c-1.6,2.2-3.5,2.6-5.4,1.3
					C373.4,217.5,370.6,215.9,368.6,214.8z M396.2,213.4c-0.4-0.2-0.8-0.6-1.1-1.2c-1.5-1.8-2.1-3.4-1.8-4.9c0.9-3.8,3.7-4.8,8.4-3
					c1.1,1.2,2.5,3.3,4.2,6.3c0.3,0.8,0.8,1.5,1.4,2.1l7.9-0.5c0.5-0.7,1.2-1.9,2.2-3.9c0.8-1.7,1.5-3,2.2-3.9
					c1.2-2.4,3.2-3.4,5.9-3.2c2.5,0.5,3.4,2,2.7,4.5c-1,2.3-2,4.3-3,5.8l6.6-0.4c2.5,0.1,3.7,1.5,3.7,4.4c-0.7,2.9-2.3,4.5-4.8,4.6
					l-16.6,1c-0.5,3.1-1,6.3-1.4,9.4l18.8-1.1c2.3,0.1,3.3,1.6,3.1,4.5c-0.4,2.7-1.8,4.2-4.1,4.3l-19.5,1.2
					c-3.5,11.2-9.3,19-17.6,23.4c-3.3,1.9-5.7,1.7-7.1-0.5c-1-2.4,0-4.7,3.1-6.7c5.9-3.7,10-8.9,12.3-15.7l-14.8,0.9
					c-2.9,0.2-4.4-1.2-4.3-4.1c0.6-2.7,2.4-4.3,5.4-4.7l16-1c0.5-3.1,1-6.3,1.4-9.4l-15.7,0.9c-2.3,0.1-3.4-1.2-3.4-4.1
					c0.5-2.9,1.8-4.6,4.2-4.9L396.2,213.4z M411.9,249.5c-1.9-1.7-1.8-3.7,0.5-5.9c2.2-1.8,4.5-2,6.9-0.7c4.7,3.7,8.3,7.5,10.9,11.5
					c1.2,2.8,0.7,5.1-1.5,6.9c-2.4,1.6-4.6,1.2-6.5-1.2C419,256.3,415.6,252.8,411.9,249.5z"/>
			</g>
			<g>
				<path class="st2" d="M527.7,252.6l17.3-1c4.7,0,7.1,1.9,7,5.9c-0.6,4.3-3,6.5-7.3,6.8l-32.3,1.9c-4.8,0.3-7-1.7-6.6-5.9
					c-0.1-1.2,0.6-2.9,2.3-5c2.2-2.4,4.4-4.7,6.6-7.1c9-9.2,15.6-16.8,19.9-22.8c2.5-3.1,3.9-6.2,4.1-9.2c-0.1-4.5-2.2-6.8-6.1-7.1
					c-4,0.2-7.1,3.3-9.4,9.1c-1.9,4.8-4.2,7.2-7,7.1c-4.8,0.3-6.9-1.8-6.6-6.3c2.3-12.8,10.5-20.5,24.4-23
					c13.4,0.2,20,6.4,19.7,18.5c-0.6,7-7.1,17.2-19.4,30.5C531,248.8,528.8,251.3,527.7,252.6z"/>
			</g>
			<g>
				<path class="st2" d="M565.7,271.9c-1.4,1.6-3.2,2.7-5.5,3.3c-3.7-0.3-5.5-2.3-5.5-6c0.1-0.7,0.3-1.8,0.6-3
					c0-0.5,0.2-0.8,0.4-0.8l9-13.9c1.1-1.8,3.1-3,5.9-3.7c3.7,0.3,5.7,2.3,5.8,6c-0.1,0.7-0.4,1.8-1,3l-0.4,0.8L565.7,271.9z"/>
			</g>
			<g>
				<path class="st2" d="M608.5,260.7c-16,0.7-23.4-10.2-22.2-32.9c2.7-22.7,12.1-34.9,28.2-36.6c16-0.2,23.5,11,22.5,33.6
					C634,247.6,624.5,259.5,608.5,260.7z M609.5,248.4c7-0.4,11.1-8,12.4-22.7c1.3-14.7-1.6-22-8.6-21.8c-7,0.7-11.1,8.3-12.1,23
					C599.8,241.7,602.5,248.8,609.5,248.4z"/>
			</g>
			<g>
				<path class="st2" d="M663.3,257.5c-16,0.7-23.4-10.2-22.2-32.9c2.7-22.7,12.1-34.9,28.2-36.6c16-0.2,23.5,11,22.5,33.6
					C688.8,244.3,679.3,256.2,663.3,257.5z M664.4,245.1c7-0.4,11.1-8,12.4-22.7c1.3-14.7-1.6-22-8.6-21.8c-7,0.7-11.1,8.3-12.1,23
					C654.6,238.4,657.3,245.5,664.4,245.1z"/>
			</g>
			<g>
				<path class="st2" d="M718.1,254.2c-16,0.7-23.4-10.2-22.2-32.9c2.7-22.7,12.1-34.9,28.2-36.6c16-0.2,23.5,11,22.5,33.6
					C743.7,241,734.2,252.9,718.1,254.2z M719.2,241.8c7-0.4,11.1-8,12.4-22.7c1.3-14.7-1.6-22-8.6-21.8c-7,0.7-11.1,8.3-12.1,23
					C709.4,235.1,712.2,242.2,719.2,241.8z"/>
			</g>
			<g>
				<path class="st2" d="M757.2,214.5c-2.5,0.2-3.6-1.3-3.4-4.5c0.3-3.1,1.7-4.9,4.2-5.2l63.1-3.8c2.7,0,3.9,1.7,3.6,5.1
					c-0.5,2.9-2.2,4.5-5.1,4.7l-17.3,1l-2.2,25.9c-0.2,2.1,0.9,3.1,3.2,2.9l6-0.4c2.7,0.5,4.3-3.3,5-11.2c0.2-2.5,1.8-3.8,4.7-4
					c2.9,0,4.4,1.3,4.4,3.8c-0.6,14.5-5.7,21.4-15.2,20.5l-7.2,0.4c-8.4,0.7-12.1-2.7-11-10.2l2.3-27.2l-9.4,0.6
					c-2,18.8-9.4,31.8-22.1,38.9c-3.9,2.3-6.8,2.9-8.6,1.8c-2.7-2.5-2.3-5.1,1.3-7.8c12.2-6.3,18.8-17.1,19.6-32.3L757.2,214.5z
					 M766.5,194c-2.7,0.2-3.9-1.4-3.7-4.8c0.7-3.1,2.4-4.9,5.1-5.3l49.3-3c2.5,0.1,3.7,1.6,3.7,4.8c-0.3,3.3-1.7,5.1-4.2,5.2
					L766.5,194z"/>
			</g>
		</g>
		<g>
			<g>
				<path class="st0" d="M468.2,271.5h-2.1c-9.9,0-17.4-7-16.6-15.6l3.5-38.7c0.8-8.6,9.5-15.6,19.4-15.6h2.1
					c9.9,0,17.4,7,16.6,15.6l-3.5,38.7C486.9,264.5,478.1,271.5,468.2,271.5z"/>
			</g>
			<g>
				<path class="st1" d="M468.2,277.5h-2.1c-6.9,0-13.3-2.7-17.5-7.3c-3.7-4.1-5.5-9.4-5-14.8l3.5-38.7c1.1-11.6,12.5-21,25.4-21
					h2.1c6.9,0,13.3,2.7,17.5,7.3c3.7,4.1,5.5,9.4,5,14.8l-3.5,38.7C492.6,268,481.2,277.5,468.2,277.5z M472.5,207.6
					c-6.8,0-13,4.6-13.5,10.1l-3.5,38.7c-0.2,2.6,0.9,4.5,1.9,5.6c2,2.2,5.1,3.4,8.6,3.4h2.1c6.8,0,13-4.6,13.5-10.1l3.5-38.7
					c0.2-2.6-0.9-4.5-1.9-5.6c-2-2.2-5.1-3.4-8.6-3.4H472.5z"/>
			</g>
		</g>
		<g>
			<g>
				<path class="st0" d="M468.2,271.5h-2.1c-9.9,0-17.4-7-16.6-15.6l3.5-38.7c0.8-8.6,9.5-15.6,19.4-15.6h2.1
					c9.9,0,17.4,7,16.6,15.6l-3.5,38.7C486.9,264.5,478.1,271.5,468.2,271.5z"/>
			</g>
		</g>
		<g>
			<g>
				<path class="st1" d="M461,223.2c-0.7,0-1-0.4-1-1.2c0.1-0.8,0.5-1.2,1.2-1.3l20.8-1.2c0.6,0,1,0.4,1.1,1.2
					c-0.1,0.8-0.5,1.2-1.2,1.2l-10.6,0.6l-0.6,6.5c0.7,0,1,0.4,1.1,1.2c-0.1,0.7-0.6,1.2-1.3,1.3l-0.2,1.9c-0.1,0.7-0.7,1.1-1.6,1.3
					c-1,0-1.4-0.4-1.4-1.1l0.1-1.5c-2.4,0.3-4.8,0.8-7,1.3c-0.9,0.1-1.3-0.2-1.4-0.8c0-0.8,0.4-1.3,1.2-1.6c0.1,0,0.3-0.1,0.6-0.1
					c0.2,0,0.4-0.1,0.6-0.1l0.7-7.6L461,223.2z M464.1,219.9c-1.1,0.1-1.6-0.5-1.4-1.9l0.3-3.5c0-1.2,0.7-1.8,2.1-1.9l14.5-0.9
					c1.3-0.1,1.9,0.4,1.8,1.3l-0.4,4.3c-0.1,1-0.7,1.5-1.6,1.6L464.1,219.9z M464.4,230.3c0.3-0.1,1-0.2,2-0.3
					c0.7-0.2,1.1-0.3,1.4-0.4l0.1-1l-3.3,0.2L464.4,230.3z M464.8,225.8l-0.1,1.2l3.4-0.2l0.1-1.2L464.8,225.8z M465.1,222.9l-0.1,1
					l3.4-0.2l0.1-1L465.1,222.9z M465.8,217.1l-0.1,0.8l12.6-0.8l0.1-0.8L465.8,217.1z M478.5,213.7l-12.6,0.8l-0.1,0.8l12.6-0.8
					L478.5,213.7z M472.4,226c-0.7,0-1.1-0.4-1.1-1.2c0.1-0.8,0.6-1.3,1.3-1.4l7.7-0.5c1.5-0.1,2,0.6,1.4,2
					c-0.8,1.9-1.9,3.6-3.3,5.1c0.8,0.5,1.8,0.9,3,1.4c0.8,0.2,1,0.8,0.6,1.6c-0.4,0.7-1,1-1.8,0.9c-1-0.2-2.4-0.9-4.1-2
					c-1.1,0.9-2.1,1.6-3.2,2.2c-1,0.5-1.7,0.4-2.1-0.2c-0.3-0.8,0-1.5,0.8-1.9c0.8-0.4,1.6-1,2.5-1.7c-0.6-0.5-1.1-1.1-1.5-1.8
					C471.8,227.5,471.7,226.6,472.4,226z M476.4,228.4c0.7-0.8,1.1-1.4,1.3-1.8c0.3-0.6,0.3-0.9,0-0.9l-3.3,0.2
					c0.3,0.4,0.7,0.9,1.3,1.7C475.9,227.8,476.1,228.1,476.4,228.4z"/>
			</g>
			<g>
				<path class="st1" d="M457.7,260.5l0.7-7.9c0.1-1.5,0.8-2.3,2.1-2.4l17.5-1c1.3,0,1.9,0.6,1.9,1.8l-0.6,6.8
					c0.1,2-1.5,2.9-4.6,2.8c-1.6,0-2.1-0.7-1.5-2.1l-9.6,0.6c-1.1,0-1.6-0.4-1.6-1.1l0.3-3.1c0-1,0.6-1.6,1.6-1.7l10.2-0.6
					c1.1-0.1,1.6,0.4,1.5,1.3l-0.3,3.2c0,0.5-0.1,0.8-0.3,0.9c1.2,0,1.7-0.2,1.5-0.5l0.5-5.3c0-0.3-0.1-0.4-0.3-0.5l-14.8,0.9
					c-0.3,0.1-0.5,0.3-0.5,0.6l-0.6,6.9c-0.1,0.7-0.7,1.1-1.6,1.3C458.1,261.6,457.7,261.2,457.7,260.5z M460.2,240.5l8.5-0.5
					c-0.2-0.4-0.3-0.8-0.3-1.1c0.5-1.1,1.4-1.4,2.7-0.8c0.2,0.4,0.4,0.8,0.5,1.2c0.1,0.3,0.2,0.4,0.3,0.6l8.2-0.5
					c0.7,0,1.1,0.5,1.1,1.3c-0.1,0.9-0.6,1.4-1.3,1.4l-20,1.2c-0.7,0-1.1-0.4-1.1-1.3C459.1,241.1,459.5,240.6,460.2,240.5z
					 M462.9,249.2c-1.1,0.2-1.5-0.3-1.3-1.6l0.2-2.1c0-1,0.5-1.6,1.5-1.6l13.4-0.8c1-0.1,1.4,0.4,1.4,1.3l-0.2,2.4
					c0,1.2-0.6,1.7-1.8,1.7L462.9,249.2z M475.1,246l0-0.4c0-0.2-0.1-0.3-0.3-0.3l-10.1,0.6c-0.2,0-0.3,0.1-0.3,0.3l0,0.4
					c0,0.2,0.1,0.3,0.3,0.3l10.1-0.6C475,246.3,475.1,246.2,475.1,246z M464.7,256.6c0,0.2,0.1,0.3,0.3,0.3l7.5-0.4
					c0.1,0,0.2-0.1,0.3-0.3l0-0.5c-0.1-0.1-0.1-0.2-0.3-0.3l-7.5,0.4c-0.2,0-0.3,0.1-0.3,0.3L464.7,256.6z"/>
			</g>
		</g>
	</g>
	<g>
		<g>
			<g>
				<circle class="st2" cx="434.2" cy="20.3" r="13.6"/>
			</g>
			<g>
				<g>
					<path class="st1" d="M433.1,11.6v0.8c-2,0.5-3.5,2.3-3.5,4.5c0,2.6,2.1,4.6,4.6,4.6c1.3,0,2.3,1,2.3,2.3s-1,2.3-2.3,2.3
						c-1.3,0-2.3-1-2.3-2.3c0-0.6-0.5-1.2-1.2-1.2s-1.2,0.5-1.2,1.2c0,2.2,1.5,4,3.5,4.5V29c0,0.6,0.5,1.2,1.2,1.2
						c0.6,0,1.2-0.5,1.2-1.2v-0.8c2-0.5,3.5-2.3,3.5-4.5c0-2.6-2.1-4.6-4.6-4.6c-1.3,0-2.3-1-2.3-2.3s1-2.3,2.3-2.3
						c1.3,0,2.3,1,2.3,2.3c0,0.6,0.5,1.2,1.2,1.2s1.2-0.5,1.2-1.2c0-2.2-1.5-4-3.5-4.5v-0.8c0-0.6-0.5-1.2-1.2-1.2
						C433.6,10.4,433.1,10.9,433.1,11.6z"/>
				</g>
			</g>
		</g>
	</g>
</g>
</svg>
