<?xml version="1.0" encoding="utf-8"?>
<!-- Generator: Adobe Illustrator 22.0.0, SVG Export Plug-In . SVG Version: 6.00 Build 0)  -->
<svg version="1.1" id="圖層_1" xmlns="http://www.w3.org/2000/svg" xmlns:xlink="http://www.w3.org/1999/xlink" x="0px" y="0px"
	 viewBox="0 0 411.5 192.5" style="enable-background:new 0 0 411.5 192.5;" xml:space="preserve">
<style type="text/css">
	.st0{fill:#EB1353;stroke:#FFFFFF;stroke-width:12;stroke-linecap:round;stroke-linejoin:round;stroke-miterlimit:10;}
	.st1{fill:url(#SVGID_1_);stroke:#FFFFFF;stroke-width:12;stroke-linecap:round;stroke-miterlimit:10;}
	.st2{fill:#00307C;}
	.st3{fill:url(#SVGID_2_);}
</style>
<g id="圖層_9">
</g>
<g id="圖層_2_拷貝">
	<g>
		<g>
			<path class="st0" d="M10.6,49.2C22.7,44.3,32.7,39,40.7,33.1c0.2,0,0.5-0.1,1-0.4c1.6-1.1,2.7-1.7,3.6-1.8l2.5-0.2
				c2.1,0.1,3.8,0.5,5.2,1.2C63.3,38.5,72.8,43,81.5,45.4c1.5,1.4,1.8,3.5,0.7,6.5c-0.7,1.3-1.9,2-3.6,2.1c-1.1,0.1-2-0.2-2.7-0.8
				l-1.1,13.4c-0.2,4.2-2.3,6.2-6.4,6l-49.6,3c-4.4,0.3-6.4-1.6-6.1-5.5l1.1-12.8C11,58.1,9.1,57.4,8,55.2
				C7.1,52.4,8,50.4,10.6,49.2z M19.1,103.7c-4.4,0.1-6.4-1.9-6.1-5.9l1.2-14.1c0.1-3.5,2.4-5.4,7.1-5.7l43.3-2.6
				c4.2-0.3,6.1,1.7,5.7,5.9l-1.2,14.1c-0.5,3.3-2.9,5.3-7.4,5.7L19.1,103.7z M21.8,68.1l7.9-0.5c-3.5-2.5-4.7-4.9-3.4-7.3l-3.8,0.2
				L21.8,68.1z M23.4,53.1L68,50.4l-5.7-2.8c-0.7,0.7-1.4,1-2.3,1.1l-31.4,1.9C27.5,51.1,25.8,51.9,23.4,53.1z M60.9,82.9l-37.4,2.2
				l-0.2,2.5l37.4-2.2L60.9,82.9z M22.8,93.3l-0.2,2.5L60,93.6l0.2-2.5L22.8,93.3z M39.7,59.6L33.1,60c3.5,3.1,4.3,5.5,2.5,7.3
				l3.5-0.2L39.7,59.6z M45.4,40.3c-2,1.6-4.1,2.8-6.3,3.8l14.8-0.9l-6.3-3C46.9,39.6,46.1,39.6,45.4,40.3z M48.8,59l-0.6,7.2
				l4.1-0.2c-0.9-1.2,0.1-3.6,3.1-7.3L48.8,59z M62.3,58.2c1,1-0.1,3.4-3.1,7.3l6.6-0.4l0.6-7.2L62.3,58.2z"/>
			<path class="st0" d="M91.4,87.9c-2.5,0.2-3.6-1.5-3.3-5.1L90.6,54c0.2-2.7,2-4.3,5.4-4.7l57.5-3.5c3.1-0.2,4.7,1.1,4.7,3.8
				l-2.5,29.1c0.1,3.9-2.1,5.8-6.4,5.7l-9.1,0.5c5.7,1.3,9.7,2.3,11.9,3c0.6,0.4,1.2,0.7,1.8,0.8c1.7,0.1,2.9,0.4,3.7,1
				c1.5,1.6,1.4,3.6-0.5,6.2c-1.4,1.7-4.1,1.9-8.2,0.5c-5.5-1.7-10.7-3.2-15.6-4.4c-3.7-1-4.2-3.3-1.6-6.7l-18.8,1.1
				c2.1,2.2,1.9,4-0.5,5.6c-7.6,3.8-15.8,7-24.6,9.6c-2.3,0.3-3.8-0.7-4.4-3.2c-0.2-2.7,0.9-4.3,3.2-4.9c7.6-1.7,13.9-3.9,18.7-6.7
				L91.4,87.9z M98.6,46.7c-5.1,0.9-7-0.8-5.8-5.2l0.6-7.2c-0.1-3.5,1.7-5.3,5.5-5.3l55.6-3.3c2.9-0.2,4.3,1.3,4,4.4l-0.7,7.8
				c-0.1,3.9-1.9,5.8-5.2,5.6L98.6,46.7z M99.3,57.3l-0.2,2.5l49.6-3l0.2-2.5L99.3,57.3z M147.9,66.8l0.2-2.8l-49.6,3l-0.2,2.8
				L147.9,66.8z M147,76.8l0.2-2.8l-49.6,3l-0.2,2.8L147,76.8z M149.2,36.5l0.3-3.1l-47.4,2.8l-0.3,3.1L149.2,36.5z"/>
			<path class="st0" d="M179.4,37.5l0.9-10.6c0.2-2.3,1.7-3.6,4.4-4c2.9-0.2,4.4,0.8,4.4,2.8l-1,11.2l3.8-0.2
				c2.3,0.1,3.5,1.5,3.7,4.1c-0.5,3.1-1.9,4.8-4.2,4.9l-4.1,0.2l-0.9,10l1.3-0.7c2.6-1.2,4.5-0.5,5.8,2.1c0.8,2.6,0,4.8-2.4,6.4
				l-5.6,3.1l-1.8,21.6c0.1,3.9-2.7,6-8.3,6.1c-3.3,0-5.8-0.6-7.4-1.7c-1.4-1.2-1.6-3-0.8-5.5c0.6-1.9,2.4-2.6,5.5-2.2
				c1.6,0.3,2.5-0.3,2.6-1.7l1-11.9l-3.3,2.1c-2.6,1.2-4.5,0.6-5.8-1.8c-1-3-0.3-5.3,2.1-6.7l7.9-4.2l1.2-14.4l-6,0.4
				c-2.7,0.2-4.1-1.2-4-4.1c0.2-2.9,1.7-4.6,4.5-4.9L179.4,37.5z M199.1,52.8l2.8-0.2l3.5-19.2l-5.7,0.3c-3.4,0.2-5-1.3-4.9-4.4
				c0.5-2.9,2.4-4.6,5.7-5l34.9-2.1c4-0.2,5.6,1.7,4.8,5.9l-7.7,53.6l4.4-0.3c2.3,0.1,3.4,1.3,3.4,3.8c-0.5,2.9-1.9,4.6-4.2,4.9
				l-45.5,2.7c-2.5-0.1-3.6-1.5-3.4-4.5c0.2-2.5,1.6-3.9,4.1-4.3l4.1-0.2l4.7-22.4l-1.9,0.1c-2.5,0.2-3.6-1.2-3.4-4.1
				C195.1,54.8,196.5,53.2,199.1,52.8z M204.6,83.6l18.2-1.1l3.5-22.3l-17,1L204.6,83.6z M214.5,32.9L211,52.1l16.6-1l2.4-17.6
				c-0.1-1-0.5-1.5-1.1-1.5L214.5,32.9z"/>
			<path class="st0" d="M259.8,32.7l0.9-10.6c0.2-2.3,1.7-3.6,4.4-4c2.9-0.2,4.4,0.8,4.4,2.8l-1,11.2l3.8-0.2
				c2.3,0.1,3.5,1.5,3.7,4.1c-0.5,3.1-1.9,4.8-4.2,4.9l-4.1,0.2l-0.9,10l1.3-0.7c2.6-1.2,4.5-0.5,5.8,2.1c0.8,2.6,0,4.8-2.4,6.4
				l-5.6,3.1l-1.8,21.6c0.1,3.9-2.7,6-8.3,6.1c-3.3,0-5.8-0.6-7.4-1.7c-1.4-1.2-1.6-3-0.8-5.5c0.6-1.9,2.4-2.6,5.5-2.2
				c1.6,0.3,2.5-0.3,2.6-1.7l1-11.9l-3.3,2.1c-2.6,1.2-4.5,0.6-5.8-1.8c-1-3-0.3-5.3,2.1-6.7l7.9-4.2l1.2-14.4l-6,0.4
				c-2.7,0.2-4.1-1.2-4-4.1c0.2-2.9,1.7-4.6,4.5-4.9L259.8,32.7z M279.5,48l2.8-0.2l3.5-19.2l-5.7,0.3c-3.4,0.2-5-1.3-4.9-4.4
				c0.5-2.9,2.4-4.6,5.7-5l34.9-2.1c4-0.2,5.6,1.7,4.8,5.9l-7.7,53.6l4.4-0.3c2.3,0.1,3.4,1.3,3.4,3.8c-0.5,2.9-1.9,4.6-4.2,4.9
				L271,88c-2.5-0.1-3.6-1.5-3.4-4.5c0.2-2.5,1.6-3.9,4.1-4.3l4.1-0.2l4.7-22.4l-1.9,0.1c-2.5,0.2-3.6-1.2-3.4-4.1
				C275.5,50,276.9,48.4,279.5,48z M285,78.8l18.2-1.1l3.5-22.3l-17,1L285,78.8z M294.9,28.1l-3.5,19.2l16.6-1l2.4-17.6
				c-0.1-1-0.5-1.5-1.1-1.5L294.9,28.1z"/>
			<path class="st0" d="M377.4,46.2c-0.3,3.3-2,5-5.1,5l-2.8,0.2l-0.4,4.4l29.5-1.8c2.1,0.1,3.1,1.5,3.1,4.2
				c-0.5,2.9-1.7,4.5-3.8,4.6l-23.6,1.4c7.3,4.5,14.4,7.4,21.1,8.7c4.1,1,5.6,3,4.5,5.9c-1.1,3-3.4,4.2-6.9,3.8
				c-8.4-2-16.7-5.5-25-10.6l-0.9,10.3c-3.5,4.6-6.7,4.8-9.4,0.6l0.9-10.9c-10.2,6.6-19.3,11.1-27.4,13.5c-3.8,1.1-6.1,0.4-6.7-2.1
				c-0.6-2.9,0.5-4.8,3.3-5.8c11.3-3.6,19.6-7.6,24.8-12.1l-23.9,1.4c-2.3,0.1-3.4-1.2-3.4-4.1c0.4-2.7,1.8-4.3,4.1-4.6l30.2-1.8
				L360,52l-3.1,0.2c-3,0.4-4.2-1.1-3.7-4.4l2.1-24.7c0.1-3.5,1.7-5.4,4.9-5.6l3.1-0.2l0.3-3.1c0.2-2.1,1.8-3.3,5-3.7
				c2.9,0,4.4,1.1,4.4,3.2l-0.3,3.1l2.8-0.2c2.7,0,4,1.7,3.9,5L377.4,46.2z M333.7,23.6c0.4,0,0.8,0.2,1.2,0.5
				c0.3-0.6,0.9-1.8,1.9-3.5c2.2-3.7,3.5-5.9,4-6.8c1.9-2.2,3.9-2.8,6.1-1.9c1.4,1,1.5,2.6,0.5,4.9c-0.8,1.7-2.5,4.6-5.1,8.7
				c-1,1.5-1.6,2.5-1.8,2.9l2.1,1.4c0.7-0.9,1.7-2.5,2.9-4.8c0.5-0.9,1.1-1.7,1.8-2.6c1.5-2.8,3.3-3.5,5.5-2.2
				c1.6,0.9,1.6,2.9,0.1,5.9c-1,1.5-2,3.2-3.3,5.2c-4.4,7.1-7.4,11.8-9,14.2l5.4-0.6c-0.2-0.4-0.3-0.9-0.5-1.5
				c0-0.4,0.1-0.8,0.1-1.2c-0.5-1.6,0.3-2.8,2.5-3.6c1.5-0.7,2.6,0.1,3.2,2.3c0.2,2.9,0.5,5.7,0.8,8.3c0.2,2.5-0.7,4-2.6,4.5
				c-2.1,0.5-3.1,0-3-1.7c-1.9,0.3-4.7,0.8-8.2,1.4c-3,0.4-5.2,0.6-6.6,0.7c-3.6,0.8-5.2-0.4-4.7-3.8c0-2.3,1-3.6,3.1-3.9
				c0.4,0,1.1-0.1,2.2-0.1c0.5-0.7,1.2-1.9,2.2-3.9c1.2-1.9,2.2-3.4,2.9-4.5c-0.6-0.4-1.4-1-2.4-1.7c-2.5-2.1-4.3-3.8-5.2-5
				c-2-1.5-2.1-3.4-0.5-5.6C330.7,23.8,332.1,23.1,333.7,23.6z M362.3,25.9l-0.5,5.3l9.4-0.6l0.5-5.3L362.3,25.9z M370.7,37.9
				l-9.4,0.6l-0.5,5.3l9.4-0.6L370.7,37.9z M379.8,43.8h0.3c0.3-1.5,2.3-4.5,5.8-9.1c1.4-1.5,2.1-2.4,2.1-2.6
				c-4.5-3-6.6-4.5-6.2-4.3c-2.6-1.5-2.9-3.4-1.1-5.8c1.2-1.5,2.6-2.1,4.2-1.8c0.2-0.4,0.7-1.4,1.5-2.9c0.8-1.7,1.7-3.4,2.9-5.2
				c1.2-2.1,2.9-3,4.9-2.5c2.4,0.9,2.9,2.6,1.4,5.2c-0.8,1.7-1.9,3.7-3.3,6.1c-0.7,0.9-1.3,1.8-1.8,2.9l2.4,1.1
				c0.2-0.2,0.8-1.1,1.8-2.6c0.5-0.7,1.1-1.4,1.8-2.3c1.7-2.6,3.7-3.2,6.1-1.9c2.2,1.3,2.1,3.6-0.3,6.9c-1.6,2-4,5-7,9.1
				c-3.1,4.1-5.3,7.1-6.7,8.8l5.4-0.6c-0.3-1-0.4-1.8-0.1-2.5c-0.5-2,0.4-3.3,2.5-3.9c2.1-0.8,3.6,0,4.5,2.2
				c0.5,1.4,0.9,3.7,1.3,6.8c0.2,0.6,0.3,1.1,0.5,1.5c0.2,2.9-0.9,4.6-3.3,5.2c-2.8,1-4.2,0.4-4.2-1.9c-5.9,0.8-10.7,1.3-14.5,1.5
				c-2.5,0.4-3.6-0.4-3.2-2.3C377.2,45.7,377.9,44,379.8,43.8z"/>
			<path class="st0" d="M83.2,124.4l5.3-0.3l0.7-8.1c0.2-2.5,1.8-3.9,4.7-4.3c2.7,0,4.1,1.3,4,3.8l-0.7,8.1l2.8-0.2
				c2.7,0,4,1.4,4,4.1c-0.4,2.7-2,4.2-4.7,4.3l-2.8,0.2l-1.1,13.1l2-1.1c2.6-1,4.4-0.4,5.5,1.8c0.6,2.7-0.3,4.8-2.7,6.4
				c-0.2,0.2-0.6,0.5-1,0.7c-1.5,0.9-3.1,1.7-4.6,2.5L92.8,177c-0.1,6-3,8.7-8.8,8c-2.9-0.2-5.5-0.6-7.7-1.1
				c-2.4-1.1-3.3-2.8-2.7-5.1c0.8-2.1,2.5-3.1,5-3.1c0.2,0.2,0.5,0.3,0.9,0.3c3.3,0.6,4.9,0.1,4.8-1.5l1.3-15.3
				c-2.2,1.2-4.1,1.9-5.8,2.2c-3.1,0-4.4-1.6-4-4.7c0.2-2.1,1.7-3.7,4.5-4.9c0.6-0.2,1.4-0.6,2.3-1.1c1.7-0.7,3-1.3,3.9-1.8
				l1.4-16.2l-6,0.4c-2.3,0.1-3.3-1.2-3.1-4.2C79.2,126.2,80.7,124.7,83.2,124.4z M113.8,121l10.1-0.6l0.5-6.2
				c0.2-2.5,1.8-4,4.8-4.6c2.9,0,4.4,1.3,4.4,3.8L133,120l9.7-0.6c5.5-0.5,7.9,1.5,7.3,6.1l-4.1,47.5c-0.2,4.6-3.1,6.9-8.7,7.1
				l-27.6,1.7c-6.5,0.6-9.2-1.4-7.9-6.1l4-46.9C105.7,123.9,108.4,121.3,113.8,121z M113.1,173.3l6.3-0.4l1.6-18.4l-8.5,0.5
				l-1.4,16.6C110.8,173,111.4,173.6,113.1,173.3z M113.3,145.9l8.5-0.5l1.4-16.2l-6.6,0.4c-1.3,0.3-2,1.1-2.1,2.3L113.3,145.9z
				 M132.3,128.6l-1.4,16.2l8.5-0.5l1.2-13.8c-0.1-1.4-0.6-2.2-1.7-2.4L132.3,128.6z M138.6,153.4l-8.5,0.5l-1.6,18.4l6.6-0.4
				c1.3-0.1,1.9-0.7,2-2L138.6,153.4z"/>
			<path class="st0" d="M163.7,119.2l5-0.3c0.1-1,0.3-2.4,0.7-4.1c0.1-1.5,0.3-2.8,0.7-4.1c0.2-2.5,1.8-3.8,4.7-4
				c2.9,0,4.4,1.3,4.4,3.8c-0.1,0.6-0.3,1.8-0.6,3.5c-0.4,2.3-0.6,3.8-0.7,4.4l8.5-0.5c4.2-0.5,5.8,2.2,4.9,8.1
				c-1.4,11.1-4.7,22.4-10.1,33.9c2.6,1.7,4.9,3.6,7,5.8c1.5,2.2,1.4,4.2-0.2,5.9c-2,1.8-4.1,2-6.3,0.7c-0.4-0.2-0.9-0.6-1.5-1.2
				c-2-1.3-3.5-2.3-4.4-2.8c-5.7,5.9-10.2,9.7-13.5,11.4c-2.6,1-4.4,0.6-5.5-1.2c-1.1-2-0.7-3.9,1.1-5.7c0.4-0.2,1.3-0.9,2.7-2
				c3.6-3.1,6.5-5.8,8.8-8c-0.8-0.4-2.4-1.2-4.8-2.5c-1.8-1.1-3-2-3.5-2.6c-2.9-0.7-3.2-3.5-1.1-8.6c0.1-0.6,0.5-2,1.3-4.1
				c2.2-6.8,4.2-12.5,5.8-17.1l-4.1,0.2c-2.7,0.2-4.1-1.2-4-4.1C159.4,121.2,160.9,119.6,163.7,119.2z M174,155.3
				c4.4-10.2,7.1-19.4,8-27.5c-0.2-0.4-0.5-0.7-0.9-0.9l-5,0.3c-2.4,8.4-4.4,14.9-6,19.3c-1.1,3-1.5,4.6-1.3,4.7
				C168.3,151.7,170.1,153.1,174,155.3z M196.3,117.9c-2.5,0.2-3.8-1.2-3.7-4.1c0.4-2.7,1.9-4.3,4.5-4.6l29.5-1.8
				c4.3,0.8,5.1,3.2,2.5,7.3c-1.2,1.3-3.8,4.2-7.9,8.6c-4.3,4.4-6.4,6.7-6.2,6.9c0,0.4,0.3,1.3,1,2.7c0.7,1.2,1.5,2.6,2.5,4.2
				l8.8-0.5c2.5,0.1,3.8,1.4,4,4.1c-0.5,2.9-1.9,4.5-4.5,4.6l-6.3,0.4c1.2,5.3,0.8,11.9-1.4,19.7c-4.5,11-13.3,14.9-26.3,11.5
				c-3.2-1.5-4.3-3.6-3.2-6.3c1.5-2.6,3.9-3.3,7.4-2.3c5.9,1.9,10,0.9,12.5-3.2c2.6-6,3.1-12.2,1.6-18.8l-18.2,1.1
				c-2.5,0.2-3.8-1.1-3.7-3.8c0.2-2.9,1.6-4.6,4.2-4.9l14.8-0.9c-0.6-0.8-1.3-1.9-2.2-3.3c-1.4-1.2-1.9-2.4-1.6-3.6
				c0.2-1.9,3-5.5,8.4-10.8c0.2-0.2,0.6-0.5,1-1c0.5-0.7,0.7-1.2,0.8-1.6c-0.2-0.4-0.7-0.6-1.5-0.5L196.3,117.9z"/>
			<path class="st0" d="M241.4,112.7c0.1-3.7,1.8-5.7,5.2-5.9l10.7-0.6c4.2-0.3,6,1.6,5.5,5.6l-4.1,48.1c-0.2,4.4-2.2,6.7-6.2,6.9
				l-9.1,0.5c-4.8,0.3-6.8-1.9-6-6.5L241.4,112.7z M249.4,158.9c0.8-0.1,1.3-0.6,1.4-1.6l3.5-41.2c-0.1-0.8-0.5-1.3-1.1-1.5
				l-2.5,0.2c-0.9,0.3-1.3,0.8-1.4,1.6l-3.5,41.2c-0.3,1.3,0.1,1.8,1.1,1.5L249.4,158.9z M268.3,145.6c-4.2,0.7-5.9-1.2-5.1-5.6
				l2.5-28.8c0-5,2.2-7.5,6.6-7.5l33-2c3.8-0.2,5.5,1.6,5.1,5.6l-2.6,30.3c-0.3,4-2.5,6-6.4,6l-11.9,0.7l-0.4,5l15.4-0.9
				c2.3,0.1,3.4,1.5,3.4,4.1c-0.4,2.7-1.8,4.2-4.1,4.3l-15.4,0.9l-0.5,5.3l18.2-1.1c3.8,2.3,3.5,4.9-0.7,7.8l-45.2,2.7
				c-2.5-0.1-3.6-1.3-3.4-3.8c0.2-2.3,1.6-3.6,4.1-4l18.2-1.1l0.5-5.3l-14.4,0.9c-2.3,0.1-3.4-1.1-3.4-3.8c0.4-2.7,1.8-4.3,4.1-4.6
				l14.4-0.9l0.4-5L268.3,145.6z M272.6,135.4c-0.3,1.1,0.1,1.6,1.1,1.5l7.5-0.5l0.7-8.4l-8.8,0.5L272.6,135.4z M282.7,119.9
				l0.7-8.4l-7.2,0.4c-1.1,0.3-1.6,0.8-1.7,1.7l-0.6,6.9L282.7,119.9z M300.3,118.8l0.6-6.9c-0.1-0.8-0.5-1.3-1.1-1.5l-7.5,0.5
				l-0.7,8.4L300.3,118.8z M290.1,135.9l7.2-0.4c0.8-0.1,1.4-0.6,1.7-1.7l0.6-6.9l-8.8,0.5L290.1,135.9z"/>
		</g>
	</g>
</g>
<g id="圖層_5">
	
		<radialGradient id="SVGID_1_" cx="127.9088" cy="1412.2656" r="6.8587" gradientTransform="matrix(1 0 0 1 0 -1300.2046)" gradientUnits="userSpaceOnUse">
		<stop  offset="0" style="stop-color:#FF9EBB"/>
		<stop  offset="1" style="stop-color:#EB1353"/>
	</radialGradient>
	<circle class="st1" cx="129" cy="113.4" r="8.6"/>
</g>
<g id="圖層_2_拷貝_2">
	<g>
		<path class="st2" d="M10.6,49.2C22.7,44.3,32.7,39,40.7,33.1c0.2,0,0.5-0.1,1-0.4c1.6-1.1,2.7-1.7,3.6-1.8l2.5-0.2
			c2.1,0.1,3.8,0.5,5.2,1.2C63.3,38.5,72.8,43,81.5,45.4c1.5,1.4,1.8,3.5,0.7,6.5c-0.7,1.3-1.9,2-3.6,2.1c-1.1,0.1-2-0.2-2.7-0.8
			l-1.1,13.4c-0.2,4.2-2.3,6.2-6.4,6l-49.6,3c-4.4,0.3-6.4-1.6-6.1-5.5l1.1-12.8C11,58.1,9.1,57.4,8,55.2C7.1,52.4,8,50.4,10.6,49.2
			z M19.1,103.7c-4.4,0.1-6.4-1.9-6.1-5.9l1.2-14.1c0.1-3.5,2.4-5.4,7.1-5.7l43.3-2.6c4.2-0.3,6.1,1.7,5.7,5.9l-1.2,14.1
			c-0.5,3.3-2.9,5.3-7.4,5.7L19.1,103.7z M21.8,68.1l7.9-0.5c-3.5-2.5-4.7-4.9-3.4-7.3l-3.8,0.2L21.8,68.1z M23.4,53.1L68,50.4
			l-5.7-2.8c-0.7,0.7-1.4,1-2.3,1.1l-31.4,1.9C27.5,51.1,25.8,51.9,23.4,53.1z M60.9,82.9l-37.4,2.2l-0.2,2.5l37.4-2.2L60.9,82.9z
			 M22.8,93.3l-0.2,2.5L60,93.6l0.2-2.5L22.8,93.3z M39.7,59.6L33.1,60c3.5,3.1,4.3,5.5,2.5,7.3l3.5-0.2L39.7,59.6z M45.4,40.3
			c-2,1.6-4.1,2.8-6.3,3.8l14.8-0.9l-6.3-3C46.9,39.6,46.1,39.6,45.4,40.3z M48.8,59l-0.6,7.2l4.1-0.2c-0.9-1.2,0.1-3.6,3.1-7.3
			L48.8,59z M62.3,58.2c1,1-0.1,3.4-3.1,7.3l6.6-0.4l0.6-7.2L62.3,58.2z"/>
		<path class="st2" d="M91.4,87.9c-2.5,0.2-3.6-1.5-3.3-5.1L90.6,54c0.2-2.7,2-4.3,5.4-4.7l57.5-3.5c3.1-0.2,4.7,1.1,4.7,3.8
			l-2.5,29.1c0.1,3.9-2.1,5.8-6.4,5.7l-9.1,0.5c5.7,1.3,9.7,2.3,11.9,3c0.6,0.4,1.2,0.7,1.8,0.8c1.7,0.1,2.9,0.4,3.7,1
			c1.5,1.6,1.4,3.6-0.5,6.2c-1.4,1.7-4.1,1.9-8.2,0.5c-5.5-1.7-10.7-3.2-15.6-4.4c-3.7-1-4.2-3.3-1.6-6.7l-18.8,1.1
			c2.1,2.2,1.9,4-0.5,5.6c-7.6,3.8-15.8,7-24.6,9.6c-2.3,0.3-3.8-0.7-4.4-3.2c-0.2-2.7,0.9-4.3,3.2-4.9c7.6-1.7,13.9-3.9,18.7-6.7
			L91.4,87.9z M98.6,46.7c-5.1,0.9-7-0.8-5.8-5.2l0.6-7.2c-0.1-3.5,1.7-5.3,5.5-5.3l55.6-3.3c2.9-0.2,4.3,1.3,4,4.4l-0.7,7.8
			c-0.1,3.9-1.9,5.8-5.2,5.6L98.6,46.7z M99.3,57.3l-0.2,2.5l49.6-3l0.2-2.5L99.3,57.3z M147.9,66.8l0.2-2.8l-49.6,3l-0.2,2.8
			L147.9,66.8z M147,76.8l0.2-2.8l-49.6,3l-0.2,2.8L147,76.8z M149.2,36.5l0.3-3.1l-47.4,2.8l-0.3,3.1L149.2,36.5z"/>
		<path class="st2" d="M179.4,37.5l0.9-10.6c0.2-2.3,1.7-3.6,4.4-4c2.9-0.2,4.4,0.8,4.4,2.8l-1,11.2l3.8-0.2
			c2.3,0.1,3.5,1.5,3.7,4.1c-0.5,3.1-1.9,4.8-4.2,4.9l-4.1,0.2l-0.9,10l1.3-0.7c2.6-1.2,4.5-0.5,5.8,2.1c0.8,2.6,0,4.8-2.4,6.4
			l-5.6,3.1l-1.8,21.6c0.1,3.9-2.7,6-8.3,6.1c-3.3,0-5.8-0.6-7.4-1.7c-1.4-1.2-1.6-3-0.8-5.5c0.6-1.9,2.4-2.6,5.5-2.2
			c1.6,0.3,2.5-0.3,2.6-1.7l1-11.9l-3.3,2.1c-2.6,1.2-4.5,0.6-5.8-1.8c-1-3-0.3-5.3,2.1-6.7l7.9-4.2l1.2-14.4l-6,0.4
			c-2.7,0.2-4.1-1.2-4-4.1c0.2-2.9,1.7-4.6,4.5-4.9L179.4,37.5z M199.1,52.8l2.8-0.2l3.5-19.2l-5.7,0.3c-3.4,0.2-5-1.3-4.9-4.4
			c0.5-2.9,2.4-4.6,5.7-5l34.9-2.1c4-0.2,5.6,1.7,4.8,5.9l-7.7,53.6l4.4-0.3c2.3,0.1,3.4,1.3,3.4,3.8c-0.5,2.9-1.9,4.6-4.2,4.9
			l-45.5,2.7c-2.5-0.1-3.6-1.5-3.4-4.5c0.2-2.5,1.6-3.9,4.1-4.3l4.1-0.2l4.7-22.4l-1.9,0.1c-2.5,0.2-3.6-1.2-3.4-4.1
			C195.1,54.8,196.5,53.2,199.1,52.8z M204.6,83.6l18.2-1.1l3.5-22.3l-17,1L204.6,83.6z M214.5,32.9L211,52.1l16.6-1l2.4-17.6
			c-0.1-1-0.5-1.5-1.1-1.5L214.5,32.9z"/>
		<path class="st2" d="M259.8,32.7l0.9-10.6c0.2-2.3,1.7-3.6,4.4-4c2.9-0.2,4.4,0.8,4.4,2.8l-1,11.2l3.8-0.2
			c2.3,0.1,3.5,1.5,3.7,4.1c-0.5,3.1-1.9,4.8-4.2,4.9l-4.1,0.2l-0.9,10l1.3-0.7c2.6-1.2,4.5-0.5,5.8,2.1c0.8,2.6,0,4.8-2.4,6.4
			l-5.6,3.1l-1.8,21.6c0.1,3.9-2.7,6-8.3,6.1c-3.3,0-5.8-0.6-7.4-1.7c-1.4-1.2-1.6-3-0.8-5.5c0.6-1.9,2.4-2.6,5.5-2.2
			c1.6,0.3,2.5-0.3,2.6-1.7l1-11.9l-3.3,2.1c-2.6,1.2-4.5,0.6-5.8-1.8c-1-3-0.3-5.3,2.1-6.7l7.9-4.2l1.2-14.4l-6,0.4
			c-2.7,0.2-4.1-1.2-4-4.1c0.2-2.9,1.7-4.6,4.5-4.9L259.8,32.7z M279.5,48l2.8-0.2l3.5-19.2l-5.7,0.3c-3.4,0.2-5-1.3-4.9-4.4
			c0.5-2.9,2.4-4.6,5.7-5l34.9-2.1c4-0.2,5.6,1.7,4.8,5.9l-7.7,53.6l4.4-0.3c2.3,0.1,3.4,1.3,3.4,3.8c-0.5,2.9-1.9,4.6-4.2,4.9
			L271,88c-2.5-0.1-3.6-1.5-3.4-4.5c0.2-2.5,1.6-3.9,4.1-4.3l4.1-0.2l4.7-22.4l-1.9,0.1c-2.5,0.2-3.6-1.2-3.4-4.1
			C275.5,50,276.9,48.4,279.5,48z M285,78.8l18.2-1.1l3.5-22.3l-17,1L285,78.8z M294.9,28.1l-3.5,19.2l16.6-1l2.4-17.6
			c-0.1-1-0.5-1.5-1.1-1.5L294.9,28.1z"/>
		<path class="st2" d="M377.4,46.2c-0.3,3.3-2,5-5.1,5l-2.8,0.2l-0.4,4.4l29.5-1.8c2.1,0.1,3.1,1.5,3.1,4.2
			c-0.5,2.9-1.7,4.5-3.8,4.6l-23.6,1.4c7.3,4.5,14.4,7.4,21.1,8.7c4.1,1,5.6,3,4.5,5.9c-1.1,3-3.4,4.2-6.9,3.8
			c-8.4-2-16.7-5.5-25-10.6l-0.9,10.3c-3.5,4.6-6.7,4.8-9.4,0.6l0.9-10.9c-10.2,6.6-19.3,11.1-27.4,13.5c-3.8,1.1-6.1,0.4-6.7-2.1
			c-0.6-2.9,0.5-4.8,3.3-5.8c11.3-3.6,19.6-7.6,24.8-12.1l-23.9,1.4c-2.3,0.1-3.4-1.2-3.4-4.1c0.4-2.7,1.8-4.3,4.1-4.6l30.2-1.8
			L360,52l-3.1,0.2c-3,0.4-4.2-1.1-3.7-4.4l2.1-24.7c0.1-3.5,1.7-5.4,4.9-5.6l3.1-0.2l0.3-3.1c0.2-2.1,1.8-3.3,5-3.7
			c2.9,0,4.4,1.1,4.4,3.2l-0.3,3.1l2.8-0.2c2.7,0,4,1.7,3.9,5L377.4,46.2z M333.7,23.6c0.4,0,0.8,0.2,1.2,0.5
			c0.3-0.6,0.9-1.8,1.9-3.5c2.2-3.7,3.5-5.9,4-6.8c1.9-2.2,3.9-2.8,6.1-1.9c1.4,1,1.5,2.6,0.5,4.9c-0.8,1.7-2.5,4.6-5.1,8.7
			c-1,1.5-1.6,2.5-1.8,2.9l2.1,1.4c0.7-0.9,1.7-2.5,2.9-4.8c0.5-0.9,1.1-1.7,1.8-2.6c1.5-2.8,3.3-3.5,5.5-2.2
			c1.6,0.9,1.6,2.9,0.1,5.9c-1,1.5-2,3.2-3.3,5.2c-4.4,7.1-7.4,11.8-9,14.2l5.4-0.6c-0.2-0.4-0.3-0.9-0.5-1.5c0-0.4,0.1-0.8,0.1-1.2
			c-0.5-1.6,0.3-2.8,2.5-3.6c1.5-0.7,2.6,0.1,3.2,2.3c0.2,2.9,0.5,5.7,0.8,8.3c0.2,2.5-0.7,4-2.6,4.5c-2.1,0.5-3.1,0-3-1.7
			c-1.9,0.3-4.7,0.8-8.2,1.4c-3,0.4-5.2,0.6-6.6,0.7c-3.6,0.8-5.2-0.4-4.7-3.8c0-2.3,1-3.6,3.1-3.9c0.4,0,1.1-0.1,2.2-0.1
			c0.5-0.7,1.2-1.9,2.2-3.9c1.2-1.9,2.2-3.4,2.9-4.5c-0.6-0.4-1.4-1-2.4-1.7c-2.5-2.1-4.3-3.8-5.2-5c-2-1.5-2.1-3.4-0.5-5.6
			C330.7,23.8,332.1,23.1,333.7,23.6z M362.3,25.9l-0.5,5.3l9.4-0.6l0.5-5.3L362.3,25.9z M370.7,37.9l-9.4,0.6l-0.5,5.3l9.4-0.6
			L370.7,37.9z M379.8,43.8h0.3c0.3-1.5,2.3-4.5,5.8-9.1c1.4-1.5,2.1-2.4,2.1-2.6c-4.5-3-6.6-4.5-6.2-4.3c-2.6-1.5-2.9-3.4-1.1-5.8
			c1.2-1.5,2.6-2.1,4.2-1.8c0.2-0.4,0.7-1.4,1.5-2.9c0.8-1.7,1.7-3.4,2.9-5.2c1.2-2.1,2.9-3,4.9-2.5c2.4,0.9,2.9,2.6,1.4,5.2
			c-0.8,1.7-1.9,3.7-3.3,6.1c-0.7,0.9-1.3,1.8-1.8,2.9l2.4,1.1c0.2-0.2,0.8-1.1,1.8-2.6c0.5-0.7,1.1-1.4,1.8-2.3
			c1.7-2.6,3.7-3.2,6.1-1.9c2.2,1.3,2.1,3.6-0.3,6.9c-1.6,2-4,5-7,9.1c-3.1,4.1-5.3,7.1-6.7,8.8l5.4-0.6c-0.3-1-0.4-1.8-0.1-2.5
			c-0.5-2,0.4-3.3,2.5-3.9c2.1-0.8,3.6,0,4.5,2.2c0.5,1.4,0.9,3.7,1.3,6.8c0.2,0.6,0.3,1.1,0.5,1.5c0.2,2.9-0.9,4.6-3.3,5.2
			c-2.8,1-4.2,0.4-4.2-1.9c-5.9,0.8-10.7,1.3-14.5,1.5c-2.5,0.4-3.6-0.4-3.2-2.3C377.2,45.7,377.9,44,379.8,43.8z"/>
		<path class="st2" d="M83.2,124.4l5.3-0.3l0.7-8.1c0.2-2.5,1.8-3.9,4.7-4.3c2.7,0,4.1,1.3,4,3.8l-0.7,8.1l2.8-0.2
			c2.7,0,4,1.4,4,4.1c-0.4,2.7-2,4.2-4.7,4.3l-2.8,0.2l-1.1,13.1l2-1.1c2.6-1,4.4-0.4,5.5,1.8c0.6,2.7-0.3,4.8-2.7,6.4
			c-0.2,0.2-0.6,0.5-1,0.7c-1.5,0.9-3.1,1.7-4.6,2.5L92.8,177c-0.1,6-3,8.7-8.8,8c-2.9-0.2-5.5-0.6-7.7-1.1
			c-2.4-1.1-3.3-2.8-2.7-5.1c0.8-2.1,2.5-3.1,5-3.1c0.2,0.2,0.5,0.3,0.9,0.3c3.3,0.6,4.9,0.1,4.8-1.5l1.3-15.3
			c-2.2,1.2-4.1,1.9-5.8,2.2c-3.1,0-4.4-1.6-4-4.7c0.2-2.1,1.7-3.7,4.5-4.9c0.6-0.2,1.4-0.6,2.3-1.1c1.7-0.7,3-1.3,3.9-1.8l1.4-16.2
			l-6,0.4c-2.3,0.1-3.3-1.2-3.1-4.2C79.2,126.2,80.7,124.7,83.2,124.4z M113.8,121l10.1-0.6l0.5-6.2c0.2-2.5,1.8-4,4.8-4.6
			c2.9,0,4.4,1.3,4.4,3.8L133,120l9.7-0.6c5.5-0.5,7.9,1.5,7.3,6.1l-4.1,47.5c-0.2,4.6-3.1,6.9-8.7,7.1l-27.6,1.7
			c-6.5,0.6-9.2-1.4-7.9-6.1l4-46.9C105.7,123.9,108.4,121.3,113.8,121z M113.1,173.3l6.3-0.4l1.6-18.4l-8.5,0.5l-1.4,16.6
			C110.8,173,111.4,173.6,113.1,173.3z M113.3,145.9l8.5-0.5l1.4-16.2l-6.6,0.4c-1.3,0.3-2,1.1-2.1,2.3L113.3,145.9z M132.3,128.6
			l-1.4,16.2l8.5-0.5l1.2-13.8c-0.1-1.4-0.6-2.2-1.7-2.4L132.3,128.6z M138.6,153.4l-8.5,0.5l-1.6,18.4l6.6-0.4c1.3-0.1,1.9-0.7,2-2
			L138.6,153.4z"/>
		<path class="st2" d="M163.7,119.2l5-0.3c0.1-1,0.3-2.4,0.7-4.1c0.1-1.5,0.3-2.8,0.7-4.1c0.2-2.5,1.8-3.8,4.7-4
			c2.9,0,4.4,1.3,4.4,3.8c-0.1,0.6-0.3,1.8-0.6,3.5c-0.4,2.3-0.6,3.8-0.7,4.4l8.5-0.5c4.2-0.5,5.8,2.2,4.9,8.1
			c-1.4,11.1-4.7,22.4-10.1,33.9c2.6,1.7,4.9,3.6,7,5.8c1.5,2.2,1.4,4.2-0.2,5.9c-2,1.8-4.1,2-6.3,0.7c-0.4-0.2-0.9-0.6-1.5-1.2
			c-2-1.3-3.5-2.3-4.4-2.8c-5.7,5.9-10.2,9.7-13.5,11.4c-2.6,1-4.4,0.6-5.5-1.2c-1.1-2-0.7-3.9,1.1-5.7c0.4-0.2,1.3-0.9,2.7-2
			c3.6-3.1,6.5-5.8,8.8-8c-0.8-0.4-2.4-1.2-4.8-2.5c-1.8-1.1-3-2-3.5-2.6c-2.9-0.7-3.2-3.5-1.1-8.6c0.1-0.6,0.5-2,1.3-4.1
			c2.2-6.8,4.2-12.5,5.8-17.1l-4.1,0.2c-2.7,0.2-4.1-1.2-4-4.1C159.4,121.2,160.9,119.6,163.7,119.2z M174,155.3
			c4.4-10.2,7.1-19.4,8-27.5c-0.2-0.4-0.5-0.7-0.9-0.9l-5,0.3c-2.4,8.4-4.4,14.9-6,19.3c-1.1,3-1.5,4.6-1.3,4.7
			C168.3,151.7,170.1,153.1,174,155.3z M196.3,117.9c-2.5,0.2-3.8-1.2-3.7-4.1c0.4-2.7,1.9-4.3,4.5-4.6l29.5-1.8
			c4.3,0.8,5.1,3.2,2.5,7.3c-1.2,1.3-3.8,4.2-7.9,8.6c-4.3,4.4-6.4,6.7-6.2,6.9c0,0.4,0.3,1.3,1,2.7c0.7,1.2,1.5,2.6,2.5,4.2
			l8.8-0.5c2.5,0.1,3.8,1.4,4,4.1c-0.5,2.9-1.9,4.5-4.5,4.6l-6.3,0.4c1.2,5.3,0.8,11.9-1.4,19.7c-4.5,11-13.3,14.9-26.3,11.5
			c-3.2-1.5-4.3-3.6-3.2-6.3c1.5-2.6,3.9-3.3,7.4-2.3c5.9,1.9,10,0.9,12.5-3.2c2.6-6,3.1-12.2,1.6-18.8l-18.2,1.1
			c-2.5,0.2-3.8-1.1-3.7-3.8c0.2-2.9,1.6-4.6,4.2-4.9l14.8-0.9c-0.6-0.8-1.3-1.9-2.2-3.3c-1.4-1.2-1.9-2.4-1.6-3.6
			c0.2-1.9,3-5.5,8.4-10.8c0.2-0.2,0.6-0.5,1-1c0.5-0.7,0.7-1.2,0.8-1.6c-0.2-0.4-0.7-0.6-1.5-0.5L196.3,117.9z"/>
		<path class="st2" d="M241.4,112.7c0.1-3.7,1.8-5.7,5.2-5.9l10.7-0.6c4.2-0.3,6,1.6,5.5,5.6l-4.1,48.1c-0.2,4.4-2.2,6.7-6.2,6.9
			l-9.1,0.5c-4.8,0.3-6.8-1.9-6-6.5L241.4,112.7z M249.4,158.9c0.8-0.1,1.3-0.6,1.4-1.6l3.5-41.2c-0.1-0.8-0.5-1.3-1.1-1.5l-2.5,0.2
			c-0.9,0.3-1.3,0.8-1.4,1.6l-3.5,41.2c-0.3,1.3,0.1,1.8,1.1,1.5L249.4,158.9z M268.3,145.6c-4.2,0.7-5.9-1.2-5.1-5.6l2.5-28.8
			c0-5,2.2-7.5,6.6-7.5l33-2c3.8-0.2,5.5,1.6,5.1,5.6l-2.6,30.3c-0.3,4-2.5,6-6.4,6l-11.9,0.7l-0.4,5l15.4-0.9
			c2.3,0.1,3.4,1.5,3.4,4.1c-0.4,2.7-1.8,4.2-4.1,4.3l-15.4,0.9l-0.5,5.3l18.2-1.1c3.8,2.3,3.5,4.9-0.7,7.8l-45.2,2.7
			c-2.5-0.1-3.6-1.3-3.4-3.8c0.2-2.3,1.6-3.6,4.1-4l18.2-1.1l0.5-5.3l-14.4,0.9c-2.3,0.1-3.4-1.1-3.4-3.8c0.4-2.7,1.8-4.3,4.1-4.6
			l14.4-0.9l0.4-5L268.3,145.6z M272.6,135.4c-0.3,1.1,0.1,1.6,1.1,1.5l7.5-0.5l0.7-8.4l-8.8,0.5L272.6,135.4z M282.7,119.9l0.7-8.4
			l-7.2,0.4c-1.1,0.3-1.6,0.8-1.7,1.7l-0.6,6.9L282.7,119.9z M300.3,118.8l0.6-6.9c-0.1-0.8-0.5-1.3-1.1-1.5l-7.5,0.5l-0.7,8.4
			L300.3,118.8z M290.1,135.9l7.2-0.4c0.8-0.1,1.4-0.6,1.7-1.7l0.6-6.9l-8.8,0.5L290.1,135.9z"/>
	</g>
</g>
<g id="圖層_4">
	<g>
		
			<radialGradient id="SVGID_2_" cx="127.9088" cy="1411.1949" r="6.8587" gradientTransform="matrix(1 0 0 1 0 -1300.2046)" gradientUnits="userSpaceOnUse">
			<stop  offset="0" style="stop-color:#FF9EBB"/>
			<stop  offset="1" style="stop-color:#EB1353"/>
		</radialGradient>
		<circle class="st3" cx="129" cy="112.4" r="8.6"/>
	</g>
</g>
</svg>
