<?xml version="1.0" encoding="utf-8"?>
<!-- Generator: Adobe Illustrator 22.0.0, SVG Export Plug-In . SVG Version: 6.00 Build 0)  -->
<svg version="1.1" id="圖層_1" xmlns="http://www.w3.org/2000/svg" xmlns:xlink="http://www.w3.org/1999/xlink" x="0px" y="0px"
	 viewBox="0 0 42 42" style="enable-background:new 0 0 42 42;" xml:space="preserve">
<style type="text/css">
	.st0{fill:#00307C;}
	.st1{fill:#FFFFFF;}
</style>
<g>
	<circle class="st0" cx="21" cy="21" r="21"/>
</g>
<path class="st1" d="M27.4,28.4c-1-1.9-2.7-3.2-4.8-3.7v-0.4c2-0.6,3.6-2.4,3.8-4.6h0.1c0.3,0,0.6-0.1,0.8-0.4
	c0.2-0.2,0.3-0.5,0.3-0.9s-0.3-0.7-0.6-0.8v-1.8c0-3.2-2.6-5.9-5.9-5.9c-0.5,0-1,0.1-1.5,0.2c-1.1,0.3-2.6,0.7-3.9,0.4
	c-0.1,0.4,0,0.9,0.2,1.3v0.1c0,0.1,0.1,0.1,0.1,0.2c0,0.1,0.1,0.1,0.1,0.2l0,0c0,0,0,0.1,0.1,0.1c-0.7,1-1,2.2-1,3.3v1.8
	c-0.3,0.2-0.6,0.5-0.6,0.8s0.1,0.6,0.3,0.8c0.2,0.2,0.5,0.4,0.8,0.4h0.1c0.2,2.2,1.8,4,3.8,4.6v0.4c-1.6,0.4-3,1.2-4,2.5
	c-1.6,1.6-1.4,2-1.5,4.5c0,0.1,0,0.2,0,0.3H28c0-0.1,0-0.2,0-0.3C27.8,29.8,28.4,29.8,27.4,28.4z"/>
</svg>
