<?xml version="1.0" encoding="utf-8"?>
<!-- Generator: Adobe Illustrator 22.0.0, SVG Export Plug-In . SVG Version: 6.00 Build 0)  -->
<svg version="1.1" id="圖層_1" xmlns="http://www.w3.org/2000/svg" xmlns:xlink="http://www.w3.org/1999/xlink" x="0px" y="0px"
	 viewBox="0 0 42 42" style="enable-background:new 0 0 42 42;" xml:space="preserve">
<style type="text/css">
	.st0{fill:#ED1556;}
	.st1{fill:#FFFFFF;}
</style>
<g>
	<circle class="st0" cx="21" cy="21" r="21"/>
</g>
<path class="st1" d="M25.7,9.5h-9.4c0,0-2.1,0-2.1,2.1v18.8c0,2.1,2.1,2.1,2.1,2.1h9.4c0,0,2.1,0,2.1-2.1V11.6
	C27.8,9.5,25.7,9.5,25.7,9.5z M18.4,10.7c0-0.1,0.1-0.2,0.2-0.2h4.8c0.1,0,0.2,0.1,0.2,0.2v0.1c0,0.1-0.1,0.2-0.2,0.2h-4.8
	C18.5,11,18.4,10.9,18.4,10.7L18.4,10.7z M21,31.6c-0.6,0-1-0.4-1-1c0-0.5,0.5-1,1-1s1,0.4,1,1C22,31.1,21.6,31.6,21,31.6z
	 M26.8,28.8H15.3V12.1h11.5V28.8z"/>
</svg>
