<?xml version="1.0" encoding="utf-8"?>
<!-- Generator: Adobe Illustrator 22.0.0, SVG Export Plug-In . SVG Version: 6.00 Build 0)  -->
<svg version="1.1" id="圖層_1" xmlns="http://www.w3.org/2000/svg" xmlns:xlink="http://www.w3.org/1999/xlink" x="0px" y="0px"
	 viewBox="0 0 42 42" style="enable-background:new 0 0 42 42;" xml:space="preserve">
<style type="text/css">
	.st0{fill:#00307C;}
	.st1{fill:#FFFFFF;}
</style>
<g>
	<circle class="st0" cx="21" cy="21" r="21"/>
</g>
<path class="st1" d="M21,23.9c1.7,0,9.3-6,9.3-6v9.3c0,0.9-0.7,1.5-1.5,1.5H13.3c-0.9,0-1.5-0.7-1.5-1.5v-9.3
	C11.7,17.9,19.5,23.9,21,23.9z M21,21.8c-1.5,0-9.3-6.3-9.3-6.3v-0.7c0-0.9,0.7-1.5,1.5-1.5h15.5c0.9,0,1.5,0.7,1.5,1.5v0.8
	C30.3,15.6,22.6,21.8,21,21.8z"/>
</svg>
