<?xml version="1.0" encoding="utf-8"?>
<!-- Generator: Adobe Illustrator 22.0.0, SVG Export Plug-In . SVG Version: 6.00 Build 0)  -->
<svg version="1.1" id="圖層_1" xmlns="http://www.w3.org/2000/svg" xmlns:xlink="http://www.w3.org/1999/xlink" x="0px" y="0px"
	 viewBox="0 0 42 42" style="enable-background:new 0 0 42 42;" xml:space="preserve">
<style type="text/css">
	.st0{fill:#00307C;}
	.st1{fill:#FFFFFF;}
</style>
<g>
	<circle class="st0" cx="21" cy="21" r="21"/>
</g>
<path class="st1" d="M22.5,24.5h-3v1.9h3V24.5z M27.5,24.5h-3v1.9h3V24.5z M22.5,21.5h-3v1.9h3V21.5z M25.4,14.7H26
	c0.4,0,0.8-0.4,0.8-0.8v-1.6c0-0.4-0.4-0.8-0.8-0.8h-0.5c-0.4,0-0.8,0.4-0.8,0.8v1.6C24.6,14.3,25,14.7,25.4,14.7z M27.5,21.5h-3
	v1.9h3V21.5z M16.3,14.7h0.5c0.4,0,0.8-0.4,0.8-0.8v-1.6c0-0.4-0.4-0.8-0.8-0.8h-0.5c-0.4,0-0.8,0.4-0.8,0.8v1.6
	C15.5,14.3,15.8,14.7,16.3,14.7z M17.5,24.5h-3v1.9h3V24.5z M29.8,13.6h-2v0.3c0,1-0.8,1.8-1.8,1.8h-0.5c-1,0-1.8-0.8-1.8-1.8v-0.3
	h-4.9v0.3c0,1-0.8,1.8-1.8,1.8h-0.5c-1,0-1.8-0.8-1.8-1.8v-0.3h-2.2c-1.1,0-2,0.9-2,2v12.9c0,1.1,0.9,2,2,2H30c1.1,0,2-0.9,2-2V15.6
	C31.8,14.5,30.9,13.6,29.8,13.6z M29.5,28.2h-17V19h17V28.2z M17.5,21.5h-3v1.9h3V21.5z"/>
</svg>
