<?xml version="1.0" encoding="utf-8"?>
<!-- Generator: Adobe Illustrator 22.0.0, SVG Export Plug-In . SVG Version: 6.00 Build 0)  -->
<svg version="1.1" id="圖層_1" xmlns="http://www.w3.org/2000/svg" xmlns:xlink="http://www.w3.org/1999/xlink" x="0px" y="0px"
	 viewBox="0 0 42 42" style="enable-background:new 0 0 42 42;" xml:space="preserve">
<style type="text/css">
	.st0{fill:#00307C;}
	.st1{fill:#FFFFFF;}
</style>
<g>
	<circle class="st0" cx="21" cy="21" r="21"/>
</g>
<path class="st1" d="M31.3,13.6H10.7c-0.8,0-1.5,0.7-1.5,1.5v3h23.6v-3C32.8,14.3,32.2,13.6,31.3,13.6z M9.2,26.9
	c0,0.8,0.7,1.5,1.5,1.5h20.7c0.8,0,1.5-0.7,1.5-1.5V21H9.2V26.9z M28.4,24h1.5v1.5h-1.5V24z M25.4,24h1.5v1.5h-1.5V24z M22.5,24H24
	v1.5h-1.5V24z M12.1,22.5h4.4v3h-4.4V22.5z"/>
</svg>
