<?xml version="1.0" encoding="utf-8"?>
<!-- Generator: Adobe Illustrator 22.0.0, SVG Export Plug-In . SVG Version: 6.00 Build 0)  -->
<svg version="1.1" id="圖層_1" xmlns="http://www.w3.org/2000/svg" xmlns:xlink="http://www.w3.org/1999/xlink" x="0px" y="0px"
	 viewBox="0 0 42 42" style="enable-background:new 0 0 42 42;" xml:space="preserve">
<style type="text/css">
	.st0{fill:#ED1556;}
	.st1{fill:#FFFFFF;}
	.st2{display:none;fill-rule:evenodd;clip-rule:evenodd;fill:#FFFFFF;}
</style>
<g>
	<circle class="st0" cx="21" cy="21" r="21"/>
</g>
<path class="st1" d="M26.9,12.8c0.6-0.6,1.6-0.6,2.2,0c0.6,0.6,0.6,1.6,0,2.2l-0.2,0.2c-0.1,0.1-0.3,0.1-0.4,0l-1.8-1.8
	c-0.1-0.1-0.1-0.3,0-0.4L26.9,12.8z M11.5,14.9l7.5,5.2L15.7,24l-2.8-0.7c-0.3-0.1-0.6,0-0.8,0.2L11.4,24c-0.2,0.1-0.2,0.4,0,0.6
	l2.5,1.6c0,0.1-0.1,0.2-0.1,0.2c-0.1,0.4-0.2,1,0.3,1.5l0,0c0.5,0.5,1.1,0.4,1.5,0.3c0.1,0,0.2-0.1,0.2-0.1l1.6,2.5
	c0.1,0.2,0.4,0.2,0.6,0l0.5-0.7c0.2-0.2,0.2-0.5,0.2-0.8L18,26.3l3.9-3.3l5.2,7.5c0.2,0.3,0.6,0.3,0.8,0.1l1-1.3
	c0.2-0.3,0.3-0.7,0.1-1.1l-3.2-8.5l2.9-2.5c1.4-1.1,1.9-2.1,2.1-3c0.3-1.8-1.3-3.4-3.1-3.1c-0.9,0.1-1.9,0.7-3,2.1l-2.5,2.9L13.7,13
	c-0.4-0.2-0.8-0.1-1.1,0.1l-1.3,1C11.1,14.3,11.2,14.7,11.5,14.9z"/>
<path class="st2" d="M18.6,10.5c-0.1,0-0.2,0.1-0.2,0.2v0.1c0,0.1,0.1,0.2,0.2,0.2h4.8c0.1,0,0.2-0.1,0.2-0.2v-0.1
	c0-0.1-0.1-0.2-0.2-0.2H18.6z M21,31.6c0.6,0,1-0.5,1-1c0-0.6-0.5-1-1-1s-1,0.5-1,1C20,31.2,20.4,31.6,21,31.6z M15.3,12.1v16.7
	h11.5V12.1H15.3z M16.3,9.5c0,0-2.1,0-2.1,2.1v18.8c0,2.1,2.1,2.1,2.1,2.1h9.4c0,0,2.1,0,2.1-2.1V11.6c0-2.1-2.1-2.1-2.1-2.1H16.3z"
	/>
</svg>
