<?xml version="1.0" encoding="utf-8"?>
<!-- Generator: Adobe Illustrator 22.0.0, SVG Export Plug-In . SVG Version: 6.00 Build 0)  -->
<svg version="1.1" id="圖層_1" xmlns="http://www.w3.org/2000/svg" xmlns:xlink="http://www.w3.org/1999/xlink" x="0px" y="0px"
	 viewBox="0 0 559 83" style="enable-background:new 0 0 559 83;" xml:space="preserve">
<style type="text/css">
	.st0{fill:#DC063A;}
	.st1{fill:#FFFFFF;}
	.st2{fill:#EFC659;}
</style>
<g>
	<path class="st0" d="M529.7,58.9l-501.9,22C13,81.5,1.1,69.9,1.6,55.1l0.1-2.8C2,37.4,14.5,24.7,29.3,24.1l501.9-22
		c14.8-0.6,26.6,11,26.2,25.8l-0.1,2.8C557,45.6,544.5,58.3,529.7,58.9z"/>
	<g>
		<path class="st1" d="M62.8,56.7l-0.1,2.1l10.6-0.5l-0.1,2.4l-10.6,0.5L62.5,65l-2.8,0.1l0.1-3.9l-10.5,0.5l0.1-2.4l10.5-0.5
			l0.1-2.1l-12.1,0.5l0.1-2.5l12.1-0.5l0.2-7.5l-11.4,0.5l0.1-2.4l25.8-1.1l-0.1,2.4L63,46.7l-0.2,7.5l12.4-0.5l-0.1,2.5L62.8,56.7z
			 M55.2,41.8l-6.7,0.3l0.1-2.5l6.7-0.3l0.1-2l2.8-0.1l-0.1,2l3.3-0.1l-0.1,2.5L58,41.7l-0.1,2.1l-2.8,0.1L55.2,41.8z M55.6,47.7
			l0,1.8l3.3-0.1l-0.1,2.4l-3.3,0.1l-0.1,2L52.8,54l0.1-2l-4.1,0.2l0.1-2.4l4.1-0.2l0-1.8L55.6,47.7z M65.7,41.4l-3.2,0.1l0.1-2.5
			l3.2-0.1l0.1-2l2.8-0.1l-0.1,2l6.8-0.3l-0.1,2.5l-6.8,0.3l-0.1,2.1l-2.8,0.1L65.7,41.4z M67.7,53.3l0.1-2.1l-3.4,0.1l0.1-2.4
			l3.4-0.1l0-1.7l2.6-0.1l0,1.7l4-0.2L74.4,51l-4,0.2l-0.1,2.1L67.7,53.3z"/>
		<path class="st1" d="M92.8,50.1l-0.3,10.4c0,1.3-0.3,2-1.1,2.4c-0.8,0.5-2,0.6-3.8,0.7c0-0.6-0.3-1.8-0.7-2.4
			c1.2,0,2.3-0.1,2.6-0.1c0.4,0,0.5-0.1,0.5-0.5l0.3-10l-4.6,0.8c-0.1,4.1-0.7,9.4-2.9,12.9c-0.5-0.4-1.5-1.1-2.2-1.3
			c2-3.1,2.4-7.4,2.6-11l-1.9,0.4L81,50c0.7-0.1,1.4-0.2,2.2-0.3l0.3-9.8l2.7-0.1c0.4-1.2,0.7-2.7,0.9-3.8l2.9,0.4
			c-0.4,1.1-0.9,2.3-1.2,3.3l4.3-0.2l-0.2,8.6l1.6-0.3l0.1,2.2L92.8,50.1z M85.8,49.2c1.5-0.2,3-0.5,4.6-0.8l0.2-6.7L86,41.9
			L85.8,49.2z M87.9,57.5c-0.3-1.2-1.2-3.1-1.9-4.5l1.7-0.8c0.8,1.4,1.6,3.2,2,4.4L87.9,57.5z M88.1,42.9c0.6,1.3,1.3,3.1,1.6,4.1
			l-1.8,0.8c-0.3-1.1-1-2.9-1.6-4.2L88.1,42.9z M106.3,60.1c0.2,0,0.4-0.1,0.5-0.2c0.1-0.1,0.2-0.4,0.3-0.9c0.1-0.6,0.1-1.7,0.2-3.3
			c0.5,0.4,1.3,0.8,1.9,1c0,1.4-0.2,3.2-0.4,3.9c-0.2,0.6-0.5,1.1-0.9,1.4c-0.4,0.3-1,0.5-1.6,0.5l-1.4,0.1c-0.6,0-1.3-0.2-1.7-0.6
			c-0.4-0.4-0.6-1-0.5-3.2l0.3-11.1l-4.2,0.2l-0.1,4.4c-0.1,3.5-0.7,8.2-3.7,11.4c-0.5-0.5-1.6-1.2-2.2-1.5c2.8-2.9,3.2-6.7,3.3-9.8
			l0.2-6.8l9.6-0.4l-0.4,13.6c0,0.7,0,1.1,0.1,1.2c0.1,0.1,0.2,0.1,0.4,0.1L106.3,60.1z M108.6,42.1l-14.2,0.6l0.1-2.5l5.8-0.3
			c-0.4-1.2-1-2.6-1.6-3.8l2.6-0.8c0.8,1.3,1.5,3.1,2,4.5l5.5-0.2L108.6,42.1z"/>
		<path class="st1" d="M123.2,53c0-0.5-0.1-1-0.2-1.5c-5.8,1.1-6.8,1.4-7.4,1.7c-0.1-0.5-0.5-1.9-0.8-2.6c0.7-0.2,1.4-0.9,2.4-2.1
			c0.4-0.5,1.3-1.6,2.3-3.1c-2.7,0.5-3.4,0.7-3.9,0.9c-0.1-0.5-0.5-1.8-0.8-2.5c0.6-0.1,1.1-0.8,1.7-1.7c0.6-0.9,2.7-4.4,3.9-7.7
			l2.6,1c-1.3,2.7-2.9,5.6-4.5,7.9l2.7-0.3c0.9-1.3,1.7-2.8,2.3-4.2l2.4,1.4c-1.9,3.4-4.4,6.9-6.8,9.7l3.6-0.6
			c-0.2-1-0.5-1.9-0.7-2.7l2.1-0.6c0.7,2,1.3,4.7,1.5,6.3L123.2,53z M118.1,54.6c-0.3,2.7-1,5.7-1.7,7.6c-0.5-0.3-1.5-0.5-2.1-0.7
			c0.8-1.9,1.3-4.7,1.6-7.3L118.1,54.6z M121,54c0.3,2,0.5,4.6,0.6,6.4l-2.2,0.5c0-1.8-0.2-4.4-0.4-6.5L121,54z M123.8,53.1
			c0.5,1.4,1.1,3.3,1.3,4.5l-2,0.8c-0.2-1.3-0.7-3.2-1.2-4.6L123.8,53.1z M132.7,50.7c-1.1,4.7-3.7,8.2-6.9,10.1
			c-0.4-0.6-1.1-1.4-1.6-1.9c2.1-1.2,4.1-3.5,5.2-6.2l-3.4,0.1l0.1-2.3l4.5-0.2l0.4-0.1L132.7,50.7z M142.3,50.1
			c-1.4,1.3-2.9,2.6-4.2,3.6c1.2,1.9,2.8,3.4,4.6,4.3c-0.6,0.5-1.5,1.6-1.9,2.3c-2-1.3-3.7-3.3-5-5.9l-0.1,4.4
			c0,1.3-0.3,2.1-1.2,2.6c-0.9,0.5-2.3,0.6-4.2,0.6c-0.1-0.8-0.4-1.9-0.7-2.6c1.3,0,2.6-0.1,2.9-0.1c0.4,0,0.5-0.1,0.5-0.5l0.3-11
			l-5.9,0.3l0.3-10.9l4.5-0.2c0.4-1.1,0.8-2.3,1.1-3.3l3.2,0.5c-0.5,0.9-0.9,1.8-1.4,2.7l6.7-0.3l-0.3,10.9l-5.5,0.2l0,1.1
			c0.3,1.1,0.6,2,1.1,3c1.2-1.1,2.4-2.4,3.2-3.4L142.3,50.1z M130.2,41.6l8.7-0.4l0.1-2.2l-8.7,0.4L130.2,41.6z M130,45.9l8.7-0.4
			l0.1-2.2l-8.7,0.4L130,45.9z"/>
		<path class="st1" d="M175.8,55.7l-0.1,2.9l-27.3,1.2l0.1-2.9l11.1-0.5l0.6-23.3l3.1-0.1l-0.2,9.1l11-0.5l-0.1,2.8l-11,0.5
			l-0.3,11.4L175.8,55.7z"/>
		<path class="st1" d="M193.6,42.3c0,0,0,0.8-0.1,1.2c-0.5,9.9-0.9,13.3-1.6,14.4c-0.5,0.8-1.1,1.1-1.9,1.2c-0.7,0.1-1.8,0.2-3,0.2
			c0-0.7-0.2-1.8-0.6-2.4c1,0,1.9,0,2.4,0c0.4,0,0.6-0.1,0.8-0.5c0.5-0.7,0.8-3.5,1.2-11.4l-3,0.1c-0.2,4.7-1.2,9.9-4.6,14.6
			c-0.5-0.5-1.4-1.1-2-1.5c3.5-4.9,4-10.3,4.1-14.6l0.1-4.4l-3.1,0.1l0.1-2.6l5.6-0.2c-0.3-1.1-0.8-2.8-1.4-4.1l2.5-0.9
			c0.6,1.3,1.3,2.9,1.6,4l-2.4,1l6.1-0.3l-0.1,2.6l-6.2,0.3l-0.1,3.5L193.6,42.3z M198.5,37.5c-0.9,1.8-1.9,3.4-3.1,4.6
			c-0.4-0.5-1.6-1.3-2.2-1.6c2.3-2.3,4-5.8,4.9-9.4l2.7,0.4c-0.3,1.1-0.7,2.3-1.1,3.4l10-0.4l-0.1,2.6L198.5,37.5z M209.6,44.7
			c-1.4,1.4-3,2.8-4.5,4c1,3.1,2.4,5.6,4.5,7.1c-0.7,0.5-1.6,1.7-2,2.4c-3.9-2.9-5.5-8.6-6.3-15.6c-0.8,0.2-1.7,0.4-2.5,0.7
			l-0.3,11.5l4.2-1.9c0,0.8,0.2,1.9,0.3,2.6c-5.6,2.7-6.5,3.2-7.1,3.7c-0.2-0.6-0.9-1.6-1.4-2c0.5-0.5,1.2-1.4,1.2-2.9l0.3-12.6
			c3.9-1,8.3-2.4,10.8-3.8l2.2,1.9c-1.6,0.8-3.5,1.5-5.4,2.1c0.2,1.5,0.4,3,0.7,4.5c1.2-1.1,2.4-2.2,3.2-3.2L209.6,44.7z"/>
		<path class="st1" d="M221.6,38.9l0,1.4c-0.1,5.2-0.8,12.8-4.1,17.9c-0.5-0.4-1.8-1.1-2.5-1.4c3.2-4.8,3.6-11.6,3.7-16.5l0.2-8.9
			l22.9-1l-0.2,7.5L221.6,38.9z M221.7,33.9l-0.1,2.6l17.3-0.8l0.1-2.6L221.7,33.9z M241.7,49.6c-1.4,1.1-3,2.1-4.5,2.9
			c1.7,1.1,3.7,1.8,6.1,2.2c-0.6,0.6-1.4,1.6-1.8,2.4c-5.3-1.1-8.9-4-10.8-8.5l-3.7,0.2l-0.2,5.6l6-1.5c-0.1,0.7-0.3,1.8-0.2,2.4
			c-7.3,2-8.2,2.3-8.9,2.7l0,0c-0.2-0.7-0.7-1.8-1.1-2.3c0.6-0.4,1.6-1.2,1.6-2.6l0.1-4.2l-3,0.1l0.1-2.4l5-0.2l0.1-2.7l-4.2,0.2
			l0.1-2.4l4.2-0.2l0.1-2.7l2.6-0.1l-0.1,2.7l5.4-0.2l0.1-2.7l2.7-0.1l-0.1,2.7l4.8-0.2l-0.1,2.4l-4.8,0.2l-0.1,2.7l6-0.3l-0.1,2.4
			l-3.4,0.1L241.7,49.6z M229,46.4l5.4-0.2l0.1-2.7l-5.4,0.2L229,46.4z M233.4,48.6c0.5,1,1.2,1.9,2,2.6c1.4-0.9,3-2,4.1-2.9
			L233.4,48.6z"/>
		<path class="st2" d="M274.8,32.1c-0.4,1.4-0.8,2.9-1.2,4.1l10-0.4l-0.5,19.7l-3,0.1l0.1-1.9l-14.4,0.6l-0.1,1.9l-2.9,0.1l0.5-19.7
			l7.4-0.3c0.3-1.2,0.6-2.7,0.8-4.1l-11.3,0.5l0.1-2.8l26.5-1.2l-0.1,2.8L274.8,32.1z M280.5,38.5l-14.4,0.6L266,44l14.4-0.6
			L280.5,38.5z M280.2,51l0.1-5l-14.4,0.6l-0.1,5L280.2,51z"/>
		<path class="st2" d="M300.2,30.7l-6.6,0.3l0.1-2.4l6.6-0.3l0-1.7l2.7-0.1l0,1.7l3.5-0.2l-0.1,2.4l-3.5,0.2l0,1.6l-2.7,0.1
			L300.2,30.7z M318.6,51.1c0,1.2-0.2,1.9-1.1,2.3c-0.8,0.5-2.1,0.5-3.9,0.6c-0.1-0.7-0.4-1.5-0.7-2.2l-0.6,0.2
			c-0.1-0.5-0.2-1-0.5-1.7c-4.7,0.5-9.4,1-12.8,1.3l-0.1-2.4c1.7-0.1,3.8-0.3,6.2-0.5l0.1-2.9l-7.8,0.3l-0.2,8.5l-2.7,0.1l0.2-8.5
			l-1.2,0.1l0.1-2.3l1.2-0.1l0-1l2.7-0.1l0,1l7.8-0.3l0-1.6l-8.6,0.4l0.3-9.4L317,32l-0.3,9.4l-8.8,0.4l0,1.6l10.9-0.5L318.6,51.1z
			 M299.5,36.6l5.9-0.3l0-1.8l-5.9,0.3L299.5,36.6z M305.3,40l0-1.8l-5.9,0.3l0,1.8L305.3,40z M320.4,27.4l-0.1,2.4l-6.7,0.3l0,1.6
			l-2.7,0.1l0-1.6l-3.4,0.1l0.1-2.4l3.4-0.1l0-1.7l2.7-0.1l0,1.7L320.4,27.4z M314.1,34.1l-6,0.3l0,1.8l6-0.3L314.1,34.1z M314,37.8
			l-6,0.3l0,1.8l6-0.3L314,37.8z M313.1,51.7c1.1,0,1.9-0.1,2.2-0.1c0.4,0,0.5-0.1,0.5-0.4l0.2-5.8l-8.2,0.4l-0.1,2.8l3.1-0.3
			c-0.3-0.6-0.7-1.2-1-1.7l2.1-0.6c1.1,1.6,2.3,3.8,2.6,5.4L313.1,51.7z"/>
		<path class="st2" d="M337.6,33.8c-0.2,3.3-0.7,7.3-2.6,11.2c1.5,1.3,2.8,2.5,3.6,3.5l-2,2.5c-0.8-1-1.9-2.1-3.2-3.3
			c-1.4,2-3.2,4-5.6,5.8c-0.4-0.6-1.3-1.5-2-1.9c2.5-1.8,4.3-3.7,5.6-5.7c-1.6-1.4-3.2-2.7-4.7-3.9c0.6-1.9,1.3-4.5,1.9-7.2
			l-2.1,0.2l-0.2-2.7l2.9-0.3c0.4-2.3,0.8-4.6,1-6.7l2.8,0c-0.3,2-0.6,4.2-1,6.4l3.1-0.3l0.1-2.1l2.6-0.1l-0.1,2l1.7-0.2l-0.1,2.5
			L337.6,33.8z M331.4,34.4c-0.5,2.3-1,4.5-1.5,6.4c1,0.7,2,1.5,3,2.3c1.5-3.2,1.9-6.4,2.1-9.2L331.4,34.4z M354.2,39.6l-6.4,0.3
			l-0.3,9.4c0,1.6-0.4,2.3-1.5,2.8c-1.1,0.5-2.6,0.6-5,0.7c-0.1-0.8-0.5-1.9-0.9-2.7c1.7,0,3.4-0.1,3.8-0.1c0.5,0,0.7-0.2,0.7-0.6
			l0.3-9.4l-6.7,0.3l0.1-2.7l6.7-0.3l0.1-3.2c1.5-1.3,3-3.2,4.2-4.9l-9.5,0.4l0.1-2.6l11.5-0.5l0.6-0.2l1.9,1.3
			c-1.5,2.3-3.7,5-5.9,7l-0.1,2.7l6.4-0.3L354.2,39.6z"/>
		<path class="st2" d="M363.3,43.9l-0.1,2.8l-2.6,0.1l0.5-20.1l8-0.4l-0.5,17.3L363.3,43.9z M363.7,29.2l-0.3,12l2.8-0.1l0.3-12
			L363.7,29.2z M387.7,47.2l-0.1,2.6l-19.2,0.8l0.1-2.6l8.6-0.4l0.1-3.6l-6.7,0.3l0.1-2.6l6.7-0.3l0.1-2.6l0.2,0l0-0.2l-6.6,0.3
			l0.4-13.8l15.5-0.7l-0.4,13.8l-6.5,0.3l0,0.2l0.2,0l-0.1,2.6l6.8-0.3l-0.1,2.6l-6.8,0.3l-0.1,3.6L387.7,47.2z M373.7,30.7l4-0.2
			l0.1-3.3l-4,0.2L373.7,30.7z M377.5,36.2l0.1-3.3l-4,0.2l-0.1,3.3L377.5,36.2z M384,27l-3.8,0.2l-0.1,3.3l3.8-0.2L384,27z
			 M383.9,32.6l-3.8,0.2l-0.1,3.3l3.8-0.2L383.9,32.6z"/>
		<path class="st1" d="M398.6,26.8c-0.9,1.4-2,2.7-3,3.6c-0.4-0.5-1.3-1.4-1.9-1.9c1.9-1.6,3.7-4.1,4.8-6.5l2.5,0.6
			c-0.3,0.6-0.5,1.1-0.8,1.6l7.4-0.3l-0.1,2.4l-5,0.2c0.9,0.8,1.8,1.6,2.4,2.3l-1.9,1.7c-0.6-0.8-1.9-2.1-3-3l1.1-1L398.6,26.8z
			 M414.8,40l5.9-0.3l-0.1,2.3l-5.9,0.3l-0.1,4.6c0,1.4-0.4,2.1-1.6,2.5c-1.2,0.4-2.9,0.5-5.5,0.6c-0.1-0.7-0.4-1.6-0.7-2.3
			c1.8,0,3.7-0.1,4.2-0.2c0.5-0.1,0.7-0.2,0.7-0.6l0.1-4.5l-10.9,0.5c1.6,1.2,3.7,3,4.8,4.1l-2.2,1.8c-1-1.1-3.1-3.1-4.7-4.4
			l1.9-1.5l-6.8,0.3l0.1-2.3l18-0.8l0.1-1.9l2.9-0.1L414.8,40z M421.7,23.4l-0.1,2.4l-6.2,0.3c0.9,0.8,1.9,1.8,2.4,2.6l-2,1.7
			c-0.5-0.9-1.7-2.2-2.8-3.1l1.3-1.1l-2.7,0.1c-0.8,1.4-1.7,2.7-2.6,3.7l-0.1-0.1l0,0.9l11-0.5l-0.1,2.4l-11,0.5l-0.1,2.3l9.2-0.4
			l-0.1,2.2l-21.4,0.9l0.1-2.2l9.3-0.4l0.1-2.3l-10.9,0.5l0.1-2.4l10.9-0.5l0-1.7l1.9-0.1c-0.4-0.3-0.7-0.5-1-0.7
			c1.7-1.7,3.1-4.3,4-6.9l2.6,0.5c-0.2,0.6-0.4,1.1-0.6,1.7L421.7,23.4z"/>
		<path class="st1" d="M436.6,21.6c-0.9,2.2-2,4.4-3.2,6.6l-0.6,20.7l-2.7,0.1l0.4-16.4c-0.9,1.2-1.8,2.3-2.7,3.3
			c-0.3-0.7-1-2.2-1.5-2.8c2.9-3,5.8-7.6,7.6-12.1L436.6,21.6z M447.1,28.5l-0.4,16.4c0,1.5-0.4,2.3-1.3,2.8
			c-0.9,0.5-2.3,0.6-4.2,0.7c-0.1-0.8-0.5-2.1-0.9-2.8c1.4,0,2.7-0.1,3.1-0.1c0.4,0,0.6-0.1,0.6-0.5l0.4-16.4l-4.1,0.2
			c-1,2-2,3.7-3.1,5.1c-0.5-0.5-1.6-1.4-2.3-1.8c2.4-2.8,4.2-7.2,5.4-11.5l2.8,0.5c-0.5,1.7-1,3.4-1.7,5l11.5-0.5l0.5-0.1l2,0.3
			c-0.5,2.3-1.1,5.1-1.5,6.8l-2.4-0.4c0.2-1,0.5-2.5,0.7-4L447.1,28.5z M441.9,34.1c-1,4-2.7,7.9-4.6,10.5c-0.5-0.4-1.7-1.1-2.4-1.4
			c1.9-2.3,3.3-5.9,4.2-9.5L441.9,34.1z M451.2,32.9c1.6,3.1,2.9,7.1,3.3,9.9l-2.7,1.1c-0.4-2.7-1.6-6.9-3.1-10L451.2,32.9z"/>
		<path class="st1" d="M470.9,34.8c-1.2,0.4-2.4,0.8-3.5,1.2l-0.2,8.3c0,1.4-0.4,2.2-1.2,2.6c-0.9,0.5-2.2,0.6-4.3,0.7
			c-0.1-0.7-0.4-1.8-0.8-2.5c1.3,0,2.6-0.1,2.9-0.1c0.4,0,0.6-0.1,0.6-0.6l0.2-7.4c-1.3,0.4-2.6,0.8-3.7,1.2l-0.6-2.7
			c1.2-0.4,2.8-0.8,4.4-1.3l0.2-6.1l-4,0.2l0.1-2.6l4-0.2l0.2-5.9l2.7-0.1l-0.2,5.9l3.2-0.1l-0.1,2.6l-3.2,0.1l-0.1,5.4l3.2-1
			L470.9,34.8z M488.2,25.2l-0.6,20.9l-2.8,0.1l0.1-2l-11,0.5l-0.1,2.2l-2.7,0.1l0.6-21.1l6.8-0.3l0.2-6.8l2.7-0.1l-0.2,6.8
			L488.2,25.2z M474.3,28.6l-0.1,5.3l4.1-0.2l0.1-5.3L474.3,28.6z M473.9,42.1l4.1-0.2l0.2-5.6l-4.1,0.2L473.9,42.1z M481.1,28.3
			l-0.1,5.3l4.2-0.2l0.1-5.3L481.1,28.3z M485,41.6l0.2-5.6l-4.2,0.2l-0.2,5.6L485,41.6z"/>
		<path class="st1" d="M505.2,40.8c0-1.6,1.3-2.7,2.9-2.8c1.5-0.1,2.7,1,2.7,2.6s-1.3,2.7-2.9,2.8C506.3,43.4,505.1,42.4,505.2,40.8
			z M506.3,24.4l0-4l4.5-0.2l-0.2,4l-1.2,11.3l-2.5,0.1L506.3,24.4z"/>
	</g>
</g>
</svg>
