<?xml version="1.0" encoding="utf-8"?>
<!-- Generator: Adobe Illustrator 22.0.0, SVG Export Plug-In . SVG Version: 6.00 Build 0)  -->
<svg version="1.1" xmlns="http://www.w3.org/2000/svg" xmlns:xlink="http://www.w3.org/1999/xlink" x="0px" y="0px"
	 viewBox="0 0 373.5 32" style="enable-background:new 0 0 373.5 32;" xml:space="preserve">
<style type="text/css">
	.st0{fill:#161761;}
	.st1{fill:#AF0A1B;}
	.st2{fill:#FFFFFF;}
	.st3{fill:#120842;}
	.st4{fill-rule:evenodd;clip-rule:evenodd;fill:#E43354;}
	.st5{clip-path:url(#SVGID_2_);fill:url(#SVGID_3_);}
	.st6{clip-path:url(#SVGID_5_);fill:url(#SVGID_6_);}
	.st7{clip-path:url(#SVGID_8_);fill:url(#SVGID_9_);}
	.st8{clip-path:url(#SVGID_11_);fill:url(#SVGID_12_);}
	.st9{clip-path:url(#SVGID_14_);fill:url(#SVGID_15_);}
	.st10{clip-path:url(#SVGID_17_);fill:url(#SVGID_18_);}
	.st11{clip-path:url(#SVGID_20_);fill:url(#SVGID_21_);}
	.st12{fill-rule:evenodd;clip-rule:evenodd;fill:#FFFFFF;}
	.st13{fill-rule:evenodd;clip-rule:evenodd;fill:#AF0A1B;}
	.st14{fill:none;}
	.st15{fill:#090842;}
	.st16{fill:url(#SVGID_22_);}
	.st17{fill:url(#SVGID_23_);}
	.st18{clip-path:url(#SVGID_25_);fill:url(#SVGID_26_);}
	.st19{clip-path:url(#SVGID_28_);fill:url(#SVGID_29_);}
</style>
<g id="圖層_4">
</g>
<g id="彩">
	<g>
		<g>
			<g>
				<path class="st0" d="M149.2,19.9L149.2,19.9c1.1,1.1,1.9,2.7,2,4.4c0.3,3.8-2.6,7.1-6.4,7.4c-1.8,0.1-3.5-0.4-4.8-1.5l0,0
					c1.4,1.3,3.2,2,5.2,1.8c3.8-0.3,6.7-3.6,6.4-7.4C151.5,22.8,150.6,21.1,149.2,19.9"/>
				<path class="st0" d="M137,27.8c-0.2,0.1-0.3,0.3-0.2,0.6c0.1,0.3,0.3,0.4,0.4,0.3c0.1-0.1,0.2-0.2,0.1-0.5l0-0.1
					c-0.1-0.3-0.1-0.4,0-0.6c0-0.1,0.1-0.2,0.3-0.3c0.3-0.1,0.6,0.1,0.8,0.5c0.2,0.5,0.1,0.8-0.3,1l-0.1-0.2
					c0.3-0.1,0.3-0.4,0.2-0.7c-0.1-0.3-0.3-0.4-0.5-0.3c-0.2,0.1-0.2,0.2-0.1,0.5l0,0.1l0,0.1c0,0.2,0,0.3,0,0.4
					c0,0.1-0.1,0.2-0.2,0.3c-0.3,0.1-0.6-0.1-0.7-0.5c-0.2-0.4-0.1-0.7,0.2-0.9L137,27.8z"/>
				<polygon class="st0" points="136.8,25.3 137.9,24.4 137.9,24.7 137,25.5 137.3,25.8 137.9,25.8 137.9,26 136.1,26.1 136.1,25.8 
					136.8,25.8 136.9,25.8 137,25.8 136.9,25.7 136.9,25.7 136.1,24.8 136.1,24.5 				"/>
				<path class="st0" d="M137.6,22.5l0.7,0.2l-0.1,0.2l-0.7-0.2l-1.2,0.4l0.1-0.3l0.8-0.2l0.1,0c0,0,0.1,0,0.1,0
					c-0.1-0.1-0.1-0.1-0.1-0.2l-0.5-0.6l0.1-0.3L137.6,22.5z"/>
				<polygon class="st0" points="138.8,19.2 138.4,19.7 139.5,20.6 139.3,21 138.2,20 137.8,20.5 137.5,20.3 138.5,19 				"/>
				<polygon class="st0" points="141.2,17.6 140.3,18.1 140.5,18.4 141.3,17.9 141.5,18.2 140.6,18.7 140.9,19.1 141.8,18.5 
					142,18.8 140.7,19.6 139.8,18 141,17.3 				"/>
				<path class="st0" d="M144.6,18.2l-0.5,0l-0.2-0.4l-0.7,0.1l-0.1,0.4l-0.4,0.1l0.5-1.9l0.4-0.1L144.6,18.2z M143.6,17.3
					c-0.1-0.2-0.1-0.2-0.2-0.4c0,0.1,0,0.2-0.1,0.4l-0.1,0.3l0.5-0.1L143.6,17.3z"/>
				<path class="st0" d="M147.5,18.8l-0.4-0.1l0.1-0.5c0-0.1,0-0.1,0.1-0.3c0-0.1,0.1-0.2,0.1-0.3c0-0.1,0-0.1,0.1-0.2l0-0.1
					c-0.1,0.2-0.1,0.2-0.2,0.4c0,0.1-0.1,0.1-0.1,0.2l-0.5,0.7l-0.3-0.1l-0.1-0.9c0,0,0-0.1,0-0.2c0-0.1,0-0.2,0-0.3
					c0,0,0-0.1,0-0.2l0,0.2c-0.1,0.2-0.1,0.3-0.1,0.6l-0.1,0.6l-0.4-0.1l0.4-1.7l0.6,0.1l0.1,0.8c0,0.2,0,0.4,0,0.6
					c0.1-0.1,0.1-0.2,0.2-0.3c0.1-0.1,0.1-0.1,0.1-0.2l0.5-0.7l0.6,0.2L147.5,18.8z"/>
				<path class="st0" d="M144.1,22.3c-0.2,0.2-0.6,0.6-1.1,1l-0.5,0.4c-0.4-0.1-0.8-0.1-1.1-0.1c-0.9,0-1.7,0.2-2,0.6
					c-0.1,0.1-0.2,0.3-0.2,0.5c0,0.4,0.5,0.6,0.6,0.7c0.8,0.3,1.4,0.2,2.1-0.3c0.4-0.3,0.8-0.7,1.2-1c0.3,0.1,0.6,0.1,0.9,0.2
					l0.3,0.1c-0.4,0.4-0.8,0.8-1.2,1.1l0,0c-0.5,0.5-0.9,0.8-1.5,0.9c-0.4,0.1-0.7,0-0.8-0.1c0,0,0,0,0,0c0.3,0.3,0.6,0.4,1.1,0.4
					c0.5,0,1.1-0.4,1.7-0.9l0.8-0.8l0.6-0.6c0,0,1.1,0.3,1.1,0.3c0,0,0,0,0,0c0,0-0.7,0.7-0.7,0.7l-0.6,0.6
					c-0.6,0.6-0.9,0.9-1.3,1.2c-0.6,0.4-1.1,0.6-1.5,0.7c-0.2,0-0.6,0-0.8-0.2c0,0,0,0,0,0c0.3,0.3,0.7,0.6,1.3,0.6
					c0.7,0,1.4-0.4,2.3-1.3c0.4-0.4,0.9-0.9,1.3-1.3l0.7-0.7c0.5,0.1,0.9,0.2,1.4,0.1c0.7,0,1.3-0.4,1.3-0.7c0-0.3-0.2-0.4-0.4-0.5
					c-0.1-0.1-0.4-0.3-0.9-0.3c-0.5,0-1.1,0.2-1.6,0.7l-0.4,0.3c0,0-0.1,0-0.1,0l-1-0.3c0.3-0.3,0.6-0.5,0.8-0.7
					c0.6-0.5,1.2-0.7,1.5-0.7c0.3,0,0.7,0,0.9,0.1c0,0,0,0,0,0c-0.5-0.4-0.9-0.5-1.3-0.5c-0.4,0-0.9,0.1-1.6,0.7
					c-0.3,0.2-0.7,0.6-1,1l-0.5-0.2l-0.1,0l-0.5-0.2c0,0,0.3-0.3,0.3-0.3c0.4-0.4,0.7-0.7,1-0.9c1-0.8,1.6-0.9,2-0.9
					c0.5,0,0.8,0.1,1.1,0.3c0,0,0,0,0,0c-0.5-0.5-1-0.7-1.6-0.7C145.5,21.3,144.8,21.6,144.1,22.3 M140.2,25.2
					c-0.3,0-0.5-0.1-0.5-0.4c0,0,0-0.8,1.8-0.9c0.2,0,0.4,0,0.8,0c0,0-0.2,0.2-0.2,0.2l-0.1,0.1C141.6,24.6,140.9,25.3,140.2,25.2
					 M147.5,24.6c0.5-0.3,0.9-0.5,1.2-0.5c0.2,0,0.3,0.1,0.3,0.2c0,0.2-0.2,0.4-0.6,0.5c-0.3,0.1-0.8,0.1-1.4,0.1
					C147.2,24.8,147.4,24.6,147.5,24.6"/>
				<line class="st0" x1="143.9" y1="25" x2="143.9" y2="25.5"/>
				<path class="st0" d="M148.2,17.4c0.1-0.2,0.2-0.2,0.4-0.2c0.2,0.1,0.2,0.2,0.2,0.4c-0.1,0.2-0.2,0.2-0.4,0.2
					C148.2,17.7,148.2,17.5,148.2,17.4 M148.7,17.6c0.1-0.1,0-0.3-0.1-0.3c-0.1-0.1-0.3,0-0.3,0.1c-0.1,0.1,0,0.3,0.1,0.3
					C148.5,17.8,148.7,17.8,148.7,17.6 M148.6,17.7L148.6,17.7l-0.1-0.2l0,0l-0.1,0.1l0,0l0.2-0.3l0.1,0.1c0,0,0.1,0.1,0.1,0.1
					c0,0.1-0.1,0.1-0.1,0L148.6,17.7z M148.5,17.5c0,0,0.1,0.1,0.1,0C148.7,17.5,148.6,17.4,148.5,17.5L148.5,17.5L148.5,17.5
					L148.5,17.5z"/>
				<path class="st1" d="M5.4,26c0.3,1.1,0.2,2.9-0.5,3.9c-1.1,1.3-2.1-0.1-2.4-1.2c-0.3-1.2-0.2-3.2,0.6-4.2
					c0.3-0.4,0.8-0.6,1.2-0.3C5,24.7,5.1,25.3,5.4,26"/>
				<path class="st2" d="M4.4,27.5c0,0.1-0.1,0.3,0.1,0.4C4.7,28,5,27.9,5,28.1c-0.3,0-0.5-0.3-0.8-0.2c-0.2,0-0.3,0.1-0.5,0.2
					c0,0,0,0,0-0.1c0.2-0.1,0.4-0.1,0.5-0.3l0-0.4C4.3,27.3,4.4,27.4,4.4,27.5"/>
				<path class="st2" d="M4.6,28.3c0.1,0.1,0,0.3,0.1,0.5c0,0.4,0,0.7,0.1,1.1c0,0,0,0.1-0.1,0.1c-0.1,0-0.1,0-0.1-0.1
					c0-0.5-0.1-1-0.1-1.6c0-0.1-0.2,0-0.3-0.1c-0.1,0-0.1,0-0.1,0.1c0,0.5,0,1.1-0.1,1.6c0,0,0,0-0.1,0l0,0c0-0.5,0-1.1,0.1-1.7
					c0.1-0.1,0.2-0.2,0.3-0.1C4.4,28.2,4.5,28.3,4.6,28.3"/>
				<path class="st2" d="M3.5,29.2c0,0.1,0,0.2,0,0.3c0,0.1,0,0.2-0.1,0.4c0,0.1-0.1,0.1,0,0.2h0.1c0.1-0.1,0.1-0.2,0.1-0.3
					c0-0.1,0-0.2,0-0.3c0-0.2,0-0.4,0-0.7c0-0.1,0-0.1,0-0.1c0-0.2,0-0.4,0-0.6c-0.1-0.2-0.3-0.2-0.5-0.3c0,0-0.1-0.1-0.1-0.1
					c0-0.1,0.2-0.1,0.2-0.1c0,0,0.1,0,0.1,0c0.1,0,0.1,0,0.1,0c0,0,0.1,0,0.1-0.1c-0.1-0.1-0.2,0-0.3,0c-0.1,0.1-0.3,0-0.4,0.2
					c0,0.1,0,0.2,0.1,0.2c0,0,0.1,0.1,0.2,0.1c0.1,0,0.3,0,0.3,0.2c0,0.1,0,0.2,0,0.2c0,0,0,0.1,0,0.1c0,0.1,0,0.2,0,0.2
					c0,0.1-0.1,0-0.2,0c-0.1,0-0.1,0-0.2,0c0-0.1,0-0.2,0-0.2c0.1-0.1,0.2,0,0.3-0.1c0,0,0,0,0,0c0,0,0,0,0,0c0,0,0,0,0,0
					c-0.1-0.1-0.1,0-0.2,0c0,0,0,0-0.1,0c-0.1,0,0-0.2-0.1-0.2c0,0,0-0.1-0.1-0.1c-0.1,0.1,0,0.2,0,0.3c0,0.3,0,0.5,0,0.8
					c0,0.1,0,0.3,0,0.4c0,0.1,0,0.1,0,0.2c0,0.1-0.1,0.2,0,0.2c0,0,0.1,0,0.1-0.1c0-0.2,0.1-0.4,0.1-0.5c0,0,0-0.1,0.1,0
					c0.1,0,0.1,0.1,0.2,0.1c0.1,0,0-0.1,0-0.1c-0.1,0-0.1,0-0.2-0.1c0,0-0.1,0-0.1,0c0-0.1,0-0.2,0-0.2c0.1,0,0.2,0,0.2,0
					c0,0,0.1,0,0.1,0C3.5,29,3.5,29.1,3.5,29.2"/>
				<path class="st2" d="M5,26.1l-0.1,0c0,0-0.1-0.1-0.1-0.1c-0.1-0.1-0.3-0.1-0.4-0.2c-0.1,0-0.2,0.1-0.3,0.2c0,0,0,0-0.1,0
					c0-0.1,0.1-0.1,0.2-0.2c0,0,0.1,0,0.1-0.1c0.1,0,0.1,0.1,0.2,0.1c0.1,0,0.1,0.1,0.2,0.1c0.1,0.1,0.1,0.1,0.2,0.1
					C5,26,5.1,25.9,5,26.1L5,26.1z"/>
				<path class="st2" d="M4.8,24.8c0,0-0.1,0.1-0.1,0.1c-0.1,0-0.1,0-0.2,0.1c0,0,0,0,0,0.1c0,0.1,0.1,0.1,0.2,0.1c0,0,0,0,0,0
					c0,0-0.1,0-0.1,0c-0.1,0-0.2,0-0.3,0c0,0,0,0-0.1,0c0,0,0,0-0.1,0c-0.1,0-0.2,0-0.2,0.1c0,0.1,0,0.1,0,0.2c0,0,0,0.1,0,0.1
					c0,0.1,0,0.3,0,0.4c0,0,0,0.1,0,0.1c0.1,0.1,0.2,0,0.2,0c0.1,0,0.1,0,0.2,0c0.1,0,0.1,0,0.2,0c0,0,0,0,0,0c0,0,0,0-0.1,0
					c0,0-0.1,0-0.2,0c-0.1,0-0.3,0-0.4,0c-0.1,0-0.1,0-0.2,0c0,0-0.1,0-0.1,0c-0.1,0-0.1,0-0.2,0c0,0-0.1,0-0.1,0c0,0,0,0,0,0
					c0.1,0,0.2,0,0.2,0c0.1,0,0.2,0,0.2,0c0,0,0-0.1,0-0.1c0-0.1,0-0.2,0-0.4c0-0.1,0-0.2,0-0.2c0-0.1,0-0.2,0.1-0.3l0.2-0.1
					c0.1,0,0.1,0,0.2,0c0,0,0.1,0,0.1-0.1c0,0,0-0.1-0.1-0.1c-0.1,0,0,0-0.1,0c0,0-0.1,0-0.1,0c-0.1-0.1-0.1-0.2-0.1-0.4
					c0,0,0-0.1,0.1,0c0,0,0,0.1,0,0.1c0,0.1,0.1,0.2,0.1,0.2c0.1,0,0.1,0,0.1,0c0.1,0,0-0.1,0-0.2c0-0.1,0-0.1,0-0.2
					c0,0,0,0,0.1,0.1l0,0c0,0.1,0,0.2,0,0.3c0,0,0,0,0.1,0C4.7,24.8,4.7,24.8,4.8,24.8c-0.1-0.1-0.1-0.3,0-0.3c0,0,0,0,0,0L4.8,24.8
					z"/>
				<path class="st2" d="M4.8,25.6C4.8,25.6,4.7,25.6,4.8,25.6c-0.2-0.1-0.3-0.1-0.4-0.2c-0.1,0-0.1,0-0.2,0c0,0-0.1,0.1-0.1,0.1
					c0,0,0,0-0.1,0c0,0,0,0,0,0c0,0,0.1-0.1,0.1-0.1c0.1,0,0.2-0.1,0.2-0.1c0.1,0,0.2,0.1,0.3,0.1C4.7,25.5,4.8,25.5,4.8,25.6
					C4.8,25.6,4.8,25.6,4.8,25.6"/>
				<path class="st2" d="M4.5,26.8c0,0.1,0,0.3,0,0.3c0,0.1-0.1,0.1-0.1,0.1c-0.1,0-0.1,0-0.2,0l-0.2,0c-0.1,0-0.2,0-0.4,0
					c-0.1,0-0.1,0-0.2,0c0,0,0,0,0-0.1c0,0,0.1,0,0.1,0c0.1,0,0.2,0,0.4,0c0.1,0,0.2,0,0.3,0c0,0,0.1,0,0.1,0c0.1,0,0.1,0,0.1-0.1
					c0-0.1,0-0.1-0.1-0.2c-0.1,0-0.2,0-0.3-0.1c-0.1-0.1,0-0.2-0.1-0.2c-0.1,0-0.2,0-0.3,0c-0.1,0-0.1,0-0.2,0c0,0-0.1,0-0.1,0
					c0,0,0,0-0.1,0c0,0-0.1,0,0-0.1c0,0,0.1,0,0.1,0c0.1,0,0.2,0,0.3,0c0,0,0.1,0,0.1,0c0.1,0,0.2,0,0.3,0c0.1,0,0.2,0,0.2,0
					c0.1,0,0.1,0,0.1,0c0.1,0,0.1,0,0.2,0c0.1,0,0.1,0,0.2,0c0,0,0,0,0.1,0c0,0,0,0,0,0c-0.1,0-0.1,0-0.2,0c-0.1,0-0.1,0-0.2,0
					c-0.1,0-0.1,0-0.2,0c-0.1,0-0.1,0-0.1,0c0,0.1,0,0.1,0.1,0.1c0,0,0.2,0,0.2,0C4.3,26.7,4.4,26.7,4.5,26.8"/>
				<path class="st2" d="M3.9,24.5c0,0.1,0,0.3-0.1,0.4c-0.1,0-0.2,0-0.3,0.1c-0.1,0.1,0,0.1,0,0.2c0,0.1,0.1,0.1,0.2,0.2
					c0,0,0.1,0.1,0.1,0.1c0,0,0,0-0.1,0l0,0l0,0c0,0-0.1-0.1-0.1-0.1c-0.1,0-0.2,0.1-0.3,0.2c0,0-0.1,0.1-0.1,0.1c0,0,0,0-0.1,0.1
					c0,0-0.1,0.1-0.1,0.1l0,0c0,0,0.1-0.1,0.1-0.1c0.1-0.1,0.2-0.2,0.3-0.2c0.1-0.1,0.2-0.1,0.2-0.2c0,0,0-0.1,0-0.1
					c0-0.1,0-0.1,0-0.2c-0.1,0-0.2-0.1-0.2-0.1c-0.1-0.1-0.1-0.3-0.1-0.5l0,0c0.1,0,0,0.1,0,0.1c0,0.1,0,0.2,0.1,0.2
					c0,0,0.1,0.1,0.1,0.1c0,0,0.1,0,0.1-0.1c0-0.1,0-0.2,0-0.3c0,0,0-0.1,0-0.1l0.1,0c0,0.1,0,0.1,0,0.2c0,0.1,0,0.1,0,0.2
					c0,0,0.1,0,0.1,0c0.1,0,0.1-0.1,0.1-0.1C3.8,24.6,3.8,24.5,3.9,24.5L3.9,24.5C3.9,24.4,3.9,24.5,3.9,24.5"/>
				<path class="st2" d="M3.7,25.9C3.7,25.9,3.7,25.8,3.7,25.9c-0.1-0.1-0.2-0.2-0.2-0.2c0,0-0.1,0-0.1,0.1C3.2,25.9,3.1,26,3,26.1
					c0,0,0,0-0.1,0C3,26,3.1,26,3.1,26c0,0,0.1-0.1,0.1-0.1c0,0,0-0.1,0.1-0.1c0.1-0.1,0.1-0.1,0.2-0.1c0,0,0.1,0,0.1,0
					c0,0.1,0.1,0.1,0.2,0.1C3.7,25.8,3.8,25.9,3.7,25.9"/>
				<path class="st3" d="M35.3,21.7L35.3,21.7c-0.7-0.3-1.6-0.6-2.5-0.6c-1.8,0-3.3,1.3-3.3,3.2c0,2,1.7,3.2,3.4,3.2
					c1.1,0,2.2-0.4,2.8-1l0.1,0.1l-0.4,1.7c-0.6,0.4-1.7,0.6-2.6,0.6c-2.9,0-5.2-1.7-5.2-4.5c0-2.6,2-4.6,5.2-4.6
					c1.1,0,2.1,0.3,2.9,0.6L35.3,21.7z M45.1,28.7c0-0.5-0.1-1-0.1-1.5v-5.8c0-0.4,0-1,0.1-1.5h-1.9c0,0.5,0.1,1,0.1,1.5v2.1h-4.5
					v-2.1c0-0.4,0-1,0.1-1.5h-1.9c0,0.5,0.1,1,0.1,1.5v5.8c0,0.5,0,1-0.1,1.5h1.9c0-0.5-0.1-1-0.1-1.5v-2.3h4.5v2.3
					c0,0.5,0,1-0.1,1.5H45.1z M49.2,28.7c0-0.5-0.1-1-0.1-1.5v-5.8c0-0.4,0-1,0.1-1.5h-1.9c0,0.5,0.1,1,0.1,1.5v5.8
					c0,0.5,0,1-0.1,1.5H49.2z M59.4,19.9c0,0.4-0.1,1-0.1,1.5v7.3h-0.3l-6.1-6.3v4.7c0,0.5,0,1,0.1,1.5h-1.6c0-0.5,0.1-1,0.1-1.5V21
					l-0.9-0.9v-0.1h2.2l5.1,5.2v-3.8c0-0.5,0-1-0.1-1.5H59.4z M70.4,28.7c-0.4-0.6-0.7-1.2-1-1.7l-4.1-7.5h-0.4L60,28.7h2
					c0.2-0.4,0.3-0.9,0.5-1.2l0.5-1.1h4.2l0.6,1.1c0.2,0.3,0.4,0.7,0.5,1.1H70.4z M65,22.2L65,22.2l1.6,3h-3L65,22.2z M83.7,28.7
					c-0.4-0.6-0.7-1.2-1-1.7l-4.1-7.5h-0.4l-4.9,9.2h2c0.2-0.4,0.3-0.9,0.5-1.2l0.5-1.1h4.2l0.6,1.1c0.2,0.3,0.4,0.7,0.5,1.1H83.7z
					 M78.3,22.2L78.3,22.2l1.6,3h-3L78.3,22.2z M86.2,28.7c0-0.5-0.1-1-0.1-1.5v-5.8c0-0.4,0-1,0.1-1.5h-1.9c0,0.5,0.1,1,0.1,1.5
					v5.8c0,0.5,0,1-0.1,1.5H86.2z M88.4,28.7c0-0.5,0.1-1,0.1-1.5v-5.8c0-0.4,0-1-0.1-1.5h3.4c1.9,0,3.2,1,3.2,2.4
					c0,1.4-1,2.2-2.2,2.4l2.2,2.5c0.4,0.5,0.8,0.9,1.4,1.4v0.1h-2.3l-3.9-4.5v3.1c0,0.5,0,1,0.1,1.5H88.4z M90.2,23.9h1
					c1.2,0,1.9-0.5,1.9-1.5c0-0.9-0.7-1.4-1.9-1.4h-1V23.9z M102.3,28.7l0.4-1.6l-0.1,0c-0.5,0.3-1.1,0.4-1.7,0.4h-2.1v-6.1
					c0-0.4,0-1,0.1-1.5H97c0,0.5,0.1,1,0.1,1.5v5.8c0,0.5,0,1-0.1,1.5H102.3z M105.6,28.7c0-0.5-0.1-1-0.1-1.5v-5.8
					c0-0.4,0-1,0.1-1.5h-1.9c0,0.5,0.1,1,0.1,1.5v5.8c0,0.5,0,1-0.1,1.5H105.6z M115.8,19.9c0,0.4-0.1,1-0.1,1.5v7.3h-0.3l-6.1-6.3
					v4.7c0,0.5,0,1,0.1,1.5h-1.6c0-0.5,0.1-1,0.1-1.5V21l-0.9-0.9v-0.1h2.2l5.1,5.2v-3.8c0-0.5,0-1-0.1-1.5H115.8z M123.8,28.7
					l0.4-1.6l-0.1,0c-0.5,0.3-1.1,0.4-1.7,0.4h-2.9v-2.8h2.3c0.6,0,1.1,0,1.5,0.2l0.3-1.3h-4.1v-2.4h2.4c0.6,0,1.2,0.1,1.7,0.2
					l0.3-1.4h-6.4c0,0.5,0.1,1,0.1,1.5v5.8c0,0.5,0,1-0.1,1.5H123.8z M131.1,21.9c-0.6-0.5-1.6-0.9-2.5-0.9c-1.2,0-1.9,0.4-1.9,1
					c0,0.7,0.8,1,2.4,1.7c2.2,1,2.8,1.5,2.8,2.7c0,1.5-1.5,2.5-3.7,2.5c-1.2,0-2.5-0.4-3.3-0.9l0.3-1.6h0.1c0.6,0.8,1.8,1.2,2.9,1.2
					c1.1,0,1.9-0.4,1.9-1.1c0-0.6-0.6-0.9-2.4-1.6c-2-0.8-2.8-1.5-2.8-2.8c0-1.3,1.2-2.3,3.6-2.3c1,0,2.2,0.3,2.9,0.7L131.1,21.9
					L131.1,21.9z"/>
				<path class="st4" d="M16.1,10.7c0.3,0,0.4,0.1,0.5,0.2c0.3,0.2,0.5,0.3,0.9,0.3c0.2,0,0.4,0,0.6,0.1c0.7,0.3,1.1,1.5,1.2,2.1
					c0,0.2,0,0.5,0,0.7c0,0.2,0,0.4,0,0.6c0.1,0.3,0.2,0.3,0.3,0.3h0c0.1,0,0.2,0,0.3,0c0.1,0,0.2,0,0.2,0c0.2,0,0.4,0,0.6,0
					c0.3,0,0.5,0,0.8,0.1c0.3,0.1,0.5,0.1,0.8,0.1c0.2,0,0.4,0,0.6,0.1c0.2,0,0.9,0.2,1.3,0.3c0.2,0.1,0.4,0.3,0.6,0.4
					c0.1,0.1,0.3,0.3,0.5,0.3c1,0.5,1.3,1.2,1,2.1c0,0.1-0.1,0.2-0.1,0.3c-0.1,0.3-0.2,0.7-0.3,1c-0.1,0.4-0.4,0.6-0.6,0.8
					c-0.1,0.1-0.2,0.1-0.2,0.2c-0.2,0.2-0.4,0.5-0.6,0.8c-0.3,0.4-0.5,0.8-1,1.1c-0.4,0.2-0.7,0.2-1,0.2c0,0,0,0-0.1,0
					c-0.2,0.1,0,0.4,0.1,0.6c0.1,0.1,0.1,0.2,0.2,0.4c0,0.1,0,0.3,0,0.4c0,0.1,0,0.2,0,0.3c0,0,0.1,0.1,0.1,0.1
					c0.1,0.1,0.2,0.2,0.2,0.3c0.1,0.4,0.1,1.2,0,1.5c0,0.1-0.1,0.2-0.2,0.3c-0.1,0.1-0.1,0.2-0.2,0.2c0,0.1-0.1,0.2-0.1,0.2
					c0,0.1-0.1,0.3-0.2,0.4c-0.4,0.6-1.2,0.9-1.9,1.1c-0.2,0.1-0.3,0.1-0.5,0.2c-0.2,0.1-0.3,0.1-0.5,0.1c-0.2,0-0.3-0.1-0.5-0.2
					c-0.1,0-0.2-0.1-0.3-0.1c-0.3-0.1-0.5-0.1-0.9-0.2c-0.2,0-0.3,0-0.5,0c-0.3,0-0.5-0.2-0.7-0.3c0,0-0.1,0-0.1-0.1h0
					c-0.3,0-0.5-0.1-0.6-0.2c-0.3,0.5-0.8,0.8-1.5,1.1c-0.5,0.3-1,0.4-1.4,0.4c-0.1,0-0.2,0.1-0.3,0.1c-0.4,0.1-0.8,0.2-1.2,0.2
					c-0.2,0-0.3,0-0.5,0c-0.5,0-1-0.1-1.3-0.4c-0.4-0.2-0.7-0.4-1-0.7c-0.4-0.3-0.8-0.6-1-1c-0.2-0.5-0.1-0.7,0-1
					c0-0.1,0.1-0.2,0.1-0.3c0,0,0,0,0-0.1c0.3-0.6,0.4-0.9,0.4-1c-0.3-0.1-0.6-0.4-0.8-0.9c-0.1-0.3-0.3-0.5-0.4-0.6
					c-0.1-0.1-0.1-0.2-0.2-0.2C7,23.5,7,23.5,6.9,23.4c-0.3-0.3-0.6-0.5-1-0.6c-0.3-0.2-0.6-0.3-0.9-0.5c-0.2-0.2-0.3-0.3-0.5-0.6
					c-0.4-0.6-0.8-1.3-0.9-2c-0.1-0.7,0-1,0.3-1.4C4,18.1,4.1,18,4.2,17.9c0-0.1,0.1-0.1,0.1-0.2c0-0.1,0.1-0.2,0.1-0.3
					c0.1-0.2,0.1-0.3,0.3-0.5c0.3-0.3,0.5-0.4,0.8-0.6c0.3-0.2,0.7-0.3,1-0.3c0,0,0.2,0,0.3,0c0.1,0,0.1,0,0.2,0c0,0,0,0,0,0
					C7,16,7,16,7.1,15.9c0.1,0,0.2-0.1,0.3-0.1h0c0.3,0,1.4,0.6,1.7,0.6c0,0,0.1,0,0.1,0c0,0,0.1,0,0.1,0c0.1-0.1,0.2-0.3,0.3-0.5
					c0,0,0,0,0-0.1l0,0c0,0,0-0.1,0-0.1l0,0c0,0,0-0.1,0-0.1c0.1-0.2,0.1-0.4,0.1-0.6c0-0.1,0-0.1,0-0.2l0-0.1l0-0.1
					c0,0,0-0.1,0-0.1c0,0,0,0,0,0l0,0c0,0,0,0,0,0l0,0c0,0,0,0,0-0.1l0,0c0,0,0,0,0,0l0,0c0,0,0,0,0-0.1v0c0,0,0,0,0,0l0,0
					c0,0,0,0,0-0.1l0,0c0,0,0,0,0,0l0,0c0,0,0,0,0-0.1v0c0,0,0,0,0,0l0,0c0,0,0,0,0,0c0.1-0.2,0.2-0.5,0.3-0.8
					c0.2-0.6,0.3-1.1,0.8-1.5c0.2-0.1,0.5-0.2,0.7-0.2c0.2,0,0.4,0,0.5-0.1c0.1-0.1,0.3-0.2,0.4-0.3c0.2-0.1,0.4-0.3,0.6-0.4
					c0,0,0.1,0,0.1,0l0,0c0,0,0,0,0.1,0l0,0c0,0,0,0,0.1,0l0,0c0,0,0,0,0.1,0l0,0c0,0,0,0,0.1,0l0,0c0,0,0,0,0.1,0c0,0,0,0,0,0
					c0,0,0,0,0,0c0,0,0,0,0,0c0,0,0,0,0,0h0h0h0h0h0c0.1,0,0.2,0,0.3,0h0c0,0,0.1,0,0.1,0l0,0c0,0,0.1,0,0.1,0c0.1,0,0.2,0,0.2,0
					c0.2,0,0.4,0,0.6-0.1C15.8,10.7,16,10.6,16.1,10.7"/>
			</g>
			<g>
				<defs>
					<path id="SVGID_1_" d="M15.8,10.8c-0.5,0.1-0.7,0.2-1.1,0.1c-0.4,0-0.8-0.1-1.2,0.1c-0.4,0.1-0.6,0.4-1,0.6
						c-0.4,0.2-0.8,0.1-1.2,0.3c-0.7,0.4-0.7,1.5-1,2.2c-0.4,0.7-0.2,1.9-0.9,2.5c0,0,0,0-0.1,0c0,0-0.1,0-0.1,0
						c-0.3,0-1.3-0.6-1.7-0.6c-0.2,0-0.3,0.1-0.5,0.1c-0.1,0-0.2,0-0.3,0c-0.1,0-0.2,0-0.3,0c-0.3,0-0.6,0.1-0.9,0.3
						c-0.3,0.1-0.5,0.3-0.7,0.5c-0.3,0.3-0.2,0.4-0.4,0.8c-0.4,0.8-0.7,1.1-0.6,2c0.1,0.8,0.7,1.5,1.1,2.2c0.5,0.8,1.5,0.8,2.2,1.5
						c0.2,0.2,0.5,0.5,0.7,0.8C8,24.3,8.6,25,8.7,25.2c0,0.2-0.3,1-0.4,1.2c-0.2,0.5-0.4,0.6-0.2,1.2c0.3,0.7,1.3,1.1,1.8,1.6
						c0.7,0.6,1.9,0.4,2.8,0.3c0.9-0.1,1.8-0.3,2.5-1c0.4-0.4,0.5-0.8,1.2-0.6c0.5,0.2,0.7,0.5,1.2,0.6c0.5,0.1,0.9,0,1.3,0.2
						c0.5,0.2,0.6,0.4,1.2,0.2c0.7-0.3,1.8-0.6,2.3-1.2c0.1-0.2,0.1-0.5,0.2-0.7c0.1-0.1,0.3-0.4,0.4-0.5c0.1-0.3,0.1-1,0-1.4
						c-0.1-0.2-0.3-0.3-0.4-0.5c-0.1-0.2,0-0.5-0.1-0.7c-0.2-0.5-0.7-1-0.3-1.2c0.1,0,0.7,0,1.1-0.2c0.7-0.4,1-1.3,1.5-1.9
						c0.4-0.3,0.6-0.5,0.8-0.9c0.1-0.4,0.3-0.9,0.4-1.3c0.3-1-0.1-1.5-0.9-2c-0.4-0.2-0.6-0.6-1-0.7c-0.3-0.1-0.9-0.3-1.3-0.3
						c-0.5-0.1-0.9-0.1-1.4-0.2c-0.4-0.1-0.8-0.1-1.3,0c-0.5,0.1-0.8,0.3-1-0.3c-0.1-0.4,0.1-0.9,0-1.3c-0.1-0.6-0.5-1.7-1.1-2
						c-0.4-0.2-0.8-0.1-1.2-0.3c-0.4-0.2-0.5-0.3-0.9-0.3C16,10.8,15.9,10.8,15.8,10.8"/>
				</defs>
				<clipPath id="SVGID_2_">
					<use xlink:href="#SVGID_1_"  style="overflow:visible;"/>
				</clipPath>
				
					<radialGradient id="SVGID_3_" cx="-235.9577" cy="327.4668" r="0.5916" gradientTransform="matrix(17.5298 0 0 -17.5298 4151.2988 5760.6377)" gradientUnits="userSpaceOnUse">
					<stop  offset="0" style="stop-color:#FFFFFF"/>
					<stop  offset="6.748470e-02" style="stop-color:#FFFFFF"/>
					<stop  offset="0.3804" style="stop-color:#F5CFDC"/>
					<stop  offset="1" style="stop-color:#E43354"/>
				</radialGradient>
				<rect x="3.7" y="10.8" class="st5" width="22.8" height="19.1"/>
			</g>
			<g>
				<defs>
					<path id="SVGID_4_" d="M16,10.8c-0.1,0-0.1,0-0.2,0c-0.5,0.1-0.7,0.2-1.1,0.1c-0.1,0-0.3,0-0.4,0c-0.3,0-0.5,0-0.8,0.1
						c-0.4,0.1-0.6,0.4-1,0.6c-0.4,0.2-0.8,0.1-1.2,0.3c-0.7,0.4-0.7,1.5-1,2.2c-0.3,0.6-0.3,1.3-0.5,1.9c0,0.2,0.1,0.4,0.1,0.6
						c0.1,0.3,0.8,0.3,0.6,1l0,0.1c0.5,1.7,3.6,1.3,4.5,0.6c0.4-0.3,1.3-0.6,1.6-1.1c0.3-0.4,1.3-0.7,1.5-1.1
						c0.4-0.6,0.9-1.5,0.8-2.1c-0.1-1.8-1.2-2.6-2.1-3C16.6,10.9,16.4,10.8,16,10.8C16.1,10.8,16.1,10.8,16,10.8"/>
				</defs>
				<clipPath id="SVGID_5_">
					<use xlink:href="#SVGID_4_"  style="overflow:visible;"/>
				</clipPath>
				
					<radialGradient id="SVGID_6_" cx="-239.5999" cy="327.2542" r="0.5916" gradientTransform="matrix(13.4683 0 0 -13.4683 3241.116 4419.6035)" gradientUnits="userSpaceOnUse">
					<stop  offset="0" style="stop-color:#E43354"/>
					<stop  offset="0.2086" style="stop-color:#E43354"/>
					<stop  offset="0.2886" style="stop-color:#E53C5A"/>
					<stop  offset="0.4181" style="stop-color:#E7536B"/>
					<stop  offset="0.5809" style="stop-color:#EB798A"/>
					<stop  offset="0.7689" style="stop-color:#F1AEBB"/>
					<stop  offset="0.8712" style="stop-color:#F5CFDC"/>
					<stop  offset="1" style="stop-color:#F5CFDC"/>
				</radialGradient>
				<rect x="9.8" y="10.8" class="st6" width="9.3" height="8.7"/>
			</g>
			<g>
				<defs>
					<path id="SVGID_7_" d="M16.3,11c-0.1,0-0.1,0-0.2,0c-0.5,0.1-0.7,0.2-1.2,0.1c-0.1,0-0.4,0-0.4,0c-0.3,0-0.5,0-0.8,0.1
						c-0.4,0.1-0.6,0.5-1,0.6c-0.4,0.2-0.9,0.1-1.2,0.3c-0.4,0.2-0.8,1.1-1,2.1c0,0.4,0.2,0.7,0.1,1.1c-0.2,1.7,0.3,1.3,0.7,2
						c0.7,1.3,0.6,1.7,0.3,1.6c0.4,0.5,0.7,1,0.4,1.4c1.2,0.3,2.7-0.1,3.2-0.5c0.5-0.4,1.1-0.7,1.5-1.2c0.3-0.4,0.9-1.7,1.1-2.1
						c0.4-0.7,0.8-0.8,1.1-2c0.5-2-0.5-2.9-1.6-3.4C17,11.2,16.6,11,16.3,11C16.4,11,16.4,11,16.3,11"/>
				</defs>
				<clipPath id="SVGID_8_">
					<use xlink:href="#SVGID_7_"  style="overflow:visible;"/>
				</clipPath>
				
					<radialGradient id="SVGID_9_" cx="-238.0148" cy="327.3015" r="0.5916" gradientTransform="matrix(15.0101 0 0 -14.2911 3587.7354 4691.1035)" gradientUnits="userSpaceOnUse">
					<stop  offset="0" style="stop-color:#E43354"/>
					<stop  offset="7.969850e-02" style="stop-color:#E53958"/>
					<stop  offset="0.189" style="stop-color:#E64A65"/>
					<stop  offset="0.3155" style="stop-color:#E9677B"/>
					<stop  offset="0.4549" style="stop-color:#ED8E9D"/>
					<stop  offset="0.6032" style="stop-color:#F3C2CE"/>
					<stop  offset="0.638" style="stop-color:#F5CFDC"/>
					<stop  offset="0.7402" style="stop-color:#F6D6E2"/>
					<stop  offset="0.893" style="stop-color:#FBECF1"/>
					<stop  offset="1" style="stop-color:#FFFFFF"/>
				</radialGradient>
				<rect x="10.4" y="11" class="st7" width="9.1" height="9.7"/>
			</g>
			<g>
				<defs>
					<path id="SVGID_10_" d="M14.6,21.8c-0.7,0.2-2,0-2.7,0.4c-0.6,0.4-1.1,0.9-1.4,1.5c-0.7,0.7-1.4,1.4-1.8,1.9
						c-0.4,0.6-0.5,1.6-0.2,2.2c0.8,1.6,2.8,2.1,4.3,1.6c1.5-0.3,3.3-0.8,3.5-2.7c0.1-1,0.4-2,0.1-2.9c-0.2-0.7-0.3-2.1-1.4-2.1
						C14.9,21.8,14.7,21.8,14.6,21.8"/>
				</defs>
				<clipPath id="SVGID_11_">
					<use xlink:href="#SVGID_10_"  style="overflow:visible;"/>
				</clipPath>
				
					<radialGradient id="SVGID_12_" cx="-245.4888" cy="328.229" r="0.5916" gradientTransform="matrix(9.7451 0 0 -9.7451 2403.9575 3221.9055)" gradientUnits="userSpaceOnUse">
					<stop  offset="0" style="stop-color:#FFFFFF"/>
					<stop  offset="0.411" style="stop-color:#F5CFDC"/>
					<stop  offset="1" style="stop-color:#E43354"/>
				</radialGradient>
				<rect x="8.3" y="21.8" class="st8" width="8.5" height="8.2"/>
			</g>
			<g>
				<defs>
					<path id="SVGID_13_" d="M3.8,19.4c0,0.7,0.6,1.5,0.9,2.1c0.5,0.9,0.9,0.9,1.7,1.4c0.7,0.4,1.1,0.8,1.5,1.5
						c1,1.9,2.1,0.1,2.9-0.6c0.6-0.5,1-1.7,0.8-2.5c-0.1-0.5-0.6-1.3-1-1.7l0.3,0.2c-0.4-0.4-0.1-0.8-0.2-1.2
						c-0.1-0.4-0.4-0.9-0.6-1.3c-0.3-0.6-0.7-0.5-1-0.3c-0.2,0.1-0.3,0.2-0.5,0.1c-0.4-0.1-1-0.2-1.4-0.4c-0.3-0.1-0.5-0.1-0.8-0.1
						C5.1,16.6,3.8,17.9,3.8,19.4"/>
				</defs>
				<clipPath id="SVGID_14_">
					<use xlink:href="#SVGID_13_"  style="overflow:visible;"/>
				</clipPath>
				
					<radialGradient id="SVGID_15_" cx="-240.8425" cy="327.8282" r="0.5916" gradientTransform="matrix(12.3914 0 0 -12.3914 2996.0247 4083.8589)" gradientUnits="userSpaceOnUse">
					<stop  offset="0" style="stop-color:#FFFFFF"/>
					<stop  offset="6.748470e-02" style="stop-color:#FFFFFF"/>
					<stop  offset="0.4294" style="stop-color:#F5CFDC"/>
					<stop  offset="1" style="stop-color:#E43354"/>
				</radialGradient>
				<rect x="3.8" y="16.6" class="st9" width="8" height="9.7"/>
			</g>
			<g>
				<defs>
					<path id="SVGID_16_" d="M19.8,15.3c-0.4,0.1-0.8,0.4-1.1,0.6c-0.3,0.3-0.5,0.9-0.8,1.1c-0.8,0.4-0.8,0.5-1.2,1.2
						c-0.3,0.5-0.8,1.3-1.1,1.9c0,0.2,0,0.5,0.1,0.7c0.1,0.4,0.5,1,0.5,1.3l0-0.1c0.3,1.9,4.2,2.4,3.5,1.5c-1.8-2.4,1-3.5,1.4-3.1
						c2.2,2.8,3.1,1.1,3.3,0.9c0.5-0.6,0.8-1.2,0.9-1.8c0.7-3.9-1.5-3.4-2.7-3.9c-0.1,0-0.1,0-0.2,0c-0.5,0-0.7,0.1-1.2,0
						c-0.1,0-0.1,0-0.2-0.1c-0.1,0-0.1,0-0.2,0c-0.1,0-0.3,0-0.4,0C20.1,15.2,20,15.3,19.8,15.3"/>
				</defs>
				<clipPath id="SVGID_17_">
					<use xlink:href="#SVGID_16_"  style="overflow:visible;"/>
				</clipPath>
				
					<radialGradient id="SVGID_18_" cx="-232.697" cy="327.1199" r="0.5916" gradientTransform="matrix(24.9881 0 0 -24.9881 5843.7749 8189.1328)" gradientUnits="userSpaceOnUse">
					<stop  offset="0" style="stop-color:#E43354"/>
					<stop  offset="0.3067" style="stop-color:#E43354"/>
					<stop  offset="0.3995" style="stop-color:#E74D67"/>
					<stop  offset="0.5975" style="stop-color:#EE929F"/>
					<stop  offset="0.7607" style="stop-color:#F5CFDC"/>
					<stop  offset="1" style="stop-color:#F5CFDC"/>
				</radialGradient>
				<rect x="15.6" y="15.2" class="st10" width="10.3" height="9"/>
			</g>
			<g>
				<defs>
					<path id="SVGID_19_" d="M19.5,23.1C19.5,23.1,19.5,23.1,19.5,23.1C19.5,23,19.5,23,19.5,23.1C19.5,23,19.5,23,19.5,23.1
						 M18.7,15.8c-0.1,0.1-0.2,0.2-0.3,0.3c-0.2,0.3-0.2,0.4-0.5,0.6c-0.2,0.1-0.4,0.2-0.5,0.3c-0.1,0.2-0.3,0.4-0.4,0.5
						c-0.3,0.4-0.7,0.4-1.2,0.4c-0.1,0-0.2,0-0.3,0c-0.6,0.4-1.2,0.6-1.8,0.5c-0.4-0.1-0.8-0.7-1.1-0.7c-0.3,0.1,0.2,0.2-0.1,0.5
						c-0.3,0.3-0.7,0.1-0.9-0.2c-0.2-0.2-0.3-0.4-0.3-0.4c-0.1,0,0,0.2,0,0.3c0,0.2-0.2,0.3-0.2,0.5c0,0.2,0,0.3,0,0.4
						c0,0.1,0.1,0.3,0.1,0.5c0,0.3,0,0.2,0,0.6c0,0.7-0.3,0.9-0.5,1.6c-0.2,0.7,0.6,1.1-0.3,2.4c-0.3,0.4-1.6,1.1-1.5,1.6
						c0.4-0.1,0.6-0.5,0.8-0.7c0.6-0.6,2.4-1.3,3.4-1.4c1.1,0,0,1.1,0.3,1.4c0.3,0.2-0.3,0.8,0,0.7c0.3-0.2,0.8-1.7,1-2.1
						c0.1-0.2,1.8-4.1,1.8,1.7c0,0.6,0.3,0.8,0.2,1.4c-0.1,0.3-1.1,1.7,0.6,1.5c0.2-1.2-0.7-2.1-0.2-2.7c0.3-0.3,1.1-0.4,1.1-0.8
						c0-0.9,0.4-0.9,0.8-0.9c0.2,0,0.5,0,0.6-0.2c0.2-0.3,0.2-0.4,0.3-0.5c0,0,0,0,0-0.1c0-0.4,0.3-0.4,0.2-0.8
						c0.4,0.1,0.5-0.3,0.8-0.4c0.2-0.1,0.7,0,0.9,0c0.5,0.1,0.8,1,0.9,0.9c0.1-0.2-0.2-0.6-0.5-0.9c-0.2-0.2-0.5-0.6-0.7-0.9
						c-0.3-0.4-0.1-0.8-0.5-1c-0.1-0.1-0.2,0-0.3,0c-0.2,0-0.4,0.1-0.8-0.2c-2.1,1.5-0.3-0.8-0.4-1.3C18.7,17.6,18.1,17.4,18.7,15.8
						C18.7,15.8,18.7,15.8,18.7,15.8C18.7,15.8,18.7,15.8,18.7,15.8"/>
				</defs>
				<clipPath id="SVGID_20_">
					<use xlink:href="#SVGID_19_"  style="overflow:visible;"/>
				</clipPath>
				
					<radialGradient id="SVGID_21_" cx="-240.272" cy="327.7987" r="0.5912" gradientTransform="matrix(12.9777 0 0 -12.9777 3133.6809 4276.0391)" gradientUnits="userSpaceOnUse">
					<stop  offset="0" style="stop-color:#FFFFFF"/>
					<stop  offset="9.202450e-02" style="stop-color:#FFFFFF"/>
					<stop  offset="0.3742" style="stop-color:#F5CFDC"/>
					<stop  offset="0.3782" style="stop-color:#F5CDDA"/>
					<stop  offset="0.4985" style="stop-color:#EE96A3"/>
					<stop  offset="0.6102" style="stop-color:#EA6B7E"/>
					<stop  offset="0.7099" style="stop-color:#E74C66"/>
					<stop  offset="0.7942" style="stop-color:#E53A59"/>
					<stop  offset="0.8528" style="stop-color:#E43354"/>
					<stop  offset="1" style="stop-color:#E43354"/>
				</radialGradient>
				<rect x="8.7" y="15.8" class="st11" width="13.6" height="12.4"/>
			</g>
			<g>
				<path class="st12" d="M12,23.3c-0.2-0.2,0-0.7,0.3-1c0.3-0.3,0.7-0.7,0.6-0.8c-0.1-0.1-0.6,0.1-0.7,0c-0.1-0.1,0.8-0.4,0.9-0.5
					c0.1-0.1-0.7-0.3-0.9-0.3c-0.3,0-0.9,0.1-0.8-0.1c0.1-0.1,0.4-0.3,0.5-0.3c0.1-0.1-0.4-0.3-0.5-0.5c0-0.1,0.1-0.2,0.6-0.1
					c0.5,0.1,1,0.1,1.2,0.1c0.2,0.1,0.3,0.1,0.4,0.2c0.1,0.1,0.2-0.1,0.2-0.1c0.1,0,0.2,0.1,0.3,0c0-0.1-0.1-0.3-0.2-0.4
					c-0.1-0.1-0.4-0.4-0.4-0.5c0-0.1-0.1-0.3,0-0.4c0.1,0,0.2,0,0.3,0c0.1,0,0.2-0.2,0.4-0.1c0.2,0.1,0.3,0.2,0.3,0.2
					c0.1,0,0.2,0.1,0.3,0c0.1,0,0.2-0.2,0.4-0.1c0.2,0.1,0.5,0.3,0.7,0.3c0.3-0.1,0.4-0.2,0.5-0.3c0.1-0.2,0.3-0.7,0.4-0.7
					c0.1-0.1,0.3-0.3,0.3-0.2c0,0.1-0.3,0.6-0.3,0.9c0,0.3,0,0.3,0,0.4c0.1,0.1,0.2,0,0.3,0s0.2-0.2,0.3-0.1c0,0.1-0.5,0.4-0.7,0.6
					c-0.2,0.2-0.3,0.5-0.2,0.6c0.1,0.1,0.4,0.1,0.6,0.1c0.2,0,0.5,0,0.5,0.1c0,0.1-0.6,0.5-0.6,0.5c0,0.1,0.3,0.2,0.5,0.2
					c0.2,0,0.7,0.1,0.8,0.1c0.2,0,0.3,0,0.4,0.1c0,0.1,0.1,0.2,0,0.2c-0.1,0-0.5,0-0.6-0.1c-0.1-0.1-0.8-0.2-0.9-0.2
					c-0.2,0-0.6,0-0.7,0.1c-0.1,0.2,0.2,0.3,0.3,0.3c0.1,0.1,0.3,0.3,0.2,0.4c-0.2,0-0.3-0.1-0.4-0.1c-0.1,0-0.3-0.2-0.4-0.3
					c-0.1-0.1-0.3-0.4-0.5-0.3c-0.1,0-0.4,0.1-0.6,0.2c-0.2,0.1-0.3,0.3-0.4,0.4c-0.1,0.1-0.5,0.4-0.6,0.5c-0.2,0.1-1,0.8-1.2,0.9
					C12.6,23.3,12.2,23.5,12,23.3"/>
				<path class="st13" d="M14.6,18.2c-0.1-0.1,0-0.3,0-0.5c0-0.1,0.4-0.8,0.8-0.7c0.2,0.1,0.3,0.1,0.3,0.3c0.1,0.3,0.1,0.7-0.1,0.9
					C15.2,18.5,14.7,18.4,14.6,18.2"/>
				<path class="st13" d="M12.7,19c0.1,0,0.3-0.2,0.3-0.3c0-0.1,0.3-0.2,0.3-0.2c0-0.1-0.3-0.8-0.5-0.9c-0.2-0.1-0.3,0.1-0.4,0
					c-0.1,0-0.3-0.1-0.3,0.1c-0.1,0.2-0.4,0.5-0.2,0.8C12.1,18.8,12.4,19.1,12.7,19"/>
				<path class="st13" d="M17.1,19.6c-0.1,0.1-0.2,0.1-0.2,0c0.2-0.3,0.4-0.4,0.7-0.6c0.1-0.1,0-0.6,0.1-0.7
					c0.1-0.2,0.5-0.5,0.7-0.4c0.1,0.1,0.2,0.1,0.3,0.2c0.1,0.2,0.1,0.5,0.1,0.6c0,0.2-0.1,0.3-0.2,0.5c-0.1,0.2-0.4,0.1-0.5,0.2
					c-0.2,0-0.4-0.1-0.5,0C17.4,19.5,17.1,19.5,17.1,19.6"/>
				<path class="st13" d="M15,20.3c0.1-0.1,0-0.3,0-0.4c0-0.1,0-0.2-0.1-0.3C14.9,19.8,14.8,20,15,20.3C14.9,20.3,15,20.3,15,20.3"
					/>
				<path class="st13" d="M10.7,20.9c0.2-0.4,0.5-0.5,0.8-0.5c0,0-0.1-0.1-0.1-0.1c-0.2,0-0.4-0.2-0.5-0.3c-0.3-0.3-0.4-0.6-0.9-0.5
					c-0.5,0.1-0.5,0.9-0.4,1.3C9.8,21.2,10.4,21.3,10.7,20.9"/>
				<path class="st13" d="M20.1,20.3c0.5-0.2,0.9,0.1,0.6,0.5c-0.1,0.2-0.1,0.4-0.2,0.7c-0.1,0.2-0.4,0.3-0.6,0.2
					c-0.2-0.1-0.4-0.2-0.6-0.3c-0.2-0.2-0.2-0.3-0.4-0.3c-0.4-0.1-0.8,0-1.2-0.2c0.4-0.2,0.9,0,1.4,0C19.3,20.8,19.4,20.4,20.1,20.3
					"/>
				<path class="st13" d="M17.7,20.8c-0.1-0.1-0.3-0.1-0.3,0C17.4,20.8,17.6,20.8,17.7,20.8"/>
				<path class="st13" d="M11.7,22.2c-0.4-0.5-1.4,0.5-1.4,0.5C10.2,22.8,10,22.9,10,23c-0.1,0.2,0.4,0.5,0.6,0.6
					c0.2,0.1,0.4,0.4,0.6,0.2c0.3-0.2,0.3-0.4,0.4-0.7c0.1-0.3,0.2-0.6,0.4-0.8c0.2-0.2,0.5-0.3,0.6-0.6C12.2,21.7,12,22,11.7,22.2"
					/>
				<path class="st13" d="M18.3,19.9c-0.1-0.3-0.7,0-0.8,0c0.2,0,0.4,0,0.6,0.1C18.2,20,18.3,20,18.3,19.9"/>
				<path class="st13" d="M15.7,21.8c0.2,0.1,0.2,0.3,0.4,0.4c0.1,0.1,0.4,0.2,0.5,0.3c0.1,0.1,0.2,0.3,0,0.4
					c-0.2,0.1-0.3-0.3-0.4,0c-0.1,0.3-0.5,0.5-0.6,0.8c-0.1,0.2-0.2,0.5-0.1,0.8c0,0.1,0.1,0.1,0.2,0.1c0.2,0,0.2,0,0.4,0.1
					c0.2,0.1,0.3,0.2,0.6,0.1c0.2-0.1,0.4-0.2,0.4-0.5c0-0.2-0.1-0.5-0.1-0.7c0-0.2,0.1-0.4,0-0.6c-0.1-0.2-0.2-0.3-0.4-0.4
					c-0.1-0.1-0.2-0.3-0.3-0.4c-0.2-0.2-0.4-0.5-0.6-0.6c-0.1-0.1-0.2-0.2-0.4-0.2c-0.2,0-0.4,0.2-0.5,0.3c-0.2,0.2-0.4,0.3-0.5,0.5
					c-0.2,0.2-0.1,0.4-0.2,0.7C14.1,23,14,23.3,14,23.5c0.1-0.1,0.2-0.3,0.3-0.4c0.1-0.1,0.1-0.2,0.2-0.2c0.1-0.1,0.2-0.1,0.2-0.2
					c0.2-0.2,0.2-0.5,0.4-0.7C15.2,21.8,15.5,21.8,15.7,21.8"/>
				<path class="st13" d="M19.8,23.9c0-0.1-0.1-0.3,0-0.4c0-0.2,0-0.3-0.1-0.5c-0.1-0.2-0.4-0.6-0.6-0.5c-0.1,0-0.2,0.1-0.3,0.1
					c-0.1-0.1-0.2-0.2-0.3-0.2c-0.1,0-0.3-0.1-0.4-0.1c-0.1,0-0.2-0.1-0.3-0.1c0.1,0.2,0.4,0.3,0.6,0.5c0.4,0.3,0.2,0.6,0.2,1
					c0,0.1,0,0.3,0,0.4c0.1,0.1,0.4,0.1,0.4,0.2c0,0,0.4,0.2,0.6,0.1C19.6,24.3,19.8,24,19.8,23.9"/>
				<path class="st13" d="M15.8,27.4c0.1,0,0.3,0.1,0.5,0.2c0.2,0.1,0.4,0.1,0.6,0.2c0.2,0,0.5,0.2,0.6,0.4c0.1,0.1,0.1,0.5,0,0.7
					c-0.1,0.2-0.3,0.5-0.2,0.9c0.1,0.4,0.3,0.6,0,0.6c-0.3,0-0.6-0.1-0.7-0.2c-0.2-0.1-0.4-0.1-0.6-0.3c-0.2-0.2-0.3-0.2-0.7-0.4
					c-0.3-0.2-0.5-0.6-0.4-0.8c0.2-0.2,0.7-0.6,0.7-0.7C15.6,27.7,15.7,27.4,15.8,27.4"/>
				<path class="st13" d="M22.3,24.9c0-0.1,0.2-0.3,0.3-0.3c0-0.1,0-0.5,0-0.6c0-0.2-0.1-0.3,0-0.4c0.1-0.1,0.5-0.2,0.7-0.1
					c0.2,0.1,0.4,0.2,0.6,0.2c0.2,0.1,0.7,0.3,0.8,0.5c0.1,0.2,0.2,0.4,0.1,0.6c-0.1,0.2-0.1,0.3-0.2,0.4c-0.1,0.1-0.3,0.3-0.5,0.4
					c-0.1,0.2-0.2,0.5-0.4,0.6c-0.2,0.1-0.5,0.2-0.6,0.1c-0.1-0.1-0.1-0.4-0.1-0.5c0-0.1,0.3-0.3,0.2-0.5c-0.1-0.2-0.2-0.2-0.4-0.3
					C22.4,25,22.3,25,22.3,24.9"/>
				<path class="st13" d="M7,26.3c-0.1-0.1-0.2-0.2-0.1-0.3C6.9,26,7,25.7,7,25.6c0-0.2,0-0.5,0-0.7c0-0.1,0.1-0.3,0.1-0.4
					c0-0.1,0-0.3,0.2-0.4c0.2-0.1,0.4,0,0.6,0c0.2,0,0.5,0.1,0.6,0.3c0.1,0.2,0.2,0.4,0.3,0.5c0.1,0.1,0.4,0.2,0.5,0.3
					c0,0-0.1,0.1-0.2,0.3c-0.1,0.2-0.1,0.7-0.1,0.8c0,0.1,0,0.5-0.1,0.6c-0.1,0.1-0.3,0-0.5-0.1c-0.2-0.1-0.5-0.2-0.6-0.3
					c-0.1-0.1-0.1-0.2-0.2-0.2C7.4,26.3,7.1,26.4,7,26.3"/>
				<path class="st13" d="M14.1,24.4c0.1,0.1,0.1,0.3,0.1,0.4c0,0.2,0,0.4-0.1,0.5c-0.1,0.1-0.3,0.2-0.4,0.3c-0.1,0-0.3,0.1-0.4,0
					c-0.1,0-0.3-0.2-0.3-0.3c-0.1-0.1-0.1-0.6,0.1-0.9c0.1-0.1,0.3-0.1,0.5-0.3c0.1-0.1,0.2-0.2,0.4-0.3c0,0.1-0.1,0.3,0,0.4
					C13.9,24.3,14,24.3,14.1,24.4"/>
				<path class="st13" d="M17.1,21.4c-0.2,0-0.2-0.1-0.4-0.1c0.1,0.2,0.4,0.1,0.5,0.2c0.1,0,0.1,0.1,0.2,0.1
					c0.2,0.1,0.5,0.2,0.6,0.3c0,0.1,0.4,0.2,0.6,0.1c0.1,0,0.2-0.1,0.2-0.2c-0.1-0.3-0.5-0.2-0.8-0.3c-0.1,0-0.1-0.1-0.2-0.1
					c-0.1,0-0.2,0-0.3,0C17.4,21.4,17.2,21.4,17.1,21.4"/>
				<path class="st13" d="M15.1,18.8c0,0,0,0,0,0.2c0,0.1-0.1,0.4,0,0.6c0,0,0.1-0.1,0-0.3c0-0.2,0-0.2,0-0.3
					C15.2,19,15.1,18.8,15.1,18.8"/>
				<path class="st13" d="M14.4,21.1c0.1,0.1,0,0.2-0.1,0.3c-0.1,0.1-0.2,0.1-0.4,0.4c-0.2,0.2-0.4,0.5-0.5,0.6
					c-0.1,0.1-0.2,0.3-0.2,0.2c-0.1,0,0.1-0.3,0.1-0.4c0-0.1,0.3-0.4,0.3-0.4c0.1,0,0.5-0.4,0.5-0.4c0,0-0.1,0-0.2,0
					c-0.1,0-0.4,0.1-0.5,0.1c-0.1,0-0.2,0-0.1-0.1c0.1-0.1,0.2-0.1,0.2-0.1c0.1,0,0.2,0,0.3-0.1c0,0,0-0.2,0-0.2c0,0-0.1,0-0.1,0
					c-0.1,0-0.7-0.1-0.8-0.1c-0.1,0-0.7-0.2-0.8-0.2c-0.1,0-0.1-0.1,0.1-0.1c0.2,0,0.5,0.1,0.6,0.1c0.1,0,0.2,0,0.4,0
					c0.1,0,0.4,0.1,0.5,0c0.1,0,0.2-0.1,0.3-0.2c0-0.1,0-0.1,0-0.2c-0.1-0.1-0.3-0.2-0.4-0.4c-0.1-0.1-0.1-0.3-0.2-0.3
					c-0.1,0-0.2-0.1-0.2-0.1c-0.1-0.1-0.1-0.3,0-0.2c0.1,0,0.3,0.2,0.4,0.2c0,0.1,0.1,0.2,0.2,0.3c0.1,0.1,0.2,0.2,0.3,0.3
					c0.1,0,0.2,0.2,0.3,0.3c0.2,0,0.3,0,0.5,0c0.2,0,0.4,0,0.5,0.1c0.1,0,0.2,0.1,0.3,0.1c0.1-0.1,0.2-0.4,0.3-0.5
					c0.1-0.1,0.4-0.5,0.4-0.6c0.1-0.1,0.4-0.4,0.4-0.4c0,0,0.1,0.1,0,0.2c-0.1,0.1-0.5,0.5-0.6,0.6c-0.1,0.1-0.3,0.4-0.3,0.5
					c0,0.1-0.1,0.2-0.1,0.2c0,0,0.2,0.1,0.3,0.1c0,0,0.2,0.3,0.1,0.4c-0.1,0.1-0.2,0-0.3-0.1c-0.1-0.1-0.1-0.2-0.2-0.2
					c-0.1-0.1-0.2-0.1-0.4-0.1c-0.2-0.1-0.5-0.1-0.7,0c-0.1,0-0.3,0.1-0.3,0.2C14.2,20.7,14.2,20.9,14.4,21.1"/>
				<path class="st13" d="M14.7,20c-0.1,0-0.3-0.2-0.3-0.3c-0.1-0.1-0.2-0.4-0.2-0.4c0-0.1-0.1-0.2-0.1-0.2c0,0-0.3-0.3-0.2-0.3
					c0.1,0,0.3,0.2,0.3,0.2c0,0.1,0.2,0.3,0.3,0.4c0.1,0.1,0.2,0.3,0.2,0.4C14.7,19.9,14.8,20,14.7,20"/>
				<path class="st3" d="M60.8,6.4c-0.6,0.5-1.6,0.4-2.3,0.3l0.1-1.5c-0.4-0.4-0.6-0.7-1.2-0.8C56.6,5,57.3,6.2,57,7
					c-0.5,0.2-1.1,0.3-1.7,0.3c-0.3-0.1-0.5-0.5-0.8-0.2c-0.2,1.6,0,3.4,1.1,4.6c0.5,0.1,1.1-0.4,1.6-0.3c0.1,1.5-0.1,2.9,0.1,4.3
					l0.2,0.2c1-1.3,0.7-3.1,1-4.7c0.8,0,1.6-0.4,2.4-0.1l0.7-0.7c0.3-0.5-0.3-0.8-0.4-1.2c0.4-0.6,1.1-0.9,1.1-1.7
					C61.9,7,61.4,6.5,60.8,6.4 M56,10.4l-0.1-0.2c0.2-0.8-0.6-2.1,0.9-2.4h0.2l0.1,2.4C56.9,10.4,56.3,10.4,56,10.4 M58.4,9.8
					l0.1-2.3c0.5-0.2,1.4,0,2,0C60,8.3,60,9.7,58.4,9.8"/>
				<path class="st3" d="M76,10.8c-0.6,0.2-1.3,0.3-2,0.2V11c0.2-1,1.1-0.8,1.5-1.3c0.1-0.2,0.3-0.3,0-0.5c-0.7-0.1-0.7-0.7-1.4-0.8
					C73.9,8.5,74,8.9,73.7,9c-0.2,0.1-1.2,0.1-1.4,0c-0.1-1.1,1.5-0.2,1.9-0.9c0.2-0.3-0.1-0.5-0.3-0.6l-3,0.4l-0.1-0.1
					c0.3-0.4,0.9-0.8,1.4-0.7l-0.2,0.3c0.5,0,0.8-0.2,1.2-0.5c1-0.3,2.4,0.6,2.6-0.7c-0.2-0.7-1-0.3-1.4-0.4
					c0.1-0.2,0.3-0.4,0.3-0.6c-0.2-0.4-0.4-0.5-0.8-0.6c-0.6,0.2-0.8,1-1.2,1.4l-1.7,0.1L71,5.3c-0.3-0.5-0.6-0.5-1-0.6
					c-0.6,0.4-0.1,1.2-0.1,1.6c-0.4,0.2-1,0.1-1.3,0.5c0,0.3,0.2,0.6,0.4,0.7c0.4,0.3,0.9,0,1.2-0.1c0.7,0.5-0.5,0.4-0.4,0.8
					c0.2,0.6,0.9,0.2,1.4,0.2c0.1,0.2,0.1,0.5,0,0.7c-1.4,0.5-1.3-0.8-2.2-0.5c-0.4,0.2-0.1,0.6-0.1,0.8l-0.6,0.1
					c-0.2,0-0.2,0.3-0.2,0.4c0.2,0.4,0.6,0.4,1.1,0.4c0.1,0.1,0.2,0.9,0.1,1c-0.7,0.2-1.6,0.2-2.3,0.4c-0.1,0.3,0.1,0.3,0.2,0.6
					c0.1,0.2,0.4,0.4,0.7,0.3c1.1-0.3,2.2-0.7,3.4-0.7l0.1,0.1c0,0.1,0.1,0.5,0,0.6L69.1,13c-0.1,0.1,0,0.2,0,0.3
					c0.3,1,1.4,0.1,2,0.5c0.1,0.9,0.1,1.8,0.4,2.6c1-0.5,0.6-1.9,0.8-2.8c0.7-0.1,1.6,0.1,2.3,0.2c0.2-0.2,0.6-0.2,0.6-0.6
					c-0.4-1.1-1.9-0.5-2.7-0.6l-0.1-0.1c0-0.2-0.1-0.5,0.1-0.6c1.2-0.1,2.7,0,3.7,0.2l0.4-0.3c0.2-0.2,0.3-0.2,0.2-0.5
					C76.6,11.1,76.3,10.9,76,10.8 M71.1,11.2l-1,0.1C70.2,11,70,9.9,70.6,10l0.5,0V11.2z M72.4,11.1c0-0.2-0.1-1.5,1.1-1.2
					C73.5,10.1,72.7,11,72.4,11.1"/>
				<path class="st3" d="M104.8,6.2c-0.6,0.6-1.6,0.5-2.4,0.4c0.1-0.5-0.2-0.9-0.5-1.3c-0.4-0.2-0.9-0.5-1.2,0l0.3,1.4
					c-0.3,0.2-0.6,0.2-0.9,0.3c-0.6,0.1-1.6,0.5-1.6-0.5c-0.3-0.1-0.4-0.5-0.7-0.2c-0.1,0.9-0.8,1.7-0.6,2.7
					c0.2,0.3,0.3,0.8,0.7,0.7c0.6-0.3,0.4-1,0.7-1.4l1.2-0.5c0.5,0,1.2-0.6,1.6,0.1c0.3,0.1,0.4,0.1,0.7-0.1c0.2-0.5,1-0.4,1.5-0.3
					c-0.1,0.5-0.8,0.8-1.1,1.2c1,0.2,1.7-0.7,2.5-0.4c0.4,0.1,0.9,0.2,1.2-0.2c0.1-0.3,0.1-0.6-0.1-0.8C105.7,7,105.5,6.1,104.8,6.2
					"/>
				<path class="st3" d="M84.8,6.7c0.3,0.1,0.8,0.2,1.1,0c0.1-0.3,0.4-0.5,0.2-0.9c-0.4-0.3-0.7-0.9-1.3-0.9c-0.5,0.4-0.1,1-0.3,1.5
					L84.8,6.7z"/>
				<path class="st3" d="M88.1,7.4h0.2c0.4,0.1,0.5,0.4,0.7,0.7c0.4,0.1,0.5-0.2,0.7-0.4c0.1-0.3,0.3-0.8,0-1.2
					C89.2,6,88.5,5.7,87.9,6C87.6,6.6,88.5,6.8,88.1,7.4"/>
				<path class="st3" d="M87.2,11.1c0.1-0.3,0.4-0.2,0.3-0.6c-0.2-0.6-0.8-0.4-1.2-0.6c-0.2-0.8,0.7-1.3,0.6-2
					c-0.2-0.5-0.8-0.7-1.4-0.8l-1.6,0.7c-0.1-0.3-0.4-0.5-0.7-0.6c-0.2,1,0,2.3,0,3.3L83,10.6c-0.6,0.1-1.2,0.3-1.9,0.6
					c-0.1,0.3,0.1,0.3,0.2,0.6c0.5,0.2,1.1-0.1,1.5-0.1c0.1,0.4-0.1,0.8-0.1,1.2c-0.1,0.4-0.2,0.9-0.6,1L82.1,15
					c0,0.2,0,0.4,0.2,0.4c1.1-0.9,0.9-2.6,1.2-3.9c0.4,0.3,0.3,1.1,0.7,1.5c0.3,0.1,0.2-0.2,0.3-0.4c0.2-0.3,0-0.8-0.2-1.1
					c0.1-0.2,0.8-0.1,0.9-0.2c0.2,0.5,0.1,1.4,0.1,1.9c-0.2,0.7-1.2,0.1-1.6,0.1c0,0.2,0.2,0.3,0.2,0.5c0.9,0.4,0.4,1.8,1.6,1.7
					c0.3-0.2,0.6-0.5,0.8-0.8c-0.1-1.1-0.1-2.4,0-3.4C86.5,11.2,87,11.2,87.2,11.1 M85.3,10.2l-0.5,0.1c0-0.4,0.1-1.1-0.4-1.2
					C84.2,9,84.1,8.8,84,9.2l0.2,1.2c-0.1,0.1-0.4,0.1-0.6,0.1c-0.1-0.6,0.1-1.4,0.2-2l1.5-0.6L85.4,8C85.3,8.8,85.4,9.4,85.3,10.2"
					/>
				<path class="st3" d="M86.8,9.4c1.4-0.2,3-0.4,4.6-0.3c0.2-0.1,0.3-0.3,0.3-0.5c-0.2-0.3-0.4-0.8-0.9-0.7
					c-1.3,0.5-2.8,0.6-4.2,0.9C86.6,9.1,86.7,9.2,86.8,9.4"/>
				<path class="st3" d="M101.1,9.2l0.1-0.5C101,8.1,100.5,8.1,100,8c-0.9,1.8-1.8,2.7-2.9,4.2C98.7,11.7,99.9,10.5,101.1,9.2"/>
				<path class="st3" d="M103.5,9.1c-0.5,0.1-1-0.3-1.3-0.1c0.2,0.3,0.9,0.3,0.6,0.8l0.4,0c0.6,0.2,1,0.8,1.3,1.3
					c0.4,0.2,0.8-0.1,1.1-0.4c0.2-0.3,0.1-0.4,0-0.7C105.1,9.3,104.3,8.5,103.5,9.1"/>
				<path class="st3" d="M91.4,13.9c-0.4,0.2-1.1,0.1-1.3-0.4c-0.4-1.1-0.1-2.4,0.3-3.4L90.4,10c-0.5-1-1.3,0-2-0.1
					c-0.3-0.1-0.6-0.3-0.7,0.1c0.1,0.9,0,1.8-0.3,2.5c-0.2,0.4-0.4,1-0.9,1.1V14c0,0.3,0.1,0.5,0.4,0.5c0.7-0.4,1-1.2,1.3-1.9
					c0.3-0.6,0.3-1.3,0.5-2c0.2,0,0.5-0.2,0.6,0c-0.3,1.6-0.9,3.8,0.6,4.9c0.6,0.4,2.3,0.3,3.1-0.5c0.4-1.2-0.4-2.1-0.6-3.2
					C92.2,12.5,92.3,13.6,91.4,13.9"/>
				<path class="st3" d="M104.1,13.5c-0.6,0.2-1.5,0.4-2.2,0.2c0-0.5,0-1.1,0.1-1.6l1.4-0.2c0.3-0.2,0.6-0.4,0.4-0.8
					c-0.2-0.3-0.6-0.5-1-0.6c-0.9,0.7-2.2,0.6-3.3,0.8c-0.1,0.7,0.6,0.8,1.2,1.1c-0.2,0.4,0.1,1.3-0.2,1.7c-0.6,0.1-1.4,0.1-2,0.4
					c-0.2,0.1-0.2,0.3-0.1,0.5c0.2,0.2,0.5,0.5,0.9,0.5c1.8-0.3,3.8-0.3,5.5-0.1c0.4-0.3,0.6-0.7,0.5-1.2
					C105,13.9,104.6,13.6,104.1,13.5"/>
			</g>
		</g>
		<g>
			<rect x="177" y="-0.2" class="st14" width="124.4" height="32.4"/>
			<g>
				<g>
					<g>
						<path class="st15" d="M283,26h-3.4l-0.5-2.7h-4.8L273,26h-3.4l6.9-13.5h3.6L283,26z M278.7,20.9l-0.9-4.9l-2.4,4.9H278.7z"/>
						<path class="st15" d="M292.5,26h-2.8l0.8-5.4c0.1-0.5,0.1-1,0-1.4c-0.1-0.4-0.4-0.6-0.9-0.6c-0.2,0-0.4,0.1-0.6,0.2
							c-0.2,0.1-0.4,0.2-0.5,0.4c-0.2,0.2-0.3,0.3-0.4,0.5c-0.1,0.2-0.2,0.3-0.4,0.5l-0.9,5.8H284l1.5-9.9h2.8l-0.2,1.4
							c0.5-0.6,1-1,1.5-1.2c0.5-0.2,1-0.4,1.6-0.4c1.9,0,2.7,1.4,2.2,4.3L292.5,26z"/>
						<path class="st15" d="M302.8,26H300l0.8-5.4c0.1-0.5,0.1-1,0-1.4c-0.1-0.4-0.4-0.6-0.9-0.6c-0.2,0-0.4,0.1-0.6,0.2
							c-0.2,0.1-0.4,0.2-0.5,0.4c-0.2,0.2-0.3,0.3-0.4,0.5c-0.1,0.2-0.2,0.3-0.4,0.5l-0.9,5.8h-2.8l1.5-9.9h2.8l-0.2,1.4
							c0.5-0.6,1-1,1.5-1.2c0.5-0.2,1-0.4,1.6-0.4c1.9,0,2.7,1.4,2.2,4.3L302.8,26z"/>
						<path class="st15" d="M307.5,26h-2.9l1.5-9.9h2.9L307.5,26z M309.1,13.8c-0.1,0.4-0.2,0.8-0.5,1c-0.3,0.3-0.6,0.4-0.9,0.4
							c-0.2,0-0.4-0.1-0.6-0.2c-0.2-0.1-0.3-0.3-0.4-0.5c-0.1-0.2-0.1-0.5,0-0.7c0.1-0.4,0.2-0.8,0.5-1c0.3-0.3,0.6-0.4,0.9-0.4
							c0.3,0,0.6,0.1,0.8,0.4C309.1,13,309.2,13.4,309.1,13.8z"/>
						<path class="st15" d="M319.4,16.1l-5.1,9.9h-2.1l-2.1-9.9h3.1l0.9,5.2l2.6-5.2H319.4z"/>
						<path class="st15" d="M327.5,21.9h-5.7c0,0.6,0.2,1.1,0.6,1.5c0.4,0.4,0.8,0.6,1.4,0.6c1,0,2.1-0.3,3.3-1l-0.3,2.2
							c-0.5,0.3-1,0.5-1.6,0.7c-0.6,0.2-1.4,0.3-2.3,0.3c-1,0-1.8-0.2-2.4-0.7c-0.6-0.5-1.1-1.1-1.3-1.9c-0.2-0.8-0.3-1.7-0.1-2.7
							c0.1-1,0.4-1.8,0.9-2.6c0.5-0.8,1.1-1.4,1.8-1.8c0.8-0.4,1.6-0.7,2.6-0.7c0.7,0,1.3,0.2,1.8,0.5c0.6,0.3,1,0.9,1.2,1.7
							c0.3,0.8,0.3,1.8,0.1,3.1L327.5,21.9z M325.1,20.1c0.1-0.6,0-1.1-0.2-1.5c-0.2-0.4-0.5-0.6-1-0.6c-0.5,0-0.9,0.2-1.2,0.6
							c-0.3,0.4-0.6,0.9-0.7,1.5H325.1z"/>
						<path class="st15" d="M336.8,16.6l-1.6,3.5c-0.4-0.5-0.8-0.8-1.2-0.8c-0.4,0-0.8,0.2-1.1,0.5c-0.3,0.3-0.7,1-1.1,1.9l-0.6,4.3
							h-2.8l1.5-9.9h2.8l-0.4,2.4c0.3-0.6,0.7-1.2,1.2-1.7c0.5-0.6,1.1-0.8,1.7-0.8c0.3,0,0.6,0.1,0.8,0.2
							C336.2,16.2,336.5,16.4,336.8,16.6z"/>
						<path class="st15" d="M342.5,23.1c-0.1,0.9-0.5,1.7-1.1,2.2c-0.6,0.6-1.5,0.9-2.5,0.9c-0.6,0-1.1-0.1-1.6-0.2
							c-0.4-0.1-0.9-0.3-1.4-0.6l0.4-2.5c0.4,0.3,0.8,0.6,1.1,0.8c0.3,0.2,0.7,0.3,1.1,0.3c0.7,0,1.1-0.2,1.2-0.7
							c0-0.2,0-0.3-0.1-0.4c-0.1-0.1-0.2-0.3-0.5-0.4c-0.2-0.2-0.5-0.4-0.9-0.6c-0.5-0.3-0.9-0.7-1.2-1.2c-0.3-0.5-0.4-1.1-0.3-1.8
							c0.1-0.5,0.3-1,0.6-1.4c0.3-0.5,0.7-0.8,1.3-1.1c0.5-0.3,1.2-0.4,1.9-0.4c0.2,0,0.4,0,0.6,0c0.3,0,0.6,0.1,1,0.2
							c0.4,0.1,0.7,0.3,1.1,0.5l-0.4,2.4c-0.2-0.1-0.3-0.2-0.4-0.3c-0.1-0.1-0.2-0.2-0.4-0.3c-0.2-0.1-0.4-0.2-0.6-0.3
							c-0.2-0.1-0.5-0.1-0.8-0.1c-0.3,0-0.6,0.1-0.7,0.2c-0.1,0.2-0.2,0.3-0.2,0.5c0,0.2,0,0.3,0.1,0.5c0.1,0.1,0.4,0.3,0.8,0.5
							c0.6,0.3,1,0.6,1.4,0.9c0.3,0.3,0.5,0.7,0.7,1C342.6,22.1,342.6,22.6,342.5,23.1z"/>
						<path class="st15" d="M352.1,25.5c-0.4,0.2-0.9,0.4-1.2,0.5c-0.4,0.1-0.8,0.2-1.3,0.2c-0.5,0-0.8-0.1-0.9-0.3
							c-0.2-0.2-0.2-0.5-0.3-0.7c-0.4,0.3-0.7,0.6-1.1,0.8c-0.4,0.2-0.9,0.3-1.5,0.3c-0.6,0-1-0.1-1.4-0.4c-0.3-0.2-0.5-0.6-0.6-0.9
							c-0.1-0.4-0.1-0.8,0-1.2c0.1-0.6,0.3-1.1,0.6-1.5c0.3-0.4,0.7-0.7,1.2-1c0.5-0.3,1.1-0.5,1.8-0.8c0.4-0.2,0.7-0.3,0.9-0.4
							c0.2-0.1,0.4-0.1,0.5-0.2c0.1,0,0.2-0.1,0.3-0.2c0.1-0.5,0-0.9-0.1-1.1c-0.1-0.3-0.4-0.4-1-0.4c-0.6,0-1.2,0.2-1.8,0.5
							c-0.6,0.3-1.1,0.8-1.7,1.3l0.4-2.7c0.4-0.3,0.8-0.6,1.3-0.8c0.4-0.2,0.9-0.3,1.4-0.4c0.5-0.1,0.9-0.1,1.4-0.1
							c1.2,0,2,0.3,2.5,0.8c0.5,0.6,0.7,1.3,0.5,2.3l-0.6,3.8c-0.1,0.4-0.1,0.6,0,0.8c0,0.2,0.1,0.3,0.3,0.3c0.2,0,0.4-0.1,0.8-0.3
							L352.1,25.5z M348.4,23.6l0.4-2.4c-0.7,0.3-1.3,0.6-1.6,0.9c-0.4,0.3-0.6,0.6-0.6,1.1c0,0.3,0,0.6,0.1,0.8
							c0.1,0.2,0.3,0.3,0.5,0.3c0.2,0,0.4-0.1,0.6-0.2C347.9,24,348.2,23.8,348.4,23.6z"/>
						<path class="st15" d="M361.6,16.6l-1.6,3.5c-0.4-0.5-0.8-0.8-1.2-0.8c-0.4,0-0.8,0.2-1.1,0.5c-0.3,0.3-0.7,1-1.1,1.9l-0.6,4.3
							h-2.8l1.5-9.9h2.8l-0.4,2.4c0.3-0.6,0.7-1.2,1.2-1.7c0.5-0.6,1.1-0.8,1.7-0.8c0.3,0,0.6,0.1,0.8,0.2
							C361,16.2,361.3,16.4,361.6,16.6z"/>
						<path class="st15" d="M371.2,16.1l-7.6,14.5h-2.9l3.1-5.8l-1.9-8.6h3.1l0.9,4.9l2.6-4.9H371.2z"/>
					</g>
					<g>
						<g>
							<path class="st15" d="M261.7,17.8c-0.2,0.1-0.4,0.2-0.7,0.3c-0.3,0.1-0.5,0.1-0.8,0.1c-1.1,0-1.5-0.6-1.3-1.9l0.3-2.1h-0.7
								l0-0.3l2.4-2.5h0.2l-0.2,1.5h1.4l-0.2,1.3h-1.4l-0.2,1.7c0,0.2,0,0.3,0,0.5c0,0.1,0,0.2,0.1,0.3s0.2,0.1,0.4,0.1
								c0.2,0,0.6-0.1,1-0.4L261.7,17.8z"/>
							<path class="st15" d="M266.7,18.1h-1.5l0.4-2.7c0,0,0,0,0-0.1c0,0,0-0.1,0-0.1c0-0.2,0-0.5,0-0.7c-0.1-0.2-0.2-0.3-0.4-0.3
								c-0.2,0-0.4,0.1-0.5,0.2c-0.2,0.2-0.3,0.3-0.5,0.6l-0.5,3h-1.5l1.1-7h1.5l-0.4,2.6c0.3-0.3,0.6-0.5,0.8-0.7
								c0.3-0.1,0.5-0.2,0.8-0.2c1,0,1.4,0.7,1.2,2.1L266.7,18.1z"/>
						</g>
						<g>
							<path class="st15" d="M256.4,14.6L256.4,14.6c-0.3-0.8-0.8-1.5-1.4-2c-0.7-0.5-1.6-0.8-2.8-0.8c-1.1,0-2.1,0.3-2.9,0.8
								c-0.8,0.5-1.4,1.1-1.9,1.8c-0.5,0.7-0.8,1.5-1.1,2.4c-0.2,0.8-0.4,1.7-0.6,2.5c-0.1,0.8-0.2,1.6-0.2,2.5
								c0,0.9,0.1,1.7,0.4,2.5c0.3,0.8,0.8,1.5,1.5,2c0.7,0.5,1.6,0.8,2.8,0.8c1.1,0,2.1-0.3,2.9-0.7c0.8-0.5,1.4-1.1,1.9-1.8
								c0.5-0.7,0.8-1.5,1.1-2.4c0.2-0.8,0.4-1.7,0.6-2.5c0.1-0.8,0.2-1.6,0.2-2.5C256.8,16.1,256.6,15.3,256.4,14.6z M251.7,23.8
								c-0.4,0.3-0.8,0.4-1.4,0.4c-0.5,0-0.9-0.1-1.1-0.3c-0.3-0.3-0.5-0.6-0.6-1c-0.1-0.5-0.2-1-0.2-1.6c0-0.6,0.1-1.2,0.2-1.8
								c0.1-0.5,0.2-1.1,0.4-1.7c0.2-0.6,0.4-1.2,0.7-1.7c0.3-0.5,0.6-0.8,1-1.2c0.4-0.3,0.8-0.4,1.4-0.4c0.5,0,0.9,0.1,1.1,0.3
								c0.3,0.3,0.5,0.6,0.6,1c0.1,0.5,0.2,1,0.2,1.6l0,0c0,0.6-0.1,1.2-0.2,1.7c-0.1,0.5-0.2,1.1-0.4,1.8c-0.2,0.6-0.4,1.1-0.7,1.7
								C252.4,23.1,252.1,23.5,251.7,23.8z"/>
							<path class="st15" d="M243,18c-0.3-0.4-0.8-0.8-1.3-1c-0.1-0.1-0.2-0.1-0.3-0.1c-0.6-0.2-1.3-0.4-2-0.4
								c-0.8,0-1.6,0.2-2.3,0.6c0.1-0.3,0.3-0.6,0.4-0.9h0c0.3-0.5,0.6-0.9,1.1-1.2c0.4-0.3,0.9-0.4,1.4-0.4c0.5,0,0.9,0.1,1.1,0.4
								c0.3,0.3,0.4,0.7,0.4,1.1v0h2.9c0-1.4-0.3-2.5-1.1-3.2c-0.8-0.7-1.9-1.1-3.3-1.1c-0.8,0-1.6,0.2-2.3,0.4
								c-0.6,0.3-1.2,0.7-1.7,1.1c-0.5,0.4-0.9,1-1.2,1.5c-0.3,0.5-0.6,1.1-0.8,1.6c-0.2,0.5-0.4,1-0.5,1.5
								c-0.1,0.4-0.2,0.8-0.2,1.1c-0.2,1.3-0.3,2.5-0.2,3.4c0.1,1,0.3,1.8,0.6,2.5c0.4,0.7,0.9,1.2,1.7,1.6c0.6,0.3,1.4,0.4,2.4,0.4
								c0.8,0,1.5-0.1,2.1-0.4c0.7-0.3,1.3-0.6,1.8-1.1c0.5-0.5,1-1,1.3-1.6c0.3-0.6,0.6-1.3,0.7-2c0.1-0.7,0.1-1.4-0.1-2.1
								C243.7,19.1,243.4,18.5,243,18z M241,21.6c-0.1,0.4-0.2,0.7-0.3,1c-0.2,0.3-0.4,0.6-0.6,0.8c-0.3,0.2-0.5,0.4-0.9,0.6
								c-0.3,0.1-0.6,0.2-1,0.2c-0.5,0-0.8-0.1-1.1-0.2c-0.3-0.1-0.4-0.3-0.6-0.4c-0.1-0.2-0.2-0.4-0.3-0.7c-0.1-0.3,0-0.7,0-1
								c0.1-0.4,0.2-0.8,0.3-1.1c0.2-0.3,0.4-0.6,0.6-0.8c0.2-0.2,0.5-0.4,0.9-0.6c0.3-0.1,0.7-0.2,1.1-0.2c0.4,0,0.7,0.1,0.9,0.2
								c0.2,0.1,0.4,0.3,0.6,0.5c0.2,0.2,0.3,0.5,0.3,0.8C241.1,20.9,241.1,21.2,241,21.6z"/>
						</g>
					</g>
				</g>
				<g>
					<g>
						<path class="st15" d="M187.5,22.3c-2.8-2.8-2.2-7.5,0.6-10.1c2.6-2.4,6.5-3.2,10-3.3c0.1,0,0.4-3,0.5-3.3
							c-1.5,0.1-3,0.3-4.5,0.5c-1.4,0.3-2.8,0.6-4.1,1.2c-2.2,1-4.4,2.6-5.7,4.8c-2.1,3.4-2.2,8.1,0.1,11.4c1.3,1.9,3.3,3.2,5.6,3.7
							c1.9,0.5,3.9,0.4,5.8-0.2c2.3-0.8,4.2-2.3,5.8-4C197.9,26.7,191.6,26.4,187.5,22.3z"/>
						<path class="st15" d="M224.8,18.7c0,3.1-4.4,5.6-9.7,5.7c0,0,0,0,0,0c0,0-0.1,0-0.1,0c0,0,0.1,0,0.1,0c-2.4,0-4.7-0.8-6.5-2.3
							c-1.5-1.2-2.4-2.9-3.5-4.4c-1.2-1.5-2.7-2.8-4.4-3.7c-0.6-0.3-1.3-0.5-1.9-0.7c-1.3-0.3-2.5-0.2-3.8-0.2c-1.2,0-2.4,0-3.6,0
							l-0.5,3.3c2-0.1,4-0.2,6-0.1c1.8,0.1,3.6,0.7,4.9,2c0.7,0.7,1.3,1.5,1.9,2.3c0.2,0.2,0.3,0.4,0.5,0.7c1.3,1.8,2.7,3.5,4.7,4.7
							c1.8,1,3.8,1.5,5.8,1.5c1.2,0,2.6-0.1,3.8-0.5c1.7-0.5,3-1.3,4.4-2.7c1.4-1.3,2-3.4,2.1-5.3C224.8,18.9,224.8,18.8,224.8,18.7
							z"/>
						<linearGradient id="SVGID_22_" gradientUnits="userSpaceOnUse" x1="189.2502" y1="20.5222" x2="223.0017" y2="26.0007">
							<stop  offset="0" style="stop-color:#AF001B"/>
							<stop  offset="0.2528" style="stop-color:#F83554"/>
							<stop  offset="0.4129" style="stop-color:#FBACB7"/>
							<stop  offset="0.6961" style="stop-color:#F83554"/>
							<stop  offset="1" style="stop-color:#AF001B"/>
						</linearGradient>
						<path class="st16" d="M203.5,20.7c-0.5-0.7-1-1.4-1.6-2c-0.1-0.1-0.3-0.3-0.4-0.4c0,0,0,0,0,0c0,0-1.6,1.9-1.8,2.1
							c-0.6,0.7-1.3,1.3-2,1.9c-1.6,1.2-3.4,1.9-5.4,1.9c-1.6,0-2.9-0.5-4.2-1.4c-0.2-0.2-0.4-0.3-0.6-0.5
							c4.1,4.1,10.4,4.4,14.1,0.7C202.3,22.3,202.9,21.6,203.5,20.7C203.5,20.8,203.5,20.8,203.5,20.7z"/>
						<linearGradient id="SVGID_23_" gradientUnits="userSpaceOnUse" x1="190.9562" y1="11.0042" x2="224.6403" y2="18.9097">
							<stop  offset="0" style="stop-color:#AF001B"/>
							<stop  offset="0.2528" style="stop-color:#F83554"/>
							<stop  offset="0.4129" style="stop-color:#FBACB7"/>
							<stop  offset="0.6961" style="stop-color:#F83554"/>
							<stop  offset="1" style="stop-color:#AF001B"/>
						</linearGradient>
						<path class="st17" d="M205,17.7c0.2,0.3,0.4,0.5,0.6,0.8c1.3-1.4,2.7-2.8,4.2-3.9c1.5-1.1,3.3-1.8,5.2-1.9
							c1.6-0.1,3.3,0.2,4.6,1.2c1.4,1.1,2,2.9,2,4.6c-0.2,3.1-1.7,4.5-3.2,5.2c-1,0.4-2.2,0.7-3.3,0.7c5.4-0.1,9.7-2.6,9.7-5.7
							c0-0.8-0.2-1.9-0.2-1.9c0,0.1,0,0.2,0,0.3c0-0.1,0-0.2,0-0.3c-0.5-2.5-1.4-3.8-2.8-5.1c-1.3-1.3-3.1-2-4.9-2.3
							c-3.7-0.5-7.4,0.8-10.1,3.3c-1.6,1.4-2.9,2.9-3.3,3.3C204,16.5,204.5,17.1,205,17.7z"/>
					</g>
					<g>
						<defs>
							<path id="SVGID_24_" d="M187.5,22.3c-2.8-2.8-2.2-7.5,0.6-10.1c2.6-2.4,6.5-3.2,10-3.3c0.1,0,0.4-3,0.5-3.3
								c-1.5,0.1-3,0.3-4.5,0.5c-1.4,0.3-2.8,0.6-4.1,1.2c-2.2,1-4.4,2.6-5.7,4.8c-2.1,3.4-2.2,8.1,0.1,11.4
								c1.3,1.9,3.3,3.2,5.6,3.7c1.9,0.5,3.9,0.4,5.8-0.2c2.3-0.8,4.2-2.3,5.8-4C197.9,26.7,191.6,26.4,187.5,22.3z"/>
						</defs>
						<clipPath id="SVGID_25_">
							<use xlink:href="#SVGID_24_"  style="overflow:visible;"/>
						</clipPath>
						
							<radialGradient id="SVGID_26_" cx="121.5948" cy="6038.7437" r="28.241" gradientTransform="matrix(0.406 -0.4 0.2039 0.301 -1096.5565 -1756.1133)" gradientUnits="userSpaceOnUse">
							<stop  offset="0" style="stop-color:#052D53"/>
							<stop  offset="1" style="stop-color:#000000"/>
						</radialGradient>
						<path class="st18" d="M195.6,1.6c3.2,4.7,0.6,13.6-5.7,19.8c-6.6,6.5-14.2,7.2-17.2,2.8c-3.2-4.7-0.6-13.6,5.7-19.8
							C184.7-1.8,192.4-3.1,195.6,1.6z"/>
					</g>
					<g>
						<defs>
							<path id="SVGID_27_" d="M224.8,18.7c0,3.1-4.4,5.6-9.7,5.7c0,0,0,0,0,0c0,0-0.1,0-0.1,0c0,0,0.1,0,0.1,0
								c-2.4,0-4.7-0.8-6.5-2.3c-1.5-1.2-2.4-2.9-3.5-4.4c-1.2-1.5-2.7-2.8-4.4-3.7c-0.6-0.3-1.3-0.5-1.9-0.7
								c-1.3-0.3-2.5-0.2-3.8-0.2c-1.2,0-2.4,0-3.6,0l-0.5,3.3c2-0.1,4-0.2,6-0.1c1.8,0.1,3.6,0.7,4.9,2c0.7,0.7,1.3,1.5,1.9,2.3
								c0.2,0.2,0.3,0.4,0.5,0.7c1.3,1.8,2.7,3.5,4.7,4.7c1.8,1,3.8,1.5,5.8,1.5c1.2,0,2.6-0.1,3.8-0.5c1.7-0.5,3-1.3,4.4-2.7
								c1.4-1.3,2-3.4,2.1-5.3C224.8,18.9,224.8,18.8,224.8,18.7z"/>
						</defs>
						<clipPath id="SVGID_28_">
							<use xlink:href="#SVGID_27_"  style="overflow:visible;"/>
						</clipPath>
						
							<radialGradient id="SVGID_29_" cx="1395.8445" cy="-488.9154" r="25.5524" gradientTransform="matrix(0.3803 0 0 0.4588 -307.6102 244.7555)" gradientUnits="userSpaceOnUse">
							<stop  offset="0" style="stop-color:#052D53"/>
							<stop  offset="1" style="stop-color:#000000"/>
						</radialGradient>
						<path class="st19" d="M232.9,20.4c0,6.5-4.4,11.7-9.7,11.7c-5.4,0-9.7-5.2-9.7-11.7s4.5-11.7,9.9-11.7S232.9,14,232.9,20.4z"
							/>
					</g>
				</g>
			</g>
		</g>
	</g>
</g>
</svg>
