<?xml version="1.0" encoding="utf-8"?>
<!-- Generator: Adobe Illustrator 22.0.0, SVG Export Plug-In . SVG Version: 6.00 Build 0)  -->
<svg version="1.1" id="圖層_1" xmlns="http://www.w3.org/2000/svg" xmlns:xlink="http://www.w3.org/1999/xlink" x="0px" y="0px"
	 viewBox="0 0 334.7 211" style="enable-background:new 0 0 334.7 211;" xml:space="preserve">
<style type="text/css">
	.st0{fill:#EB1353;stroke:#FFFFFF;stroke-width:12;stroke-linecap:round;stroke-miterlimit:10;}
	.st1{fill:url(#SVGID_1_);stroke:#FFFFFF;stroke-width:12;stroke-linecap:round;stroke-miterlimit:10;}
	.st2{enable-background:new    ;}
	.st3{fill:#EB1353;}
	.st4{fill:#00307C;}
	.st5{fill:url(#SVGID_2_);}
</style>
<g>
	<g>
		<g>
			<path class="st0" d="M19.4,37.1c-3.1,0.2-4.7-1.2-4.7-4.1c0.2-2.9,2-4.6,5.1-5l65-3.9c2.5,0.1,3.7,1.5,3.7,4.4
				C88,31.4,86.6,33,84,33.1l-27.3,1.6l-2.9,7.9l18.5-1.1c6.5-0.8,9.3,1.3,8.2,6.3l-3,35c0.3,6.4-2.9,9.3-9.5,8.7l-44,2.6
				c-7.6,1.3-10.6-0.7-8.9-6l3.1-36.2c-0.2-5.2,3.2-7.8,10-7.8L43,43.2l2.9-7.9L19.4,37.1z M68.9,71.5l-42.7,2.6l-0.9,10.6
				c-0.3,1.3,0.2,1.8,1.4,1.5l39.9-2.4c0.8,0.2,1.3-0.3,1.4-1.3L68.9,71.5z M70.6,52.4c-0.1-1-0.6-1.6-1.4-1.8L29.9,53
				c-1.5,0.1-2.1,0.5-2,1.4L27,65.3l42.7-2.6L70.6,52.4z"/>
			<path class="st0" d="M125,18.7l-0.2,2.8l16.6-1l0.2-2.5c0.1-1.5,1.8-2.3,4.9-2.5c2.9,0,4.4,0.8,4.5,2.2l-0.2,2.2l16.3-1
				c1.9,0.1,2.8,1.6,2.7,4.5c-0.5,2.9-1.7,4.5-3.8,4.6l-16,1l-0.3,3.1l5-0.3c4.6-0.3,6.6,1.8,6,6.2l-1,11.9
				c-0.4,4.6-2.7,6.9-6.8,6.9l-18.2,1.1l-0.2,2.5l23.2-1.4c4.4-0.3,6.4,1.9,6,6.5l-1.3,14.7c0.1,6.2-3.3,9.2-10.1,9
				c-2.1-0.1-5.2-0.4-9.3-1c-3.7-2.7-3.3-5.3,1.3-7.9c0.6,0.2,1.7,0.3,3.4,0.4c1.8,0.3,3.3,0.4,4.3,0.4c0.6,0,1.1-0.3,1.3-0.7
				l1.1-12.5c0.1-0.6-0.2-0.9-0.9-0.9l-4.4,0.3c2.2,3.4,3.5,6.2,4,8.5c-1.8,3.6-4,4.3-6.7,2c-8.5,1.5-16.9,3-25.4,4.3
				c-4.2,0.9-8.4,1.4-12.3,1.7c-2.3,0.1-3.3-1.2-3.1-4.2c0-2.7,1.5-4.2,4.5-4.6c4.6-0.5,9.4-1.1,14.2-1.8l0.3-4.1l-19.8,1.2
				c-0.6,0-1,0.3-1,0.7l-1.5,17.8c-0.4,1.9-2,3-5,3.4c-2.9,0-4.3-1-4.1-2.9l1.7-20c0.4-4.2,2.6-6.5,6.8-6.9l23.6-1.4l0.2-2.5
				l-19.2,1.2c-4,0.4-5.7-1.6-5.1-6.2l1.1-12.8c0.3-3.5,2.3-5.5,6.1-6l5.7-0.3l0.3-3.1l-16.6,1c-2.3,0.1-3.3-1.4-3.1-4.5
				c0.4-2.7,1.9-4.3,4.5-4.6l16-1l0.2-2.8C119,15.9,122.1,15.7,125,18.7z M110.9,52.2l15.4-0.9l0.2-2.5l-15.4,0.9L110.9,52.2z
				 M111.6,44l15.4-0.9l0.2-2.5l-15.4,0.9L111.6,44z M140.9,29.5l-17,1l-0.3,3.1l17-1L140.9,29.5z M133.9,68.5l-0.3,3.4
				c2.7-0.2,5.5-0.5,8.2-1.1l-1.3-2.7L133.9,68.5z M135.4,50.7l15.1-0.9l0.2-2.5l-15.1,0.9L135.4,50.7z M151.2,41.7l0.2-2.5
				l-15.1,0.9l-0.2,2.5L151.2,41.7z"/>
			<path class="st0" d="M187.3,57.8c-1.7,0.1-2.5-0.9-2.6-3c0.4-2.1,1.5-3.3,3.4-3.6l43-2.6c3.2,2.1,2.9,4.3-0.9,6.6l-14.4,0.9
				c-2.2,1-3.6,1.6-4.2,1.8c1.5,1.4,2.9,2.8,4,4.4c4.7-1.5,9.4-3.3,14.2-5.2c2.4-0.8,4,0,4.8,2.2c0.6,2.4-0.3,4.3-2.7,5.4
				c-0.9,0.5-1.9,0.8-3.2,1.1c-0.6,0.2-1.1,0.4-1.3,0.4c3.1,4.8,7.3,8.3,12.5,10.4c2,1.1,2.2,3,0.8,5.5c-1.6,2-3.5,2.4-5.7,1.3
				c-6.2-2.9-11.4-7.8-15.6-14.6c-0.2,0-0.6,0.1-1.3,0.4c0,0.2,0.2,1.3,0.6,3.4c0.8,10.5-5.3,15.3-18.1,14.5c-4.5-1-5.1-3.6-1.8-8
				c-6.9,2.5-14,4.9-21.2,7.2c-2.3,0.3-3.7-0.4-4.2-2.2c0-2.1,1-3.5,3.2-4.2c12.5-3,23.2-7,32-11.9c-0.4-0.6-0.6-1.1-0.8-1.5
				c-10,4.7-19.4,8.3-28.1,10.7c-2.4,0.8-3.8,0.2-4.2-1.6c0-2.3,1.1-3.8,3.2-4.5c9-2.4,17.2-5.4,24.8-9l-0.9-0.6
				c-6.9,2.5-15,4.8-24.4,7.1c-2.1,0.5-3.3-0.1-3.6-2c0-2.1,1-3.4,3.1-3.9c6.8-1.2,14.2-3.1,22.4-5.7L187.3,57.8z M174.3,55.8
				l0.6-7.5c-0.3-3.9,2.4-5.9,8-6.1l57.2-3.4c4.2-0.3,6,1.4,5.5,5c-0.7,3.4-1.6,6.3-2.6,8.9c-1,2.3-2.8,3.4-5.3,3.1
				c-2.3-0.3-3.2-1.6-2.8-3.9c0-0.4,0.2-1,0.5-1.9c0.3-0.8,0.6-1.6,0.8-2.2c0.3-1.3,0.1-1.9-0.8-1.8l-51.2,3.1
				c-1.1,0.1-1.5,0.6-1.4,1.6l-0.3,4.6c-0.4,2.5-1.9,4-4.4,4.3C175.4,59.6,174.1,58.3,174.3,55.8z M207.3,17.8
				c-0.2-0.4-0.2-0.9-0.2-1.5c1.5-5.1,4.4-6.1,8.7-3c0,0.2,0,0.7,0.2,1.5c0.5,1.2,0.9,2,1,2.4l25.4-1.5c2.3,0.1,3.4,1.2,3.4,3.5
				c-0.2,2.5-1.4,3.8-3.5,3.9l-60.6,3.6c-2.5,0.2-3.7-1-3.4-3.5c0.4-2.3,1.9-3.6,4.4-4L207.3,17.8z M190.7,39.3
				c-5.1,0.7-7.1-0.5-6.2-3.7l0.2-2.2c-0.2-2.9,1.6-4.4,5.4-4.7l41.8-2.5c4.2-0.3,6,1.1,5.6,4l-0.2,2.2c0.1,3.1-1.9,4.6-6,4.4
				L190.7,39.3z M195,32.8c-0.9,0.3-1.3,0.6-1.3,1c-0.3,0.6,0.1,0.9,1.2,0.9l31.7-1.9c0.8-0.1,1.4-0.4,1.7-1
				c-0.2-0.6-0.7-0.9-1.5-0.8L195,32.8z M201.2,78.1c6.2,0.2,9.1-1,8.7-3.6C206.9,75.9,204,77.1,201.2,78.1z"/>
			<path class="st0" d="M257.4,20c0.1-3.7,1.8-5.7,5.2-5.9l10.7-0.6c4.2-0.3,6,1.6,5.5,5.6l-4.1,48.1c-0.2,4.4-2.2,6.7-6.2,6.9
				l-9.1,0.5c-4.8,0.3-6.8-1.9-6-6.5L257.4,20z M265.3,66.2c0.8-0.1,1.3-0.6,1.4-1.6l3.5-41.3c-0.1-0.8-0.5-1.3-1.1-1.5l-2.5,0.2
				c-0.9,0.3-1.3,0.8-1.4,1.6l-3.5,41.3c-0.3,1.3,0.1,1.8,1.1,1.5L265.3,66.2z M284.3,52.9c-4.2,0.7-5.9-1.2-5.1-5.6l2.5-28.8
				c0-5,2.2-7.5,6.6-7.5l33-2c3.8-0.2,5.5,1.6,5.1,5.6l-2.6,30.3c-0.3,4-2.5,6-6.4,6l-11.9,0.7l-0.4,5l15.4-0.9
				c2.3,0.1,3.4,1.5,3.4,4.1c-0.4,2.7-1.8,4.2-4.1,4.3L304.4,65l-0.5,5.3l18.2-1.1c3.8,2.3,3.5,4.9-0.7,7.8l-45.2,2.7
				c-2.5-0.1-3.6-1.3-3.4-3.8c0.2-2.3,1.6-3.6,4.1-4l18.2-1.1l0.5-5.3l-14.4,0.9c-2.3,0.1-3.4-1.1-3.4-3.8c0.4-2.7,1.8-4.3,4.1-4.6
				l14.4-0.9l0.4-5L284.3,52.9z M288.6,42.7c-0.3,1.1,0.1,1.5,1.1,1.5l7.5-0.5l0.7-8.4l-8.8,0.5L288.6,42.7z M298.6,27.2l0.7-8.4
				l-7.2,0.4c-1.1,0.3-1.6,0.8-1.7,1.7l-0.6,6.9L298.6,27.2z M306,43.2l7.2-0.4c0.8,0,1.4-0.6,1.7-1.7l0.6-6.9l-8.8,0.5L306,43.2z
				 M316.2,26.2l0.6-6.9c-0.1-0.8-0.5-1.3-1.1-1.5l-7.5,0.5l-0.7,8.4L316.2,26.2z"/>
			<path class="st0" d="M16.2,147.1l10-0.6c3.7,0,5.5,2.4,5.4,7.2L29,184.4c3.2,5.9,10.1,8.6,20.8,8.3l46.5-2.8
				c3.2-0.2,4.7,1.2,4.4,4.1c-0.3,3.2-2,4.9-5.2,5.1l-46.9,2.8c-8.5,0.2-16-2.2-22.5-7.4c-1.3-0.7-2.6-0.6-4,0.2
				c-0.6,0.6-1.3,1.4-2.2,2.5s-1.8,2.5-2.7,4.1c-3.2,2.8-5.8,3.8-7.8,2.8c-3-2.2-3.4-4.8-1.3-7.8c3-3.6,6.6-7.4,10.9-11.4l2.2-25.9
				c0.1-1.1-0.4-1.7-1.4-1.9l-4.4,0.3c-4,0.5-5.6-1.1-4.8-4.9C10.5,149.4,12.4,147.6,16.2,147.1z M30.3,135.6
				c-3.6,1.5-5.9,0.8-7-2.4c-0.7-1.3-1.9-3.2-3.5-5.7c-0.7-1-1.4-2.2-2.1-3.4c-1.6-3.6-0.7-6.2,2.7-7.7c3-1.2,5.6-0.6,7.8,1.9
				c0.2,0.8,0.5,1.6,1,2.3c2.1,3,3.5,5.6,4.1,7.7C34.1,131.6,33.1,134.1,30.3,135.6z M66,128.7l-13.2,0.8l-0.5,6.4l9.6-0.6
				c4,0,6,1.8,5.9,5.2c-0.2,2.1-0.3,4-0.5,5.6c-0.4,11.1-1.1,21.1-2.2,29.9c-1.8,8.3-7.3,11.8-16.4,10.5c-3.5-0.1-5.1-1.3-4.9-3.7
				c0.3-3.4,2-5.1,5.2-5.1c4.2,0.5,6.3-0.4,6.2-2.8c0.1-0.8,0.1-1.6,0.2-2.4c1.5-11.2,2.4-20,2.7-26.3c0.1-0.8-0.6-1.3-1.9-1.5
				l-4.8,0.3l-0.2,2c-1.8,14.4-4.6,25.9-8.5,34.6c-2.5,4.6-5.3,6.1-8.4,4.5c-3.1-0.9-3.1-3.9,0-9.1c3.6-8.4,6.2-19.4,7.6-33
				l1.2-13.9c-3.7,0.2-5.6-1.4-5.6-4.8c0.5-3.2,2.7-5,6.5-5.5l6-0.4c-0.4-1.6-0.7-2.9-0.9-3.9c-0.8-3.4-0.1-5.5,2.1-6.5
				c3.3-1,5.6-0.6,7.1,1.2c0.2,0.8,0.6,2.5,1.2,5.1c0.4,1.3,0.8,2.5,1.3,3.5l5.2-0.3c2.9,0.1,4.5,1.7,4.8,4.9
				C70.5,126.7,68.9,128.5,66,128.7z M89.2,112.6c-0.3,0.6-0.5,1.1-0.5,1.6c-0.3,0.6-0.5,1-0.5,1.2l16.4-1c2.9,0.1,4.4,1.9,4.3,5.3
				c-0.6,3.5-2.3,5.3-5.2,5.5l-20,1.2c-0.6,0.8-1.4,1.8-2.2,2.9c-0.9,1.1-1.5,1.9-1.8,2.5c0,0.3-0.2,0.4-0.4,0.4
				c-0.3,0.3-0.3,0.4,0,0.4l18.8-1.1c4,0,5.7,1.4,5.2,4c-0.3,2.9-4,7.4-11.1,13.4c0.9,2.1,1.8,3.9,2.7,5.4l8-0.5
				c2.4,0.1,3.4,1.6,3.2,4.6c-0.3,2.9-1.6,4.5-4,4.6l-5.6,0.3c0.1,1.6,0.1,3.3,0,5.2c-0.7,5.6-2.6,9.9-5.5,13
				c-6,4.6-12.8,5.3-20.5,2c-2.8-1.4-3.7-3.3-2.7-5.8c1.3-3,3.4-4.2,6.3-3.5c2.8,0.9,5.1,1.3,6.7,1.2c2.6,0.4,4.3-1.7,4.9-6.2
				c0.2-1.9,0.3-3.6,0.4-5.2l-14,0.8c-3.2,0.2-4.7-1.2-4.4-4.1c0.2-2.9,2-4.6,5.2-5.1l10.4-0.6l-0.4-0.4c-1.9-2.5-2.6-4.1-2-4.6
				c0.1-1.1,1.6-3.4,4.6-7c0.8-0.6,1.4-1.1,1.7-1.7l-10,0.6c-3.2-0.1-4.1-2.1-2.7-6.2c-2.7,1-4.6,0.4-5.4-1.7
				c-0.9-1.8-0.3-3.9,1.7-6.4c2.9-3.1,5.9-8.7,9-16.8c1-2.4,2.9-3.5,5.8-3.1C88.3,108.3,89.5,110,89.2,112.6z"/>
			<path class="st0" d="M166.9,127.4l18.4-1.1l1.5-17.5c0.3-3.7,2.6-5.7,6.9-6c4,0,5.9,1.9,5.9,5.6l-1.5,17.1l5.6-0.3
				c4,0,5.9,2,5.9,6c-0.9,4-3.2,6.1-6.9,6.4l-5.6,0.3l-2.1,24.3c-0.1,6.9-3.5,10.3-10.4,10.1l-24,1.4c-7.8,1.5-11-1.6-9.6-9.3
				l2-23.9l-15.2,0.9l-3.4,40.2c-0.2,1.9,0.6,2.7,2.2,2.6l58.9-3.5c4,0,6.1,1.6,6.4,4.8c-0.4,4.2-2.6,6.6-6.6,7.1l-61.7,3.7
				c-9.4,1.1-13.5-2.6-12.2-11.2l3.7-43l-4,0.2c-4.3,0.3-6.5-1.5-6.7-5.1c0.6-4,3.1-6.4,7.4-7.2l4.4-0.3l1.4-16.7
				c0.3-3.4,2.5-5.6,6.5-6.3c4.2,0,6.4,1.7,6.3,5.2l-1.5,17.1l15.2-0.9l1.4-16.7c0.3-3.7,2.6-5.8,6.9-6.4c4,0,5.9,1.9,5.9,5.6
				L166.9,127.4z M165.5,162.3l15.2-0.9c0.8,0.2,1.4-0.5,1.8-2.1l1.8-20.7l-18.4,1.1l-1.8,20.7C163.7,161.8,164.1,162.4,165.5,162.3
				z"/>
			<path class="st0" d="M223.3,110.5c0.2-5.3,3.1-8.1,8.7-8.4l71.3-4.3c4.8-0.3,7,2,6.6,6.7l-2.5,29.1c-0.2,5-2.8,7.4-7.8,7.2
				l-16.4,1c4.6,4.7,13,9.4,25.1,14c2.9,3,2.9,6.3-0.1,9.9c-2.6,2-6.3,1.8-11.1-0.5c-3.1-0.9-6.3-2.5-9.5-5l-2.1,25.1
				c-0.6,3.5-2.9,5.6-6.9,6.4c-4.2-0.3-6.2-2.1-5.9-5.6l2.7-31.9c-3-1.7-4.8-3.3-5.2-4.8c-1.7-2-1.8-4.3-0.2-6.7l-10.4,0.6
				c0.6,2.3-0.1,4.5-2.1,6.5c-1.2,1.7-2.8,3.1-4.7,4.2l-1.1,13.1c-1.6,12.5-10.2,21.5-25.8,26.9c-4.1,1-6.6,0.5-7.4-1.5
				c-1.8-4.1-0.6-7,3.5-8.5c10.1-3.5,15.7-8.6,16.8-15.3l0.5-6.4c-15.4,9.6-24,11.9-25.7,6.7c-1.2-4.1,1.2-7.5,7.2-9.9
				c9.9-3.5,18.1-8.5,24.8-15l-18,1.1c-5.1,0.6-7.3-1.8-6.6-7.1L223.3,110.5z M234.5,133.2l24-1.4l0.4-4.4l-25.6,1.5l-0.3,3.2
				C232.7,132.9,233.2,133.3,234.5,133.2z M234.4,115.4l-0.3,3.2l25.6-1.5l0.4-4.8l-24,1.4C234.8,113.8,234.3,114.3,234.4,115.4z
				 M270.5,131.1l24.4-1.5c0.8,0,1.2-0.5,1.3-1.3l0.3-3.2l-25.6,1.5L270.5,131.1z M272.2,111.5l-0.4,4.8l25.6-1.5l0.3-3.2
				c0.1-1.1-0.3-1.6-1.1-1.5L272.2,111.5z"/>
		</g>
		<path class="st0" d="M203,130.5c-0.5-0.5-0.7-1.2-0.7-2c0.1-0.6,0.6-1.1,1.2-1.2l2.5-0.1c-0.5-0.3-1-0.5-1.5-0.8
			c-2.4-0.9-5-1.3-7.7-1.1l-28.9,1.7c-0.6,0-1.1,0.2-1.6,0.4c-0.5,0.2-1.1,0.5-1.5,0.9c-0.9,0.7-1.9,1.1-2.9,1.2l-11.1,1.2
			c-1.7,0.2-3.3-0.6-4-2l-3.6-8.6l0,0l3.2-0.2c0.4,0,0.8-0.4,0.9-0.8c0-0.4-0.3-0.8-0.7-0.7l-5.4,0.3l-1.1,0.1h-0.8v0.5l0,0l0,0
			c0,0.1-0.1,0.2-0.1,0.3c0,0.1,0,0.3,0.1,0.4l0,0l0.1,12.1c-0.3,3.4,2,6.2,5.4,6.4l16.8,1l-6.8,10.2l-4.9,0.3
			c-0.4,0-0.8,0.4-0.9,0.8c0,0.4,0.3,0.8,0.7,0.7l3.9-0.2l2.5-0.1l1.2-0.1c1-0.1,2-0.4,2.8-1.1l4-3.1l3.5-0.2c0.4,0,0.8-0.4,0.9-0.8
			c0-0.4-0.3-0.8-0.7-0.7l-1.4,0.1l1.4-1.1l4.8-0.3c0.4,0,0.8-0.4,0.9-0.8c0-0.4-0.3-0.8-0.7-0.7l-2.8,0.2l3.7-2.8l31.1-1.9
			c0.5,0,1.1-0.2,1.6-0.4c0.5-0.2,1-0.5,1.4-0.9c0.9-0.9,1.5-2,1.6-3.2c0-0.6,0-1.1-0.2-1.6c0-0.1-0.1-0.3-0.2-0.4l-4.2,0.3
			C204.2,131.2,203.5,130.9,203,130.5z M173,130.2l-0.2,1.8c-0.1,0.6-0.6,1.1-1.2,1.2l-0.9,0.1c-0.6,0-1.1-0.4-1-1l0.2-1.8
			c0.1-0.6,0.6-1.1,1.2-1.2l0.9-0.1C172.6,129.1,173.1,129.6,173,130.2L173,130.2z M178.1,131.7c-0.1,0.6-0.6,1.1-1.2,1.2L176,133
			c-0.6,0-1.1-0.4-1-1l0.2-1.8c0.1-0.6,0.6-1.1,1.2-1.2l0.9-0.1c0.6,0,1.1,0.4,1,1L178.1,131.7z M183.3,131.4
			c-0.1,0.6-0.6,1.1-1.2,1.2l-0.9,0.1c-0.6,0-1.1-0.4-1-1l0.2-1.8c0.1-0.6,0.6-1.1,1.2-1.2l0.9-0.1c0.6,0,1.1,0.4,1,1L183.3,131.4z
			 M188.5,131.1c-0.1,0.6-0.6,1.1-1.2,1.2l-0.9,0.1c-0.6,0-1.1-0.4-1-1l0.2-1.8c0.1-0.6,0.6-1.1,1.2-1.2l0.9-0.1c0.6,0,1.1,0.4,1,1
			L188.5,131.1z M193.7,130.8c-0.1,0.6-0.6,1.1-1.2,1.2l-0.9,0.1c-0.6,0-1.1-0.4-1-1l0.2-1.8c0.1-0.6,0.6-1.1,1.2-1.2l0.9-0.1
			c0.6,0,1.1,0.4,1,1L193.7,130.8z"/>
	</g>
</g>
<radialGradient id="SVGID_1_" cx="53.4372" cy="1411.0996" r="6.8587" gradientTransform="matrix(1 0 0 1 0 -1300.2046)" gradientUnits="userSpaceOnUse">
	<stop  offset="0" style="stop-color:#FF9EBB"/>
	<stop  offset="1" style="stop-color:#EB1353"/>
</radialGradient>
<circle class="st1" cx="54.5" cy="112.2" r="8.6"/>
<g class="st2">
	<path class="st3" d="M20,36.6c-3.1,0.2-4.7-1.2-4.7-4.1c0.2-2.9,2-4.6,5.1-5l65-3.9c2.5,0.1,3.7,1.5,3.7,4.4
		c-0.5,2.9-1.9,4.5-4.5,4.6l-27.3,1.6l-2.9,7.9L73,41.1c6.5-0.8,9.3,1.3,8.2,6.3l-3,35c0.3,6.4-2.9,9.3-9.5,8.7l-44,2.6
		c-7.6,1.3-10.6-0.7-8.9-6L19,51.5c-0.2-5.2,3.2-7.8,10-7.8l14.8-0.9l2.9-7.9L20,36.6z M69.5,70.9l-42.7,2.6l-0.9,10.6
		c-0.3,1.3,0.2,1.8,1.4,1.5l39.9-2.4c0.8,0.2,1.3-0.3,1.4-1.3L69.5,70.9z M71.2,51.8c-0.1-1-0.6-1.6-1.4-1.8l-39.3,2.4
		c-1.5,0.1-2.1,0.5-2,1.4l-0.9,10.9l42.7-2.6L71.2,51.8z"/>
	<path class="st3" d="M125.6,18.1l-0.2,2.8l16.6-1l0.2-2.5c0.1-1.5,1.8-2.3,4.9-2.5c2.9,0,4.4,0.8,4.5,2.2l-0.2,2.2l16.3-1
		c1.9,0.1,2.8,1.6,2.7,4.5c-0.5,2.9-1.7,4.5-3.8,4.6l-16,1l-0.3,3.1l5-0.3c4.6-0.3,6.6,1.8,6,6.2l-1,11.9c-0.4,4.6-2.7,6.9-6.8,6.9
		l-18.2,1.1l-0.2,2.5l23.2-1.4c4.4-0.3,6.4,1.9,6,6.5l-1.3,14.7c0.1,6.2-3.3,9.2-10.1,9c-2.1-0.1-5.2-0.4-9.3-1
		c-3.7-2.7-3.3-5.3,1.3-7.9c0.6,0.2,1.7,0.3,3.4,0.4c1.8,0.3,3.3,0.4,4.3,0.4c0.6,0,1.1-0.3,1.3-0.7l1.1-12.5
		c0.1-0.6-0.2-0.9-0.9-0.9l-4.4,0.3c2.2,3.4,3.5,6.2,4,8.5c-1.8,3.6-4,4.3-6.7,2c-8.5,1.5-16.9,3-25.4,4.3
		c-4.2,0.9-8.4,1.4-12.3,1.7c-2.3,0.1-3.3-1.2-3.1-4.2c0-2.7,1.5-4.2,4.5-4.6c4.6-0.5,9.4-1.1,14.2-1.8l0.3-4.1l-19.8,1.2
		c-0.6,0-1,0.3-1,0.7l-1.5,17.8c-0.4,1.9-2,3-5,3.4c-2.9,0-4.3-1-4.1-2.9l1.7-20c0.4-4.2,2.6-6.5,6.8-6.9l23.6-1.4l0.2-2.5L107.1,59
		c-4,0.4-5.7-1.6-5.1-6.2l1.1-12.8c0.3-3.5,2.3-5.5,6.1-6l5.7-0.3l0.3-3.1l-16.6,1c-2.3,0.1-3.3-1.4-3.1-4.5
		c0.4-2.7,1.9-4.3,4.5-4.6l16-1l0.2-2.8C119.6,15.3,122.7,15.1,125.6,18.1z M111.5,51.6l15.4-0.9l0.2-2.5l-15.4,0.9L111.5,51.6z
		 M112.2,43.5l15.4-0.9l0.2-2.5L112.4,41L112.2,43.5z M141.6,28.9l-17,1l-0.3,3.1l17-1L141.6,28.9z M134.5,67.9l-0.3,3.4
		c2.7-0.2,5.5-0.5,8.2-1.1l-1.3-2.7L134.5,67.9z M136,50.1l15.1-0.9l0.2-2.5l-15.1,0.9L136,50.1z M151.8,41.1l0.2-2.5l-15.1,0.9
		l-0.2,2.5L151.8,41.1z"/>
	<path class="st3" d="M187.9,57.3c-1.7,0.1-2.5-0.9-2.6-3c0.4-2.1,1.5-3.3,3.4-3.6l43-2.6c3.2,2.1,2.9,4.3-0.9,6.6l-14.4,0.9
		c-2.2,1-3.6,1.6-4.2,1.8c1.5,1.4,2.9,2.8,4,4.4c4.7-1.5,9.4-3.3,14.2-5.2c2.4-0.8,4,0,4.8,2.2c0.6,2.5-0.3,4.3-2.7,5.4
		c-0.9,0.5-1.9,0.8-3.2,1.1c-0.6,0.2-1.1,0.4-1.3,0.4c3.1,4.8,7.3,8.3,12.5,10.4c2,1.1,2.2,3,0.8,5.5c-1.6,2-3.5,2.4-5.7,1.3
		c-6.2-2.9-11.4-7.8-15.6-14.6c-0.2,0-0.6,0.1-1.3,0.4c0,0.2,0.2,1.3,0.6,3.4c0.8,10.5-5.3,15.3-18.1,14.5c-4.5-1-5.1-3.6-1.8-8
		c-6.9,2.5-14,4.9-21.2,7.2c-2.3,0.3-3.7-0.4-4.2-2.2c0-2.1,1-3.5,3.2-4.2c12.5-3,23.2-7,32-11.9c-0.4-0.6-0.6-1.1-0.8-1.5
		c-10,4.7-19.4,8.3-28.1,10.7c-2.4,0.8-3.8,0.2-4.2-1.6c0-2.3,1.1-3.8,3.2-4.5c9-2.4,17.2-5.4,24.8-9l-0.9-0.6
		c-6.9,2.5-15,4.8-24.4,7.1c-2.1,0.5-3.3-0.1-3.6-2c0-2.1,1-3.4,3.1-3.9c6.8-1.2,14.2-3.1,22.4-5.7L187.9,57.3z M174.9,55.2l0.6-7.5
		c-0.3-3.9,2.4-5.9,8-6.1l57.2-3.4c4.2-0.3,6,1.4,5.5,5c-0.7,3.4-1.6,6.3-2.6,8.9c-1,2.3-2.8,3.4-5.3,3.1c-2.3-0.3-3.2-1.6-2.8-3.9
		c0-0.4,0.2-1,0.5-1.9c0.3-0.8,0.6-1.6,0.8-2.2c0.3-1.3,0.1-1.9-0.8-1.8l-51.2,3.1c-1.1,0.1-1.5,0.6-1.4,1.6l-0.4,4.7
		c-0.4,2.5-1.9,4-4.4,4.3C176,59,174.7,57.7,174.9,55.2z M207.9,17.2c-0.2-0.4-0.2-0.9-0.2-1.5c1.5-5.1,4.4-6.1,8.7-3
		c0,0.2,0,0.7,0.2,1.5c0.5,1.2,0.9,2,1,2.4l25.4-1.5c2.3,0.1,3.4,1.2,3.4,3.5c-0.2,2.5-1.4,3.8-3.5,3.9l-60.6,3.6
		c-2.5,0.2-3.7-1-3.4-3.5c0.4-2.3,1.9-3.6,4.4-4L207.9,17.2z M191.4,38.7c-5.1,0.7-7.1-0.5-6.2-3.7l0.2-2.2
		c-0.2-2.9,1.6-4.5,5.4-4.7l41.8-2.5c4.2-0.3,6,1.1,5.6,4l-0.2,2.2c0.1,3.1-1.9,4.6-6,4.4L191.4,38.7z M195.7,32.2
		c-0.9,0.3-1.3,0.6-1.3,1c-0.3,0.6,0.1,0.9,1.2,0.9l31.7-1.9c0.8-0.1,1.4-0.4,1.7-1c-0.2-0.6-0.7-0.9-1.5-0.8L195.7,32.2z
		 M201.8,77.6c6.2,0.2,9.1-1,8.7-3.6C207.5,75.4,204.6,76.6,201.8,77.6z"/>
	<path class="st3" d="M258,19.5c0.1-3.7,1.8-5.7,5.2-5.9l10.7-0.6c4.2-0.3,6,1.6,5.5,5.6l-4.1,48.1c-0.2,4.4-2.2,6.7-6.2,6.9
		l-9.1,0.5c-4.8,0.3-6.8-1.9-6-6.5L258,19.5z M265.9,65.6c0.8-0.1,1.3-0.6,1.4-1.6l3.5-41.3c-0.1-0.8-0.5-1.3-1.1-1.5l-2.5,0.2
		c-0.9,0.3-1.3,0.8-1.4,1.6l-3.5,41.3c-0.3,1.3,0.1,1.8,1.1,1.5L265.9,65.6z M284.9,52.4c-4.2,0.7-5.9-1.2-5.1-5.6l2.5-28.8
		c0-5,2.2-7.5,6.6-7.5l33-2c3.8-0.2,5.5,1.6,5.1,5.6l-2.6,30.3c-0.3,4-2.5,6-6.4,6l-11.9,0.7l-0.4,5l15.4-0.9
		c2.3,0.1,3.4,1.5,3.4,4.1c-0.4,2.7-1.8,4.2-4.1,4.3l-15.4,0.9l-0.5,5.3l18.2-1.1c3.8,2.3,3.5,4.9-0.7,7.8l-45.2,2.7
		c-2.5-0.1-3.6-1.3-3.4-3.8c0.2-2.3,1.6-3.6,4.1-4l18.2-1.1l0.5-5.3l-14.4,0.9c-2.3,0.1-3.4-1.1-3.4-3.8c0.4-2.7,1.8-4.3,4.1-4.6
		l14.4-0.9l0.4-5L284.9,52.4z M289.2,42.2c-0.3,1.1,0.1,1.5,1.1,1.5l7.5-0.5l0.7-8.4l-8.8,0.5L289.2,42.2z M299.3,26.6l0.7-8.4
		l-7.2,0.4c-1.1,0.3-1.6,0.8-1.7,1.7l-0.6,6.9L299.3,26.6z M306.6,42.7l7.2-0.4c0.8,0,1.4-0.6,1.7-1.7l0.6-6.9l-8.8,0.5L306.6,42.7z
		 M316.9,25.6l0.6-6.9c-0.1-0.8-0.5-1.3-1.1-1.5l-7.5,0.5l-0.7,8.4L316.9,25.6z"/>
</g>
<g class="st2">
	<path class="st4" d="M16.2,147l10-0.6c3.7,0,5.5,2.4,5.4,7.2L29,184.3c3.2,5.9,10.1,8.6,20.8,8.3l46.5-2.8c3.2-0.2,4.7,1.2,4.4,4.1
		c-0.3,3.2-2,4.9-5.2,5.1l-46.9,2.8c-8.5,0.2-16-2.2-22.5-7.4c-1.3-0.7-2.6-0.6-4,0.2c-0.6,0.6-1.3,1.4-2.2,2.5
		c-0.9,1.1-1.8,2.5-2.7,4.1c-3.2,2.8-5.8,3.8-7.8,2.8c-3-2.2-3.4-4.8-1.3-7.8c3-3.6,6.6-7.4,10.9-11.4l2.2-25.9
		c0.1-1.1-0.4-1.7-1.4-1.9l-4.4,0.3c-4,0.5-5.6-1.1-4.8-4.9C10.6,149.3,12.5,147.5,16.2,147z M30.4,135.4c-3.6,1.5-5.9,0.8-7-2.4
		c-0.7-1.3-1.9-3.2-3.5-5.7c-0.7-1-1.4-2.2-2.1-3.4c-1.6-3.6-0.7-6.2,2.7-7.7c3-1.2,5.6-0.6,7.8,1.9c0.2,0.8,0.5,1.6,1,2.3
		c2.1,3,3.5,5.6,4.1,7.7C34.2,131.5,33.2,133.9,30.4,135.4z M66,128.5l-13.2,0.8l-0.5,6.4l9.6-0.6c4,0,6,1.8,5.9,5.2
		c-0.2,2.1-0.3,4-0.5,5.6c-0.4,11.1-1.1,21.1-2.2,29.9c-1.8,8.3-7.3,11.8-16.4,10.5c-3.5-0.1-5.1-1.3-4.9-3.7c0.3-3.5,2-5.1,5.2-5.1
		c4.2,0.5,6.3-0.4,6.2-2.8c0.1-0.8,0.1-1.6,0.2-2.4c1.5-11.2,2.4-20,2.7-26.3c0.1-0.8-0.6-1.3-1.9-1.5l-4.8,0.3l-0.2,2
		c-1.8,14.4-4.6,25.9-8.5,34.6c-2.5,4.6-5.3,6.1-8.4,4.5c-3.1-0.9-3.1-3.9,0-9.1c3.6-8.4,6.2-19.4,7.6-33l1.2-13.9
		c-3.7,0.2-5.6-1.4-5.6-4.8c0.5-3.2,2.7-5,6.5-5.5l6-0.4c-0.4-1.6-0.7-2.9-0.9-3.9c-0.8-3.4-0.1-5.5,2.1-6.5c3.3-1,5.6-0.6,7.1,1.2
		c0.2,0.8,0.6,2.5,1.2,5.1c0.4,1.3,0.8,2.5,1.3,3.5l5.2-0.3c2.9,0.1,4.5,1.7,4.8,4.9C70.6,126.5,69,128.4,66,128.5z M89.3,112.5
		c-0.3,0.6-0.5,1.1-0.5,1.6c-0.3,0.6-0.5,1-0.5,1.2l16.4-1c2.9,0.1,4.4,1.9,4.3,5.3c-0.6,3.5-2.3,5.3-5.2,5.5l-20,1.2
		c-0.6,0.8-1.4,1.8-2.2,2.9c-0.9,1.1-1.5,1.9-1.8,2.5c0,0.3-0.2,0.4-0.4,0.4c-0.3,0.3-0.3,0.4,0,0.4l18.8-1.1c4,0,5.7,1.4,5.2,4
		c-0.3,2.9-4,7.4-11.1,13.4c0.9,2.1,1.8,3.9,2.7,5.4l8-0.5c2.4,0.1,3.4,1.6,3.2,4.6c-0.3,2.9-1.6,4.5-4,4.6l-5.6,0.3
		c0.1,1.6,0.1,3.3,0,5.2c-0.7,5.6-2.6,9.9-5.5,13c-6,4.6-12.8,5.3-20.5,2c-2.8-1.4-3.7-3.3-2.7-5.8c1.3-3,3.4-4.2,6.3-3.5
		c2.8,0.9,5.1,1.3,6.7,1.2c2.6,0.4,4.3-1.7,4.9-6.2c0.2-1.9,0.3-3.6,0.4-5.2l-14,0.8c-3.2,0.2-4.7-1.2-4.4-4.1
		c0.2-2.9,2-4.6,5.2-5.1l10.4-0.6l-0.4-0.4c-1.9-2.5-2.6-4.1-2-4.6c0.1-1.1,1.6-3.4,4.6-7c0.8-0.6,1.4-1.1,1.7-1.7l-10,0.6
		c-3.2-0.1-4.1-2.1-2.7-6.2c-2.7,1-4.6,0.4-5.4-1.7c-0.9-1.8-0.3-3.9,1.7-6.4c2.9-3.1,5.9-8.7,9-16.8c1-2.4,2.9-3.5,5.8-3.1
		C88.4,108.2,89.5,109.8,89.3,112.5z"/>
	<path class="st4" d="M166.9,127.2l18.4-1.1l1.5-17.5c0.3-3.7,2.6-5.7,6.9-6c4,0,5.9,1.9,5.9,5.6l-1.5,17.1l5.6-0.3c4,0,5.9,2,5.9,6
		c-0.9,4-3.2,6.1-6.9,6.4l-5.6,0.3L195,162c-0.1,6.9-3.5,10.3-10.4,10.1l-24,1.4c-7.8,1.5-11-1.6-9.6-9.3l2-23.9l-15.2,0.9
		l-3.4,40.2c-0.2,1.9,0.6,2.7,2.2,2.6l58.9-3.5c4,0,6.1,1.6,6.4,4.8c-0.4,4.2-2.6,6.6-6.6,7.1l-61.7,3.7
		c-9.4,1.1-13.5-2.6-12.2-11.2l3.7-43l-4,0.2c-4.3,0.3-6.5-1.5-6.7-5.1c0.6-4,3.1-6.4,7.4-7.2l4.4-0.3l1.4-16.7
		c0.3-3.4,2.5-5.6,6.5-6.3c4.2,0,6.4,1.7,6.3,5.2l-1.5,17.1l15.2-0.9l1.4-16.7c0.3-3.7,2.6-5.8,6.9-6.4c4,0,5.9,1.9,5.9,5.6
		L166.9,127.2z M165.5,162.2l15.2-0.9c0.8,0.2,1.4-0.5,1.8-2.1l1.8-20.7l-18.4,1.1l-1.8,20.7C163.7,161.7,164.2,162.3,165.5,162.2z"
		/>
	<path class="st4" d="M223.4,110.4c0.2-5.3,3.1-8.1,8.7-8.5l71.3-4.3c4.8-0.3,7,2,6.6,6.7l-2.5,29.1c-0.2,5-2.8,7.4-7.8,7.2l-16.4,1
		c4.6,4.7,13,9.4,25.1,14c2.9,3,2.9,6.3-0.1,9.9c-2.6,2-6.3,1.8-11.1-0.5c-3.1-0.9-6.3-2.5-9.5-5l-2.1,25.1
		c-0.6,3.5-2.9,5.6-6.9,6.4c-4.2-0.3-6.2-2.1-5.9-5.6l2.7-31.9c-3-1.7-4.8-3.3-5.2-4.8c-1.7-2-1.8-4.3-0.2-6.7l-10.4,0.6
		c0.6,2.3-0.1,4.5-2.1,6.5c-1.2,1.7-2.8,3.1-4.7,4.2l-1.1,13.1c-1.6,12.5-10.2,21.5-25.8,26.9c-4.1,1-6.6,0.5-7.4-1.5
		c-1.8-4.1-0.6-7,3.5-8.5c10.1-3.5,15.7-8.6,16.8-15.3l0.5-6.4c-15.4,9.6-24,11.9-25.7,6.7c-1.2-4.2,1.2-7.5,7.2-9.9
		c9.9-3.5,18.1-8.5,24.8-15l-18,1.1c-5.1,0.6-7.3-1.8-6.6-7.1L223.4,110.4z M234.6,133.1l24-1.4l0.4-4.4l-25.6,1.5l-0.3,3.2
		C232.7,132.8,233.2,133.2,234.6,133.1z M234.5,115.3l-0.3,3.2l25.6-1.5l0.4-4.8l-24,1.4C234.9,113.6,234.3,114.2,234.5,115.3z
		 M270.6,130.9l24.4-1.5c0.8,0,1.2-0.5,1.3-1.3l0.3-3.2l-25.6,1.5L270.6,130.9z M272.3,111.4l-0.4,4.8l25.6-1.5l0.3-3.2
		c0.1-1.1-0.3-1.6-1.1-1.5L272.3,111.4z"/>
</g>
<path class="st3" d="M203,129.5c-0.5-0.5-0.7-1.2-0.7-2c0.1-0.6,0.6-1.1,1.2-1.2l2.5-0.1c-0.5-0.3-1-0.5-1.5-0.8
	c-2.4-0.9-5-1.3-7.7-1.1l-28.9,1.7c-0.6,0-1.1,0.2-1.6,0.4c-0.5,0.2-1.1,0.5-1.5,0.9c-0.9,0.7-1.9,1.1-2.9,1.2l-11.1,1.2
	c-1.7,0.2-3.3-0.6-4-2l-3.6-8.6l0,0l3.2-0.2c0.4,0,0.8-0.4,0.9-0.8c0-0.4-0.3-0.8-0.7-0.7l-5.4,0.3l-1.1,0.1h-0.8v0.5l0,0l0,0
	c0,0.1-0.1,0.2-0.1,0.3c0,0.1,0,0.3,0.1,0.4l0,0l0.1,12.1c-0.3,3.4,2,6.2,5.4,6.4l16.8,1l-6.8,10.2l-4.9,0.3c-0.4,0-0.8,0.4-0.9,0.8
	c0,0.4,0.3,0.8,0.7,0.7l3.9-0.2l2.5-0.1l1.2-0.1c1-0.1,2-0.4,2.8-1.1l4-3.1l3.5-0.2c0.4,0,0.8-0.4,0.9-0.8c0-0.4-0.3-0.8-0.7-0.7
	l-1.4,0.1l1.4-1.1l4.8-0.3c0.4,0,0.8-0.4,0.9-0.8c0-0.4-0.3-0.8-0.7-0.7l-2.8,0.2l3.7-2.8l31.1-1.9c0.5,0,1.1-0.2,1.6-0.4
	c0.5-0.2,1-0.5,1.4-0.9c0.9-0.9,1.5-2,1.6-3.2c0-0.6,0-1.1-0.2-1.6c0-0.1-0.1-0.3-0.2-0.4l-4.2,0.3
	C204.2,130.2,203.5,129.9,203,129.5z M173,129.2l-0.2,1.8c-0.1,0.6-0.6,1.1-1.2,1.2l-0.9,0.1c-0.6,0-1.1-0.4-1-1l0.2-1.8
	c0.1-0.6,0.6-1.1,1.2-1.2l0.9-0.1C172.6,128.1,173.1,128.6,173,129.2L173,129.2z M178.1,130.7c-0.1,0.6-0.6,1.1-1.2,1.2L176,132
	c-0.6,0-1.1-0.4-1-1l0.2-1.8c0.1-0.6,0.6-1.1,1.2-1.2l0.9-0.1c0.6,0,1.1,0.4,1,1L178.1,130.7z M183.3,130.4
	c-0.1,0.6-0.6,1.1-1.2,1.2l-0.9,0.1c-0.6,0-1.1-0.4-1-1l0.2-1.8c0.1-0.6,0.6-1.1,1.2-1.2l0.9-0.1c0.6,0,1.1,0.4,1,1L183.3,130.4z
	 M188.5,130.1c-0.1,0.6-0.6,1.1-1.2,1.2l-0.9,0.1c-0.6,0-1.1-0.4-1-1l0.2-1.8c0.1-0.6,0.6-1.1,1.2-1.2l0.9-0.1c0.6,0,1.1,0.4,1,1
	L188.5,130.1z M193.7,129.8c-0.1,0.6-0.6,1.1-1.2,1.2l-0.9,0.1c-0.6,0-1.1-0.4-1-1l0.2-1.8c0.1-0.6,0.6-1.1,1.2-1.2l0.9-0.1
	c0.6,0,1.1,0.4,1,1L193.7,129.8z"/>
<g>
	
		<radialGradient id="SVGID_2_" cx="53.4372" cy="1411.0291" r="6.8587" gradientTransform="matrix(1 0 0 1 0 -1300.2046)" gradientUnits="userSpaceOnUse">
		<stop  offset="0" style="stop-color:#FF9EBB"/>
		<stop  offset="1" style="stop-color:#EB1353"/>
	</radialGradient>
	<circle class="st5" cx="54.5" cy="112.2" r="8.6"/>
</g>
</svg>
