<?xml version="1.0" encoding="utf-8"?>
<!-- Generator: Adobe Illustrator 22.0.0, SVG Export Plug-In . SVG Version: 6.00 Build 0)  -->
<svg version="1.1" id="圖層_2_拷貝_2" xmlns="http://www.w3.org/2000/svg" xmlns:xlink="http://www.w3.org/1999/xlink" x="0px"
	 y="0px" viewBox="0 0 559.5 118.5" style="enable-background:new 0 0 559.5 118.5;" xml:space="preserve">
<style type="text/css">
	.st0{fill:#00307C;}
	.st1{fill:#FFFFFF;}
	.st2{fill:#EB1353;}
</style>
<g>
	<path class="st0" d="M91.2,28.3l-0.1,1.3l7.9-0.5l0.1-1.2c0.1-0.7,0.8-1.1,2.3-1.2c1.4,0,2.1,0.4,2.1,1l-0.1,1l7.7-0.5
		c0.9,0,1.3,0.8,1.3,2.1c-0.2,1.4-0.8,2.1-1.8,2.2l-7.6,0.5l-0.1,1.5l2.4-0.1c2.2-0.1,3.1,0.8,2.9,2.9l-0.5,5.6
		c-0.2,2.2-1.3,3.3-3.2,3.3l-8.6,0.5L95.7,48l11-0.7c2.1-0.1,3,0.9,2.8,3.1l-0.6,7c0,2.9-1.6,4.4-4.8,4.3c-1,0-2.4-0.2-4.4-0.5
		c-1.8-1.3-1.6-2.5,0.6-3.7c0.3,0.1,0.8,0.1,1.6,0.2c0.9,0.1,1.6,0.2,2.1,0.2c0.3,0,0.5-0.1,0.6-0.3l0.5-5.9c0-0.3-0.1-0.4-0.4-0.4
		l-2.1,0.1c1,1.6,1.7,2.9,1.9,4c-0.8,1.7-1.9,2-3.2,0.9c-4,0.7-8,1.4-12,2c-2,0.4-4,0.7-5.8,0.8c-1.1,0.1-1.6-0.6-1.5-2
		c0-1.3,0.7-2,2.1-2.2c2.2-0.2,4.4-0.5,6.7-0.8l0.2-1.9l-9.4,0.6c-0.3,0-0.5,0.1-0.5,0.3l-0.7,8.4c-0.2,0.9-1,1.4-2.4,1.6
		c-1.4,0-2-0.5-2-1.4l0.8-9.5c0.2-2,1.2-3.1,3.2-3.3l11.1-0.7l0.1-1.2l-9.1,0.5c-1.9,0.2-2.7-0.8-2.4-2.9l0.5-6.1
		c0.1-1.7,1.1-2.6,2.9-2.8l2.7-0.2l0.1-1.5l-7.9,0.5c-1.1,0.1-1.6-0.6-1.4-2.1c0.2-1.3,0.9-2,2.1-2.2l7.6-0.5l0.1-1.3
		C88.3,27,89.8,26.9,91.2,28.3z M84.5,44.1l7.3-0.4l0.1-1.2L84.6,43L84.5,44.1z M84.8,40.3l7.3-0.4l0.1-1.2l-7.3,0.4L84.8,40.3z
		 M98.7,33.4l-8,0.5l-0.1,1.5l8-0.5L98.7,33.4z M95.4,51.9l-0.1,1.6c1.3-0.1,2.6-0.3,3.9-0.5l-0.6-1.3L95.4,51.9z M96.1,43.5
		l7.1-0.4l0.1-1.2l-7.1,0.4L96.1,43.5z M103.6,39.2l0.1-1.2l-7.1,0.4l-0.1,1.2L103.6,39.2z"/>
	<path class="st1" d="M78.2,66.1C78.1,66.1,78.1,66.1,78.2,66.1c-1.7,0-3-0.5-3.9-1.5c-0.8-0.8-1.1-1.9-1-3.1L74,52
		c0.2-2.3,1.3-4.1,3.1-5.1c-0.2-0.7-0.2-1.6-0.1-2.5l0.5-6c0-0.3,0.1-0.5,0.1-0.8c-1-0.1-1.8-0.5-2.5-1.2c-1-1-1.4-2.4-1.2-4.1
		c0-0.1,0-0.1,0-0.2c0.4-2.6,2.2-4.3,4.6-4.7c0.1,0,0.2,0,0.2,0l5.3-0.3c0.1-0.2,0.3-0.4,0.5-0.6c3.4-3.3,6.7-2.3,8.7-0.2
		c0.1,0.1,0.2,0.2,0.2,0.3l2.9-0.2c0.5-1.1,1.8-2.3,4.7-2.5c0.1,0,0.1,0,0.2,0c2.5,0,3.8,1,4.4,1.9l5.1-0.3c0.1,0,0.2,0,0.3,0
		c1.9,0.1,4.2,1.5,4.1,5.2c0,0.1,0,0.3,0,0.4c-0.6,3.8-3.1,4.5-4.3,4.7c0.1,0.6,0.1,1.3,0,2.1l-0.5,5.6c-0.1,0.7-0.2,1.3-0.4,1.9
		c0.3,0.2,0.6,0.5,0.8,0.7c1.1,1.2,1.6,2.8,1.4,4.8l-0.6,6.8c0,2.2-0.7,3.9-1.9,5.2c-1.4,1.4-3.4,2-5.9,2c-1.1,0-2.7-0.2-4.7-0.5
		c-0.5-0.1-0.9-0.3-1.3-0.5c-1.6-1.1-2.2-2.3-2.4-3.3c-1.9,0.3-3.9,0.6-5.8,0.9c-2.1,0.4-4.2,0.7-6.2,0.8c-0.1,0-0.2,0-0.3,0
		c-0.2,1.1-1.1,3.5-4.9,4C78.4,66.1,78.3,66.1,78.2,66.1z M102,28.2L102,28.2C102,28.2,102,28.2,102,28.2z"/>
</g>
<g>
	<path class="st0" d="M116.3,41.9c-1.2,0.1-1.7-0.6-1.6-2.1c0.1-1.5,0.8-2.3,2-2.5l29.9-1.8c1.3,0,1.9,0.8,1.7,2.4
		c-0.2,1.4-1,2.1-2.4,2.2l-8.2,0.5l-1.1,12.3c-0.1,1,0.4,1.4,1.5,1.4l2.8-0.2c1.3,0.2,2.1-1.5,2.4-5.3c0.1-1.2,0.8-1.8,2.2-1.9
		c1.4,0,2.1,0.6,2.1,1.8c-0.3,6.9-2.7,10.1-7.2,9.7l-3.4,0.2c-4,0.3-5.7-1.3-5.2-4.8l1.1-12.9l-4.5,0.3c-1,8.9-4.4,15-10.5,18.4
		c-1.9,1.1-3.2,1.4-4.1,0.8c-1.3-1.2-1.1-2.4,0.6-3.7c5.8-3,8.9-8.1,9.3-15.3L116.3,41.9z M120.7,32.3c-1.3,0.1-1.9-0.7-1.7-2.2
		c0.3-1.5,1.1-2.3,2.4-2.5l23.3-1.4c1.2,0,1.8,0.8,1.7,2.2c-0.1,1.6-0.8,2.4-2,2.5L120.7,32.3z"/>
	<path class="st1" d="M115,63.7c-0.9,0-1.8-0.2-2.6-0.7c-0.2-0.1-0.3-0.2-0.4-0.3c-1.6-1.5-1.8-3-1.8-4c0.1-1.6,1-3,2.6-4.3
		c0.1-0.1,0.3-0.2,0.4-0.3c3.9-2,6.2-5.1,7.2-9.4l-3.9,0.2l0,0c-1.4,0.1-2.6-0.4-3.5-1.3c-1-1-1.4-2.4-1.2-4.1
		c0.2-2.9,1.9-4.8,4.6-5.2c0.1,0,0.2,0,0.2,0l1.1-0.1c-0.1-0.1-0.3-0.2-0.4-0.3c-1-1-1.4-2.4-1.3-4.2c0-0.1,0-0.3,0.1-0.4
		c0.6-2.7,2.4-4.5,5-4.8c0.1,0,0.1,0,0.2,0l23.3-1.4c0.1,0,0.2,0,0.2,0c2.4,0.1,4.7,1.7,4.7,5.3c0,0.1,0,0.1,0,0.2
		c-0.2,1.9-0.9,3.2-1.9,4c1.2,0.2,2,0.9,2.5,1.4c0.9,1,1.3,2.4,1.2,4.2c0,0.1,0,0.1,0,0.2c-0.4,2.8-2.4,4.6-5.2,4.7l-5.6,0.3
		l-0.7,7.7l0.2,0c0.1-0.5,0.3-1.3,0.4-2.6c0.2-2.7,2.2-4.5,5-4.6c0.1,0,0.1,0,0.2,0c3,0,5,2,5,4.8c0,0,0,0.1,0,0.1
		c-0.2,5.1-1.5,8.5-3.9,10.6c-1.2,1-3.2,2.2-6.4,2l-3.2,0.2c-3,0.3-5.3-0.4-6.8-2c-1.4-1.5-1.9-3.6-1.6-6.1l0.2-2.1
		c-2,4.8-5.2,8.5-9.5,10.9C118.8,62.7,117,63.7,115,63.7z M116.3,41.9L116.3,41.9L116.3,41.9z M116.2,38.9
		C116.2,38.9,116.2,38.9,116.2,38.9L116.2,38.9z M120.6,30.4l0.1,1.9L120.6,30.4z M120.6,30.1L120.6,30.1l-0.1-0.9c0,0,0,0,0,0
		L120.6,30.1z"/>
</g>
<g>
	<path class="st0" d="M168,31.5c1.3-2.2,2.4-4.6,3.4-7c0.1-0.6,0.5-1.1,1.2-1.4c1.3-0.5,2.3-0.2,2.9,0.7c0,0.7-0.1,1.5-0.4,2.4
		l10.7-0.6c1.3,0,1.9,0.8,1.9,2.2c-0.2,1.5-1,2.3-2.3,2.3l-12.5,0.8c-0.6,0.8-1.4,1.9-2.4,3.4c-0.3,0.5-0.5,0.8-0.5,0.9
		c-0.9,1.1-1.9,1.5-2.9,1.2c-1.1-0.4-1.5-1.2-1-2.4c0.1-0.3,0.2-0.6,0.4-0.8l-5.8,0.3l-0.4,2.7l4-0.2c2-0.1,2.9,0.8,2.7,2.8
		l-0.7,7.8c-0.3,5.2-1.3,8.6-2.8,10c-0.9,0.9-2.2,1.5-4.1,1.7c-2.3-0.1-3.3-0.9-3.2-2.5c0.1-1.3,0.8-2,2.1-2.2
		c0.1,0.1,0.2,0.1,0.4,0.1c0.4,0.1,0.8,0.1,1.2-0.1c0.5,0.1,0.9-0.3,1.1-1.2c0.3-0.8,0.5-2.5,0.7-5.2l0.5-6.2
		c-0.1-0.2-0.2-0.3-0.4-0.4l-2.4,0.1c-1.4,7-2.9,12.4-4.5,16c-0.7,1.5-1.7,2.1-3,1.8c-1.3-0.4-1.7-1.4-1.1-2.9
		c2.7-6.3,4.5-13.7,5.4-22l-1.5,0.1c-1.3,0.1-1.9-0.6-1.9-2.1c0.2-1.5,1-2.3,2.3-2.5l3.4-0.2c-0.3-0.1-0.6-0.8-0.9-2.2
		c-0.2-1.1,0.3-1.8,1.4-2.3c1.2-0.5,2.1-0.2,2.7,0.7c0.9,1.8,1.2,3,0.9,3.5l3.4-0.2C167.9,28.6,168.4,29.6,168,31.5z M168.9,37.9
		c-0.1-1.7,1-2.7,3.2-3c2.9-0.7,6.4-1.9,10.4-3.6c1.3-0.5,2.2-0.2,2.7,0.9c0.3,1.4-0.2,2.4-1.4,3c-1.8,0.9-3.4,1.6-4.9,2.1
		c0,1.3,0.1,2.5,0.4,3.8l4.2-2.3c0.9-0.4,1.7-0.2,2.5,0.7c0.5,1.1,0.4,2-0.4,2.7c-0.9,0.6-2.8,1.7-5.5,3.3c0.3,2.9,1.6,5.3,3.7,7.3
		c1.2,1.1,1.3,2.3,0.4,3.7c-1.1,1.1-2.3,1.2-3.6,0.2c-3.7-3.5-5.7-9.5-6-18l-1.2,0.4l-1.1,13.2c1.2-0.4,1.9-0.6,2.1-0.7
		c1.1-0.3,1.9,0.2,2.3,1.3c0.2,1.1-0.2,1.9-1.2,2.4c-3.8,1.4-6.1,2-7,1.7c-0.9-0.1-1.2-1.3-0.9-3.3L168.9,37.9z"/>
	<path class="st1" d="M152.8,61.7c-0.4,0-0.9-0.1-1.4-0.2c0,0-0.1,0-0.1,0c-1.8-0.6-2.7-1.7-3.1-2.5c-0.6-1.3-0.6-2.8,0.1-4.4
		c2.2-5.3,3.9-11.3,4.8-18c-0.7-0.2-1.2-0.6-1.6-1c-0.7-0.7-1.5-1.9-1.4-3.9c0-0.1,0-0.3,0-0.4c0.4-2.8,2.2-4.6,4.8-5
		c0.1-2,1.2-3.6,3.3-4.5c2.6-1,5-0.3,6.4,1.9c0.1,0.1,0.1,0.2,0.2,0.3c0.3,0.5,0.6,1.1,0.8,1.7l0.7,0c0.1,0,0.1,0,0.2,0
		c0.4,0,0.8,0,1.1,0.1c0.3-0.7,0.7-1.5,1-2.2c0.4-1.3,1.3-2.4,2.6-3.1c0.1-0.1,0.3-0.1,0.4-0.2c2.6-0.9,5-0.2,6.4,1.9
		c0.2,0.2,0.3,0.5,0.4,0.8l7.3-0.4c0.1,0,0.2,0,0.2,0c1.9,0,3.1,0.9,3.7,1.6c0.8,0.9,1.2,2.2,1.2,3.6c0,0.1,0,0.3,0,0.4
		c-0.3,1.8-1.1,3.2-2.4,4c0.2,1.6-0.3,3-1.2,4.2c0.5,0.3,0.9,0.8,1.3,1.3c0.1,0.2,0.3,0.4,0.4,0.6c1,2.3,0.6,4.6-1.2,6.1
		c-0.1,0.1-0.2,0.1-0.3,0.2c-0.8,0.5-2,1.3-3.8,2.3c0.4,1.4,1.2,2.5,2.3,3.6c2.3,2.1,2.6,5,0.9,7.5c-0.1,0.1-0.2,0.3-0.3,0.4
		c-2.2,2.3-5.1,2.5-7.6,0.5c-0.1-0.1-0.1-0.1-0.2-0.2c-0.4-0.4-0.8-0.8-1.2-1.3c-0.2,0.1-0.3,0.2-0.5,0.3c-0.1,0.1-0.2,0.1-0.4,0.2
		c-5.3,2-7.3,2.2-8.7,1.9c-0.6-0.1-1.4-0.4-2.1-1.1c-1.4,1.4-3.4,2.3-5.9,2.6c-0.1,0-0.3,0-0.4,0c-1.3,0-2.5-0.3-3.4-0.8
		C155.1,61.3,154,61.7,152.8,61.7z M170.5,55.2L170.5,55.2L170.5,55.2z M169,54C169,54,169,54,169,54C169,54,169,54,169,54z
		 M160.4,50.8C160.4,50.8,160.4,50.8,160.4,50.8C160.4,50.8,160.4,50.8,160.4,50.8z M183.6,34.1L183.6,34.1L183.6,34.1z M159.7,26.2
		L159.7,26.2L159.7,26.2z"/>
</g>
<g>
	<path class="st0" d="M191.7,34.8l3.7-0.2c1.4,0,2,0.9,2,2.7l-1,11.4c1.2,2.2,3.8,3.2,7.7,3.1l17.2-1c1.2-0.1,1.7,0.4,1.6,1.5
		c-0.1,1.2-0.7,1.8-1.9,1.9l-17.4,1c-3.2,0.1-5.9-0.8-8.3-2.7c-0.5-0.3-1-0.2-1.5,0.1c-0.2,0.2-0.5,0.5-0.8,0.9
		c-0.3,0.4-0.7,0.9-1,1.5c-1.2,1-2.1,1.4-2.9,1.1c-1.1-0.8-1.3-1.8-0.5-2.9c1.1-1.3,2.5-2.7,4.1-4.2l0.8-9.6c0-0.4-0.1-0.6-0.5-0.7
		l-1.6,0.1c-1.5,0.2-2.1-0.4-1.8-1.8C189.6,35.6,190.3,35,191.7,34.8z M196.9,30.5c-1.3,0.6-2.2,0.3-2.6-0.9
		c-0.3-0.5-0.7-1.2-1.3-2.1c-0.3-0.4-0.5-0.8-0.8-1.3c-0.6-1.3-0.2-2.3,1-2.9c1.1-0.5,2.1-0.2,2.9,0.7c0.1,0.3,0.2,0.6,0.4,0.9
		c0.8,1.1,1.3,2.1,1.5,2.9C198.3,29,197.9,29.9,196.9,30.5z M210.1,27.9l-4.9,0.3l-0.2,2.4l3.6-0.2c1.5,0,2.2,0.7,2.2,1.9
		c-0.1,0.8-0.1,1.5-0.2,2.1c-0.2,4.1-0.4,7.8-0.8,11.1c-0.7,3.1-2.7,4.4-6.1,3.9c-1.3,0-1.9-0.5-1.8-1.4c0.1-1.3,0.8-1.9,1.9-1.9
		c1.6,0.2,2.3-0.1,2.3-1c0-0.3,0.1-0.6,0.1-0.9c0.6-4.2,0.9-7.4,1-9.8c0-0.3-0.2-0.5-0.7-0.5l-1.8,0.1l-0.1,0.7
		c-0.7,5.3-1.7,9.6-3.2,12.8c-0.9,1.7-2,2.3-3.1,1.7c-1.2-0.3-1.2-1.5,0-3.4c1.4-3.1,2.3-7.2,2.8-12.2l0.4-5.2
		c-1.4,0.1-2.1-0.5-2.1-1.8c0.2-1.2,1-1.9,2.4-2.1l2.2-0.1c-0.1-0.6-0.3-1.1-0.3-1.5c-0.3-1.3,0-2.1,0.8-2.4
		c1.2-0.4,2.1-0.2,2.6,0.4c0.1,0.3,0.2,0.9,0.4,1.9c0.2,0.5,0.3,0.9,0.5,1.3l1.9-0.1c1.1,0,1.7,0.6,1.8,1.8
		C211.8,27.2,211.2,27.9,210.1,27.9z M218.8,22c-0.1,0.2-0.2,0.4-0.2,0.6c-0.1,0.2-0.2,0.4-0.2,0.5l6.1-0.4c1.1,0,1.6,0.7,1.6,2
		c-0.2,1.3-0.9,2-1.9,2l-7.4,0.4c-0.2,0.3-0.5,0.7-0.8,1.1c-0.3,0.4-0.6,0.7-0.7,0.9c0,0.1-0.1,0.2-0.2,0.2c-0.1,0.1-0.1,0.2,0,0.1
		l7-0.4c1.5,0,2.1,0.5,1.9,1.5c-0.1,1.1-1.5,2.7-4.1,5c0.3,0.8,0.7,1.4,1,2l3-0.2c0.9,0,1.3,0.6,1.2,1.7c-0.1,1.1-0.6,1.7-1.5,1.7
		l-2.1,0.1c0,0.6,0,1.2,0,1.9c-0.3,2.1-1,3.7-2,4.8c-2.2,1.7-4.8,2-7.6,0.8c-1-0.5-1.4-1.2-1-2.1c0.5-1.1,1.3-1.5,2.3-1.3
		c1.1,0.3,1.9,0.5,2.5,0.4c1,0.1,1.6-0.6,1.8-2.3c0.1-0.7,0.1-1.3,0.2-1.9l-5.2,0.3c-1.2,0.1-1.7-0.4-1.6-1.5
		c0.1-1.1,0.7-1.7,1.9-1.9l3.9-0.2l-0.1-0.1c-0.7-0.9-1-1.5-0.7-1.7c0-0.4,0.6-1.3,1.7-2.6c0.3-0.2,0.5-0.4,0.6-0.6l-3.7,0.2
		c-1.2,0-1.5-0.8-1-2.3c-1,0.4-1.7,0.2-2-0.6c-0.3-0.7-0.1-1.5,0.6-2.4c1.1-1.1,2.2-3.2,3.3-6.2c0.4-0.9,1.1-1.3,2.2-1.2
		C218.4,20.4,218.9,21,218.8,22z"/>
	<path class="st1" d="M189.7,59.1c-0.7,0-1.3-0.2-1.8-0.4c-0.2-0.1-0.4-0.2-0.5-0.3c-2.4-1.8-2.9-4.6-1.2-7.1c0-0.1,0.1-0.1,0.1-0.2
		c1-1.2,2.1-2.4,3.5-3.7l0.5-5.8c-1.4-0.1-2.2-0.8-2.8-1.3c-0.6-0.7-1.3-1.9-0.9-3.8c0.1-2,1.4-4.2,4.7-4.7c0.1,0,0.1,0,0.2,0l0.6,0
		c-0.2-0.3-0.3-0.5-0.4-0.9c-0.2-0.4-0.6-1-1.1-1.7c-0.3-0.5-0.6-1-0.9-1.5c0-0.1-0.1-0.2-0.1-0.2c-1.2-2.8-0.2-5.5,2.5-6.8
		c0,0,0.1,0,0.1-0.1c2.3-0.9,4.7-0.4,6.3,1.5c0.2,0.2,0.3,0.4,0.4,0.6c0.6-0.4,1.3-0.7,2-0.9c0.1-2.1,1.4-3.4,2.7-3.9
		c0.1,0,0.2-0.1,0.3-0.1c3.4-1,5.2,0.6,5.8,1.4c0.3,0.3,0.5,0.7,0.6,1.2c0,0.2,0.1,0.4,0.2,0.8c0.6,0,1.1,0.1,1.6,0.3
		c0.2-0.4,0.3-0.8,0.5-1.2c0.9-2.2,2.9-3.4,5.3-3.1c0.1,0,0.2,0,0.3,0.1c1.5,0.4,2.7,1.3,3.2,2.6l2.9-0.2c0.1,0,0.2,0,0.3,0
		c2.3,0.1,4.5,1.6,4.5,5c0,0.2,0,0.3,0,0.5c-0.3,1.7-1.1,3-2.3,3.8c0.2,0.6,0.3,1.3,0.2,2c-0.1,1.1-0.7,2.3-1.8,3.6
		c0.9,0.3,1.5,0.8,1.8,1.2c0.5,0.6,1.2,1.8,1,3.5c-0.2,2.3-1.6,4-3.7,4.4c-0.3,1.6-0.7,3-1.4,4.2c0.9,0.2,1.5,0.7,1.9,1.1
		c0.6,0.6,1.3,1.7,1.1,3.5c-0.2,2.6-2.1,4.5-4.7,4.6l-17.4,1c-3.3,0.1-6.3-0.7-8.9-2.3c-0.1,0.2-0.2,0.4-0.4,0.6
		c-0.2,0.3-0.4,0.5-0.6,0.8C192.3,58.6,190.9,59.1,189.7,59.1z M189.6,36.8L189.6,36.8L189.6,36.8z M196.9,30.5L196.9,30.5
		L196.9,30.5z M210,24.9C210,24.9,210,24.9,210,24.9L210,24.9L210,24.9z"/>
</g>
<g>
	<path class="st0" d="M230.9,25.2l2.5-0.2l0.4-4.1c0.1-1.2,0.8-1.8,2.2-1.9c1.3,0,1.9,0.6,1.9,1.8l-0.3,4l1.8-0.1
		c1.1,0,1.6,0.7,1.6,2c-0.2,1.3-0.9,2-1.9,2l-1.8,0.1l-0.5,5.6c1-0.7,1.8-0.8,2.4-0.4c0.7,0.5,0.9,1.2,0.7,2.3
		c-0.1,0.6-1.2,1.6-3.5,3.2l-0.9,10.5c-0.3,2.4-1.5,3.6-3.7,3.8c-1.4,0-2.5-0.2-3.5-0.7c-1-0.4-1.4-1.1-1.1-2.1c0.3-0.9,1-1.3,2-1.3
		c0.1,0.1,0.3,0.2,0.7,0.3c1,0.2,1.5,0,1.6-0.8l0.6-7.4c-1.3,0.9-2.2,1.3-2.9,1.2c-1.3,0-1.8-0.8-1.6-2.3c0.3-0.7,0.7-1.3,1.5-1.7
		c0.3-0.2,0.9-0.5,1.7-1c0.7-0.4,1.3-0.8,1.7-1.1l0.7-7.7l-2.7,0.2c-1.3,0.1-1.9-0.5-1.9-1.8C228.8,26.1,229.6,25.4,230.9,25.2z
		 M239.3,49.7l2.2-25.3c0-2.7,1.2-4,3.6-4c6.2-0.6,11.2-1.2,15.3-1.9c1.6-0.2,2.5,0.4,2.7,1.8c-0.1,1.3-1,2.1-2.6,2.5
		c-0.6,0.1-1.5,0.3-2.7,0.5c-1.2,0.2-1.9,0.3-2.2,0.3l-0.6,7.4l6.1-0.4c1.1,0,1.6,0.7,1.5,2c-0.2,1.3-0.9,2-1.9,2l-5.8,0.3
		c-0.2,6.7,0.8,10.8,2.9,12.5c0.1-0.1,0.3-0.7,0.4-1.8c0.2-1,0.3-2.3,0.5-3.9c0.1-1.2,0.7-1.8,1.9-1.9c1.2,0,1.8,0.6,1.8,1.8
		c-0.5,6.5-1.6,10.1-3.4,10.7c-1.5,0.3-2.9-0.3-4.3-1.7c-2.9-2.4-4.1-7.6-3.8-15.5l-5.9,0.4l-0.9,10.5c0.4-0.3,1.4-1.3,3.1-2.8
		c0.9-0.7,1.7-0.8,2.5-0.3c0.8,0.6,1,1.4,0.4,2.3c-0.6,0.7-1.1,1.3-1.6,1.9c0.4,0.1,1,0.3,1.7,0.6c0.9,0.7,1.7,1.4,2.3,2.1
		c0.5,0.9,0.4,1.7-0.4,2.5c-1,0.7-1.8,0.8-2.7,0.3c-0.7-0.5-1.5-1.2-2.3-2.1c-0.7-0.5-0.9-0.9-0.8-1.4c-1.6,1.2-2.7,2-3.3,2.4
		C240.4,52.5,239.2,52,239.3,49.7z M245,31.4l5.8-0.3l0.6-7.1l-4.8,0.6c-0.7,0-1.1,0.3-1.1,0.8L245,31.4z"/>
	<path class="st1" d="M231.7,56.7C231.7,56.7,231.7,56.7,231.7,56.7c-1.8,0-3.4-0.3-4.7-0.9c-2.4-1-3.5-3.3-2.8-5.7
		c0.6-2.1,2.2-3.3,4.4-3.5l0.1-0.8c-1.6-0.1-2.6-0.9-3.1-1.5c-0.6-0.7-1.3-2-1-4.2c0-0.2,0.1-0.4,0.1-0.6c0.5-1.3,1.4-2.4,2.7-3.2
		c0.4-0.3,1-0.6,1.8-1.1c0.1-0.1,0.2-0.1,0.3-0.2l0.2-2.9c-1.4-0.1-2.4-0.7-2.9-1.2c-0.6-0.6-1.4-1.7-1.4-3.6c0-0.2,0-0.4,0.1-0.7
		c0.6-2.5,2.4-4.1,4.9-4.5c0.1,0,0.1,0,0.2,0l0.1-1.6c0.2-2.7,2.2-4.5,5-4.6c0.1,0,0.2,0,0.2,0c2.2,0,3.9,1.2,4.6,3
		c1.1-1,2.5-1.5,4.3-1.6c6-0.6,11-1.2,14.9-1.9c0.1,0,0.1,0,0.2,0c3.2-0.4,5.6,1.3,6,4.3c0,0.2,0,0.4,0,0.6
		c-0.1,1.2-0.8,4.2-4.9,5.2c-0.7,0.2-1.7,0.3-2.9,0.5l-0.1,1.5l2.6-0.2c0.1,0,0.2,0,0.3,0c1.7,0.1,2.7,0.8,3.3,1.4
		c0.6,0.7,1.3,1.9,1.1,3.8c0,0.1,0,0.2,0,0.2c-0.3,2-1.5,3.5-3.1,4.2c1.8,0.7,2.9,2.3,2.9,4.5c0,0.1,0,0.1,0,0.2
		c-0.6,8.2-2.2,12.2-5.5,13.3c-0.1,0-0.3,0.1-0.4,0.1c-1.3,0.3-3.2,0.2-5.2-1c0,0-0.1,0.1-0.1,0.1c-0.1,0.1-0.2,0.2-0.4,0.3
		c-1.9,1.5-4.2,1.7-6.2,0.5c-0.1,0-0.1-0.1-0.2-0.1c-0.7-0.5-1.3-1-2-1.7c-0.4,0.3-0.7,0.5-0.9,0.7c-0.1,0.1-0.3,0.2-0.4,0.2
		c-2.3,1.1-4.2,1.1-5.7,0.1c-0.3-0.2-0.6-0.5-0.9-0.8c-1.1,1.9-3,3.1-5.5,3.2C231.9,56.7,231.8,56.7,231.7,56.7z M242.3,50.2
		L242.3,50.2L242.3,50.2z M231.3,47.5C231.3,47.5,231.3,47.5,231.3,47.5C231.3,47.5,231.3,47.5,231.3,47.5z M247.5,38.3l-0.1,1.3
		c0.1,0,0.2,0,0.3-0.1c0-0.4,0-0.8,0-1.2L247.5,38.3z"/>
</g>
<g>
	<path class="st0" d="M269.8,22.3c0.1-2.5,1.4-3.8,3.7-3.9l23.3-1.4c2.6-0.2,3.7,0.9,3.4,3l-2.1,25c-0.1,3.8-3.2,5.2-9.1,4.1
		c-1.4-0.3-1.9-1.1-1.7-2.3c0.4-1.3,1.3-1.9,2.7-1.8c2.8,0.6,4.1,0.2,3.8-1.1l0.5-5.8l-9.1,0.5l-0.7,8.4c-0.2,1.1-1,1.7-2.4,1.9
		c-1.5,0.1-2.2-0.4-2.1-1.5l0.7-8.6l-8.2,0.5c-0.7,3.9-1.8,7.2-3.1,10c-0.8,1.6-2,2.3-3.6,2.1c-1.5-0.5-1.8-1.5-0.9-3
		C267.7,44.2,269.3,35.5,269.8,22.3z M281.1,34.7l0.3-4l-7.9,0.5l-0.3,4L281.1,34.7z M274,26.7l7.9-0.5l0.3-4l-6.7,0.4
		c-0.9,0.1-1.3,0.5-1.3,1.3L274,26.7z M285.9,30.4l-0.3,4l9.1-0.5l0.3-4L285.9,30.4z M286.7,22l-0.3,4l9.1-0.5l0.2-2.8
		c0.1-0.8-0.2-1.2-0.9-1.1L286.7,22z"/>
	<path class="st1" d="M266.4,54.7c-0.3,0-0.6,0-0.9-0.1c-0.2,0-0.4-0.1-0.5-0.1c-2-0.7-2.9-1.9-3.2-2.9c-0.4-1-0.5-2.6,0.7-4.6
		c1.7-2.7,3.8-9.2,4.3-24.9c0,0,0,0,0,0c0.2-4,2.6-6.5,6.6-6.8l23.3-1.4c2.3-0.1,4.1,0.4,5.3,1.7c0.8,0.8,1.6,2.3,1.3,4.6l-2.1,24.9
		c-0.1,2.9-1.5,4.6-2.6,5.5c-2.2,1.8-5.5,2.2-10,1.3c0,0-0.1,0-0.1,0c-1.1-0.2-2-0.7-2.6-1.3c-0.8,0.7-1.9,1.2-3.2,1.4
		c-0.1,0-0.1,0-0.2,0c-1.8,0.1-3.1-0.3-4.1-1.3c-0.9-0.9-1.3-2.1-1.1-3.4l0.4-5.1l-2.4,0.1c-0.7,3.2-1.7,6-2.8,8.5c0,0,0,0.1,0,0.1
		C270.9,53.3,268.9,54.7,266.4,54.7z M288,41.6l-0.1,0.7c0.7-0.2,1.5-0.3,2.3-0.2c0.1,0,0.3,0,0.4,0.1c0.1,0,0.2,0,0.3,0.1l0.1-0.8
		L288,41.6z M281.1,34.7L281.1,34.7L281.1,34.7z"/>
</g>
<g>
	<path class="st0" d="M304.6,27c-0.4-1.2,0.1-2.1,1.6-2.9c0.5-0.2,1.1-0.5,1.7-0.8c4.8-2,9.2-4.7,13.1-8.3c1.5-1.2,3.1-1.1,4.9,0.1
		c3,2.4,6.5,4.4,10.7,6.1c2,0.8,3.1,1.7,3.2,2.8c-0.1,1.2-0.7,1.9-1.7,2.2c-1.1,0.4-2.8-0.2-5.2-1.6c0.5,1.6,0,2.6-1.6,3l-7.1,0.4
		l-0.2,2.8l11.1-0.7c1.1,0,1.6,0.7,1.6,2c-0.2,1.4-0.9,2.1-2,2.2l-11.1,0.7l-0.7,8.7l3-0.2c1.3-2.1,2.3-4.2,3.2-6.2
		c0.6-1.3,1.6-1.8,2.9-1.5c1.1,0.4,1.5,1.4,0.9,2.9c-1,1.9-1.8,3.4-2.5,4.6l4.8-0.3c1.2,0,1.8,0.6,1.9,1.7c-0.2,1.3-0.9,2-2.1,2.2
		l-29.6,1.8c-1.4,0-2.1-0.7-2.1-1.9c0.3-1.1,1.1-1.7,2.5-1.9l12.6-0.8l0.7-8.7l-11.4,0.7c-1.3,0.1-1.9-0.6-1.8-2
		c0.3-1.3,1.1-2,2.4-2.2l11.1-0.7l0.2-2.8l-7.1,0.4c-1.5,0.2-2-0.6-1.6-2.4c-1.3,0.9-2.4,1.5-3.4,1.8
		C305.8,28.7,304.8,28.3,304.6,27z M311.3,43.2c-0.3-0.6-1.2-2-2.4-4.3c-0.5-0.8-0.3-1.5,0.8-2.3c0.9-0.5,1.8-0.5,2.7,0.1
		c1.2,1.5,2,3,2.6,4.4c0.1,1.1-0.3,1.9-1.3,2.6C312.6,44.2,311.8,44,311.3,43.2z M313.8,24.6l17.2-1c-2.1-1-4.5-2.4-7.3-4.4
		c-0.8-0.4-1.4-0.4-2.1,0.1C319.3,21.3,316.7,23.1,313.8,24.6z"/>
	<path class="st1" d="M305.4,51.5C305.4,51.5,305.4,51.5,305.4,51.5c-3.1,0-5.1-2-5.1-5c0-0.2,0-0.5,0.1-0.7c0.6-2.3,2.4-3.8,5-4.1
		c0.1,0,0.1,0,0.2,0l1.3-0.1c-0.2-0.3-0.4-0.7-0.6-1.1c-0.4-0.6-0.6-1.3-0.7-2c-0.6-0.3-1-0.6-1.3-0.9c-0.7-0.7-1.4-1.9-1.2-3.9
		c0-0.1,0-0.3,0.1-0.4c0.2-0.9,0.6-1.6,1-2.3c-0.2-0.1-0.4-0.2-0.6-0.3c-1-0.7-1.7-1.7-2-3c-0.6-2,0-4.6,3.1-6.2
		c0.1,0,0.1-0.1,0.2-0.1c0.4-0.2,0.9-0.4,1.5-0.7c0.1,0,0.2-0.1,0.3-0.1c4.5-1.8,8.6-4.4,12.3-7.7c0,0,0.1-0.1,0.2-0.1
		c2.5-2,5.6-2,8.5,0.1c0,0,0.1,0.1,0.1,0.1c2.7,2.2,6.1,4.1,10,5.7c3.1,1.2,4.8,2.9,5,5.2c0,0.2,0,0.4,0,0.6
		c-0.2,2.4-1.6,4.2-3.8,4.8c0,0-0.1,0-0.1,0c0.5,0.8,0.9,1.8,0.9,3.1c0,0.1,0,0.3,0,0.4c-0.4,2.3-1.7,3.9-3.5,4.5
		c0,0.8-0.1,1.6-0.4,2.6c0,0.1-0.1,0.2-0.1,0.3c2.5,0.2,4.3,1.9,4.5,4.3c0,0.3,0,0.5,0,0.8c-0.4,2.6-2.2,4.3-4.6,4.7
		c-0.1,0-0.2,0-0.2,0l-29.6,1.8C305.5,51.5,305.4,51.5,305.4,51.5z M305.3,45.5L305.3,45.5L305.3,45.5
		C305.3,45.5,305.3,45.5,305.3,45.5z M331.8,38.4L331.8,38.4L331.8,38.4z"/>
</g>
<g>
	<path class="st0" d="M347.7,19.2c-1.5,0.1-2.2-0.7-2.2-2.2c0.2-1.6,1.1-2.5,2.6-2.7l25.7-1.5c1.3,0,2,0.8,2,2.4
		c-0.3,1.6-1.1,2.4-2.4,2.5l-10.7,0.6l-0.5,5.5l12.2-0.7c1.3,0,1.9,0.8,1.9,2.2c-0.2,1.6-1,2.4-2.3,2.5l-11.4,0.7
		c2.8,5.8,6.5,9.7,11.1,11.5c2.3,0.9,2.9,2.2,1.9,3.7c-0.7,1.4-2.2,1.7-4.4,1c-5.4-2.3-9.4-6-11.8-10.9c-2.7,4.4-7,8.4-12.9,12.1
		c-2.4,1.5-3.9,1.7-4.6,0.4c-0.9-1.6-0.6-2.8,1-3.4c6.8-3.9,11.4-8.6,13.6-14.1l-10.7,0.6c-1.5,0.1-2.2-0.6-2.2-2.1
		c0.1-1.6,0.9-2.5,2.4-2.6l11.4-0.7l0.5-5.5L347.7,19.2z"/>
	<path class="st1" d="M343.4,50.2c-0.4,0-0.8,0-1.2-0.2c-1.2-0.3-2.2-1.1-2.8-2.2c-1.1-1.9-1-3.5-0.7-4.5c0.3-0.9,1.1-2.2,3-3.1
		c4.1-2.4,7.4-5.1,9.6-8.1l-5.2,0.3c-2,0.1-3.2-0.6-3.9-1.3c-0.7-0.7-1.5-1.8-1.4-3.8c0-0.1,0-0.1,0-0.2c0.2-2.9,2-4.8,4.6-5.3
		c-0.6-0.3-1.1-0.6-1.4-0.9c-0.7-0.7-1.5-1.9-1.5-4c0-0.1,0-0.2,0-0.4c0.4-2.9,2.4-4.8,5.2-5.2c0.1,0,0.1,0,0.2,0l25.7-1.5
		c0.1,0,0.2,0,0.2,0c2.2,0,4.8,1.4,5,5.3c0,0.2,0,0.5-0.1,0.7c-0.4,2.1-1.6,3.6-3.2,4.4c1.3,0.3,2.1,0.9,2.6,1.5
		c0.8,0.9,1.2,2.2,1.2,3.6c0,0.1,0,0.3,0,0.4c-0.4,3-2.3,4.9-5.1,5l-6.6,0.4c2,2.9,4.4,4.9,7.3,6.1c2.2,0.9,3.6,2.2,4.1,3.8
		c0.3,1,0.4,2.5-0.7,4.2c-0.7,1.2-2.8,4-7.9,2.3c-0.1,0-0.1-0.1-0.2-0.1c-4.5-1.9-8.1-4.7-10.8-8.3c-2.8,3.3-6.5,6.4-11,9.3
		C347,49.2,345.2,50.2,343.4,50.2z M359.4,30.8c0.1,0,0.1,0,0.2,0c0.3,0,0.6,0.1,0.9,0.2c-0.2-0.4-0.4-0.8-0.6-1.2
		c-0.1-0.2-0.2-0.5-0.2-0.7c0,0.3-0.1,0.7-0.2,1c-0.1,0.3-0.2,0.6-0.4,0.9C359.2,30.8,359.3,30.8,359.4,30.8z M358.8,26.8
		c0.1,0.1,0.2,0.2,0.2,0.3c0.3,0.4,0.4,0.8,0.5,1.2c0-0.5,0.2-0.9,0.4-1.3c0.2-0.3,0.3-0.5,0.6-0.7c-0.2-0.1-0.3-0.2-0.5-0.4
		c0,0,0,0,0,0C359.7,26.3,359.3,26.6,358.8,26.8z"/>
</g>
<g>
	<path class="st0" d="M385.7,16.9c-1.5,0.1-2.2-0.7-2.2-2.2c0.2-1.6,1.1-2.5,2.6-2.7l25.7-1.5c1.3,0,1.9,0.8,2,2.4
		c-0.3,1.6-1.1,2.4-2.4,2.5L400.8,16l-0.5,5.5l12.2-0.7c1.3,0,1.9,0.8,1.9,2.2c-0.2,1.6-1,2.4-2.3,2.5l-11.4,0.7
		c2.8,5.8,6.5,9.7,11.1,11.5c2.3,0.9,2.9,2.2,1.9,3.7c-0.7,1.4-2.2,1.7-4.4,1c-5.4-2.3-9.4-6-11.8-10.9c-2.7,4.4-7,8.4-12.9,12.1
		c-2.4,1.5-3.9,1.7-4.6,0.4c-0.9-1.6-0.6-2.8,1-3.4c6.8-3.9,11.4-8.6,13.6-14.1L384,27.2c-1.5,0.1-2.2-0.6-2.2-2.1
		c0.1-1.6,0.9-2.5,2.4-2.6l11.4-0.7l0.5-5.5L385.7,16.9z"/>
	<path class="st1" d="M381.5,47.9c-0.4,0-0.8,0-1.2-0.2c-1.2-0.3-2.2-1.1-2.8-2.2c-1.1-1.9-1-3.5-0.7-4.5c0.3-0.9,1.1-2.2,3-3.1
		c4.1-2.4,7.4-5.1,9.6-8.1l-5.2,0.3c-2,0.1-3.2-0.6-3.9-1.3c-0.7-0.7-1.5-1.8-1.4-3.8c0-0.1,0-0.1,0-0.2c0.2-2.9,2-4.8,4.6-5.3
		c-0.6-0.3-1.1-0.6-1.4-0.9c-0.7-0.7-1.5-1.9-1.5-4c0-0.1,0-0.2,0-0.4c0.4-2.9,2.4-4.8,5.2-5.2c0.1,0,0.1,0,0.2,0l25.7-1.5
		c0.1,0,0.2,0,0.2,0c2.2,0,4.8,1.4,5,5.3c0,0.2,0,0.5-0.1,0.7c-0.4,2.1-1.6,3.6-3.2,4.4c1.3,0.3,2.1,0.9,2.6,1.5
		c0.8,0.9,1.2,2.2,1.2,3.6c0,0.1,0,0.3,0,0.4c-0.4,3-2.3,4.9-5.1,5l-6.6,0.4c2,2.9,4.4,4.9,7.3,6.1c2.2,0.9,3.6,2.2,4.1,3.8
		c0.3,1,0.4,2.5-0.7,4.2c-0.7,1.2-2.8,4.1-7.9,2.3c-0.1,0-0.1-0.1-0.2-0.1c-4.5-1.9-8.1-4.7-10.8-8.3c-2.8,3.3-6.5,6.4-11,9.3
		C385,47,383.3,47.9,381.5,47.9z M397.5,28.5c0.1,0,0.1,0,0.2,0c0.3,0,0.6,0.1,0.9,0.2c-0.2-0.4-0.4-0.8-0.6-1.2
		c-0.1-0.2-0.2-0.5-0.2-0.7c0,0.3-0.1,0.7-0.2,1c-0.1,0.3-0.2,0.6-0.4,0.9C397.2,28.5,397.4,28.5,397.5,28.5z M396.9,24.5
		c0.1,0.1,0.2,0.2,0.2,0.3c0.3,0.4,0.4,0.8,0.5,1.2c0-0.5,0.2-0.9,0.4-1.3c0.2-0.3,0.3-0.5,0.6-0.7c-0.2-0.1-0.3-0.2-0.5-0.4
		c0,0,0,0,0,0C397.8,24,397.4,24.3,396.9,24.5z M385.6,15l0.2,1.9L385.6,15z M385.6,14.8L385.6,14.8l0-0.8c0,0,0,0-0.1,0L385.6,14.8
		z"/>
</g>
<g>
	<path class="st0" d="M421.5,13.9l2.5-0.2l0.3-3.8c0.1-1.2,0.8-1.9,2.2-2c1.3,0,1.9,0.6,1.9,1.8l-0.3,3.8l1.3-0.1
		c1.3,0,1.9,0.7,1.9,1.9c-0.2,1.3-1,2-2.2,2l-1.3,0.1l-0.5,6.2l0.9-0.5c1.2-0.5,2.1-0.2,2.6,0.9c0.3,1.3-0.1,2.3-1.3,3
		c-0.1,0.1-0.3,0.2-0.5,0.3c-0.7,0.4-1.5,0.8-2.2,1.2L426,38.8c0,2.8-1.4,4.1-4.2,3.8c-1.4-0.1-2.6-0.3-3.7-0.5
		c-1.1-0.5-1.6-1.3-1.3-2.4c0.4-1,1.2-1.5,2.3-1.5c0.1,0.1,0.2,0.1,0.4,0.1c1.6,0.3,2.3,0.1,2.3-0.7l0.6-7.2c-1,0.6-2,0.9-2.8,1
		c-1.5,0-2.1-0.8-1.9-2.2c0.1-1,0.8-1.8,2.1-2.3c0.3-0.1,0.7-0.3,1.1-0.5c0.8-0.3,1.4-0.6,1.8-0.8l0.7-7.7l-2.8,0.2
		c-1.1,0.1-1.6-0.6-1.5-2C419.6,14.8,420.3,14.1,421.5,13.9z M436,12.3l4.8-0.3l0.3-3c0.1-1.2,0.9-1.9,2.3-2.2
		c1.4,0,2.1,0.6,2.1,1.8l-0.3,3.1l4.6-0.3c2.6-0.3,3.7,0.7,3.5,2.9l-1.9,22.5c-0.1,2.2-1.5,3.3-4.1,3.3L434,41
		c-3.1,0.3-4.3-0.7-3.7-2.9l1.9-22.2C432.1,13.7,433.4,12.5,436,12.3z M435.6,37l3-0.2l0.7-8.7l-4,0.2l-0.7,7.8
		C434.5,36.9,434.8,37.2,435.6,37z M435.7,24.1l4-0.2l0.7-7.7l-3.1,0.2c-0.6,0.1-0.9,0.5-1,1.1L435.7,24.1z M447.7,27.6l-4,0.2
		l-0.7,8.7l3.1-0.2c0.6,0,0.9-0.3,1-0.9L447.7,27.6z M444.7,15.9l-0.7,7.7l4-0.2l0.6-6.5c0-0.7-0.3-1.1-0.8-1.1L444.7,15.9z"/>
	<path class="st1" d="M422.7,45.6c-0.4,0-0.7,0-1.1-0.1c-1.5-0.1-2.8-0.3-4-0.6c-0.2,0-0.4-0.1-0.6-0.2c-2.5-1.1-3.6-3.4-2.9-5.9
		c0-0.1,0.1-0.2,0.1-0.3c0.8-2.1,2.7-3.4,5.1-3.4l0.1-0.8c-1.7-0.2-2.7-0.9-3.2-1.6c-0.6-0.7-1.3-2-1-4c0.1-1.2,0.8-3.4,3.9-4.7
		c0,0,0.1,0,0.1-0.1c0.1,0,0.4-0.1,0.7-0.3c0.1,0,0.2-0.1,0.3-0.1c0.1,0,0.1,0,0.2-0.1l0.2-2.5c-1.1-0.1-2.1-0.5-2.8-1.2
		c-0.9-1-1.4-2.3-1.2-4c0-0.1,0-0.2,0-0.2c0.4-2.5,2.1-4.2,4.6-4.5c0.1,0,0.1,0,0.2,0l0.1-1.3c0.2-2.6,2-4.4,4.8-4.8
		c0.1,0,0.3,0,0.4,0c2.9,0,4.9,2,4.9,4.8c0,0.1,0,0.2,0,0.3l-0.1,0.8c0,0,0,0,0,0c1.1-0.8,2.6-1.4,4.3-1.5l2.2-0.1l0-0.4
		c0.2-2.5,2-4.3,4.7-4.9c0.2,0,0.4-0.1,0.6-0.1c3,0,5,1.9,5,4.7l1.1-0.1c2.3-0.2,4.1,0.3,5.3,1.6c0.8,0.8,1.6,2.2,1.3,4.6L454.2,37
		c-0.2,3.7-2.8,6-7,6.1l-13,0.8c-0.9,0.1-4,0.4-5.9-1.7c-0.3,0.7-0.8,1.4-1.4,1.9C425.8,45.1,424.3,45.6,422.7,45.6z M419,37.7
		C419,37.7,419,37.7,419,37.7C419,37.7,419,37.7,419,37.7z M428,24.5L428,24.5L428,24.5z M436,12.3L436,12.3L436,12.3z"/>
</g>
<g>
	<path class="st0" d="M475.5,20.8l3.6,4l1.6-1.7c1.1-1.2,2.1-1.9,3-1.9c1.3,0,1.9,0.8,1.9,2.2c-0.2,1.1-1,2.3-2.4,3.7l-1,1.1
		l2.3,2.8c0.5,0.6,0.8,1.2,0.7,1.9c-0.3,1.4-1.3,2.2-2.9,2.4c-0.9,0-1.6-0.2-2-0.5l-2.3-2.5c-3,2.3-5.9,3.6-8.8,3.8
		c-5.9,0.3-8.8-2.2-8.5-7.3c0.3-3.4,2.4-6.2,6.4-8.6c-1.6-1.4-2.2-3-1.9-4.9c0.5-4,3.3-6.2,8.4-6.8c4.9,0.2,7.4,2,7.4,5.4
		C480.6,16.4,478.8,18.8,475.5,20.8z M474.9,28.8l-5-5.7c-2.4,1.6-3.6,3.2-3.7,4.8c-0.1,2.4,1.1,3.5,3.5,3.5
		C471.6,31.3,473.3,30.5,474.9,28.8z M475.5,14.8c0-1.4-0.8-2.1-2.3-2.1c-1.4,0.3-2.2,1-2.4,2.1c-0.3,0.8,0.3,1.8,1.8,3.1
		C474.5,16.8,475.5,15.8,475.5,14.8z"/>
	<path class="st1" d="M468.5,39.1c-3.6,0-6.4-0.9-8.2-2.8c-1.8-1.8-2.7-4.4-2.5-7.6c0,0,0-0.1,0-0.1c0.3-3.4,2-6.5,5.1-9
		c-0.7-1.4-0.9-3-0.7-4.6c0.4-3.1,2.4-8.4,11-9.4c0.2,0,0.3,0,0.5,0c9.2,0.4,10.3,6,10.3,8.4c0,0.1,0,0.2,0,0.4
		c-0.2,1.5-0.7,2.9-1.5,4.2c0.4-0.1,0.8-0.2,1.1-0.2c0.1,0,0.2,0,0.2,0c1.8,0,2.9,0.8,3.5,1.4c0.9,1,1.4,2.3,1.4,3.9
		c0,0.2,0,0.3,0,0.5c-0.3,1.4-1,2.9-2.4,4.4l0.6,0.7c1.1,1.2,1.6,2.6,1.5,4.1c0,0.1,0,0.3-0.1,0.4c-0.6,2.6-2.6,4.3-5.4,4.7
		c-0.2,0-0.3,0-0.5,0c-1.4-0.1-2.5-0.4-3.4-0.9c-0.3-0.2-0.5-0.4-0.7-0.6l-0.5-0.6c-2.7,1.7-5.4,2.6-8.1,2.8
		C469.1,39.1,468.8,39.1,468.5,39.1z M478,29.3c0.6,0,1.1,0.2,1.6,0.5c-0.4-0.6-0.5-1.3-0.4-1.9c-0.1,0-0.1,0-0.2,0
		c-0.5,0-1-0.1-1.5-0.4c0.3,0.6,0.4,1.2,0.3,1.8C477.9,29.3,478,29.3,478,29.3z M469.3,28.3c0.1,0,0.3,0,0.5,0c0.2,0,0.5,0,0.7-0.1
		l-0.8-1c-0.3,0.4-0.3,0.6-0.3,0.6C469.3,28.1,469.3,28.2,469.3,28.3z M484.1,24.2L484.1,24.2L484.1,24.2z M472,20.8
		c0.1,0.1,0.2,0.2,0.3,0.3l0.3,0.4c0-0.2-0.1-0.4-0.1-0.6C472.3,20.9,472.1,20.9,472,20.8z M470.1,20.1c0.2,0,0.3,0,0.5,0.1
		c-0.2-0.2-0.4-0.3-0.6-0.5C470.1,19.8,470.1,19.9,470.1,20.1z M475.5,14.8L475.5,14.8L475.5,14.8z"/>
</g>
<g>
	<path class="st0" d="M7.7,108.1l2.1-25c0.2-2.2,1.4-3.4,3.6-3.6c2.1,0,3,1.1,3,3.2l-2.1,25c-0.3,2.1-1.5,3.2-3.5,3.3
		C8.5,111.2,7.5,110.2,7.7,108.1z"/>
	<path class="st1" d="M10.3,114c-1.8,0-3.2-0.5-4.2-1.6c-0.8-0.8-1.6-2.2-1.4-4.6l2.1-25c0.3-3.6,2.6-5.9,6.2-6.3l0.3,0
		c2.3,0,3.7,0.9,4.4,1.7c1.1,1.1,1.6,2.7,1.6,4.7l0,0.2l-2.2,25.2c-0.5,3.5-2.9,5.6-6.3,5.9C10.7,114,10.5,114,10.3,114z M13.4,82.5
		c-0.5,0.1-0.5,0.3-0.6,0.8L10.7,108c0.3,0,0.4-0.1,0.4-0.1l0,0c0,0,0.1-0.1,0.2-0.5L13.4,82.5C13.4,82.6,13.4,82.6,13.4,82.5z"/>
</g>
<g>
	<path class="st0" d="M23.3,107.2l1.9-22.1l-4.8,0.3c-1.6,0.1-2.4-0.9-2.3-2.9c0.3-1.8,1.2-2.9,2.8-3.1l16.4-1
		c1.7,0,2.6,0.9,2.7,2.7c-0.3,2.1-1.4,3.1-3.2,3.3l-4.8,0.3l-1.9,22.1c-0.4,2.1-1.6,3.2-3.7,3.3C24.2,110.2,23.2,109.2,23.3,107.2z"
		/>
	<path class="st1" d="M26,113.1c-1.8,0-3.2-0.5-4.2-1.6c-0.8-0.8-1.6-2.2-1.4-4.6l1.6-18.6l-1.4,0.1c-2,0.1-3.2-0.7-3.9-1.3
		c-1.1-1.1-1.7-2.7-1.6-4.7l0-0.4c0.5-3.2,2.4-5.2,5.4-5.6l0.2,0l16.5-1l0.1,0c3.3,0,5.5,2.2,5.7,5.6l0,0.3l0,0.3
		c-0.5,3.5-2.7,5.6-6,5.8l-2.2,0.1L33,107.4c-0.7,3.4-3,5.5-6.5,5.7C26.3,113.1,26.2,113.1,26,113.1z M28.5,81.9l-2.1,25.1
		c0.4,0,0.6-0.1,0.7-0.7l2.1-24.4L28.5,81.9z"/>
</g>
<g>
	<path class="st0" d="M39.2,106.2l2.1-24.7c0.3-2.1,1.5-3.3,3.6-3.6l11.4-0.7c1.7,0,2.6,0.9,2.7,2.7c-0.3,2.1-1.4,3.1-3.2,3.3
		l-8.1,0.5l-0.5,6.3l6.9-0.4c1.8,0,2.8,1,2.8,2.9c-0.4,2.1-1.5,3.2-3.4,3.3l-6.9,0.4l-0.8,9.6c-0.3,2.1-1.5,3.2-3.5,3.3
		C40,109.3,39,108.3,39.2,106.2z"/>
	<path class="st1" d="M41.8,112.1c-1.8,0-3.2-0.5-4.2-1.6c-0.8-0.8-1.6-2.2-1.4-4.6l2.1-24.8c0.5-3.3,2.7-5.6,6-6.2l0.3,0l11.5-0.7
		l0.1,0c3.3,0,5.5,2.2,5.7,5.6l0,0.3l0,0.3c-0.5,3.5-2.7,5.6-6,5.8l-5.5,0.3l0,0.3l3.6-0.2c3.4,0,5.7,2.3,5.8,5.8l0,0.3l-0.1,0.3
		c-0.7,3.4-2.9,5.5-6.1,5.7l-4.3,0.3l-0.6,7.2c-0.5,3.5-2.9,5.6-6.3,5.9C42.2,112.1,42,112.1,41.8,112.1z M44.3,81.9l-2.1,24.2
		c0.3,0,0.4-0.1,0.4-0.1l0,0c0,0,0.1-0.1,0.2-0.5l1-12.1l9.5-0.6c0.2,0,0.3-0.1,0.3-0.1c0,0,0,0,0.1-0.1l-9.8,0.6l1-12.2
		C44.5,81.2,44.3,81.4,44.3,81.9z"/>
</g>
<g>
	<path class="st0" d="M75.4,82.6c1.3-2.2,2.4-4.6,3.4-7c0.1-0.6,0.5-1.1,1.2-1.4c1.3-0.5,2.3-0.2,2.9,0.7c0,0.7-0.1,1.5-0.4,2.4
		l10.7-0.6c1.3,0,1.9,0.8,1.9,2.2c-0.2,1.5-1,2.3-2.3,2.3l-12.5,0.7c-0.6,0.8-1.4,1.9-2.4,3.4c-0.3,0.5-0.5,0.8-0.5,0.9
		c-0.9,1.1-1.9,1.5-2.9,1.2c-1.1-0.4-1.5-1.2-1-2.4c0.1-0.3,0.2-0.6,0.4-0.8l-5.8,0.3l-0.4,2.7l4-0.2c2-0.1,2.9,0.8,2.7,2.8
		l-0.7,7.8c-0.3,5.2-1.3,8.6-2.8,10c-0.9,0.9-2.2,1.5-4.1,1.7c-2.3-0.1-3.3-0.9-3.2-2.5c0.1-1.3,0.8-2,2.1-2.2
		c0.1,0.1,0.2,0.1,0.4,0.1c0.4,0.1,0.8,0.1,1.2-0.1c0.5,0.1,0.9-0.3,1.1-1.2c0.3-0.8,0.5-2.5,0.7-5.2l0.5-6.2
		c-0.1-0.2-0.2-0.3-0.4-0.4L67,92c-1.4,7-2.9,12.4-4.5,16c-0.7,1.5-1.7,2.1-3,1.8c-1.3-0.4-1.7-1.4-1.1-2.9c2.7-6.3,4.5-13.7,5.4-22
		L62.4,85c-1.3,0.1-1.9-0.6-1.9-2.1c0.2-1.5,1-2.3,2.3-2.5l3.4-0.2c-0.3-0.1-0.6-0.8-0.9-2.2c-0.2-1.1,0.3-1.8,1.4-2.3
		c1.2-0.5,2.1-0.2,2.7,0.7c0.9,1.8,1.2,3,0.9,3.5l3.4-0.2C75.3,79.8,75.8,80.8,75.4,82.6z M76.3,89.1c-0.1-1.7,1-2.7,3.2-3
		c2.9-0.7,6.4-1.9,10.4-3.6c1.3-0.5,2.2-0.2,2.7,0.9c0.3,1.4-0.2,2.4-1.4,3c-1.8,0.9-3.4,1.6-4.9,2.1c0,1.3,0.1,2.5,0.4,3.8l4.2-2.3
		c0.9-0.4,1.7-0.2,2.5,0.7c0.5,1.1,0.4,2-0.4,2.7c-0.9,0.6-2.8,1.7-5.5,3.3c0.3,2.9,1.6,5.4,3.7,7.3c1.2,1.1,1.3,2.3,0.4,3.7
		c-1.1,1.1-2.3,1.2-3.6,0.2c-3.7-3.5-5.7-9.5-6-18l-1.2,0.4l-1.1,13.2c1.2-0.4,1.9-0.6,2.1-0.7c1.1-0.3,1.9,0.2,2.3,1.3
		c0.2,1.1-0.2,1.9-1.2,2.4c-3.8,1.4-6.1,2-7,1.7c-0.9-0.1-1.2-1.3-0.9-3.3L76.3,89.1z"/>
	<path class="st1" d="M60.2,112.9c-0.4,0-0.9-0.1-1.4-0.2c0,0-0.1,0-0.1,0c-1.8-0.6-2.7-1.7-3.1-2.5c-0.6-1.3-0.6-2.8,0.1-4.4
		c2.2-5.3,3.9-11.3,4.8-18c-0.7-0.2-1.2-0.6-1.6-1c-0.7-0.7-1.5-1.9-1.4-3.9c0-0.1,0-0.3,0-0.4c0.4-2.8,2.2-4.6,4.8-5
		c0.1-2,1.2-3.6,3.3-4.5c2.6-1,5-0.3,6.4,1.9c0.1,0.1,0.1,0.2,0.2,0.3c0.3,0.5,0.6,1.1,0.8,1.7l0.7,0c0.1,0,0.1,0,0.2,0
		c0.4,0,0.8,0,1.1,0.1c0.3-0.7,0.7-1.5,1-2.2c0.4-1.3,1.3-2.4,2.6-3.1c0.1-0.1,0.3-0.1,0.4-0.2c2.6-0.9,5-0.2,6.4,1.9
		c0.2,0.2,0.3,0.5,0.4,0.8l7.3-0.4c0.1,0,0.2,0,0.2,0c1.9,0,3.1,0.9,3.7,1.6c0.8,0.9,1.2,2.2,1.2,3.6c0,0.1,0,0.3,0,0.4
		c-0.3,1.8-1.1,3.2-2.4,4c0.2,1.6-0.3,3-1.2,4.2c0.5,0.3,0.9,0.8,1.3,1.3c0.1,0.2,0.3,0.4,0.4,0.6c1,2.4,0.6,4.6-1.2,6.1
		c-0.1,0.1-0.2,0.1-0.3,0.2c-0.8,0.5-2,1.3-3.8,2.3c0.4,1.4,1.2,2.5,2.3,3.6c2.3,2.1,2.6,5,0.9,7.5c-0.1,0.1-0.2,0.3-0.3,0.4
		c-2.2,2.3-5.1,2.5-7.6,0.5c-0.1-0.1-0.1-0.1-0.2-0.2c-0.4-0.4-0.8-0.8-1.2-1.3c-0.2,0.1-0.3,0.2-0.5,0.3c-0.1,0.1-0.2,0.1-0.4,0.2
		c-5.3,2-7.3,2.2-8.7,1.9c-0.6-0.1-1.4-0.4-2.1-1.1c-1.4,1.4-3.4,2.3-5.9,2.6c-0.1,0-0.3,0-0.4,0c-1.3,0-2.5-0.3-3.4-0.8
		C62.4,112.5,61.4,112.9,60.2,112.9z M77.9,106.4L77.9,106.4L77.9,106.4z M76.3,105.1C76.3,105.1,76.3,105.1,76.3,105.1
		C76.3,105.1,76.3,105.1,76.3,105.1z M91,85.3L91,85.3L91,85.3z M67,77.4C67,77.4,67,77.4,67,77.4C67,77.4,67,77.4,67,77.4z"/>
</g>
<g>
	<path class="st0" d="M100.6,77.7c0.1-2.5,1.1-3.7,2.8-3.7l26.2-1.6c1.6-0.1,2.3,0.7,2.2,2.4l-0.4,5c-0.1,1.4-0.9,2.1-2.4,2.1
		l-3.6,0.2l-0.2,2.1l4.3-0.3c1.3,0,2,0.6,2.1,1.8c-0.1,1.3-0.8,2-2.1,2l-4.6,0.3l-0.2,1.9l4.9-0.3c1.2,0,1.8,0.7,1.9,1.9
		c-0.2,1.3-0.9,2-2.1,2l-11.1,0.7c0.6,1.5,1.3,2.8,2.3,3.7c1.9-0.9,3.6-1.9,5-3.1c1-0.7,1.9-0.6,2.6,0.3c0.6,0.9,0.4,1.8-0.5,2.7
		c-1.4,1.2-2.7,2-3.9,2.4c1.1,0.7,2.4,1.1,3.7,1.2c3.1,0.1,3.9,1.3,2.4,3.5c-0.6,0.8-1.9,0.9-4,0.4c-6.5-1.5-10.5-5.1-12.1-10.9
		l-3.6,0.2l-0.6,7.1c0.8-0.1,1.5-0.3,2.1-0.4c1.6-0.5,2.6-0.7,2.9-0.8c1.1,0.1,1.6,0.8,1.6,2c-0.1,0.9-0.7,1.5-1.8,1.9
		c-0.8,0.1-1.5,0.3-2.1,0.6c-1.6,0.5-3,0.9-4.1,1.1c-2.2,0.6-3.1-0.4-2.7-3.1l0.7-8.1l-3.6,0.2c-0.5,3-1.1,5.8-2,8.4
		c-0.8,2.4-1.9,3.4-3.4,3.1c-1.4,0-1.7-1-1.1-2.9c1.8-4.7,3-9.9,3.5-15.5L100.6,77.7z M106.5,85.3l3.7-0.2l0.2-2.1l-6.4,0.4
		l-0.4,4.7c-0.1,1.1-0.2,2.1-0.4,3.1l6.5-0.4l0.2-1.9l-3.7,0.2c-1.2,0.1-1.8-0.5-1.8-1.8C104.6,86.2,105.3,85.5,106.5,85.3z
		 M104.4,78l-0.2,1.8l23-1.4l0.2-1.8L104.4,78z M114,88.7l-0.2,1.9l6.7-0.4l0.2-1.9L114,88.7z M121,84.5l0.2-2.1l-6.7,0.4l-0.2,2.1
		L121,84.5z"/>
	<path class="st1" d="M97.7,109.8c-0.3,0-0.6,0-0.8-0.1c-1.9-0.1-2.9-1.1-3.3-1.8c-1.4-2-0.6-4.3-0.3-5.1c1.7-4.5,2.8-9.5,3.4-14.8
		l0.9-10.5c0.2-4.7,3.1-6.4,5.7-6.5l26.1-1.6c2.1-0.1,3.3,0.7,4,1.4c0.7,0.7,1.5,2,1.3,4.2l-0.4,5c-0.1,1-0.4,1.9-0.8,2.6
		c0.6,0.7,1,1.7,1.1,2.8c0,0.2,0,0.3,0,0.5c-0.1,1.1-0.4,2-0.9,2.7c0.5,0.7,0.8,1.7,0.9,2.7c0,0.2,0,0.5,0,0.7
		c-0.3,1.9-1.4,3.3-2.9,4c0,1-0.3,2-0.9,2.9c1,0.4,2,1,2.6,2.2c0.6,1.1,0.9,3-0.9,5.5c-1.3,1.9-3.8,2.5-7.2,1.6
		c-2.7-0.6-5-1.6-7-2.9c-0.7,0.8-1.6,1.5-2.8,1.9c-0.1,0-0.3,0.1-0.4,0.1c-0.6,0.1-1.1,0.3-1.6,0.4c-0.1,0-0.1,0.1-0.2,0.1
		c-1.7,0.5-3.1,0.9-4.2,1.2c-2.5,0.7-4.1-0.1-5-0.9c-0.6-0.5-1-1.2-1.3-2C101.3,109.2,99.2,109.8,97.7,109.8z M128.6,104.7
		C128.6,104.7,128.6,104.7,128.6,104.7L128.6,104.7z M100.6,77.7L100.6,77.7L100.6,77.7z"/>
</g>
<g>
	<path class="st0" d="M138.4,76.5c-1.2,0.1-1.7-0.6-1.6-2c0.2-1.3,0.9-2,2.1-2.2l8.2-0.5c1,0,1.5,0.7,1.4,2.1c-0.3,1.3-1,2-1.9,2
		l-1.6,0.1l-0.6,6.7l1.2-0.1c1.2,0,1.8,0.7,1.8,2c-0.2,1.3-0.9,2-2.1,2l-1.2,0.1l-0.6,7c0.9-0.3,1.5-0.4,1.8-0.6
		c0.2,0,0.3-0.1,0.5-0.2c1.1-0.3,1.9,0.1,2.3,1.2c0.3,1.2,0,2-1,2.6c-3.4,1.8-7,3.1-10.8,4c-1.2,0.3-2-0.2-2.2-1.5
		c-0.2-1.4,0.3-2.3,1.4-2.7c1.7-0.4,3-0.8,3.8-1.3l0.7-8.3l-2.5,0.2c-1.1,0.1-1.7-0.5-1.8-1.8c0.2-1.3,0.9-2,2-2.2l2.7-0.2l0.6-6.7
		L138.4,76.5z M149.3,73.8c0.1-2,1.1-3,3.2-3.1l14.3-0.9c1.8-0.1,2.6,0.9,2.4,2.9L168,87.5c-0.1,2.2-1.2,3.2-3.2,3.1l-2.8,0.2
		l-0.6,7.1c-0.2,0.7,0.1,1,0.7,0.8l1.5-0.1c0.6,0.3,1-1,1.2-3.8c0.1-1.3,0.9-2.1,2.3-2.3c1.4,0,2.1,0.7,2.1,1.9
		c-0.3,5.7-1.8,8.4-4.5,8.1l-4,0.2c-2.5,0.1-3.6-0.9-3.3-3l0.7-8.7l-1.9,0.1c-0.8,6.5-4.6,11-11.7,13.5c-1.5,0.4-2.5,0-3-1.1
		c-0.5-1.5,0-2.5,1.3-2.9c5.5-1.3,8.5-4.4,8.8-9.2l-0.9,0.1c-1.9,0.3-2.7-0.6-2.4-2.8L149.3,73.8z M163.4,86.9
		c0.3,0,0.5-0.2,0.5-0.5l0.1-1.6l-11.6,0.7l-0.1,1.6c-0.1,0.4,0.1,0.5,0.6,0.4L163.4,86.9z M164.5,79.4L152.9,80l-0.2,2.1l11.6-0.7
		L164.5,79.4z M153.9,74.4c-0.3,0-0.5,0.2-0.5,0.5l-0.1,1.6l11.6-0.7l0.1-1.6c0-0.3-0.1-0.4-0.4-0.4L153.9,74.4z"/>
	<path class="st1" d="M143.3,107.8c-2.5,0-4-1.5-4.7-3.1c0-0.1-0.1-0.2-0.1-0.3c-0.1-0.4-0.2-0.7-0.2-1c-0.4,0.1-0.8,0.2-1.3,0.3
		c-2.9,0.6-5.2-0.9-5.9-3.7c0-0.1,0-0.2,0-0.3c-0.4-2.7,0.9-4.9,3.3-5.9c0.1-0.1,0.3-0.1,0.5-0.1c0.7-0.2,1.2-0.3,1.7-0.4l0.3-3.1
		c-2.3-0.3-3.8-2-4-4.6c0-0.2,0-0.5,0-0.7c0.4-2.6,2.1-4.3,4.5-4.7c0.1,0,0.2,0,0.3,0l0.1,0l0.1-0.7c-1.2-0.2-2-0.7-2.5-1.2
		c-0.7-0.7-1.4-1.9-1.2-3.9c0-0.1,0-0.1,0-0.2c0.4-2.6,2.2-4.3,4.6-4.7c0.1,0,0.2,0,0.2,0l8.2-0.5c0.1,0,0.2,0,0.3,0
		c0.4,0,0.8,0.1,1.2,0.2c1-0.8,2.3-1.3,3.9-1.4l14.3-0.9c2.2-0.1,3.5,0.7,4.2,1.4c1.1,1.1,1.6,2.7,1.4,4.7L171,87.7
		c-0.1,1.1-0.3,2.1-0.7,2.9c1.1,0.9,1.8,2.2,1.8,3.9c0,0,0,0.1,0,0.1c-0.2,4.8-1.3,7.9-3.3,9.6c-1.2,1-2.7,1.5-4.3,1.4l-3.8,0.2
		c-2.3,0.1-4-0.4-5.2-1.7c-0.5-0.5-0.9-1.2-1.2-2.2c-2.2,2.4-5.3,4.3-9,5.6c-0.1,0-0.2,0.1-0.3,0.1
		C144.4,107.8,143.8,107.8,143.3,107.8z M138.3,73.5C138.3,73.5,138.3,73.5,138.3,73.5L138.3,73.5z"/>
</g>
<g>
	<path class="st0" d="M178.1,88l0.7-8.3l-2.4,0.1c-1.2,0.1-1.8-0.6-1.8-2c0.2-1.3,0.9-2,2.1-2.2l2.4-0.1l0.5-5.8
		c0.1-1.1,0.8-1.7,2.1-1.9c1.3,0,1.9,0.6,1.9,1.7l-0.5,5.8l1.6-0.1c1.1,0,1.6,0.7,1.6,2c-0.2,1.4-0.9,2.1-2,2.2l-1.6,0.1l-0.6,6.5
		c1.1-0.7,1.9-0.9,2.4-0.6c-0.8-2-0.1-3.2,2.1-3.5l20.1-1.2c1.1,0,1.6,0.7,1.6,2c-0.2,1.3-0.9,2-1.9,2l-13.1,0.8l-0.8,1.1l12-0.7
		c1.9-0.1,2.7,0.8,2.6,2.6c-0.2,2.3-0.4,3.8-0.5,4.4c-0.1,0.9-0.3,1.9-0.6,3c-0.4,4-3.3,5.8-8.4,5.4c-2.4-0.2-3.3-1.3-2.5-3.2
		c-2.4,2.2-5.1,3.7-8.1,4.6c-1.2,0.2-1.9-0.2-2.1-1.2c-0.1-0.9,0.4-1.6,1.7-2.2c5.1-2.3,8.7-5.4,10.7-9.3l-1.5,0.1
		c-4.8,6.3-10.3,10.1-16.7,11.4c-1.4,0.2-2.1-0.3-2.2-1.5c0.2-0.9,1-1.6,2.4-2.1c4.6-1.2,8.5-3.7,11.7-7.6l-1.5,0.1
		c-4.8,4.4-9.1,6.7-12.7,6.9c-1,0.1-1.5-0.4-1.6-1.5c0-1,0.4-1.6,1.4-2c5.9-1.6,10-4.3,12.4-8.1l-3.4,0.2c0.8,1,0.4,2.1-1.2,3.2
		c-2,1.4-4.8,2.8-8.3,4.2c-1.6,0.7-2.7,0.6-3.2-0.4c-0.4-1.4,0.2-2.6,1.6-3.3C174.6,89.5,175.9,89,178.1,88z M190,80.5
		c-2.3,0.3-3.3-0.6-2.9-2.8l0.5-6.4c0.1-1.7,1-2.6,2.4-2.6l14.7-0.9c1.8-0.1,2.6,0.7,2.4,2.5l-0.5,6.4c-0.2,2-1.1,3-2.8,3L190,80.5z
		 M191.3,76.1l-0.1,1.2l11.6-0.7l0.1-1.2L191.3,76.1z M203.1,72.3l0.1-1.3l-11.6,0.7l-0.1,1.3L203.1,72.3z M196.9,96.7
		c1.6,0.3,2.7,0.4,3.1,0.3c1.3,0.4,2.2-2,2.7-7.2l-1,0.1C200.6,92.5,199,94.8,196.9,96.7z"/>
	<path class="st1" d="M186.6,105.6c-1.7,0-3.1-0.7-3.9-2c-0.9,0.3-1.9,0.6-2.8,0.8c-0.1,0-0.2,0-0.2,0c-1.6,0.2-2.9-0.1-4-1
		c-0.7-0.5-1.5-1.5-1.6-3.3c0-0.3,0-0.5,0-0.8c-0.9-0.7-1.5-1.8-1.7-3.2c-1.2-0.6-1.8-1.5-2.1-2c-0.1-0.2-0.2-0.4-0.3-0.7
		c-0.7-2.8,0.4-5.3,3.1-6.7c0.2-0.1,0.5-0.2,0.7-0.3c0.1-0.1,0.5-0.2,1.5-0.6l0.3-3.2c-1.2-0.2-2-0.7-2.4-1.2
		c-0.7-0.6-1.4-1.8-1.4-3.8c0-0.1,0-0.3,0-0.4c0.4-2.6,2.2-4.3,4.6-4.7c0,0,0,0,0,0l0.3-3.2c0.2-2.5,2-4.2,4.7-4.6
		c0.2,0,0.3,0,0.5,0c2.3,0,3.7,1.1,4.4,2.5c0.9-1,2.2-1.6,3.7-1.7l14.7-0.9c2.2-0.1,3.6,0.7,4.3,1.4c0.7,0.7,1.5,2.1,1.3,4.3
		l-0.5,6.4c0,0.5-0.1,1-0.3,1.5c1.3,0.9,2,2.3,2,4.2c0,0.2,0,0.3,0,0.5c-0.2,1.2-0.7,2.3-1.5,3.1c0.2,0.7,0.3,1.5,0.2,2.5
		c-0.2,2.9-0.4,4-0.5,4.6c-0.1,0.9-0.3,2-0.6,3.1c-0.4,2.8-2.3,8.6-11.7,7.8c-1.6-0.2-2.8-0.6-3.7-1.3c-1.8,1.1-3.7,2-5.8,2.6
		c-0.1,0-0.3,0.1-0.4,0.1C187.2,105.6,186.9,105.6,186.6,105.6z M178.1,88L178.1,88L178.1,88z M174.3,86.5
		C174.3,86.5,174.3,86.5,174.3,86.5C174.3,86.5,174.3,86.5,174.3,86.5z M174.3,86.5C174.3,86.5,174.3,86.5,174.3,86.5
		C174.3,86.5,174.3,86.5,174.3,86.5z"/>
</g>
<g>
	<path class="st0" d="M213.8,99.8c-2,0-2.9-0.9-2.7-2.8l2.4-28c0-1.9,0.9-2.8,2.9-2.8l27.8-1.7c2-0.1,2.9,0.8,2.7,2.6l-2.4,28.2
		c0,1.8-1.1,2.7-3.3,2.7L213.8,99.8z M219.3,71.6l8.5-0.5l0.1-1.5l-10.4,0.6L215.3,96l8.5-0.5c-0.2-0.2-0.5-0.6-1.1-1.1
		c-1.1-0.9-1.5-1.7-1.1-2.4l-4.2,0.2c-1.6-1-1.4-2.1,0.4-3.3L233,88l0.1-1l-14.6,0.9c-1.6-0.9-1.5-1.9,0.3-3.1l7.9-0.5l0.1-1
		l-6.5,0.4c-1.9,0.2-2.7-0.7-2.4-2.6l0.2-1.9c0.1-1.9,0.9-2.9,2.6-3l6.8-0.4l0.1-1l-8.3,0.5C217.5,74.2,217.5,73,219.3,71.6z
		 M227,80.3l-5.4,0.3l-0.1,1.2l5.4-0.3L227,80.3z M221.8,79.2l5.4-0.3l0.1-1.2l-5.4,0.3L221.8,79.2z M227.2,95.3
		c0-0.9,0.2-1.6,0.8-2.1c0.3-0.3,0.9-0.3,1.8-0.1c0.2,0,0.4,0,0.6,0c0,0.1,0,0.1,0.1,0.1c1.4,0.3,2.1,0.1,2.1-0.6l0.1-1.3l-7.1,0.4
		l1.1,1.4c0.4,1,0.1,1.7-0.8,2.3L227.2,95.3z M236.1,82.7l-5.4,0.3l-0.1,1l5.5-0.3C235.9,83.3,235.9,82.9,236.1,82.7z M231,80.1
		l-0.1,1.2l5.2-0.3l0.1-1.2L231,80.1z M231.2,77.4l-0.1,1.2l5.2-0.3l0.1-1.2L231.2,77.4z M242.5,68.8l-10.6,0.6l-0.1,1.5l8.6-0.5
		c1.3,1.1,1.2,2.3-0.2,3.5l-8.8,0.5l-0.1,1l7.1-0.4c1.2,0.1,1.8,0.7,1.8,1.7l-0.4,4.1c0,0.3-0.2,0.7-0.5,1.1l0,0.1
		c0.7,0.8,1.3,1.6,1.7,2.2L242.5,68.8z M241.2,85.9c-0.4,0.8-0.8,1.2-1.4,1.1c-0.7,0.1-1.2,0-1.4-0.5l-1.2,0.1l-0.1,1.2l2.2-0.1
		c0.9,0,1.3,0.6,1.2,1.5c-0.1,1.1-0.6,1.7-1.5,1.7l-2.2,0.1l-0.2,1.8c-0.1,0.8-0.3,1.4-0.6,1.9l4.5-0.3L241.2,85.9z"/>
	<path class="st1" d="M213.7,102.8c-1.8,0-3.3-0.6-4.3-1.7c-0.7-0.8-1.5-2.1-1.3-4.4l2.4-27.8c0-2,0.8-3.3,1.5-4
		c1-1.1,2.5-1.6,4.3-1.7l27.7-1.7c2.4-0.1,3.8,0.7,4.5,1.5c0.7,0.7,1.6,2.1,1.4,4.4l-2.4,28.1c0,1.9-0.8,3.1-1.4,3.8
		c-1.1,1.2-2.7,1.8-4.8,1.8l-27.3,1.6C213.9,102.8,213.8,102.8,213.7,102.8z M213.8,99.8L213.8,99.8L213.8,99.8z"/>
</g>
<g>
	<path class="st0" d="M262.6,82.1l-1.1,12.3c0,2.4-1.2,3.5-3.5,3.5c-2.2,0.1-3.1-0.5-2.8-2c0.1-1,0.6-1.5,1.6-1.6
		c0.9,0,1.3-0.1,1.4-0.5l0.2-2.4l-4.6,0.3l-0.4,5c-0.1,1.2-0.7,1.8-1.9,1.9c-1.2,0.1-1.7-0.5-1.5-1.7l1.2-14.1
		c-1.3,0.3-1.9-0.4-1.8-2l0.3-3.4c0-1.6,0.6-2.4,1.7-2.5l0.7-8c0-1.5,0.9-2.3,2.6-2.4l7.4-0.4c1.7-0.2,2.4,0.5,2.2,2.2l-0.7,7.8
		c0.7,0.1,1,0.7,1,1.9l-0.3,3.8C264.1,81.5,263.5,82.2,262.6,82.1z M253,78.9l-0.1,1l8-0.5l0.1-0.9c-0.1-0.4-0.3-0.6-0.7-0.7
		l-6.7,0.4C253.3,78.3,253,78.5,253,78.9z M258.8,86.8l-4.6,0.3l-0.2,1.9l4.6-0.3L258.8,86.8z M254.4,84.5l4.6-0.3l0.1-1.3
		c-0.1-0.2-0.2-0.3-0.4-0.4l-3.7,0.2c-0.3,0-0.5,0.2-0.5,0.5L254.4,84.5z M256.3,71.9l-1.2,0.1l-0.2,2.7l1.6-0.1l0.2-2.2
		C256.6,72.2,256.5,72,256.3,71.9z M259.1,71.2l-0.3,3.3l1.6-0.1l0.5-6.1c0-0.3-0.2-0.5-0.5-0.6l-4.6,0.3c-0.3,0.1-0.5,0.4-0.5,0.8
		l-0.1,0.7l2.4-0.1C258.8,69.3,259.2,69.9,259.1,71.2z M264.9,88.6l0.3-3.1c0-1.5,0.8-2.3,2.4-2.4l12.3-0.7c1.7-0.2,2.4,0.5,2.2,2.2
		l-0.3,3c-0.1,1.6-0.9,2.4-2.4,2.4l-0.4,0c-0.3,1-0.6,1.8-0.9,2.4l4.2-0.2c0.9,0,1.3,0.5,1.4,1.4c-0.1,1.2-0.6,1.8-1.6,1.9
		l-18.1,1.1c-1.2,0.1-1.7-0.5-1.6-1.7c0-1,0.6-1.5,1.9-1.6l3.9-0.2c-0.1-0.6-0.3-1.4-0.5-2.3l-0.4,0
		C265.3,90.9,264.7,90.2,264.9,88.6z M266,78.8l16.5-1c1,0,1.4,0.6,1.3,1.5c-0.1,1.2-0.6,1.8-1.6,1.7l-16.5,1
		c-1.1,0.2-1.6-0.3-1.4-1.4C264.4,79.5,264.9,78.9,266,78.8z M268.7,65.2l2.7-0.2l0.1-1c0.1-1,0.7-1.5,1.9-1.6
		c1-0.1,1.4,0.4,1.4,1.4l-0.1,1l1.8-0.1l0.1-1c0-1,0.6-1.5,1.8-1.6c1.1-0.1,1.6,0.4,1.5,1.4l-0.1,1l2.7-0.2c1.6,0,2.3,0.6,2.2,1.9
		l-0.6,7.5c-0.2,2-0.9,2.9-2.3,2.8l-13.5,0.8c-1.9,0.2-2.7-0.4-2.5-1.9l0.7-7.8C266.3,66.1,267.1,65.2,268.7,65.2z M278.4,86.6
		l0.1-0.6c-0.1-0.4-0.3-0.6-0.7-0.7l-8.5,0.5c-0.5,0.1-0.7,0.4-0.7,0.8l-0.1,0.6c-0.1,0.5,0,0.7,0.5,0.6l8.5-0.5
		C278.1,87.3,278.3,87.1,278.4,86.6z M269.6,74.5l0.9-0.1l0.2-1.9l-1.6,0.1l-0.1,1.2C268.8,74.3,269.1,74.5,269.6,74.5z M269.4,68.6
		l-0.1,1.2l1.6-0.1l0.2-1.9l-0.9,0.1C269.6,68,269.3,68.3,269.4,68.6z M271.3,92.8l3.3-0.2c0.3-0.6,0.7-1.4,0.9-2.4l-4.8,0.3
		C271,91.3,271.2,92,271.3,92.8z M274,72.3l-0.2,1.9l1.8-0.1l0.2-1.9L274,72.3z M274.2,69.5l1.8-0.1l0.2-1.9l-1.8,0.1L274.2,69.5z
		 M279,72l-0.2,1.9l1-0.1c0.4,0,0.7-0.3,0.8-0.8l0.1-1.2L279,72z M279.3,69.2l1.8-0.1l0.1-1.2c-0.1-0.4-0.3-0.6-0.7-0.7l-1,0.1
		L279.3,69.2z"/>
	<path class="st1" d="M251.3,101.6c-1.7,0-2.7-0.7-3.3-1.4c-0.6-0.7-1.2-1.8-1-3.7l1-11.5c0,0-0.1-0.1-0.1-0.1
		c-0.8-0.7-1.6-1.9-1.4-4.3l0.3-3.3c0.1-2.1,0.8-3.5,1.8-4.3l0.5-6.2c0.1-3,2.2-5,5.4-5.2l7.4-0.4c2.2-0.2,3.5,0.6,4.2,1.3
		c0.1,0.1,0.1,0.1,0.2,0.2c0.7-0.3,1.4-0.5,2.3-0.6c0,0,0,0,0,0l0.3,0c0.7-1.6,2.3-2.6,4.3-2.8c1-0.1,1.8,0.1,2.4,0.4
		c0.7-0.4,1.5-0.7,2.5-0.7c1.8-0.1,3,0.6,3.6,1.2c0.2,0.2,0.5,0.6,0.7,1c0,0,0,0,0,0c1.7,0,3.1,0.5,4,1.6c0.6,0.7,1.3,1.8,1.1,3.6
		l-0.6,7.5c-0.1,1.1-0.3,2-0.7,2.7c0.4,0.6,0.8,1.6,0.6,2.9c-0.1,1.7-0.8,2.8-1.8,3.6c0.1,0.5,0.1,1.1,0,1.8l-0.2,2.9
		c-0.1,0.7-0.2,1.3-0.4,1.9c1.3,0.7,2.1,2.1,2.1,3.7c0,0.1,0,0.2,0,0.3c-0.2,2.6-2,4.5-4.4,4.6L264,99.5c-0.5,0-1,0-1.4-0.1
		c-1.1,1-2.6,1.5-4.5,1.5c-0.7,0-2.1,0.1-3.4-0.5c-0.8,0.7-1.9,1.1-3.1,1.2C251.5,101.6,251.4,101.6,251.3,101.6z M278.4,86.6
		L278.4,86.6L278.4,86.6z M254.6,74.4c0.1,0.1,0.2,0.1,0.2,0.2l0-0.1L254.6,74.4z M270.7,72.8l0.2,0l0-0.1L270.7,72.8L270.7,72.8z
		 M279.1,68.9L279.1,68.9l0.2,0.1l0-0.1L279.1,68.9z"/>
</g>
<g>
	<path class="st0" d="M287,77.7c-0.1-0.3,0-0.7,0.2-1.2c0.5-0.8,0.9-1.6,1.4-2.4c1.3-2.5,2.5-5.2,3.5-7.9c0.1-0.4,0.3-1.1,0.6-2.1
		c0.3-0.7,0.5-1.3,0.6-1.7c2.1-1.7,3.5-1.5,4.1,0.5c-0.1,0.7-0.6,2.4-1.8,5.1c-0.5,1.4-0.8,2.2-0.8,2.3l-2,24
		c-0.2,1.1-0.9,1.7-2.2,1.9c-1.3,0-1.9-0.6-1.8-1.7l1.4-15.8C288.5,80,287.4,79.7,287,77.7z M299.2,66c-1,0.1-1.5-0.5-1.5-1.8
		c0.2-1.2,0.8-1.9,1.8-2l21.9-1.3c1.1,0,1.6,0.6,1.6,1.8c-0.2,1.3-0.9,2-1.9,2l-9.1,0.5l-0.1,1.2l5.5-0.3c1.3,0,1.9,0.7,1.9,2.1
		l-0.5,6.1l1.5-0.1c1.6-0.1,2.3,0.7,2.2,2.5l-0.1,1.6c-0.3,1.9-1,2.9-2.2,2.9c0.9,1,1.4,1.7,1.4,2.1c-0.2,2-1.2,2.7-3.1,2.1
		c-0.6-0.5-1.7-1.6-3.3-3.2c-0.1-0.1-0.1-0.2-0.1-0.3c-0.3,0.6-0.8,1.1-1.5,1.4c-0.8,0.5-2,0.8-3.6,0.8l-2.2,0.1
		c-0.4,0.3-0.8,0.6-1.1,1l9.5-0.6c0.8,0.1,1.2,0.6,1.3,1.5c-0.2,0.7-0.6,1.3-1.2,1.7c-1.3,1.2-2.7,2.2-4.3,3.1
		c1.3-0.1,3.3-0.2,5.9-0.4c1.2-0.1,1.9-0.1,2.2-0.1c1.5,1.3,1.3,2.4-0.4,3.4c-4.8,0.4-9,0.2-12.8-0.6c-1.3,0.6-2.9,1-4.8,1.3
		c-3.3,0.7-5.7,1.1-7.2,1.2c-0.7-0.2-1-0.8-1-2c0.2-1,0.7-1.5,1.5-1.6c0.7-0.1,1.5-0.2,2.4-0.3c2.5-0.2,4.2-0.4,5.2-0.5
		c-0.7-0.3-1.6-0.8-2.8-1.7c-1.9,1.2-3.4,1.9-4.6,2c-1.9-0.5-2.1-1.6-0.5-3.4c4.3-1.5,6.9-2.9,8-4c-0.6-0.4-0.8-0.9-0.7-1.7l0.4-4.3
		l-3.1,0.2c-0.3,0.1-0.5,0.3-0.5,0.5l-0.1,1.3c1.4-0.8,2.4-0.4,2.7,1c-0.4,1.2-1.4,2.8-2.9,4.9c-0.8,0.7-1.6,0.9-2.4,0.6
		c-0.6-0.6-0.7-1.3-0.1-2.2c0.1-0.1,0.5-0.7,1-1.8c-1.5,0.3-2.2-0.1-2.1-1l0.3-3.3c0.2-1.9,0.9-2.9,2.3-3.1l1-0.1l0.5-5.5
		c0-2,0.8-2.9,2.5-2.9l5.4-0.3l0.1-1.2L299.2,66z M302.9,75.2l11.9-0.7l0.1-1L303,74.1L302.9,75.2z M303.2,71.6l-0.1,1l11.9-0.7
		l0.1-1L303.2,71.6z M315.2,69.4l0.1-1l-11.9,0.7l-0.1,1L315.2,69.4z M304.3,88.3c0.9,0.7,2,1.3,3.1,1.6c2-0.9,3-1.6,2.8-1.9
		L304.3,88.3z M306.3,80.6c0,0.3,0.1,0.4,0.4,0.4l2.5-0.2c-1.3-1.5-1.6-2.5-1.1-2.9l-1.6,0.1L306.3,80.6z M311,80.7
		c0.3,0,0.7-0.3,1.3-0.8c0.4-0.5,0.8-0.8,1.1-0.8c0.4,0.1,0.8,0.2,1.2,0.2c0.1-0.6,0.6-1,1.4-1.3c0.5,0,1.1,0.2,1.9,0.8
		c0.1-0.1,0.2-0.3,0.2-0.5c0.1-0.8-0.1-1.1-0.4-1l-7.4,0.4c0.4,0.7,0.7,1.2,0.9,1.6c0.2,0.8-0.2,1.2-1.2,1.4L311,80.7z"/>
	<path class="st1" d="M290.6,99.2C290.5,99.2,290.5,99.2,290.6,99.2c-2,0-3.1-0.8-3.7-1.5c-0.6-0.6-1.2-1.7-1.1-3.4l1-12.1
		c-1-0.4-2.3-1.4-2.8-3.8c-0.2-1-0.1-2,0.5-3.2c0-0.1,0.1-0.1,0.1-0.2l1.4-2.4c1.2-2.4,2.3-4.9,3.3-7.4c0.1-0.4,0.3-1,0.6-1.9
		c0-0.1,0-0.1,0.1-0.2c0.2-0.7,0.4-1.2,0.6-1.6c0.2-0.5,0.5-1,1-1.4c2-1.6,3.9-2.2,5.6-1.6c0.4,0.1,0.9,0.4,1.4,0.8
		c0.2-0.1,0.4-0.1,0.6-0.1c0.1,0,0.2,0,0.3,0l21.9-1.3c0.1,0,0.2,0,0.3,0c2.7,0.1,4.5,2,4.5,4.8c0,0.2,0,0.3,0,0.5
		c-0.4,2.3-1.8,3.9-3.7,4.4c0,0.2,0,0.5,0,0.7c0,0.1,0,0.1,0,0.2l-0.2,2.9c0.9,0.3,1.6,0.8,2,1.2c1,1.1,1.5,2.5,1.3,4.4l-0.1,1.6
		c0,0.1,0,0.1,0,0.2c-0.2,1.4-0.6,2.4-1,3.1c0.2,0.3,0.2,0.7,0.3,1c0,0.3,0.1,0.5,0,0.8c-0.2,2.4-1.3,3.6-2.2,4.2
		c-0.1,0.1-0.2,0.2-0.4,0.2c0.1,0.1,0.1,0.1,0.2,0.2c1.9,1.6,2.1,3.3,2,4.4c-0.1,1.1-0.7,2.7-2.9,3.9c-0.4,0.2-0.8,0.3-1.2,0.4
		c-4.7,0.4-8.9,0.2-12.8-0.4c-1.3,0.5-2.9,0.9-4.6,1.2c-3.5,0.7-5.9,1.1-7.6,1.2c-0.3,0-0.6,0-0.9-0.1c-0.2,0-0.5-0.1-0.9-0.3
		c-0.7,0.4-1.5,0.7-2.3,0.8C290.8,99.2,290.7,99.2,290.6,99.2z M291.1,75.9c0.1,0,0.2,0.1,0.3,0.1l0.1-0.8c0,0.1-0.1,0.2-0.1,0.3
		c0,0,0,0.1-0.1,0.1L291.1,75.9z"/>
</g>
<g>
	<path class="st0" d="M325.2,90.7c1.2-1.4,2.4-3.1,3.5-4.9c0.8-1,1.8-1.3,3-0.9c0.8,0.6,0.9,1.6,0.2,2.8c-1.3,2.1-2.6,4-3.9,5.5
		c-1,0.9-1.9,1-2.8,0.3C324.4,92.7,324.4,91.8,325.2,90.7z M342.3,60.4c0.1-1.3,0.9-2,2.4-2.2c1.4,0,2.1,0.7,2.1,1.9l13.2-0.8
		c1.3,0,1.9,0.7,1.9,1.9c-0.2,1.4-1,2.1-2.3,2.2l-13.2,0.8l-0.1,1.2l9.5-0.6c2.3-0.2,3.3,0.8,3,3.2l-0.5,5.6c-0.2,1.7-0.9,2.5-2,2.5
		c1.6,1.5,2.7,2.5,3.3,3c0.6,0.7,0.6,1.6-0.1,2.7c-0.8,0.8-1.6,1-2.4,0.4c-0.2,0-0.6-0.3-1.1-0.8c-0.8,0.1-1.9,0.3-3.3,0.5
		c-2.9,0.4-5.2,0.6-6.9,0.6c0.4,0.5,0.9,1.2,1.6,2.1c0.2,0.2,0.3,0.3,0.4,0.4c0.4,0.9,0.2,1.7-0.8,2.4c-0.9,0.6-1.8,0.6-2.5,0
		c-0.7-0.6-1.4-1.4-2-2.4c-0.4-0.8-0.3-1.5,0.3-2.2L327,84c-1.3,0.1-2-0.5-2.1-1.8c0.2-1.4,1-2.2,2.3-2.3l13.5-0.8l0.1-1.3l-10,0.6
		c-1.9,0.2-2.7-0.8-2.4-2.9l0.5-5.8c0.2-2.1,1.2-3.2,2.9-3.3l10-0.6l0.1-1.2l-13.7,0.8c-1.2,0.1-1.7-0.6-1.6-2c0.1-1.3,0.8-2,2-2.2
		L342.3,60.4z M341.1,74.2l0.1-1l-8.5,0.5l-0.1,0.6c0,0.3,0.1,0.4,0.4,0.4L341.1,74.2z M341.5,70.2l0.1-1l-8,0.5
		c-0.3,0-0.5,0.2-0.5,0.5l-0.1,0.6L341.5,70.2z M338.8,92.7c-3.5,0.3-5-0.8-4.5-3.3l0.3-3.7c0.1-1.2,0.8-1.9,2.2-2
		c1.4,0,2.1,0.6,2.1,1.8l-0.2,2.7c0,0.5,0.3,0.7,1,0.7l8.2-0.5c0.5,0.2,0.8-0.1,1-0.8c0-0.1,0-0.2,0-0.4c0.2-0.7,0.4-1.2,0.7-1.5
		c0.5-0.4,1-0.7,1.5-0.7c1.5-0.1,2.2,0.7,2,2.4c-0.1,3.2-1.9,4.9-5.6,4.9L338.8,92.7z M345.3,77.5l-0.1,1.3c0.8,0.1,2,0,3.6-0.2
		c1.5-0.2,2.7-0.3,3.6-0.4l-0.9-1.1L345.3,77.5z M354.2,73l0.1-0.6l-8.6,0.5l-0.1,1l8.2-0.5C354,73.4,354.2,73.3,354.2,73z
		 M354.5,69.4l0.1-0.6c0-0.3-0.1-0.4-0.4-0.4l-8.2,0.5l-0.1,1L354.5,69.4z M355.9,89.8c-0.3-0.5-0.7-1-1.2-1.7
		c-0.6-1.1-1.1-2-1.4-2.7c-0.7-1-0.5-2,0.7-2.8c1.2-0.6,2.2-0.3,2.9,0.7c0,0.1,0,0.2,0.1,0.3c0.9,1.7,1.7,3.1,2.2,4.1
		c0.4,0.9,0.1,1.7-0.9,2.4C357.2,90.7,356.4,90.6,355.9,89.8z"/>
	<path class="st1" d="M326.5,97c-1.1,0-2.1-0.4-3.1-1.1c-0.1-0.1-0.2-0.2-0.3-0.3c-1.9-1.9-2-4.5-0.3-6.7c0,0,0.1-0.1,0.1-0.1
		c0.6-0.7,1.1-1.4,1.7-2.2c-1.6-0.7-2.6-2.2-2.7-4.2c0-0.2,0-0.4,0-0.7c0.3-2.2,1.6-3.8,3.5-4.5c-0.1-0.7-0.1-1.4,0-2.2l0.5-5.7
		c0-0.5,0.1-0.9,0.2-1.4c-0.6-0.2-1-0.6-1.3-0.9c-0.7-0.7-1.4-1.9-1.2-3.9c0.2-2.6,2-4.5,4.5-4.9c0.1,0,0.2,0,0.2,0l11.8-0.7
		c0.9-1.3,2.3-2.1,4.1-2.3c0.1,0,0.3,0,0.4,0c1.7,0,3.1,0.7,4,1.8l11-0.7c0.1,0,0.2,0,0.2,0c2.9,0.1,4.9,2,4.9,5c0,0.1,0,0.3,0,0.4
		c-0.3,2.1-1.5,3.6-3.1,4.3c0.1,0.7,0.1,1.5,0,2.4l-0.5,5.6c0,0.1,0,0.1,0,0.2c-0.1,0.8-0.3,1.4-0.5,2c0.4,0.4,0.8,0.7,1,1
		c0.1,0.1,0.1,0.1,0.2,0.2c1.5,1.8,1.5,4.1,0.1,6.2c-0.1,0.1-0.2,0.3-0.3,0.4c-0.2,0.3-0.5,0.5-0.7,0.7c0.3,0.7,0.6,1.2,0.9,1.8
		c0.8,1.7,0.8,4.2-1.9,6.1c-0.1,0-0.1,0.1-0.2,0.1c-1.3,0.8-2.5,1.1-3.8,0.8c-0.5-0.1-1.1-0.4-1.7-0.9c-1.5,1.7-3.7,2.6-6.7,2.7
		l-8.7,0.5c-3,0.3-5.1-0.4-6.5-1.9c-0.2-0.2-0.4-0.4-0.5-0.7c-0.5,0.7-1.1,1.4-1.6,2c-0.1,0.1-0.1,0.1-0.2,0.2
		C329.1,96.5,327.8,97,326.5,97z M356.5,89C356.5,89,356.5,89,356.5,89C356.5,89,356.5,89,356.5,89z M342.3,60.4L342.3,60.4
		L342.3,60.4z"/>
</g>
<g>
	<path class="st0" d="M366.6,62.7l2.5-0.2l0.4-4.1c0.1-1.2,0.8-1.8,2.2-1.9c1.3,0,1.9,0.6,1.9,1.8l-0.3,4l1.8-0.1
		c1.1,0,1.6,0.7,1.6,2c-0.2,1.3-0.9,2-1.9,2l-1.8,0.1l-0.5,5.6c1-0.7,1.8-0.8,2.4-0.4c0.6,0.5,0.9,1.2,0.7,2.3
		c-0.1,0.6-1.2,1.6-3.5,3.2l-0.9,10.5c-0.3,2.4-1.5,3.6-3.7,3.8c-1.4,0-2.5-0.2-3.5-0.7c-1-0.4-1.4-1.1-1.1-2.1c0.3-0.9,1-1.3,2-1.3
		c0.1,0.1,0.3,0.2,0.7,0.3c1,0.2,1.5,0,1.6-0.8l0.6-7.4c-1.3,0.9-2.2,1.3-2.9,1.2c-1.3,0-1.8-0.8-1.6-2.3c0.3-0.7,0.7-1.3,1.5-1.7
		c0.3-0.2,0.9-0.5,1.7-1c0.7-0.4,1.3-0.8,1.7-1.1l0.7-7.7l-2.7,0.2c-1.3,0.1-1.9-0.5-1.9-1.8C364.5,63.6,365.3,62.8,366.6,62.7z
		 M375.1,87.2l2.2-25.3c0-2.7,1.2-4,3.6-4c6.2-0.6,11.2-1.2,15.3-1.9c1.6-0.2,2.5,0.4,2.7,1.8c-0.1,1.3-1,2.1-2.6,2.5
		c-0.6,0.1-1.5,0.3-2.7,0.5c-1.2,0.2-1.9,0.3-2.2,0.3l-0.6,7.4l6.1-0.4c1.1,0,1.6,0.7,1.5,2c-0.2,1.3-0.9,2-1.9,2l-5.8,0.3
		c-0.2,6.7,0.8,10.8,2.9,12.5c0.1-0.1,0.3-0.7,0.4-1.8c0.2-1,0.3-2.3,0.5-3.9c0.1-1.2,0.7-1.8,1.9-1.9c1.2,0,1.8,0.6,1.8,1.8
		c-0.5,6.5-1.6,10.1-3.4,10.7c-1.5,0.3-2.9-0.3-4.3-1.7c-2.9-2.4-4.1-7.5-3.8-15.5l-5.9,0.4l-0.9,10.5c0.4-0.3,1.4-1.3,3.1-2.8
		c0.9-0.7,1.7-0.8,2.5-0.3c0.8,0.6,1,1.4,0.4,2.3c-0.6,0.7-1.1,1.3-1.6,1.9c0.4,0.1,1,0.3,1.7,0.6c0.9,0.7,1.7,1.4,2.3,2.1
		c0.5,0.9,0.4,1.7-0.4,2.5c-1,0.7-1.8,0.8-2.7,0.3c-0.7-0.5-1.5-1.2-2.3-2.1c-0.7-0.5-0.9-0.9-0.8-1.4c-1.6,1.2-2.7,2-3.3,2.4
		C376.1,90,375,89.4,375.1,87.2z M380.8,68.9l5.8-0.3l0.6-7.1l-4.8,0.6c-0.7,0-1.1,0.3-1.1,0.8L380.8,68.9z"/>
	<path class="st1" d="M367.5,94.2C367.5,94.2,367.4,94.2,367.5,94.2c-1.8,0-3.4-0.3-4.7-0.9c-2.4-1-3.5-3.3-2.8-5.7
		c0.6-2.1,2.2-3.3,4.4-3.5l0.1-0.8c-1.6-0.1-2.6-0.9-3.1-1.5c-0.6-0.7-1.3-2-1-4.2c0-0.2,0.1-0.4,0.1-0.6c0.5-1.3,1.4-2.4,2.7-3.2
		c0.4-0.3,1-0.6,1.8-1.1c0.1-0.1,0.2-0.1,0.3-0.2l0.2-2.9c-1.4-0.1-2.4-0.7-2.9-1.2c-0.6-0.6-1.4-1.7-1.4-3.6c0-0.2,0-0.4,0.1-0.7
		c0.6-2.5,2.4-4.1,4.9-4.5c0.1,0,0.1,0,0.2,0l0.1-1.6c0.2-2.7,2.2-4.5,5-4.6c0.1,0,0.2,0,0.2,0c2.2,0,3.9,1.2,4.5,3
		c1.1-1,2.5-1.5,4.3-1.6c6-0.6,11-1.2,14.9-1.9c0.1,0,0.1,0,0.2,0c3.2-0.4,5.6,1.3,6,4.3c0,0.2,0,0.4,0,0.6
		c-0.1,1.2-0.8,4.2-4.9,5.2c-0.7,0.2-1.7,0.3-2.9,0.5l-0.1,1.5l2.6-0.2c0.1,0,0.2,0,0.3,0c1.7,0.1,2.7,0.8,3.3,1.4
		c0.6,0.7,1.3,1.9,1.1,3.8c0,0.1,0,0.2,0,0.2c-0.3,2-1.5,3.5-3.1,4.2c1.8,0.7,2.9,2.3,2.9,4.5c0,0.1,0,0.1,0,0.2
		c-0.6,8.2-2.2,12.2-5.5,13.3c-0.1,0-0.3,0.1-0.4,0.1c-1.3,0.3-3.2,0.2-5.2-1c0,0-0.1,0.1-0.1,0.1c-0.1,0.1-0.2,0.2-0.4,0.3
		c-1.9,1.5-4.2,1.7-6.2,0.5c-0.1,0-0.1-0.1-0.2-0.1c-0.7-0.5-1.3-1-2-1.7c-0.4,0.3-0.7,0.5-0.9,0.7c-0.1,0.1-0.3,0.2-0.4,0.2
		c-2.3,1.1-4.2,1.1-5.7,0.1c-0.3-0.2-0.6-0.5-0.9-0.8c-1.1,1.9-3,3.1-5.5,3.2C367.6,94.2,367.5,94.2,367.5,94.2z M378.1,87.6
		L378.1,87.6L378.1,87.6z M367,85C367,85,367,85,367,85C367,85,367,85,367,85z M383.2,75.7l-0.1,1.3c0.1,0,0.2,0,0.3-0.1
		c0-0.4,0-0.8,0-1.2L383.2,75.7z"/>
</g>
<g>
	<path class="st0" d="M405.5,59.7c0.1-2.5,1.4-3.8,3.7-3.9l23.3-1.4c2.6-0.2,3.7,0.9,3.4,3l-2.1,25c-0.1,3.8-3.2,5.2-9.1,4.1
		c-1.4-0.3-1.9-1.1-1.7-2.2c0.4-1.3,1.3-1.9,2.7-1.8c2.8,0.6,4.1,0.2,3.8-1.1l0.5-5.8l-9.1,0.5l-0.7,8.4c-0.2,1.1-1,1.7-2.4,1.9
		c-1.5,0.1-2.2-0.4-2.1-1.5l0.7-8.6l-8.2,0.5c-0.7,3.9-1.8,7.2-3.1,10c-0.8,1.6-2,2.3-3.6,2.1c-1.5-0.5-1.8-1.5-0.9-3
		C403.5,81.7,405.1,72.9,405.5,59.7z M416.9,72.1l0.3-4l-7.9,0.5l-0.3,4L416.9,72.1z M409.7,64.2l7.9-0.5l0.3-4l-6.7,0.4
		c-0.9,0.1-1.3,0.5-1.3,1.3L409.7,64.2z M421.7,67.9l-0.3,4l9.1-0.5l0.3-4L421.7,67.9z M422.4,59.5l-0.3,4l9.1-0.5l0.2-2.8
		c0.1-0.8-0.2-1.2-0.9-1.1L422.4,59.5z"/>
	<path class="st1" d="M402.2,92.1c-0.3,0-0.6,0-0.9-0.1c-0.2,0-0.4-0.1-0.5-0.1c-2-0.7-2.9-1.9-3.2-2.9c-0.4-1-0.5-2.6,0.7-4.6
		c1.7-2.7,3.8-9.2,4.3-24.9c0,0,0,0,0,0c0.2-4,2.6-6.5,6.6-6.8l23.3-1.4c2.3-0.1,4.1,0.4,5.3,1.7c0.8,0.8,1.6,2.3,1.3,4.6l-2.1,24.9
		c-0.1,2.9-1.5,4.6-2.6,5.5c-2.2,1.8-5.5,2.2-10,1.3c0,0-0.1,0-0.1,0c-1.1-0.2-2-0.7-2.6-1.3c-0.8,0.7-1.9,1.2-3.2,1.4
		c-0.1,0-0.1,0-0.2,0c-1.8,0.1-3.1-0.3-4.1-1.3c-0.9-0.9-1.3-2.1-1.1-3.4l0.4-5.1l-2.4,0.1c-0.7,3.2-1.7,6-2.8,8.5c0,0,0,0.1,0,0.1
		C406.7,90.8,404.6,92.1,402.2,92.1z M423.7,79l-0.1,0.7c0.7-0.2,1.5-0.3,2.3-0.2c0.1,0,0.3,0,0.4,0.1c0.1,0,0.2,0,0.3,0.1l0.1-0.8
		L423.7,79z M416.9,72.1L416.9,72.1L416.9,72.1z"/>
</g>
<g>
	<path class="st0" d="M452.2,58.7l2.2-0.1c1-2.8,1.6-4.5,1.8-5c0.4-1.6,1.3-2.3,2.7-2.2c1.4,0.1,1.9,0.9,1.7,2.4
		c-0.3,0.8-0.7,2.3-1.4,4.4l4.6-0.3c-0.6-0.4-0.6-0.9,0-1.6c0.7-0.9,1.4-1.9,2.3-2.8c0.4-0.5,0.8-1,1.2-1.4c1.1-1,2.1-1.3,3-0.6
		c0.9,0.8,1,1.8,0.3,2.9c-1.4,1.9-2.3,2.9-2.6,3.2l4.2-0.2c1,0,1.5,0.7,1.5,2c-0.2,1.3-0.8,2-1.8,2l-14.3,0.9
		c-0.5,0.9-0.9,1.7-1.4,2.4l16.6-1c1,0,1.5,0.7,1.6,2c-0.2,1.4-0.8,2.1-1.8,2.2l-5.4,0.3c1.7,2.2,3.8,3.8,6.2,5.1
		c1,0.8,1.2,1.8,0.6,3.1c-0.8,1.3-1.9,1.6-3.3,0.9c-0.9-0.3-1.7-0.8-2.5-1.5c-0.4,2.3-0.8,4.4-1.3,6.3c-0.4,2.5-2.1,3.7-5.2,3.7
		c-4.8,0.4-6.7-0.3-5.9-2.1c0.1-1.2,0.8-1.8,2.1-1.7c1.2,0.1,2.4,0.2,3.5,0.1c0.9,0.2,1.6-1.7,2.1-5.9c0-0.5-0.1-0.7-0.5-0.7
		l-6.4,0.4c-2.4,5.6-6.8,9.4-13.4,11.4c-1.9,0.6-3,0.2-3.2-1.1c-0.3-1.7,0.3-2.6,1.7-2.8c4.6-1,8-3.4,10.1-7.2l-5.9,0.4
		c-0.3,0.2-0.6,0.5-1,0.8c-0.7,0.6-1.5,1.2-2.2,1.6c-1.9,1.1-3.1,1.1-3.8-0.1c-0.5-1.3-0.1-2.4,1-3.3c2.8-1.6,5.3-3.7,7.6-6
		l-6.4,0.4c-1.1,0.1-1.6-0.6-1.6-2c0.3-1.3,1-2,2.1-2.2l9.2-0.6c0.4-0.6,1-1.4,1.5-2.3l-9.4,0.6c-1.1,0.1-1.6-0.5-1.6-1.8
		c0.2-1.3,0.9-2,2-2.2l4.6-0.3c-0.3-0.2-0.6-0.6-0.9-1.1c-0.4-0.6-0.8-1.2-1.2-1.8c-0.6-0.9-0.4-1.9,0.6-3c1-0.8,1.9-0.9,3,0
		c0.9,1,1.7,2.1,2.4,3.1C452.5,57.3,452.6,58.2,452.2,58.7z M453.4,68.9c-0.1,0.1-0.2,0.3-0.3,0.5c-0.8,1-1.5,1.9-2.3,2.5l12.5-0.8
		c-0.7-0.7-1.4-1.6-2-2.7L453.4,68.9z"/>
	<path class="st1" d="M441.7,90.3c-1,0-1.8-0.2-2.6-0.7c-1.1-0.7-1.8-1.9-2-3.3c-0.3-1.7,0-3.1,0.9-4.2c0-0.1,0.1-0.1,0.1-0.2
		c-1-0.6-1.6-1.4-1.8-1.7c-0.1-0.2-0.2-0.4-0.3-0.6c-0.9-2.6-0.1-5.1,2.1-6.7c0.1-0.1,0.2-0.1,0.3-0.2c0.2-0.1,0.5-0.3,0.7-0.4
		c-0.5-0.2-0.9-0.5-1.2-0.8c-1-0.9-1.4-2.2-1.4-3.8c0-0.2,0-0.4,0.1-0.6c0.4-1.5,1.1-2.7,2.2-3.5c-0.2-0.6-0.4-1.3-0.4-2.2
		c0-0.2,0-0.3,0-0.5c0.4-2.5,2-4.2,4.3-4.6c-0.5-1.8,0-3.7,1.5-5.3c0.1-0.1,0.1-0.1,0.2-0.2c2.1-1.8,4.7-1.8,6.8-0.1
		c0.1,0.1,0.3,0.2,0.4,0.4c0.6,0.6,1.1,1.3,1.6,1.9c0-0.1,0-0.1,0-0.1c0.8-3,3-4.6,5.8-4.4c1.9,0.2,3,1,3.5,1.8
		c0.3,0.4,0.6,1,0.8,1.7c0.1-0.1,0.2-0.3,0.4-0.4c0.4-0.5,0.8-0.9,1.1-1.3c0.1-0.1,0.2-0.2,0.2-0.3c2.1-2,4.6-2.4,6.8-1
		c0.1,0.1,0.2,0.2,0.3,0.3c1.6,1.5,2.2,3.5,1.5,5.5c1.6,0.6,2.8,2.1,2.8,4.7c0,0.2,0,0.3,0,0.5c-0.1,0.8-0.4,1.5-0.7,2.1
		c0.8,0.8,1.4,1.9,1.5,3.5c0,0.2,0,0.5,0,0.7c-0.4,2.6-1.7,3.7-2.9,4.3c0.1,0.1,0.2,0.1,0.3,0.2c0.2,0.1,0.4,0.2,0.6,0.4
		c2.1,1.7,2.6,4.2,1.4,6.7c0,0.1-0.1,0.2-0.1,0.2c-1.4,2.4-3.8,3.3-6.2,2.5c-0.2,0.8-0.3,1.6-0.5,2.3c-0.3,1.9-1.8,6.1-8,6.1
		c-3.5,0.3-6.9,0.2-8.5-2.1c-0.2-0.3-0.4-0.7-0.5-1c-2.4,1.9-5.3,3.4-8.7,4.4C443.2,90.2,442.4,90.3,441.7,90.3z M462.2,78.9
		C462.2,78.9,462.2,78.9,462.2,78.9C462.2,78.9,462.2,78.9,462.2,78.9z M458.5,78.8c0.5,0,1,0.1,1.5,0.1c0-0.1,0.1-0.3,0.1-0.4
		l-1.5,0.1C458.6,78.6,458.5,78.7,458.5,78.8z M465.4,73.2c0,0,0.1,0.1,0.1,0.1c0.1,0.1,0.2,0.2,0.3,0.4c0.3-0.4,0.7-0.6,1.2-0.8
		c0.1-0.1,0.3-0.1,0.4-0.1c-0.4-0.4-0.9-0.8-1.3-1.2c0,0.2-0.1,0.5-0.2,0.7C465.9,72.6,465.7,72.9,465.4,73.2z M448,73.1
		c0,0-0.1,0.1-0.1,0.1L448,73.1C448,73.1,448,73.1,448,73.1z M450.3,68C450.3,68,450.3,68,450.3,68C450.3,68,450.3,68,450.3,68
		C450.3,68,450.3,68,450.3,68L450.3,68z M464,67.2c0.1,0.1,0.2,0.3,0.3,0.4c0-0.1,0.1-0.3,0.1-0.4L464,67.2z M463.7,56.4l1.3,0.9
		c0,0,0,0,0-0.1L463.7,56.4L463.7,56.4z"/>
</g>
<g>
	<path class="st0" d="M477.8,81.9c1.7-3.3,3.3-6.9,4.8-10.7c0.4-1.2,1.2-1.7,2.5-1.6c1.4,0.4,2,1.2,1.7,2.4
		c-1.8,4.7-3.6,8.7-5.3,11.9c-0.8,1.1-1.8,1.4-3.2,0.8C477.3,84,477.2,83.1,477.8,81.9z M483.4,67.3c-1.3-0.9-2.7-1.9-4-2.8
		c-0.9-0.4-1-1.2-0.5-2.3c0.8-1.2,1.7-1.8,2.7-1.6c1.8,0.8,3.5,2,5.2,3.7c0.5,1,0.3,1.9-0.7,2.8C485,67.9,484.1,68,483.4,67.3z
		 M485.1,58c-1.7-1.4-3.1-2.5-4.4-3.4c-0.9-0.6-1-1.6-0.4-2.8c0.9-1.1,1.9-1.5,2.9-1.1c1.1,0.6,2.7,1.8,4.7,3.5
		c0.6,0.8,0.5,1.8-0.3,3C486.8,58.4,485.9,58.7,485.1,58z M490.9,51.8c0.6,0,1.5-0.1,2.7-0.2c5.9-0.4,10.3-1,13.5-1.7
		c0.1,0,0.3,0,0.7,0c1.3-0.4,2.3-0.6,2.9-0.6c1.5,0,2.2,0.7,2.2,2.1c-0.3,1.2-1.2,2-2.7,2.4c-2.7,0.6-5.2,1-7.5,1.2l-0.3,3.7
		l9.5-0.6c1.1,0,1.6,0.7,1.6,2c-0.2,1.4-0.9,2.1-2,2.2l-9.5,0.6l-0.3,3.8l6.5-0.4c1.8-0.2,2.6,0.6,2.3,2.5l-0.9,10.5
		c-0.1,1.9-1,2.8-2.9,2.8l-16.8,1c-2.1,0.2-3-0.6-2.6-2.5l0.9-10.4c0.1-1.9,1.1-2.9,3.2-3l5.8-0.3l0.3-3.8l-9.5,0.6
		c-1.1,0.1-1.6-0.6-1.6-2c0.2-1.3,0.9-2,2-2.2l9.5-0.6l0.3-3.4c-1,0.2-2.3,0.3-3.9,0.5c-1.7,0.1-2.8,0.2-3.4,0.2
		c-1.4,0.1-2-0.5-1.9-1.8C489,52.9,489.6,52,490.9,51.8z M492.9,78.9l11.3-0.7c0.9,0.1,1.3-0.3,1.3-1.4l0.4-4.9
		c0.2-1.1-0.2-1.5-1.1-1.3l-11,0.7c-1.2,0-1.7,0.4-1.6,1.4l-0.4,5.2C491.6,78.7,492,79.1,492.9,78.9z"/>
	<path class="st1" d="M479.6,88c-0.8,0-1.7-0.2-2.5-0.6c-0.1,0-0.2-0.1-0.3-0.2c-2.4-1.5-3-4.1-1.6-6.7c1.6-3.2,3.1-6.7,4.6-10.4
		c0.2-0.5,0.4-0.9,0.6-1.3c-0.9-0.6-1.8-1.2-2.7-1.9c-1.8-1-2.9-3.3-1.7-6.1c0.1-0.1,0.1-0.3,0.2-0.4c1.1-1.7,2.3-2.5,3.4-2.8
		c-0.3-0.2-0.5-0.4-0.8-0.6c-1.7-1.1-3-3.6-1.3-6.7c0.1-0.1,0.2-0.2,0.2-0.4c1.7-2.2,4.1-2.9,6.4-2c0.1,0,0.2,0.1,0.3,0.1
		c0.8,0.5,1.8,1.1,3,2c0.8-0.8,1.9-1.2,2.9-1.4c0.1,0,0.1,0,0.2,0l2.7-0.2c5.6-0.4,10-1,13-1.6c0.2,0,0.3-0.1,0.5-0.1l0.4,0
		c1.4-0.4,2.4-0.6,3.2-0.6c0.1,0,0.1,0,0.2,0c2,0,3.2,0.8,3.8,1.5c0.6,0.6,1.4,1.8,1.4,3.7c0,0.2,0,0.5-0.1,0.7
		c-0.2,0.9-0.8,2.2-2.2,3.3c1.6,0.6,2.9,2.1,2.9,4.6c0,0.1,0,0.3,0,0.4c-0.4,2.4-1.8,4.1-3.8,4.6c0.6,0.8,1.1,2.1,0.8,4l-0.9,10.4
		c-0.1,3.4-2.4,5.6-5.8,5.6l-16.7,1c-2,0.2-3.6-0.3-4.7-1.5c-0.2-0.2-0.3-0.4-0.5-0.7c-0.2,0.5-0.5,0.9-0.7,1.4
		c-0.1,0.1-0.1,0.2-0.2,0.3C482.9,87.1,481.3,88,479.6,88z M477.8,81.9L477.8,81.9L477.8,81.9z M494.7,78.6
		C494.7,78.6,494.7,78.6,494.7,78.6C494.7,78.6,494.7,78.6,494.7,78.6z M495.1,74.3l-0.1,1.5l7.6-0.5l0.1-1.5L495.1,74.3z
		 M508.7,69.2L508.7,69.2L508.7,69.2z M482.3,52.2C482.3,52.2,482.3,52.2,482.3,52.2C482.3,52.2,482.3,52.2,482.3,52.2z"/>
</g>
<g>
	<path class="st0" d="M520.4,48.3c3-0.2,5.8-0.4,8.3-0.8c2.6-0.3,4.8-0.6,6.7-1c1-0.1,1.6,0.4,1.8,1.5c0.1,1.2-0.3,1.9-1.2,2.3
		c-1,0.3-2.3,0.5-3.8,0.7c-1.1,0.1-1.8,0.1-2.1,0.1l-0.1,1.5l6.2-0.4c1.7,1.3,1.6,2.6-0.3,3.8l-6.2,0.4l-0.1,1.2l4.5-0.3
		c2-0.1,2.9,0.7,2.6,2.3l-0.6,7.5c-0.3,2-1.1,3-2.5,3.1l-5.1,0.3l-0.1,1.2l5.6-0.3c0.9,0,1.3,0.8,1.1,2.1c-0.3,1.1-0.9,1.7-1.8,1.7
		l-5.4,0.3l-0.1,1.5c1.6,0,3.7-0.2,6.3-0.7c3.3-4.8,5.6-11.6,7.1-20.4l-2.1,0.1c-0.9,0.1-1.3-0.6-1.3-2c0.1-1.4,0.6-2.1,1.5-2.3
		l2.2-0.1c0.1-0.6,0.2-2,0.4-4.1c0.1-1,0.9-1.6,2.4-1.8c1.5,0,2.2,0.5,2.2,1.5c-0.2,2.3-0.3,3.6-0.4,4.1l3-0.2c2-0.1,2.9,1,2.7,3.2
		c-0.5,4.8-1,9.3-1.4,13.5c-0.4,4-0.8,6.6-1.1,7.9c-0.9,3.7-3.8,5-8.8,4.1c-1.4-0.5-1.8-1.5-1.1-2.9c0.7-1,1.9-1.3,3.6-1
		c1,0.2,1.7-0.3,2.1-1.7c0.3-1.6,0.7-4.2,1.1-7.7c0.4-3.5,0.8-7.1,1.2-11l-1.8,0.1c-1.4,10.3-4.6,18.5-9.8,24.7
		c-1.6,1.1-2.8,0.9-3.8-0.7c-2.2,0.2-4.7,0.5-7.5,0.9c-4.2,0.6-6.8,1-7.8,1.2c-1.2,0-1.8-0.6-1.9-1.7c0-1,0.6-1.6,1.8-1.7
		c0.4,0,1.2-0.1,2.4-0.1c1.6-0.2,3.1-0.4,4.5-0.7l0.2-1.8l-6.5,0.4c-0.9,0.1-1.3-0.6-1.2-1.8c0.2-1.2,0.8-1.9,1.7-2l6.4-0.4l0.1-1.2
		l-5.1,0.3c-1.6,0.2-2.3-0.6-2-2.4l0.7-7.7c0.1-1.9,1-2.9,2.9-3l4.6-0.3l0.1-1.2l-7.1,0.4c-1.2,0.1-1.7-0.5-1.6-1.8
		c0.1-1.2,0.8-1.9,1.9-2l7.1-0.4l0.1-1.2c-0.8,0-2.3,0.2-4.5,0.4c-1,0.1-1.5,0.1-1.6,0.1c-1.2,0.1-1.7-0.6-1.6-2
		C518.3,49.1,519.1,48.5,520.4,48.3z M521.2,67.6l3.3-0.2l0.1-1.3l-3.3,0.2L521.2,67.6z M525,61.2l-3.3,0.2l-0.1,1.5l3.3-0.2
		L525,61.2z M528.9,65.9l-0.1,1.3l3.1-0.2l0.1-1.3L528.9,65.9z M529.3,61l-0.1,1.5l3.1-0.2l0.1-1.5L529.3,61z"/>
	<path class="st1" d="M516.9,84.9C516.9,84.9,516.8,84.9,516.9,84.9c-2.8-0.1-4.7-1.8-4.9-4.4c0-0.1,0-0.2,0-0.2
		c0-1.4,0.5-2.6,1.4-3.4c-0.3-0.8-0.4-1.6-0.3-2.7c0-0.1,0-0.2,0-0.2c0.2-1.1,0.6-2.1,1.2-2.8c-0.2-0.7-0.3-1.6-0.2-2.7l0.6-7.5
		c0-0.7,0.1-1.3,0.3-1.9c-0.1-0.1-0.2-0.2-0.2-0.2c-0.6-0.7-1.4-1.8-1.2-3.8c0.1-1.4,0.7-2.5,1.6-3.4c-0.1-0.5-0.1-1.1-0.1-1.7
		c0-0.1,0-0.2,0-0.3c0.4-2.4,2.2-4,4.8-4.4c0.1,0,0.1,0,0.2,0c2.9-0.2,5.6-0.4,8.1-0.8c0,0,0.1,0,0.1,0c2.5-0.2,4.6-0.6,6.4-0.9
		c0.1,0,0.3-0.1,0.4-0.1c1.8-0.1,3.4,0.7,4.2,2.1c0.6-1.2,1.8-2.5,4.5-2.8c0.1,0,0.3,0,0.4,0c3.8,0,5.2,2.4,5.2,4.4
		c0,0.1,0,0.2,0,0.3l-0.1,0.7c2,0,3.2,0.8,3.9,1.5c1.1,1.2,1.6,2.8,1.5,5c-0.5,4.9-1,9.4-1.5,13.5c-0.5,4.1-0.8,6.8-1.2,8.2
		c-0.6,2.5-3,8.1-12.3,6.3c-0.1,0-0.3-0.1-0.4-0.1c-0.4-0.2-0.8-0.3-1.2-0.5c-0.1,0.1-0.1,0.1-0.2,0.2c-0.2,0.2-0.4,0.4-0.6,0.6
		c-1.5,1-3,1.4-4.5,1.1c-0.6-0.1-1.4-0.4-2.2-1.1c-1.8,0.2-3.8,0.4-5.9,0.7c-4.1,0.6-6.7,1-7.7,1.2
		C517.2,84.9,517.1,84.9,516.9,84.9z M541.7,78.9L541.7,78.9L541.7,78.9z"/>
</g>
<g>
	<path class="st2" d="M91.2,28.3l-0.1,1.3l7.9-0.5l0.1-1.2c0.1-0.7,0.8-1.1,2.3-1.2c1.4,0,2.1,0.4,2.1,1l-0.1,1l7.7-0.5
		c0.9,0,1.3,0.8,1.3,2.1c-0.2,1.4-0.8,2.1-1.8,2.2l-7.6,0.5l-0.1,1.5l2.4-0.1c2.2-0.1,3.1,0.8,2.9,2.9l-0.5,5.6
		c-0.2,2.2-1.3,3.3-3.2,3.3l-8.6,0.5L95.7,48l11-0.7c2.1-0.1,3,0.9,2.8,3.1l-0.6,7c0,2.9-1.6,4.4-4.8,4.3c-1,0-2.4-0.2-4.4-0.5
		c-1.8-1.3-1.6-2.5,0.6-3.7c0.3,0.1,0.8,0.1,1.6,0.2c0.9,0.1,1.6,0.2,2.1,0.2c0.3,0,0.5-0.1,0.6-0.3l0.5-5.9c0-0.3-0.1-0.4-0.4-0.4
		l-2.1,0.1c1,1.6,1.7,2.9,1.9,4c-0.8,1.7-1.9,2-3.2,0.9c-4,0.7-8,1.4-12,2c-2,0.4-4,0.7-5.8,0.8c-1.1,0.1-1.6-0.6-1.5-2
		c0-1.3,0.7-2,2.1-2.2c2.2-0.2,4.4-0.5,6.7-0.8l0.2-1.9l-9.4,0.6c-0.3,0-0.5,0.1-0.5,0.3l-0.7,8.4c-0.2,0.9-1,1.4-2.4,1.6
		c-1.4,0-2-0.5-2-1.4l0.8-9.5c0.2-2,1.2-3.1,3.2-3.3l11.1-0.7l0.1-1.2l-9.1,0.5c-1.9,0.2-2.7-0.8-2.4-2.9l0.5-6.1
		c0.1-1.7,1.1-2.6,2.9-2.8l2.7-0.2l0.1-1.5l-7.9,0.5c-1.1,0.1-1.6-0.6-1.4-2.1c0.2-1.3,0.9-2,2.1-2.2l7.6-0.5l0.1-1.3
		C88.3,27,89.8,26.9,91.2,28.3z M84.5,44.1l7.3-0.4l0.1-1.2L84.6,43L84.5,44.1z M84.8,40.3l7.3-0.4l0.1-1.2l-7.3,0.4L84.8,40.3z
		 M98.7,33.4l-8,0.5l-0.1,1.5l8-0.5L98.7,33.4z M95.4,51.9l-0.1,1.6c1.3-0.1,2.6-0.3,3.9-0.5l-0.6-1.3L95.4,51.9z M96.1,43.5
		l7.1-0.4l0.1-1.2l-7.1,0.4L96.1,43.5z M103.6,39.2l0.1-1.2l-7.1,0.4l-0.1,1.2L103.6,39.2z"/>
</g>
<g>
	<path class="st2" d="M116.3,41.9c-1.2,0.1-1.7-0.6-1.6-2.1c0.1-1.5,0.8-2.3,2-2.5l29.9-1.8c1.3,0,1.9,0.8,1.7,2.4
		c-0.2,1.4-1,2.1-2.4,2.2l-8.2,0.5l-1.1,12.3c-0.1,1,0.4,1.4,1.5,1.4l2.8-0.2c1.3,0.2,2.1-1.5,2.4-5.3c0.1-1.2,0.8-1.8,2.2-1.9
		c1.4,0,2.1,0.6,2.1,1.8c-0.3,6.9-2.7,10.1-7.2,9.7l-3.4,0.2c-4,0.3-5.7-1.3-5.2-4.8l1.1-12.9l-4.5,0.3c-1,8.9-4.4,15-10.5,18.4
		c-1.9,1.1-3.2,1.4-4.1,0.8c-1.3-1.2-1.1-2.4,0.6-3.7c5.8-3,8.9-8.1,9.3-15.3L116.3,41.9z M120.7,32.3c-1.3,0.1-1.9-0.7-1.7-2.2
		c0.3-1.5,1.1-2.3,2.4-2.5l23.3-1.4c1.2,0,1.8,0.8,1.7,2.2c-0.1,1.6-0.8,2.4-2,2.5L120.7,32.3z"/>
</g>
<g>
	<path class="st2" d="M168,31.5c1.3-2.2,2.4-4.6,3.4-7c0.1-0.6,0.5-1.1,1.2-1.4c1.3-0.5,2.3-0.2,2.9,0.7c0,0.7-0.1,1.5-0.4,2.4
		l10.7-0.6c1.3,0,1.9,0.8,1.9,2.2c-0.2,1.5-1,2.3-2.3,2.3l-12.5,0.8c-0.6,0.8-1.4,1.9-2.4,3.4c-0.3,0.5-0.5,0.8-0.5,0.9
		c-0.9,1.1-1.9,1.5-2.9,1.2c-1.1-0.4-1.5-1.2-1-2.4c0.1-0.3,0.2-0.6,0.4-0.8l-5.8,0.3l-0.4,2.7l4-0.2c2-0.1,2.9,0.8,2.7,2.8
		l-0.7,7.8c-0.3,5.2-1.3,8.6-2.8,10c-0.9,0.9-2.2,1.5-4.1,1.7c-2.3-0.1-3.3-0.9-3.2-2.5c0.1-1.3,0.8-2,2.1-2.2
		c0.1,0.1,0.2,0.1,0.4,0.1c0.4,0.1,0.8,0.1,1.2-0.1c0.5,0.1,0.9-0.3,1.1-1.2c0.3-0.8,0.5-2.5,0.7-5.2l0.5-6.2
		c-0.1-0.2-0.2-0.3-0.4-0.4l-2.4,0.1c-1.4,7-2.9,12.4-4.5,16c-0.7,1.5-1.7,2.1-3,1.8c-1.3-0.4-1.7-1.4-1.1-2.9
		c2.7-6.3,4.5-13.7,5.4-22l-1.5,0.1c-1.3,0.1-1.9-0.6-1.9-2.1c0.2-1.5,1-2.3,2.3-2.5l3.4-0.2c-0.3-0.1-0.6-0.8-0.9-2.2
		c-0.2-1.1,0.3-1.8,1.4-2.3c1.2-0.5,2.1-0.2,2.7,0.7c0.9,1.8,1.2,3,0.9,3.5l3.4-0.2C167.9,28.6,168.4,29.6,168,31.5z M168.9,37.9
		c-0.1-1.7,1-2.7,3.2-3c2.9-0.7,6.4-1.9,10.4-3.6c1.3-0.5,2.2-0.2,2.7,0.9c0.3,1.4-0.2,2.4-1.4,3c-1.8,0.9-3.4,1.6-4.9,2.1
		c0,1.3,0.1,2.5,0.4,3.8l4.2-2.3c0.9-0.4,1.7-0.2,2.5,0.7c0.5,1.1,0.4,2-0.4,2.7c-0.9,0.6-2.8,1.7-5.5,3.3c0.3,2.9,1.6,5.3,3.7,7.3
		c1.2,1.1,1.3,2.3,0.4,3.7c-1.1,1.1-2.3,1.2-3.6,0.2c-3.7-3.5-5.7-9.5-6-18l-1.2,0.4l-1.1,13.2c1.2-0.4,1.9-0.6,2.1-0.7
		c1.1-0.3,1.9,0.2,2.3,1.3c0.2,1.1-0.2,1.9-1.2,2.4c-3.8,1.4-6.1,2-7,1.7c-0.9-0.1-1.2-1.3-0.9-3.3L168.9,37.9z"/>
</g>
<g>
	<path class="st2" d="M191.7,34.8l3.7-0.2c1.4,0,2,0.9,2,2.7l-1,11.4c1.2,2.2,3.8,3.2,7.7,3.1l17.2-1c1.2-0.1,1.7,0.4,1.6,1.5
		c-0.1,1.2-0.7,1.8-1.9,1.9l-17.4,1c-3.2,0.1-5.9-0.8-8.3-2.7c-0.5-0.3-1-0.2-1.5,0.1c-0.2,0.2-0.5,0.5-0.8,0.9
		c-0.3,0.4-0.7,0.9-1,1.5c-1.2,1-2.1,1.4-2.9,1.1c-1.1-0.8-1.3-1.8-0.5-2.9c1.1-1.3,2.5-2.7,4.1-4.2l0.8-9.6c0-0.4-0.1-0.6-0.5-0.7
		l-1.6,0.1c-1.5,0.2-2.1-0.4-1.8-1.8C189.6,35.6,190.3,35,191.7,34.8z M196.9,30.5c-1.3,0.6-2.2,0.3-2.6-0.9
		c-0.3-0.5-0.7-1.2-1.3-2.1c-0.3-0.4-0.5-0.8-0.8-1.3c-0.6-1.3-0.2-2.3,1-2.9c1.1-0.5,2.1-0.2,2.9,0.7c0.1,0.3,0.2,0.6,0.4,0.9
		c0.8,1.1,1.3,2.1,1.5,2.9C198.3,29,197.9,29.9,196.9,30.5z M210.1,27.9l-4.9,0.3l-0.2,2.4l3.6-0.2c1.5,0,2.2,0.7,2.2,1.9
		c-0.1,0.8-0.1,1.5-0.2,2.1c-0.2,4.1-0.4,7.8-0.8,11.1c-0.7,3.1-2.7,4.4-6.1,3.9c-1.3,0-1.9-0.5-1.8-1.4c0.1-1.3,0.8-1.9,1.9-1.9
		c1.6,0.2,2.3-0.1,2.3-1c0-0.3,0.1-0.6,0.1-0.9c0.6-4.2,0.9-7.4,1-9.8c0-0.3-0.2-0.5-0.7-0.5l-1.8,0.1l-0.1,0.7
		c-0.7,5.3-1.7,9.6-3.2,12.8c-0.9,1.7-2,2.3-3.1,1.7c-1.2-0.3-1.2-1.5,0-3.4c1.4-3.1,2.3-7.2,2.8-12.2l0.4-5.2
		c-1.4,0.1-2.1-0.5-2.1-1.8c0.2-1.2,1-1.9,2.4-2.1l2.2-0.1c-0.1-0.6-0.3-1.1-0.3-1.5c-0.3-1.3,0-2.1,0.8-2.4
		c1.2-0.4,2.1-0.2,2.6,0.4c0.1,0.3,0.2,0.9,0.4,1.9c0.2,0.5,0.3,0.9,0.5,1.3l1.9-0.1c1.1,0,1.7,0.6,1.8,1.8
		C211.8,27.2,211.2,27.9,210.1,27.9z M218.8,22c-0.1,0.2-0.2,0.4-0.2,0.6c-0.1,0.2-0.2,0.4-0.2,0.5l6.1-0.4c1.1,0,1.6,0.7,1.6,2
		c-0.2,1.3-0.9,2-1.9,2l-7.4,0.4c-0.2,0.3-0.5,0.7-0.8,1.1c-0.3,0.4-0.6,0.7-0.7,0.9c0,0.1-0.1,0.2-0.2,0.2c-0.1,0.1-0.1,0.2,0,0.1
		l7-0.4c1.5,0,2.1,0.5,1.9,1.5c-0.1,1.1-1.5,2.7-4.1,5c0.3,0.8,0.7,1.4,1,2l3-0.2c0.9,0,1.3,0.6,1.2,1.7c-0.1,1.1-0.6,1.7-1.5,1.7
		l-2.1,0.1c0,0.6,0,1.2,0,1.9c-0.3,2.1-1,3.7-2,4.8c-2.2,1.7-4.8,2-7.6,0.8c-1-0.5-1.4-1.2-1-2.1c0.5-1.1,1.3-1.5,2.3-1.3
		c1.1,0.3,1.9,0.5,2.5,0.4c1,0.1,1.6-0.6,1.8-2.3c0.1-0.7,0.1-1.3,0.2-1.9l-5.2,0.3c-1.2,0.1-1.7-0.4-1.6-1.5
		c0.1-1.1,0.7-1.7,1.9-1.9l3.9-0.2l-0.1-0.1c-0.7-0.9-1-1.5-0.7-1.7c0-0.4,0.6-1.3,1.7-2.6c0.3-0.2,0.5-0.4,0.6-0.6l-3.7,0.2
		c-1.2,0-1.5-0.8-1-2.3c-1,0.4-1.7,0.2-2-0.6c-0.3-0.7-0.1-1.5,0.6-2.4c1.1-1.1,2.2-3.2,3.3-6.2c0.4-0.9,1.1-1.3,2.2-1.2
		C218.4,20.4,218.9,21,218.8,22z"/>
</g>
<g>
	<path class="st2" d="M230.9,25.2l2.5-0.2l0.4-4.1c0.1-1.2,0.8-1.8,2.2-1.9c1.3,0,1.9,0.6,1.9,1.8l-0.3,4l1.8-0.1
		c1.1,0,1.6,0.7,1.6,2c-0.2,1.3-0.9,2-1.9,2l-1.8,0.1l-0.5,5.6c1-0.7,1.8-0.8,2.4-0.4c0.7,0.5,0.9,1.2,0.7,2.3
		c-0.1,0.6-1.2,1.6-3.5,3.2l-0.9,10.5c-0.3,2.4-1.5,3.6-3.7,3.8c-1.4,0-2.5-0.2-3.5-0.7c-1-0.4-1.4-1.1-1.1-2.1c0.3-0.9,1-1.3,2-1.3
		c0.1,0.1,0.3,0.2,0.7,0.3c1,0.2,1.5,0,1.6-0.8l0.6-7.4c-1.3,0.9-2.2,1.3-2.9,1.2c-1.3,0-1.8-0.8-1.6-2.3c0.3-0.7,0.7-1.3,1.5-1.7
		c0.3-0.2,0.9-0.5,1.7-1c0.7-0.4,1.3-0.8,1.7-1.1l0.7-7.7l-2.7,0.2c-1.3,0.1-1.9-0.5-1.9-1.8C228.8,26.1,229.6,25.4,230.9,25.2z
		 M239.3,49.7l2.2-25.3c0-2.7,1.2-4,3.6-4c6.2-0.6,11.2-1.2,15.3-1.9c1.6-0.2,2.5,0.4,2.7,1.8c-0.1,1.3-1,2.1-2.6,2.5
		c-0.6,0.1-1.5,0.3-2.7,0.5c-1.2,0.2-1.9,0.3-2.2,0.3l-0.6,7.4l6.1-0.4c1.1,0,1.6,0.7,1.5,2c-0.2,1.3-0.9,2-1.9,2l-5.8,0.3
		c-0.2,6.7,0.8,10.8,2.9,12.5c0.1-0.1,0.3-0.7,0.4-1.8c0.2-1,0.3-2.3,0.5-3.9c0.1-1.2,0.7-1.8,1.9-1.9c1.2,0,1.8,0.6,1.8,1.8
		c-0.5,6.5-1.6,10.1-3.4,10.7c-1.5,0.3-2.9-0.3-4.3-1.7c-2.9-2.4-4.1-7.6-3.8-15.5l-5.9,0.4l-0.9,10.5c0.4-0.3,1.4-1.3,3.1-2.8
		c0.9-0.7,1.7-0.8,2.5-0.3c0.8,0.6,1,1.4,0.4,2.3c-0.6,0.7-1.1,1.3-1.6,1.9c0.4,0.1,1,0.3,1.7,0.6c0.9,0.7,1.7,1.4,2.3,2.1
		c0.5,0.9,0.4,1.7-0.4,2.5c-1,0.7-1.8,0.8-2.7,0.3c-0.7-0.5-1.5-1.2-2.3-2.1c-0.7-0.5-0.9-0.9-0.8-1.4c-1.6,1.2-2.7,2-3.3,2.4
		C240.4,52.5,239.2,52,239.3,49.7z M245,31.4l5.8-0.3l0.6-7.1l-4.8,0.6c-0.7,0-1.1,0.3-1.1,0.8L245,31.4z"/>
</g>
<g>
	<path class="st2" d="M269.8,22.3c0.1-2.5,1.4-3.8,3.7-3.9l23.3-1.4c2.6-0.2,3.7,0.9,3.4,3l-2.1,25c-0.1,3.8-3.2,5.2-9.1,4.1
		c-1.4-0.3-1.9-1.1-1.7-2.3c0.4-1.3,1.3-1.9,2.7-1.8c2.8,0.6,4.1,0.2,3.8-1.1l0.5-5.8l-9.1,0.5l-0.7,8.4c-0.2,1.1-1,1.7-2.4,1.9
		c-1.5,0.1-2.2-0.4-2.1-1.5l0.7-8.6l-8.2,0.5c-0.7,3.9-1.8,7.2-3.1,10c-0.8,1.6-2,2.3-3.6,2.1c-1.5-0.5-1.8-1.5-0.9-3
		C267.7,44.2,269.3,35.5,269.8,22.3z M281.1,34.7l0.3-4l-7.9,0.5l-0.3,4L281.1,34.7z M274,26.7l7.9-0.5l0.3-4l-6.7,0.4
		c-0.9,0.1-1.3,0.5-1.3,1.3L274,26.7z M285.9,30.4l-0.3,4l9.1-0.5l0.3-4L285.9,30.4z M286.7,22l-0.3,4l9.1-0.5l0.2-2.8
		c0.1-0.8-0.2-1.2-0.9-1.1L286.7,22z"/>
</g>
<g>
	<path class="st2" d="M304.6,27c-0.4-1.2,0.1-2.1,1.6-2.9c0.5-0.2,1.1-0.5,1.7-0.8c4.8-2,9.2-4.7,13.1-8.3c1.5-1.2,3.1-1.1,4.9,0.1
		c3,2.4,6.5,4.4,10.7,6.1c2,0.8,3.1,1.7,3.2,2.8c-0.1,1.2-0.7,1.9-1.7,2.2c-1.1,0.4-2.8-0.2-5.2-1.6c0.5,1.6,0,2.6-1.6,3l-7.1,0.4
		l-0.2,2.8l11.1-0.7c1.1,0,1.6,0.7,1.6,2c-0.2,1.4-0.9,2.1-2,2.2l-11.1,0.7l-0.7,8.7l3-0.2c1.3-2.1,2.3-4.2,3.2-6.2
		c0.6-1.3,1.6-1.8,2.9-1.5c1.1,0.4,1.5,1.4,0.9,2.9c-1,1.9-1.8,3.4-2.5,4.6l4.8-0.3c1.2,0,1.8,0.6,1.9,1.7c-0.2,1.3-0.9,2-2.1,2.2
		l-29.6,1.8c-1.4,0-2.1-0.7-2.1-1.9c0.3-1.1,1.1-1.7,2.5-1.9l12.6-0.8l0.7-8.7l-11.4,0.7c-1.3,0.1-1.9-0.6-1.8-2
		c0.3-1.3,1.1-2,2.4-2.2l11.1-0.7l0.2-2.8l-7.1,0.4c-1.5,0.2-2-0.6-1.6-2.4c-1.3,0.9-2.4,1.5-3.4,1.8
		C305.8,28.7,304.8,28.3,304.6,27z M311.3,43.2c-0.3-0.6-1.2-2-2.4-4.3c-0.5-0.8-0.3-1.5,0.8-2.3c0.9-0.5,1.8-0.5,2.7,0.1
		c1.2,1.5,2,3,2.6,4.4c0.1,1.1-0.3,1.9-1.3,2.6C312.6,44.2,311.8,44,311.3,43.2z M313.8,24.6l17.2-1c-2.1-1-4.5-2.4-7.3-4.4
		c-0.8-0.4-1.4-0.4-2.1,0.1C319.3,21.3,316.7,23.1,313.8,24.6z"/>
</g>
<g>
	<path class="st0" d="M347.7,19.2c-1.5,0.1-2.2-0.7-2.2-2.2c0.2-1.6,1.1-2.5,2.6-2.7l25.7-1.5c1.3,0,2,0.8,2,2.4
		c-0.3,1.6-1.1,2.4-2.4,2.5l-10.7,0.6l-0.5,5.5l12.2-0.7c1.3,0,1.9,0.8,1.9,2.2c-0.2,1.6-1,2.4-2.3,2.5l-11.4,0.7
		c2.8,5.8,6.5,9.7,11.1,11.5c2.3,0.9,2.9,2.2,1.9,3.7c-0.7,1.4-2.2,1.7-4.4,1c-5.4-2.3-9.4-6-11.8-10.9c-2.7,4.4-7,8.4-12.9,12.1
		c-2.4,1.5-3.9,1.7-4.6,0.4c-0.9-1.6-0.6-2.8,1-3.4c6.8-3.9,11.4-8.6,13.6-14.1l-10.7,0.6c-1.5,0.1-2.2-0.6-2.2-2.1
		c0.1-1.6,0.9-2.5,2.4-2.6l11.4-0.7l0.5-5.5L347.7,19.2z"/>
</g>
<g>
	<path class="st0" d="M385.7,16.9c-1.5,0.1-2.2-0.7-2.2-2.2c0.2-1.6,1.1-2.5,2.6-2.7l25.7-1.5c1.3,0,1.9,0.8,2,2.4
		c-0.3,1.6-1.1,2.4-2.4,2.5L400.8,16l-0.5,5.5l12.2-0.7c1.3,0,1.9,0.8,1.9,2.2c-0.2,1.6-1,2.4-2.3,2.5l-11.4,0.7
		c2.8,5.8,6.5,9.7,11.1,11.5c2.3,0.9,2.9,2.2,1.9,3.7c-0.7,1.4-2.2,1.7-4.4,1c-5.4-2.3-9.4-6-11.8-10.9c-2.7,4.4-7,8.4-12.9,12.1
		c-2.4,1.5-3.9,1.7-4.6,0.4c-0.9-1.6-0.6-2.8,1-3.4c6.8-3.9,11.4-8.6,13.6-14.1L384,27.2c-1.5,0.1-2.2-0.6-2.2-2.1
		c0.1-1.6,0.9-2.5,2.4-2.6l11.4-0.7l0.5-5.5L385.7,16.9z"/>
</g>
<g>
	<path class="st0" d="M421.5,13.9l2.5-0.2l0.3-3.8c0.1-1.2,0.8-1.9,2.2-2c1.3,0,1.9,0.6,1.9,1.8l-0.3,3.8l1.3-0.1
		c1.3,0,1.9,0.7,1.9,1.9c-0.2,1.3-1,2-2.2,2l-1.3,0.1l-0.5,6.2l0.9-0.5c1.2-0.5,2.1-0.2,2.6,0.9c0.3,1.3-0.1,2.3-1.3,3
		c-0.1,0.1-0.3,0.2-0.5,0.3c-0.7,0.4-1.5,0.8-2.2,1.2L426,38.8c0,2.8-1.4,4.1-4.2,3.8c-1.4-0.1-2.6-0.3-3.7-0.5
		c-1.1-0.5-1.6-1.3-1.3-2.4c0.4-1,1.2-1.5,2.3-1.5c0.1,0.1,0.2,0.1,0.4,0.1c1.6,0.3,2.3,0.1,2.3-0.7l0.6-7.2c-1,0.6-2,0.9-2.8,1
		c-1.5,0-2.1-0.8-1.9-2.2c0.1-1,0.8-1.8,2.1-2.3c0.3-0.1,0.7-0.3,1.1-0.5c0.8-0.3,1.4-0.6,1.8-0.8l0.7-7.7l-2.8,0.2
		c-1.1,0.1-1.6-0.6-1.5-2C419.6,14.8,420.3,14.1,421.5,13.9z M436,12.3l4.8-0.3l0.3-3c0.1-1.2,0.9-1.9,2.3-2.2
		c1.4,0,2.1,0.6,2.1,1.8l-0.3,3.1l4.6-0.3c2.6-0.3,3.7,0.7,3.5,2.9l-1.9,22.5c-0.1,2.2-1.5,3.3-4.1,3.3L434,41
		c-3.1,0.3-4.3-0.7-3.7-2.9l1.9-22.2C432.1,13.7,433.4,12.5,436,12.3z M435.6,37l3-0.2l0.7-8.7l-4,0.2l-0.7,7.8
		C434.5,36.9,434.8,37.2,435.6,37z M435.7,24.1l4-0.2l0.7-7.7l-3.1,0.2c-0.6,0.1-0.9,0.5-1,1.1L435.7,24.1z M447.7,27.6l-4,0.2
		l-0.7,8.7l3.1-0.2c0.6,0,0.9-0.3,1-0.9L447.7,27.6z M444.7,15.9l-0.7,7.7l4-0.2l0.6-6.5c0-0.7-0.3-1.1-0.8-1.1L444.7,15.9z"/>
</g>
<g>
	<path class="st0" d="M475.5,20.8l3.6,4l1.6-1.7c1.1-1.2,2.1-1.9,3-1.9c1.3,0,1.9,0.8,1.9,2.2c-0.2,1.1-1,2.3-2.4,3.7l-1,1.1
		l2.3,2.8c0.5,0.6,0.8,1.2,0.7,1.9c-0.3,1.4-1.3,2.2-2.9,2.4c-0.9,0-1.6-0.2-2-0.5l-2.3-2.5c-3,2.3-5.9,3.6-8.8,3.8
		c-5.9,0.3-8.8-2.2-8.5-7.3c0.3-3.4,2.4-6.2,6.4-8.6c-1.6-1.4-2.2-3-1.9-4.9c0.5-4,3.3-6.2,8.4-6.8c4.9,0.2,7.4,2,7.4,5.4
		C480.6,16.4,478.8,18.8,475.5,20.8z M474.9,28.8l-5-5.7c-2.4,1.6-3.6,3.2-3.7,4.8c-0.1,2.4,1.1,3.5,3.5,3.5
		C471.6,31.3,473.3,30.5,474.9,28.8z M475.5,14.8c0-1.4-0.8-2.1-2.3-2.1c-1.4,0.3-2.2,1-2.4,2.1c-0.3,0.8,0.3,1.8,1.8,3.1
		C474.5,16.8,475.5,15.8,475.5,14.8z"/>
</g>
<g>
	<path class="st0" d="M7.7,108.1l2.1-25c0.2-2.2,1.4-3.4,3.6-3.6c2.1,0,3,1.1,3,3.2l-2.1,25c-0.3,2.1-1.5,3.2-3.5,3.3
		C8.5,111.2,7.5,110.2,7.7,108.1z"/>
</g>
<g>
	<path class="st0" d="M23.3,107.2l1.9-22.1l-4.8,0.3c-1.6,0.1-2.4-0.9-2.3-2.9c0.3-1.8,1.2-2.9,2.8-3.1l16.4-1
		c1.7,0,2.6,0.9,2.7,2.7c-0.3,2.1-1.4,3.1-3.2,3.3l-4.8,0.3l-1.9,22.1c-0.4,2.1-1.6,3.2-3.7,3.3C24.2,110.2,23.2,109.2,23.3,107.2z"
		/>
</g>
<g>
	<path class="st0" d="M39.2,106.2l2.1-24.7c0.3-2.1,1.5-3.3,3.6-3.6l11.4-0.7c1.7,0,2.6,0.9,2.7,2.7c-0.3,2.1-1.4,3.1-3.2,3.3
		l-8.1,0.5l-0.5,6.3l6.9-0.4c1.8,0,2.8,1,2.8,2.9c-0.4,2.1-1.5,3.2-3.4,3.3l-6.9,0.4l-0.8,9.6c-0.3,2.1-1.5,3.2-3.5,3.3
		C40,109.3,39,108.3,39.2,106.2z"/>
</g>
<g>
	<path class="st0" d="M75.4,82.6c1.3-2.2,2.4-4.6,3.4-7c0.1-0.6,0.5-1.1,1.2-1.4c1.3-0.5,2.3-0.2,2.9,0.7c0,0.7-0.1,1.5-0.4,2.4
		l10.7-0.6c1.3,0,1.9,0.8,1.9,2.2c-0.2,1.5-1,2.3-2.3,2.3l-12.5,0.7c-0.6,0.8-1.4,1.9-2.4,3.4c-0.3,0.5-0.5,0.8-0.5,0.9
		c-0.9,1.1-1.9,1.5-2.9,1.2c-1.1-0.4-1.5-1.2-1-2.4c0.1-0.3,0.2-0.6,0.4-0.8l-5.8,0.3l-0.4,2.7l4-0.2c2-0.1,2.9,0.8,2.7,2.8
		l-0.7,7.8c-0.3,5.2-1.3,8.6-2.8,10c-0.9,0.9-2.2,1.5-4.1,1.7c-2.3-0.1-3.3-0.9-3.2-2.5c0.1-1.3,0.8-2,2.1-2.2
		c0.1,0.1,0.2,0.1,0.4,0.1c0.4,0.1,0.8,0.1,1.2-0.1c0.5,0.1,0.9-0.3,1.1-1.2c0.3-0.8,0.5-2.5,0.7-5.2l0.5-6.2
		c-0.1-0.2-0.2-0.3-0.4-0.4L67,92c-1.4,7-2.9,12.4-4.5,16c-0.7,1.5-1.7,2.1-3,1.8c-1.3-0.4-1.7-1.4-1.1-2.9c2.7-6.3,4.5-13.7,5.4-22
		L62.4,85c-1.3,0.1-1.9-0.6-1.9-2.1c0.2-1.5,1-2.3,2.3-2.5l3.4-0.2c-0.3-0.1-0.6-0.8-0.9-2.2c-0.2-1.1,0.3-1.8,1.4-2.3
		c1.2-0.5,2.1-0.2,2.7,0.7c0.9,1.8,1.2,3,0.9,3.5l3.4-0.2C75.3,79.8,75.8,80.8,75.4,82.6z M76.3,89.1c-0.1-1.7,1-2.7,3.2-3
		c2.9-0.7,6.4-1.9,10.4-3.6c1.3-0.5,2.2-0.2,2.7,0.9c0.3,1.4-0.2,2.4-1.4,3c-1.8,0.9-3.4,1.6-4.9,2.1c0,1.3,0.1,2.5,0.4,3.8l4.2-2.3
		c0.9-0.4,1.7-0.2,2.5,0.7c0.5,1.1,0.4,2-0.4,2.7c-0.9,0.6-2.8,1.7-5.5,3.3c0.3,2.9,1.6,5.4,3.7,7.3c1.2,1.1,1.3,2.3,0.4,3.7
		c-1.1,1.1-2.3,1.2-3.6,0.2c-3.7-3.5-5.7-9.5-6-18l-1.2,0.4l-1.1,13.2c1.2-0.4,1.9-0.6,2.1-0.7c1.1-0.3,1.9,0.2,2.3,1.3
		c0.2,1.1-0.2,1.9-1.2,2.4c-3.8,1.4-6.1,2-7,1.7c-0.9-0.1-1.2-1.3-0.9-3.3L76.3,89.1z"/>
</g>
<g>
	<path class="st0" d="M100.6,77.7c0.1-2.5,1.1-3.7,2.8-3.7l26.2-1.6c1.6-0.1,2.3,0.7,2.2,2.4l-0.4,5c-0.1,1.4-0.9,2.1-2.4,2.1
		l-3.6,0.2l-0.2,2.1l4.3-0.3c1.3,0,2,0.6,2.1,1.8c-0.1,1.3-0.8,2-2.1,2l-4.6,0.3l-0.2,1.9l4.9-0.3c1.2,0,1.8,0.7,1.9,1.9
		c-0.2,1.3-0.9,2-2.1,2l-11.1,0.7c0.6,1.5,1.3,2.8,2.3,3.7c1.9-0.9,3.6-1.9,5-3.1c1-0.7,1.9-0.6,2.6,0.3c0.6,0.9,0.4,1.8-0.5,2.7
		c-1.4,1.2-2.7,2-3.9,2.4c1.1,0.7,2.4,1.1,3.7,1.2c3.1,0.1,3.9,1.3,2.4,3.5c-0.6,0.8-1.9,0.9-4,0.4c-6.5-1.5-10.5-5.1-12.1-10.9
		l-3.6,0.2l-0.6,7.1c0.8-0.1,1.5-0.3,2.1-0.4c1.6-0.5,2.6-0.7,2.9-0.8c1.1,0.1,1.6,0.8,1.6,2c-0.1,0.9-0.7,1.5-1.8,1.9
		c-0.8,0.1-1.5,0.3-2.1,0.6c-1.6,0.5-3,0.9-4.1,1.1c-2.2,0.6-3.1-0.4-2.7-3.1l0.7-8.1l-3.6,0.2c-0.5,3-1.1,5.8-2,8.4
		c-0.8,2.4-1.9,3.4-3.4,3.1c-1.4,0-1.7-1-1.1-2.9c1.8-4.7,3-9.9,3.5-15.5L100.6,77.7z M106.5,85.3l3.7-0.2l0.2-2.1l-6.4,0.4
		l-0.4,4.7c-0.1,1.1-0.2,2.1-0.4,3.1l6.5-0.4l0.2-1.9l-3.7,0.2c-1.2,0.1-1.8-0.5-1.8-1.8C104.6,86.2,105.3,85.5,106.5,85.3z
		 M104.4,78l-0.2,1.8l23-1.4l0.2-1.8L104.4,78z M114,88.7l-0.2,1.9l6.7-0.4l0.2-1.9L114,88.7z M121,84.5l0.2-2.1l-6.7,0.4l-0.2,2.1
		L121,84.5z"/>
</g>
<g>
	<path class="st0" d="M138.4,76.5c-1.2,0.1-1.7-0.6-1.6-2c0.2-1.3,0.9-2,2.1-2.2l8.2-0.5c1,0,1.5,0.7,1.4,2.1c-0.3,1.3-1,2-1.9,2
		l-1.6,0.1l-0.6,6.7l1.2-0.1c1.2,0,1.8,0.7,1.8,2c-0.2,1.3-0.9,2-2.1,2l-1.2,0.1l-0.6,7c0.9-0.3,1.5-0.4,1.8-0.6
		c0.2,0,0.3-0.1,0.5-0.2c1.1-0.3,1.9,0.1,2.3,1.2c0.3,1.2,0,2-1,2.6c-3.4,1.8-7,3.1-10.8,4c-1.2,0.3-2-0.2-2.2-1.5
		c-0.2-1.4,0.3-2.3,1.4-2.7c1.7-0.4,3-0.8,3.8-1.3l0.7-8.3l-2.5,0.2c-1.1,0.1-1.7-0.5-1.8-1.8c0.2-1.3,0.9-2,2-2.2l2.7-0.2l0.6-6.7
		L138.4,76.5z M149.3,73.8c0.1-2,1.1-3,3.2-3.1l14.3-0.9c1.8-0.1,2.6,0.9,2.4,2.9L168,87.5c-0.1,2.2-1.2,3.2-3.2,3.1l-2.8,0.2
		l-0.6,7.1c-0.2,0.7,0.1,1,0.7,0.8l1.5-0.1c0.6,0.3,1-1,1.2-3.8c0.1-1.3,0.9-2.1,2.3-2.3c1.4,0,2.1,0.7,2.1,1.9
		c-0.3,5.7-1.8,8.4-4.5,8.1l-4,0.2c-2.5,0.1-3.6-0.9-3.3-3l0.7-8.7l-1.9,0.1c-0.8,6.5-4.6,11-11.7,13.5c-1.5,0.4-2.5,0-3-1.1
		c-0.5-1.5,0-2.5,1.3-2.9c5.5-1.3,8.5-4.4,8.8-9.2l-0.9,0.1c-1.9,0.3-2.7-0.6-2.4-2.8L149.3,73.8z M163.4,86.9
		c0.3,0,0.5-0.2,0.5-0.5l0.1-1.6l-11.6,0.7l-0.1,1.6c-0.1,0.4,0.1,0.5,0.6,0.4L163.4,86.9z M164.5,79.4L152.9,80l-0.2,2.1l11.6-0.7
		L164.5,79.4z M153.9,74.4c-0.3,0-0.5,0.2-0.5,0.5l-0.1,1.6l11.6-0.7l0.1-1.6c0-0.3-0.1-0.4-0.4-0.4L153.9,74.4z"/>
</g>
<g>
	<path class="st0" d="M178.1,88l0.7-8.3l-2.4,0.1c-1.2,0.1-1.8-0.6-1.8-2c0.2-1.3,0.9-2,2.1-2.2l2.4-0.1l0.5-5.8
		c0.1-1.1,0.8-1.7,2.1-1.9c1.3,0,1.9,0.6,1.9,1.7l-0.5,5.8l1.6-0.1c1.1,0,1.6,0.7,1.6,2c-0.2,1.4-0.9,2.1-2,2.2l-1.6,0.1l-0.6,6.5
		c1.1-0.7,1.9-0.9,2.4-0.6c-0.8-2-0.1-3.2,2.1-3.5l20.1-1.2c1.1,0,1.6,0.7,1.6,2c-0.2,1.3-0.9,2-1.9,2l-13.1,0.8l-0.8,1.1l12-0.7
		c1.9-0.1,2.7,0.8,2.6,2.6c-0.2,2.3-0.4,3.8-0.5,4.4c-0.1,0.9-0.3,1.9-0.6,3c-0.4,4-3.3,5.8-8.4,5.4c-2.4-0.2-3.3-1.3-2.5-3.2
		c-2.4,2.2-5.1,3.7-8.1,4.6c-1.2,0.2-1.9-0.2-2.1-1.2c-0.1-0.9,0.4-1.6,1.7-2.2c5.1-2.3,8.7-5.4,10.7-9.3l-1.5,0.1
		c-4.8,6.3-10.3,10.1-16.7,11.4c-1.4,0.2-2.1-0.3-2.2-1.5c0.2-0.9,1-1.6,2.4-2.1c4.6-1.2,8.5-3.7,11.7-7.6l-1.5,0.1
		c-4.8,4.4-9.1,6.7-12.7,6.9c-1,0.1-1.5-0.4-1.6-1.5c0-1,0.4-1.6,1.4-2c5.9-1.6,10-4.3,12.4-8.1l-3.4,0.2c0.8,1,0.4,2.1-1.2,3.2
		c-2,1.4-4.8,2.8-8.3,4.2c-1.6,0.7-2.7,0.6-3.2-0.4c-0.4-1.4,0.2-2.6,1.6-3.3C174.6,89.5,175.9,89,178.1,88z M190,80.5
		c-2.3,0.3-3.3-0.6-2.9-2.8l0.5-6.4c0.1-1.7,1-2.6,2.4-2.6l14.7-0.9c1.8-0.1,2.6,0.7,2.4,2.5l-0.5,6.4c-0.2,2-1.1,3-2.8,3L190,80.5z
		 M191.3,76.1l-0.1,1.2l11.6-0.7l0.1-1.2L191.3,76.1z M203.1,72.3l0.1-1.3l-11.6,0.7l-0.1,1.3L203.1,72.3z M196.9,96.7
		c1.6,0.3,2.7,0.4,3.1,0.3c1.3,0.4,2.2-2,2.7-7.2l-1,0.1C200.6,92.5,199,94.8,196.9,96.7z"/>
</g>
<g>
	<path class="st0" d="M213.8,99.8c-2,0-2.9-0.9-2.7-2.8l2.4-28c0-1.9,0.9-2.8,2.9-2.8l27.8-1.7c2-0.1,2.9,0.8,2.7,2.6l-2.4,28.2
		c0,1.8-1.1,2.7-3.3,2.7L213.8,99.8z M219.3,71.6l8.5-0.5l0.1-1.5l-10.4,0.6L215.3,96l8.5-0.5c-0.2-0.2-0.5-0.6-1.1-1.1
		c-1.1-0.9-1.5-1.7-1.1-2.4l-4.2,0.2c-1.6-1-1.4-2.1,0.4-3.3L233,88l0.1-1l-14.6,0.9c-1.6-0.9-1.5-1.9,0.3-3.1l7.9-0.5l0.1-1
		l-6.5,0.4c-1.9,0.2-2.7-0.7-2.4-2.6l0.2-1.9c0.1-1.9,0.9-2.9,2.6-3l6.8-0.4l0.1-1l-8.3,0.5C217.5,74.2,217.5,73,219.3,71.6z
		 M227,80.3l-5.4,0.3l-0.1,1.2l5.4-0.3L227,80.3z M221.8,79.2l5.4-0.3l0.1-1.2l-5.4,0.3L221.8,79.2z M227.2,95.3
		c0-0.9,0.2-1.6,0.8-2.1c0.3-0.3,0.9-0.3,1.8-0.1c0.2,0,0.4,0,0.6,0c0,0.1,0,0.1,0.1,0.1c1.4,0.3,2.1,0.1,2.1-0.6l0.1-1.3l-7.1,0.4
		l1.1,1.4c0.4,1,0.1,1.7-0.8,2.3L227.2,95.3z M236.1,82.7l-5.4,0.3l-0.1,1l5.5-0.3C235.9,83.3,235.9,82.9,236.1,82.7z M231,80.1
		l-0.1,1.2l5.2-0.3l0.1-1.2L231,80.1z M231.2,77.4l-0.1,1.2l5.2-0.3l0.1-1.2L231.2,77.4z M242.5,68.8l-10.6,0.6l-0.1,1.5l8.6-0.5
		c1.3,1.1,1.2,2.3-0.2,3.5l-8.8,0.5l-0.1,1l7.1-0.4c1.2,0.1,1.8,0.7,1.8,1.7l-0.4,4.1c0,0.3-0.2,0.7-0.5,1.1l0,0.1
		c0.7,0.8,1.3,1.6,1.7,2.2L242.5,68.8z M241.2,85.9c-0.4,0.8-0.8,1.2-1.4,1.1c-0.7,0.1-1.2,0-1.4-0.5l-1.2,0.1l-0.1,1.2l2.2-0.1
		c0.9,0,1.3,0.6,1.2,1.5c-0.1,1.1-0.6,1.7-1.5,1.7l-2.2,0.1l-0.2,1.8c-0.1,0.8-0.3,1.4-0.6,1.9l4.5-0.3L241.2,85.9z"/>
</g>
<g>
	<path class="st0" d="M262.6,82.1l-1.1,12.3c0,2.4-1.2,3.5-3.5,3.5c-2.2,0.1-3.1-0.5-2.8-2c0.1-1,0.6-1.5,1.6-1.6
		c0.9,0,1.3-0.1,1.4-0.5l0.2-2.4l-4.6,0.3l-0.4,5c-0.1,1.2-0.7,1.8-1.9,1.9c-1.2,0.1-1.7-0.5-1.5-1.7l1.2-14.1
		c-1.3,0.3-1.9-0.4-1.8-2l0.3-3.4c0-1.6,0.6-2.4,1.7-2.5l0.7-8c0-1.5,0.9-2.3,2.6-2.4l7.4-0.4c1.7-0.2,2.4,0.5,2.2,2.2l-0.7,7.8
		c0.7,0.1,1,0.7,1,1.9l-0.3,3.8C264.1,81.5,263.5,82.2,262.6,82.1z M253,78.9l-0.1,1l8-0.5l0.1-0.9c-0.1-0.4-0.3-0.6-0.7-0.7
		l-6.7,0.4C253.3,78.3,253,78.5,253,78.9z M258.8,86.8l-4.6,0.3l-0.2,1.9l4.6-0.3L258.8,86.8z M254.4,84.5l4.6-0.3l0.1-1.3
		c-0.1-0.2-0.2-0.3-0.4-0.4l-3.7,0.2c-0.3,0-0.5,0.2-0.5,0.5L254.4,84.5z M256.3,71.9l-1.2,0.1l-0.2,2.7l1.6-0.1l0.2-2.2
		C256.6,72.2,256.5,72,256.3,71.9z M259.1,71.2l-0.3,3.3l1.6-0.1l0.5-6.1c0-0.3-0.2-0.5-0.5-0.6l-4.6,0.3c-0.3,0.1-0.5,0.4-0.5,0.8
		l-0.1,0.7l2.4-0.1C258.8,69.3,259.2,69.9,259.1,71.2z M264.9,88.6l0.3-3.1c0-1.5,0.8-2.3,2.4-2.4l12.3-0.7c1.7-0.2,2.4,0.5,2.2,2.2
		l-0.3,3c-0.1,1.6-0.9,2.4-2.4,2.4l-0.4,0c-0.3,1-0.6,1.8-0.9,2.4l4.2-0.2c0.9,0,1.3,0.5,1.4,1.4c-0.1,1.2-0.6,1.8-1.6,1.9
		l-18.1,1.1c-1.2,0.1-1.7-0.5-1.6-1.7c0-1,0.6-1.5,1.9-1.6l3.9-0.2c-0.1-0.6-0.3-1.4-0.5-2.3l-0.4,0
		C265.3,90.9,264.7,90.2,264.9,88.6z M266,78.8l16.5-1c1,0,1.4,0.6,1.3,1.5c-0.1,1.2-0.6,1.8-1.6,1.7l-16.5,1
		c-1.1,0.2-1.6-0.3-1.4-1.4C264.4,79.5,264.9,78.9,266,78.8z M268.7,65.2l2.7-0.2l0.1-1c0.1-1,0.7-1.5,1.9-1.6
		c1-0.1,1.4,0.4,1.4,1.4l-0.1,1l1.8-0.1l0.1-1c0-1,0.6-1.5,1.8-1.6c1.1-0.1,1.6,0.4,1.5,1.4l-0.1,1l2.7-0.2c1.6,0,2.3,0.6,2.2,1.9
		l-0.6,7.5c-0.2,2-0.9,2.9-2.3,2.8l-13.5,0.8c-1.9,0.2-2.7-0.4-2.5-1.9l0.7-7.8C266.3,66.1,267.1,65.2,268.7,65.2z M278.4,86.6
		l0.1-0.6c-0.1-0.4-0.3-0.6-0.7-0.7l-8.5,0.5c-0.5,0.1-0.7,0.4-0.7,0.8l-0.1,0.6c-0.1,0.5,0,0.7,0.5,0.6l8.5-0.5
		C278.1,87.3,278.3,87.1,278.4,86.6z M269.6,74.5l0.9-0.1l0.2-1.9l-1.6,0.1l-0.1,1.2C268.8,74.3,269.1,74.5,269.6,74.5z M269.4,68.6
		l-0.1,1.2l1.6-0.1l0.2-1.9l-0.9,0.1C269.6,68,269.3,68.3,269.4,68.6z M271.3,92.8l3.3-0.2c0.3-0.6,0.7-1.4,0.9-2.4l-4.8,0.3
		C271,91.3,271.2,92,271.3,92.8z M274,72.3l-0.2,1.9l1.8-0.1l0.2-1.9L274,72.3z M274.2,69.5l1.8-0.1l0.2-1.9l-1.8,0.1L274.2,69.5z
		 M279,72l-0.2,1.9l1-0.1c0.4,0,0.7-0.3,0.8-0.8l0.1-1.2L279,72z M279.3,69.2l1.8-0.1l0.1-1.2c-0.1-0.4-0.3-0.6-0.7-0.7l-1,0.1
		L279.3,69.2z"/>
</g>
<g>
	<path class="st2" d="M287,77.7c-0.1-0.3,0-0.7,0.2-1.2c0.5-0.8,0.9-1.6,1.4-2.4c1.3-2.5,2.5-5.2,3.5-7.9c0.1-0.4,0.3-1.1,0.6-2.1
		c0.3-0.7,0.5-1.3,0.6-1.7c2.1-1.7,3.5-1.5,4.1,0.5c-0.1,0.7-0.6,2.4-1.8,5.1c-0.5,1.4-0.8,2.2-0.8,2.3l-2,24
		c-0.2,1.1-0.9,1.7-2.2,1.9c-1.3,0-1.9-0.6-1.8-1.7l1.4-15.8C288.5,80,287.4,79.7,287,77.7z M299.2,66c-1,0.1-1.5-0.5-1.5-1.8
		c0.2-1.2,0.8-1.9,1.8-2l21.9-1.3c1.1,0,1.6,0.6,1.6,1.8c-0.2,1.3-0.9,2-1.9,2l-9.1,0.5l-0.1,1.2l5.5-0.3c1.3,0,1.9,0.7,1.9,2.1
		l-0.5,6.1l1.5-0.1c1.6-0.1,2.3,0.7,2.2,2.5l-0.1,1.6c-0.3,1.9-1,2.9-2.2,2.9c0.9,1,1.4,1.7,1.4,2.1c-0.2,2-1.2,2.7-3.1,2.1
		c-0.6-0.5-1.7-1.6-3.3-3.2c-0.1-0.1-0.1-0.2-0.1-0.3c-0.3,0.6-0.8,1.1-1.5,1.4c-0.8,0.5-2,0.8-3.6,0.8l-2.2,0.1
		c-0.4,0.3-0.8,0.6-1.1,1l9.5-0.6c0.8,0.1,1.2,0.6,1.3,1.5c-0.2,0.7-0.6,1.3-1.2,1.7c-1.3,1.2-2.7,2.2-4.3,3.1
		c1.3-0.1,3.3-0.2,5.9-0.4c1.2-0.1,1.9-0.1,2.2-0.1c1.5,1.3,1.3,2.4-0.4,3.4c-4.8,0.4-9,0.2-12.8-0.6c-1.3,0.6-2.9,1-4.8,1.3
		c-3.3,0.7-5.7,1.1-7.2,1.2c-0.7-0.2-1-0.8-1-2c0.2-1,0.7-1.5,1.5-1.6c0.7-0.1,1.5-0.2,2.4-0.3c2.5-0.2,4.2-0.4,5.2-0.5
		c-0.7-0.3-1.6-0.8-2.8-1.7c-1.9,1.2-3.4,1.9-4.6,2c-1.9-0.5-2.1-1.6-0.5-3.4c4.3-1.5,6.9-2.9,8-4c-0.6-0.4-0.8-0.9-0.7-1.7l0.4-4.3
		l-3.1,0.2c-0.3,0.1-0.5,0.3-0.5,0.5l-0.1,1.3c1.4-0.8,2.4-0.4,2.7,1c-0.4,1.2-1.4,2.8-2.9,4.9c-0.8,0.7-1.6,0.9-2.4,0.6
		c-0.6-0.6-0.7-1.3-0.1-2.2c0.1-0.1,0.5-0.7,1-1.8c-1.5,0.3-2.2-0.1-2.1-1l0.3-3.3c0.2-1.9,0.9-2.9,2.3-3.1l1-0.1l0.5-5.5
		c0-2,0.8-2.9,2.5-2.9l5.4-0.3l0.1-1.2L299.2,66z M302.9,75.2l11.9-0.7l0.1-1L303,74.1L302.9,75.2z M303.2,71.6l-0.1,1l11.9-0.7
		l0.1-1L303.2,71.6z M315.2,69.4l0.1-1l-11.9,0.7l-0.1,1L315.2,69.4z M304.3,88.3c0.9,0.7,2,1.3,3.1,1.6c2-0.9,3-1.6,2.8-1.9
		L304.3,88.3z M306.3,80.6c0,0.3,0.1,0.4,0.4,0.4l2.5-0.2c-1.3-1.5-1.6-2.5-1.1-2.9l-1.6,0.1L306.3,80.6z M311,80.7
		c0.3,0,0.7-0.3,1.3-0.8c0.4-0.5,0.8-0.8,1.1-0.8c0.4,0.1,0.8,0.2,1.2,0.2c0.1-0.6,0.6-1,1.4-1.3c0.5,0,1.1,0.2,1.9,0.8
		c0.1-0.1,0.2-0.3,0.2-0.5c0.1-0.8-0.1-1.1-0.4-1l-7.4,0.4c0.4,0.7,0.7,1.2,0.9,1.6c0.2,0.8-0.2,1.2-1.2,1.4L311,80.7z"/>
</g>
<g>
	<path class="st2" d="M325.2,90.7c1.2-1.4,2.4-3.1,3.5-4.9c0.8-1,1.8-1.3,3-0.9c0.8,0.6,0.9,1.6,0.2,2.8c-1.3,2.1-2.6,4-3.9,5.5
		c-1,0.9-1.9,1-2.8,0.3C324.4,92.7,324.4,91.8,325.2,90.7z M342.3,60.4c0.1-1.3,0.9-2,2.4-2.2c1.4,0,2.1,0.7,2.1,1.9l13.2-0.8
		c1.3,0,1.9,0.7,1.9,1.9c-0.2,1.4-1,2.1-2.3,2.2l-13.2,0.8l-0.1,1.2l9.5-0.6c2.3-0.2,3.3,0.8,3,3.2l-0.5,5.6c-0.2,1.7-0.9,2.5-2,2.5
		c1.6,1.5,2.7,2.5,3.3,3c0.6,0.7,0.6,1.6-0.1,2.7c-0.8,0.8-1.6,1-2.4,0.4c-0.2,0-0.6-0.3-1.1-0.8c-0.8,0.1-1.9,0.3-3.3,0.5
		c-2.9,0.4-5.2,0.6-6.9,0.6c0.4,0.5,0.9,1.2,1.6,2.1c0.2,0.2,0.3,0.3,0.4,0.4c0.4,0.9,0.2,1.7-0.8,2.4c-0.9,0.6-1.8,0.6-2.5,0
		c-0.7-0.6-1.4-1.4-2-2.4c-0.4-0.8-0.3-1.5,0.3-2.2L327,84c-1.3,0.1-2-0.5-2.1-1.8c0.2-1.4,1-2.2,2.3-2.3l13.5-0.8l0.1-1.3l-10,0.6
		c-1.9,0.2-2.7-0.8-2.4-2.9l0.5-5.8c0.2-2.1,1.2-3.2,2.9-3.3l10-0.6l0.1-1.2l-13.7,0.8c-1.2,0.1-1.7-0.6-1.6-2c0.1-1.3,0.8-2,2-2.2
		L342.3,60.4z M341.1,74.2l0.1-1l-8.5,0.5l-0.1,0.6c0,0.3,0.1,0.4,0.4,0.4L341.1,74.2z M341.5,70.2l0.1-1l-8,0.5
		c-0.3,0-0.5,0.2-0.5,0.5l-0.1,0.6L341.5,70.2z M338.8,92.7c-3.5,0.3-5-0.8-4.5-3.3l0.3-3.7c0.1-1.2,0.8-1.9,2.2-2
		c1.4,0,2.1,0.6,2.1,1.8l-0.2,2.7c0,0.5,0.3,0.7,1,0.7l8.2-0.5c0.5,0.2,0.8-0.1,1-0.8c0-0.1,0-0.2,0-0.4c0.2-0.7,0.4-1.2,0.7-1.5
		c0.5-0.4,1-0.7,1.5-0.7c1.5-0.1,2.2,0.7,2,2.4c-0.1,3.2-1.9,4.9-5.6,4.9L338.8,92.7z M345.3,77.5l-0.1,1.3c0.8,0.1,2,0,3.6-0.2
		c1.5-0.2,2.7-0.3,3.6-0.4l-0.9-1.1L345.3,77.5z M354.2,73l0.1-0.6l-8.6,0.5l-0.1,1l8.2-0.5C354,73.4,354.2,73.3,354.2,73z
		 M354.5,69.4l0.1-0.6c0-0.3-0.1-0.4-0.4-0.4l-8.2,0.5l-0.1,1L354.5,69.4z M355.9,89.8c-0.3-0.5-0.7-1-1.2-1.7
		c-0.6-1.1-1.1-2-1.4-2.7c-0.7-1-0.5-2,0.7-2.8c1.2-0.6,2.2-0.3,2.9,0.7c0,0.1,0,0.2,0.1,0.3c0.9,1.7,1.7,3.1,2.2,4.1
		c0.4,0.9,0.1,1.7-0.9,2.4C357.2,90.7,356.4,90.6,355.9,89.8z"/>
</g>
<g>
	<path class="st2" d="M366.6,62.7l2.5-0.2l0.4-4.1c0.1-1.2,0.8-1.8,2.2-1.9c1.3,0,1.9,0.6,1.9,1.8l-0.3,4l1.8-0.1
		c1.1,0,1.6,0.7,1.6,2c-0.2,1.3-0.9,2-1.9,2l-1.8,0.1l-0.5,5.6c1-0.7,1.8-0.8,2.4-0.4c0.6,0.5,0.9,1.2,0.7,2.3
		c-0.1,0.6-1.2,1.6-3.5,3.2l-0.9,10.5c-0.3,2.4-1.5,3.6-3.7,3.8c-1.4,0-2.5-0.2-3.5-0.7c-1-0.4-1.4-1.1-1.1-2.1c0.3-0.9,1-1.3,2-1.3
		c0.1,0.1,0.3,0.2,0.7,0.3c1,0.2,1.5,0,1.6-0.8l0.6-7.4c-1.3,0.9-2.2,1.3-2.9,1.2c-1.3,0-1.8-0.8-1.6-2.3c0.3-0.7,0.7-1.3,1.5-1.7
		c0.3-0.2,0.9-0.5,1.7-1c0.7-0.4,1.3-0.8,1.7-1.1l0.7-7.7l-2.7,0.2c-1.3,0.1-1.9-0.5-1.9-1.8C364.5,63.6,365.3,62.8,366.6,62.7z
		 M375.1,87.2l2.2-25.3c0-2.7,1.2-4,3.6-4c6.2-0.6,11.2-1.2,15.3-1.9c1.6-0.2,2.5,0.4,2.7,1.8c-0.1,1.3-1,2.1-2.6,2.5
		c-0.6,0.1-1.5,0.3-2.7,0.5c-1.2,0.2-1.9,0.3-2.2,0.3l-0.6,7.4l6.1-0.4c1.1,0,1.6,0.7,1.5,2c-0.2,1.3-0.9,2-1.9,2l-5.8,0.3
		c-0.2,6.7,0.8,10.8,2.9,12.5c0.1-0.1,0.3-0.7,0.4-1.8c0.2-1,0.3-2.3,0.5-3.9c0.1-1.2,0.7-1.8,1.9-1.9c1.2,0,1.8,0.6,1.8,1.8
		c-0.5,6.5-1.6,10.1-3.4,10.7c-1.5,0.3-2.9-0.3-4.3-1.7c-2.9-2.4-4.1-7.5-3.8-15.5l-5.9,0.4l-0.9,10.5c0.4-0.3,1.4-1.3,3.1-2.8
		c0.9-0.7,1.7-0.8,2.5-0.3c0.8,0.6,1,1.4,0.4,2.3c-0.6,0.7-1.1,1.3-1.6,1.9c0.4,0.1,1,0.3,1.7,0.6c0.9,0.7,1.7,1.4,2.3,2.1
		c0.5,0.9,0.4,1.7-0.4,2.5c-1,0.7-1.8,0.8-2.7,0.3c-0.7-0.5-1.5-1.2-2.3-2.1c-0.7-0.5-0.9-0.9-0.8-1.4c-1.6,1.2-2.7,2-3.3,2.4
		C376.1,90,375,89.4,375.1,87.2z M380.8,68.9l5.8-0.3l0.6-7.1l-4.8,0.6c-0.7,0-1.1,0.3-1.1,0.8L380.8,68.9z"/>
</g>
<g>
	<path class="st2" d="M405.5,59.7c0.1-2.5,1.4-3.8,3.7-3.9l23.3-1.4c2.6-0.2,3.7,0.9,3.4,3l-2.1,25c-0.1,3.8-3.2,5.2-9.1,4.1
		c-1.4-0.3-1.9-1.1-1.7-2.2c0.4-1.3,1.3-1.9,2.7-1.8c2.8,0.6,4.1,0.2,3.8-1.1l0.5-5.8l-9.1,0.5l-0.7,8.4c-0.2,1.1-1,1.7-2.4,1.9
		c-1.5,0.1-2.2-0.4-2.1-1.5l0.7-8.6l-8.2,0.5c-0.7,3.9-1.8,7.2-3.1,10c-0.8,1.6-2,2.3-3.6,2.1c-1.5-0.5-1.8-1.5-0.9-3
		C403.5,81.7,405.1,72.9,405.5,59.7z M416.9,72.1l0.3-4l-7.9,0.5l-0.3,4L416.9,72.1z M409.7,64.2l7.9-0.5l0.3-4l-6.7,0.4
		c-0.9,0.1-1.3,0.5-1.3,1.3L409.7,64.2z M421.7,67.9l-0.3,4l9.1-0.5l0.3-4L421.7,67.9z M422.4,59.5l-0.3,4l9.1-0.5l0.2-2.8
		c0.1-0.8-0.2-1.2-0.9-1.1L422.4,59.5z"/>
</g>
<g>
	<path class="st2" d="M452.2,58.7l2.2-0.1c1-2.8,1.6-4.5,1.8-5c0.4-1.6,1.3-2.3,2.7-2.2c1.4,0.1,1.9,0.9,1.7,2.4
		c-0.3,0.8-0.7,2.3-1.4,4.4l4.6-0.3c-0.6-0.4-0.6-0.9,0-1.6c0.7-0.9,1.4-1.9,2.3-2.8c0.4-0.5,0.8-1,1.2-1.4c1.1-1,2.1-1.3,3-0.6
		c0.9,0.8,1,1.8,0.3,2.9c-1.4,1.9-2.3,2.9-2.6,3.2l4.2-0.2c1,0,1.5,0.7,1.5,2c-0.2,1.3-0.8,2-1.8,2l-14.3,0.9
		c-0.5,0.9-0.9,1.7-1.4,2.4l16.6-1c1,0,1.5,0.7,1.6,2c-0.2,1.4-0.8,2.1-1.8,2.2l-5.4,0.3c1.7,2.2,3.8,3.8,6.2,5.1
		c1,0.8,1.2,1.8,0.6,3.1c-0.8,1.3-1.9,1.6-3.3,0.9c-0.9-0.3-1.7-0.8-2.5-1.5c-0.4,2.3-0.8,4.4-1.3,6.3c-0.4,2.5-2.1,3.7-5.2,3.7
		c-4.8,0.4-6.7-0.3-5.9-2.1c0.1-1.2,0.8-1.8,2.1-1.7c1.2,0.1,2.4,0.2,3.5,0.1c0.9,0.2,1.6-1.7,2.1-5.9c0-0.5-0.1-0.7-0.5-0.7
		l-6.4,0.4c-2.4,5.6-6.8,9.4-13.4,11.4c-1.9,0.6-3,0.2-3.2-1.1c-0.3-1.7,0.3-2.6,1.7-2.8c4.6-1,8-3.4,10.1-7.2l-5.9,0.4
		c-0.3,0.2-0.6,0.5-1,0.8c-0.7,0.6-1.5,1.2-2.2,1.6c-1.9,1.1-3.1,1.1-3.8-0.1c-0.5-1.3-0.1-2.4,1-3.3c2.8-1.6,5.3-3.7,7.6-6
		l-6.4,0.4c-1.1,0.1-1.6-0.6-1.6-2c0.3-1.3,1-2,2.1-2.2l9.2-0.6c0.4-0.6,1-1.4,1.5-2.3l-9.4,0.6c-1.1,0.1-1.6-0.5-1.6-1.8
		c0.2-1.3,0.9-2,2-2.2l4.6-0.3c-0.3-0.2-0.6-0.6-0.9-1.1c-0.4-0.6-0.8-1.2-1.2-1.8c-0.6-0.9-0.4-1.9,0.6-3c1-0.8,1.9-0.9,3,0
		c0.9,1,1.7,2.1,2.4,3.1C452.5,57.3,452.6,58.2,452.2,58.7z M453.4,68.9c-0.1,0.1-0.2,0.3-0.3,0.5c-0.8,1-1.5,1.9-2.3,2.5l12.5-0.8
		c-0.7-0.7-1.4-1.6-2-2.7L453.4,68.9z"/>
</g>
<g>
	<path class="st0" d="M477.8,81.9c1.7-3.3,3.3-6.9,4.8-10.7c0.4-1.2,1.2-1.7,2.5-1.6c1.4,0.4,2,1.2,1.7,2.4
		c-1.8,4.7-3.6,8.7-5.3,11.9c-0.8,1.1-1.8,1.4-3.2,0.8C477.3,84,477.2,83.1,477.8,81.9z M483.4,67.3c-1.3-0.9-2.7-1.9-4-2.8
		c-0.9-0.4-1-1.2-0.5-2.3c0.8-1.2,1.7-1.8,2.7-1.6c1.8,0.8,3.5,2,5.2,3.7c0.5,1,0.3,1.9-0.7,2.8C485,67.9,484.1,68,483.4,67.3z
		 M485.1,58c-1.7-1.4-3.1-2.5-4.4-3.4c-0.9-0.6-1-1.6-0.4-2.8c0.9-1.1,1.9-1.5,2.9-1.1c1.1,0.6,2.7,1.8,4.7,3.5
		c0.6,0.8,0.5,1.8-0.3,3C486.8,58.4,485.9,58.7,485.1,58z M490.9,51.8c0.6,0,1.5-0.1,2.7-0.2c5.9-0.4,10.3-1,13.5-1.7
		c0.1,0,0.3,0,0.7,0c1.3-0.4,2.3-0.6,2.9-0.6c1.5,0,2.2,0.7,2.2,2.1c-0.3,1.2-1.2,2-2.7,2.4c-2.7,0.6-5.2,1-7.5,1.2l-0.3,3.7
		l9.5-0.6c1.1,0,1.6,0.7,1.6,2c-0.2,1.4-0.9,2.1-2,2.2l-9.5,0.6l-0.3,3.8l6.5-0.4c1.8-0.2,2.6,0.6,2.3,2.5l-0.9,10.5
		c-0.1,1.9-1,2.8-2.9,2.8l-16.8,1c-2.1,0.2-3-0.6-2.6-2.5l0.9-10.4c0.1-1.9,1.1-2.9,3.2-3l5.8-0.3l0.3-3.8l-9.5,0.6
		c-1.1,0.1-1.6-0.6-1.6-2c0.2-1.3,0.9-2,2-2.2l9.5-0.6l0.3-3.4c-1,0.2-2.3,0.3-3.9,0.5c-1.7,0.1-2.8,0.2-3.4,0.2
		c-1.4,0.1-2-0.5-1.9-1.8C489,52.9,489.6,52,490.9,51.8z M492.9,78.9l11.3-0.7c0.9,0.1,1.3-0.3,1.3-1.4l0.4-4.9
		c0.2-1.1-0.2-1.5-1.1-1.3l-11,0.7c-1.2,0-1.7,0.4-1.6,1.4l-0.4,5.2C491.6,78.7,492,79.1,492.9,78.9z"/>
</g>
<g>
	<path class="st0" d="M520.4,48.3c3-0.2,5.8-0.4,8.3-0.8c2.6-0.3,4.8-0.6,6.7-1c1-0.1,1.6,0.4,1.8,1.5c0.1,1.2-0.3,1.9-1.2,2.3
		c-1,0.3-2.3,0.5-3.8,0.7c-1.1,0.1-1.8,0.1-2.1,0.1l-0.1,1.5l6.2-0.4c1.7,1.3,1.6,2.6-0.3,3.8l-6.2,0.4l-0.1,1.2l4.5-0.3
		c2-0.1,2.9,0.7,2.6,2.3l-0.6,7.5c-0.3,2-1.1,3-2.5,3.1l-5.1,0.3l-0.1,1.2l5.6-0.3c0.9,0,1.3,0.8,1.1,2.1c-0.3,1.1-0.9,1.7-1.8,1.7
		l-5.4,0.3l-0.1,1.5c1.6,0,3.7-0.2,6.3-0.7c3.3-4.8,5.6-11.6,7.1-20.4l-2.1,0.1c-0.9,0.1-1.3-0.6-1.3-2c0.1-1.4,0.6-2.1,1.5-2.3
		l2.2-0.1c0.1-0.6,0.2-2,0.4-4.1c0.1-1,0.9-1.6,2.4-1.8c1.5,0,2.2,0.5,2.2,1.5c-0.2,2.3-0.3,3.6-0.4,4.1l3-0.2c2-0.1,2.9,1,2.7,3.2
		c-0.5,4.8-1,9.3-1.4,13.5c-0.4,4-0.8,6.6-1.1,7.9c-0.9,3.7-3.8,5-8.8,4.1c-1.4-0.5-1.8-1.5-1.1-2.9c0.7-1,1.9-1.3,3.6-1
		c1,0.2,1.7-0.3,2.1-1.7c0.3-1.6,0.7-4.2,1.1-7.7c0.4-3.5,0.8-7.1,1.2-11l-1.8,0.1c-1.4,10.3-4.6,18.5-9.8,24.7
		c-1.6,1.1-2.8,0.9-3.8-0.7c-2.2,0.2-4.7,0.5-7.5,0.9c-4.2,0.6-6.8,1-7.8,1.2c-1.2,0-1.8-0.6-1.9-1.7c0-1,0.6-1.6,1.8-1.7
		c0.4,0,1.2-0.1,2.4-0.1c1.6-0.2,3.1-0.4,4.5-0.7l0.2-1.8l-6.5,0.4c-0.9,0.1-1.3-0.6-1.2-1.8c0.2-1.2,0.8-1.9,1.7-2l6.4-0.4l0.1-1.2
		l-5.1,0.3c-1.6,0.2-2.3-0.6-2-2.4l0.7-7.7c0.1-1.9,1-2.9,2.9-3l4.6-0.3l0.1-1.2l-7.1,0.4c-1.2,0.1-1.7-0.5-1.6-1.8
		c0.1-1.2,0.8-1.9,1.9-2l7.1-0.4l0.1-1.2c-0.8,0-2.3,0.2-4.5,0.4c-1,0.1-1.5,0.1-1.6,0.1c-1.2,0.1-1.7-0.6-1.6-2
		C518.3,49.1,519.1,48.5,520.4,48.3z M521.2,67.6l3.3-0.2l0.1-1.3l-3.3,0.2L521.2,67.6z M525,61.2l-3.3,0.2l-0.1,1.5l3.3-0.2
		L525,61.2z M528.9,65.9l-0.1,1.3l3.1-0.2l0.1-1.3L528.9,65.9z M529.3,61l-0.1,1.5l3.1-0.2l0.1-1.5L529.3,61z"/>
</g>
</svg>
