<?xml version="1.0" encoding="utf-8"?>
<!-- Generator: Adobe Illustrator 22.0.0, SVG Export Plug-In . SVG Version: 6.00 Build 0)  -->
<svg version="1.1" id="圖層_2_拷貝_2" xmlns="http://www.w3.org/2000/svg" xmlns:xlink="http://www.w3.org/1999/xlink" x="0px"
	 y="0px" viewBox="0 0 310 107" style="enable-background:new 0 0 310 107;" xml:space="preserve">
<style type="text/css">
	.st0{fill:#00307C;}
	.st1{fill:#FFFFFF;}
	.st2{fill:#EB1353;}
</style>
<g>
	<path class="st0" d="M7.4,27.6c-1.5,0.1-2.2-0.6-2.2-1.9c0.1-1.4,0.9-2.2,2.4-2.4l30.8-1.8c1.2,0,1.8,0.7,1.7,2.1
		c-0.2,1.4-0.9,2.1-2.1,2.2L25,26.5l-1.4,3.8l8.8-0.5c3.1-0.4,4.4,0.6,3.9,3l-1.4,16.6c0.1,3-1.4,4.4-4.5,4.1L9.6,54.7
		c-3.6,0.6-5-0.3-4.2-2.8l1.5-17.2C6.8,32.2,8.4,31,11.6,31l7-0.4l1.4-3.8L7.4,27.6z M30.8,43.9l-20.2,1.2l-0.4,5
		c-0.2,0.6,0.1,0.8,0.7,0.7l18.9-1.1c0.4,0.1,0.6-0.1,0.6-0.6L30.8,43.9z M31.6,34.8c-0.1-0.5-0.3-0.8-0.7-0.8l-18.6,1.1
		c-0.7,0-1,0.3-0.9,0.6l-0.4,5.2l20.2-1.2L31.6,34.8z"/>
	<path class="st1" d="M7.8,57.8c-1.5,0-3.3-0.3-4.4-1.7c-0.7-0.9-1.5-2.4-0.8-4.8L4,34.6c0-2.1,0.8-3.5,1.5-4.3
		c-0.9-0.2-1.5-0.7-1.9-1.1c-0.7-0.6-1.4-1.8-1.4-3.6c0-0.1,0-0.1,0-0.2c0.2-2.8,2.1-4.6,5-5c0.1,0,0.1,0,0.2,0l30.8-1.8
		c0.1,0,0.2,0,0.2,0c2.8,0.1,4.6,2.1,4.6,5c0,0.1,0,0.3,0,0.4c-0.4,2.7-2.2,4.4-4.7,4.6c0.7,0.9,1.4,2.3,1,4.5l-1.4,16.2
		c0.1,2.3-0.6,4-1.9,5.3c-1.3,1.3-3.2,1.8-5.5,1.6L10,57.6C9.5,57.7,8.7,57.8,7.8,57.8z M14.3,35.3C14.3,35.3,14.3,35.3,14.3,35.3
		C14.3,35.3,14.3,35.3,14.3,35.3z"/>
</g>
<g>
	<path class="st0" d="M57.4,18.9l-0.1,1.3l7.9-0.5l0.1-1.2c0.1-0.7,0.8-1.1,2.3-1.2c1.4,0,2.1,0.4,2.1,1l-0.1,1l7.7-0.5
		c0.9,0,1.3,0.8,1.3,2.1c-0.2,1.4-0.8,2.1-1.8,2.2l-7.6,0.5l-0.1,1.5l2.4-0.1c2.2-0.1,3.1,0.8,2.9,2.9l-0.5,5.6
		c-0.2,2.2-1.3,3.3-3.2,3.3L62,37.4l-0.1,1.2l11-0.7c2.1-0.1,3,0.9,2.8,3.1l-0.6,7c0,2.9-1.6,4.4-4.8,4.3c-1,0-2.4-0.2-4.4-0.5
		c-1.8-1.3-1.6-2.5,0.6-3.7c0.3,0.1,0.8,0.1,1.6,0.2c0.9,0.1,1.6,0.2,2.1,0.2c0.3,0,0.5-0.1,0.6-0.3l0.5-5.9c0-0.3-0.1-0.4-0.4-0.4
		l-2.1,0.1c1,1.6,1.7,2.9,1.9,4c-0.8,1.7-1.9,2-3.2,0.9c-4,0.7-8,1.4-12,2c-2,0.4-4,0.7-5.8,0.8c-1.1,0.1-1.6-0.6-1.5-2
		c0-1.3,0.7-2,2.1-2.2c2.2-0.2,4.4-0.5,6.7-0.8l0.2-1.9l-9.4,0.6c-0.3,0-0.5,0.1-0.5,0.3L46.7,52c-0.2,0.9-1,1.4-2.4,1.6
		c-1.4,0-2-0.5-2-1.4l0.8-9.5c0.2-2,1.2-3.1,3.2-3.3l11.1-0.7l0.1-1.2l-9.1,0.5c-1.9,0.2-2.7-0.8-2.4-2.9l0.5-6.1
		c0.1-1.7,1.1-2.6,2.9-2.8l2.7-0.2l0.1-1.5l-7.9,0.5c-1.1,0.1-1.6-0.6-1.4-2.1c0.2-1.3,0.9-2,2.1-2.2l7.6-0.5l0.1-1.3
		C54.5,17.6,56,17.5,57.4,18.9z M50.7,34.7l7.3-0.4l0.1-1.2l-7.3,0.4L50.7,34.7z M51,30.9l7.3-0.4l0.1-1.2l-7.3,0.4L51,30.9z
		 M64.9,24l-8,0.5L56.7,26l8-0.5L64.9,24z M61.5,42.5l-0.1,1.6c1.3-0.1,2.6-0.3,3.9-0.5l-0.6-1.3L61.5,42.5z M62.3,34l7.1-0.4
		l0.1-1.2l-7.1,0.4L62.3,34z M69.7,29.7l0.1-1.2L62.7,29l-0.1,1.2L69.7,29.7z"/>
	<path class="st1" d="M44.3,56.5C44.3,56.5,44.3,56.5,44.3,56.5c-1.7,0-3-0.5-3.9-1.5c-0.7-0.8-1.1-1.9-1-3l0.8-9.5
		c0.2-2.3,1.3-4.1,3.1-5.1c-0.2-0.7-0.2-1.6-0.1-2.5l0.5-6c0-0.3,0.1-0.6,0.1-0.9c-1-0.1-1.9-0.5-2.5-1.2c-0.9-1-1.4-2.3-1.2-4.1
		c0-0.1,0-0.1,0-0.2c0.4-2.5,2.1-4.3,4.6-4.6c0.1,0,0.2,0,0.2,0l5.3-0.3c0.1-0.2,0.3-0.5,0.5-0.6c3.3-3.2,6.6-2.2,8.6-0.2
		c0.1,0.1,0.2,0.2,0.3,0.3l3-0.2c0.5-1.1,1.8-2.3,4.7-2.5c0.1,0,0.1,0,0.2,0c2.5,0,3.7,1,4.4,1.9l5.2-0.3c0.1,0,0.2,0,0.3,0
		c1.9,0.1,4.1,1.5,4.1,5.1c0,0.1,0,0.3,0,0.4c-0.6,3.8-3.2,4.5-4.3,4.6c0.1,0.6,0.1,1.3,0,2.1l-0.5,5.6c-0.1,0.7-0.2,1.4-0.4,2
		c0.4,0.2,0.6,0.5,0.9,0.7c1.1,1.1,1.6,2.7,1.4,4.7L78,48.1c0,2.1-0.6,3.9-1.9,5.1c-1.4,1.4-3.4,2-5.9,1.9c-1.1,0-2.7-0.2-4.7-0.5
		c-0.5-0.1-0.9-0.2-1.3-0.5c-1.6-1.1-2.2-2.4-2.3-3.4c-2,0.3-3.9,0.7-5.8,1c-2.1,0.4-4.2,0.7-6.2,0.8c-0.1,0-0.2,0-0.3,0
		c0,0,0,0,0,0c-0.2,1-1.1,3.4-4.8,3.9C44.6,56.5,44.4,56.5,44.3,56.5z M50.6,48.4L50.6,48.4L50.6,48.4z M68.1,18.8L68.1,18.8
		C68.1,18.8,68.1,18.8,68.1,18.8z"/>
</g>
<g>
	<path class="st0" d="M86.8,37.4c-0.8,0-1.2-0.4-1.2-1.4c0.2-1,0.7-1.6,1.6-1.7l20.4-1.2c1.5,1,1.4,2-0.4,3.1l-6.8,0.4
		c-1,0.5-1.7,0.7-2,0.9c0.7,0.6,1.4,1.3,1.9,2.1c2.2-0.7,4.5-1.5,6.7-2.5c1.1-0.4,1.9,0,2.3,1c0.3,1.2-0.1,2-1.3,2.6
		c-0.4,0.2-0.9,0.4-1.5,0.5c-0.3,0.1-0.5,0.2-0.6,0.2c1.5,2.3,3.5,3.9,5.9,4.9c0.9,0.5,1.1,1.4,0.4,2.6c-0.8,0.9-1.7,1.1-2.7,0.6
		c-2.9-1.4-5.4-3.7-7.4-6.9c-0.1,0-0.3,0.1-0.6,0.2c0,0.1,0.1,0.6,0.3,1.6c0.4,5-2.5,7.3-8.6,6.8c-2.1-0.5-2.4-1.7-0.9-3.8
		c-3.3,1.2-6.6,2.3-10.1,3.4c-1.1,0.2-1.8-0.2-2-1.1c0-1,0.5-1.6,1.5-2c5.9-1.4,11-3.3,15.1-5.6c-0.2-0.3-0.3-0.5-0.4-0.7
		c-4.7,2.2-9.2,3.9-13.3,5.1c-1.1,0.4-1.8,0.1-2-0.8c0-1.1,0.5-1.8,1.5-2.2c4.2-1.1,8.2-2.5,11.8-4.2l-0.4-0.3
		c-3.3,1.2-7.1,2.3-11.5,3.3c-1,0.3-1.6-0.1-1.7-0.9c0-1,0.5-1.6,1.5-1.9c3.2-0.6,6.7-1.5,10.6-2.7L86.8,37.4z M80.7,36.4l0.3-3.5
		c-0.1-1.9,1.1-2.8,3.8-2.9l27.1-1.6c2-0.1,2.9,0.7,2.6,2.3c-0.3,1.6-0.8,3-1.2,4.2c-0.5,1.1-1.3,1.6-2.5,1.5
		c-1.1-0.1-1.5-0.7-1.3-1.8c0-0.2,0.1-0.5,0.2-0.9c0.1-0.4,0.3-0.8,0.4-1.1c0.1-0.6,0-0.9-0.4-0.9l-24.2,1.5c-0.5,0-0.7,0.3-0.7,0.8
		l-0.2,2.2c-0.2,1.2-0.9,1.9-2.1,2C81.2,38.2,80.6,37.6,80.7,36.4z M96.3,18.4c-0.1-0.2-0.1-0.4-0.1-0.7c0.7-2.4,2.1-2.9,4.1-1.4
		c0,0.1,0,0.3,0.1,0.7c0.2,0.6,0.4,1,0.5,1.1l12-0.7c1.1,0,1.6,0.6,1.6,1.7c-0.1,1.2-0.6,1.8-1.6,1.9l-28.7,1.7
		c-1.2,0.1-1.7-0.5-1.6-1.7c0.2-1.1,0.9-1.7,2.1-1.9L96.3,18.4z M88.5,28.6c-2.4,0.3-3.4-0.2-3-1.7l0.1-1c-0.1-1.4,0.8-2.1,2.6-2.2
		l19.8-1.2c2-0.1,2.9,0.5,2.6,1.9l-0.1,1c0.1,1.5-0.9,2.2-2.8,2.1L88.5,28.6z M90.5,25.6c-0.4,0.1-0.6,0.3-0.6,0.5
		c-0.1,0.3,0.1,0.4,0.6,0.4l15-0.9c0.4,0,0.7-0.2,0.8-0.5c-0.1-0.3-0.3-0.4-0.7-0.4L90.5,25.6z M93.4,47c2.9,0.1,4.3-0.5,4.1-1.7
		C96.1,46,94.7,46.5,93.4,47z"/>
	<path class="st1" d="M94.5,54.3c-0.5,0-1,0-1.5-0.1c-0.1,0-0.3,0-0.4-0.1c-2-0.4-3.1-1.4-3.6-2.4c-1.9,0.7-3.9,1.3-5.8,1.9
		c-0.1,0-0.3,0.1-0.4,0.1c-2.6,0.4-4.6-0.9-5.2-3.2c-0.1-0.2-0.1-0.4-0.1-0.7c0-1.2,0.4-2.3,1.1-3.2c0-0.1,0-0.1,0-0.2
		c-0.1-0.2-0.1-0.5-0.1-0.7c0-0.7,0.1-1.4,0.4-2c-0.4-0.5-0.6-1.2-0.7-1.9c0-0.1,0-0.2,0-0.4c0-0.9,0.2-1.7,0.6-2.4
		c-0.4-0.7-0.8-1.7-0.7-3l0.3-3.4c-0.1-1.8,0.7-3,1.3-3.7c0.8-0.9,1.8-1.4,3.1-1.7c0-0.3,0-0.6,0.1-1l0.1-0.6c0-0.1,0-0.2,0-0.3
		c-0.9-0.2-1.4-0.7-1.8-1.1c-0.6-0.6-1.3-1.8-1.1-3.6c0-0.1,0-0.2,0-0.2c0.4-2.3,2.1-3.9,4.5-4.3c0.1,0,0.2,0,0.2,0l9.3-0.6
		c0.7-1.5,1.6-2.4,2.9-2.9c1.6-0.6,3.4-0.2,5.2,1.1c0.4,0.3,0.8,0.7,1,1.2l9.8-0.6c0.1,0,0.2,0,0.3,0c2.6,0.1,4.4,1.9,4.5,4.6
		c0,0.1,0,0.2,0,0.3c-0.2,2.5-1.7,4.2-4,4.5c0,0.3,0,0.6,0,0.8l-0.1,0.8c0,0,0,0.1,0,0.1c1.2,0.2,2.1,0.7,2.8,1.5
		c0.7,0.7,1.4,2,1.1,4.1c0,0.1,0,0.1,0,0.2c-0.4,1.8-0.8,3.3-1.4,4.7c-0.8,1.7-2.1,2.8-3.7,3.2c-0.1,1.2-0.6,2.3-1.6,3.2
		c0.7,0.5,1.4,0.9,2.3,1.3c0.1,0,0.2,0.1,0.3,0.2c1.4,0.8,1.9,1.9,2.1,2.6c0.3,1.2,0.1,2.6-0.7,4c-0.1,0.1-0.2,0.3-0.3,0.4
		c-1.6,2-4,2.5-6.3,1.3c-1.5-0.7-2.9-1.7-4.2-2.8c-0.4,0.8-0.9,1.6-1.5,2.2C100.6,53.4,97.9,54.3,94.5,54.3z M80.7,36.4L80.7,36.4
		L80.7,36.4z"/>
</g>
<g>
	<path class="st0" d="M120,19.5c0.1-1.8,0.9-2.7,2.5-2.8l5.1-0.3c2-0.1,2.8,0.8,2.6,2.6l-1.9,22.8c-0.1,2.1-1.1,3.2-2.9,3.3
		l-4.3,0.3c-2.3,0.1-3.2-0.9-2.8-3.1L120,19.5z M123.8,41.4c0.4,0,0.6-0.3,0.7-0.8l1.7-19.5c-0.1-0.4-0.2-0.6-0.5-0.7l-1.2,0.1
		c-0.4,0.1-0.6,0.4-0.7,0.8L122,40.7c-0.2,0.6,0,0.8,0.5,0.7L123.8,41.4z M132.7,35.1c-2,0.3-2.8-0.6-2.4-2.6l1.2-13.6
		c0-2.4,1-3.5,3.1-3.6l15.6-0.9c1.8-0.1,2.6,0.8,2.4,2.7l-1.2,14.3c-0.2,1.9-1.2,2.8-3.1,2.8l-5.6,0.3l-0.2,2.4l7.3-0.4
		c1.1,0,1.6,0.7,1.6,2c-0.2,1.3-0.9,2-1.9,2l-7.3,0.4l-0.2,2.5l8.6-0.5c1.8,1.1,1.7,2.3-0.3,3.7l-21.4,1.3c-1.2,0-1.7-0.6-1.6-1.8
		c0.1-1.1,0.7-1.7,1.9-1.9l8.6-0.5l0.2-2.5l-6.8,0.4c-1.1,0.1-1.6-0.5-1.6-1.8c0.2-1.3,0.9-2,2-2.2l6.8-0.4l0.2-2.4L132.7,35.1z
		 M134.8,30.3c-0.1,0.5,0,0.7,0.5,0.7l3.6-0.2l0.3-4L135,27L134.8,30.3z M139.5,22.9l0.3-4l-3.4,0.2c-0.5,0.1-0.8,0.4-0.8,0.8
		l-0.3,3.3L139.5,22.9z M143,30.5l3.4-0.2c0.4,0,0.7-0.3,0.8-0.8l0.3-3.3l-4.2,0.2L143,30.5z M147.9,22.4l0.3-3.3
		c-0.1-0.4-0.2-0.6-0.5-0.7l-3.6,0.2l-0.3,4L147.9,22.4z"/>
	<path class="st1" d="M128.8,50.7C128.8,50.7,128.8,50.7,128.8,50.7c-1.8,0-2.9-0.8-3.5-1.4c-0.3-0.3-0.6-0.7-0.8-1.2l-3.5,0.2
		c-2.1,0.1-3.7-0.4-4.8-1.7c-0.7-0.8-1.5-2.3-1.1-4.7l1.9-22.6c0.1-3.2,2.1-5.3,5.2-5.5l5.1-0.3c1.2-0.1,2.2,0.1,3,0.5
		c1-1,2.4-1.6,4.2-1.6l15.5-0.9c2.2-0.1,3.5,0.7,4.2,1.4c0.7,0.7,1.5,2.1,1.3,4.4l-1.2,14.3c-0.1,1.3-0.5,2.5-1.2,3.3
		c0.7,0.8,1.2,2,1.2,3.5c0,0.1,0,0.3,0,0.4c-0.2,1-0.5,1.8-0.9,2.5c1.1,1.1,1.4,2.2,1.4,3c0.1,1.7-0.9,3.2-2.8,4.6
		c-0.4,0.3-1,0.5-1.5,0.5L129,50.7C128.9,50.7,128.9,50.7,128.8,50.7z M123.8,41.4L123.8,41.4L123.8,41.4z M134.8,30.3L134.8,30.3
		L134.8,30.3z M139.5,22.9L139.5,22.9L139.5,22.9z M147.9,22.4L147.9,22.4L147.9,22.4z M120,19.5L120,19.5L120,19.5z"/>
</g>
<g>
	<path class="st0" d="M157.8,25.3l3.7-0.2c1.4,0,2,0.9,2,2.7l-1,11.4c1.2,2.2,3.8,3.2,7.7,3.1l17.2-1c1.2-0.1,1.7,0.4,1.6,1.5
		c-0.1,1.2-0.7,1.8-1.9,1.9l-17.4,1c-3.2,0.1-5.9-0.8-8.3-2.7c-0.5-0.3-1-0.2-1.5,0.1c-0.2,0.2-0.5,0.5-0.8,0.9
		c-0.3,0.4-0.7,0.9-1,1.5c-1.2,1.1-2.1,1.4-2.9,1.1c-1.1-0.8-1.3-1.8-0.5-2.9c1.1-1.3,2.5-2.7,4.1-4.2l0.8-9.6
		c0-0.4-0.1-0.6-0.5-0.7l-1.6,0.1c-1.5,0.2-2.1-0.4-1.8-1.8C155.7,26.2,156.4,25.5,157.8,25.3z M163.1,21.1
		c-1.3,0.6-2.2,0.3-2.6-0.9c-0.3-0.5-0.7-1.2-1.3-2.1c-0.3-0.4-0.5-0.8-0.8-1.3c-0.6-1.3-0.2-2.3,1-2.9c1.1-0.5,2.1-0.2,2.9,0.7
		c0.1,0.3,0.2,0.6,0.4,0.9c0.8,1.1,1.3,2.1,1.5,2.9C164.5,19.6,164.1,20.5,163.1,21.1z M176.3,18.5l-4.9,0.3l-0.2,2.4l3.6-0.2
		c1.5,0,2.2,0.7,2.2,1.9c-0.1,0.8-0.1,1.5-0.2,2.1c-0.2,4.1-0.4,7.8-0.8,11.1c-0.7,3.1-2.7,4.4-6.1,3.9c-1.3,0-1.9-0.5-1.8-1.4
		c0.1-1.3,0.8-1.9,1.9-1.9c1.6,0.2,2.3-0.1,2.3-1c0-0.3,0.1-0.6,0.1-0.9c0.6-4.2,0.9-7.4,1-9.8c0-0.3-0.2-0.5-0.7-0.5l-1.8,0.1
		l-0.1,0.7c-0.7,5.3-1.7,9.6-3.2,12.8c-0.9,1.7-2,2.3-3.1,1.7c-1.2-0.3-1.2-1.5,0-3.4c1.4-3.1,2.3-7.2,2.8-12.2l0.4-5.2
		c-1.4,0.1-2.1-0.5-2.1-1.8c0.2-1.2,1-1.9,2.4-2.1l2.2-0.1c-0.1-0.6-0.3-1.1-0.3-1.5c-0.3-1.3,0-2.1,0.8-2.4
		c1.2-0.4,2.1-0.2,2.6,0.4c0.1,0.3,0.2,0.9,0.4,1.9c0.2,0.5,0.3,0.9,0.5,1.3l1.9-0.1c1.1,0,1.7,0.6,1.8,1.8
		C178,17.8,177.4,18.4,176.3,18.5z M184.9,12.5c-0.1,0.2-0.2,0.4-0.2,0.6c-0.1,0.2-0.2,0.4-0.2,0.5l6.1-0.4c1.1,0,1.6,0.7,1.6,2
		c-0.2,1.3-0.9,2-1.9,2l-7.4,0.4c-0.2,0.3-0.5,0.7-0.8,1.1c-0.3,0.4-0.6,0.7-0.7,0.9c0,0.1-0.1,0.2-0.2,0.2c-0.1,0.1-0.1,0.2,0,0.1
		l7-0.4c1.5,0,2.1,0.5,1.9,1.5c-0.1,1.1-1.5,2.7-4.1,5c0.3,0.8,0.7,1.4,1,2l3-0.2c0.9,0,1.3,0.6,1.2,1.7c-0.1,1.1-0.6,1.7-1.5,1.7
		l-2.1,0.1c0,0.6,0,1.2,0,1.9c-0.3,2.1-1,3.7-2,4.8c-2.2,1.7-4.8,2-7.6,0.8c-1-0.5-1.4-1.2-1-2.1c0.5-1.1,1.3-1.5,2.3-1.3
		c1.1,0.3,1.9,0.5,2.5,0.4c1,0.1,1.6-0.6,1.8-2.3c0.1-0.7,0.1-1.3,0.2-1.9l-5.2,0.3c-1.2,0.1-1.7-0.4-1.6-1.5
		c0.1-1.1,0.7-1.7,1.9-1.9l3.9-0.2l-0.1-0.1c-0.7-0.9-1-1.5-0.7-1.7c0-0.4,0.6-1.3,1.7-2.6c0.3-0.2,0.5-0.4,0.6-0.6l-3.7,0.2
		c-1.2,0-1.5-0.8-1-2.3c-1,0.4-1.7,0.2-2-0.6c-0.3-0.7-0.1-1.5,0.6-2.4c1.1-1.1,2.2-3.2,3.3-6.2c0.4-0.9,1.1-1.3,2.2-1.2
		C184.6,10.9,185,11.5,184.9,12.5z"/>
	<path class="st1" d="M155.9,49.6c-0.7,0-1.3-0.2-1.8-0.4c-0.2-0.1-0.4-0.2-0.5-0.3c-2.4-1.7-2.8-4.5-1.2-6.9c0-0.1,0.1-0.1,0.1-0.2
		c1-1.2,2.2-2.4,3.5-3.7l0.5-5.9c-1.4-0.1-2.3-0.7-2.8-1.3c-0.6-0.7-1.3-1.9-0.9-3.8c0.1-2,1.4-4.2,4.6-4.6c0.1,0,0.1,0,0.2,0l0.7,0
		c-0.2-0.3-0.4-0.6-0.5-1c-0.2-0.4-0.6-1-1.1-1.7c-0.3-0.5-0.6-1-0.9-1.5c0-0.1-0.1-0.1-0.1-0.2c-1.2-2.8-0.3-5.4,2.4-6.7
		c0,0,0.1,0,0.1,0c2.3-0.9,4.6-0.4,6.2,1.5c0.2,0.2,0.3,0.4,0.4,0.7c0.6-0.4,1.3-0.8,2.1-1c0.1-2.1,1.4-3.4,2.7-3.9
		c0.1,0,0.2-0.1,0.3-0.1c3.3-1,5.1,0.6,5.7,1.4c0.3,0.3,0.5,0.7,0.6,1.1c0,0.2,0.1,0.5,0.2,0.9c0.6,0,1.2,0.2,1.7,0.4
		c0.2-0.4,0.3-0.8,0.5-1.3c0.9-2.2,2.9-3.3,5.2-3c0.1,0,0.2,0,0.3,0.1c1.5,0.4,2.7,1.3,3.2,2.6l3-0.2c0.1,0,0.2,0,0.3,0
		c2.2,0.1,4.5,1.6,4.4,4.9c0,0.1,0,0.3,0,0.4c-0.3,1.7-1.1,3-2.3,3.7c0.2,0.6,0.3,1.3,0.2,2.1c-0.1,1.1-0.7,2.3-1.9,3.6
		c0.9,0.3,1.5,0.8,1.9,1.2c0.5,0.6,1.1,1.7,1,3.5c-0.2,2.3-1.6,3.9-3.7,4.3c-0.3,1.7-0.8,3.1-1.5,4.4c1,0.2,1.6,0.7,2,1.1
		c0.6,0.6,1.3,1.7,1.1,3.4c-0.2,2.6-2,4.4-4.7,4.5l-17.4,1c-3.3,0.1-6.3-0.7-8.9-2.3c-0.1,0.2-0.3,0.4-0.4,0.7
		c-0.2,0.3-0.4,0.5-0.6,0.7C158.5,49.1,157,49.6,155.9,49.6z M183.9,28.5C183.9,28.5,183.9,28.5,183.9,28.5
		C183.9,28.5,183.9,28.5,183.9,28.5z M158,28.3L158,28.3L158,28.3z M155.7,27.4L155.7,27.4L155.7,27.4z M170.5,24.8L170.5,24.8
		L170.5,24.8z M163.1,21.1L163.1,21.1L163.1,21.1z M187.3,20.5L187.3,20.5L187.3,20.5z M161.4,19.1L161.4,19.1L161.4,19.1z
		 M176.1,15.6C176.1,15.6,176.1,15.6,176.1,15.6L176.1,15.6L176.1,15.6z"/>
</g>
<g>
	<path class="st0" d="M213.8,18l6.8-0.4l0.6-6.5c0.1-1.4,1-2.1,2.6-2.2c1.5,0,2.2,0.7,2.2,2.1l-0.5,6.4l2.1-0.1
		c1.5,0,2.2,0.8,2.2,2.2c-0.3,1.5-1.2,2.3-2.6,2.4l-2.1,0.1l-0.8,9c0,2.6-1.3,3.8-3.9,3.8l-8.9,0.5c-2.9,0.6-4.1-0.6-3.5-3.5
		l0.8-8.9l-5.6,0.3l-1.3,14.9c-0.1,0.7,0.2,1,0.8,1l21.9-1.3c1.5,0,2.3,0.6,2.4,1.8c-0.1,1.6-0.9,2.5-2.4,2.6l-22.9,1.4
		c-3.5,0.4-5-1-4.5-4.1l1.4-16l-1.5,0.1c-1.6,0.1-2.4-0.5-2.5-1.9c0.2-1.5,1.1-2.4,2.7-2.7l1.6-0.1l0.5-6.2c0.1-1.3,0.9-2.1,2.4-2.4
		c1.6,0,2.4,0.6,2.4,1.9l-0.5,6.4l5.6-0.3l0.5-6.2c0.1-1.4,1-2.2,2.6-2.4c1.5,0,2.2,0.7,2.2,2.1L213.8,18z M213.2,31l5.6-0.3
		c0.3,0.1,0.5-0.2,0.7-0.8l0.7-7.7l-6.8,0.4l-0.7,7.7C212.6,30.8,212.7,31,213.2,31z"/>
	<path class="st1" d="M200.3,46.6c-2.1,0-3.7-0.6-4.8-1.8c-1.3-1.4-1.8-3.3-1.5-5.7l1.1-12.8c-0.8-0.2-1.6-0.5-2.2-1.1
		c-0.7-0.6-1.5-1.7-1.6-3.4c0-0.2,0-0.4,0-0.6c0.4-2.5,2-4.3,4.6-5l0.3-3.8c0.2-2.6,2-4.4,4.8-5c0.2,0,0.4-0.1,0.6-0.1
		c1.7,0,3,0.5,3.9,1.5c0.5,0.5,1,1.2,1.2,2.3c0.4-2.4,2.3-4.1,5-4.4c0.1,0,0.3,0,0.4,0c1.9,0,3.1,0.8,3.8,1.4
		c0.6,0.6,1.4,1.8,1.3,3.6c0,0.1,0,0.1,0,0.2l-0.2,2.9l1-0.1l0.3-4c0.2-2.8,2.3-4.7,5.3-4.9c0.1,0,0.1,0,0.2,0c2,0,3.1,0.8,3.8,1.4
		c0.6,0.6,1.3,1.8,1.3,3.6c0,0.1,0,0.1,0,0.2l-0.3,3.2c1.3,0.2,2.1,0.8,2.6,1.3c0.6,0.7,1.4,1.8,1.3,3.7c0,0.2,0,0.4-0.1,0.6
		c-0.6,2.6-2.4,4.3-4.8,4.6l-0.6,6.4c0,1.6-0.4,3-1.2,4c2.5,0.6,3.6,2.6,3.7,4.3c0,0.2,0,0.3,0,0.5c-0.3,2.9-2.1,4.9-5,5.3
		c-0.1,0-0.1,0-0.2,0l-22.8,1.4C201.1,46.6,200.7,46.6,200.3,46.6z M224.6,40.8L224.6,40.8L224.6,40.8z M204.9,34.3l-0.2,1.8
		l0.8-0.1C205.3,35.5,205.1,34.9,204.9,34.3z M213.2,31L213.2,31L213.2,31z M213.1,28.1C213.1,28.1,213.1,28.1,213.1,28.1
		L213.1,28.1z M216,25.4l-0.2,2.6l1-0.1l0.2-2.6L216,25.4z M219.7,27.8C219.7,27.8,219.7,27.9,219.7,27.8
		C219.7,27.9,219.7,27.8,219.7,27.8z M200.2,21.4c0,0,0.1,0.1,0.1,0.1c0.1,0.1,0.1,0.1,0.2,0.2c0.2-0.4,0.5-0.7,0.9-0.9
		c0,0-0.1-0.1-0.1-0.1c-0.1-0.1-0.1-0.1-0.2-0.2C200.8,20.8,200.5,21.1,200.2,21.4z M210.6,20.7c0,0,0.1,0.1,0.1,0.1
		c0.1,0.1,0.1,0.1,0.2,0.2c0.2-0.4,0.5-0.7,0.9-0.9c0,0-0.1-0.1-0.1-0.1c-0.1-0.1-0.1-0.1-0.2-0.2C211.2,20.2,210.9,20.5,210.6,20.7
		z M222.2,20c0,0,0.1,0.1,0.1,0.1c0.1,0.1,0.1,0.1,0.2,0.2c0.2-0.4,0.5-0.7,0.9-0.9c0,0-0.1-0.1-0.1-0.1c-0.1-0.1-0.1-0.1-0.2-0.2
		C222.8,19.5,222.5,19.8,222.2,20z"/>
</g>
<g>
	<path class="st0" d="M234.7,11.8c0.1-2,1.1-3,3.2-3.1L264.4,7c1.8-0.1,2.6,0.7,2.4,2.5l-0.9,10.8c-0.1,1.9-1,2.8-2.9,2.7l-6.1,0.4
		c1.7,1.8,4.8,3.5,9.3,5.2c1.1,1.1,1.1,2.3,0,3.7c-1,0.7-2.3,0.7-4.1-0.2c-1.2-0.3-2.3-0.9-3.5-1.8l-0.8,9.3
		c-0.2,1.3-1.1,2.1-2.6,2.4c-1.6-0.1-2.3-0.8-2.2-2.1l1-11.8c-1.1-0.6-1.8-1.2-1.9-1.8c-0.6-0.7-0.7-1.6-0.1-2.5l-3.9,0.2
		c0.2,0.9,0,1.7-0.8,2.4c-0.4,0.6-1,1.1-1.8,1.6l-0.4,4.9c-0.6,4.6-3.8,8-9.6,10c-1.5,0.4-2.4,0.2-2.8-0.6c-0.7-1.5-0.2-2.6,1.3-3.2
		c3.8-1.3,5.8-3.2,6.3-5.7l0.2-2.4c-5.7,3.6-8.9,4.4-9.5,2.5c-0.5-1.5,0.4-2.8,2.7-3.7c3.7-1.3,6.7-3.1,9.2-5.6l-6.7,0.4
		c-1.9,0.2-2.7-0.7-2.4-2.6L234.7,11.8z M238.9,20.2l8.9-0.5l0.1-1.6l-9.5,0.6l-0.1,1.2C238.2,20.1,238.4,20.2,238.9,20.2z
		 M238.8,13.6l-0.1,1.2l9.5-0.6l0.2-1.8l-8.9,0.5C239,13,238.8,13.2,238.8,13.6z M252.2,19.4l9.1-0.5c0.3,0,0.5-0.2,0.5-0.5l0.1-1.2
		l-9.5,0.6L252.2,19.4z M252.9,12.1l-0.2,1.8l9.5-0.6l0.1-1.2c0-0.4-0.1-0.6-0.4-0.6L252.9,12.1z"/>
	<path class="st1" d="M234.3,45.8c-2.8,0-3.9-1.9-4.1-2.5c-0.8-1.9-0.5-3.3-0.2-4.2c0.2-0.6,0.7-1.2,1.4-1.9c-0.2,0-0.3-0.1-0.5-0.2
		c-1.3-0.5-2.2-1.4-2.6-2.7c-0.4-1.2-1-5.1,4.3-7.3c0,0,0.1,0,0.1,0c0.1,0,0.2-0.1,0.3-0.1c-0.4-0.2-0.7-0.5-0.9-0.7
		c-0.7-0.8-1.5-2.2-1.2-4.5l0.9-10.1c0.2-3.4,2.4-5.6,6-5.9l26.5-1.6c2.2-0.1,3.5,0.7,4.2,1.4c0.7,0.7,1.5,2,1.3,4.2l-0.9,10.7
		c-0.1,2.1-1,3.4-1.7,4c-0.3,0.3-0.7,0.5-1.1,0.8c0.4,0.2,0.8,0.3,1.3,0.5c0.4,0.1,0.8,0.4,1.1,0.7c2.1,2.2,2.2,5.1,0.2,7.6
		c-0.1,0.2-0.3,0.3-0.5,0.4c-1.3,1-3.5,1.8-6.9,0.3l-0.4,5c0,0.1,0,0.1,0,0.2c-0.4,2.5-2.2,4.2-4.9,4.8c-0.2,0-0.5,0.1-0.7,0
		c-1.7-0.1-3-0.7-3.8-1.7c-0.6-0.7-1.2-1.8-1.1-3.5l0.9-10.1c-0.5-0.4-0.9-0.9-1.2-1.4c-0.1,0.1-0.1,0.1-0.2,0.2
		c-0.3,0.4-0.7,0.9-1.2,1.2l-0.3,3.6c0,0,0,0.1,0,0.1c-0.7,5.8-4.6,10-11.5,12.4c-0.1,0-0.2,0.1-0.2,0.1
		C235.6,45.8,234.9,45.8,234.3,45.8z M242.3,28.6c0.1,0.1,0.2,0.2,0.3,0.3l0-0.5C242.5,28.4,242.4,28.5,242.3,28.6z M256.8,27
		c0.1,0.2,0.1,0.5,0.1,0.7c0.1-0.1,0.3-0.2,0.5-0.3c0,0,0,0,0.1,0C257.2,27.3,257,27.2,256.8,27z M245.4,22.7
		C245.5,22.7,245.5,22.7,245.4,22.7C245.5,22.7,245.5,22.7,245.4,22.7L245.4,22.7z M236.7,22.7L236.7,22.7L236.7,22.7z M235.7,21.7
		L235.7,21.7L235.7,21.7z M234.7,11.8L234.7,11.8L234.7,11.8z"/>
</g>
<g>
	<path class="st0" d="M293.9,20.3l3.6,4l1.6-1.7c1.1-1.2,2.1-1.9,3.1-2c1.3,0.1,1.9,0.9,1.9,2.2c-0.1,0.9-0.9,2.1-2.4,3.7l-1.1,1.1
		l2.4,2.8c0.4,0.7,0.6,1.3,0.6,1.9c-0.3,1.4-1.3,2.2-2.9,2.4c-0.8-0.1-1.4-0.2-1.9-0.5l-2.4-2.5c-2.9,2.3-5.7,3.6-8.6,3.8
		c-6,0.3-8.9-2.2-8.7-7.3c0.3-3.3,2.4-6.1,6.5-8.6c-1.6-1.5-2.3-3.1-2.1-4.9c0.4-3.9,3.3-6.2,8.6-6.8c4.8,0.1,7.2,1.9,7.2,5.5
		C299,16,297.2,18.3,293.9,20.3z M293.3,28.2l-5-5.7c-2.4,1.7-3.6,3.3-3.7,4.8c-0.2,2.5,1,3.6,3.7,3.5
		C290.1,30.7,291.7,29.9,293.3,28.2z M294.1,14.2c0-1.3-0.8-2-2.3-2.1c-1.5,0.3-2.4,1-2.5,2.1c-0.3,0.8,0.3,1.8,1.8,3.1
		C292.9,16.4,293.9,15.3,294.1,14.2z"/>
	<path class="st1" d="M287,38.4c-3.7,0-6.4-0.9-8.3-2.8c-1.8-1.8-2.6-4.3-2.5-7.5c0,0,0-0.1,0-0.1c0.3-3.4,2-6.4,5.2-9
		c-0.9-1.8-1-3.4-0.8-4.7c0.3-3,2.2-8.3,11.1-9.3c0.1,0,0.3,0,0.4,0c9.1,0.2,10.1,5.9,10.1,8.4c0,0.1,0,0.2,0,0.3
		c-0.2,1.6-0.7,3-1.6,4.4c0.5-0.2,1-0.3,1.5-0.3c0.2,0,0.3,0,0.5,0c2.8,0.3,4.6,2.3,4.5,5.2c0,0.1,0,0.1,0,0.2
		c-0.1,1.4-0.9,2.9-2.5,4.7l0.7,0.8c0.1,0.1,0.2,0.2,0.2,0.3c0.8,1.2,1.2,2.5,1,3.7c0,0.1,0,0.3-0.1,0.4c-0.6,2.6-2.5,4.3-5.4,4.6
		c-0.2,0-0.4,0-0.5,0c-1.2-0.1-2.3-0.4-3.1-0.8c-0.2-0.1-0.5-0.3-0.6-0.5l-0.7-0.7c-2.7,1.7-5.4,2.7-8.1,2.8
		C287.7,38.4,287.3,38.4,287,38.4z M282.2,30.2c0.1,0.5,0.4,1,0.7,1.3c0.1,0.1,0.1,0.1,0.2,0.2C282.7,31.3,282.4,30.8,282.2,30.2z
		 M296.4,28.8c0.8,0,1.5,0.3,2.1,0.9l0.3,0.3l-0.4-0.4c-0.6-0.7-0.8-1.5-0.7-2.3c-0.1,0-0.2,0-0.3,0c-0.6,0-1.2-0.2-1.7-0.6
		c0.4,0.7,0.6,1.5,0.4,2.2C296.3,28.8,296.4,28.8,296.4,28.8z M287.6,27.8c0.1,0,0.4,0,0.6,0c0.3,0,0.5,0,0.8-0.1l-1-1.1
		c-0.4,0.5-0.5,0.7-0.5,0.7c0,0.1,0,0.1,0,0.2C287.6,27.7,287.6,27.8,287.6,27.8z M301.3,22.5L301.3,22.5L301.3,22.5z M289.9,20
		c0.3,0.2,0.5,0.3,0.7,0.6l0.6,0.7c-0.1-0.3-0.2-0.7-0.2-1C290.6,20.2,290.2,20.2,289.9,20z M288.6,19.6c0.3,0,0.6,0.1,1,0.2
		c-0.1-0.1-0.3-0.2-0.4-0.3c-0.2-0.2-0.4-0.4-0.6-0.6C288.5,19.2,288.6,19.4,288.6,19.6z M294.1,14.2l-1.9,0L294.1,14.2z
		 M291.2,14.2l0.4,0L291.2,14.2L291.2,14.2L291.2,14.2z M291.3,13.6L291.3,13.6L291.3,13.6z"/>
</g>
<g>
	<path class="st0" d="M25.1,73.8c5.7-2.3,10.5-4.8,14.3-7.6c0.1,0,0.2-0.1,0.5-0.2c0.7-0.5,1.3-0.8,1.7-0.8l1.2-0.1
		c1,0,1.8,0.2,2.5,0.6c4.9,3.1,9.4,5.3,13.5,6.4c0.7,0.6,0.8,1.7,0.3,3.1c-0.3,0.6-0.9,0.9-1.7,1c-0.5,0-0.9-0.1-1.3-0.4l-0.5,6.4
		c-0.1,2-1.1,2.9-3.1,2.8L29,86.3c-2.1,0.1-3-0.7-2.9-2.6l0.5-6.1c-1.3,0.4-2.2,0-2.7-1C23.5,75.3,23.9,74.3,25.1,73.8z M29.1,99.6
		c-2.1,0-3-0.9-2.9-2.8l0.6-6.7c0-1.7,1.2-2.6,3.3-2.7l20.5-1.2c2-0.1,2.9,0.8,2.7,2.8l-0.6,6.7c-0.2,1.6-1.4,2.5-3.5,2.7L29.1,99.6
		z M30.4,82.7l3.7-0.2c-1.7-1.2-2.2-2.3-1.6-3.4l-1.8,0.1L30.4,82.7z M30.9,94.6l-0.1,1.2l17.7-1.1l0.1-1.2L30.9,94.6z M48.9,89.7
		l-17.7,1.1l-0.1,1.2l17.7-1.1L48.9,89.7z M31.2,75.6l21.1-1.3L49.6,73c-0.3,0.3-0.7,0.5-1.1,0.5l-14.9,0.9
		C33.2,74.6,32.3,75,31.2,75.6z M38.9,78.7l-3.1,0.2c1.6,1.5,2,2.6,1.2,3.5l1.6-0.1L38.9,78.7z M41.6,69.5c-1,0.7-1.9,1.3-3,1.8
		l7-0.4l-3-1.4C42.3,69.2,42,69.2,41.6,69.5z M43.2,78.4l-0.3,3.4l1.9-0.1c-0.4-0.6,0-1.7,1.5-3.5L43.2,78.4z M49.6,78
		c0.5,0.5,0,1.6-1.5,3.5l3.1-0.2l0.3-3.4L49.6,78z"/>
	<path class="st1" d="M29.1,102.5c-1.9,0-3.4-0.6-4.4-1.7c-0.7-0.7-1.5-2.1-1.3-4.3l0.6-6.6c0-0.8,0.2-1.5,0.6-2.2
		c-0.7-0.7-1.5-2.1-1.3-4.3l0.3-3.3c-0.9-0.5-1.7-1.2-2.2-2.3c-0.1-0.2-0.1-0.3-0.2-0.5c-0.8-2.7,0.3-5.1,2.9-6.3c0,0,0.1,0,0.1-0.1
		c5.5-2.2,10.1-4.7,13.6-7.3c0.2-0.2,0.5-0.3,0.8-0.4c1.1-0.7,2-1.1,2.9-1.2l1.2-0.1c0.1,0,0.2,0,0.3,0c1.4,0.1,2.7,0.4,3.7,0.9
		c0.1,0,0.1,0.1,0.2,0.1c4.6,3,8.8,5,12.7,6c0.4,0.1,0.8,0.3,1.2,0.6c1,0.9,2.4,2.8,1.1,6.3c-0.1,0.2-0.1,0.3-0.2,0.4
		c-0.6,1.1-1.6,1.9-2.9,2.3l-0.3,3.5c-0.1,2.2-1,3.4-1.7,4.1c-0.2,0.1-0.3,0.3-0.5,0.4c0.2,0.7,0.3,1.4,0.2,2.4l-0.6,6.7
		c0,0.1,0,0.1,0,0.2c-0.2,1.4-1.2,4.7-6.1,5.2c0,0-0.1,0-0.1,0l-20.2,1.2C29.2,102.5,29.2,102.5,29.1,102.5z M29.1,99.6L29.1,99.6
		L29.1,99.6z M39.2,63.2C39.2,63.2,39.2,63.2,39.2,63.2C39.2,63.2,39.2,63.2,39.2,63.2z"/>
</g>
<g>
	<path class="st0" d="M63.4,92.1c-1.2,0.1-1.7-0.7-1.6-2.4L63,76c0.1-1.3,1-2,2.6-2.2l27.2-1.6c1.5-0.1,2.2,0.5,2.2,1.8l-1.2,13.8
		c0,1.9-1,2.8-3,2.7l-4.3,0.3c2.7,0.6,4.6,1.1,5.6,1.4c0.3,0.2,0.6,0.3,0.9,0.4c0.8,0.1,1.4,0.2,1.7,0.5c0.7,0.7,0.6,1.7-0.3,3
		c-0.7,0.8-2,0.9-3.9,0.2c-2.6-0.8-5-1.5-7.4-2.1c-1.7-0.5-2-1.5-0.8-3.2l-8.9,0.5c1,1,0.9,1.9-0.2,2.7c-3.6,1.8-7.5,3.3-11.6,4.5
		c-1.1,0.2-1.8-0.3-2.1-1.5c-0.1-1.3,0.4-2,1.5-2.3c3.6-0.8,6.6-1.9,8.9-3.2L63.4,92.1z M66.8,72.6c-2.4,0.4-3.3-0.4-2.7-2.5
		l0.3-3.4c-0.1-1.7,0.8-2.5,2.6-2.5l26.3-1.6c1.4-0.1,2,0.6,1.9,2.1l-0.3,3.7c-0.1,1.9-0.9,2.8-2.4,2.6L66.8,72.6z M89.7,86.8
		l0.1-1.3l-23.5,1.4l-0.1,1.3L89.7,86.8z M90.1,82.1l0.1-1.3l-23.5,1.4l-0.1,1.3L90.1,82.1z M67.1,77.6L67,78.7l23.5-1.4l0.1-1.2
		L67.1,77.6z M90.7,67.8l0.1-1.5l-22.4,1.3l-0.1,1.5L90.7,67.8z"/>
	<path class="st1" d="M61.2,101.6c-2.2,0-3.9-1.4-4.5-3.7c0-0.2-0.1-0.3-0.1-0.5c-0.2-2.3,0.8-4.1,2.6-4.9c-0.3-0.8-0.5-1.8-0.4-3
		l1.2-13.6c0.1-1.2,0.5-2.2,1.2-3C61,72,60.9,71,61.2,69.6l0.3-3c0-1.9,0.7-3.1,1.4-3.8c1-1,2.3-1.5,4-1.6l26.2-1.6
		c1.9-0.1,3.1,0.6,3.7,1.3c0.7,0.7,1.4,1.9,1.2,3.9l-0.3,3.6c0,1-0.3,1.9-0.6,2.7c0.4,0.6,0.8,1.5,0.8,2.7c0,0.1,0,0.2,0,0.2
		l-1.2,13.6c0,1.1-0.2,1.9-0.6,2.6c0.1,0.1,0.2,0.1,0.3,0.2c0.1,0.1,0.2,0.2,0.4,0.3c0.7,0.7,2.6,3.1,0,6.7c0,0-0.1,0.1-0.1,0.1
		c-1,1.3-3.1,2.5-7.1,1.2c-2.4-0.8-4.9-1.5-7.1-2c0,0-0.1,0-0.1,0C80.2,96.3,79.3,95,79,94l-2.1,0.1c-0.3,0.8-0.9,1.6-2,2.4
		c-0.1,0.1-0.2,0.1-0.3,0.2c-3.7,1.9-7.8,3.4-12.1,4.7c-0.1,0-0.3,0.1-0.4,0.1C61.8,101.6,61.5,101.6,61.2,101.6z M93.2,95.5
		L93.2,95.5L93.2,95.5z M84.5,93L84.5,93L84.5,93z M63.2,89.2C63.2,89.2,63.2,89.2,63.2,89.2L63.2,89.2z"/>
</g>
<g>
	<path class="st0" d="M105,68.2l0.4-5c0.1-1.1,0.8-1.7,2.1-1.9c1.4-0.1,2.1,0.4,2.1,1.3l-0.5,5.3l1.8-0.1c1.1,0,1.7,0.7,1.8,2
		c-0.2,1.5-0.9,2.3-2,2.3l-1.9,0.1l-0.4,4.7l0.6-0.3c1.2-0.6,2.1-0.2,2.7,1c0.4,1.3,0,2.3-1.1,3l-2.6,1.5l-0.9,10.2
		c0,1.9-1.3,2.8-3.9,2.9c-1.6,0-2.7-0.3-3.5-0.8c-0.6-0.5-0.8-1.4-0.4-2.6c0.3-0.9,1.1-1.2,2.6-1c0.8,0.2,1.2-0.1,1.3-0.8l0.5-5.6
		l-1.6,1c-1.2,0.6-2.1,0.3-2.7-0.9c-0.5-1.4-0.1-2.5,1-3.2l3.7-2l0.6-6.8l-2.8,0.2c-1.3,0.1-1.9-0.6-1.9-1.9
		c0.1-1.4,0.8-2.2,2.1-2.3L105,68.2z M114.3,75.5l1.3-0.1l1.7-9.1l-2.7,0.2c-1.6,0.1-2.4-0.6-2.3-2.1c0.2-1.4,1.1-2.2,2.7-2.4
		l16.5-1c1.9-0.1,2.6,0.8,2.3,2.8l-3.7,25.4l2.1-0.1c1.1,0,1.6,0.6,1.6,1.8c-0.2,1.4-0.9,2.2-2,2.3l-21.6,1.3
		c-1.2,0-1.7-0.7-1.6-2.1c0.1-1.2,0.8-1.9,1.9-2l1.9-0.1l2.2-10.6l-0.9,0.1c-1.2,0.1-1.7-0.6-1.6-2
		C112.5,76.4,113.1,75.6,114.3,75.5z M116.9,90l8.6-0.5l1.6-10.5l-8,0.5L116.9,90z M121.6,66l-1.7,9.1l7.9-0.5l1.2-8.3
		c-0.1-0.5-0.2-0.7-0.5-0.7L121.6,66z"/>
	<path class="st1" d="M103.2,98.2c-2.3,0-4-0.5-5.3-1.4c-0.1,0-0.1-0.1-0.2-0.1c-0.7-0.6-2.3-2.5-1.2-5.8c0.2-0.6,0.8-2.1,2.6-2.8
		c-1-0.4-1.8-1.2-2.4-2.4c-0.1-0.1-0.1-0.3-0.2-0.4c-0.9-2.8,0-5.2,2.3-6.6l2.4-1.3l0.2-1.9c-1.5,0-2.5-0.7-3.1-1.2
		c-0.6-0.6-1.4-1.8-1.4-3.7c0-0.1,0-0.1,0-0.2c0.2-2.8,2-4.6,4.6-5c0.1,0,0.1,0,0.2,0l0.5,0l0.2-2.5c0.2-2.5,1.9-4.2,4.6-4.5
		c0.1,0,0.1,0,0.2,0c1.6-0.1,2.9,0.3,3.9,1.2c0.2,0.2,0.4,0.4,0.5,0.6c0.8-0.5,1.8-0.9,2.9-1c0.1,0,0.1,0,0.2,0l16.5-1
		c2.3-0.1,3.6,0.8,4.3,1.5c1,1.2,1.4,2.7,1,4.6l-3.2,22c2,0.5,3.3,2.2,3.3,4.6c0,0.1,0,0.3,0,0.4c-0.6,3.8-3.3,4.6-4.4,4.8
		c-0.1,0-0.2,0-0.3,0l-21.6,1.3c-0.1,0-0.2,0-0.2,0c-1,0-1.8-0.3-2.4-0.6C106.8,97.6,105.3,98.1,103.2,98.2z M101.1,93.6L101.1,93.6
		L101.1,93.6z M121.6,82.2l-1,4.7l2.5-0.1l0.7-4.7L121.6,82.2z M110.8,84l-0.2,1.8l0.4-1.9L110.8,84z M124.1,68.8l-0.6,3.2l1.8-0.1
		l0.4-3.2L124.1,68.8z M105,68.2L105,68.2L105,68.2z M114.3,63.6L114.3,63.6L114.3,63.6z"/>
</g>
<g>
	<path class="st0" d="M143.1,65.9l0.4-5c0.1-1.1,0.8-1.7,2.1-1.9c1.4-0.1,2.1,0.4,2.1,1.3l-0.5,5.3l1.8-0.1c1.1,0,1.7,0.7,1.8,2
		c-0.2,1.5-0.9,2.3-2,2.3l-1.9,0.1l-0.4,4.7l0.6-0.3c1.2-0.6,2.1-0.2,2.7,1c0.4,1.3,0,2.3-1.1,3l-2.6,1.5l-0.9,10.2
		c0,1.9-1.3,2.8-3.9,2.9c-1.6,0-2.7-0.3-3.5-0.8c-0.6-0.5-0.8-1.4-0.4-2.6c0.3-0.9,1.1-1.2,2.6-1c0.8,0.2,1.2-0.1,1.3-0.8l0.5-5.6
		l-1.6,1c-1.2,0.6-2.1,0.3-2.7-0.9c-0.5-1.4-0.1-2.5,1-3.2l3.7-2l0.6-6.8l-2.8,0.2c-1.3,0.1-1.9-0.6-1.9-1.9
		c0.1-1.4,0.8-2.2,2.1-2.3L143.1,65.9z M152.4,73.2l1.3-0.1l1.7-9.1l-2.7,0.2c-1.6,0.1-2.4-0.6-2.3-2.1c0.2-1.4,1.1-2.2,2.7-2.4
		l16.5-1c1.9-0.1,2.6,0.8,2.3,2.8l-3.7,25.4l2.1-0.1c1.1,0,1.6,0.6,1.6,1.8c-0.2,1.4-0.9,2.2-2,2.3l-21.6,1.3
		c-1.2,0-1.7-0.7-1.6-2.1c0.1-1.2,0.8-1.9,1.9-2l1.9-0.1l2.2-10.6l-0.9,0.1c-1.2,0.1-1.7-0.6-1.6-2
		C150.5,74.1,151.2,73.3,152.4,73.2z M155,87.7l8.6-0.5l1.6-10.5l-8,0.5L155,87.7z M159.7,63.8l-1.7,9.1l7.9-0.5l1.2-8.3
		c-0.1-0.5-0.2-0.7-0.5-0.7L159.7,63.8z"/>
	<path class="st1" d="M141.3,95.9c-2.3,0-4-0.5-5.3-1.4c-0.1,0-0.1-0.1-0.2-0.1c-0.7-0.6-2.3-2.5-1.2-5.8c0.2-0.6,0.8-2.1,2.6-2.8
		c-1-0.4-1.8-1.2-2.4-2.4c-0.1-0.1-0.1-0.3-0.2-0.4c-0.9-2.8,0-5.2,2.3-6.6l2.4-1.3l0.2-1.9c-1.5,0-2.5-0.7-3.1-1.2
		c-0.6-0.6-1.4-1.8-1.4-3.7c0-0.1,0-0.1,0-0.2c0.2-2.7,2-4.6,4.6-5c0.1,0,0.1,0,0.2,0l0.5,0l0.2-2.5c0.2-2.5,1.9-4.2,4.6-4.5
		c0.1,0,0.1,0,0.2,0c1.6-0.1,2.9,0.3,3.9,1.2c0.2,0.2,0.4,0.4,0.5,0.6c0.8-0.5,1.8-0.9,2.9-1c0.1,0,0.1,0,0.2,0l16.5-1
		c2.3-0.1,3.6,0.8,4.3,1.5c1,1.2,1.4,2.7,1,4.6l-3.2,22c2,0.5,3.3,2.2,3.3,4.6c0,0.2,0,0.3,0,0.4c-0.6,3.8-3.3,4.6-4.4,4.8
		c-0.1,0-0.2,0-0.3,0l-21.6,1.3c-0.1,0-0.2,0-0.2,0c-1,0-1.8-0.3-2.4-0.6C144.9,95.3,143.4,95.8,141.3,95.9z M139.2,91.3L139.2,91.3
		L139.2,91.3z M159.6,79.9l-1,4.7l2.5-0.1l0.7-4.7L159.6,79.9z M148.8,81.7l-0.2,1.8l0.4-1.9L148.8,81.7z M162.2,66.5l-0.6,3.2
		l1.8-0.1l0.4-3.2L162.2,66.5z M143.1,65.9L143.1,65.9L143.1,65.9z"/>
</g>
<g>
	<path class="st0" d="M198.8,72.3c-0.1,1.6-0.9,2.4-2.4,2.4l-1.3,0.1l-0.2,2.1l14-0.8c1,0,1.5,0.7,1.5,2c-0.2,1.4-0.8,2.1-1.8,2.2
		l-11.1,0.7c3.5,2.1,6.8,3.5,10,4.1c1.9,0.5,2.6,1.4,2.1,2.8c-0.5,1.4-1.6,2-3.3,1.8c-4-0.9-7.9-2.6-11.8-5l-0.4,4.9
		c-1.7,2.2-3.1,2.2-4.5,0.3l0.4-5.2c-4.8,3.1-9.1,5.3-13,6.4c-1.8,0.5-2.9,0.2-3.2-1c-0.3-1.4,0.2-2.3,1.6-2.7
		c5.4-1.7,9.3-3.6,11.7-5.7l-11.3,0.7c-1.1,0.1-1.6-0.6-1.6-2c0.2-1.3,0.9-2,2-2.2l14.3-0.9l0.2-2.1l-1.5,0.1
		c-1.4,0.2-2-0.5-1.7-2.1l1-11.7c0-1.7,0.8-2.6,2.3-2.6l1.5-0.1l0.1-1.5c0.1-1,0.9-1.6,2.4-1.8c1.4,0,2.1,0.5,2.1,1.5l-0.1,1.5
		l1.3-0.1c1.3,0,1.9,0.8,1.9,2.4L198.8,72.3z M178.1,61.6c0.2,0,0.4,0.1,0.6,0.3c0.1-0.3,0.4-0.9,0.9-1.7c1-1.7,1.7-2.8,1.9-3.2
		c0.9-1,1.8-1.3,2.9-0.9c0.6,0.5,0.7,1.2,0.2,2.3c-0.4,0.8-1.2,2.2-2.4,4.1c-0.5,0.7-0.7,1.2-0.9,1.4l1,0.7c0.3-0.4,0.8-1.2,1.4-2.3
		c0.2-0.4,0.5-0.8,0.8-1.2c0.7-1.3,1.6-1.7,2.6-1c0.8,0.4,0.8,1.4,0.1,2.8c-0.5,0.7-1,1.5-1.5,2.4c-2.1,3.4-3.5,5.6-4.3,6.7l2.5-0.3
		c-0.1-0.2-0.2-0.4-0.2-0.7c0-0.2,0-0.4,0.1-0.6c-0.2-0.8,0.2-1.3,1.2-1.7c0.7-0.3,1.2,0,1.5,1.1c0.1,1.4,0.2,2.7,0.4,3.9
		c0.1,1.2-0.3,1.9-1.2,2.1c-1,0.3-1.5,0-1.4-0.8c-0.9,0.2-2.2,0.4-3.9,0.7c-1.4,0.2-2.4,0.3-3.1,0.3c-1.7,0.4-2.4-0.2-2.2-1.8
		c0-1.1,0.5-1.7,1.5-1.9c0.2,0,0.5,0,1-0.1c0.2-0.3,0.6-0.9,1-1.8c0.6-0.9,1-1.6,1.4-2.1c-0.3-0.2-0.7-0.5-1.1-0.8
		c-1.2-1-2-1.8-2.5-2.4c-0.9-0.7-1-1.6-0.2-2.6C176.6,61.7,177.3,61.4,178.1,61.6z M195.5,68.4l-4.5,0.3l-0.2,2.5l4.5-0.3
		L195.5,68.4z M191.6,62.7l-0.2,2.5l4.5-0.3l0.2-2.5L191.6,62.7z M199.9,71.2l0.1,0c0.2-0.7,1.1-2.1,2.7-4.3c0.7-0.7,1-1.1,1-1.2
		c-2.1-1.4-3.1-2.1-2.9-2c-1.2-0.7-1.4-1.6-0.5-2.8c0.6-0.7,1.2-1,2-0.9c0.1-0.2,0.4-0.7,0.7-1.4c0.4-0.8,0.8-1.6,1.4-2.4
		c0.6-1,1.4-1.4,2.3-1.2c1.1,0.4,1.4,1.2,0.7,2.5c-0.4,0.8-0.9,1.8-1.6,2.9c-0.3,0.4-0.6,0.9-0.9,1.4l1.1,0.5
		c0.1-0.1,0.4-0.5,0.8-1.2c0.2-0.3,0.5-0.7,0.8-1.1c0.8-1.2,1.8-1.5,2.9-0.9c1,0.6,1,1.7-0.1,3.2c-0.8,0.9-1.9,2.4-3.3,4.3
		c-1.4,2-2.5,3.3-3.2,4.2l2.5-0.3c-0.2-0.5-0.2-0.9,0-1.2c-0.2-1,0.2-1.6,1.2-1.8c1-0.4,1.7,0,2.1,1c0.2,0.7,0.4,1.7,0.6,3.2
		c0.1,0.3,0.2,0.5,0.2,0.7c0.1,1.4-0.4,2.2-1.5,2.4c-1.3,0.5-2,0.2-2-0.9c-2.8,0.4-5.1,0.6-6.9,0.7c-1.2,0.2-1.7-0.2-1.5-1.1
		C198.6,72.1,199,71.3,199.9,71.2z"/>
	<path class="st1" d="M191.4,94c-0.1,0-0.1,0-0.2,0c-1.2,0-2.8-0.5-4.3-2.7c-0.3-0.4-0.4-0.9-0.5-1.4c-3.1,1.7-6.1,3-8.8,3.8
		c-2,0.5-3.5,0.4-4.8-0.3c-1-0.6-1.7-1.6-2-2.8c0,0,0-0.1,0-0.1c-0.5-2.6,0.6-4.7,2.8-5.8c-0.5-0.2-0.9-0.5-1.1-0.8
		c-0.9-0.9-1.4-2.2-1.4-3.8c0-0.1,0-0.3,0-0.4c0.2-1.1,0.6-2,1.2-2.7c-0.3-0.7-0.5-1.6-0.4-2.8c0.1-2.3,1.5-4,3.7-4.5
		c0.1-0.1,0.1-0.3,0.2-0.4c0-0.1,0.1-0.1,0.1-0.1c-0.8-0.7-1.4-1.3-1.8-1.8c-1.9-1.7-2.1-4.2-0.5-6.3c0.9-1.4,2.1-2.2,3.4-2.3
		c1-1.7,1.6-2.7,1.8-3.1c0.1-0.2,0.2-0.3,0.3-0.4c1.7-2,4-2.6,6.2-1.7c0.2,0.1,0.4,0.2,0.6,0.3c0.5,0.3,1.5,1.2,1.8,2.9
		c0.5-0.3,1.1-0.6,1.8-0.7c0.4-1.2,1.5-3,4.7-3.4c0.1,0,0.3,0,0.4,0c2.9,0,4.3,1.5,4.8,3.1c0.6,0.2,1.1,0.5,1.5,0.8
		c0.3-0.6,0.7-1.1,1-1.7c1.2-2.1,3.3-3,5.5-2.4c0.1,0,0.2,0.1,0.3,0.1c1.7,0.6,2.4,1.8,2.7,2.6c0.1,0.3,0.2,0.7,0.2,1.1
		c0.5,0.1,0.9,0.3,1.4,0.5c0,0,0.1,0,0.1,0.1c1.1,0.7,1.8,1.7,2.1,2.8c0.3,1.4-0.1,2.9-1.3,4.6c0,0-0.1,0.1-0.1,0.1
		c-0.3,0.4-0.8,0.9-1.3,1.6c0.4,0.5,0.8,1,1.1,1.7c0.3,0.9,0.6,2.1,0.8,3.7c0,0,0,0.1,0,0.1c0.1,0.3,0.2,0.7,0.2,1
		c0.1,1.3-0.2,2.5-0.8,3.5c0.2,0.6,0.4,1.4,0.4,2.2c0,0.1,0,0.3,0,0.4c-0.4,2.8-2,3.9-3.3,4.4c0.9,0.5,1.6,1.2,2.1,2
		c0.4,0.8,0.8,2.2,0.2,3.9c-1,2.7-3.3,4.1-6.3,3.7c-0.1,0-0.2,0-0.3-0.1c-2.9-0.7-5.8-1.7-8.7-3.2l0,0.4c0,0.6-0.3,1.1-0.6,1.5
		C194.8,93,193.2,94,191.4,94z M207.1,87.9L207.1,87.9L207.1,87.9z M189.9,81.6c0.5,0,1,0.1,1.4,0.4c0.3,0.2,0.5,0.4,0.7,0.6
		c0.2-0.3,0.5-0.5,0.9-0.7c0.5-0.2,1-0.3,1.5-0.3c-0.1-0.5-0.2-1,0-1.5c0-0.1,0.1-0.2,0.1-0.4c-0.7-0.1-1.4-0.4-1.8-0.9c0,0,0,0,0,0
		c-0.5,0.7-1.3,1.1-2.2,1.2l-0.9,0.1c0,0.1,0.1,0.2,0.1,0.3C189.9,80.7,190,81.1,189.9,81.6z M182,57.1L182,57.1z"/>
</g>
<g>
	<path class="st0" d="M213.7,86.3c1.7-3.3,3.3-6.9,4.8-10.7c0.4-1.2,1.2-1.7,2.5-1.6c1.4,0.4,2,1.2,1.7,2.4
		c-1.8,4.7-3.6,8.7-5.3,11.9c-0.8,1.1-1.8,1.4-3.2,0.8C213.1,88.4,213,87.5,213.7,86.3z M219.2,71.7c-1.3-0.9-2.7-1.8-4-2.8
		c-0.8-0.4-1-1.2-0.5-2.3c0.8-1.2,1.7-1.8,2.7-1.6c1.8,0.8,3.5,2,5.2,3.7c0.5,1,0.3,1.9-0.7,2.8C220.8,72.3,219.9,72.4,219.2,71.7z
		 M220.9,62.4c-1.7-1.4-3.1-2.5-4.4-3.4c-0.9-0.6-1-1.6-0.4-2.8c0.9-1.1,1.9-1.5,2.9-1.1c1.1,0.6,2.7,1.8,4.7,3.5
		c0.6,0.8,0.5,1.8-0.3,3C222.6,62.8,221.7,63.1,220.9,62.4z M226.8,56.2c0.6,0,1.5-0.1,2.7-0.2c5.9-0.4,10.3-1,13.5-1.7
		c0.1,0,0.3,0,0.7,0c1.3-0.4,2.3-0.6,2.9-0.6c1.5,0,2.2,0.7,2.2,2.1c-0.3,1.2-1.2,2-2.7,2.4c-2.7,0.6-5.2,1-7.5,1.2l-0.3,3.7
		l9.5-0.6c1.1,0,1.6,0.7,1.6,2c-0.2,1.4-0.9,2.1-2,2.2l-9.5,0.6l-0.3,3.8l6.5-0.4c1.8-0.2,2.6,0.6,2.3,2.5l-0.9,10.5
		c-0.1,1.9-1,2.8-2.9,2.8l-16.8,1c-2.1,0.2-3-0.6-2.6-2.5l0.9-10.4c0.1-1.9,1.1-2.9,3.2-3l5.8-0.3l0.3-3.8l-9.5,0.6
		c-1.1,0.1-1.6-0.6-1.6-2c0.2-1.3,0.9-2,2-2.2l9.5-0.6l0.3-3.4c-1,0.2-2.3,0.3-3.9,0.5c-1.7,0.1-2.8,0.2-3.4,0.2
		c-1.4,0.1-2-0.5-1.9-1.8C224.8,57.3,225.5,56.4,226.8,56.2z M228.7,83.3l11.3-0.7c0.9,0.1,1.3-0.3,1.3-1.4l0.4-4.9
		c0.2-1.1-0.2-1.5-1.1-1.3l-11,0.7c-1.2,0-1.7,0.4-1.6,1.4l-0.4,5.2C227.5,83.1,227.8,83.5,228.7,83.3z"/>
	<path class="st1" d="M215.5,92.3c-0.8,0-1.7-0.2-2.5-0.6c-0.1,0-0.2-0.1-0.3-0.2c-2.4-1.4-3-4-1.6-6.6c1.6-3.2,3.2-6.7,4.6-10.4
		c0.2-0.5,0.4-0.9,0.6-1.3c-0.9-0.6-1.8-1.3-2.7-1.9c-1.6-0.9-2.9-3-1.6-6c0.1-0.1,0.1-0.3,0.2-0.4c1.1-1.8,2.4-2.5,3.6-2.8
		c-0.3-0.2-0.6-0.5-0.9-0.7c-1.6-1.1-3-3.5-1.2-6.6c0.1-0.1,0.1-0.2,0.2-0.4c1.7-2.1,4-2.9,6.3-2c0.1,0,0.2,0.1,0.3,0.1
		c0.8,0.5,1.8,1.1,3,2.1c0.8-0.8,1.9-1.3,2.9-1.4c0.1,0,0.1,0,0.2,0l2.7-0.2c5.6-0.4,10-1,13-1.6c0.1,0,0.3-0.1,0.4-0.1l0.4,0
		c1.4-0.4,2.4-0.6,3.2-0.6c0.1,0,0.1,0,0.2,0c2,0,3.1,0.8,3.8,1.4c0.6,0.6,1.3,1.8,1.3,3.6c0,0.2,0,0.5-0.1,0.7
		c-0.2,0.9-0.8,2.3-2.3,3.3c1.6,0.6,3,2.1,3,4.6c0,0.1,0,0.3,0,0.4c-0.4,2.4-1.8,4.1-3.9,4.5c0.6,0.8,1.2,2.1,0.9,4.1l-0.9,10.4
		c-0.1,3.4-2.3,5.5-5.7,5.6l-16.7,1c-2,0.2-3.6-0.3-4.7-1.4c-0.2-0.2-0.4-0.5-0.6-0.8c-0.3,0.5-0.5,1-0.8,1.5
		c-0.1,0.1-0.1,0.2-0.2,0.3C218.7,91.5,217.1,92.3,215.5,92.3z M213.7,86.3L213.7,86.3L213.7,86.3z M230.5,82.9
		C230.5,82.9,230.5,82.9,230.5,82.9C230.5,82.9,230.5,82.9,230.5,82.9z M230.9,78.6l-0.1,1.7l7.8-0.5l0.1-1.7L230.9,78.6z
		 M244.5,73.5L244.5,73.5L244.5,73.5z M218.1,56.6C218.1,56.6,218.1,56.6,218.1,56.6C218.1,56.6,218.1,56.6,218.1,56.6z"/>
</g>
<g>
	<path class="st0" d="M256.2,52.7c3-0.2,5.8-0.4,8.4-0.8c2.6-0.3,4.8-0.6,6.7-1c1-0.1,1.6,0.4,1.8,1.5c0.1,1.2-0.3,1.9-1.2,2.3
		c-1,0.3-2.3,0.5-3.8,0.7c-1.1,0.1-1.8,0.1-2.1,0.1l-0.1,1.5l6.2-0.4c1.7,1.3,1.6,2.6-0.3,3.8l-6.2,0.4l-0.1,1.2l4.5-0.3
		c2-0.1,2.9,0.7,2.6,2.3l-0.6,7.5c-0.3,2-1.1,3-2.5,3.1l-5.1,0.3l-0.1,1.2l5.6-0.3c0.9,0,1.3,0.8,1.1,2.1c-0.3,1.1-0.9,1.7-1.8,1.7
		l-5.4,0.3l-0.1,1.5c1.6,0,3.7-0.2,6.3-0.7c3.3-4.8,5.6-11.6,7.1-20.4l-2.1,0.1c-0.9,0.1-1.3-0.6-1.3-2c0.1-1.4,0.6-2.1,1.5-2.3
		l2.2-0.1c0.1-0.6,0.2-2,0.4-4.1c0.1-1,0.9-1.6,2.4-1.8c1.5,0,2.2,0.5,2.2,1.5c-0.2,2.3-0.3,3.6-0.4,4.1l3-0.2c2-0.1,2.9,1,2.7,3.2
		c-0.5,4.8-1,9.3-1.4,13.5c-0.4,4-0.8,6.6-1.1,7.9c-0.9,3.7-3.8,5-8.8,4.1c-1.4-0.5-1.8-1.5-1.1-2.9c0.7-1,1.9-1.3,3.6-1
		c1,0.2,1.7-0.3,2.1-1.7c0.3-1.6,0.7-4.2,1.1-7.7c0.4-3.5,0.8-7.1,1.2-11l-1.8,0.1c-1.4,10.3-4.6,18.5-9.8,24.7
		c-1.6,1.1-2.8,0.9-3.8-0.7c-2.2,0.2-4.7,0.5-7.5,0.9c-4.2,0.6-6.8,1-7.8,1.2c-1.2,0-1.8-0.6-1.9-1.6c0-1,0.6-1.6,1.8-1.7
		c0.4,0,1.2-0.1,2.4-0.1c1.6-0.2,3.1-0.4,4.5-0.7l0.2-1.8l-6.5,0.4c-0.9,0.1-1.3-0.6-1.2-1.8c0.2-1.2,0.8-1.9,1.7-2l6.4-0.4l0.1-1.2
		l-5.1,0.3c-1.6,0.2-2.3-0.6-2-2.4l0.7-7.7c0.1-1.9,1-2.9,2.9-3l4.6-0.3l0.1-1.2l-7.1,0.4c-1.2,0.1-1.7-0.5-1.6-1.8
		c0.1-1.2,0.8-1.9,1.9-2l7.1-0.4l0.1-1.2c-0.8,0-2.3,0.2-4.5,0.4c-1,0.1-1.5,0.1-1.6,0.1c-1.2,0.1-1.7-0.6-1.6-2
		C254.1,53.5,254.9,52.9,256.2,52.7z M257,72l3.3-0.2l0.1-1.3l-3.3,0.2L257,72z M260.8,65.6l-3.3,0.2l-0.1,1.5l3.3-0.2L260.8,65.6z
		 M264.7,70.3l-0.1,1.3l3.1-0.2l0.1-1.3L264.7,70.3z M265.2,65.4l-0.1,1.5l3.1-0.2l0.1-1.5L265.2,65.4z"/>
	<path class="st1" d="M252.7,89.2C252.7,89.2,252.7,89.2,252.7,89.2c-2.7-0.1-4.6-1.7-4.8-4.3c0-0.1,0-0.2,0-0.2
		c0-1.4,0.5-2.6,1.5-3.4c-0.3-0.8-0.4-1.6-0.4-2.7c0-0.1,0-0.2,0-0.2c0.2-1.3,0.7-2.2,1.2-2.8c-0.2-0.8-0.3-1.7-0.2-2.7l0.6-7.5
		c0-0.7,0.1-1.3,0.3-1.9c-0.1-0.1-0.2-0.2-0.3-0.3c-0.6-0.6-1.3-1.8-1.2-3.7c0.1-1.4,0.7-2.5,1.6-3.3c-0.1-0.5-0.1-1.1-0.1-1.7
		c0-0.1,0-0.2,0-0.3c0.4-2.3,2.2-3.9,4.7-4.3c0.1,0,0.1,0,0.2,0c2.9-0.2,5.6-0.4,8.1-0.8c0,0,0.1,0,0.1,0c2.4-0.2,4.6-0.6,6.4-0.9
		c0.1,0,0.3-0.1,0.4-0.1c1.8-0.1,3.4,0.7,4.2,2.2c0.5-1.2,1.7-2.5,4.5-2.9c0.1,0,0.2,0,0.4,0c3.7,0,5.1,2.4,5.1,4.3
		c0,0.1,0,0.2,0,0.3l-0.1,0.8c2,0,3.2,0.8,3.9,1.5c1.1,1.2,1.6,2.8,1.4,4.9c-0.5,4.9-1,9.4-1.5,13.5c-0.5,4.1-0.8,6.8-1.2,8.2
		c-0.6,2.5-3,8-12.2,6.2c-0.1,0-0.3-0.1-0.4-0.1c-0.5-0.2-0.9-0.4-1.2-0.6c-0.1,0.1-0.1,0.2-0.2,0.3c-0.2,0.2-0.4,0.4-0.6,0.5
		c-1.5,1-3,1.4-4.4,1.1c-0.6-0.1-1.4-0.4-2.2-1.1c-1.8,0.2-3.8,0.4-5.9,0.7c-4.1,0.6-6.7,1-7.7,1.2C253,89.2,252.9,89.2,252.7,89.2z
		 M277.5,83.2L277.5,83.2L277.5,83.2z M279.9,57.7C279.9,57.7,279.9,57.8,279.9,57.7C279.9,57.8,279.9,57.8,279.9,57.7
		C279.9,57.7,279.9,57.7,279.9,57.7z"/>
</g>
<g>
	<path class="st2" d="M7.4,27.6c-1.5,0.1-2.2-0.6-2.2-1.9c0.1-1.4,0.9-2.2,2.4-2.4l30.8-1.8c1.2,0,1.8,0.7,1.7,2.1
		c-0.2,1.4-0.9,2.1-2.1,2.2L25,26.5l-1.4,3.8l8.8-0.5c3.1-0.4,4.4,0.6,3.9,3l-1.4,16.6c0.1,3-1.4,4.4-4.5,4.1L9.6,54.7
		c-3.6,0.6-5-0.3-4.2-2.8l1.5-17.2C6.8,32.2,8.4,31,11.6,31l7-0.4l1.4-3.8L7.4,27.6z M30.8,43.9l-20.2,1.2l-0.4,5
		c-0.2,0.6,0.1,0.8,0.7,0.7l18.9-1.1c0.4,0.1,0.6-0.1,0.6-0.6L30.8,43.9z M31.6,34.8c-0.1-0.5-0.3-0.8-0.7-0.8l-18.6,1.1
		c-0.7,0-1,0.3-0.9,0.6l-0.4,5.2l20.2-1.2L31.6,34.8z"/>
</g>
<g>
	<path class="st2" d="M57.4,18.9l-0.1,1.3l7.9-0.5l0.1-1.2c0.1-0.7,0.8-1.1,2.3-1.2c1.4,0,2.1,0.4,2.1,1l-0.1,1l7.7-0.5
		c0.9,0,1.3,0.8,1.3,2.1c-0.2,1.4-0.8,2.1-1.8,2.2l-7.6,0.5l-0.1,1.5l2.4-0.1c2.2-0.1,3.1,0.8,2.9,2.9l-0.5,5.6
		c-0.2,2.2-1.3,3.3-3.2,3.3L62,37.4l-0.1,1.2l11-0.7c2.1-0.1,3,0.9,2.8,3.1l-0.6,7c0,2.9-1.6,4.4-4.8,4.3c-1,0-2.4-0.2-4.4-0.5
		c-1.8-1.3-1.6-2.5,0.6-3.7c0.3,0.1,0.8,0.1,1.6,0.2c0.9,0.1,1.6,0.2,2.1,0.2c0.3,0,0.5-0.1,0.6-0.3l0.5-5.9c0-0.3-0.1-0.4-0.4-0.4
		l-2.1,0.1c1,1.6,1.7,2.9,1.9,4c-0.8,1.7-1.9,2-3.2,0.9c-4,0.7-8,1.4-12,2c-2,0.4-4,0.7-5.8,0.8c-1.1,0.1-1.6-0.6-1.5-2
		c0-1.3,0.7-2,2.1-2.2c2.2-0.2,4.4-0.5,6.7-0.8l0.2-1.9l-9.4,0.6c-0.3,0-0.5,0.1-0.5,0.3L46.7,52c-0.2,0.9-1,1.4-2.4,1.6
		c-1.4,0-2-0.5-2-1.4l0.8-9.5c0.2-2,1.2-3.1,3.2-3.3l11.1-0.7l0.1-1.2l-9.1,0.5c-1.9,0.2-2.7-0.8-2.4-2.9l0.5-6.1
		c0.1-1.7,1.1-2.6,2.9-2.8l2.7-0.2l0.1-1.5l-7.9,0.5c-1.1,0.1-1.6-0.6-1.4-2.1c0.2-1.3,0.9-2,2.1-2.2l7.6-0.5l0.1-1.3
		C54.5,17.6,56,17.5,57.4,18.9z M50.7,34.7l7.3-0.4l0.1-1.2l-7.3,0.4L50.7,34.7z M51,30.9l7.3-0.4l0.1-1.2l-7.3,0.4L51,30.9z
		 M64.9,24l-8,0.5L56.7,26l8-0.5L64.9,24z M61.5,42.5l-0.1,1.6c1.3-0.1,2.6-0.3,3.9-0.5l-0.6-1.3L61.5,42.5z M62.3,34l7.1-0.4
		l0.1-1.2l-7.1,0.4L62.3,34z M69.7,29.7l0.1-1.2L62.7,29l-0.1,1.2L69.7,29.7z"/>
</g>
<g>
	<path class="st2" d="M86.8,37.4c-0.8,0-1.2-0.4-1.2-1.4c0.2-1,0.7-1.6,1.6-1.7l20.4-1.2c1.5,1,1.4,2-0.4,3.1l-6.8,0.4
		c-1,0.5-1.7,0.7-2,0.9c0.7,0.6,1.4,1.3,1.9,2.1c2.2-0.7,4.5-1.5,6.7-2.5c1.1-0.4,1.9,0,2.3,1c0.3,1.2-0.1,2-1.3,2.6
		c-0.4,0.2-0.9,0.4-1.5,0.5c-0.3,0.1-0.5,0.2-0.6,0.2c1.5,2.3,3.5,3.9,5.9,4.9c0.9,0.5,1.1,1.4,0.4,2.6c-0.8,0.9-1.7,1.1-2.7,0.6
		c-2.9-1.4-5.4-3.7-7.4-6.9c-0.1,0-0.3,0.1-0.6,0.2c0,0.1,0.1,0.6,0.3,1.6c0.4,5-2.5,7.3-8.6,6.8c-2.1-0.5-2.4-1.7-0.9-3.8
		c-3.3,1.2-6.6,2.3-10.1,3.4c-1.1,0.2-1.8-0.2-2-1.1c0-1,0.5-1.6,1.5-2c5.9-1.4,11-3.3,15.1-5.6c-0.2-0.3-0.3-0.5-0.4-0.7
		c-4.7,2.2-9.2,3.9-13.3,5.1c-1.1,0.4-1.8,0.1-2-0.8c0-1.1,0.5-1.8,1.5-2.2c4.2-1.1,8.2-2.5,11.8-4.2l-0.4-0.3
		c-3.3,1.2-7.1,2.3-11.5,3.3c-1,0.3-1.6-0.1-1.7-0.9c0-1,0.5-1.6,1.5-1.9c3.2-0.6,6.7-1.5,10.6-2.7L86.8,37.4z M80.7,36.4l0.3-3.5
		c-0.1-1.9,1.1-2.8,3.8-2.9l27.1-1.6c2-0.1,2.9,0.7,2.6,2.3c-0.3,1.6-0.8,3-1.2,4.2c-0.5,1.1-1.3,1.6-2.5,1.5
		c-1.1-0.1-1.5-0.7-1.3-1.8c0-0.2,0.1-0.5,0.2-0.9c0.1-0.4,0.3-0.8,0.4-1.1c0.1-0.6,0-0.9-0.4-0.9l-24.2,1.5c-0.5,0-0.7,0.3-0.7,0.8
		l-0.2,2.2c-0.2,1.2-0.9,1.9-2.1,2C81.2,38.2,80.6,37.6,80.7,36.4z M96.3,18.4c-0.1-0.2-0.1-0.4-0.1-0.7c0.7-2.4,2.1-2.9,4.1-1.4
		c0,0.1,0,0.3,0.1,0.7c0.2,0.6,0.4,1,0.5,1.1l12-0.7c1.1,0,1.6,0.6,1.6,1.7c-0.1,1.2-0.6,1.8-1.6,1.9l-28.7,1.7
		c-1.2,0.1-1.7-0.5-1.6-1.7c0.2-1.1,0.9-1.7,2.1-1.9L96.3,18.4z M88.5,28.6c-2.4,0.3-3.4-0.2-3-1.7l0.1-1c-0.1-1.4,0.8-2.1,2.6-2.2
		l19.8-1.2c2-0.1,2.9,0.5,2.6,1.9l-0.1,1c0.1,1.5-0.9,2.2-2.8,2.1L88.5,28.6z M90.5,25.6c-0.4,0.1-0.6,0.3-0.6,0.5
		c-0.1,0.3,0.1,0.4,0.6,0.4l15-0.9c0.4,0,0.7-0.2,0.8-0.5c-0.1-0.3-0.3-0.4-0.7-0.4L90.5,25.6z M93.4,47c2.9,0.1,4.3-0.5,4.1-1.7
		C96.1,46,94.7,46.5,93.4,47z"/>
</g>
<g>
	<path class="st2" d="M120,19.5c0.1-1.8,0.9-2.7,2.5-2.8l5.1-0.3c2-0.1,2.8,0.8,2.6,2.6l-1.9,22.8c-0.1,2.1-1.1,3.2-2.9,3.3
		l-4.3,0.3c-2.3,0.1-3.2-0.9-2.8-3.1L120,19.5z M123.8,41.4c0.4,0,0.6-0.3,0.7-0.8l1.7-19.5c-0.1-0.4-0.2-0.6-0.5-0.7l-1.2,0.1
		c-0.4,0.1-0.6,0.4-0.7,0.8L122,40.7c-0.2,0.6,0,0.8,0.5,0.7L123.8,41.4z M132.7,35.1c-2,0.3-2.8-0.6-2.4-2.6l1.2-13.6
		c0-2.4,1-3.5,3.1-3.6l15.6-0.9c1.8-0.1,2.6,0.8,2.4,2.7l-1.2,14.3c-0.2,1.9-1.2,2.8-3.1,2.8l-5.6,0.3l-0.2,2.4l7.3-0.4
		c1.1,0,1.6,0.7,1.6,2c-0.2,1.3-0.9,2-1.9,2l-7.3,0.4l-0.2,2.5l8.6-0.5c1.8,1.1,1.7,2.3-0.3,3.7l-21.4,1.3c-1.2,0-1.7-0.6-1.6-1.8
		c0.1-1.1,0.7-1.7,1.9-1.9l8.6-0.5l0.2-2.5l-6.8,0.4c-1.1,0.1-1.6-0.5-1.6-1.8c0.2-1.3,0.9-2,2-2.2l6.8-0.4l0.2-2.4L132.7,35.1z
		 M134.8,30.3c-0.1,0.5,0,0.7,0.5,0.7l3.6-0.2l0.3-4L135,27L134.8,30.3z M139.5,22.9l0.3-4l-3.4,0.2c-0.5,0.1-0.8,0.4-0.8,0.8
		l-0.3,3.3L139.5,22.9z M143,30.5l3.4-0.2c0.4,0,0.7-0.3,0.8-0.8l0.3-3.3l-4.2,0.2L143,30.5z M147.9,22.4l0.3-3.3
		c-0.1-0.4-0.2-0.6-0.5-0.7l-3.6,0.2l-0.3,4L147.9,22.4z"/>
</g>
<g>
	<path class="st0" d="M157.8,25.3l3.7-0.2c1.4,0,2,0.9,2,2.7l-1,11.4c1.2,2.2,3.8,3.2,7.7,3.1l17.2-1c1.2-0.1,1.7,0.4,1.6,1.5
		c-0.1,1.2-0.7,1.8-1.9,1.9l-17.4,1c-3.2,0.1-5.9-0.8-8.3-2.7c-0.5-0.3-1-0.2-1.5,0.1c-0.2,0.2-0.5,0.5-0.8,0.9
		c-0.3,0.4-0.7,0.9-1,1.5c-1.2,1.1-2.1,1.4-2.9,1.1c-1.1-0.8-1.3-1.8-0.5-2.9c1.1-1.3,2.5-2.7,4.1-4.2l0.8-9.6
		c0-0.4-0.1-0.6-0.5-0.7l-1.6,0.1c-1.5,0.2-2.1-0.4-1.8-1.8C155.7,26.2,156.4,25.5,157.8,25.3z M163.1,21.1
		c-1.3,0.6-2.2,0.3-2.6-0.9c-0.3-0.5-0.7-1.2-1.3-2.1c-0.3-0.4-0.5-0.8-0.8-1.3c-0.6-1.3-0.2-2.3,1-2.9c1.1-0.5,2.1-0.2,2.9,0.7
		c0.1,0.3,0.2,0.6,0.4,0.9c0.8,1.1,1.3,2.1,1.5,2.9C164.5,19.6,164.1,20.5,163.1,21.1z M176.3,18.5l-4.9,0.3l-0.2,2.4l3.6-0.2
		c1.5,0,2.2,0.7,2.2,1.9c-0.1,0.8-0.1,1.5-0.2,2.1c-0.2,4.1-0.4,7.8-0.8,11.1c-0.7,3.1-2.7,4.4-6.1,3.9c-1.3,0-1.9-0.5-1.8-1.4
		c0.1-1.3,0.8-1.9,1.9-1.9c1.6,0.2,2.3-0.1,2.3-1c0-0.3,0.1-0.6,0.1-0.9c0.6-4.2,0.9-7.4,1-9.8c0-0.3-0.2-0.5-0.7-0.5l-1.8,0.1
		l-0.1,0.7c-0.7,5.3-1.7,9.6-3.2,12.8c-0.9,1.7-2,2.3-3.1,1.7c-1.2-0.3-1.2-1.5,0-3.4c1.4-3.1,2.3-7.2,2.8-12.2l0.4-5.2
		c-1.4,0.1-2.1-0.5-2.1-1.8c0.2-1.2,1-1.9,2.4-2.1l2.2-0.1c-0.1-0.6-0.3-1.1-0.3-1.5c-0.3-1.3,0-2.1,0.8-2.4
		c1.2-0.4,2.1-0.2,2.6,0.4c0.1,0.3,0.2,0.9,0.4,1.9c0.2,0.5,0.3,0.9,0.5,1.3l1.9-0.1c1.1,0,1.7,0.6,1.8,1.8
		C178,17.8,177.4,18.4,176.3,18.5z M184.9,12.5c-0.1,0.2-0.2,0.4-0.2,0.6c-0.1,0.2-0.2,0.4-0.2,0.5l6.1-0.4c1.1,0,1.6,0.7,1.6,2
		c-0.2,1.3-0.9,2-1.9,2l-7.4,0.4c-0.2,0.3-0.5,0.7-0.8,1.1c-0.3,0.4-0.6,0.7-0.7,0.9c0,0.1-0.1,0.2-0.2,0.2c-0.1,0.1-0.1,0.2,0,0.1
		l7-0.4c1.5,0,2.1,0.5,1.9,1.5c-0.1,1.1-1.5,2.7-4.1,5c0.3,0.8,0.7,1.4,1,2l3-0.2c0.9,0,1.3,0.6,1.2,1.7c-0.1,1.1-0.6,1.7-1.5,1.7
		l-2.1,0.1c0,0.6,0,1.2,0,1.9c-0.3,2.1-1,3.7-2,4.8c-2.2,1.7-4.8,2-7.6,0.8c-1-0.5-1.4-1.2-1-2.1c0.5-1.1,1.3-1.5,2.3-1.3
		c1.1,0.3,1.9,0.5,2.5,0.4c1,0.1,1.6-0.6,1.8-2.3c0.1-0.7,0.1-1.3,0.2-1.9l-5.2,0.3c-1.2,0.1-1.7-0.4-1.6-1.5
		c0.1-1.1,0.7-1.7,1.9-1.9l3.9-0.2l-0.1-0.1c-0.7-0.9-1-1.5-0.7-1.7c0-0.4,0.6-1.3,1.7-2.6c0.3-0.2,0.5-0.4,0.6-0.6l-3.7,0.2
		c-1.2,0-1.5-0.8-1-2.3c-1,0.4-1.7,0.2-2-0.6c-0.3-0.7-0.1-1.5,0.6-2.4c1.1-1.1,2.2-3.2,3.3-6.2c0.4-0.9,1.1-1.3,2.2-1.2
		C184.6,10.9,185,11.5,184.9,12.5z"/>
</g>
<g>
	<path class="st0" d="M213.8,18l6.8-0.4l0.6-6.5c0.1-1.4,1-2.1,2.6-2.2c1.5,0,2.2,0.7,2.2,2.1l-0.5,6.4l2.1-0.1
		c1.5,0,2.2,0.8,2.2,2.2c-0.3,1.5-1.2,2.3-2.6,2.4l-2.1,0.1l-0.8,9c0,2.6-1.3,3.8-3.9,3.8l-8.9,0.5c-2.9,0.6-4.1-0.6-3.5-3.5
		l0.8-8.9l-5.6,0.3l-1.3,14.9c-0.1,0.7,0.2,1,0.8,1l21.9-1.3c1.5,0,2.3,0.6,2.4,1.8c-0.1,1.6-0.9,2.5-2.4,2.6l-22.9,1.4
		c-3.5,0.4-5-1-4.5-4.1l1.4-16l-1.5,0.1c-1.6,0.1-2.4-0.5-2.5-1.9c0.2-1.5,1.1-2.4,2.7-2.7l1.6-0.1l0.5-6.2c0.1-1.3,0.9-2.1,2.4-2.4
		c1.6,0,2.4,0.6,2.4,1.9l-0.5,6.4l5.6-0.3l0.5-6.2c0.1-1.4,1-2.2,2.6-2.4c1.5,0,2.2,0.7,2.2,2.1L213.8,18z M213.2,31l5.6-0.3
		c0.3,0.1,0.5-0.2,0.7-0.8l0.7-7.7l-6.8,0.4l-0.7,7.7C212.6,30.8,212.7,31,213.2,31z"/>
</g>
<g>
	<path class="st0" d="M234.7,11.8c0.1-2,1.1-3,3.2-3.1L264.4,7c1.8-0.1,2.6,0.7,2.4,2.5l-0.9,10.8c-0.1,1.9-1,2.8-2.9,2.7l-6.1,0.4
		c1.7,1.8,4.8,3.5,9.3,5.2c1.1,1.1,1.1,2.3,0,3.7c-1,0.7-2.3,0.7-4.1-0.2c-1.2-0.3-2.3-0.9-3.5-1.8l-0.8,9.3
		c-0.2,1.3-1.1,2.1-2.6,2.4c-1.6-0.1-2.3-0.8-2.2-2.1l1-11.8c-1.1-0.6-1.8-1.2-1.9-1.8c-0.6-0.7-0.7-1.6-0.1-2.5l-3.9,0.2
		c0.2,0.9,0,1.7-0.8,2.4c-0.4,0.6-1,1.1-1.8,1.6l-0.4,4.9c-0.6,4.6-3.8,8-9.6,10c-1.5,0.4-2.4,0.2-2.8-0.6c-0.7-1.5-0.2-2.6,1.3-3.2
		c3.8-1.3,5.8-3.2,6.3-5.7l0.2-2.4c-5.7,3.6-8.9,4.4-9.5,2.5c-0.5-1.5,0.4-2.8,2.7-3.7c3.7-1.3,6.7-3.1,9.2-5.6l-6.7,0.4
		c-1.9,0.2-2.7-0.7-2.4-2.6L234.7,11.8z M238.9,20.2l8.9-0.5l0.1-1.6l-9.5,0.6l-0.1,1.2C238.2,20.1,238.4,20.2,238.9,20.2z
		 M238.8,13.6l-0.1,1.2l9.5-0.6l0.2-1.8l-8.9,0.5C239,13,238.8,13.2,238.8,13.6z M252.2,19.4l9.1-0.5c0.3,0,0.5-0.2,0.5-0.5l0.1-1.2
		l-9.5,0.6L252.2,19.4z M252.9,12.1l-0.2,1.8l9.5-0.6l0.1-1.2c0-0.4-0.1-0.6-0.4-0.6L252.9,12.1z"/>
</g>
<g>
	<path class="st0" d="M293.9,20.3l3.6,4l1.6-1.7c1.1-1.2,2.1-1.9,3.1-2c1.3,0.1,1.9,0.9,1.9,2.2c-0.1,0.9-0.9,2.1-2.4,3.7l-1.1,1.1
		l2.4,2.8c0.4,0.7,0.6,1.3,0.6,1.9c-0.3,1.4-1.3,2.2-2.9,2.4c-0.8-0.1-1.4-0.2-1.9-0.5l-2.4-2.5c-2.9,2.3-5.7,3.6-8.6,3.8
		c-6,0.3-8.9-2.2-8.7-7.3c0.3-3.3,2.4-6.1,6.5-8.6c-1.6-1.5-2.3-3.1-2.1-4.9c0.4-3.9,3.3-6.2,8.6-6.8c4.8,0.1,7.2,1.9,7.2,5.5
		C299,16,297.2,18.3,293.9,20.3z M293.3,28.2l-5-5.7c-2.4,1.7-3.6,3.3-3.7,4.8c-0.2,2.5,1,3.6,3.7,3.5
		C290.1,30.7,291.7,29.9,293.3,28.2z M294.1,14.2c0-1.3-0.8-2-2.3-2.1c-1.5,0.3-2.4,1-2.5,2.1c-0.3,0.8,0.3,1.8,1.8,3.1
		C292.9,16.4,293.9,15.3,294.1,14.2z"/>
</g>
<g>
	<path class="st2" d="M25.1,73.8c5.7-2.3,10.5-4.8,14.3-7.6c0.1,0,0.2-0.1,0.5-0.2c0.7-0.5,1.3-0.8,1.7-0.8l1.2-0.1
		c1,0,1.8,0.2,2.5,0.6c4.9,3.1,9.4,5.3,13.5,6.4c0.7,0.6,0.8,1.7,0.3,3.1c-0.3,0.6-0.9,0.9-1.7,1c-0.5,0-0.9-0.1-1.3-0.4l-0.5,6.4
		c-0.1,2-1.1,2.9-3.1,2.8L29,86.3c-2.1,0.1-3-0.7-2.9-2.6l0.5-6.1c-1.3,0.4-2.2,0-2.7-1C23.5,75.3,23.9,74.3,25.1,73.8z M29.1,99.6
		c-2.1,0-3-0.9-2.9-2.8l0.6-6.7c0-1.7,1.2-2.6,3.3-2.7l20.5-1.2c2-0.1,2.9,0.8,2.7,2.8l-0.6,6.7c-0.2,1.6-1.4,2.5-3.5,2.7L29.1,99.6
		z M30.4,82.7l3.7-0.2c-1.7-1.2-2.2-2.3-1.6-3.4l-1.8,0.1L30.4,82.7z M30.9,94.6l-0.1,1.2l17.7-1.1l0.1-1.2L30.9,94.6z M48.9,89.7
		l-17.7,1.1l-0.1,1.2l17.7-1.1L48.9,89.7z M31.2,75.6l21.1-1.3L49.6,73c-0.3,0.3-0.7,0.5-1.1,0.5l-14.9,0.9
		C33.2,74.6,32.3,75,31.2,75.6z M38.9,78.7l-3.1,0.2c1.6,1.5,2,2.6,1.2,3.5l1.6-0.1L38.9,78.7z M41.6,69.5c-1,0.7-1.9,1.3-3,1.8
		l7-0.4l-3-1.4C42.3,69.2,42,69.2,41.6,69.5z M43.2,78.4l-0.3,3.4l1.9-0.1c-0.4-0.6,0-1.7,1.5-3.5L43.2,78.4z M49.6,78
		c0.5,0.5,0,1.6-1.5,3.5l3.1-0.2l0.3-3.4L49.6,78z"/>
</g>
<g>
	<path class="st2" d="M63.4,92.1c-1.2,0.1-1.7-0.7-1.6-2.4L63,76c0.1-1.3,1-2,2.6-2.2l27.2-1.6c1.5-0.1,2.2,0.5,2.2,1.8l-1.2,13.8
		c0,1.9-1,2.8-3,2.7l-4.3,0.3c2.7,0.6,4.6,1.1,5.6,1.4c0.3,0.2,0.6,0.3,0.9,0.4c0.8,0.1,1.4,0.2,1.7,0.5c0.7,0.7,0.6,1.7-0.3,3
		c-0.7,0.8-2,0.9-3.9,0.2c-2.6-0.8-5-1.5-7.4-2.1c-1.7-0.5-2-1.5-0.8-3.2l-8.9,0.5c1,1,0.9,1.9-0.2,2.7c-3.6,1.8-7.5,3.3-11.6,4.5
		c-1.1,0.2-1.8-0.3-2.1-1.5c-0.1-1.3,0.4-2,1.5-2.3c3.6-0.8,6.6-1.9,8.9-3.2L63.4,92.1z M66.8,72.6c-2.4,0.4-3.3-0.4-2.7-2.5
		l0.3-3.4c-0.1-1.7,0.8-2.5,2.6-2.5l26.3-1.6c1.4-0.1,2,0.6,1.9,2.1l-0.3,3.7c-0.1,1.9-0.9,2.8-2.4,2.6L66.8,72.6z M89.7,86.8
		l0.1-1.3l-23.5,1.4l-0.1,1.3L89.7,86.8z M90.1,82.1l0.1-1.3l-23.5,1.4l-0.1,1.3L90.1,82.1z M67.1,77.6L67,78.7l23.5-1.4l0.1-1.2
		L67.1,77.6z M90.7,67.8l0.1-1.5l-22.4,1.3l-0.1,1.5L90.7,67.8z"/>
</g>
<g>
	<path class="st2" d="M105,68.2l0.4-5c0.1-1.1,0.8-1.7,2.1-1.9c1.4-0.1,2.1,0.4,2.1,1.3l-0.5,5.3l1.8-0.1c1.1,0,1.7,0.7,1.8,2
		c-0.2,1.5-0.9,2.3-2,2.3l-1.9,0.1l-0.4,4.7l0.6-0.3c1.2-0.6,2.1-0.2,2.7,1c0.4,1.3,0,2.3-1.1,3l-2.6,1.5l-0.9,10.2
		c0,1.9-1.3,2.8-3.9,2.9c-1.6,0-2.7-0.3-3.5-0.8c-0.6-0.5-0.8-1.4-0.4-2.6c0.3-0.9,1.1-1.2,2.6-1c0.8,0.2,1.2-0.1,1.3-0.8l0.5-5.6
		l-1.6,1c-1.2,0.6-2.1,0.3-2.7-0.9c-0.5-1.4-0.1-2.5,1-3.2l3.7-2l0.6-6.8l-2.8,0.2c-1.3,0.1-1.9-0.6-1.9-1.9
		c0.1-1.4,0.8-2.2,2.1-2.3L105,68.2z M114.3,75.5l1.3-0.1l1.7-9.1l-2.7,0.2c-1.6,0.1-2.4-0.6-2.3-2.1c0.2-1.4,1.1-2.2,2.7-2.4
		l16.5-1c1.9-0.1,2.6,0.8,2.3,2.8l-3.7,25.4l2.1-0.1c1.1,0,1.6,0.6,1.6,1.8c-0.2,1.4-0.9,2.2-2,2.3l-21.6,1.3
		c-1.2,0-1.7-0.7-1.6-2.1c0.1-1.2,0.8-1.9,1.9-2l1.9-0.1l2.2-10.6l-0.9,0.1c-1.2,0.1-1.7-0.6-1.6-2
		C112.5,76.4,113.1,75.6,114.3,75.5z M116.9,90l8.6-0.5l1.6-10.5l-8,0.5L116.9,90z M121.6,66l-1.7,9.1l7.9-0.5l1.2-8.3
		c-0.1-0.5-0.2-0.7-0.5-0.7L121.6,66z"/>
</g>
<g>
	<path class="st2" d="M143.1,65.9l0.4-5c0.1-1.1,0.8-1.7,2.1-1.9c1.4-0.1,2.1,0.4,2.1,1.3l-0.5,5.3l1.8-0.1c1.1,0,1.7,0.7,1.8,2
		c-0.2,1.5-0.9,2.3-2,2.3l-1.9,0.1l-0.4,4.7l0.6-0.3c1.2-0.6,2.1-0.2,2.7,1c0.4,1.3,0,2.3-1.1,3l-2.6,1.5l-0.9,10.2
		c0,1.9-1.3,2.8-3.9,2.9c-1.6,0-2.7-0.3-3.5-0.8c-0.6-0.5-0.8-1.4-0.4-2.6c0.3-0.9,1.1-1.2,2.6-1c0.8,0.2,1.2-0.1,1.3-0.8l0.5-5.6
		l-1.6,1c-1.2,0.6-2.1,0.3-2.7-0.9c-0.5-1.4-0.1-2.5,1-3.2l3.7-2l0.6-6.8l-2.8,0.2c-1.3,0.1-1.9-0.6-1.9-1.9
		c0.1-1.4,0.8-2.2,2.1-2.3L143.1,65.9z M152.4,73.2l1.3-0.1l1.7-9.1l-2.7,0.2c-1.6,0.1-2.4-0.6-2.3-2.1c0.2-1.4,1.1-2.2,2.7-2.4
		l16.5-1c1.9-0.1,2.6,0.8,2.3,2.8l-3.7,25.4l2.1-0.1c1.1,0,1.6,0.6,1.6,1.8c-0.2,1.4-0.9,2.2-2,2.3l-21.6,1.3
		c-1.2,0-1.7-0.7-1.6-2.1c0.1-1.2,0.8-1.9,1.9-2l1.9-0.1l2.2-10.6l-0.9,0.1c-1.2,0.1-1.7-0.6-1.6-2
		C150.5,74.1,151.2,73.3,152.4,73.2z M155,87.7l8.6-0.5l1.6-10.5l-8,0.5L155,87.7z M159.7,63.8l-1.7,9.1l7.9-0.5l1.2-8.3
		c-0.1-0.5-0.2-0.7-0.5-0.7L159.7,63.8z"/>
</g>
<g>
	<path class="st2" d="M198.8,72.3c-0.1,1.6-0.9,2.4-2.4,2.4l-1.3,0.1l-0.2,2.1l14-0.8c1,0,1.5,0.7,1.5,2c-0.2,1.4-0.8,2.1-1.8,2.2
		l-11.1,0.7c3.5,2.1,6.8,3.5,10,4.1c1.9,0.5,2.6,1.4,2.1,2.8c-0.5,1.4-1.6,2-3.3,1.8c-4-0.9-7.9-2.6-11.8-5l-0.4,4.9
		c-1.7,2.2-3.1,2.2-4.5,0.3l0.4-5.2c-4.8,3.1-9.1,5.3-13,6.4c-1.8,0.5-2.9,0.2-3.2-1c-0.3-1.4,0.2-2.3,1.6-2.7
		c5.4-1.7,9.3-3.6,11.7-5.7l-11.3,0.7c-1.1,0.1-1.6-0.6-1.6-2c0.2-1.3,0.9-2,2-2.2l14.3-0.9l0.2-2.1l-1.5,0.1
		c-1.4,0.2-2-0.5-1.7-2.1l1-11.7c0-1.7,0.8-2.6,2.3-2.6l1.5-0.1l0.1-1.5c0.1-1,0.9-1.6,2.4-1.8c1.4,0,2.1,0.5,2.1,1.5l-0.1,1.5
		l1.3-0.1c1.3,0,1.9,0.8,1.9,2.4L198.8,72.3z M178.1,61.6c0.2,0,0.4,0.1,0.6,0.3c0.1-0.3,0.4-0.9,0.9-1.7c1-1.7,1.7-2.8,1.9-3.2
		c0.9-1,1.8-1.3,2.9-0.9c0.6,0.5,0.7,1.2,0.2,2.3c-0.4,0.8-1.2,2.2-2.4,4.1c-0.5,0.7-0.7,1.2-0.9,1.4l1,0.7c0.3-0.4,0.8-1.2,1.4-2.3
		c0.2-0.4,0.5-0.8,0.8-1.2c0.7-1.3,1.6-1.7,2.6-1c0.8,0.4,0.8,1.4,0.1,2.8c-0.5,0.7-1,1.5-1.5,2.4c-2.1,3.4-3.5,5.6-4.3,6.7l2.5-0.3
		c-0.1-0.2-0.2-0.4-0.2-0.7c0-0.2,0-0.4,0.1-0.6c-0.2-0.8,0.2-1.3,1.2-1.7c0.7-0.3,1.2,0,1.5,1.1c0.1,1.4,0.2,2.7,0.4,3.9
		c0.1,1.2-0.3,1.9-1.2,2.1c-1,0.3-1.5,0-1.4-0.8c-0.9,0.2-2.2,0.4-3.9,0.7c-1.4,0.2-2.4,0.3-3.1,0.3c-1.7,0.4-2.4-0.2-2.2-1.8
		c0-1.1,0.5-1.7,1.5-1.9c0.2,0,0.5,0,1-0.1c0.2-0.3,0.6-0.9,1-1.8c0.6-0.9,1-1.6,1.4-2.1c-0.3-0.2-0.7-0.5-1.1-0.8
		c-1.2-1-2-1.8-2.5-2.4c-0.9-0.7-1-1.6-0.2-2.6C176.6,61.7,177.3,61.4,178.1,61.6z M195.5,68.4l-4.5,0.3l-0.2,2.5l4.5-0.3
		L195.5,68.4z M191.6,62.7l-0.2,2.5l4.5-0.3l0.2-2.5L191.6,62.7z M199.9,71.2l0.1,0c0.2-0.7,1.1-2.1,2.7-4.3c0.7-0.7,1-1.1,1-1.2
		c-2.1-1.4-3.1-2.1-2.9-2c-1.2-0.7-1.4-1.6-0.5-2.8c0.6-0.7,1.2-1,2-0.9c0.1-0.2,0.4-0.7,0.7-1.4c0.4-0.8,0.8-1.6,1.4-2.4
		c0.6-1,1.4-1.4,2.3-1.2c1.1,0.4,1.4,1.2,0.7,2.5c-0.4,0.8-0.9,1.8-1.6,2.9c-0.3,0.4-0.6,0.9-0.9,1.4l1.1,0.5
		c0.1-0.1,0.4-0.5,0.8-1.2c0.2-0.3,0.5-0.7,0.8-1.1c0.8-1.2,1.8-1.5,2.9-0.9c1,0.6,1,1.7-0.1,3.2c-0.8,0.9-1.9,2.4-3.3,4.3
		c-1.4,2-2.5,3.3-3.2,4.2l2.5-0.3c-0.2-0.5-0.2-0.9,0-1.2c-0.2-1,0.2-1.6,1.2-1.8c1-0.4,1.7,0,2.1,1c0.2,0.7,0.4,1.7,0.6,3.2
		c0.1,0.3,0.2,0.5,0.2,0.7c0.1,1.4-0.4,2.2-1.5,2.4c-1.3,0.5-2,0.2-2-0.9c-2.8,0.4-5.1,0.6-6.9,0.7c-1.2,0.2-1.7-0.2-1.5-1.1
		C198.6,72.1,199,71.3,199.9,71.2z"/>
</g>
<g>
	<path class="st0" d="M213.7,86.3c1.7-3.3,3.3-6.9,4.8-10.7c0.4-1.2,1.2-1.7,2.5-1.6c1.4,0.4,2,1.2,1.7,2.4
		c-1.8,4.7-3.6,8.7-5.3,11.9c-0.8,1.1-1.8,1.4-3.2,0.8C213.1,88.4,213,87.5,213.7,86.3z M219.2,71.7c-1.3-0.9-2.7-1.8-4-2.8
		c-0.8-0.4-1-1.2-0.5-2.3c0.8-1.2,1.7-1.8,2.7-1.6c1.8,0.8,3.5,2,5.2,3.7c0.5,1,0.3,1.9-0.7,2.8C220.8,72.3,219.9,72.4,219.2,71.7z
		 M220.9,62.4c-1.7-1.4-3.1-2.5-4.4-3.4c-0.9-0.6-1-1.6-0.4-2.8c0.9-1.1,1.9-1.5,2.9-1.1c1.1,0.6,2.7,1.8,4.7,3.5
		c0.6,0.8,0.5,1.8-0.3,3C222.6,62.8,221.7,63.1,220.9,62.4z M226.8,56.2c0.6,0,1.5-0.1,2.7-0.2c5.9-0.4,10.3-1,13.5-1.7
		c0.1,0,0.3,0,0.7,0c1.3-0.4,2.3-0.6,2.9-0.6c1.5,0,2.2,0.7,2.2,2.1c-0.3,1.2-1.2,2-2.7,2.4c-2.7,0.6-5.2,1-7.5,1.2l-0.3,3.7
		l9.5-0.6c1.1,0,1.6,0.7,1.6,2c-0.2,1.4-0.9,2.1-2,2.2l-9.5,0.6l-0.3,3.8l6.5-0.4c1.8-0.2,2.6,0.6,2.3,2.5l-0.9,10.5
		c-0.1,1.9-1,2.8-2.9,2.8l-16.8,1c-2.1,0.2-3-0.6-2.6-2.5l0.9-10.4c0.1-1.9,1.1-2.9,3.2-3l5.8-0.3l0.3-3.8l-9.5,0.6
		c-1.1,0.1-1.6-0.6-1.6-2c0.2-1.3,0.9-2,2-2.2l9.5-0.6l0.3-3.4c-1,0.2-2.3,0.3-3.9,0.5c-1.7,0.1-2.8,0.2-3.4,0.2
		c-1.4,0.1-2-0.5-1.9-1.8C224.8,57.3,225.5,56.4,226.8,56.2z M228.7,83.3l11.3-0.7c0.9,0.1,1.3-0.3,1.3-1.4l0.4-4.9
		c0.2-1.1-0.2-1.5-1.1-1.3l-11,0.7c-1.2,0-1.7,0.4-1.6,1.4l-0.4,5.2C227.5,83.1,227.8,83.5,228.7,83.3z"/>
</g>
<g>
	<path class="st0" d="M256.2,52.7c3-0.2,5.8-0.4,8.4-0.8c2.6-0.3,4.8-0.6,6.7-1c1-0.1,1.6,0.4,1.8,1.5c0.1,1.2-0.3,1.9-1.2,2.3
		c-1,0.3-2.3,0.5-3.8,0.7c-1.1,0.1-1.8,0.1-2.1,0.1l-0.1,1.5l6.2-0.4c1.7,1.3,1.6,2.6-0.3,3.8l-6.2,0.4l-0.1,1.2l4.5-0.3
		c2-0.1,2.9,0.7,2.6,2.3l-0.6,7.5c-0.3,2-1.1,3-2.5,3.1l-5.1,0.3l-0.1,1.2l5.6-0.3c0.9,0,1.3,0.8,1.1,2.1c-0.3,1.1-0.9,1.7-1.8,1.7
		l-5.4,0.3l-0.1,1.5c1.6,0,3.7-0.2,6.3-0.7c3.3-4.8,5.6-11.6,7.1-20.4l-2.1,0.1c-0.9,0.1-1.3-0.6-1.3-2c0.1-1.4,0.6-2.1,1.5-2.3
		l2.2-0.1c0.1-0.6,0.2-2,0.4-4.1c0.1-1,0.9-1.6,2.4-1.8c1.5,0,2.2,0.5,2.2,1.5c-0.2,2.3-0.3,3.6-0.4,4.1l3-0.2c2-0.1,2.9,1,2.7,3.2
		c-0.5,4.8-1,9.3-1.4,13.5c-0.4,4-0.8,6.6-1.1,7.9c-0.9,3.7-3.8,5-8.8,4.1c-1.4-0.5-1.8-1.5-1.1-2.9c0.7-1,1.9-1.3,3.6-1
		c1,0.2,1.7-0.3,2.1-1.7c0.3-1.6,0.7-4.2,1.1-7.7c0.4-3.5,0.8-7.1,1.2-11l-1.8,0.1c-1.4,10.3-4.6,18.5-9.8,24.7
		c-1.6,1.1-2.8,0.9-3.8-0.7c-2.2,0.2-4.7,0.5-7.5,0.9c-4.2,0.6-6.8,1-7.8,1.2c-1.2,0-1.8-0.6-1.9-1.6c0-1,0.6-1.6,1.8-1.7
		c0.4,0,1.2-0.1,2.4-0.1c1.6-0.2,3.1-0.4,4.5-0.7l0.2-1.8l-6.5,0.4c-0.9,0.1-1.3-0.6-1.2-1.8c0.2-1.2,0.8-1.9,1.7-2l6.4-0.4l0.1-1.2
		l-5.1,0.3c-1.6,0.2-2.3-0.6-2-2.4l0.7-7.7c0.1-1.9,1-2.9,2.9-3l4.6-0.3l0.1-1.2l-7.1,0.4c-1.2,0.1-1.7-0.5-1.6-1.8
		c0.1-1.2,0.8-1.9,1.9-2l7.1-0.4l0.1-1.2c-0.8,0-2.3,0.2-4.5,0.4c-1,0.1-1.5,0.1-1.6,0.1c-1.2,0.1-1.7-0.6-1.6-2
		C254.1,53.5,254.9,52.9,256.2,52.7z M257,72l3.3-0.2l0.1-1.3l-3.3,0.2L257,72z M260.8,65.6l-3.3,0.2l-0.1,1.5l3.3-0.2L260.8,65.6z
		 M264.7,70.3l-0.1,1.3l3.1-0.2l0.1-1.3L264.7,70.3z M265.2,65.4l-0.1,1.5l3.1-0.2l0.1-1.5L265.2,65.4z"/>
</g>
</svg>
