<?xml version="1.0" encoding="utf-8"?>
<!-- Generator: Adobe Illustrator 22.0.0, SVG Export Plug-In . SVG Version: 6.00 Build 0)  -->
<svg version="1.1" id="圖層_2" xmlns="http://www.w3.org/2000/svg" xmlns:xlink="http://www.w3.org/1999/xlink" x="0px" y="0px"
	 viewBox="0 0 1754 558.1" style="enable-background:new 0 0 1754 558.1;" xml:space="preserve">
<style type="text/css">
	.st0{fill:none;stroke:#4678B0;stroke-width:3;stroke-miterlimit:10;stroke-dasharray:10;}
	.st1{fill:#4678B0;}
</style>
<path class="st0" d="M1743.6,16.1c0,0-345.5,186-393.5,211.5c-45.5,24.2-723.2,2.5-794.4,0.2c-4.1-0.1-8.1,0.5-12,1.9
	c-31.5,11.6-165.6,74.2-221.4,136.7c-28.1,31.5-104.7-38-45.3-24C380.9,367,5,552.5,5,552.5"/>
<path class="st1" d="M458.6,268.6c-0.7-0.2-1.3-0.3-2-0.3c-3.8-0.1-7.3,0.9-10.5,2.6c-3.4,1.7-6.7,3.6-10.1,5.5
	c-0.6,0.3-1,0.3-1.7,0c-3.5-2.2-7.1-4.3-10.6-6.5c-0.3-0.1-0.5-0.3-0.9-0.5c0.5-0.3,0.8-0.5,1.1-0.8c0.5-0.4,0.8-1.1,0.5-1.6
	c-0.5-1-1.1-2.1-1.7-3.1c-0.4-0.7-1.1-0.9-1.9-0.4c-0.7,0.4-1.6,0.8-2.2,1.3c-1.3,1.1-2.3,0.8-3.7-0.1c-3.6-2.3-7.3-4.4-11-6.5
	c-0.3-0.1-0.6-0.3-0.9-0.2c-0.7,0.3-1.5,0.8-2.2,1.3c0.3,0.4,0.5,0.7,0.7,0.9c5.4,6.2,10.7,12.4,16.1,18.5c1.7,1.9,2.8,4,4.1,6.1
	c0,0.1,0.1,0.3,0.1,0.4c-0.2,0.1-0.2,0.2-0.4,0.3c-5.7,3.9-11.3,7.6-17,11.5c-0.5,0.3-0.8,0.2-1.2,0c-3.7-2.4-7.5-4.8-11.2-7.2
	c-0.3-0.1-0.7-0.3-1-0.2c-1,0.5-2.1,1.1-3,1.8c3.3,3.6,6.5,7.2,9.8,10.7c-2.1,2.2-4.4,4-6.1,6.4c0,0.1,0.1,0.2,0.1,0.3
	c2.8-0.7,5.7-1.3,8.6-2.1c1.3,4.7,2.6,9.4,4,14.2c1-0.7,1.8-1.2,2.6-1.6c0.7-0.3,0.9-0.8,0.9-1.6c-0.1-4.3-0.1-8.7-0.4-13
	c0-0.7,0.2-1,0.9-1.4c5.9-2.8,11.8-5.5,17.8-8.3c0.3-0.2,0.7-0.3,1.2-0.5c0.9,2.1,2,4.2,2.7,6.2c2.6,8.3,5.2,16.7,7.8,24.9
	c0.1,0.3,0.2,0.5,0.4,1.1c0.6-0.4,1.1-0.8,1.6-1.1c0.7-0.3,0.9-0.8,0.9-1.5c0.1-4.6,0.1-9.1,0.1-13.7c0-0.7,0.2-1,0.7-1.3
	c1.1-0.6,2.2-1.2,3.3-1.9c0.9-0.6,1-1.1,0.6-2c-0.2-0.7-0.5-1.2-0.9-1.9c-1.1-2.1-1.3-2.2-3.4-1.2l-0.1,0c0-0.1-0.1-0.4,0-0.4
	c0.3-4.7,0.7-9.5,1-14.2c0-0.3,0.2-0.8,0.6-1c2.6-1.6,5.4-3.3,8.1-5c3.1-2,5.9-4.2,8.1-7.2c0.6-0.9,1.1-1.9,1.5-2.9
	C460.8,270,460.2,269,458.6,268.6z"/>
</svg>
