<?xml version="1.0" encoding="utf-8"?>
<!-- Generator: Adobe Illustrator 22.0.0, SVG Export Plug-In . SVG Version: 6.00 Build 0)  -->
<svg version="1.1" id="圖層_1" xmlns="http://www.w3.org/2000/svg" xmlns:xlink="http://www.w3.org/1999/xlink" x="0px" y="0px"
	 viewBox="0 0 334 105" style="enable-background:new 0 0 334 105;" xml:space="preserve">
<style type="text/css">
	.st0{fill:#EB1353;}
	.st1{fill:#FFFFFF;}
	.st2{fill:#00307C;}
	.st3{fill-rule:evenodd;clip-rule:evenodd;fill:#EB1353;}
</style>
<g>
	<g>
		<g>
			<path class="st0" d="M7.4,58.2c-0.2-0.6,0-1.4,0.5-2.5c1-1.7,2-3.4,2.9-5.2c2.7-5.3,5.2-10.9,7.4-16.6c0.3-0.8,0.7-2.3,1.3-4.4
				c0.5-1.5,1-2.6,1.2-3.5c4.5-3.6,7.4-3.2,8.7,1c-0.1,1.5-1.4,5.1-3.7,10.8c-1.1,3-1.6,4.6-1.7,4.8l-4.3,50.6c-0.4,2.3-2,3.6-4.7,4
				c-2.7,0-4-1.2-3.8-3.5L14,60.3C10.5,63,8.3,62.3,7.4,58.2z M33.2,33.3c-2.1,0.1-3.1-1.2-3.1-3.9c0.4-2.5,1.7-3.9,3.8-4.3
				l46.2-2.8c2.3,0.1,3.4,1.3,3.4,3.8c-0.4,2.7-1.8,4.2-4.1,4.3l-19.2,1.2L60,34.2l11.6-0.7c2.7,0,4,1.5,4,4.4l-1.1,12.8l3.1-0.2
				c3.3-0.2,4.9,1.6,4.5,5.3l-0.3,3.4c-0.5,4-2.1,6-4.6,6.2c1.9,2.2,2.9,3.7,3.1,4.5c-0.4,4.2-2.6,5.6-6.6,4.4
				c-1.4-1.2-3.7-3.4-6.9-6.7c-0.2-0.2-0.3-0.4-0.3-0.6c-0.7,1.3-1.8,2.3-3.1,3c-1.8,1.1-4.3,1.7-7.6,1.7l-4.7,0.3
				c-0.9,0.7-1.7,1.3-2.4,2l20.1-1.2c1.7,0.1,2.6,1.2,2.8,3.2c-0.3,1.5-1.2,2.7-2.5,3.6c-2.7,2.4-5.7,4.6-9,6.4
				c2.7-0.2,6.9-0.4,12.6-0.8c2.5-0.2,4.1-0.2,4.7-0.3c3.1,2.7,2.8,5.1-0.9,7.2c-10.1,0.8-19.1,0.4-27.1-1.2
				c-2.8,1.2-6.2,2.1-10.2,2.8c-7,1.5-12.1,2.3-15.2,2.5c-1.4-0.3-2.1-1.7-2.1-4.2c0.4-2.1,1.4-3.2,3.1-3.3c1.5-0.3,3.2-0.5,5.1-0.6
				c5.3-0.5,8.9-0.8,11-1c-1.4-0.5-3.4-1.8-5.9-3.7c-4,2.5-7.2,4-9.7,4.3c-4.1-1-4.4-3.4-1-7.1c9-3.2,14.7-6.1,17-8.5
				c-1.2-0.8-1.7-2-1.6-3.6l0.8-9.1L34.1,60c-0.6,0.2-1,0.6-1,1l-0.2,2.8c3.1-1.6,5-0.9,5.8,2.1c-0.8,2.5-2.9,6-6.2,10.3
				c-1.6,1.5-3.3,2-5.1,1.2c-1.4-1.2-1.4-2.7-0.2-4.6c0.2-0.2,1-1.5,2.2-3.9c-3.2,0.6-4.7-0.1-4.5-2.2l0.6-6.9c0.3-4,2-6.1,4.9-6.5
				l2.2-0.1l1-11.6c-0.1-4.1,1.7-6.2,5.2-6.2L50,34.8l0.2-2.5L33.2,33.3z M40.9,52.8l25.1-1.5l0.2-2.2l-25.1,1.5L40.9,52.8z
				 M41.6,45.3l-0.2,2.2L66.5,46l0.2-2.2L41.6,45.3z M67,40.6l0.2-2.2L42,40l-0.2,2.2L67,40.6z M43.9,80.6c1.9,1.5,4.1,2.7,6.6,3.3
				c4.3-1.9,6.3-3.3,6-4.1L43.9,80.6z M48.1,64.2C48,64.8,48.3,65.1,49,65l5.3-0.3c-2.6-3.2-3.4-5.2-2.3-6.1l-3.5,0.2L48.1,64.2z
				 M58.1,64.5c0.6,0,1.5-0.6,2.6-1.7c0.9-1.1,1.7-1.7,2.3-1.7c0.8,0.2,1.6,0.3,2.5,0.5c0.3-1.3,1.3-2.1,3-2.7
				c1-0.1,2.4,0.5,3.9,1.6c0.2-0.2,0.4-0.5,0.4-1c0.1-1.7-0.1-2.4-0.8-2.1l-15.7,0.9c0.9,1.4,1.6,2.5,1.9,3.3
				c0.5,1.6-0.3,2.6-2.4,2.9L58.1,64.5z"/>
			<path class="st1" d="M15.3,103.3l-0.5,0c-4-0.1-6.2-1.7-7.5-3c-1.2-1.3-2.5-3.5-2.2-7l2.2-25.9c-2.1-0.8-4.8-2.8-5.9-7.8
				c-0.5-2-0.2-4.1,1-6.5l0.2-0.4l2.9-5c2.6-5,4.9-10.3,7-15.7c0.2-0.6,0.5-1.7,1.2-4.1l0.1-0.4c0.5-1.4,0.9-2.5,1.2-3.3l0.6-1.7
				l1.4-1.1c1.5-1.2,6.2-5,11.6-3.4c0.9,0.3,2,0.8,3,1.6c0.4-0.1,0.9-0.2,1.4-0.3l0.6-0.1L80,16.4l0.3,0c5.5,0.2,9.2,4.1,9.2,9.8
				l0,0.5l-0.1,0.5c-0.8,4.9-3.7,8.1-7.9,9.1c0.1,0.6,0.1,1.1,0.1,1.7l0,0.4l-0.6,6.4c2.1,0.5,3.5,1.6,4.4,2.5c2.1,2.2,3,5.2,2.7,9
				l-0.3,3.7c-0.4,2.9-1.2,5.1-2.3,6.7c0.4,0.8,0.6,1.5,0.7,2.2l0.1,0.8l-0.1,0.8c-0.4,4.9-2.7,7.4-4.5,8.7
				c-0.3,0.2-0.7,0.5-1.2,0.7l0.8,0.7c3.8,3.3,4.3,6.7,4.1,8.9c-0.2,2.2-1.5,5.5-6.1,8l-1.1,0.6l-1.3,0.1c-9.8,0.8-18.9,0.5-27-0.9
				c-2.8,1-6.1,1.9-9.7,2.5c-7.3,1.5-12.5,2.3-16,2.6l-0.9,0.1l-0.8-0.2c-0.4-0.1-1.2-0.3-2-0.8c-1.4,0.9-3.1,1.5-5,1.7L15.3,103.3z
				 M9.6,56L9.6,56L9.6,56z"/>
		</g>
		<g>
			<path class="st0" d="M88.1,85.7c2.6-3.1,5-6.5,7.5-10.4c1.6-2.2,3.8-2.8,6.4-1.9c1.8,1.3,1.9,3.3,0.4,5.9
				c-2.7,4.5-5.4,8.4-8.2,11.7c-2,2-4,2.2-6,0.7C86.5,89.8,86.5,87.9,88.1,85.7z M124.2,21.7c0.2-2.7,1.9-4.3,5.1-4.7
				c2.9,0,4.4,1.4,4.3,4.1l28-1.7c2.7,0,4,1.4,4,4.1c-0.5,2.9-2.1,4.5-4.8,4.6l-28,1.7l-0.2,2.5l20.1-1.2c4.8-0.5,6.9,1.8,6.3,6.8
				l-1,11.9c-0.5,3.6-1.9,5.3-4.2,5.2c3.5,3.1,5.8,5.2,7,6.4c1.3,1.6,1.3,3.5-0.2,5.6c-1.6,1.8-3.3,2.1-5.1,0.9
				c-0.4,0-1.2-0.5-2.4-1.7c-1.7,0.3-4,0.7-7,1c-6.1,0.8-10.9,1.2-14.5,1.2c0.7,1,1.9,2.5,3.4,4.5c0.4,0.4,0.7,0.7,0.9,0.9
				c0.9,1.8,0.3,3.5-1.7,5.1c-2,1.4-3.8,1.4-5.3,0c-1.6-1.4-3-3-4.3-5c-0.9-1.6-0.7-3.2,0.7-4.7l-33.6,2.3c-2.7,0.2-4.2-1.1-4.4-3.8
				c0.5-2.9,2.1-4.6,4.8-5l28.6-1.7l0.2-2.8l-21,1.3c-4,0.4-5.7-1.6-5.1-6.2l1-12.2c0.4-4.4,2.4-6.7,6.2-6.9l21-1.3l0.2-2.5
				l-28.9,1.7c-2.5,0.2-3.6-1.2-3.4-4.1c0.2-2.7,1.6-4.2,4.1-4.6L124.2,21.7z M121.7,50.7l0.2-2.2L104,49.6l-0.1,1.2
				c-0.1,0.6,0.2,0.9,0.9,0.9L121.7,50.7z M122.5,42.3l0.2-2.2l-17,1c-0.6,0-1,0.4-1,1l-0.1,1.2L122.5,42.3z M116.8,89.9
				c-7.4,0.6-10.5-1.7-9.4-6.9l0.7-7.8c0.2-2.5,1.8-3.9,4.7-4.3c2.9,0,4.4,1.3,4.4,3.8l-0.5,5.6c-0.1,1,0.6,1.5,2.1,1.4l17.3-1
				c1,0.4,1.7-0.2,2-1.7c0-0.2,0-0.5,0.1-0.9c0.3-1.5,0.8-2.5,1.5-3.2c1.1-0.9,2.2-1.4,3.2-1.4c3.1-0.2,4.6,1.5,4.3,5
				c-0.2,6.8-4.1,10.3-11.8,10.3L116.8,89.9z M130.5,57.7l-0.2,2.8c1.7,0.1,4.2,0,7.5-0.5c3.2-0.4,5.7-0.7,7.6-0.8l-2-2.4
				L130.5,57.7z M149.5,48.1l0.1-1.2L131.4,48l-0.2,2.2l17.3-1C149.1,49.1,149.4,48.8,149.5,48.1z M150.1,40.6l0.1-1.2
				c0.1-0.6-0.2-0.9-0.9-0.9l-17.3,1l-0.2,2.2L150.1,40.6z M153,83.7c-0.5-1-1.4-2.2-2.5-3.6c-1.3-2.4-2.2-4.3-2.9-5.7
				c-1.5-2.2-1-4.2,1.5-6c2.6-1.2,4.6-0.7,6.1,1.5c0,0.2,0.1,0.4,0.3,0.6c2,3.6,3.5,6.5,4.6,8.7c0.9,1.8,0.2,3.5-2,5.1
				C155.7,85.7,154.1,85.5,153,83.7z"/>
			<path class="st1" d="M90.8,98.6c-2.2,0-4.3-0.8-6.3-2.3L84,95.8c-3.8-3.9-4.1-9.2-0.6-13.7l0.2-0.2c1.3-1.6,2.6-3.3,3.9-5.1
				c-3.4-1.3-5.6-4.4-5.9-8.6l0-0.7l0.1-0.7c0.7-4.6,3.5-8,7.5-9.4c-0.3-1.4-0.3-3-0.1-4.7l1-12.1c0.1-1.1,0.3-2.1,0.5-3.1
				c-1.3-0.5-2.2-1.2-2.9-1.9c-1.3-1.4-2.8-3.9-2.5-8.1c0.5-5.5,3.9-9.3,9.3-10l0.5,0l25-1.5c1.8-2.6,4.7-4.4,8.6-4.9L129,11l0.4,0
				c3.6,0,6.6,1.5,8.3,3.8l23.8-1.4l0.2,0c6,0.1,10,4.2,9.9,10.2l0,0.4l-0.1,0.4c-0.7,4.4-3.1,7.5-6.6,8.9c0.3,1.5,0.4,3.3,0.1,5.2
				l-1,12.1c-0.2,1.7-0.7,3.2-1.2,4.4c1,0.9,1.7,1.7,2.3,2.2l0.3,0.4c3,3.6,3.1,8.4,0.2,12.8l-0.3,0.4l-0.3,0.3
				c-0.5,0.6-1.1,1.1-1.7,1.6c0.8,1.5,1.4,2.8,2,4c1.7,3.5,1.6,8.6-3.9,12.6l-0.3,0.2c-2.6,1.6-5.2,2.2-7.7,1.6
				c-1.1-0.3-2.5-0.8-3.8-2c-3,3.7-7.8,5.7-14.1,5.8l-18.3,1.1c-6.3,0.5-10.7-0.7-13.4-3.8c-0.5-0.5-0.9-1.2-1.3-1.9
				c-1.2,1.7-2.4,3.2-3.7,4.7l-0.4,0.4C96.1,97.5,93.5,98.6,90.8,98.6z M154.5,81.8C154.5,81.8,154.5,81.8,154.5,81.8
				C154.5,81.8,154.5,81.8,154.5,81.8z M100.5,78.8L100.5,78.8L100.5,78.8z M92.9,68.7L92.9,68.7L92.9,68.7z M150.1,40.6L150.1,40.6
				L150.1,40.6z M124.2,21.7L124.2,21.7L124.2,21.7z"/>
		</g>
		<g>
			<path class="st0" d="M171.1,33.2c-0.1-1.4,0.2-2.5,0.9-3.2c0.2-0.4,1-0.8,2.3-1.1l5.3-0.3l0.9-10.6c0.2-2.3,1.8-3.7,4.7-4.3
				c2.3,0.1,3.4,1.2,3.4,3.5l-0.9,10.9l3.1-0.2c0.6,0,1.1,0.1,1.5,0.5c1.3-2.8,2.8-5.2,4.7-7.4c2-3.9,4-6.2,5.9-7.2
				c3.2-1.4,5.1-0.5,5.7,2.8c-0.3,1.1-1.2,2.6-2.6,4.5c-0.7,0.7-1,1.1-1,1.3c-0.7,0.9-1.3,1.6-1.8,2.3c-1.8,2-3,3.6-3.5,4.9
				c0,0.2,0.2,0.3,0.6,0.3l2.5-0.2l5.5-5.3c1.3-1.1,2.7-1,4,0.4l0.8-9.1c-0.1-1.2,0.3-2.1,1.2-2.6c0.5-0.7,1.5-1,3.2-1.1
				c1.3-0.1,2.3,0.2,3.1,0.7c0.8,0.8,1.1,1.8,1,3l-1.2,14.4c0.8-2.1,2.8-5.1,6.1-9.1c0.9-1.1,1.6-2,2.1-2.6c1.4-2,2.7-3.6,3.9-4.9
				c0.7-0.7,1.6-1.1,2.6-1.4c2.7,0.3,4.1,1.3,4.1,3.2c0,0.4-0.4,1.1-1.1,1.9l0,0.3c-0.5,0.4-0.8,0.9-1,1.3c-0.5,0.7-0.8,1.1-1,1.3
				c-3.2,3.3-5.3,5.9-6.3,7.8l0.3,0.6l3.5-0.2c0-0.2,0.3-0.5,0.7-1c1.4-1.7,2.7-3.1,3.8-4c0.7-0.9,1.7-1.4,3-1.7
				c2.3,0.3,3.5,1.2,3.8,2.9c-0.3,1.5-1,2.9-1.9,4.2l-11.9,11.6l0.3,0.6l5.7-0.7c-0.2,0-0.3-0.2-0.3-0.6c-0.2-0.6-0.2-1.4-0.1-2.5
				c0.1-1,1-1.7,2.7-2c1.4,0.1,2.7,1.5,3.7,4.1c0.4,2.3,0.7,4.1,0.8,5.5c-0.3,1.1-0.9,1.8-1.8,2.3c-1.7,0.7-2.8,0.8-3.1,0.2
				c-0.4-0.2-0.8-0.7-1.1-1.5c0-0.2,0-0.4,0.1-0.6l-2.9,0.5c-0.1,0.6,0,1.2,0.2,1.9c0.2,0.6,0.3,1.1,0.5,1.5c0,0.4-0.2,0.9-0.4,1.6
				l4.7-0.3c1.7,0.1,2.5,1.3,2.5,3.6c-0.2,2.3-1.1,3.5-2.8,3.6l-17.9,1.1c0.4,2.5,1.2,4.9,2.5,7.3c0.7-0.5,1.6-1.3,2.7-2.7
				c2.1-2.6,4.1-4,6-4.1c1,0.1,2,0.7,3,1.7c0.3,0.8,0.6,1.7,0.7,2.8c-0.3,1.1-0.8,2-1.5,2.9c-2.3,2.4-4.6,4.5-6.8,6.3
				c0,0.2,0.3,0.5,0.9,0.9c0.9,1.2,1.8,1.7,2.7,1.4c0.8-0.1,1.6-1.2,2.2-3.6c0-0.4,0.2-0.7,0.4-1c0.3-1.3,0.8-2.4,1.6-3.5
				c0.2-0.4,1.1-0.7,2.6-0.8c2.3,0.3,3.4,1.1,3.5,2.6c-0.5,2.9-1.2,5.7-2.3,8.2c-2,4.3-4.2,6.6-6.5,6.9l-1.3,0.1l-0.3,0
				c-2.7-0.5-5.2-1.6-7.5-3.3c-1.6-1.2-2.8-2.3-3.8-3.5c-6.8,3.7-12.6,6.2-17.5,7.6l-0.3,0l-1.3,0.1c-2.3-0.3-3.4-1.7-3.4-4.1
				c0.2-2.1,1.6-3.3,4.4-3.7c1.5-0.7,3.2-1.3,5.2-1.9c4.1-1.3,7.1-2.7,9.1-4.3c-1.3-2.2-2.5-5.8-3.8-10.7c0-0.4,0.1-0.8,0.1-1.2
				l-10.1,0.6c-0.5,0.9-0.8,1.7-0.8,2.5c2.6,1.1,4.9,2.8,6.7,5.2c1,2.6-0.2,4.5-3.6,5.5c-1.3,0.3-2.7-0.6-4.2-2.5
				c-0.6-0.8-0.9-1.4-1.1-1.8c-0.3,1.1-1.5,3.9-3.5,8.6c-0.2,0.4-0.5,0.6-0.7,0.7c-2,4.3-4.2,6.5-6.5,6.6c-1.2-0.1-2.3-0.5-3-1.1
				c-1-0.8-1-1.9,0-3.4c0.3-0.6,0.5-1.2,0.8-1.6c1.7-2.6,2.9-4.7,3.7-6.4c1.4-3.8,2.5-7,3.3-9.5c0.3-0.8,0.6-1.6,0.8-2.2l-4.1,0.2
				c-1.5,0.1-2.1-0.8-2-2.7l0.1-1.2c0.1-1.7,1.3-2.7,3.4-3l4.1-0.2c0.4-1.9,1.8-3,4.4-3.4c2.5,0.1,3.8,1,3.8,2.9l8.2-0.5
				c-0.3-1.4-0.4-3-0.2-4.7l-0.1,0.6c-3.3,1.6-5,1.4-5.3-0.6c-1.5,0.5-3.5,0.9-6,1.3c-2.7,0.4-4.7,0.7-6,1c-0.6,1.9-2,3-4.4,3.4
				c-1.1,0.1-2-0.6-3-2l0-0.3c-0.8-0.8-1.2-1.7-1.3-2.7l-2.9,33.7c-0.3,1.5-0.9,2.7-1.6,3.8c-1.1,0.7-2.2,1.1-3.2,1.1
				c-1.5,0.1-2.4-0.1-2.8-0.5c-0.5-1-0.8-2-0.7-3.1l2-23.8c-1.8,4.5-3.8,6.7-5.9,6.6c-2.7,0-4-1.2-3.8-3.5c0.1-1,0.9-2.8,2.3-5.4
				c0.2-0.4,0.5-0.9,0.7-1.3c3.2-6.2,5.7-12.7,7.3-19.4l-3.1,0.2C172,37.1,170.8,35.9,171.1,33.2z M187.4,36.2
				c-0.5,0.9-0.3,1.7,0.7,2.4c0.4,0.4,0.7,0.7,0.9,0.9c0.5,1,1.5,2.2,2.8,3.6c1.9-2.6,4.1-5.1,6.6-7.5l-3.5,0.2
				c-1,0.1-1.9-0.1-2.5-0.5c-0.7,0.5-1.3,0.7-1.9,0.7L187.4,36.2z M204.8,40.1c0.1-1.3,1.1-2,3-2.4c0.8,0,1.5,0.3,2.1,1.1
				c0.9,1.6,1.6,3.4,2,5.5c-0.1-0.8-0.2-2.3-0.3-4.3c-0.1-3.5,0-6.2,0.4-8.1l0.2-2.5c-0.7,0.9-1.6,2-2.8,3.3c-0.5,0.4-0.8,0.9-1,1.3
				c-3.9,3.8-6.6,6.7-8.3,8.9l0.3,0.6l5.1-0.6C204.8,41.5,204.6,40.6,204.8,40.1z M220.4,44.8c0.1-1.5,1.3-3.5,3.7-6.1
				c1.4-1.3,2.3-2.4,2.8-3.3l-3.5,0.2c-0.8,0.1-1.7-0.1-2.5-0.5c-0.2,0-0.4-0.3-0.5-0.9c-0.2-0.4-0.3-0.7-0.2-0.9
				c-0.3,6.2-0.2,12.4,0.3,18.6l7.9-0.5c-1-1-1.3-2.5-1.2-4.6l-4.4,0.3C221,47.3,220.2,46.5,220.4,44.8z"/>
			<path class="st1" d="M177.6,93.2c-2,0-4.4-0.4-6.3-2.3l-0.6-0.6l-0.4-0.8c-1.1-2-1.6-4.2-1.4-6.4l0.9-10.7
				c-3.3-0.3-5.2-1.8-6.3-3c-1.2-1.3-2.5-3.5-2.2-7c0.2-2,1.1-4.4,3.1-7.9l0.7-1.2c1.9-3.6,3.5-7.4,4.8-11.2c-1-0.5-1.8-1.1-2.3-1.7
				c-1.3-1.3-2.7-3.6-2.5-7.3c-0.1-3.3,1.1-5.5,2.2-6.9c1.6-2,3.9-2.7,5.6-3.1l0.5-0.1l0.6,0l0.5-5.5c0.2-2.4,1.5-8.1,9.5-9.7
				l0.7-0.1l0.7,0c4.4,0.1,7.7,2.6,8.8,6.4c1.9-2.7,3.9-4.6,6.2-5.7l0.2-0.1c4.3-1.9,7.4-1.1,9.2-0.1c0.2,0.1,0.4,0.2,0.6,0.4
				c0,0,0,0,0,0c1.6-1.5,3.9-2.3,6.8-2.5c3.3-0.2,5.6,0.9,7,1.9l0.4,0.3l0.4,0.4c0.7,0.8,1.3,1.6,1.8,2.5c0.4-0.5,0.8-1,1.2-1.5
				l0.3-0.3c1.4-1.4,3.2-2.4,5.3-2.9l1-0.3l1,0.1c6.9,0.7,9.4,5.1,9.5,9l0,0.3l0,0.3c0,0.3-0.1,0.6-0.1,0.9c3,1.3,5,3.7,5.5,6.9
				l0.2,1.2l-0.3,1.2c-0.5,2.3-1.5,4.4-2.9,6.3l-0.3,0.4l-0.8,0.8c0.7,1,1.3,2.2,1.9,3.6l0.2,0.5l0.1,0.5c0.5,2.5,0.8,4.6,0.9,6.3
				l0.1,1l-0.3,1c-0.4,1.3-1,2.5-1.8,3.5c0.4,1.1,0.6,2.4,0.6,3.9l0,0.3l0,0.3c-0.3,3.8-2,6.2-4.1,7.6c2.5,1.7,3.6,4.2,3.8,6.5
				l0,0.6l-0.1,0.6c-0.5,3.4-1.4,6.6-2.6,9.6l-0.1,0.3c-1.1,2.3-4.4,9.3-11.1,10.3l-0.5,0.1l-2.3,0.1l-0.7-0.1
				c-3.6-0.6-7-2.1-10.1-4.4c-0.4-0.3-0.9-0.7-1.3-1c-5.6,2.8-10.5,4.8-14.9,6l-0.6,0.2l-2.7,0.2l-0.5-0.1c-2.2-0.3-4.1-1.1-5.6-2.5
				c-1.5,1.1-3.3,1.9-5.5,2l-0.5,0l-0.5-0.1c-0.8-0.1-1.5-0.2-2.2-0.4l-0.1,0.2l-1.1,0.7c-2,1.2-4,1.9-6,2
				C178.3,93.1,177.9,93.2,177.6,93.2z M184.3,43.5l-0.4,4.4l4-0.1l-0.5-0.5C186.2,45.9,185.1,44.7,184.3,43.5z M213,44.3l0.1,0.3
				l0-0.3L213,44.3z M242,37.9l-0.7,0.7l0.9-0.2C242.1,38.3,242.1,38.1,242,37.9z"/>
		</g>
		<g>
			<path class="st0" d="M250.6,74.7c0.9-0.5,2.7-1.7,5.6-3.8c4.2-3.2,6.7-5,7.3-5.4c2.4-1.2,4.3-0.9,5.9,0.9c1.1,2.2,0.6,4.2-1.4,6
				c-3.3,2.1-7.8,5.1-13.6,9.2c-2.8,1.4-4.9,1.1-6.2-0.9C247.4,78.3,248.2,76.3,250.6,74.7z M281.2,71.3l0.8-9.1l-30.5,1.8
				c-2.1,0.1-3.1-1.2-3.1-3.9c0.4-2.7,1.8-4.3,4.1-4.6l67.2-4c4,2.5,3.8,5.3-0.4,8.4l-28.3,1.7L290,74.2c-0.5,6-6.1,8.2-16.8,6.6
				c-2.5-0.5-3.7-1.9-3.7-4.1c0.4-2.3,1.8-3.6,4.1-4c0.4,0,1.1,0,2.2,0.2C279.3,72.9,281.1,72.4,281.2,71.3z M255.6,20
				c-2.1,0.1-3-1.2-2.8-3.9c0.2-2.7,1.4-4.2,3.5-4.6l67.2-4c1.9,0.1,2.8,1.5,2.8,4.2c-0.4,2.7-1.6,4.1-3.5,4.3l-19.5,1.2l-0.3,3.4
				l12.9-0.8c3.3-0.2,4.9,1.1,4.7,3.8l-0.9,10.6c-0.5,3.1-2.3,4.8-5.4,5L260,42.4c-3.8,0.4-5.4-0.9-5-4.1l0.9-10
				c0.1-3.3,1.8-5.1,5.1-5.3l13.8-0.8l0.3-3.4L255.6,20z M257.9,52.2c-1.9,0.1-2.7-1-2.5-3.3c0.4-2.3,1.6-3.6,3.5-3.9l56.2-3.4
				c3.6,2.3,3.4,4.7-0.6,7.2L257.9,52.2z M264.1,30.4l-0.3,4.1l10.1-0.6l0.3-4.1L264.1,30.4z M282.6,33l10.1-0.6l0.3-3.8L283,29.2
				L282.6,33z M283.6,21.7l10.1-0.6l0.3-3.4l-10.1,0.6L283.6,21.7z M311.4,77c-8-3.7-12.4-5.9-13.2-6.7c-1.7-1.6-1.9-3.4-0.5-5.6
				c1.4-2,3.4-2.7,5.8-2.2c5.6,2.4,10,4.6,13.2,6.7c2.4,1.3,2.9,3.1,1.4,5.5C316.3,77.1,314,77.8,311.4,77z M302.1,31.8l9.4-0.6
				l0.3-3.8l-9.4,0.6L302.1,31.8z"/>
			<path class="st1" d="M251.3,88.5c-3.7,0-6.5-2-8.1-4.5l-0.4-0.6l-0.2-0.7c-1.7-5.1,0.1-9.9,4.8-13l0.4-0.3
				c-1.1-0.5-1.9-1.1-2.5-1.6c-1.9-1.8-2.9-4.4-2.8-7.6l0-0.5l0.1-0.4c0.7-4.4,3.2-7.6,6.8-9c0-0.6,0-1.2,0-1.9l0.1-0.5
				c0.2-1.2,0.6-2.3,1-3.3c-1-1.5-1.9-3.8-1.4-6.9l0.8-9.7c0-1.3,0.2-2.4,0.6-3.5c-0.4-0.3-0.8-0.6-1.2-1c-1.9-1.9-2.7-4.6-2.4-7.9
				c0.5-5.5,3.7-9.2,8.6-10l0.6-0.1l67.6-4.1l0.3,0c3.9,0.2,8.5,3,8.5,10.2l0,0.5l-0.1,0.5c-0.8,5.1-3.5,7.4-5.8,8.5
				c0.2,0.9,0.2,1.8,0.1,2.9l-1,11c-0.4,2.6-1.4,4.7-2.9,6.4c0.6,1.3,0.7,2.5,0.7,3.5c0,0.6-0.1,1.2-0.2,1.8c4.2,2.8,5.2,6,5.3,8.3
				c0.2,3.6-1.8,6.9-5.7,9.8l-1,0.8c1.6,1.5,2.4,3.1,2.7,4.4c0.5,1.8,0.6,4.6-1.4,7.9l-0.4,0.6c-3.4,4.4-8.3,5.9-13.4,4.3l-0.6-0.2
				c-7.7-3.5-11.2-5.3-13-6.4c-0.6,3.3-2.1,6-4.6,7.9c-4.1,3.2-10.3,4.1-18.9,2.8l-0.2,0c-3.4-0.6-5.9-2.4-7.3-5
				c-2.1,1.4-4.4,3-6.9,4.8l-0.4,0.3l-0.4,0.2C255,88.1,253,88.5,251.3,88.5z M281.2,71.3L281.2,71.3L281.2,71.3z"/>
		</g>
	</g>
</g>
<g>
	<g>
		<g>
			<path class="st2" d="M7.4,58.2c-0.2-0.6,0-1.4,0.5-2.5c1-1.7,2-3.4,2.9-5.2c2.7-5.3,5.2-10.9,7.4-16.6c0.3-0.8,0.7-2.3,1.3-4.4
				c0.5-1.5,1-2.6,1.2-3.5c4.5-3.6,7.4-3.2,8.7,1c-0.1,1.5-1.4,5.1-3.7,10.8c-1.1,3-1.6,4.6-1.7,4.8l-4.3,50.6c-0.4,2.3-2,3.6-4.7,4
				c-2.7,0-4-1.2-3.8-3.5L14,60.3C10.5,63,8.3,62.3,7.4,58.2z M33.2,33.3c-2.1,0.1-3.1-1.2-3.1-3.9c0.4-2.5,1.7-3.9,3.8-4.3
				l46.2-2.8c2.3,0.1,3.4,1.3,3.4,3.8c-0.4,2.7-1.8,4.2-4.1,4.3l-19.2,1.2L60,34.2l11.6-0.7c2.7,0,4,1.5,4,4.4l-1.1,12.8l3.1-0.2
				c3.3-0.2,4.9,1.6,4.5,5.3l-0.3,3.4c-0.5,4-2.1,6-4.6,6.2c1.9,2.2,2.9,3.7,3.1,4.5c-0.4,4.2-2.6,5.6-6.6,4.4
				c-1.4-1.2-3.7-3.4-6.9-6.7c-0.2-0.2-0.3-0.4-0.3-0.6c-0.7,1.3-1.8,2.3-3.1,3c-1.8,1.1-4.3,1.7-7.6,1.7l-4.7,0.3
				c-0.9,0.7-1.7,1.3-2.4,2l20.1-1.2c1.7,0.1,2.6,1.2,2.8,3.2c-0.3,1.5-1.2,2.7-2.5,3.6c-2.7,2.4-5.7,4.6-9,6.4
				c2.7-0.2,6.9-0.4,12.6-0.8c2.5-0.2,4.1-0.2,4.7-0.3c3.1,2.7,2.8,5.1-0.9,7.2c-10.1,0.8-19.1,0.4-27.1-1.2
				c-2.8,1.2-6.2,2.1-10.2,2.8c-7,1.5-12.1,2.3-15.2,2.5c-1.4-0.3-2.1-1.7-2.1-4.2c0.4-2.1,1.4-3.2,3.1-3.3c1.5-0.3,3.2-0.5,5.1-0.6
				c5.3-0.5,8.9-0.8,11-1c-1.4-0.5-3.4-1.8-5.9-3.7c-4,2.5-7.2,4-9.7,4.3c-4.1-1-4.4-3.4-1-7.1c9-3.2,14.7-6.1,17-8.5
				c-1.2-0.8-1.7-2-1.6-3.6l0.8-9.1L34.1,60c-0.6,0.2-1,0.6-1,1l-0.2,2.8c3.1-1.6,5-0.9,5.8,2.1c-0.8,2.5-2.9,6-6.2,10.3
				c-1.6,1.5-3.3,2-5.1,1.2c-1.4-1.2-1.4-2.7-0.2-4.6c0.2-0.2,1-1.5,2.2-3.9c-3.2,0.6-4.7-0.1-4.5-2.2l0.6-6.9c0.3-4,2-6.1,4.9-6.5
				l2.2-0.1l1-11.6c-0.1-4.1,1.7-6.2,5.2-6.2L50,34.8l0.2-2.5L33.2,33.3z M40.9,52.8l25.1-1.5l0.2-2.2l-25.1,1.5L40.9,52.8z
				 M41.6,45.3l-0.2,2.2L66.5,46l0.2-2.2L41.6,45.3z M67,40.6l0.2-2.2L42,40l-0.2,2.2L67,40.6z M43.9,80.6c1.9,1.5,4.1,2.7,6.6,3.3
				c4.3-1.9,6.3-3.3,6-4.1L43.9,80.6z M48.1,64.2C48,64.8,48.3,65.1,49,65l5.3-0.3c-2.6-3.2-3.4-5.2-2.3-6.1l-3.5,0.2L48.1,64.2z
				 M58.1,64.5c0.6,0,1.5-0.6,2.6-1.7c0.9-1.1,1.7-1.7,2.3-1.7c0.8,0.2,1.6,0.3,2.5,0.5c0.3-1.3,1.3-2.1,3-2.7
				c1-0.1,2.4,0.5,3.9,1.6c0.2-0.2,0.4-0.5,0.4-1c0.1-1.7-0.1-2.4-0.8-2.1l-15.7,0.9c0.9,1.4,1.6,2.5,1.9,3.3
				c0.5,1.6-0.3,2.6-2.4,2.9L58.1,64.5z"/>
		</g>
		<g>
			<path class="st2" d="M88.1,85.7c2.6-3.1,5-6.5,7.5-10.4c1.6-2.2,3.8-2.8,6.4-1.9c1.8,1.3,1.9,3.3,0.4,5.9
				c-2.7,4.5-5.4,8.4-8.2,11.7c-2,2-4,2.2-6,0.7C86.5,89.8,86.5,87.9,88.1,85.7z M124.2,21.7c0.2-2.7,1.9-4.3,5.1-4.7
				c2.9,0,4.4,1.4,4.3,4.1l28-1.7c2.7,0,4,1.4,4,4.1c-0.5,2.9-2.1,4.5-4.8,4.6l-28,1.7l-0.2,2.5l20.1-1.2c4.8-0.5,6.9,1.8,6.3,6.8
				l-1,11.9c-0.5,3.6-1.9,5.3-4.2,5.2c3.5,3.1,5.8,5.2,7,6.4c1.3,1.6,1.3,3.5-0.2,5.6c-1.6,1.8-3.3,2.1-5.1,0.9
				c-0.4,0-1.2-0.5-2.4-1.7c-1.7,0.3-4,0.7-7,1c-6.1,0.8-10.9,1.2-14.5,1.2c0.7,1,1.9,2.5,3.4,4.5c0.4,0.4,0.7,0.7,0.9,0.9
				c0.9,1.8,0.3,3.5-1.7,5.1c-2,1.4-3.8,1.4-5.3,0c-1.6-1.4-3-3-4.3-5c-0.9-1.6-0.7-3.2,0.7-4.7l-33.6,2.3c-2.7,0.2-4.2-1.1-4.4-3.8
				c0.5-2.9,2.1-4.6,4.8-5l28.6-1.7l0.2-2.8l-21,1.3c-4,0.4-5.7-1.6-5.1-6.2l1-12.2c0.4-4.4,2.4-6.7,6.2-6.9l21-1.3l0.2-2.5
				l-28.9,1.7c-2.5,0.2-3.6-1.2-3.4-4.1c0.2-2.7,1.6-4.2,4.1-4.6L124.2,21.7z M121.7,50.7l0.2-2.2L104,49.6l-0.1,1.2
				c-0.1,0.6,0.2,0.9,0.9,0.9L121.7,50.7z M122.5,42.3l0.2-2.2l-17,1c-0.6,0-1,0.4-1,1l-0.1,1.2L122.5,42.3z M116.8,89.9
				c-7.4,0.6-10.5-1.7-9.4-6.9l0.7-7.8c0.2-2.5,1.8-3.9,4.7-4.3c2.9,0,4.4,1.3,4.4,3.8l-0.5,5.6c-0.1,1,0.6,1.5,2.1,1.4l17.3-1
				c1,0.4,1.7-0.2,2-1.7c0-0.2,0-0.5,0.1-0.9c0.3-1.5,0.8-2.5,1.5-3.2c1.1-0.9,2.2-1.4,3.2-1.4c3.1-0.2,4.6,1.5,4.3,5
				c-0.2,6.8-4.1,10.3-11.8,10.3L116.8,89.9z M130.5,57.7l-0.2,2.8c1.7,0.1,4.2,0,7.5-0.5c3.2-0.4,5.7-0.7,7.6-0.8l-2-2.4
				L130.5,57.7z M149.5,48.1l0.1-1.2L131.4,48l-0.2,2.2l17.3-1C149.1,49.1,149.4,48.8,149.5,48.1z M150.1,40.6l0.1-1.2
				c0.1-0.6-0.2-0.9-0.9-0.9l-17.3,1l-0.2,2.2L150.1,40.6z M153,83.7c-0.5-1-1.4-2.2-2.5-3.6c-1.3-2.4-2.2-4.3-2.9-5.7
				c-1.5-2.2-1-4.2,1.5-6c2.6-1.2,4.6-0.7,6.1,1.5c0,0.2,0.1,0.4,0.3,0.6c2,3.6,3.5,6.5,4.6,8.7c0.9,1.8,0.2,3.5-2,5.1
				C155.7,85.7,154.1,85.5,153,83.7z"/>
		</g>
		<g>
			<path class="st2" d="M171.1,33.2c-0.1-1.4,0.2-2.5,0.9-3.2c0.2-0.4,1-0.8,2.3-1.1l5.3-0.3l0.9-10.6c0.2-2.3,1.8-3.7,4.7-4.3
				c2.3,0.1,3.4,1.2,3.4,3.5l-0.9,10.9l3.1-0.2c0.6,0,1.1,0.1,1.5,0.5c1.3-2.8,2.8-5.2,4.7-7.4c2-3.9,4-6.2,5.9-7.2
				c3.2-1.4,5.1-0.5,5.7,2.8c-0.3,1.1-1.2,2.6-2.6,4.5c-0.7,0.7-1,1.1-1,1.3c-0.7,0.9-1.3,1.6-1.8,2.3c-1.8,2-3,3.6-3.5,4.9
				c0,0.2,0.2,0.3,0.6,0.3l2.5-0.2l5.5-5.3c1.3-1.1,2.7-1,4,0.4l0.8-9.1c-0.1-1.2,0.3-2.1,1.2-2.6c0.5-0.7,1.5-1,3.2-1.1
				c1.3-0.1,2.3,0.2,3.1,0.7c0.8,0.8,1.1,1.8,1,3l-1.2,14.4c0.8-2.1,2.8-5.1,6.1-9.1c0.9-1.1,1.6-2,2.1-2.6c1.4-2,2.7-3.6,3.9-4.9
				c0.7-0.7,1.6-1.1,2.6-1.4c2.7,0.3,4.1,1.3,4.1,3.2c0,0.4-0.4,1.1-1.1,1.9l0,0.3c-0.5,0.4-0.8,0.9-1,1.3c-0.5,0.7-0.8,1.1-1,1.3
				c-3.2,3.3-5.3,5.9-6.3,7.8l0.3,0.6l3.5-0.2c0-0.2,0.3-0.5,0.7-1c1.4-1.7,2.7-3.1,3.8-4c0.7-0.9,1.7-1.4,3-1.7
				c2.3,0.3,3.5,1.2,3.8,2.9c-0.3,1.5-1,2.9-1.9,4.2l-11.9,11.6l0.3,0.6l5.7-0.7c-0.2,0-0.3-0.2-0.3-0.6c-0.2-0.6-0.2-1.4-0.1-2.5
				c0.1-1,1-1.7,2.7-2c1.4,0.1,2.7,1.5,3.7,4.1c0.4,2.3,0.7,4.1,0.8,5.5c-0.3,1.1-0.9,1.8-1.8,2.3c-1.7,0.7-2.8,0.8-3.1,0.2
				c-0.4-0.2-0.8-0.7-1.1-1.5c0-0.2,0-0.4,0.1-0.6l-2.9,0.5c-0.1,0.6,0,1.2,0.2,1.9c0.2,0.6,0.3,1.1,0.5,1.5c0,0.4-0.2,0.9-0.4,1.6
				l4.7-0.3c1.7,0.1,2.5,1.3,2.5,3.6c-0.2,2.3-1.1,3.5-2.8,3.6l-17.9,1.1c0.4,2.5,1.2,4.9,2.5,7.3c0.7-0.5,1.6-1.3,2.7-2.7
				c2.1-2.6,4.1-4,6-4.1c1,0.1,2,0.7,3,1.7c0.3,0.8,0.6,1.7,0.7,2.8c-0.3,1.1-0.8,2-1.5,2.9c-2.3,2.4-4.6,4.5-6.8,6.3
				c0,0.2,0.3,0.5,0.9,0.9c0.9,1.2,1.8,1.7,2.7,1.4c0.8-0.1,1.6-1.2,2.2-3.6c0-0.4,0.2-0.7,0.4-1c0.3-1.3,0.8-2.4,1.6-3.5
				c0.2-0.4,1.1-0.7,2.6-0.8c2.3,0.3,3.4,1.1,3.5,2.6c-0.5,2.9-1.2,5.7-2.3,8.2c-2,4.3-4.2,6.6-6.5,6.9l-1.3,0.1l-0.3,0
				c-2.7-0.5-5.2-1.6-7.5-3.3c-1.6-1.2-2.8-2.3-3.8-3.5c-6.8,3.7-12.6,6.2-17.5,7.6l-0.3,0l-1.3,0.1c-2.3-0.3-3.4-1.7-3.4-4.1
				c0.2-2.1,1.6-3.3,4.4-3.7c1.5-0.7,3.2-1.3,5.2-1.9c4.1-1.3,7.1-2.7,9.1-4.3c-1.3-2.2-2.5-5.8-3.8-10.7c0-0.4,0.1-0.8,0.1-1.2
				l-10.1,0.6c-0.5,0.9-0.8,1.7-0.8,2.5c2.6,1.1,4.9,2.8,6.7,5.2c1,2.6-0.2,4.5-3.6,5.5c-1.3,0.3-2.7-0.6-4.2-2.5
				c-0.6-0.8-0.9-1.4-1.1-1.8c-0.3,1.1-1.5,3.9-3.5,8.6c-0.2,0.4-0.5,0.6-0.7,0.7c-2,4.3-4.2,6.5-6.5,6.6c-1.2-0.1-2.3-0.5-3-1.1
				c-1-0.8-1-1.9,0-3.4c0.3-0.6,0.5-1.2,0.8-1.6c1.7-2.6,2.9-4.7,3.7-6.4c1.4-3.8,2.5-7,3.3-9.5c0.3-0.8,0.6-1.6,0.8-2.2l-4.1,0.2
				c-1.5,0.1-2.1-0.8-2-2.7l0.1-1.2c0.1-1.7,1.3-2.7,3.4-3l4.1-0.2c0.4-1.9,1.8-3,4.4-3.4c2.5,0.1,3.8,1,3.8,2.9l8.2-0.5
				c-0.3-1.4-0.4-3-0.2-4.7l-0.1,0.6c-3.3,1.6-5,1.4-5.3-0.6c-1.5,0.5-3.5,0.9-6,1.3c-2.7,0.4-4.7,0.7-6,1c-0.6,1.9-2,3-4.4,3.4
				c-1.1,0.1-2-0.6-3-2l0-0.3c-0.8-0.8-1.2-1.7-1.3-2.7l-2.9,33.7c-0.3,1.5-0.9,2.7-1.6,3.8c-1.1,0.7-2.2,1.1-3.2,1.1
				c-1.5,0.1-2.4-0.1-2.8-0.5c-0.5-1-0.8-2-0.7-3.1l2-23.8c-1.8,4.5-3.8,6.7-5.9,6.6c-2.7,0-4-1.2-3.8-3.5c0.1-1,0.9-2.8,2.3-5.4
				c0.2-0.4,0.5-0.9,0.7-1.3c3.2-6.2,5.7-12.7,7.3-19.4l-3.1,0.2C172,37.1,170.8,35.9,171.1,33.2z M187.4,36.2
				c-0.5,0.9-0.3,1.7,0.7,2.4c0.4,0.4,0.7,0.7,0.9,0.9c0.5,1,1.5,2.2,2.8,3.6c1.9-2.6,4.1-5.1,6.6-7.5l-3.5,0.2
				c-1,0.1-1.9-0.1-2.5-0.5c-0.7,0.5-1.3,0.7-1.9,0.7L187.4,36.2z M204.8,40.1c0.1-1.3,1.1-2,3-2.4c0.8,0,1.5,0.3,2.1,1.1
				c0.9,1.6,1.6,3.4,2,5.5c-0.1-0.8-0.2-2.3-0.3-4.3c-0.1-3.5,0-6.2,0.4-8.1l0.2-2.5c-0.7,0.9-1.6,2-2.8,3.3c-0.5,0.4-0.8,0.9-1,1.3
				c-3.9,3.8-6.6,6.7-8.3,8.9l0.3,0.6l5.1-0.6C204.8,41.5,204.6,40.6,204.8,40.1z M220.4,44.8c0.1-1.5,1.3-3.5,3.7-6.1
				c1.4-1.3,2.3-2.4,2.8-3.3l-3.5,0.2c-0.8,0.1-1.7-0.1-2.5-0.5c-0.2,0-0.4-0.3-0.5-0.9c-0.2-0.4-0.3-0.7-0.2-0.9
				c-0.3,6.2-0.2,12.4,0.3,18.6l7.9-0.5c-1-1-1.3-2.5-1.2-4.6l-4.4,0.3C221,47.3,220.2,46.5,220.4,44.8z"/>
		</g>
		<g>
			<path class="st2" d="M250.6,74.7c0.9-0.5,2.7-1.7,5.6-3.8c4.2-3.2,6.7-5,7.3-5.4c2.4-1.2,4.3-0.9,5.9,0.9c1.1,2.2,0.6,4.2-1.4,6
				c-3.3,2.1-7.8,5.1-13.6,9.2c-2.8,1.4-4.9,1.1-6.2-0.9C247.4,78.3,248.2,76.3,250.6,74.7z M281.2,71.3l0.8-9.1l-30.5,1.8
				c-2.1,0.1-3.1-1.2-3.1-3.9c0.4-2.7,1.8-4.3,4.1-4.6l67.2-4c4,2.5,3.8,5.3-0.4,8.4l-28.3,1.7L290,74.2c-0.5,6-6.1,8.2-16.8,6.6
				c-2.5-0.5-3.7-1.9-3.7-4.1c0.4-2.3,1.8-3.6,4.1-4c0.4,0,1.1,0,2.2,0.2C279.3,72.9,281.1,72.4,281.2,71.3z M255.6,20
				c-2.1,0.1-3-1.2-2.8-3.9c0.2-2.7,1.4-4.2,3.5-4.6l67.2-4c1.9,0.1,2.8,1.5,2.8,4.2c-0.4,2.7-1.6,4.1-3.5,4.3l-19.5,1.2l-0.3,3.4
				l12.9-0.8c3.3-0.2,4.9,1.1,4.7,3.8l-0.9,10.6c-0.5,3.1-2.3,4.8-5.4,5L260,42.4c-3.8,0.4-5.4-0.9-5-4.1l0.9-10
				c0.1-3.3,1.8-5.1,5.1-5.3l13.8-0.8l0.3-3.4L255.6,20z M257.9,52.2c-1.9,0.1-2.7-1-2.5-3.3c0.4-2.3,1.6-3.6,3.5-3.9l56.2-3.4
				c3.6,2.3,3.4,4.7-0.6,7.2L257.9,52.2z M264.1,30.4l-0.3,4.1l10.1-0.6l0.3-4.1L264.1,30.4z M282.6,33l10.1-0.6l0.3-3.8L283,29.2
				L282.6,33z M283.6,21.7l10.1-0.6l0.3-3.4l-10.1,0.6L283.6,21.7z M311.4,77c-8-3.7-12.4-5.9-13.2-6.7c-1.7-1.6-1.9-3.4-0.5-5.6
				c1.4-2,3.4-2.7,5.8-2.2c5.6,2.4,10,4.6,13.2,6.7c2.4,1.3,2.9,3.1,1.4,5.5C316.3,77.1,314,77.8,311.4,77z M302.1,31.8l9.4-0.6
				l0.3-3.8l-9.4,0.6L302.1,31.8z"/>
		</g>
	</g>
</g>
<g>
	<path class="st3" d="M217.8,43.4c3.6,0.6,6.3,3.4,6.8,7l18,1.4l-0.2,2.2l-6.6,0.4c1.2,2.2-0.8,5.3-3.6,5.5
		c-2.8,0.2-4.1-2.7-2.7-5.1l-5.4,0.3c-1.5,4.3-5.7,7.7-10.3,8s-8.3-2.6-9.1-6.8l-5.2,0.3c1.2,2.2-0.8,5.3-3.6,5.5s-4.3-2.7-2.7-5.1
		l-6.8,0.4l0.2-2.6l18.5-3.4c1.2-3.6,4.3-6.7,8-7.7l1.6-6.9l2.5-0.2L217.8,43.4z M210.4,49.9c2.9,0.3,6.2,0.1,9.9-0.6l0.3,2.4
		c-3.7,1.7-7.4,1.8-11,0.7L210.4,49.9z"/>
</g>
</svg>
