<?xml version="1.0" encoding="utf-8"?>
<!-- Generator: Adobe Illustrator 22.0.0, SVG Export Plug-In . SVG Version: 6.00 Build 0)  -->
<svg version="1.1" id="圖層_1" xmlns="http://www.w3.org/2000/svg" xmlns:xlink="http://www.w3.org/1999/xlink" x="0px" y="0px"
	 viewBox="0 0 1934 845.1" style="enable-background:new 0 0 1934 845.1;" xml:space="preserve">
<style type="text/css">
	.st0{fill:none;stroke:#7EB2D1;stroke-width:3;stroke-miterlimit:10;stroke-dasharray:10;}
	.st1{fill:#7EB2D1;}
</style>
<path class="st0" d="M6.6,0.7C18,65.1,55,119.1,108,158.1c56,41,116,57,180,74c1,0,3,2,4,2c55,13,107,24,163,18c20-3,41-7,56-22
	s15-36,9-55c-1-3-2-8-9-7c-2,1-5,2-7,4c-1,2-3,3-5,5c-16,19-15,48,1,67c12,14,28,21,44,29c3,1,6,2,9,3c72,33,151,38,228,37
	c56-1,112-5,168-7c48-2,97-3,145-1c26,0,52,1,78,3c18,2,35,3,53,5c36,4,69,10,105,17c23,5,43,10,65,17c14,4,27,9,41,14
	c30,12,57.7,24.6,87,42c175,104,429,428.6,409.5,449.6"/>
<path class="st1" d="M1511.7,398.4c0.1,0.7,0.3,1.3,0.6,1.9c1.5,3.5,3.9,6.2,6.8,8.4c3,2.4,6.1,4.6,9.2,6.8c0.5,0.4,0.7,0.8,0.7,1.5
	c-0.5,4.1-0.9,8.3-1.4,12.4c0,0.3-0.1,0.6-0.1,1c-0.5-0.3-0.8-0.5-1.2-0.7c-0.6-0.3-1.3-0.3-1.7,0.2c-0.7,0.9-1.4,1.9-2.1,2.9
	c-0.5,0.7-0.3,1.4,0.4,1.9s1.4,1.1,2.1,1.5c1.5,0.7,1.7,1.8,1.5,3.4c-0.6,4.2-0.9,8.5-1.3,12.7c0,0.3,0,0.7,0.2,0.9
	c0.6,0.5,1.4,1,2.1,1.4c0.2-0.4,0.4-0.7,0.5-1c3.3-7.5,6.7-14.9,10-22.4c1-2.3,2.4-4.2,3.8-6.3c0.1-0.1,0.2-0.2,0.3-0.3
	c0.2,0.1,0.3,0.1,0.4,0.2c5.9,3.5,11.7,7,17.6,10.5c0.5,0.3,0.5,0.6,0.5,1.1c-0.6,4.4-1.2,8.8-1.8,13.2c0,0.3,0,0.8,0.2,1
	c0.9,0.7,1.9,1.4,2.9,2c1.9-4.5,3.8-8.9,5.6-13.4c2.9,1,5.5,2.3,8.4,2.8c0.1-0.1,0.1-0.2,0.2-0.2c-1.8-2.3-3.6-4.6-5.5-6.9
	c3.7-3.2,7.4-6.3,11.2-9.6c-1-0.6-1.8-1.1-2.6-1.7c-0.6-0.5-1.1-0.5-1.8-0.1c-3.9,1.9-7.8,3.8-11.6,5.8c-0.6,0.3-1,0.2-1.6-0.2
	c-5-4.2-10-8.4-15-12.6c-0.3-0.2-0.6-0.5-1-0.9c1.5-1.7,2.9-3.6,4.5-5.1c6.4-5.9,12.9-11.8,19.3-17.6c0.2-0.2,0.4-0.4,0.8-0.8
	c-0.6-0.4-1.2-0.6-1.7-1c-0.6-0.5-1.1-0.5-1.8-0.2c-4.2,1.9-8.3,3.8-12.5,5.7c-0.6,0.3-1,0.3-1.5-0.1c-1-0.8-2-1.5-3.1-2.2
	c-0.9-0.6-1.4-0.5-2.1,0.3c-0.5,0.5-0.9,1-1.3,1.6c-1.4,1.9-1.4,2.1,0.4,3.6v0.1c-0.1,0.1-0.3,0.2-0.4,0.2
	c-4.4,1.7-8.9,3.4-13.3,5.1c-0.3,0.1-0.8,0.1-1.1-0.1c-2.6-1.7-5.3-3.5-7.9-5.2c-3.1-2-6.3-3.6-9.9-4.3c-1.1-0.2-2.2-0.2-3.3-0.1
	C1512.1,395.8,1511.4,396.8,1511.7,398.4z"/>
</svg>
