<?xml version="1.0" encoding="utf-8"?>
<!-- Generator: Adobe Illustrator 22.0.0, SVG Export Plug-In . SVG Version: 6.00 Build 0)  -->
<svg version="1.1" id="圖層_2" xmlns="http://www.w3.org/2000/svg" xmlns:xlink="http://www.w3.org/1999/xlink" x="0px" y="0px"
	 viewBox="0 0 796.6 386.4" style="enable-background:new 0 0 796.6 386.4;" xml:space="preserve">
<style type="text/css">
	.st0{fill:none;stroke:#7EB2D1;stroke-width:3;stroke-miterlimit:10;stroke-dasharray:10;}
	.st1{fill:#7EB2D1;}
</style>
<path class="st0" d="M795.5,1.4c0,0-190.5,307.5-795,354"/>
<path class="st1" d="M138.3,338.4c-0.5-0.4-1.1-0.8-1.7-1c-3.4-1.6-7.1-1.9-10.7-1.6c-3.8,0.3-7.6,0.7-11.4,1.1
	c-0.7,0.1-1.1-0.1-1.5-0.6c-2.4-3.4-4.9-6.7-7.3-10.1c-0.2-0.3-0.4-0.5-0.6-0.8c0.5-0.1,0.9-0.2,1.3-0.3c0.7-0.2,1.1-0.6,1.1-1.3
	c-0.1-1.2-0.2-2.4-0.4-3.5c-0.1-0.8-0.8-1.2-1.6-1.1c-0.9,0.1-1.8,0.1-2.6,0.3c-1.6,0.4-2.5-0.2-3.4-1.5c-2.4-3.5-5-6.9-7.6-10.3
	c-0.2-0.2-0.5-0.5-0.8-0.5c-0.8,0-1.7,0.2-2.5,0.3c0.1,0.4,0.2,0.8,0.3,1.1c2.6,7.8,5.1,15.6,7.7,23.3c0.8,2.4,1,4.8,1.4,7.2
	c0,0.1,0,0.3,0,0.4c-0.2,0-0.3,0.1-0.4,0.1c-6.7,1.4-13.4,2.7-20.1,4.1c-0.6,0.1-0.8-0.1-1.1-0.5c-2.5-3.7-5-7.3-7.6-11
	c-0.2-0.3-0.5-0.6-0.8-0.6c-1.2,0.1-2.3,0.3-3.5,0.5c1.6,4.6,3.2,9.1,4.9,13.7c-2.8,1.2-5.6,2-8.1,3.6c0,0.1,0,0.2,0,0.3
	c2.9,0.5,5.7,0.9,8.7,1.4c-0.6,4.8-1.2,9.6-1.8,14.6c1.1-0.2,2.1-0.4,3.1-0.5c0.8,0,1.1-0.4,1.4-1.1c1.6-4,3.2-8.1,4.7-12.1
	c0.3-0.7,0.6-0.9,1.3-0.9c6.5-0.3,13-0.5,19.6-0.8c0.4,0,0.8,0,1.3,0c0,2.3,0.3,4.6,0.1,6.8c-0.7,8.7-1.6,17.4-2.4,26
	c0,0.3,0,0.5-0.1,1.1c0.7-0.2,1.3-0.4,1.9-0.4c0.8,0,1.2-0.4,1.5-1.1c1.8-4.2,3.6-8.4,5.4-12.6c0.3-0.6,0.6-0.9,1.2-0.9
	c1.3-0.1,2.5-0.2,3.8-0.4c1-0.2,1.3-0.6,1.4-1.6c0-0.7-0.1-1.3-0.1-2c-0.2-2.3-0.4-2.5-2.8-2.4c0,0,0,0-0.1-0.1
	c0-0.1,0.1-0.3,0.2-0.4c2.1-4.3,4.2-8.5,6.4-12.7c0.2-0.3,0.6-0.6,0.9-0.7c3.1-0.5,6.2-1,9.3-1.5c3.6-0.6,7.1-1.6,10.2-3.5
	c0.9-0.6,1.8-1.3,2.5-2.1C139.8,340.6,139.6,339.4,138.3,338.4z"/>
</svg>
