<?xml version="1.0" encoding="utf-8"?>
<!-- Generator: Adobe Illustrator 22.0.0, SVG Export Plug-In . SVG Version: 6.00 Build 0)  -->
<svg version="1.1" id="圖層_1" xmlns="http://www.w3.org/2000/svg" xmlns:xlink="http://www.w3.org/1999/xlink" x="0px" y="0px"
	 viewBox="0 0 723 445.2" style="enable-background:new 0 0 723 445.2;" xml:space="preserve">
<style type="text/css">
	.st0{display:none;}
	.st1{fill:none;stroke:#7EB2D1;stroke-width:3;stroke-miterlimit:10;}
	.st2{fill:none;stroke:#7EB2D1;stroke-width:3;stroke-miterlimit:10;stroke-dasharray:10.0528,10.0528;}
	.st3{fill:#7EB2D1;}
</style>
<g id="圖層_1_1_" class="st0">
	
		<image style="display:inline;overflow:visible;enable-background:new    ;" width="1920" height="4700" xlink:href="../index.png"  transform="matrix(1 0 0 1 5.1057 -1159.8975)">
	</image>
</g>
<g>
	<g>
		<path class="st1" d="M716.1,3.1c0,0-0.7,1.7-1.9,4.6"/>
		<path class="st2" d="M710.2,16.9c-11,24.8-36.3,77.2-66.1,109.2c-40,43-108,72-127,54c-19-18-1-73.5,21-58c17.2,12.1-40,44-76,62
			C427.3,201.5,82.3,355.7,8.5,435.4"/>
		<path class="st1" d="M5.2,439.2c-1.1,1.3-2.2,2.6-3.1,3.9"/>
	</g>
</g>
<path class="st3" d="M623.6,143c-0.6-0.2-1.3-0.3-2-0.3c-3.8-0.1-7.2,1-10.5,2.6c-3.4,1.7-6.7,3.6-10.1,5.5c-0.6,0.3-1,0.4-1.6,0
	c-3.5-2.2-7.1-4.3-10.7-6.5c-0.3-0.2-0.5-0.3-0.9-0.6c0.4-0.3,0.8-0.5,1.1-0.8c0.6-0.4,0.8-1,0.5-1.6c-0.5-1.1-1.1-2.1-1.7-3.1
	c-0.5-0.7-1.2-0.8-1.9-0.4c-0.8,0.4-1.6,0.7-2.3,1.3c-1.3,1-2.3,0.8-3.7-0.1c-3.6-2.3-7.3-4.4-11-6.6c-0.3-0.2-0.7-0.3-0.9-0.2
	c-0.7,0.4-1.4,0.8-2.2,1.3c0.3,0.4,0.5,0.6,0.7,0.9c5.4,6.2,10.7,12.4,16.1,18.5c1.6,1.9,2.8,4,4.1,6.1c0.1,0.1,0.1,0.3,0.1,0.4
	c-0.1,0.1-0.2,0.2-0.4,0.3c-5.7,3.9-11.3,7.7-16.9,11.6c-0.5,0.3-0.8,0.2-1.2,0c-3.7-2.4-7.5-4.8-11.2-7.2c-0.3-0.2-0.7-0.3-1-0.2
	c-1,0.5-2,1.2-3.1,1.8c3.3,3.6,6.5,7.2,9.8,10.8c-2.1,2.2-4.4,4-6.1,6.4c0,0.1,0.1,0.2,0.1,0.3c2.8-0.7,5.7-1.4,8.6-2.1
	c1.3,4.7,2.6,9.3,4,14.2c1-0.6,1.8-1.2,2.6-1.6c0.7-0.3,0.9-0.8,0.9-1.5c-0.1-4.3-0.2-8.7-0.3-13c0-0.7,0.2-1,0.9-1.3
	c5.9-2.8,11.8-5.5,17.7-8.3c0.3-0.2,0.7-0.3,1.2-0.5c0.9,2.1,2,4.1,2.7,6.2c2.7,8.3,5.2,16.6,7.9,25c0.1,0.3,0.2,0.5,0.4,1.1
	c0.6-0.4,1.1-0.9,1.6-1.1c0.7-0.3,1-0.8,1-1.6c0-4.6,0.1-9.2,0.1-13.7c0-0.6,0.2-1,0.8-1.3c1.1-0.6,2.2-1.2,3.3-1.9
	c0.9-0.5,1-1.1,0.6-2c-0.3-0.6-0.6-1.2-0.9-1.8c-1.1-2.1-1.3-2.1-3.5-1.1h-0.1c0-0.1,0-0.3,0-0.5c0.3-4.7,0.6-9.5,1-14.2
	c0-0.3,0.3-0.8,0.6-1c2.7-1.7,5.4-3.3,8.1-5c3.1-1.9,5.9-4.2,8.1-7.2c0.6-0.9,1.1-1.9,1.5-2.9C625.8,144.5,625.1,143.4,623.6,143z"
	/>
</svg>
