<?xml version="1.0" encoding="utf-8"?>
<!-- Generator: Adobe Illustrator 21.1.0, SVG Export Plug-In . SVG Version: 6.00 Build 0)  -->
<svg version="1.1" id="Layer_1" xmlns="http://www.w3.org/2000/svg" xmlns:xlink="http://www.w3.org/1999/xlink" x="0px" y="0px"
	 viewBox="0 0 32 32" style="enable-background:new 0 0 32 32;" xml:space="preserve">
<style type="text/css">
	.st0{fill:#4AAE48;}
	.st1{fill:#EA3939;}
	.st2{fill:#FED14B;}
	.st3{fill:#188FD1;}
</style>
<g>
	<path class="st0" d="M16,24.2c-1.6,0-3.1-0.4-4.4-1.3c-1.3-0.9-2.3-2-3-3.4L2,8c-1.4,2.5-2,5.2-2,8c0,4,1.3,7.5,3.9,10.5
		s5.8,4.8,9.7,5.3l4.6-8C17.8,23.9,17,24.2,16,24.2z"/>
	<path class="st1" d="M11,9.5C12.4,8.4,14.1,8,16,8c0.3,0,13.8,0,13.8,0c-1.4-2.4-3.3-4.5-5.8-5.9C21.5,0.7,18.9,0,16,0
		c-2.5,0-4.8,0.5-7,1.6C6.8,2.7,4.8,4.2,3.4,6.2L8,14C8.5,12.2,9.5,10.7,11,9.5z"/>
	<path class="st2" d="M30.8,10h-9.3c1.6,1.6,2.7,3.7,2.7,6c0,1.7-0.5,3.3-1.4,4.7L16.2,32c4.4,0,8.1-1.6,11.2-4.8
		C30.5,24.1,32,20.4,32,16C32,14,31.7,11.8,30.8,10z"/>
	<circle class="st3" cx="16" cy="16" r="6"/>
</g>
</svg>
