<?xml version="1.0" encoding="utf-8"?>
<!-- Generator: Adobe Illustrator 22.0.1, SVG Export Plug-In . SVG Version: 6.00 Build 0)  -->
<svg version="1.1" id="圖層_1" xmlns="http://www.w3.org/2000/svg" xmlns:xlink="http://www.w3.org/1999/xlink" x="0px" y="0px"
	 viewBox="0 0 1439.9 149.8" style="enable-background:new 0 0 1439.9 149.8;" xml:space="preserve">
<style type="text/css">
	.st0{fill:#01A94E;}
</style>
<path class="st0" d="M1284.5,25c-88,29-105,24-203.6,22.6C983.4,46.2,935.8,65.2,884.3,90c-25.4,12.2-55.5,20.9-87.1,26.3
	c-15.9,2.7-32.3,4.6-48.7,5.7c-14.2,0.9-24,4.1-28.5,13.6c-4.5-9.6-14.3-12.7-28.5-13.6c-16.5-1.1-32.8-3-48.7-5.7
	c-31.6-5.4-61.7-14.1-87.1-26.3c-51.5-24.8-99.1-43.9-196.6-42.4C260.5,49.1,243.5,54,155.5,25C88.1,2.8,34.5-0.9,0,0.2v149.4h717.6
	h1.9h0.9h1.9H1440V0.2C1405.5-0.9,1351.9,2.8,1284.5,25z"/>
</svg>
