<?xml version="1.0" encoding="utf-8"?>
<!-- Generator: Adobe Illustrator 24.0.1, SVG Export Plug-In . SVG Version: 6.00 Build 0)  -->
<svg version="1.1" id="圖層_1" xmlns="http://www.w3.org/2000/svg" xmlns:xlink="http://www.w3.org/1999/xlink" x="0px" y="0px"
	 viewBox="0 0 35 35" style="enable-background:new 0 0 35 35;" xml:space="preserve">
<style type="text/css">
	.st0{fill:#16A24D;}
	.st1{fill:#F5EC48;}
</style>
<circle class="st0" cx="17.5" cy="17.5" r="17.5"/>
<g>
	<path class="st1" d="M10.7,24.7h13.5c0.2,0,0.4-0.2,0.4-0.4v-1H10.3v1C10.3,24.5,10.5,24.7,10.7,24.7z"/>
	<path class="st1" d="M25.4,12.7c-0.6,0-1.1,0.5-1.1,1.1c0,0.3,0.1,0.6,0.3,0.8l-3.4,3.4L18,12.4c0.3-0.2,0.6-0.6,0.6-1
		c0-0.6-0.5-1.1-1.1-1.1s-1.1,0.5-1.1,1.1c0,0.4,0.2,0.8,0.6,1l-3.2,5.7l-3.4-3.4c0.3-0.2,0.4-0.5,0.4-0.8c0-0.6-0.5-1.1-1.1-1.1
		c-0.6,0-1.1,0.5-1.1,1.1S9,15,9.6,15c0,0,0.1,0,0.1,0l0.6,7.6h14.4l0.6-7.6c0,0,0.1,0,0.1,0c0.6,0,1.1-0.5,1.1-1.1
		C26.5,13.3,26,12.7,25.4,12.7z"/>
</g>
</svg>
