<?xml version="1.0" encoding="utf-8"?>
<!-- Generator: Adobe Illustrator 21.1.0, SVG Export Plug-In . SVG Version: 6.00 Build 0)  -->
<svg version="1.1" id="圖層_1" xmlns="http://www.w3.org/2000/svg" xmlns:xlink="http://www.w3.org/1999/xlink" x="0px" y="0px"
	 viewBox="0 0 32 31" style="enable-background:new 0 0 32 31;" xml:space="preserve">
<style type="text/css">
	.st0{fill:#2394BC;}
	.st1{fill:#EC8840;}
</style>
<path class="st0" d="M16,0c8.3,0,15,6.7,15,15c0,8.3-6.7,15-15,15S1,23.3,1,15C1,6.7,7.7,0,16,0z"/>
<path class="st1" d="M18.6,30.8C26.2,29.5,32,23,32,15l-0.1,0.2c0.2-1.5,0.2-2.9-0.1-4c-0.1,0.9-0.2,1.4-0.4,1.6c0-0.1,0-1-0.3-2.2
	c-0.1-0.9-0.3-1.8-0.6-2.6c0.1,0.4,0.1,0.7,0.1,1c-1.2-3.1-4-7-11.1-6.9c0,0,2.5,0.3,3.6,2c0,0-1.2-0.3-2.1,0.2
	c1.1,0.4,2.1,0.9,2.9,1.4l0.1,0c0.2,0.1,0.4,0.3,0.6,0.4c1.5,1.1,2.9,2.6,2.8,4.5C27,10,26.6,9.6,26,9.5c0.7,2.7,0.7,4.9,0.2,6.6
	c-0.4-1.2-0.7-1.8-1-2.1c0.4,3.6-0.1,6.2-1.7,7.9c0.3-1,0.4-1.9,0.4-2.6c-1.9,2.8-4,4.3-6.4,4.4c-0.9,0-1.8-0.1-2.7-0.4
	c-1.2-0.4-2.3-1.1-3.3-2.1c1.5,0.1,3-0.1,4.2-0.8l2-1.3l0,0c0.3-0.1,0.5-0.1,0.8,0c0.5-0.1,0.7-0.3,0.5-0.8
	c-0.2-0.3-0.6-0.6-1.1-0.9c-1-0.5-2.1-0.4-3.2,0.3c-1.1,0.6-2.1,0.6-3.1-0.1c-0.6-0.4-1.3-1-1.9-1.8l-0.2-0.4
	c-0.1,0.9,0,1.9,0.4,3.3l0,0l0,0c-0.4-1.3-0.5-2.4-0.4-3.3v0c0-0.7,0.3-1.2,0.9-1.2l-0.2,0l0.3,0c0.7,0.1,1.4,0.2,2.3,0.5
	c0.1-0.8,0-1.7-0.6-2.6v0c0.8-0.8,1.5-1.3,2.1-1.6c0.3-0.1,0.4-0.4,0.5-0.7l0,0l0,0l0,0C15,9.4,14.9,9.2,14.7,9
	c-0.6,0-1.1,0-1.7-0.1l0,0c-0.2-0.1-0.5-0.3-0.9-0.6l-0.9-0.9l-0.3-0.2v0h0l0,0l-0.1-0.1l0.1-0.1c0.1-0.7,0.3-1.3,0.6-1.8l0.1-0.1
	c0.3-0.5,0.9-1,1.7-1.6c-1.6,0.2-3,0.9-4.3,2.1C8,5.3,6.7,5.4,5.3,6L5.1,6.1l0,0L5.3,6l0,0C4.4,5.5,3.8,4.4,3.5,2.4
	C2.3,3.5,1.8,5.6,1.8,8.5L1.5,9L1.4,9.1l0,0l0,0l0,0c-0.2,0.3-0.4,0.7-0.7,1.2c-0.4,0.8-0.6,1.4-0.6,2l0,0l0,0l0,0.2l0,0
	c0,0.1,0,0.3,0,0.4L1,12.2c-0.3,0.9-0.6,1.8-0.7,2.7l0,0.4L0,15c0,3.4,1.1,6.6,2.9,9.2L3,24.3l0.1,0.1c1.3,1.8,3,3.3,5,4.5
	c1.4,0.8,2.9,1.4,4.5,1.8l0.3,0.1c0.3,0.1,0.7,0.1,1,0.2c0.3,0,0.5,0.1,0.8,0.1l0.3,0l0.5,0l0.5,0l0.4,0l0.7,0
	c0.4,0,0.8-0.1,1.2-0.1C18.3,30.8,18.6,30.8,18.6,30.8z M9.2,14L9.2,14z M28.7,11.3l0,0.1L28.7,11.3L28.7,11.3z"/>
</svg>
