<?xml version="1.0" encoding="utf-8"?>
<!-- Generator: Adobe Illustrator 22.0.1, SVG Export Plug-In . SVG Version: 6.00 Build 0)  -->
<svg version="1.1" id="圖層_1" xmlns="http://www.w3.org/2000/svg" xmlns:xlink="http://www.w3.org/1999/xlink" x="0px" y="0px"
	 viewBox="0 0 78.9 83.8" style="enable-background:new 0 0 78.9 83.8;" xml:space="preserve">
<style type="text/css">
	.st0{opacity:0.13;}
	.st1{fill:#EF3345;}
	.st2{fill:#FFFFFF;}
</style>
<g>
	<g>
		<g class="st0">
			<path d="M75.6,55.7c-0.4,1.7-3.7,2.4-4.3,4c-0.7,1.6,1.1,4.4,0.3,5.9c-0.9,1.5-4.2,1.3-5.3,2.6c-1.1,1.3-0.1,4.5-1.4,5.7
				c-1.3,1.2-4.4,0-5.8,1c-1.4,1-1.4,4.3-2.9,5.1c-1.5,0.8-4.2-1.2-5.8-0.7c-1.6,0.5-2.6,3.7-4.2,4c-1.7,0.3-3.7-2.4-5.4-2.3
				c-1.7,0.1-3.5,2.9-5.2,2.7c-1.7-0.2-2.8-3.3-4.5-3.7c-1.7-0.4-4.2,1.8-5.8,1.1c-1.6-0.7-1.8-4-3.3-4.8c-1.5-0.9-4.5,0.5-5.8-0.6
				c-1.3-1.1-0.6-4.3-1.8-5.6c-1.2-1.3-4.5-0.8-5.4-2.2c-1-1.4,0.6-4.3-0.2-5.9c-0.8-1.5-4.1-2-4.6-3.6c-0.5-1.6,1.8-4,1.5-5.7
				c-0.3-1.7-3.3-3.1-3.4-4.8c-0.1-1.7,2.9-3.3,3-5c0.2-1.7-2.3-3.9-1.9-5.5c0.4-1.7,3.7-2.4,4.3-4c0.7-1.6-1.1-4.4-0.3-5.9
				c0.9-1.5,4.2-1.3,5.3-2.6c1.1-1.3,0.1-4.5,1.4-5.7c1.3-1.2,4.4,0,5.8-1c1.4-1,1.4-4.3,2.9-5.1c1.5-0.8,4.2,1.2,5.8,0.7
				c1.6-0.5,2.6-3.7,4.2-4c1.7-0.3,3.7,2.4,5.4,2.3c1.7-0.1,3.5-2.9,5.2-2.7c1.7,0.2,2.8,3.3,4.5,3.7c1.7,0.4,4.2-1.8,5.8-1.1
				c1.6,0.7,1.8,4,3.3,4.8c1.5,0.9,4.5-0.5,5.8,0.6c1.3,1.1,0.6,4.3,1.8,5.6c1.2,1.3,4.5,0.8,5.4,2.2c1,1.4-0.6,4.3,0.2,5.9
				c0.8,1.5,4.1,2,4.6,3.6c0.5,1.6-1.8,4-1.5,5.7c0.3,1.7,3.3,3.1,3.4,4.8c0.1,1.7-2.9,3.3-3,5C73.5,51.8,76,54,75.6,55.7z"/>
		</g>
		<g>
			<path class="st1" d="M75.6,47.2c-0.4,1.7-3.7,2.4-4.3,4c-0.7,1.6,1.1,4.4,0.3,5.9c-0.9,1.5-4.2,1.3-5.3,2.6
				c-1.1,1.3-0.1,4.5-1.4,5.7c-1.3,1.2-4.4,0-5.8,1c-1.4,1-1.4,4.3-2.9,5.1c-1.5,0.8-4.2-1.2-5.8-0.7c-1.6,0.5-2.6,3.7-4.2,4
				c-1.7,0.3-3.7-2.4-5.4-2.3c-1.7,0.1-3.5,2.9-5.2,2.7c-1.7-0.2-2.8-3.3-4.5-3.7c-1.7-0.4-4.2,1.8-5.8,1.1c-1.6-0.7-1.8-4-3.3-4.8
				c-1.5-0.9-4.5,0.5-5.8-0.6c-1.3-1.1-0.6-4.3-1.8-5.6c-1.2-1.3-4.5-0.8-5.4-2.2c-1-1.4,0.6-4.3-0.2-5.9c-0.8-1.5-4.1-2-4.6-3.6
				c-0.5-1.6,1.8-4,1.5-5.7c-0.3-1.7-3.3-3.1-3.4-4.8c-0.1-1.7,2.9-3.3,3-5c0.2-1.7-2.3-3.9-1.9-5.5c0.4-1.7,3.7-2.4,4.3-4
				c0.7-1.6-1.1-4.4-0.3-5.9c0.9-1.5,4.2-1.3,5.3-2.6c1.1-1.3,0.1-4.5,1.4-5.7c1.3-1.2,4.4,0,5.8-1c1.4-1,1.4-4.3,2.9-5.1
				c1.5-0.8,4.2,1.2,5.8,0.7c1.6-0.5,2.6-3.7,4.2-4c1.7-0.3,3.7,2.4,5.4,2.3c1.7-0.1,3.5-2.9,5.2-2.7c1.7,0.2,2.8,3.3,4.5,3.7
				c1.7,0.4,4.2-1.8,5.8-1.1c1.6,0.7,1.8,4,3.3,4.8c1.5,0.9,4.5-0.5,5.8,0.6c1.3,1.1,0.6,4.3,1.8,5.6c1.2,1.3,4.5,0.8,5.4,2.2
				c1,1.4-0.6,4.3,0.2,5.9c0.8,1.5,4.1,2,4.6,3.6c0.5,1.6-1.8,4-1.5,5.7c0.3,1.7,3.3,3.1,3.4,4.8c0.1,1.7-2.9,3.3-3,5
				C73.5,43.3,76,45.5,75.6,47.2z"/>
		</g>
	</g>
	<g>
		<path class="st2" d="M23.4,33.9c-0.9,2-2.1,4-3.3,5.5c0.3,0.3,0.7,0.7,1.2,1.3c1.3,1.3,3.4,2,6.1,2.7c2.6,0.7,6.8,1.5,9.4,1.8
			c-0.5,0.7-1.3,1.9-1.5,2.6c-1.9-0.4-6-1.2-8.7-1.9c-3-0.8-4.9-1.5-6.3-2.9c-0.8-0.8-1.4-1.7-1.9-1.9c-0.5-0.1-1.7,1.2-2.6,2.4
			l-1.2-3c1-0.7,2.1-1.3,2.9-1.6c0.8-1,1.6-2.3,2.3-3.6L17,34.4c0.9-1.2,2-2.9,2.9-4.6l-2.1-0.5l0.6-2.4l5.4,1.4
			c-0.9,1.5-1.9,3.2-2.8,4.6l0.9,0.2l0.4,0L23.4,33.9z M21,26.9c0-1.1-0.2-2.9-0.2-4.3l2.6-0.1c0.1,1.3,0.3,3,0.4,4.1L21,26.9z
			 M27.2,30.2l-2.9-0.7l0.5-2l6,1.5l0.3-1.2l-4.5-1.2l0.5-1.9l4.5,1.2l0.3-1.4l2.7,0.7l-0.3,1.4l4.7,1.2l-0.5,1.9l-4.7-1.2l-0.3,1.2
			l6.1,1.5l-0.5,2L36,32.4l0.5,0.3c-0.5,0.6-1,1.1-1.5,1.5l3.4,0.9L37.9,37L32,35.5l-0.3,1l5,1.3l-0.5,1.9l-5-1.3L31,39.5l5.9,1.5
			l-0.5,2l-5.9-1.5l-0.5,1.8l-2.7-0.7l0.5-1.8l-5.7-1.4l0.5-2l5.7,1.4l0.3-1.1l-4.8-1.2l0.5-1.9l4.8,1.2l0.3-1l-5.7-1.4l0.5-1.9
			l3,0.8c0-0.6-0.1-1.3-0.3-2L27.2,30.2z M32.6,33.4c0.4-0.4,0.8-1,1.1-1.5l-4.2-1.1c0.2,0.7,0.3,1.4,0.3,1.9l-0.7,0l4,1L32.6,33.4z
			"/>
		<path class="st2" d="M47,43.1c-0.1-0.7-0.3-1.8-0.5-2.8l-2.6,10.2l-2.5-0.6l2.4-9.6c-1.1,1.9-2.4,3.6-3.5,4.7
			c-0.1-0.9-0.3-2.3-0.6-3.1c1.7-1.4,3.7-4.3,5-6.8l-2.5-0.6l0.6-2.5l2.9,0.7l1.1-4.3l2.5,0.6l-1.1,4.3l2.2,0.6l-0.6,2.5l-2.2-0.6
			l-0.3,1c0.4,0.9,1.4,4,1.7,4.8L47,43.1z M51.7,47.4c-1.2,1.4-2.9,2.7-4.3,3.5c-0.4-0.5-1.2-1.5-1.7-2c1.4-0.6,2.8-1.7,3.8-2.8
			L51.7,47.4z M54.8,33.6l-3.9-1l0.5-2.2l13,3.3L63.9,36l-4.1-1l-0.3,1l3.7,0.9l-1.4,5.6l-12.2-3.1l1.4-5.6l3.4,0.9L54.8,33.6z
			 M55.4,47.1L53.9,53l-2.4-0.6l1.5-5.9l-5.2-1.3l0.5-2.1l13.1,3.3l-0.5,2.1L55.4,47.1z M49.9,42.5l0.5-2.1L60.7,43l-0.5,2.1
			L49.9,42.5z M52.3,38l1.2,0.3l0.4-1.7l-1.2-0.3L52.3,38z M57.9,34.4l-1.2-0.3l-0.3,1l1.2,0.3L57.9,34.4z M55.5,38.8l1.2,0.3
			l0.4-1.7l-1.2-0.3L55.5,38.8z M58,48.3c0.8,1.3,1.6,3.1,2,4.3l-2.4,0.7c-0.2-1.2-1-3.1-1.8-4.5L58,48.3z M59.1,37.9l-0.4,1.7
			l1.3,0.3l0.4-1.7L59.1,37.9z"/>
	</g>
</g>
</svg>
