<?xml version="1.0" encoding="utf-8"?>
<!-- Generator: Adobe Illustrator 22.0.1, SVG Export Plug-In . SVG Version: 6.00 Build 0)  -->
<svg version="1.1" id="圖層_1" xmlns="http://www.w3.org/2000/svg" xmlns:xlink="http://www.w3.org/1999/xlink" x="0px" y="0px"
	 viewBox="0 0 55.2 23.2" style="enable-background:new 0 0 55.2 23.2;" xml:space="preserve">
<style type="text/css">
	.st0{fill:#FFF43C;}
	.st1{fill:#01AA4F;}
</style>
<g>
	<path class="st0" d="M44.2,22.1H11.1c-5.8,0-10.5-4.7-10.5-10.5v0c0-5.8,4.7-10.5,10.5-10.5h33.1c5.8,0,10.5,4.7,10.5,10.5v0
		C54.6,17.4,49.9,22.1,44.2,22.1z"/>
	<g>
		<path class="st1" d="M11.8,12.3l6.3,4.2c0.5,0.3,1.2,0,1.2-0.6V7.4c0-0.6-0.7-1-1.2-0.6L11.8,11C11.4,11.3,11.4,12,11.8,12.3z"/>
		<path class="st1" d="M43.4,11l-6.3-4.2c-0.5-0.3-1.2,0-1.2,0.6v8.4c0,0.6,0.7,1,1.2,0.6l6.3-4.2C43.9,12,43.9,11.3,43.4,11z"/>
	</g>
</g>
</svg>
