<?xml version="1.0" encoding="utf-8"?>
<!-- Generator: Adobe Illustrator 21.1.0, SVG Export Plug-In . SVG Version: 6.00 Build 0)  -->
<svg version="1.1" id="Layer_1" xmlns="http://www.w3.org/2000/svg" xmlns:xlink="http://www.w3.org/1999/xlink" x="0px" y="0px"
	 viewBox="0 0 32 32" style="enable-background:new 0 0 32 32;" xml:space="preserve">
<style type="text/css">
	.st0{fill:#E6E6E6;}
	.st1{fill:#188FD1;}
	.st2{opacity:0.2;enable-background:new    ;}
	.st3{fill:#EA3939;}
	.st4{fill:#FFFFFF;}
</style>
<g>
	<path class="st0" d="M26.6,6.4C23.7,3.5,20.1,2,16,2c-0.8,0-1.5,0.1-2.2,0.2c0,0-0.1-0.1-0.1-0.1c0.5-0.3,0.6-0.7,0.5-1.1
		C14.1,0.3,13.6,0,12.8,0c-0.2,0-0.3,0-0.5,0.1c-0.5,0.1-0.8,0.3-1.1,0.6c-0.3,0.3-0.4,0.6-0.3,1c0.1,0.5,0.4,0.8,0.9,0.9v0.1
		C8.7,3.5,6.1,5.3,4.1,7.9C2,10.6,1,13.6,1,17c0,4.1,1.5,7.7,4.4,10.6S11.9,32,16,32s7.7-1.5,10.6-4.4S31,21.1,31,17
		S29.5,9.3,26.6,6.4z M24.1,25.1c-1.4,1.4-3,2.3-4.9,2.9l-1.3-2.2l-0.4,2.5c-0.5,0.1-1,0.1-1.5,0.1c-3.1,0-5.8-1.1-8.1-3.3
		c-1.4-1.4-2.3-3-2.9-4.9l2.2-1.3l-2.5-0.4c-0.1-0.5-0.1-1-0.1-1.5c0-3.1,1.1-5.8,3.3-8.1c1.4-1.4,3-2.3,4.9-2.9l1.3,2.2l0.4-2.5
		c0.5-0.1,1-0.1,1.5-0.1c3.1,0,5.8,1.1,8.1,3.3c1.4,1.4,2.3,3,2.9,4.9l-2.2,1.3l2.5,0.4c0.1,0.5,0.1,1,0.1,1.5
		C27.4,20.1,26.3,22.8,24.1,25.1z"/>
	<path d="M13.5,15.4c-0.5,0.7-0.6,1.5-0.4,2.3c0,0.2,0.1,0.4,0.2,0.6l1.7-2.3l2.3-1.7c-0.3-0.1-0.5-0.2-0.8-0.3c-0.1,0-0.3,0-0.4,0
		c-0.2,0-0.4,0-0.6,0.1C14.6,14.2,14,14.7,13.5,15.4z"/>
	<path d="M18.8,18.2c0.3-0.6,0.3-1.2,0.2-1.8c0-0.2-0.1-0.4-0.2-0.6l-1.7,2.3l-2.3,1.7c0.3,0.1,0.5,0.2,0.8,0.3c0.1,0,0.3,0,0.4,0
		c0.2,0,0.4,0,0.6-0.1c0.3-0.1,0.6-0.2,0.9-0.4C18.1,19.2,18.5,18.8,18.8,18.2z"/>
	<path class="st1" d="M27.3,15.5l-2.5-0.4l2.2-1.3c-0.5-1.9-1.5-3.5-2.9-4.9c-2.3-2.2-4.9-3.3-8.1-3.3c-0.5,0-1,0-1.5,0.1l-0.4,2.5
		L12.8,6c-1.9,0.5-3.5,1.5-4.9,2.9c-2.2,2.3-3.3,4.9-3.3,8.1c0,0.5,0,1,0.1,1.5l2.5,0.4l-2.2,1.3C5.6,22,6.6,23.7,7.9,25
		c2.3,2.2,4.9,3.3,8.1,3.3c0.5,0,1,0,1.5-0.1l0.4-2.5l1.3,2.2c1.9-0.5,3.5-1.5,4.9-2.9c2.2-2.3,3.3-4.9,3.3-8.1
		C27.4,16.5,27.3,16,27.3,15.5z"/>
	<path class="st2" d="M20.7,18.7L18.5,17c0,0,0-0.1,0-0.1l3.9-2.8l-4.6,1.1c0,0,0,0-0.1-0.1l0.1-2.8L16,14.5c0,0-0.1,0-0.1,0
		L13,10.7l1.1,4.6c0,0,0,0-0.1,0.1l-2.8-0.1l2.2,1.7c0,0,0,0.1,0,0.1L9.7,20l4.6-1.1c0,0,0,0,0.1,0.1l-0.1,2.8l1.7-2.2
		c0,0,0.1,0,0.1,0l2.8,3.9l-1.1-4.6c0,0,0,0,0.1-0.1L20.7,18.7z M16,19c-1.1,0-2-0.9-2-2s0.9-2,2-2s2,0.9,2,2S17.1,19,16,19z"/>
	<polygon class="st3" points="17,18 23.8,9.2 15,16 	"/>
	<polygon class="st4" points="15,16 8.2,24.8 17,18 	"/>
</g>
</svg>
