<?xml version="1.0" encoding="utf-8"?>
<!-- Generator: Adobe Illustrator 22.0.1, SVG Export Plug-In . SVG Version: 6.00 Build 0)  -->
<svg version="1.1" id="圖層_1" xmlns="http://www.w3.org/2000/svg" xmlns:xlink="http://www.w3.org/1999/xlink" x="0px" y="0px"
	 viewBox="0 0 30.3 47.4" style="enable-background:new 0 0 30.3 47.4;" xml:space="preserve">
<style type="text/css">
	.st0{fill:#FFFFFF;}
	.st1{fill:#15A04C;}
</style>
<g>
	<path class="st0" d="M15.2,47.3L15.2,47.3C6.8,47.3,0,40.5,0,32.2v-17C0,6.8,6.8,0.1,15.2,0.1h0c8.4,0,15.1,6.8,15.1,15.1v17
		C30.3,40.5,23.5,47.3,15.2,47.3z"/>
	<path class="st1" d="M15.2,21L15.2,21c-1.3,0-2.4-1.1-2.4-2.4v-6.8c0-1.3,1.1-2.4,2.4-2.4h0c1.3,0,2.4,1.1,2.4,2.4v6.8
		C17.5,19.9,16.5,21,15.2,21z"/>
</g>
</svg>
