<?xml version="1.0" encoding="utf-8"?>
<!-- Generator: Adobe Illustrator 22.0.1, SVG Export Plug-In . SVG Version: 6.00 Build 0)  -->
<svg version="1.1" id="圖層_1" xmlns="http://www.w3.org/2000/svg" xmlns:xlink="http://www.w3.org/1999/xlink" x="0px" y="0px"
	 viewBox="0 0 62.7 39" style="enable-background:new 0 0 62.7 39;" xml:space="preserve">
<style type="text/css">
	.st0{fill:#FFFFFF;}
</style>
<g>
	<g transform="translate(0,-952.36218)">
		<path class="st0" d="M30.9,953.7c-0.6,0-1.1,0.5-1.1,1.1c0,0.6,0.5,1.1,1.1,1.1c0.6,0,1.1-0.5,1.1-1.1
			C32,954.2,31.5,953.7,30.9,953.7z M30.5,956.3l-3.3,4.7l-3.9-1.5c-0.1,0.1-0.3,0.3-0.5,0.3l2,5.8h12.4l2-5.8
			c-0.2-0.1-0.4-0.2-0.5-0.3l-3.9,1.5l-3.3-4.7c-0.1,0-0.3,0.1-0.4,0.1C30.8,956.4,30.6,956.4,30.5,956.3z M22.3,957.7
			c-0.5,0-0.9,0.4-0.9,0.9s0.4,0.9,0.9,0.9s0.9-0.4,0.9-0.9S22.8,957.7,22.3,957.7z M39.5,957.7c-0.5,0-0.9,0.4-0.9,0.9
			s0.4,0.9,0.9,0.9c0.5,0,0.9-0.4,0.9-0.9S40,957.7,39.5,957.7z M24.7,966.1v2.2h12.4v-2.2H24.7z"/>
	</g>
	<g>
		<path class="st0" d="M6,32.9c0-0.2-0.1-0.5-0.2-0.8c-3.1,0.5-3.6,0.6-3.9,0.7c-0.1-0.3-0.3-0.9-0.4-1.2c0.3-0.1,0.6-0.4,1.1-0.9
			c0.2-0.2,0.6-0.7,1.1-1.4c-1.4,0.2-1.7,0.2-1.9,0.3c-0.1-0.2-0.3-0.8-0.4-1.1c0.3-0.1,0.5-0.3,0.8-0.8c0.3-0.4,1.3-2,1.9-3.5
			l1.2,0.5c-0.6,1.2-1.4,2.5-2.1,3.5l1.4-0.1c0.4-0.6,0.7-1.2,1-1.8l1.1,0.7c-0.9,1.5-2,3.1-3.2,4.3l2.1-0.3
			c-0.1-0.4-0.3-0.8-0.4-1.2l1-0.3c0.4,0.9,0.8,2.2,0.9,2.9L6,32.9z M3.1,33.5c-0.1,1.2-0.4,2.5-0.7,3.4c-0.2-0.1-0.8-0.3-1-0.4
			c0.3-0.8,0.5-2.1,0.6-3.2L3.1,33.5z M4.8,33.3c0.2,1,0.3,2.2,0.4,3l-1.1,0.2c0-0.8-0.2-2.1-0.4-3L4.8,33.3z M6.3,32.9
			c0.3,0.7,0.6,1.7,0.7,2.3l-1,0.3c-0.1-0.6-0.4-1.6-0.6-2.4L6.3,32.9z M14.3,35.8v1.2H6.5v-1.2h1.2V25h5.7v10.7H14.3z M8.8,26.2
			v2.3h3.3v-2.3H8.8z M12.1,29.7H8.8v2.4h3.3V29.7z M8.8,35.8h3.3v-2.5H8.8V35.8z"/>
		<path class="st0" d="M23.3,31c0,0,0,0.4,0,0.5c-0.2,3.4-0.3,4.7-0.7,5.2c-0.3,0.3-0.5,0.4-1,0.4c-0.4,0.1-1,0.1-1.7,0
			c0-0.4-0.2-0.8-0.4-1.1c0.6,0.1,1.3,0.1,1.5,0.1c0.2,0,0.4,0,0.5-0.2c0.2-0.3,0.4-1.2,0.5-3.8h-2c-0.3,2-1,3.8-2.4,5.1
			c-0.2-0.3-0.6-0.7-0.9-0.9c1.9-1.5,2.2-4.2,2.3-6.7h-1.5V25h5.6v4.7h-2.9c0,0.4-0.1,0.9-0.1,1.3H23.3z M18.8,28.5h3.1v-2.4h-3.1
			V28.5z M25.7,33.8h-1.3V26h1.3V33.8z M29.1,24.6v10.9c0,0.8-0.2,1.2-0.7,1.4c-0.5,0.2-1.4,0.2-2.6,0.2c-0.1-0.3-0.3-1-0.5-1.3
			c1,0,1.8,0,2.1,0c0.3,0,0.4-0.1,0.4-0.3V24.6H29.1z"/>
		<path class="st0" d="M43.6,37.2h-1.3v-0.7h-5.8v0.7h-1.3v-4.5c-0.7,0.2-1.5,0.4-2.2,0.6c-0.1-0.4-0.4-0.9-0.7-1.2
			c1.7-0.4,3.5-1,5.1-1.8c-0.6-0.6-1.6-1.4-2.5-2.1c-0.4,0.3-0.9,0.6-1.4,0.8c-0.2-0.3-0.6-0.8-0.9-1c2.3-1,3.8-2.5,4.7-3.8l1.5,0.3
			c-0.3,0.4-0.5,0.8-0.9,1.1h4.6l0.2-0.1l0.9,0.5c-1.1,2.1-2.9,3.8-5,5h5.1V37.2z M36.7,26.9c-0.3,0.2-0.5,0.4-0.8,0.6
			c0.9,0.6,2,1.5,2.6,2.1c1.2-0.8,2.2-1.7,3-2.7H36.7z M42.2,35.3v-2.9h-5.8v2.9H42.2z"/>
		<path class="st0" d="M52.2,33.4h-4.4v-1.3h4.4V33.4z M51.8,27.7h-3.7v-1.3h3.7V27.7z M56.2,29.6c0,0.2,0,0.3,0,0.4
			c0.6,2.8,1.9,5,4.4,5.9c-0.3,0.3-0.7,0.8-0.9,1.2c-1.9-0.8-3.2-2.4-4-4.4c-0.5,1.6-1.7,3.3-4.2,4.6c-0.2-0.3-0.7-0.8-1-1.1
			c3.9-1.9,4.2-4.7,4.2-6.6v-1.2h1.4V29.6z M53.8,27.9c-0.4,1.1-0.9,2.1-1.5,2.9c-0.3-0.2-1-0.6-1.3-0.8c1.1-1.3,1.9-3.5,2.3-5.8
			l1.4,0.3c-0.1,0.7-0.3,1.4-0.5,2H59l0.3-0.1l0.9,0.5c-0.3,1.4-1,2.9-1.5,3.9c-0.3-0.1-0.8-0.4-1.1-0.5c0.3-0.6,0.7-1.6,0.9-2.5
			H53.8z"/>
	</g>
</g>
</svg>
