<?xml version="1.0" encoding="utf-8"?>
<!-- Generator: Adobe Illustrator 22.0.1, SVG Export Plug-In . SVG Version: 6.00 Build 0)  -->
<svg version="1.1" id="分離模式" xmlns="http://www.w3.org/2000/svg" xmlns:xlink="http://www.w3.org/1999/xlink" x="0px"
	 y="0px" viewBox="0 0 61.8 38" style="enable-background:new 0 0 61.8 38;" xml:space="preserve">
<style type="text/css">
	.st0{fill:#FFFFFF;}
</style>
<g>
	<g>
		<path class="st0" d="M32.7,5.8c-0.1,0-0.2,0-0.2-0.1c-0.5-1.4-0.9-2.9-1.4-4.3c0,0,0-0.1-0.1-0.2c0,0.1,0,0.1-0.1,0.2
			c-0.5,1.4-0.9,2.9-1.4,4.3c0,0.1-0.1,0.2-0.2,0.2c-1.5,0-3.1,0-4.6,0h-0.1c0,0,0.1,0.1,0.1,0.1c1.3,0.9,2.5,1.8,3.8,2.6
			c0.1,0.1,0.1,0.1,0.1,0.2c-0.4,1.1-0.8,2.3-1.2,3.4c-0.1,0.3-0.2,0.7-0.4,1.1c0.1,0,0.1-0.1,0.2-0.1c1.2-0.9,2.5-1.8,3.7-2.7
			c0.1-0.1,0.2-0.1,0.3,0c0.9,0.7,1.9,1.3,2.8,2c0.4,0.3,0.7,0.5,1.1,0.8c0-0.1,0-0.1,0-0.2c-0.5-1.4-1-2.9-1.5-4.3
			c0-0.1,0-0.2,0.1-0.3c1.3-0.9,2.5-1.7,3.8-2.6c0,0,0.1-0.1,0.1-0.1h-0.2C35.8,5.8,34.2,5.8,32.7,5.8z"/>
		<path class="st0" d="M18.7,8.9c-0.1,0-0.2,0-0.2-0.1c-0.5-1.4-0.9-2.9-1.4-4.3c0,0,0-0.1-0.1-0.2c0,0.1,0,0.1-0.1,0.2
			c-0.5,1.4-0.9,2.9-1.4,4.3c0,0.1-0.1,0.2-0.2,0.2c-1.5,0-3.1,0-4.6,0h-0.1c0,0,0.1,0.1,0.1,0.1c1.3,0.9,2.5,1.8,3.8,2.6
			c0.1,0.1,0.1,0.1,0.1,0.2c-0.4,1.1-0.8,2.3-1.2,3.4c-0.1,0.3-0.2,0.7-0.4,1.1c0.1,0,0.1-0.1,0.2-0.1c1.2-0.9,2.5-1.8,3.7-2.7
			c0.1-0.1,0.2-0.1,0.3,0c0.9,0.7,1.9,1.3,2.8,2c0.4,0.3,0.7,0.5,1.1,0.8c0-0.1,0-0.1,0-0.2c-0.5-1.4-1-2.9-1.5-4.3
			c0-0.1,0-0.2,0.1-0.3c1.3-0.9,2.5-1.7,3.8-2.6c0,0,0.1-0.1,0.1-0.1h-0.2C21.8,8.9,20.2,8.9,18.7,8.9z"/>
		<path class="st0" d="M47.6,11.6c1.3-0.9,2.5-1.7,3.8-2.6c0,0,0.1-0.1,0.1-0.1h-0.2c-1.5,0-3.1,0-4.6,0c-0.1,0-0.2,0-0.2-0.1
			c-0.5-1.4-0.9-2.9-1.4-4.3c0,0,0-0.1-0.1-0.2c0,0.1,0,0.1-0.1,0.2c-0.5,1.4-0.9,2.9-1.4,4.3c0,0.1-0.1,0.2-0.2,0.2
			c-1.5,0-3.1,0-4.6,0h-0.1c0,0,0.1,0.1,0.1,0.1c1.3,0.9,2.5,1.8,3.8,2.6c0.1,0.1,0.1,0.1,0.1,0.2c-0.4,1.1-0.8,2.3-1.2,3.4
			c-0.1,0.3-0.2,0.7-0.4,1.1c0.1,0,0.1-0.1,0.2-0.1c1.2-0.9,2.5-1.8,3.7-2.7c0.1-0.1,0.2-0.1,0.3,0c0.9,0.7,1.9,1.3,2.8,2
			c0.4,0.3,0.7,0.5,1.1,0.8c0-0.1,0-0.1,0-0.2c-0.5-1.4-1-2.9-1.5-4.3C47.4,11.7,47.5,11.7,47.6,11.6z"/>
	</g>
	<g>
		<path class="st0" d="M7.8,33.8c0.1,0.3,0.2,0.8,0.3,1C6,36,5.6,36.2,5.4,36.4c-0.1-0.3-0.3-0.9-0.5-1.2c0.2-0.1,0.4-0.3,0.4-0.8
			v-1.9H4.6c-0.2,1.9-0.6,3.5-2.2,4.5c-0.1-0.3-0.5-0.7-0.7-0.9c1.3-0.8,1.6-2,1.8-3.6H2.5v-3h4.8v3H6.5v2L7.8,33.8z M7.8,28.8H1.9
			v-1h1.3c-0.1-0.4-0.3-0.8-0.5-1.2l1-0.2c0.2,0.4,0.4,1,0.6,1.4h1.1c0.2-0.5,0.3-1,0.4-1.5l1.2,0.2c-0.2,0.4-0.3,0.9-0.5,1.2h1.2
			V28.8z M7.7,26.1H2.1v-1h2.2c-0.1-0.3-0.2-0.6-0.3-0.8L5.1,24c0.2,0.3,0.3,0.7,0.5,1.1h2.1V26.1z M3.6,31.6h2.6v-1.3H3.6V31.6z
			 M13.1,35.8c0.1,0,0.2,0,0.3-0.1c0.1,0,0.1-0.1,0.2-0.3c0-0.2,0-0.6,0.1-1.1c0.2,0.2,0.6,0.4,0.9,0.5c0,0.6-0.1,1.1-0.2,1.4
			c-0.1,0.2-0.3,0.4-0.5,0.5c-0.2,0.1-0.5,0.1-0.7,0.1h-0.8c-0.3,0-0.7-0.1-0.9-0.3c-0.2-0.2-0.3-0.4-0.3-1.3v-2.8h-0.7
			c-0.2,2.1-0.8,3.7-2.8,4.6c-0.1-0.3-0.5-0.7-0.7-0.9c1.8-0.7,2.2-2,2.4-3.7H8.4v-3h5.2v3h-1.2v2.9c0,0.2,0,0.4,0.1,0.4
			c0.1,0,0.1,0.1,0.3,0.1H13.1z M14.2,28.8H8.1v-1h1.2c-0.1-0.4-0.3-0.8-0.4-1.2l1-0.2c0.2,0.4,0.4,1,0.5,1.4h1.1
			c0.2-0.5,0.4-1,0.4-1.4l1.1,0.2c-0.2,0.4-0.4,0.8-0.5,1.2h1.6V28.8z M13.9,26.1H8.2v-1h2.1c-0.1-0.3-0.2-0.6-0.3-0.8l1.1-0.2
			c0.2,0.3,0.3,0.7,0.4,1h2.3V26.1z M9.5,31.5h2.9v-1.2H9.5V31.5z"/>
		<path class="st0" d="M27.4,35.1h-1.5c1.3,0.3,2.6,0.8,3.4,1l-1.1,0.7c-0.9-0.4-2.5-0.9-4-1.3l0.5-0.5H22l0.6,0.4
			c-1.1,0.6-3,1.1-4.5,1.4c-0.2-0.2-0.5-0.6-0.8-0.8c1.2-0.2,2.7-0.6,3.7-1h-1.5v-3.2c-0.6,0.3-1.2,0.6-1.8,0.8
			c-0.2-0.3-0.5-0.7-0.8-0.9c1.2-0.3,2.4-0.9,3.3-1.6h-2.9v-0.9h3.5v-0.5H19V28h1.8v-0.5h-2v-0.8h2v-0.5H22v0.5h2.9v-0.5h1.2v0.5h2
			v0.8h-2V28H28v0.7h-1.9v0.5h3.5v0.9h-2.7c0.9,0.6,2,1.1,3.1,1.4c-0.3,0.2-0.6,0.7-0.8,1c-0.6-0.2-1.2-0.5-1.8-0.8V35.1z
			 M18.7,27.1h-1.2v-2.2h5.4c-0.1-0.2-0.2-0.4-0.3-0.6l1.3-0.3c0.2,0.3,0.4,0.7,0.5,1h5.1v2.2h-1.2v-1.2h-9.6V27.1z M26.2,31.4h-5.4
			V32h5.4V31.4z M26.2,32.6h-5.4v0.5h5.4V32.6z M26.2,33.8h-5.4v0.6h5.4V33.8z M21.7,30.2c-0.2,0.2-0.4,0.4-0.6,0.6H26
			c-0.2-0.2-0.4-0.4-0.6-0.6H21.7z M22,28h2.9v-0.5H22V28z M22,29.2h2.9v-0.5H22V29.2z"/>
		<path class="st0" d="M42,29.4c0.2,2,0.9,4.9,3.4,6.4c-0.4,0.2-0.7,0.7-1,1c-1.8-1.1-2.7-3-3.2-4.8c-0.5,1.8-1.4,3.5-3.4,4.9
			c-0.2-0.3-0.5-0.7-0.8-0.9v0.9h-1.2v-4.8h-1.2v0.3c0,1.1-0.2,3-1.3,4.1c-0.2-0.2-0.7-0.5-1-0.6c1-1.1,1.1-2.6,1.1-3.5v-0.3h-1V31
			h3.4v-1.8h-2.3v0H33v-4.5h1.2V28h1.7v-3.9h1.2v11.8c2.5-1.8,3.2-4.2,3.3-6.5h-2.8v-1.3h2.9V28v-3.9h1.2V28v0.1h3.6v1.3H42z
			 M43.9,27.5c-0.3-0.7-1-1.8-1.7-2.5l1-0.5c0.7,0.7,1.4,1.8,1.7,2.5L43.9,27.5z"/>
		<path class="st0" d="M48,36c0.5-0.6,0.9-1.7,1.1-2.5l1.1,0.4c-0.3,0.9-0.6,1.9-1.1,2.6L48,36z M53.7,27.5
			c-0.1-0.2-0.3-0.4-0.4-0.7c-4,0.4-4.5,0.4-4.9,0.6c-0.1-0.2-0.2-0.8-0.4-1.1c0.2,0,0.5-0.2,0.7-0.4c0.3-0.2,1.2-1,1.8-1.9l1.2,0.4
			c-0.5,0.6-1.1,1.2-1.8,1.7l2.6-0.2c-0.2-0.3-0.4-0.5-0.7-0.8l0.9-0.5c0.6,0.7,1.4,1.7,1.8,2.3L53.7,27.5z M53.7,32.1
			c0,0.5-0.1,0.7-0.5,0.9c-0.4,0.2-0.9,0.2-1.7,0.2c-0.1-0.3-0.2-0.6-0.3-0.9c0.5,0,1,0,1.1,0c0.2,0,0.2,0,0.2-0.2v-1
			c-0.9,0.3-1.7,0.6-2.5,0.9l-0.3-0.8c-0.1,0.7-0.3,1.5-0.8,2c-0.2-0.2-0.7-0.6-0.9-0.7c0.7-0.8,0.8-1.9,0.8-2.8v-2.2h4.9V32.1z
			 M49.9,29.9c0,0.4,0,0.8-0.1,1.2c0.7-0.2,1.7-0.4,2.8-0.7v-1.7h-2.7V29.9z M50.5,28.9c0.7,0.2,1.6,0.6,2.1,0.8L52,30.4
			c-0.5-0.3-1.4-0.7-2.1-0.9L50.5,28.9z M55.9,35.7c0.6,0,0.8-0.2,0.8-1.4c0.3,0.2,0.8,0.4,1.1,0.4c-0.1,1.7-0.5,2-1.8,2h-2.8
			c-1.7,0-2.1-0.3-2.1-1.4v-1.6h1.3v1.6c0,0.3,0.1,0.4,0.9,0.4H55.9z M54.8,35.1c-0.3-0.4-0.9-1.2-1.4-1.7l0.9-0.6
			c0.5,0.5,1.1,1.2,1.4,1.6L54.8,35.1z M56.6,28.3c-1.3,0-1.6-0.4-1.6-1.6v-2.5h1.2v1h3.3v1h-3.3v0.6c0,0.4,0.1,0.5,0.4,0.5h2.1
			c0.3,0,0.9,0,1.1-0.1c0,0.3,0.1,0.8,0.1,1c-0.2,0.1-0.8,0.1-1.2,0.1H56.6z M56.8,33c-1.4,0-1.7-0.3-1.7-1.4v-2.9h1.2v1h3.4v1h-3.4
			v0.8c0,0.4,0.1,0.4,0.7,0.4h1.8c0.4,0,0.5-0.1,0.6-0.8c0.3,0.2,0.7,0.4,1.1,0.4c-0.1,1.2-0.5,1.5-1.5,1.5H56.8z M59.2,33.4
			c0.4,0.8,0.9,1.9,1.1,2.5l-1.2,0.4c-0.2-0.7-0.6-1.8-1-2.6L59.2,33.4z"/>
	</g>
</g>
</svg>
