<?xml version="1.0" encoding="utf-8"?>
<!-- Generator: Adobe Illustrator 22.0.1, SVG Export Plug-In . SVG Version: 6.00 Build 0)  -->
<svg version="1.1" id="圖層_1" xmlns="http://www.w3.org/2000/svg" xmlns:xlink="http://www.w3.org/1999/xlink" x="0px" y="0px"
	 viewBox="0 0 87 86.6" style="enable-background:new 0 0 87 86.6;" xml:space="preserve">
<style type="text/css">
	.st0{fill:#EF3446;}
</style>
<g>
	<g>
		<path class="st0" d="M41.8,35.9c-0.4,1.4-0.8,2.1-1.9,2.3c-1,0.2-2.4,0-4.2-0.5c0.1-0.8,0-2.2-0.2-3c1.2,0.3,2.5,0.7,2.9,0.7
			c0.4,0.1,0.5,0,0.6-0.3l2.5-10L28,21.8L24.7,35l-2.9-0.7l4-16l8,2l1.8-7l3,0.8l-1.8,7l8.2,2.1L41.8,35.9z M28.6,18.7
			c-0.2-1.5-0.8-3.9-1.6-5.7l2.9-0.4c0.9,1.8,1.6,4,1.8,5.6L28.6,18.7z M30.5,32.1l-0.4,1.5l-2.6-0.7l2.2-8.9l9.1,2.3l-1.9,7.4
			L30.5,32.1z M31.7,27.1l-0.6,2.5l3.7,0.9l0.6-2.5L31.7,27.1z M46.5,17.6c-1.6,1.6-3.4,3.3-4.8,4.4l-2.2-1.6c1.4-1.1,3.2-3,4.3-4.5
			L46.5,17.6z"/>
		<path class="st0" d="M62.6,33.6c1.5,3.3,4.1,6.7,7,9c-0.8,0.4-2.1,1.4-2.8,2c-2.5-2.2-4.8-5.4-6.3-8.8l-2,7.8l-3.1-0.8l1.9-7.7
			c-2.9,2.1-6.4,3.8-9.7,4.6c-0.3-0.9-1-2.3-1.5-3.1c3.6-0.6,7.6-2.3,10.5-4.5l-8-2l0.7-2.9l9.3,2.3l0.8-3.1l-7.5-1.9l0.7-2.9
			l7.5,1.9l0.9-3.7l3.1,0.8l-0.9,3.7l7.7,1.9l-0.7,2.9l-7.7-1.9L62,30.4l9.5,2.4l-0.7,2.9L62.6,33.6z"/>
		<path class="st0" d="M22.1,54c-1,2.1-2.3,4.3-3.6,5.9c0.3,0.3,0.7,0.8,1.3,1.3c1.4,1.4,3.7,2.2,6.6,2.9c2.8,0.7,7.3,1.6,10.1,1.9
			c-0.5,0.7-1.4,2-1.6,2.8c-2-0.4-6.4-1.3-9.3-2c-3.3-0.8-5.3-1.6-6.8-3.1c-0.9-0.8-1.5-1.9-2.1-2c-0.6-0.1-1.9,1.3-2.8,2.6L12.7,61
			c1.1-0.8,2.2-1.4,3.1-1.7c0.9-1.1,1.8-2.5,2.5-3.9l-3.1-0.8c0.9-1.3,2.1-3.1,3.1-4.9l-2.2-0.6l0.7-2.6l5.8,1.4c-1,1.6-2,3.4-3,5
			l1,0.2l0.5,0L22.1,54z M19.6,46.5c0-1.2-0.2-3.1-0.3-4.6l2.8-0.1c0.1,1.4,0.3,3.2,0.4,4.4L19.6,46.5z M26.2,50.1l-3.1-0.8l0.5-2.1
			l6.5,1.6l0.3-1.3l-4.9-1.2l0.5-2l4.9,1.2l0.4-1.5l2.9,0.7l-0.4,1.4l5.1,1.3l-0.5,2l-5.1-1.3L33,49.6l6.5,1.6L39,53.3l-3.4-0.8
			l0.6,0.3c-0.6,0.6-1.1,1.1-1.6,1.6l3.6,0.9l-0.5,2.1l-6.3-1.6l-0.3,1.1l5.4,1.4l-0.5,2l-5.4-1.4L30.3,60l6.3,1.6l-0.5,2.1
			l-6.3-1.6l-0.5,2l-2.9-0.7l0.5-2l-6.1-1.5l0.5-2.1l6.1,1.5l0.3-1.2l-5.2-1.3l0.5-2l5.2,1.3l0.3-1.1l-6.1-1.5l0.5-2.1l3.2,0.8
			c0-0.7-0.1-1.4-0.3-2.1L26.2,50.1z M32,53.5c0.4-0.5,0.9-1.1,1.2-1.7l-4.5-1.1c0.2,0.7,0.3,1.5,0.3,2l-0.7,0l4.3,1.1L32,53.5z"/>
		<path class="st0" d="M47.5,63.9c-0.1-0.8-0.3-1.9-0.5-3l-2.8,10.9l-2.7-0.7l2.6-10.3c-1.2,2-2.5,3.9-3.8,5.1
			c-0.1-0.9-0.4-2.4-0.6-3.3c1.8-1.6,4-4.6,5.4-7.3l-2.7-0.7l0.7-2.7l3.1,0.8l1.2-4.6l2.7,0.7l-1.2,4.6l2.4,0.6l-0.7,2.7l-2.4-0.6
			l-0.3,1.1c0.4,1,1.5,4.3,1.8,5.1L47.5,63.9z M52.6,68.5c-1.3,1.5-3.1,2.9-4.6,3.8c-0.4-0.6-1.3-1.6-1.8-2.1c1.5-0.6,3-1.8,4.1-3
			L52.6,68.5z M56.5,68.2l-1.6,6.3l-2.6-0.7l1.6-6.3l-5.6-1.4l0.6-2.3l14,3.5l-0.6,2.3L56.5,68.2z M55.8,53.7l-4.2-1l0.6-2.3l14,3.5
			l-0.6,2.3l-4.4-1.1L61,56.2l3.9,1l-1.5,6l-13.1-3.3l1.5-6l3.7,0.9L55.8,53.7z M50.6,63.2l0.6-2.2l11,2.8L61.6,66L50.6,63.2z
			 M53.2,58.4l1.3,0.3l0.5-1.8l-1.3-0.3L53.2,58.4z M56.6,59.3l1.3,0.3l0.5-1.8l-1.3-0.3L56.6,59.3z M59.3,69.5
			c0.9,1.4,1.7,3.4,2.1,4.6l-2.6,0.8c-0.3-1.2-1.1-3.3-1.9-4.8L59.3,69.5z M59.2,54.6l-1.3-0.3l-0.3,1.1l1.3,0.3L59.2,54.6z
			 M60.4,58.3L60,60.1l1.4,0.4l0.5-1.8L60.4,58.3z"/>
	</g>
	<path class="st0" d="M43.5,4.8C64.8,4.8,82,22,82,43.3S64.8,81.8,43.5,81.8S5,64.6,5,43.3S22.2,4.8,43.5,4.8 M43.5,0.8
		C20.1,0.8,1,19.9,1,43.3s19.1,42.5,42.5,42.5S86,66.7,86,43.3S66.9,0.8,43.5,0.8L43.5,0.8z"/>
</g>
</svg>
