<?xml version="1.0" encoding="utf-8"?>
<!-- Generator: Adobe Illustrator 24.0.1, SVG Export Plug-In . SVG Version: 6.00 Build 0)  -->
<svg version="1.1" id="圖層_1" xmlns="http://www.w3.org/2000/svg" xmlns:xlink="http://www.w3.org/1999/xlink" x="0px" y="0px"
	 viewBox="0 0 20 20" style="enable-background:new 0 0 20 20;" xml:space="preserve">
<style type="text/css">
	.st0{fill-rule:evenodd;clip-rule:evenodd;fill:#DADADA;}
	.st1{fill:#C3C3C3;}
</style>
<path class="st0" d="M10,0c5.5,0,10,4.5,10,10s-4.5,10-10,10S0,15.5,0,10S4.5,0,10,0z"/>
<path class="st1" d="M11,11.1h4.9c0.6,0,1-0.4,1-1s-0.4-1-1-1l-4.9,0V4.2c0-0.6-0.4-1-1-1s-1,0.4-1,1v4.9H4.1c-0.6,0-1,0.4-1,1
	c0,0.3,0.1,0.6,0.3,0.7c0.1,0.1,0.4,0.3,0.7,0.3H9V16c0,0.3,0.1,0.6,0.3,0.7C9.4,16.9,9.7,17,10,17c0.6,0,1-0.4,1-1V11.1z"/>
</svg>
