<?xml version="1.0" encoding="utf-8"?>
<!-- Generator: Adobe Illustrator 22.0.1, SVG Export Plug-In . SVG Version: 6.00 Build 0)  -->
<svg version="1.1" id="圖層_1" xmlns="http://www.w3.org/2000/svg" xmlns:xlink="http://www.w3.org/1999/xlink" x="0px" y="0px"
	 viewBox="0 0 20 20" style="enable-background:new 0 0 20 20;" xml:space="preserve">
<style type="text/css">
	.st0{fill:#FFF43C;}
</style>
<g transform="translate(0,-952.36218)">
	<path class="st0" d="M10,956.7c-0.5,0-0.8,0.4-0.8,0.8c0,0.5,0.4,0.8,0.8,0.8s0.8-0.4,0.8-0.8C10.8,957,10.5,956.7,10,956.7z
		 M9.6,958.7l-2.6,3.8l-3-1.2c-0.1,0.1-0.2,0.2-0.4,0.2l1.5,4.6h9.7l1.5-4.6c-0.1,0-0.2-0.1-0.4-0.2l-3,1.2l-2.6-3.8
		c-0.1,0-0.2,0-0.4,0C9.9,958.7,9.8,958.7,9.6,958.7z M3.2,959.7c-0.4,0-0.7,0.4-0.7,0.7c0,0.4,0.4,0.7,0.7,0.7s0.7-0.4,0.7-0.7
		C3.9,960.1,3.6,959.7,3.2,959.7z M16.8,959.7c-0.4,0-0.7,0.4-0.7,0.7c0,0.4,0.4,0.7,0.7,0.7s0.7-0.4,0.7-0.7
		C17.5,960.1,17.1,959.7,16.8,959.7z M5.1,966.4v1.8h9.7v-1.8H5.1z"/>
</g>
</svg>
