<?xml version="1.0" encoding="utf-8"?>
<!-- Generator: Adobe Illustrator 22.0.1, SVG Export Plug-In . SVG Version: 6.00 Build 0)  -->
<svg version="1.1" id="圖層_1" xmlns="http://www.w3.org/2000/svg" xmlns:xlink="http://www.w3.org/1999/xlink" x="0px" y="0px"
	 viewBox="0 0 20 20" style="enable-background:new 0 0 20 20;" xml:space="preserve">
<style type="text/css">
	.st0{fill:#FFFFFF;}
</style>
<g>
	<g>
		<path class="st0" d="M16.5,5.2h-2.3l-0.9-1.3C13,3.4,12.2,3,11.6,3H8.5C7.9,3,7.1,3.4,6.8,3.9L5.9,5.2H3.5c-1.3,0-2.4,1.1-2.4,2.4
			v7.1C1.2,16,2.2,17,3.5,17h12.9c1.3,0,2.4-1.1,2.4-2.4V7.5C18.8,6.2,17.8,5.2,16.5,5.2z M10,15.4c-2.4,0-4.3-1.9-4.3-4.3
			c0-2.4,1.9-4.3,4.3-4.3c2.4,0,4.3,1.9,4.3,4.3C14.3,13.5,12.4,15.4,10,15.4z M17.1,7.4h-1.3c-0.3,0-0.5-0.2-0.5-0.5
			c0-0.3,0.2-0.5,0.5-0.5h1.3c0.3,0,0.5,0.2,0.5,0.5C17.5,7.2,17.3,7.4,17.1,7.4z"/>
	</g>
</g>
</svg>
