<?xml version="1.0" encoding="utf-8"?>
<!-- Generator: Adobe Illustrator 24.0.1, SVG Export Plug-In . SVG Version: 6.00 Build 0)  -->
<svg version="1.1" id="圖層_1" xmlns="http://www.w3.org/2000/svg" xmlns:xlink="http://www.w3.org/1999/xlink" x="0px" y="0px"
	 viewBox="0 0 15 11.5" style="enable-background:new 0 0 15 11.5;" xml:space="preserve">
<style type="text/css">
	.st0{fill:#FDB903;}
</style>
<g transform="translate(0,-952.36218)">
	<path class="st0" d="M7.5,952.4c-0.5,0-0.9,0.4-0.9,0.9c0,0.5,0.4,0.9,0.9,0.9c0.5,0,0.9-0.4,0.9-0.9C8.4,952.8,8,952.4,7.5,952.4z
		 M7.2,954.4l-2.6,3.7l-3.1-1.2c-0.1,0.1-0.2,0.2-0.4,0.3l1.6,4.6h9.8l1.6-4.6c-0.2-0.1-0.3-0.1-0.4-0.3l-3.1,1.2l-2.6-3.7
		c-0.1,0-0.2,0-0.3,0C7.4,954.5,7.3,954.4,7.2,954.4z M0.7,955.5c-0.4,0-0.7,0.3-0.7,0.7s0.3,0.7,0.7,0.7s0.7-0.3,0.7-0.7
		S1.1,955.5,0.7,955.5z M14.3,955.5c-0.4,0-0.7,0.3-0.7,0.7s0.3,0.7,0.7,0.7c0.4,0,0.7-0.3,0.7-0.7S14.7,955.5,14.3,955.5z
		 M2.6,962.1v1.7h9.8v-1.7H2.6z"/>
</g>
</svg>
