<?xml version="1.0" encoding="utf-8"?>
<!-- Generator: Adobe Illustrator 22.0.1, SVG Export Plug-In . SVG Version: 6.00 Build 0)  -->
<svg version="1.1" id="圖層_1" xmlns="http://www.w3.org/2000/svg" xmlns:xlink="http://www.w3.org/1999/xlink" x="0px" y="0px"
	 viewBox="0 0 20 20" style="enable-background:new 0 0 20 20;" xml:space="preserve">
<style type="text/css">
	.st0{fill:#FFF43C;}
</style>
<g>
	<g>
		<polygon class="st0" points="10.6,4.2 14.3,4.2 12.5,7.2 		"/>
	</g>
	<g>
		<polygon class="st0" points="13.1,7.4 14.8,4.5 17.2,7.4 		"/>
	</g>
	<g>
		<polygon class="st0" points="5.7,4.2 9.4,4.2 7.5,7.2 		"/>
	</g>
	<g>
		<path class="st0" d="M10,15.8c-0.1,0-0.1,0-0.1-0.1l-2-7.6l4.2,0l-2,7.6C10.1,15.7,10.1,15.8,10,15.8z"/>
	</g>
	<g>
		<path class="st0" d="M11,15.6C10.9,15.6,10.9,15.6,11,15.6c-0.1,0-0.1-0.1-0.1-0.1l1.9-7.4l4.4,0L11,15.6C11,15.6,11,15.6,11,15.6
			z"/>
	</g>
	<g>
		<polygon class="st0" points="2.8,7.4 5.2,4.5 7,7.4 		"/>
	</g>
	<g>
		<polygon class="st0" points="8.1,7.4 10,4.5 11.9,7.4 		"/>
	</g>
	<g>
		<path class="st0" d="M9.1,15.6C9,15.6,9,15.6,9.1,15.6L2.8,8.1l4.4,0l1.9,7.4C9.2,15.5,9.2,15.6,9.1,15.6
			C9.1,15.6,9.1,15.6,9.1,15.6z"/>
	</g>
</g>
</svg>
