<?xml version="1.0" encoding="utf-8"?>
<!-- Generator: Adobe Illustrator 22.0.1, SVG Export Plug-In . SVG Version: 6.00 Build 0)  -->
<svg version="1.1" id="圖層_1" xmlns="http://www.w3.org/2000/svg" xmlns:xlink="http://www.w3.org/1999/xlink" x="0px" y="0px"
	 viewBox="0 0 20 20" style="enable-background:new 0 0 20 20;" xml:space="preserve">
<style type="text/css">
	.st0{fill:#FFF43C;}
</style>
<g>
	<path class="st0" d="M13.2,4.1v3.1h1.5c0.5,0,0.7,0.5,0.4,0.9L11,13.3c-0.2,0.3-0.6,0.3-0.9,0L5.9,8.1c-0.3-0.4,0-0.9,0.4-0.9h1.5
		V4.1c0-0.3,0.2-0.6,0.6-0.6h4.3C13,3.6,13.2,3.8,13.2,4.1z M4.6,14.5h11.9c0.3,0,0.6,0.2,0.6,0.6v0.8c0,0.3-0.2,0.6-0.6,0.6H4.6
		c-0.3,0-0.6-0.2-0.6-0.6V15C4,14.7,4.2,14.5,4.6,14.5z"/>
</g>
</svg>
