<?xml version="1.0" encoding="utf-8"?>
<!-- Generator: Adobe Illustrator 22.0.1, SVG Export Plug-In . SVG Version: 6.00 Build 0)  -->
<svg version="1.1" id="圖層_1" xmlns="http://www.w3.org/2000/svg" xmlns:xlink="http://www.w3.org/1999/xlink" x="0px" y="0px"
	 viewBox="0 0 20 20" style="enable-background:new 0 0 20 20;" xml:space="preserve">
<style type="text/css">
	.st0{fill:#FFFFFF;}
</style>
<path class="st0" d="M1.8,9.7c0,4.1,3.7,7.5,8.2,7.5c1.2,0,2.4-0.3,3.5-0.7l2.9,1.3c0.1,0,0.2,0,0.3,0c0.3-0.1,0.5-0.3,0.4-0.6
	l-0.6-2.9c1.1-1.3,1.7-2.9,1.7-4.6c0-4.1-3.7-7.5-8.2-7.5S1.8,5.6,1.8,9.7z M5.7,11.4c0-0.3,0.2-0.5,0.5-0.5h7.2
	c0.3,0,0.5,0.2,0.5,0.5c0,0.3-0.2,0.5-0.5,0.5H6.1C5.9,11.9,5.7,11.7,5.7,11.4z M4.2,8c0-0.3,0.2-0.5,0.5-0.5h10.1
	c0.3,0,0.5,0.2,0.5,0.5c0,0.3-0.2,0.5-0.5,0.5H4.7C4.4,8.5,4.2,8.3,4.2,8z"/>
</svg>
