<?xml version="1.0" encoding="utf-8"?>
<!-- Generator: Adobe Illustrator 24.0.1, SVG Export Plug-In . SVG Version: 6.00 Build 0)  -->
<svg version="1.1" id="圖層_1" xmlns="http://www.w3.org/2000/svg" xmlns:xlink="http://www.w3.org/1999/xlink" x="0px" y="0px"
	 viewBox="0 0 20 20" style="enable-background:new 0 0 20 20;" xml:space="preserve">
<style type="text/css">
	.st0{fill-rule:evenodd;clip-rule:evenodd;fill:#01AA4F;}
	.st1{fill:#F3E939;}
</style>
<path class="st0" d="M10,0c5.5,0,10,4.5,10,10s-4.5,10-10,10S0,15.5,0,10S4.5,0,10,0z"/>
<path class="st1" d="M11.4,10.1l3.5-3.5c0.4-0.4,0.4-1,0-1.4s-1-0.4-1.4,0L10,8.7L6.5,5.2c-0.4-0.4-1-0.4-1.4,0s-0.4,1,0,1.4
	l3.5,3.5l-3.5,3.5c-0.4,0.4-0.4,1,0,1.4c0.2,0.2,0.5,0.3,0.7,0.3s0.5-0.1,0.7-0.3l3.5-3.5l3.5,3.5c0.2,0.2,0.5,0.3,0.7,0.3
	s0.5-0.1,0.7-0.3c0.4-0.4,0.4-1,0-1.4L11.4,10.1z"/>
</svg>
