<?xml version="1.0" encoding="utf-8"?>
<!-- Generator: Adobe Illustrator 24.0.1, SVG Export Plug-In . SVG Version: 6.00 Build 0)  -->
<svg version="1.1" id="圖層_1" xmlns="http://www.w3.org/2000/svg" xmlns:xlink="http://www.w3.org/1999/xlink" x="0px" y="0px"
	 viewBox="0 0 25 16" style="enable-background:new 0 0 25 16;" xml:space="preserve">
<style type="text/css">
	.st0{fill-rule:evenodd;clip-rule:evenodd;fill:#999999;}
</style>
<path class="st0" d="M24.9,8.3C24.8,8.5,21.3,16,12.5,16C3.7,16,0.2,8.5,0.1,8.2L0,7.9l0.1-0.2C0.2,7.4,3.7,0,12.5,0
	c8.8,0,12.3,7.4,12.4,7.7L25,8.1L24.9,8.3z M12.5,1.6c-6.8,0-9.9,4.9-10.7,6.3c0.8,1.5,3.9,6.3,10.7,6.3c6.7,0,9.9-4.8,10.7-6.3
	C22.4,6.5,19.3,1.6,12.5,1.6z M12.5,12.9c-2.6,0-4.8-2.2-4.8-4.9s2.1-4.9,4.8-4.9c2.6,0,4.8,2.2,4.8,4.9S15.1,12.9,12.5,12.9z"/>
</svg>
