<?xml version="1.0" encoding="utf-8"?>
<!-- Generator: Adobe Illustrator 24.0.1, SVG Export Plug-In . SVG Version: 6.00 Build 0)  -->
<svg version="1.1" id="圖層_1" xmlns="http://www.w3.org/2000/svg" xmlns:xlink="http://www.w3.org/1999/xlink" x="0px" y="0px"
	 viewBox="0 0 16 16" style="enable-background:new 0 0 16 16;" xml:space="preserve">
<style type="text/css">
	.st0{fill-rule:evenodd;clip-rule:evenodd;fill:#666666;}
</style>
<path class="st0" d="M15.5,4.5l-1,1l-1.1,1.1c-0.1,0.1-0.2,0.2-0.4,0.2s-0.3-0.1-0.4-0.2l-0.4-0.4L9.8,3.7L9.4,3.3
	c-0.2-0.2-0.2-0.6,0-0.8l1.1-1.1l1-1c0.6-0.6,1.7-0.6,2.4,0l1.6,1.6C16.2,2.8,16.2,3.8,15.5,4.5z M10.8,6.2l0.8,0.8l0.4,0.4
	c0.1,0.1,0.3,0.2,0.4,0.3l-7.7,7.8c-0.1,0.1-0.2,0.1-0.3,0.2L0.6,16c0,0,0,0-0.1,0c0,0,0,0,0,0C0.2,16,0,15.8,0,15.5
	c0-0.1,0-0.1,0-0.2l0.5-3.6c0-0.1,0.1-0.2,0.2-0.3l7.7-7.8c0.1,0.2,0.2,0.3,0.3,0.4l0.4,0.4l0.8,0.8L10.8,6.2z"/>
</svg>
