<?xml version="1.0" encoding="utf-8"?>
<!-- Generator: Adobe Illustrator 22.0.1, SVG Export Plug-In . SVG Version: 6.00 Build 0)  -->
<svg version="1.1" id="圖層_1" xmlns="http://www.w3.org/2000/svg" xmlns:xlink="http://www.w3.org/1999/xlink" x="0px" y="0px"
	 viewBox="0 0 20 20" style="enable-background:new 0 0 20 20;" xml:space="preserve">
<style type="text/css">
	.st0{fill:#01A94E;}
</style>
<g>
	<path class="st0" d="M10,1c-5,0-9,4-9,9s4,9,9,9s9-4,9-9S15,1,10,1z M11.8,10h-1.2v4.3H8.9V10H8V8.5h0.9V7.6c0-0.9,0.3-1.5,0.9-1.7
		c0.3-0.1,0.6-0.2,0.8-0.2H12v1.5h-0.8c-0.2,0-0.4,0.1-0.5,0.2c-0.1,0.1-0.1,0.2-0.1,0.4v0.7H12L11.8,10z"/>
</g>
</svg>
