<?xml version="1.0" encoding="utf-8"?>
<!-- Generator: Adobe Illustrator 22.0.1, SVG Export Plug-In . SVG Version: 6.00 Build 0)  -->
<svg version="1.1" id="圖層_1" xmlns="http://www.w3.org/2000/svg" xmlns:xlink="http://www.w3.org/1999/xlink" x="0px" y="0px"
	 viewBox="0 0 20 20" style="enable-background:new 0 0 20 20;" xml:space="preserve">
<style type="text/css">
	.st0{fill:#FFF43C;}
</style>
<g>
	<g>
		<path class="st0" d="M8.4,5.1c0,0,2-2,5.3,0c0.1,0.1,0.1,0.2,0.1,0.3s-0.2,0.1-0.3,0.1c-2.9-1.7-4.6,0-4.7,0
			c-0.1,0.1-0.2,0.1-0.3,0C8.3,5.4,8.3,5.2,8.4,5.1z M6,5.6c0,1.6,0.1,4.3,0.5,5.6c0,0.1,0,0.3-0.1,0.3s-0.3,0-0.3-0.1
			c-0.4-1-0.5-2.7-0.5-4C4.8,7.5,2.9,8.1,4,10.8l0,0l0,0c0.1,0.2,0.6,2,2.8,3.3h7.8h0.1c0.2-0.2,0.3-0.4,0.4-0.6
			c1.1-1.5,1.3-3.9,1.3-5.8c0-1.8-0.4-3.4-0.8-3.8l0,0l0,0c0,0,0,0-0.1,0c-0.5-0.6-1.6-1.1-2.8-1.3c-1.1-0.2-2.2-0.2-3.2,0
			C8.4,2.8,7.5,3.3,7,4C6.4,4.3,6.1,4.8,6,5.6z"/>
		<path class="st0" d="M8.1,17.4h5.2c0.3,0,0.6-0.1,0.9-0.3s0.3-0.5,0.3-0.9v-1.7H6.9v1.7c0,0.3,0.1,0.6,0.3,0.9
			C7.4,17.3,7.7,17.4,8.1,17.4z"/>
	</g>
</g>
</svg>
