<?xml version="1.0" encoding="utf-8"?>
<!-- Generator: Adobe Illustrator 24.0.1, SVG Export Plug-In . SVG Version: 6.00 Build 0)  -->
<svg version="1.1" id="圖層_1" xmlns="http://www.w3.org/2000/svg" xmlns:xlink="http://www.w3.org/1999/xlink" x="0px" y="0px"
	 viewBox="0 0 25 16" style="enable-background:new 0 0 25 16;" xml:space="preserve">
<style type="text/css">
	.st0{fill-rule:evenodd;clip-rule:evenodd;fill:#666666;}
</style>
<path class="st0" d="M24.8,6.1l-2.4-2.8C22.2,3.1,22,3,21.8,3c-0.2,0-0.4,0.1-0.6,0.3c-2.5,2.7-5,4.2-7.5,4.6
	C13.2,7.9,12.7,8,12.2,8C10.8,7.9,9.4,7.5,8,6.8c-1-0.5-2-1.2-2.8-2.1L4.1,3.5C3.9,3.3,3.7,3.2,3.5,3.2C3.3,3.2,3.1,3.3,3,3.5
	L1.1,5.6L0.2,6.5c-0.3,0.3-0.3,0.9,0,1.2C0.5,8,1,8,1.3,7.7l2.2-2.4l0.6,0.6c0.7,0.7,1.5,1.4,2.4,1.9l-1.6,2.4
	c-0.3,0.4-0.2,0.9,0.2,1.2c0.1,0.1,0.3,0.2,0.5,0.2c0.2,0,0.5-0.1,0.6-0.3L8,8.6c1.1,0.5,2.3,0.9,3.4,1v2.6c0,0.5,0.4,0.8,0.8,0.8
	c0.4,0,0.8-0.4,0.8-0.8V9.6c0.3,0,0.7-0.1,1-0.1c1.1-0.2,2.3-0.6,3.4-1.1l1.4,2.8c0.1,0.3,0.4,0.4,0.7,0.4c0.1,0,0.3,0,0.4-0.1
	c0.4-0.2,0.5-0.7,0.3-1.1l-1.4-2.8c1-0.7,2-1.5,3-2.5l1.9,2.2c0.3,0.3,0.8,0.4,1.1,0.1C25.1,7,25.1,6.5,24.8,6.1z"/>
</svg>
