<?xml version="1.0" encoding="utf-8"?>
<!-- Generator: Adobe Illustrator 22.0.1, SVG Export Plug-In . SVG Version: 6.00 Build 0)  -->
<svg version="1.1" id="圖層_1" xmlns="http://www.w3.org/2000/svg" xmlns:xlink="http://www.w3.org/1999/xlink" x="0px" y="0px"
	 viewBox="0 0 20 20" style="enable-background:new 0 0 20 20;" xml:space="preserve">
<style type="text/css">
	.st0{fill:#FFF43C;}
</style>
<g>
	<path class="st0" d="M7.8,5.9h8.8c0.5,0,0.9-0.4,0.9-0.9c0-0.5-0.4-0.9-0.9-0.9H7.8C7.3,4,6.9,4.4,6.9,4.9C6.9,5.4,7.3,5.9,7.8,5.9
		z"/>
	<path class="st0" d="M16.7,9.1H7.8c-0.5,0-0.9,0.4-0.9,0.9c0,0.5,0.4,0.9,0.9,0.9h8.8c0.5,0,0.9-0.4,0.9-0.9
		C17.6,9.5,17.2,9.1,16.7,9.1z"/>
	<path class="st0" d="M16.7,14.1H7.8c-0.5,0-0.9,0.4-0.9,0.9c0,0.5,0.4,0.9,0.9,0.9h8.8c0.5,0,0.9-0.4,0.9-0.9
		C17.6,14.6,17.2,14.1,16.7,14.1z"/>
	<path class="st0" d="M4.1,4H3.3C2.8,4,2.4,4.4,2.4,4.9c0,0.5,0.4,0.9,0.9,0.9h0.8c0.5,0,0.9-0.4,0.9-0.9C5.1,4.4,4.7,4,4.1,4z"/>
	<path class="st0" d="M4.1,9.1H3.3c-0.5,0-0.9,0.4-0.9,0.9c0,0.5,0.4,0.9,0.9,0.9h0.8c0.5,0,0.9-0.4,0.9-0.9
		C5.1,9.5,4.7,9.1,4.1,9.1z"/>
	<path class="st0" d="M4.1,14.1H3.3c-0.5,0-0.9,0.4-0.9,0.9c0,0.5,0.4,0.9,0.9,0.9h0.8c0.5,0,0.9-0.4,0.9-0.9
		C5.1,14.6,4.7,14.1,4.1,14.1z"/>
</g>
</svg>
