<?xml version="1.0" encoding="utf-8"?>
<!-- Generator: Adobe Illustrator 22.0.1, SVG Export Plug-In . SVG Version: 6.00 Build 0)  -->
<svg version="1.1" id="圖層_1" xmlns="http://www.w3.org/2000/svg" xmlns:xlink="http://www.w3.org/1999/xlink" x="0px" y="0px"
	 viewBox="0 0 20 20" style="enable-background:new 0 0 20 20;" xml:space="preserve">
<g>
	<g>
		<polygon points="17,9.8 17,18 1.9,18 1.9,3.1 10.2,3.1 10.2,5.1 3.9,5.1 3.9,16.1 15,16.1 15,9.8 		"/>
		<path d="M12.1,2v2h2.6L9.5,9.2c-0.4,0.4-0.4,1,0,1.4c0,0,0,0,0,0l0,0c0.4,0.4,1,0.4,1.4,0l5.2-5.2v2.5h2V2H12.1z M16.1,3.9
			L16.1,3.9L16.1,3.9z"/>
	</g>
</g>
</svg>
