<?xml version="1.0" encoding="utf-8"?>
<!-- Generator: Adobe Illustrator 22.0.1, SVG Export Plug-In . SVG Version: 6.00 Build 0)  -->
<svg version="1.1" id="圖層_1" xmlns="http://www.w3.org/2000/svg" xmlns:xlink="http://www.w3.org/1999/xlink" x="0px" y="0px"
	 viewBox="0 0 20 20" style="enable-background:new 0 0 20 20;" xml:space="preserve">
<style type="text/css">
	.st0{fill:#FFF43C;}
</style>
<path class="st0" d="M12.3,9c0.9-0.7,1.6-1.8,1.6-3.1c0-2.1-1.7-3.8-3.8-3.8c-2.1,0-3.8,1.7-3.8,3.8c0,1.3,0.6,2.4,1.6,3.1
	c-2.5,0.9-4.2,3.3-4.2,6c0,0.2,0.2,0.5,0.4,0.6l5.8,2.3c0,0,0,0,0,0c0.1,0,0.1,0,0.2,0c0,0,0,0,0,0c0.1,0,0.1,0,0.2,0c0,0,0,0,0,0
	l5.9-2.3c0.2-0.1,0.4-0.3,0.4-0.6C16.5,12.3,14.7,9.9,12.3,9z M9,9.8c0.3,0,0.7-0.1,1-0.1c0.3,0,0.8,0,1,0.1L10,15.4L9,9.8z"/>
</svg>
