<?xml version="1.0" encoding="utf-8"?>
<!-- Generator: Adobe Illustrator 22.0.1, SVG Export Plug-In . SVG Version: 6.00 Build 0)  -->
<svg version="1.1" id="圖層_1" xmlns="http://www.w3.org/2000/svg" xmlns:xlink="http://www.w3.org/1999/xlink" x="0px" y="0px"
	 viewBox="0 0 20 20" style="enable-background:new 0 0 20 20;" xml:space="preserve">
<style type="text/css">
	.st0{fill:#FFF43C;}
</style>
<path class="st0" d="M13.4,3.6c-0.2,0-0.4,0-0.5,0.1l-8.7,7.6L2.7,12c-0.3,0.2-0.4,0.5-0.3,0.8l1.1,2.2c0.2,0.3,0.5,0.4,0.8,0.3
	l1.4-0.7l1.3-0.3L7.5,16c0.1,0.3,0.4,0.5,0.7,0.4l3.5-0.8c0,0,0.1,0,0.1-0.1c0.1,0,0.2-0.1,0.2-0.2c0.1-0.1,0.1-0.3,0.1-0.4
	l-0.4-1.6l5.3-1.2c0,0,0.1,0,0.1-0.1c0.1-0.1,0.2-0.2,0.3-0.3c0.1-0.2,0.1-0.4,0-0.5l-3.7-7.2C13.7,3.8,13.6,3.7,13.4,3.6L13.4,3.6z
	 M10.9,14.6l-2.4,0.6l-0.2-1l2.4-0.6L10.9,14.6z"/>
</svg>
