<?xml version="1.0" encoding="utf-8"?>
<!-- Generator: Adobe Illustrator 22.0.1, SVG Export Plug-In . SVG Version: 6.00 Build 0)  -->
<svg version="1.1" id="圖層_1" xmlns="http://www.w3.org/2000/svg" xmlns:xlink="http://www.w3.org/1999/xlink" x="0px" y="0px"
	 viewBox="0 0 20 20" style="enable-background:new 0 0 20 20;" xml:space="preserve">
<path d="M8,14.8c0.5,0,0.9-0.2,1.3-0.5l0,0l7.2-7.2l0,0C17,6.5,17.3,5.8,17.3,5c0-1.7-1.4-3.1-3.1-3.1c-0.9,0-1.7,0.4-2.3,1L4,10.7
	l0,0c-0.8,0.8-1.3,1.9-1.3,3.1c0,2.4,2,4.4,4.4,4.4c1.2,0,2.4-0.5,3.2-1.4l5.9-5.9L15.3,10l-3.8,3.8c0,0-2.2,2.2-2.2,2.2l0,0
	c-0.6,0.6-1.3,0.9-2.2,0.9c-1.7,0-3.1-1.4-3.1-3.1c0-0.9,0.4-1.7,0.9-2.2l0,0l7.9-7.9l0,0c0.3-0.4,0.8-0.6,1.4-0.6
	c1,0,1.9,0.8,1.9,1.9c0,0.5-0.2,0.9-0.5,1.3l0,0l-7.1,7.1l0,0c-0.1,0.1-0.3,0.2-0.4,0.2c-0.3,0-0.6-0.3-0.6-0.6c0-0.1,0-0.2,0.1-0.3
	l5.2-5.2l-0.9-0.9l-5.2,5.2l0,0c-0.3,0.3-0.4,0.7-0.4,1.2C6.1,13.9,6.9,14.8,8,14.8z"/>
</svg>
