<?xml version="1.0" encoding="utf-8"?>
<!-- Generator: Adobe Illustrator 22.0.1, SVG Export Plug-In . SVG Version: 6.00 Build 0)  -->
<svg version="1.1" id="圖層_1" xmlns="http://www.w3.org/2000/svg" xmlns:xlink="http://www.w3.org/1999/xlink" x="0px" y="0px"
	 viewBox="0 0 20 20" style="enable-background:new 0 0 20 20;" xml:space="preserve">
<style type="text/css">
	.st0{fill:#FFF43C;}
</style>
<g>
	<path class="st0" d="M7.2,6.1V4.2L5,6.4h1.8C7,6.4,7.2,6.3,7.2,6.1z"/>
	<path class="st0" d="M14.6,3.6H7.7v2.5C7.7,6.5,7.3,7,6.8,7H4.5v8.5c0,0.5,0.4,0.9,0.9,0.9h9.3c0.5,0,0.9-0.4,0.9-0.9v-11
		C15.5,4,15.1,3.6,14.6,3.6z M9.3,14.5H6.4c-0.4,0-0.4-0.9,0-0.9h2.9C9.8,13.6,9.8,14.5,9.3,14.5z M13.6,12H6.4
		c-0.4,0-0.4-0.9,0-0.9h7.2C14.1,11.1,14.1,12,13.6,12z M13.6,9.5H6.4C6,9.5,6,8.6,6.4,8.6h7.2C14.1,8.6,14.1,9.5,13.6,9.5z"/>
</g>
</svg>
