<?xml version="1.0" encoding="utf-8"?>
<!-- Generator: Adobe Illustrator 24.0.1, SVG Export Plug-In . SVG Version: 6.00 Build 0)  -->
<svg version="1.1" id="圖層_1" xmlns="http://www.w3.org/2000/svg" xmlns:xlink="http://www.w3.org/1999/xlink" x="0px" y="0px"
	 viewBox="0 0 20 20" style="enable-background:new 0 0 20 20;" xml:space="preserve">
<style type="text/css">
	.st0{fill-rule:evenodd;clip-rule:evenodd;fill:#11A848;}
</style>
<path class="st0" d="M19.6,7.9l-5.1,5.4c-0.5,0.6-1.4,0.6-1.9,0c-0.3-0.3-0.4-0.7-0.4-1v-1.7c0,0-0.1,0-0.2,0
	C9.4,10.4,1.9,11.3,0,20v-0.6C0.2,5.9,10.2,3.7,12.2,3.4V1.4c0-0.8,0.6-1.4,1.3-1.4c0.4,0,0.7,0.1,1,0.4l5.1,5.4
	C20.1,6.4,20.1,7.3,19.6,7.9C19.6,7.9,19.6,7.9,19.6,7.9z"/>
</svg>
