<?xml version="1.0" encoding="utf-8"?>
<!-- Generator: Adobe Illustrator 22.0.1, SVG Export Plug-In . SVG Version: 6.00 Build 0)  -->
<svg version="1.1" id="圖層_1" xmlns="http://www.w3.org/2000/svg" xmlns:xlink="http://www.w3.org/1999/xlink" x="0px" y="0px"
	 viewBox="0 0 20 20" style="enable-background:new 0 0 20 20;" xml:space="preserve">
<style type="text/css">
	.st0{fill:#999999;}
</style>
<g>
	<path class="st0" d="M8.9,13v0.5c-0.2,0-0.4,0-0.6,0l-0.3,0c-1.7-0.1-3.2-0.5-4.3-1C3,12.2,2.1,11.7,2.1,11c0-0.5,0.5-0.9,1.1-1.2
		V8.7C2.2,9.2,1.1,9.9,1.1,11c0,1.3,1.5,2.1,2.7,2.6l0.1,0c1.2,0.4,2.7,0.7,4.4,0.8c0.2,0,0.4,0,0.6,0V15l0.6-0.5l0.7-0.5l-0.6-0.5
		L8.9,13z"/>
	<path class="st0" d="M8.7,9.1C8.1,9.7,8,10.7,8.5,11.4c0.1,0.1,0.1,0.2,0.2,0.3c0.2,0.2,0.5,0.4,0.8,0.5c0.2,0,0.3,0.1,0.5,0.1
		c1,0,1.8-0.8,1.8-1.8c0-0.5-0.2-0.9-0.5-1.3C10.6,8.4,9.4,8.4,8.7,9.1z"/>
	<path class="st0" d="M7.8,12.4C7.3,11.9,7,11.1,7,10.4C7,10,7.1,9.6,7.2,9.2c0.2-0.4,0.4-0.7,0.6-1c0.3-0.3,0.6-0.5,1-0.6
		c0.7-0.3,1.6-0.3,2.3,0c0.4,0.2,0.7,0.4,1,0.6c0.1,0.1,0.2,0.2,0.3,0.4c0.1,0.2,0.2,0.4,0.3,0.6C12.9,9.6,13,10,13,10.4
		c0,0.8-0.3,1.5-0.8,2.1c1.4-0.2,2.7-0.5,3.7-0.9l0.1-0.1V8c0-0.1,0-0.1,0-0.2c0-0.1-0.1-0.2-0.1-0.3c-0.1-0.1-0.1-0.2-0.2-0.3
		c-0.2-0.2-0.5-0.4-0.8-0.3h-1.4c-0.1,0-0.2,0-0.3-0.1c-0.1-0.1-0.2-0.1-0.2-0.2l-0.4-1.1c0-0.1-0.1-0.2-0.2-0.2C12.2,5,12.1,5,12,5
		H8C7.9,5,7.8,5,7.7,5.1C7.6,5.2,7.5,5.2,7.5,5.3L7.1,6.5c0,0.1-0.1,0.2-0.2,0.2C6.9,6.8,6.8,6.8,6.6,6.8H5.2
		c-0.3,0-0.6,0.1-0.8,0.3C4.3,7.2,4.2,7.3,4.2,7.4C4.1,7.5,4.1,7.7,4,7.8C4,7.8,4,7.9,4,8v3.5l0.1,0.1C5.1,12,6.4,12.3,7.8,12.4z"/>
	<path class="st0" d="M16.7,8.7v1.1c0.6,0.3,1.1,0.7,1.1,1.2c0,0.6-0.8,1.1-1.5,1.4c-1.1,0.5-2.6,0.8-4.3,1c-0.3,0-0.6,0-1,0.1
		l0.7,0.5l-0.7,0.5c1.9-0.1,3.7-0.4,5-0.9l0.1,0c1.2-0.4,2.7-1.3,2.7-2.6C18.9,9.9,17.8,9.2,16.7,8.7z"/>
</g>
</svg>
