<?xml version="1.0" encoding="utf-8"?>
<!-- Generator: Adobe Illustrator 24.0.1, SVG Export Plug-In . SVG Version: 6.00 Build 0)  -->
<svg version="1.1" id="圖層_1" xmlns="http://www.w3.org/2000/svg" xmlns:xlink="http://www.w3.org/1999/xlink" x="0px" y="0px"
	 viewBox="0 0 26 26" style="enable-background:new 0 0 26 26;" xml:space="preserve">
<style type="text/css">
	.st0{fill-rule:evenodd;clip-rule:evenodd;fill:#FFFFFF;}
</style>
<path class="st0" d="M24.1,6.3C23,4.4,21.3,3,19.4,2c-2.7-1.4-5.6-1.8-8.6-1.3c-1.8,0.3-3.4,0.8-5,1.8c-1.7,1-3.1,2.3-4.1,4
	c-1.1,2-1.5,4.1-1.1,6.4c0.3,1.9,1.2,3.4,2.4,4.8c2,2.2,4.6,3.4,7.4,3.9c0.4,0.1,0.8,0.1,1.2,0.4c0.2,0.1,0.4,0.3,0.4,0.6
	c0.1,0.5,0,1.1-0.1,1.6c0,0.3-0.1,0.6-0.1,0.8c0,0.4,0.2,0.6,0.5,0.5c0.1,0,0.2,0,0.3-0.1c0.4-0.1,0.8-0.3,1.1-0.6
	c2.5-1.5,4.9-3.2,7.1-5.2c1.2-1,2.2-2.2,3.1-3.5c1-1.5,1.5-3.2,1.5-5C25.5,9.5,25,7.8,24.1,6.3z M8.6,14.2c0,0.3-0.1,0.4-0.3,0.4
	c-1.1,0-2.2,0-3.3,0c-0.2,0-0.3-0.1-0.3-0.3c0-0.5,0-0.9,0-1.4s0-0.9,0-1.4c0-0.9,0-1.8,0-2.7c0-0.3,0.1-0.4,0.4-0.4
	c0.2,0,0.4,0,0.7,0C5.9,8.3,6,8.4,6,8.7c0,1.4,0,2.8,0,4.2c0,0.2,0,0.2,0.2,0.2c0.7,0,1.4,0,2.1,0c0.3,0,0.3,0.1,0.3,0.4
	C8.6,13.7,8.6,13.9,8.6,14.2z M10.7,14.2c0,0.2-0.1,0.3-0.3,0.3c-0.3,0-0.5,0-0.8,0c-0.2,0-0.3-0.1-0.3-0.3c0-0.5,0-0.9,0-1.4
	c0-0.5,0-0.9,0-1.4c0-0.9,0-1.8,0-2.8c0-0.3,0.1-0.4,0.3-0.4c0.2,0,0.5,0,0.7,0c0.2,0,0.3,0.1,0.3,0.3
	C10.7,10.5,10.7,12.4,10.7,14.2z M16.4,14.5c-0.2,0-0.5,0-0.7,0c-0.2,0-0.3-0.1-0.4-0.2c-0.8-1.1-1.5-2.2-2.3-3.3
	c0,0-0.1-0.1-0.1-0.2c0,0.1,0,0.2,0,0.2c0,1,0,2.1,0,3.1c0,0.3-0.1,0.3-0.3,0.3c-0.2,0-0.5,0-0.7,0c-0.2,0-0.3-0.1-0.3-0.3
	c0-1.9,0-3.8,0-5.6c0-0.2,0.1-0.3,0.3-0.3c0.2,0,0.5,0,0.7,0c0.1,0,0.2,0.1,0.3,0.2c0.8,1.1,1.5,2.2,2.3,3.3c0,0.1,0.1,0.1,0.1,0.2
	c0-0.1,0-0.1,0-0.2c0-1,0-2,0-3.1c0-0.3,0.1-0.4,0.3-0.4c0.2,0,0.5,0,0.7,0c0.2,0,0.3,0.1,0.3,0.3c0,1.9,0,3.7,0,5.6
	C16.7,14.5,16.7,14.5,16.4,14.5z M19,12.3c0,0.2,0,0.4,0,0.7c0,0.1,0,0.1,0.1,0.1c0.7,0,1.4,0,2.1,0c0.3,0,0.4,0.1,0.4,0.4
	c0,0.2,0,0.5,0,0.7c0,0.2-0.1,0.3-0.3,0.3c-1.1,0-2.2,0-3.4,0c-0.2,0-0.3-0.1-0.3-0.3c0-0.5,0-0.9,0-1.4c0-0.5,0-0.9,0-1.4
	c0-0.9,0-1.8,0-2.7c0-0.3,0.1-0.4,0.4-0.4c1.1,0,2.2,0,3.3,0c0.3,0,0.4,0.1,0.4,0.4c0,0.2,0,0.5,0,0.7c0,0.2-0.1,0.3-0.3,0.3
	c-0.7,0-1.4,0-2.1,0c-0.1,0-0.2,0-0.2,0.2c0,0.2,0,0.4,0,0.6c0,0.1,0,0.2,0.2,0.2c0.7,0,1.4,0,2.1,0c0.3,0,0.3,0.1,0.3,0.4
	c0,0.3,0,0.5,0,0.8c0,0.2-0.1,0.3-0.3,0.3c-0.7,0-1.4,0-2.2,0C19,12.1,18.9,12.2,19,12.3z"/>
</svg>
