<?xml version="1.0" encoding="utf-8"?>
<!-- Generator: Adobe Illustrator 24.0.1, SVG Export Plug-In . SVG Version: 6.00 Build 0)  -->
<svg version="1.1" id="圖層_1" xmlns="http://www.w3.org/2000/svg" xmlns:xlink="http://www.w3.org/1999/xlink" x="0px" y="0px"
	 viewBox="0 0 26 26" style="enable-background:new 0 0 26 26;" xml:space="preserve">
<style type="text/css">
	.st0{fill-rule:evenodd;clip-rule:evenodd;fill:#01AA4F;}
</style>
<path class="st0" d="M21,9.3l-1.1,1.1l-1.1,1.1c-0.1,0.1-0.3,0.2-0.4,0.2c-0.1,0-0.3-0.1-0.4-0.2l-0.4-0.4l-2.6-2.7L14.5,8
	c-0.2-0.2-0.2-0.6,0-0.8l1.1-1.1L16.7,5c0.7-0.7,1.9-0.7,2.5,0L21,6.7C21.7,7.4,21.7,8.6,21,9.3z M16,11.1l0.8,0.8l0.4,0.4
	c0.1,0.1,0.3,0.3,0.5,0.3l-8.2,8.2C9.3,20.9,9.2,21,9.1,21l-4,0.5c0,0-0.1,0-0.1,0c0,0,0,0,0,0c-0.3,0-0.6-0.3-0.6-0.6
	c0-0.1,0-0.1,0-0.2L5,16.9c0-0.1,0.1-0.2,0.2-0.3l8.2-8.2c0.1,0.2,0.2,0.3,0.3,0.5l0.4,0.4l0.8,0.8L16,11.1z"/>
</svg>
