<?xml version="1.0" encoding="utf-8"?>
<!-- Generator: Adobe Illustrator 24.0.1, SVG Export Plug-In . SVG Version: 6.00 Build 0)  -->
<svg version="1.1" id="圖層_1" xmlns="http://www.w3.org/2000/svg" xmlns:xlink="http://www.w3.org/1999/xlink" x="0px" y="0px"
	 viewBox="0 0 26 26" style="enable-background:new 0 0 26 26;" xml:space="preserve">
<style type="text/css">
	.st0{fill-rule:evenodd;clip-rule:evenodd;fill:#01AA4F;}
</style>
<path class="st0" d="M22.5,5.9l-2.1-2.7C20.3,3.1,20.1,3,19.9,3H6.1C5.9,3,5.7,3.1,5.6,3.2L3.5,5.9C3.2,6.2,3,6.5,3,6.9V21
	c0,1.1,0.9,2,2,2h16c1.1,0,2-0.9,2-2v-4V6.9C23,6.5,22.8,6.2,22.5,5.9z M13,19l-5-5h3v-4h4v4h3L13,19z M20,6H6l0.5-1h13L20,6z"/>
</svg>
