<?xml version="1.0" encoding="utf-8"?>
<!-- Generator: Adobe Illustrator 24.0.1, SVG Export Plug-In . SVG Version: 6.00 Build 0)  -->
<svg version="1.1" id="圖層_1" xmlns="http://www.w3.org/2000/svg" xmlns:xlink="http://www.w3.org/1999/xlink" x="0px" y="0px"
	 viewBox="0 0 26 26" style="enable-background:new 0 0 26 26;" xml:space="preserve">
<style type="text/css">
	.st0{fill:#FFFFFF;}
</style>
<g>
	<path class="st0" d="M20,2.9H6c-1.7,0-3,1.3-3,3v14.2c0,1.7,1.3,3,3,3h5.7v-7.5h-1.5v-2.6h1.5v-1.6c0-1.6,0.6-2.6,1.6-3.1
		c0.5-0.2,1-0.3,1.5-0.3h2.4v2.6h-1.4c-0.4,0-0.7,0.1-0.8,0.3c-0.1,0.2-0.1,0.4-0.1,0.8v1.2h2.4l-0.3,2.6h-2.1v7.5H20
		c1.7,0,3-1.3,3-3V5.9C23,4.2,21.7,2.9,20,2.9z"/>
</g>
</svg>
