<?xml version="1.0" encoding="utf-8"?>
<!-- Generator: Adobe Illustrator 22.0.1, SVG Export Plug-In . SVG Version: 6.00 Build 0)  -->
<svg version="1.1" id="C_xF880__x5B__1" xmlns="http://www.w3.org/2000/svg" xmlns:xlink="http://www.w3.org/1999/xlink" x="0px"
	 y="0px" viewBox="0 0 226.1 33" style="enable-background:new 0 0 226.1 33;" xml:space="preserve">
<g>
	<path d="M22,16.6c0-6.2,5-11.3,11.2-11.3V1.3C33.2,0.6,32.7,0,32,0H1.3C0.6,0,0,0.6,0,1.3V32c0,0.7,0.6,1.3,1.3,1.3H32
		c0.7,0,1.3-0.6,1.3-1.3v-4.1C27,27.9,22,22.8,22,16.6"/>
	<path d="M37.5,16.6c0,2.2-1.8,4-4,4c-2.2,0-4-1.8-4-4c0-2.2,1.8-4,4-4C35.7,12.7,37.5,14.5,37.5,16.6"/>
	<path d="M56,16.6c0,3-2.4,5.4-5.4,5.4c-3,0-5.4-2.4-5.4-5.4c0-3,2.4-5.4,5.4-5.4C53.6,11.2,56,13.6,56,16.6"/>
	<path d="M92.6,30.3c0,0,2.2-5.3,2.2-5.4c0-0.1-5.9-13.8-6.7-15.5h4.6c0.1,0.2,4.4,11,4.4,11h0.1c0,0,4-10.9,4.1-11h4.2
		c-0.2,0.4-8.8,20.9-8.8,20.9H92.6z"/>
	<path d="M112.3,10.7c1.4-1.2,3.3-1.8,5.9-1.8c5.3,0,6.4,3.2,6.4,5.9v9.5h-4.1v-8c0-1.5,0-4.5-3.6-4.5c-2.7,0-4.1,1.5-4.4,2
		c-0.2,0.2-0.2,0.3-0.2,0.3c0,0,0,0,0,0.1c0,0,0,9.9,0,10.2h-4.2v-15h3.9v1.6L112.3,10.7z"/>
	<path d="M209,24.4V3.2h4.3v12.5l0.3-0.3c0,0,6.3-6,6.4-6.1h4.8c0,0-7.1,6.7-7.1,6.7s7.9,8.3,7.9,8.3h-5.3c-0.1-0.1-7.2-7.7-7.2-7.7
		v0.5v7.3H209z"/>
	<path d="M76.5,21.6c-2.5,0-4.6-2.1-4.6-4.6c0-2.6,2.1-4.6,4.6-4.6c2.5,0,4.6,2.1,4.6,4.6C81.1,19.5,79.1,21.6,76.5,21.6 M81.3,3.1
		v7.2L81,10.2c-1.3-0.7-2.8-1.1-4.3-1.1c-5.1,0-8.6,3.1-8.6,7.8c0,4.5,3.5,7.6,8.6,7.6c1.6,0,3.1-0.3,4.3-1l0.2-0.1v1h3.9V3.1H81.3z
		"/>
	<path d="M156.2,21.6c-2.6,0-4.6-2.1-4.6-4.6c0-2.6,2.1-4.6,4.6-4.6c2.5,0,4.6,2.1,4.6,4.6C160.9,19.5,158.8,21.6,156.2,21.6
		 M156.1,9.2c-1.6,0-3,0.4-4.3,1.1l-0.2,0.1V3.1h-4v21.3h4v-1l0.2,0.1c1.3,0.7,2.7,1,4.3,1c5.1,0,8.6-3.1,8.6-7.6
		C164.7,12.3,161.2,9.2,156.1,9.2"/>
	<path d="M176.2,21.6c-2.6,0-4.6-2.1-4.6-4.6c0-2.6,2.1-4.6,4.6-4.6c2.5,0,4.6,2.1,4.6,4.6C180.9,19.5,178.8,21.6,176.2,21.6
		 M176.2,9c-5.3,0-8.8,3.2-8.8,7.9c0,4.6,3.5,7.8,8.8,7.8c5.3,0,8.9-3.1,8.9-7.8C185,12.2,181.5,9,176.2,9"/>
	<path d="M196.9,21.6c-2.6,0-4.6-2.1-4.6-4.6c0-2.6,2.1-4.6,4.6-4.6c2.5,0,4.6,2.1,4.6,4.6C201.5,19.5,199.4,21.6,196.9,21.6
		 M196.8,9c-5.3,0-8.8,3.2-8.8,7.9c0,4.6,3.5,7.8,8.8,7.8c5.3,0,8.9-3.1,8.9-7.8C205.7,12.2,202.1,9,196.8,9"/>
	<path d="M135.1,22c-2.6,0-4-1.2-4-2.6c0-1.4,1.6-2.6,4-2.6c2.2,0,4,1.2,4,2.6C139.1,20.8,137.3,22,135.1,22 M143.1,21.1l-0.1-3.8
		v-2c0-4.5-2.2-6.5-7.8-6.5c-1.9,0-4.6,0.5-5.8,1.1l0,3.1c0.9-0.5,3.5-1.5,5.6-1.4c3.1,0.1,4.2,1.1,4.3,3.5l0,0.2l-0.2-0.1
		c-1-0.5-2.4-0.9-3.8-0.9c-4.5,0-7.4,2.4-7.4,5.2c0,2.8,2.2,5.3,7.2,5.3c1.7,0,3.2-0.5,4.2-1.1l0.2-0.1c0,0,0.1,0.8,0.1,0.9h3.6
		C143.3,23.7,143.1,21.1,143.1,21.1"/>
</g>
</svg>
