<?xml version="1.0" encoding="utf-8"?>
<!-- Generator: Adobe Illustrator 22.0.1, SVG Export Plug-In . SVG Version: 6.00 Build 0)  -->
<svg version="1.1" id="圖層_2_1_" xmlns="http://www.w3.org/2000/svg" xmlns:xlink="http://www.w3.org/1999/xlink" x="0px"
	 y="0px" viewBox="0 0 230 200" style="enable-background:new 0 0 230 200;" xml:space="preserve">
<style type="text/css">
	.st0{fill:#725D5F;}
	.st1{fill:#9A5357;}
</style>
<g>
	<g>
		<path class="st0" d="M224.2,179.6l-13.6-26.9c0.3-0.6,0.4-1.3,0.4-2V44.9c0-10.6-8.6-19.3-19.3-19.3H37.5
			c-10.6,0-19.3,8.6-19.3,19.3v105.9c0,0.9,0.3,1.7,0.7,2.4l-13,26.5c-1.7,3.4-1.5,7.5,0.5,10.7c1.5,2.4,3.8,3.8,6.3,3.8h204.8
			c2.6,0,4.9-1.4,6.4-3.8C225.8,187.2,225.9,183,224.2,179.6z M23.3,155.8h182.8c0.2,0,0.3,0,0.5-0.1l12.3,24.3H11.3L23.3,155.8
			L23.3,155.8z M37.5,30.6h154.3c7.9,0,14.3,6.4,14.3,14.3V150c-0.3,0.2-0.6,0.5-0.8,0.8H24.5c-0.2-0.4-0.6-0.8-1.1-1
			c-0.1,0-0.1,0-0.2-0.1V44.9C23.3,37,29.7,30.6,37.5,30.6z M217.5,189.1H12.7c-1.1,0-1.8-0.9-2.1-1.4c-0.4-0.7-0.8-1.7-0.8-2.7
			h210.7c-0.1,1-0.4,2-0.8,2.7C219.2,188.2,218.5,189.1,217.5,189.1z"/>
		<path class="st0" d="M88.5,170.7h54.6c1.4,0,2.5-1.1,2.5-2.5s-1.1-2.5-2.5-2.5H88.5c-1.4,0-2.5,1.1-2.5,2.5S87.1,170.7,88.5,170.7
			z"/>
	</g>
	<g>
		<path class="st1" d="M56.8,105.3h-6.1V74.1h-7.8v-4.9l14-1.3v37.4H56.8z"/>
		<path class="st1" d="M72.1,105.3H66v-5.9h6.1V105.3z"/>
		<path class="st1" d="M103.3,92.1c0,4.2-1.1,7.6-3.3,10c-2.2,2.4-5.1,3.7-8.8,3.7c-3.7,0-6.6-1.2-8.8-3.7s-3.3-5.8-3.3-10V81.6
			c0-4.2,1.1-7.6,3.3-10c2.2-2.5,5.1-3.7,8.8-3.7s6.6,1.2,8.8,3.7c2.2,2.5,3.3,5.8,3.3,10V92.1z M97.2,80.7c0-2.5-0.5-4.4-1.6-5.8
			c-1-1.4-2.5-2.1-4.4-2.1s-3.3,0.7-4.4,2.1c-1,1.4-1.5,3.3-1.5,5.8V93c0,2.5,0.5,4.4,1.6,5.8s2.5,2.1,4.4,2.1s3.3-0.7,4.4-2.1
			c1-1.4,1.5-3.3,1.5-5.8V80.7z"/>
		<path class="st1" d="M133.1,105.3h-23.7V101l11.5-13.3c1.9-2.2,3.2-4,3.9-5.5c0.7-1.4,1.1-2.8,1.1-4.1c0-1.6-0.4-2.8-1.3-3.8
			s-2.1-1.5-3.8-1.5c-1.9,0-3.4,0.6-4.4,1.8c-1,1.2-1.5,2.8-1.5,4.7H109l-0.1-0.2c-0.1-3.2,1-5.8,3.1-8c2.2-2.2,5.1-3.3,8.8-3.3
			c3.5,0,6.3,0.9,8.3,2.8s3,4.4,3,7.4c0,2.1-0.6,4-1.7,5.8c-1.1,1.8-2.9,4.3-5.4,7.3l-7.8,8.9l0.1,0.1h15.9L133.1,105.3L133.1,105.3
			z"/>
		<path class="st1" d="M142.7,97.7h-1.4v7.5h-3.9V80.4h3.9v14.2h1.3l4.7-6.6h4.5l-5.9,7.9l6.6,9.3H148L142.7,97.7z"/>
		<path class="st1" d="M153.5,96.9c0-2.7,0.6-5,1.8-6.6s2.8-2.5,5-2.5c1,0,1.9,0.2,2.7,0.7c0.8,0.4,1.4,1.1,2,1.9l0.4-2.2h3.2v17.2
			c0,2.2-0.7,3.9-2.1,5.1s-3.3,1.8-5.8,1.8c-0.8,0-1.7-0.1-2.7-0.4s-1.8-0.6-2.6-0.9l0.6-3c0.7,0.3,1.4,0.6,2.2,0.8s1.6,0.3,2.5,0.3
			c1.4,0,2.4-0.3,3.1-0.9c0.6-0.6,1-1.5,1-2.8v-1.8c-0.5,0.7-1.2,1.2-1.9,1.6s-1.6,0.5-2.5,0.5c-2.1,0-3.8-0.8-4.9-2.3
			c-1.2-1.5-1.8-3.6-1.8-6.1v-0.4H153.5z M157.4,97.2c0,1.6,0.3,2.9,0.9,3.8c0.6,0.9,1.6,1.4,2.9,1.4c0.8,0,1.5-0.2,2.1-0.5
			s1-0.8,1.4-1.5v-7.5c-0.4-0.6-0.8-1.1-1.4-1.5c-0.6-0.4-1.2-0.5-2-0.5c-1.3,0-2.3,0.6-2.9,1.7c-0.6,1.1-0.9,2.6-0.9,4.3v0.3H157.4
			z"/>
	</g>
	<g>
		<g>
			<path class="st1" d="M185.4,93.5h6.9v4.1h-6.9v7.9h-4.3v-7.9h-7v-4.1h7v-7.4h4.3V93.5z"/>
		</g>
	</g>
</g>
</svg>
