<?xml version="1.0" encoding="utf-8"?>
<!-- Generator: Adobe Illustrator 22.0.1, SVG Export Plug-In . SVG Version: 6.00 Build 0)  -->
<svg version="1.1" id="圖層_2_1_" xmlns="http://www.w3.org/2000/svg" xmlns:xlink="http://www.w3.org/1999/xlink" x="0px"
	 y="0px" viewBox="0 0 230 200" style="enable-background:new 0 0 230 200;" xml:space="preserve">
<style type="text/css">
	.st0{fill:#9A5357;}
	.st1{fill:#725D5F;}
</style>
<g>
	<g>
		<path class="st0" d="M112.9,154.6H53.3c-1.7,0-3-1.3-3-3V79.1c0-0.8,0.3-1.6,0.9-2.1l13.1-13.1c0.6-0.6,1.3-0.9,2.1-0.9H126
			c1.7,0,3,1.3,3,3v72.5c0,0.8-0.3,1.6-0.9,2.1L115,153.7C114.5,154.3,113.7,154.6,112.9,154.6z M56.3,148.6h55.3l11.4-11.4V68.9
			H67.7L56.3,80.3V148.6z"/>
	</g>
	<circle class="st1" cx="136.7" cy="156.9" r="5.4"/>
	<path class="st1" d="M172,86c1.4,0,2.5-1.1,2.5-2.5S173.4,81,172,81h-14.1V68.4H172c1.4,0,2.5-1.1,2.5-2.5s-1.1-2.5-2.5-2.5h-14.1
		v-1.9c0-11-8.9-19.9-19.9-19.9h-1.9V27.5c0-1.4-1.1-2.5-2.5-2.5s-2.5,1.1-2.5,2.5v14.1h-12.6V27.5c0-1.4-1.1-2.5-2.5-2.5
		s-2.5,1.1-2.5,2.5v14.1h-12.6V27.5c0-1.4-1.1-2.5-2.5-2.5s-2.5,1.1-2.5,2.5v14.1H83.3V27.5c0-1.4-1.1-2.5-2.5-2.5s-2.5,1.1-2.5,2.5
		v14.1H65.7V27.5c0-1.4-1.1-2.5-2.5-2.5s-2.5,1.1-2.5,2.5v14.1H48.1V27.5c0-1.4-1.1-2.5-2.5-2.5s-2.5,1.1-2.5,2.5v14.1h-1.8
		c-11,0-19.9,8.9-19.9,19.9v1.9H7.2c-1.4,0-2.5,1.1-2.5,2.5s1.1,2.5,2.5,2.5h14.2V81H7.2c-1.4,0-2.5,1.1-2.5,2.5S5.9,86,7.2,86h14.2
		v12.6H7.2c-1.4,0-2.5,1.1-2.5,2.5s1.1,2.5,2.5,2.5h14.2v12.6H7.2c-1.4,0-2.5,1.1-2.5,2.5s1.1,2.5,2.5,2.5h14.2v12.6H7.2
		c-1.4,0-2.5,1.1-2.5,2.5s1.1,2.5,2.5,2.5h14.2v12.6H7.2c-1.4,0-2.5,1.1-2.5,2.5s1.1,2.5,2.5,2.5h14.2v1.9c0,11,8.9,19.9,19.9,19.9
		h1.8v14.1c0,1.4,1.1,2.5,2.5,2.5s2.5-1.1,2.5-2.5v-14.1h12.6v14.1c0,1.4,1.1,2.5,2.5,2.5s2.5-1.1,2.5-2.5v-14.1h12.6v14.1
		c0,1.4,1.1,2.5,2.5,2.5s2.5-1.1,2.5-2.5v-14.1h12.6v14.1c0,1.4,1.1,2.5,2.5,2.5s2.5-1.1,2.5-2.5v-14.1h12.6v14.1
		c0,1.4,1.1,2.5,2.5,2.5s2.5-1.1,2.5-2.5v-14.1h12.6v14.1c0,1.4,1.1,2.5,2.5,2.5s2.5-1.1,2.5-2.5v-14.1h1.9c11,0,19.9-8.9,19.9-19.9
		v-1.9H172c1.4,0,2.5-1.1,2.5-2.5s-1.1-2.5-2.5-2.5h-14.1v-12.6H172c1.4,0,2.5-1.1,2.5-2.5s-1.1-2.5-2.5-2.5h-14.1v-12.6H172
		c1.4,0,2.5-1.1,2.5-2.5s-1.1-2.5-2.5-2.5h-14.1v-12.6H172c1.4,0,2.5-1.1,2.5-2.5s-1.1-2.5-2.5-2.5h-14.1V86H172z M152.9,158.2
		c0,8.2-6.7,14.9-14.9,14.9H41.3c-8.2,0-14.9-6.7-14.9-14.9V61.6c0-8.2,6.7-14.9,14.9-14.9H138c8.2,0,14.9,6.7,14.9,14.9V158.2z"/>
</g>
</svg>
