<?xml version="1.0" encoding="utf-8"?>
<!-- Generator: Adobe Illustrator 22.0.1, SVG Export Plug-In . SVG Version: 6.00 Build 0)  -->
<svg version="1.1" id="圖層_2_1_" xmlns="http://www.w3.org/2000/svg" xmlns:xlink="http://www.w3.org/1999/xlink" x="0px"
	 y="0px" viewBox="0 0 230 200" style="enable-background:new 0 0 230 200;" xml:space="preserve">
<style type="text/css">
	.st0{fill:#725D5F;}
	.st1{fill:#9A5357;}
</style>
<g>
	<g>
		<path class="st0" d="M55,40.1h65.5c1.4,0,2.5-1.1,2.5-2.5s-1.1-2.5-2.5-2.5H55c-1.4,0-2.5,1.1-2.5,2.5S53.6,40.1,55,40.1z"/>
		<path class="st0" d="M55,83.8h65.5c1.4,0,2.5-1.1,2.5-2.5s-1.1-2.5-2.5-2.5H55c-1.4,0-2.5,1.1-2.5,2.5S53.6,83.8,55,83.8z"/>
		<path class="st0" d="M73.2,122.4H55c-1.4,0-2.5,1.1-2.5,2.5s1.1,2.5,2.5,2.5h18.2c1.4,0,2.5-1.1,2.5-2.5S74.6,122.4,73.2,122.4z"
			/>
		<path class="st0" d="M24.8,50.3c0.5,0.5,1.1,0.7,1.8,0.7s1.3-0.2,1.8-0.7l5.9-5.9l5.9,5.9c0.5,0.5,1.1,0.7,1.8,0.7
			s1.3-0.2,1.8-0.7c1-1,1-2.6,0-3.5l-5.9-5.9l5.9-5.9c1-1,1-2.6,0-3.5c-1-1-2.6-1-3.5,0l-5.9,5.9l-5.9-5.9c-1-1-2.6-1-3.5,0
			c-1,1-1,2.6,0,3.5l5.9,5.9L25,46.8C23.8,47.7,23.8,49.3,24.8,50.3z"/>
		<path class="st0" d="M35.5,113.3c-6.3,0-11.5,5.1-11.5,11.5c0,6.4,5.1,11.5,11.5,11.5S47,131.2,47,124.8S41.8,113.3,35.5,113.3z
			 M35.5,131.2c-3.6,0-6.5-2.9-6.5-6.5s2.9-6.5,6.5-6.5s6.5,2.9,6.5,6.5C42,128.3,39,131.2,35.5,131.2z"/>
		<path class="st0" d="M35.5,71.3c-6.3,0-11.5,5.1-11.5,11.5s5.1,11.5,11.5,11.5S47,89.2,47,82.8S41.8,71.3,35.5,71.3z M35.5,89.2
			c-3.6,0-6.5-2.9-6.5-6.5s2.9-6.5,6.5-6.5s6.5,2.9,6.5,6.5C41.9,86.3,39,89.2,35.5,89.2z"/>
		<path class="st0" d="M141.7,98V21.7c0-9.4-7.6-17-17-17H21.8c-9.4,0-17,7.6-17,17v134c0,9.4,7.6,17,17,17h64.8h0.1
			c8.9,13.5,24.1,22.4,41.4,22.4c27.3,0,49.5-22.2,49.5-49.5C177.5,123,162.3,104,141.7,98z M21.8,167.7c-6.6,0-12-5.4-12-12v-134
			c0-6.6,5.4-12,12-12h102.9c6.6,0,12,5.4,12,12v75.1c-2.8-0.5-5.7-0.8-8.7-0.8c-27.3,0-49.5,22.2-49.5,49.5
			c0,7.9,1.9,15.5,5.2,22.1L21.8,167.7L21.8,167.7z M128,190.1c-24.5,0-44.5-20-44.5-44.5s20-44.5,44.5-44.5s44.5,20,44.5,44.5
			S152.6,190.1,128,190.1z"/>
	</g>
	<path class="st1" d="M159.7,160.4c-0.6-3.5-3.6-6.1-7.1-6.1h-1.2c0-0.4,0-0.8,0-1.3v-6.6h1.2c3.6,0,6.5-2.5,7.1-6l1.3-7.4
		c0.3-1.6-0.8-3.2-2.4-3.5c-1.6-0.3-3.2,0.8-3.5,2.4l-1.3,7.5c-0.1,0.6-0.6,1-1.2,1h-1.2c-0.1-10-6.6-18.5-15.5-21.7
		c0.4-1.6,1.4-2.6,2.4-2.6c1.7,0,3-1.4,2.9-3.1c0-1.6-1.4-2.9-3-2.9h-0.1c-3.9,0.1-7.1,3.2-8.1,7.3c-0.7-0.1-1.3-0.1-2-0.1
		s-1.4,0-2.1,0.1c-1-4.1-4.2-7.2-8.1-7.3h-0.1c-1.6,0-3,1.3-3,2.9c0,1.7,1.3,3,2.9,3.1c1,0,2,1.1,2.4,2.6
		c-8.9,3.2-15.3,11.7-15.4,21.7h-1.2c-0.6,0-1.1-0.4-1.2-1.1l-1.3-7.4c-0.3-1.6-1.8-2.7-3.5-2.4c-1.6,0.3-2.7,1.8-2.4,3.5l1.3,7.4
		c0.6,3.5,3.6,6.1,7.1,6.1h1.2v6.6c0,0.4,0,0.8,0,1.3h-1.2c-3.6,0-6.5,2.5-7.1,6l-1.3,7.4c-0.3,1.6,0.8,3.2,2.4,3.5
		c0.2,0,0.3,0,0.5,0c1.4,0,2.7-1,3-2.5l1.3-7.5c0.1-0.6,0.6-1,1.2-1h2.3c3.1,9.3,11.9,16.1,22.2,16.1s19.2-6.8,22.2-16.1h2.3
		c0.6,0,1.1,0.4,1.2,1.1l1.3,7.4c0.3,1.5,1.5,2.5,3,2.5c0.2,0,0.3,0,0.5,0c1.6-0.3,2.7-1.8,2.4-3.5L159.7,160.4z M128,123.5
		c8.7,0,15.9,6.4,17.2,14.8h-34.3C112.1,129.9,119.3,123.5,128,123.5z M110.6,153.1v-8.9H125v26
		C116.9,168.8,110.6,161.7,110.6,153.1z M131,170.2v-26h14.4v8.9C145.4,161.7,139.2,168.8,131,170.2z"/>
</g>
</svg>
