<?xml version="1.0" encoding="utf-8"?>
<!-- Generator: Adobe Illustrator 22.0.1, SVG Export Plug-In . SVG Version: 6.00 Build 0)  -->
<svg version="1.1" id="圖層_2_1_" xmlns="http://www.w3.org/2000/svg" xmlns:xlink="http://www.w3.org/1999/xlink" x="0px"
	 y="0px" viewBox="0 0 230 200" style="enable-background:new 0 0 230 200;" xml:space="preserve">
<style type="text/css">
	.st0{fill:#9A5357;}
	.st1{fill:#725D5F;}
</style>
<g>
	<path class="st0" d="M140.5,132.6c-4.3,0-8.5,0-12.8,0c-0.5,0-1.1,0.1-1.6,0.3c-0.1,0.1-0.2,0.1-0.2,0.1l-0.9,0.8l-0.9-1
		c-0.2-0.2-0.4-0.6-0.6-1.2c-1.3-3.8-2.7-7.5-4-11.3l-4.5-12.6c-0.6-1.7-1.2-3-2.9-3.1c-0.1,0-0.1,0-0.2,0c-1.7,0-2.5,1.3-3.1,2.8
		c-0.1,0.3-0.2,0.5-0.4,0.8l-9.7,21.1l-4.4-8.5c-0.8-1.6-1.7-2.3-3-2.3s-2,0.7-2.8,2.3l-1.9,4c-1.1,2.2-2.3,4.8-3.4,7.2
		c-0.5,1.1-1.1,1.5-2.4,1.5c-4.4-0.1-8.8-0.1-13.2,0c-2,0-3.2,1.1-3.3,2.8c0,0.7,0.3,1.4,0.8,1.9c0.6,0.6,1.5,1,2.5,1
		c2.5,0,5,0,7.4,0h8.9c1.4,0,2.4-0.6,3-1.8c0.3-0.6,0.5-1.1,0.8-1.7c0.4-0.9,0.9-1.9,1.4-2.9c0.2-0.4,0.4-0.7,0.6-1.2l0.1-0.1
		c0.3-0.6,0.5-1.1,0.8-1.6l1.1-2l1.7,3.4c1,1.9,1.9,3.8,2.9,5.6c0.8,1.5,2.2,2.2,3.5,1.8c1.1-0.3,1.6-1.1,2.2-2.4
		c2.7-6,5.4-11.9,8.2-17.9l1.5-3.2l8.3,23c0.3,0.8,1.2,3.2,2.9,3.2c0.8,0,1.9-0.5,3.1-1.6c1.3-1.1,2.6-1.6,4.3-1.6
		c1.4,0,2.9,0.1,4.6,0.1c1.9,0,3.9,0,5.8-0.1c1.7,0,2.9-1.2,2.9-2.8C143.3,133.7,142.1,132.6,140.5,132.6z"/>
	<g>
		<path class="st1" d="M50.3,96.9c-0.6-0.1-1.1-0.1-1.7-0.1c-4.9,0-9,3.2-10.7,8.1c-0.6,0-1.2,0-1.8,0.1c-0.6,0-1.2,0.1-1.8,0.1
			c-3.7,0-7.4,0-11.1,0c-10.3,0.2-18.2,8-18.3,18.2c-0.1,8.8-0.1,17.7,0,26.5c0.1,10,8.1,17.9,18.2,18c3.8,0,7.6,0.1,11.3,0
			c0.6,0,1.2,0,1.9,0.1c0.5,0,1,0.1,1.5,0.1c0.7,1.9,1.7,3.9,3.6,5.6c2,1.7,4.6,2.6,7.2,2.6c1.2,0,2.4-0.2,3.6-0.6
			c4.6-1.6,7.5-5.9,7.6-11.2c0-6.6,0-13.3,0-19.9v-6.6v-3.8v-6.3c0-1.8,0-3.7,0-5.6v-0.4c0-4.8,0-9.8-0.2-14.8
			C59.4,102,55.4,97.7,50.3,96.9z M54,164.6c0,3.4-2.3,5.9-5.5,5.9c-3.1,0-5.4-2.6-5.4-6v-28.1c0-9.3,0-18.6,0-27.9
			c0-1.8,0.6-3.4,1.6-4.5s2.3-1.6,3.8-1.7c0.9,0,1.8,0.2,2.6,0.6c2.2,1.1,2.9,3.6,2.9,5.5C54,127.3,54,145.9,54,164.6z M25.7,110.8
			h5.5c1.1,0,2.3,0,3.4,0c0.9,0,1.8,0,2.7,0c0.1,4.3,0.1,8.7,0.1,13c0,2.1,0,4.2,0,6.4v6.4v6.3c0,3.5,0,7,0,10.6
			c0,1.4,0,2.8-0.1,4.2c0,1.5-0.1,3-0.1,4.5c-0.8,0-1.5,0-2.3,0c-1.2,0-2.3,0.1-3.5,0.1h-4c-1.1,0-2.3,0-3.4,0
			c-8.1-0.1-13.5-5.6-13.5-13.7c0-8.1,0-16.1,0-24.2c0-8.2,5.3-13.6,13.5-13.7L25.7,110.8z"/>
		<path class="st1" d="M204.4,123.3c-0.1-10.2-8-18-18.3-18.2c-3.7-0.1-7.4-0.1-11.1,0c-0.6,0-1.1,0-1.8-0.1c-0.6,0-1.2-0.1-1.8-0.1
			c-1.8-5-5.9-8.1-10.7-8.1c-0.6,0-1.1,0-1.7,0.1c-5.2,0.8-9.1,5.1-9.3,10.2c-0.2,4.9-0.2,9.9-0.2,14.8v0.3c0,1.9,0,3.7,0,5.6v6.3
			v3.8v6.6c0,6.6,0,13.3,0,19.9c0,5.3,2.9,9.5,7.6,11.2l0,0c1.2,0.4,2.4,0.6,3.6,0.6c2.6,0,5.2-0.9,7.2-2.6c1.9-1.6,2.9-3.6,3.6-5.6
			c0.5,0,1,0,1.5-0.1c0.6,0,1.3-0.1,1.9-0.1c3.8,0.1,7.5,0,11.3,0c10.1-0.1,18.1-8,18.2-18C204.6,141.1,204.6,132.1,204.4,123.3z
			 M182,162.3h-4c-1.2,0-2.4,0-3.5-0.1c-0.8,0-1.5,0-2.3,0c0-1.5,0-3-0.1-4.5c0-1.4-0.1-2.8-0.1-4.2c0-3.5,0-7,0-10.6v-6.3v-6.5
			c0-2.1,0-4.2,0-6.4c0-4.2,0-8.6,0.1-13c0.9,0,1.8,0,2.7,0c1.1,0,2.3,0,3.4,0h5.5h1.8c8.2,0.1,13.5,5.4,13.5,13.7
			c0,8.1,0,16.1,0,24.2c0,8-5.5,13.5-13.5,13.7C184.3,162.3,183.1,162.3,182,162.3z M160.8,170.5c-3.3-0.1-5.6-2.5-5.6-5.9
			c0-18.7,0-37.3,0-56c0-2,0.8-4.4,2.9-5.5c0.8-0.4,1.7-0.6,2.6-0.6c0,0,0,0,0.1,0c1.4,0,2.8,0.6,3.8,1.7s1.6,2.7,1.6,4.5
			c0,9.3,0,18.6,0,27.9v28.1C166.2,168,163.8,170.5,160.8,170.5z"/>
		<path class="st1" d="M153.7,76.2c2.1-1.3,4.1-2.6,6.1-4c2.5-1.7,5.1-3.4,7.7-4.9c4.8,6.5,8,15.2,9.7,26.4c0.1,0.7,0.2,1.2,0.2,1.6
			l0.1,0.6c0.4,1.9,1.7,3.1,3.4,3.1l0,0c1.5,0,2.8-0.9,3.4-2.5l0.2-0.4l-0.1-0.5c-0.2-0.9-0.4-1.8-0.5-2.8
			c-1.8-13.4-6.8-25.6-14.7-36.3c-15.3-20.3-35.8-31.4-60.9-32.9c-1.7-0.1-3.5-0.2-5.2-0.2c-17,0-32.7,5.2-46.6,15.3
			C37.2,52.9,26.1,72,23.1,95.8v0.3l0.1,0.3c0.5,1.7,1.7,2.7,3.2,2.7c1.6,0,2.8-1,3.4-2.8l0.1-0.2v-0.2v-0.1
			c1.7-11.9,4.7-20.7,9.4-27.5c2.6,1.4,5.2,2.9,7.7,4.3l0.5,0.3c1.7,1,3.4,1.9,5.1,2.9c0.3,0.2,0.7,0.5,1.2,0.8
			c1.7,1.2,3.1,2.1,4.3,2.3c3.8,2,6.8,1.4,9.5-2.1c0.2-0.3,0.4-0.5,0.7-0.8c0.4-0.5,0.8-1.1,1.3-1.6C77.3,65.3,86.8,60,98,58.7
			c16.7-2,30.7,3.9,41.5,17.4c2.1,2.7,4,3.9,6.1,3.9c1.5,0,3.2-0.6,5.2-1.9L153.7,76.2z M163.6,61.4c-0.2,0.9-1.1,1.5-1.6,1.8
			c-4,2.5-8.8,5.6-13.4,8.9c-0.5,0.4-1.3,0.9-2.2,0.9c-1.2,0-2.1-1.1-2.5-1.7c-8.1-10.4-18.4-16.7-30.7-18.8
			c-3.5-0.6-7-0.9-10.3-0.9c-15.2,0-28.1,6.4-38.3,18.9l-0.2,0.2c-1.3,1.6-1.8,2.1-2.8,2.1c-0.7,0-1.4-0.4-2.8-1.2
			c-5.2-3-10.4-6-15.8-9.1l-0.7-0.4l0.5-0.6C55.6,44.3,72.3,34.1,92.6,31c18-2.7,35.2,0.8,50.8,10.5c7.2,4.5,13.7,10.4,19.3,17.5
			C163.4,60.1,163.7,60.7,163.6,61.4z"/>
	</g>
</g>
</svg>
