<?xml version="1.0" encoding="utf-8"?>
<!-- Generator: Adobe Illustrator 22.0.1, SVG Export Plug-In . SVG Version: 6.00 Build 0)  -->
<svg version="1.1" id="圖層_2_1_" xmlns="http://www.w3.org/2000/svg" xmlns:xlink="http://www.w3.org/1999/xlink" x="0px"
	 y="0px" viewBox="0 0 230 200" style="enable-background:new 0 0 230 200;" xml:space="preserve">
<style type="text/css">
	.st0{fill:#9A5357;}
	.st1{fill:#725D5F;}
</style>
<g>
	<path class="st0" d="M140.2,79.1c-0.6-4.6-4.5-8-9.1-8c-4.6,0-8.5,3.4-9.1,8c-0.6,4.5,2.2,8.7,6.5,9.9v7c0,1.4,1.2,2.6,2.6,2.6
		c1.4,0,2.6-1.2,2.6-2.6v-6.9C137.9,87.8,140.7,83.6,140.2,79.1z"/>
	<path class="st1" d="M183.9,135.3c-1.8-3.8-5.6-6.2-9.8-6.2c-1.2,0-2.3,0.2-3.4,0.6l-55.9,18.6c-1,0.3-2,0.5-3,0.5h-2.5l0.3-0.7
		c1.4-3.8,1-8-1.1-11.4l-0.3-0.4c-3.2-5.2-8.9-8.5-15.1-8.5H77.3c-5.7,0-11.2-2-15.7-5.5c-5.3-4.2-12-6.6-18.8-6.6h-6.4l-0.1-0.4
		c-1.2-3.4-4.4-5.7-8-5.7h-15c-4.7,0-8.5,3.8-8.5,8.5v63.4c0,4.7,3.8,8.5,8.5,8.5h15.1c2.4,0,4.7-1,6.3-2.8l0.2-0.2h76
		c4.3,0,8.6-1.2,12.3-3.4l56.6-34.5C184.4,146.2,186.2,140.3,183.9,135.3z M103.7,148.5l-0.2,0.2H84.9c-5.9,0-11.5,1.7-16.4,5
		l-2.2,1.5c-0.8,0.5-1.2,1.3-1.1,2.2s0.6,1.7,1.4,2.1c0.8,0.4,1.8,0.3,2.5-0.2l2.2-1.5c4.1-2.7,8.8-4.1,13.7-4.1h26.9
		c1.6,0,3.1-0.3,4.6-0.7l55.9-18.6c2.3-0.8,5,0.1,6.5,2c1,1.3,1.4,3,1.1,4.6c-0.3,1.6-1.3,3-2.7,3.8l-56.6,34.5
		c-2.9,1.8-6.3,2.7-9.7,2.7H36.9v-61.5h6c5.7,0,11.2,2,15.7,5.5c5.3,4.2,12,6.6,18.8,6.6h15.8c4.4,0,8.5,2.4,10.8,6.1l0.3,0.4
		C105.9,142.1,105.8,145.8,103.7,148.5z M31.9,118v63.4c0,2-1.6,3.5-3.5,3.5H13.3c-2,0-3.5-1.6-3.5-3.5V118c0-2,1.6-3.6,3.5-3.6
		h15.1C30.3,114.5,31.9,116.1,31.9,118z"/>
	<path class="st0" d="M169.8,99.8c0,0,0-0.2-0.1-0.3V85.2l0.2-0.4l-0.2-0.4V70.1l0.2-0.4l-0.1-0.4V57.6c0-3-2.5-5.5-5.5-5.5h-3.4
		V39.5c0-16.3-13.3-29.7-29.7-29.7c-16.3,0-29.7,13.3-29.7,29.7v12.6h-3.7c-3,0-5.5,2.5-5.5,5.5v42.3c0,11.4,9.3,20.6,20.6,20.6
		h36.2c11.2,0,20.2-8.8,20.6-19.9v-0.1l0.2-0.2L169.8,99.8z M106.4,52.1V39.5c0-13.6,11.1-24.7,24.7-24.7s24.7,11.1,24.7,24.7v12.6
		H106.4z M103.9,97.4h-6.7V87.3h6.7c1.4,0,2.5-1.1,2.5-2.5s-1.1-2.5-2.5-2.5h-6.7V72.2h6.7c1.4,0,2.5-1.1,2.5-2.5s-1.1-2.5-2.5-2.5
		h-6.7V57.1h67.5v10.1h-6.5c-1.4,0-2.5,1.1-2.5,2.5s1.1,2.5,2.5,2.5h6.5v10.1h-6.5c-1.4,0-2.5,1.1-2.5,2.5s1.1,2.5,2.5,2.5h6.5v10.1
		h-6.5c-1.4,0-2.5,1.1-2.5,2.5s1.1,2.5,2.5,2.5h6.3l-0.1,0.6c-1.5,7.2-7.9,12.5-15.3,12.5h-36.2c-7.4,0-13.8-5.3-15.3-12.5l-0.1-0.6
		h6.5c1.4,0,2.5-1.1,2.5-2.5S105.2,97.4,103.9,97.4z"/>
</g>
</svg>
