<?xml version="1.0" encoding="utf-8"?>
<!-- Generator: Adobe Illustrator 22.0.1, SVG Export Plug-In . SVG Version: 6.00 Build 0)  -->
<svg version="1.1" id="圖層_2_1_" xmlns="http://www.w3.org/2000/svg" xmlns:xlink="http://www.w3.org/1999/xlink" x="0px"
	 y="0px" viewBox="0 0 230 200" style="enable-background:new 0 0 230 200;" xml:space="preserve">
<style type="text/css">
	.st0{fill:#9A5357;}
	.st1{fill:#725D5F;}
</style>
<g>
	<g>
		<path class="st0" d="M87.5,181.2H29.3c-4.6,0-8.4-3.8-8.4-8.4v-39c0-4.4,4.1-7.6,8.4-6.6l61.4,15.5c3,0.8,5.1,3.5,5.1,6.6v23.5
			C95.9,177.5,92.2,181.2,87.5,181.2z"/>
	</g>
	<g>
		<path class="st1" d="M151.8,107.9c-1.1-0.9-2.7-0.7-3.5,0.4L137,122.4V90.3c0-1.4-1.1-2.5-2.5-2.5s-2.5,1.1-2.5,2.5v39.2v0.1
			c0,0.1,0,0.2,0,0.3s0,0.2,0,0.2c0,0.1,0,0.2,0.1,0.2c0,0.1,0.1,0.1,0.1,0.2c0,0.1,0.1,0.1,0.1,0.2c0,0.1,0.1,0.1,0.1,0.2
			c0,0.1,0.1,0.1,0.2,0.2c0.1,0.1,0.1,0.1,0.2,0.2l0.1,0.1c0,0,0.1,0,0.1,0.1c0.1,0,0.1,0.1,0.2,0.1c0.1,0,0.2,0.1,0.2,0.1
			c0.1,0,0.1,0.1,0.2,0.1c0.1,0,0.2,0.1,0.3,0.1s0.1,0,0.1,0c0.2,0,0.3,0,0.5,0l0,0l0,0c0.2,0,0.4,0,0.5-0.1h0.1
			c0.1,0,0.3-0.1,0.4-0.1c0.1,0,0.1-0.1,0.2-0.1c0.1-0.1,0.2-0.1,0.3-0.2c0.1,0,0.1-0.1,0.2-0.1c0.1-0.1,0.2-0.2,0.2-0.2
			s0.1,0,0.1-0.1l15.7-19.6C153,110.4,152.9,108.8,151.8,107.9z"/>
		<path class="st1" d="M134.5,71.1c-7.8,0-15.3,1.5-22.4,4.5v-5.1c0-12.4-10.1-22.4-22.4-22.4h-7.1V48V37.8
			c0-8.2-6.1-14.9-13.7-14.9h-21c-7.5,0-13.7,6.7-13.7,14.9v10.1V48h-7.1C14.8,48,4.7,58.1,4.7,70.5v104c0,12.4,10.1,22.4,22.4,22.4
			h62.6c9.4,0,17.5-5.8,20.8-14.1c7.6,3.4,15.7,5.2,24,5.2c32.2,0,58.4-26.2,58.4-58.4S166.7,71.1,134.5,71.1z M39.2,47.9V37.8
			c0-5.5,3.9-9.9,8.7-9.9H69c4.8,0,8.7,4.4,8.7,9.9v10.1V48L39.2,47.9C39.2,48,39.2,48,39.2,47.9z M107.1,174.5
			c0,9.6-7.8,17.4-17.4,17.4H27.1c-9.6,0-17.4-7.8-17.4-17.4v-104c0-9.6,7.8-17.4,17.4-17.4h62.6c9.6,0,17.4,7.8,17.4,17.4V174.5z
			 M134.5,183c-7.7,0-15.2-1.6-22.2-4.8c-0.2-0.1-0.3-0.1-0.5-0.2c0.2-1.1,0.3-2.3,0.3-3.5V81c0.1,0,0.1,0,0.2-0.1
			c7-3.2,14.5-4.8,22.2-4.8c29.5,0,53.4,24,53.4,53.4C188,159,164,183,134.5,183z"/>
	</g>
	<g>
		<path class="st1" d="M39.3,111.3H33V79.8h-7.9v-4.9l14.1-1.3L39.3,111.3L39.3,111.3z"/>
		<path class="st1" d="M69.5,83.7c0,1.9-0.5,3.5-1.5,5s-2.4,2.6-4.1,3.3c2,0.8,3.7,2,4.9,3.6c1.2,1.6,1.8,3.4,1.8,5.4
			c0,3.5-1.2,6.1-3.5,8s-5.3,2.8-8.8,2.8c-3.8,0-6.9-0.9-9.3-2.8s-3.6-4.6-3.6-8c0-2,0.6-3.9,1.9-5.4c1.3-1.6,3-2.8,5.1-3.6
			c-1.8-0.8-3.2-1.9-4.3-3.3s-1.6-3.1-1.6-5c0-3.3,1.1-5.8,3.2-7.6c2.2-1.7,5-2.6,8.5-2.6c3.3,0,6,0.9,8.1,2.6S69.5,80.4,69.5,83.7z
			 M64.4,100.8c0-1.8-0.6-3.3-1.8-4.5s-2.6-1.8-4.4-1.8c-1.9,0-3.5,0.6-4.7,1.8c-1.2,1.2-1.9,2.7-1.9,4.5c0,1.9,0.6,3.4,1.9,4.5
			s2.8,1.7,4.8,1.7c1.7,0,3.2-0.6,4.4-1.7C63.8,104.1,64.4,102.6,64.4,100.8z M63.2,83.9c0-1.6-0.5-2.9-1.4-3.9s-2.1-1.5-3.6-1.5
			c-1.6,0-3,0.5-4,1.4c-1,1-1.5,2.3-1.5,4s0.5,3,1.5,4.1c1,1,2.3,1.5,4,1.5c1.4,0,2.6-0.5,3.5-1.5C62.8,86.9,63.2,85.6,63.2,83.9z"
			/>
		<path class="st1" d="M77.9,99.7c0.4-0.6,1-1.1,1.6-1.5s1.3-0.5,2.1-0.5c1.4,0,2.5,0.4,3.3,1.3s1.2,2.3,1.2,4.1v8.1h-3V103
			c0-1-0.2-1.8-0.6-2.3s-1-0.7-1.8-0.7c-0.6,0-1.2,0.1-1.7,0.3s-0.9,0.5-1.2,0.9v9.9h-3V92h3L77.9,99.7L77.9,99.7z"/>
		<path class="st1" d="M96.2,100.7h-1.3c-0.6,0-1.1,0.1-1.5,0.4c-0.4,0.2-0.7,0.6-0.9,1.1v9.3h-3V98h2.7l0.2,1.9
			c0.3-0.7,0.8-1.2,1.3-1.6s1.1-0.6,1.8-0.6c0.2,0,0.4,0,0.5,0c0.2,0,0.3,0.1,0.4,0.1L96.2,100.7z"/>
	</g>
</g>
</svg>
