<?xml version="1.0" encoding="utf-8"?>
<!-- Generator: Adobe Illustrator 22.0.1, SVG Export Plug-In . SVG Version: 6.00 Build 0)  -->
<svg version="1.1" id="圖層_1" xmlns="http://www.w3.org/2000/svg" xmlns:xlink="http://www.w3.org/1999/xlink" x="0px" y="0px"
	 viewBox="0 0 48.2 48.2" style="enable-background:new 0 0 48.2 48.2;" xml:space="preserve">
<style type="text/css">
	.st0{fill:#D2B2B4;}
</style>
<g>
	<path class="st0" d="M42.8,41.3c0,0.8-0.7,1.5-1.5,1.5H6.9c-0.8,0-1.5-0.7-1.5-1.5V6.9C5.3,6,6,5.3,6.9,5.3H21V0H6.9
		C3.1,0,0,3.1,0,6.9v34.5c0,3.8,3.1,6.9,6.9,6.9h34.5c3.8,0,6.9-3.1,6.9-6.9V27.2h-5.3V41.3z"/>
	<polygon class="st0" points="29.5,0 29.5,5.3 39.1,5.3 23.2,21.2 27,25 42.8,9.1 42.8,18.7 48.2,18.7 48.2,0 	"/>
</g>
</svg>
