<?xml version="1.0" encoding="utf-8"?>
<!-- Generator: Adobe Illustrator 22.0.1, SVG Export Plug-In . SVG Version: 6.00 Build 0)  -->
<svg version="1.1" id="圖層_1" xmlns="http://www.w3.org/2000/svg" xmlns:xlink="http://www.w3.org/1999/xlink" x="0px" y="0px"
	 viewBox="0 0 48.2 48.2" style="enable-background:new 0 0 48.2 48.2;" xml:space="preserve">
<g>
	<path d="M41,28.2L25,12.8c-0.5-0.5-1.3-0.5-1.8,0l-16,15.4c-0.5,0.5-0.5,1.3,0,1.8l3.6,3.6c0,0,0,0,0,0c0.5,0.5,1.3,0.5,1.8,0
		l7.8-7.2v17.8c0,0.7,0.6,1.3,1.3,1.3h5c0.7,0,1.3-0.6,1.3-1.3V26.4l7.8,7.2c0,0,0,0,0,0c0.5,0.5,1.3,0.5,1.8,0L41,30
		C41.5,29.5,41.5,28.7,41,28.2z"/>
	<path d="M9.6,10.7h28.9c0.6,0,1-0.6,1-1.1V3.9c0-0.6-0.4-1.1-1-1.1H9.6c-0.6,0-1,0.5-1,1.1v5.7C8.6,10.1,9,10.6,9.6,10.7z"/>
</g>
</svg>
