<?xml version="1.0" encoding="utf-8"?>
<!-- Generator: Adobe Illustrator 22.0.1, SVG Export Plug-In . SVG Version: 6.00 Build 0)  -->
<svg version="1.1" id="圖層_1" xmlns="http://www.w3.org/2000/svg" xmlns:xlink="http://www.w3.org/1999/xlink" x="0px" y="0px"
	 viewBox="0 0 39 38.7" style="enable-background:new 0 0 39 38.7;" xml:space="preserve">
<style type="text/css">
	.st0{fill:#FFFFFF;}
	.st1{opacity:0.6;}
</style>
<g>
	<g>
		<path class="st0" d="M18,9.7l-0.1,8.3l-0.8,0l0-0.6l-5,0l0,0.6l-0.8,0l0.1-8.3L18,9.7z M17.2,16.6l0-2.8l-5,0l0,2.8L17.2,16.6z
			 M12.3,10.3l0,2.7l5,0l0-2.7L12.3,10.3z"/>
		<path class="st0" d="M26.5,11.9c0.7,1.7,1.9,3.3,3.3,4.1c-0.2,0.2-0.5,0.4-0.6,0.6c-1.5-0.9-2.7-2.8-3.5-4.7l-0.1,0l0,3.7l2.3,0
			l0,0.7l-2.3,0l0,1.9l-0.8,0l0-1.9l-2.3,0l0-0.7l2.3,0l0-3.7l-0.2,0c-0.8,1.9-2.1,3.7-3.5,4.7c-0.1-0.2-0.4-0.5-0.5-0.6
			c1.3-0.8,2.6-2.4,3.3-4.1l-3,0l0-0.7l3.9,0l0-2.1l0.8,0l0,2.1l4,0l0,0.7L26.5,11.9z"/>
		<path class="st0" d="M13.9,23.2l-3.8,0l0-0.6l3.8,0L13.9,23.2z M18.6,25.5c-0.4,1.2-1,2.1-1.8,2.9c0.7,0.5,1.5,0.8,2.3,1
			c-0.2,0.2-0.4,0.5-0.5,0.7c-0.9-0.3-1.8-0.7-2.5-1.2c-0.7,0.5-1.6,0.9-2.5,1.2c-0.1-0.2-0.2-0.5-0.3-0.6l-2.3,0l0,0.5l-0.6,0
			l0-3.4l2.9,0l0,2.8c0.8-0.2,1.6-0.5,2.2-1c-0.6-0.6-1.1-1.4-1.5-2.2l0.4-0.1l-0.9,0l0-0.7l4.3,0l0.1,0L18.6,25.5z M10.5,25.2
			l2.9,0l0,0.6l-2.9,0L10.5,25.2z M13.5,23.9l0,0.6l-2.9,0l0-0.6L13.5,23.9z M12.8,27.2l-1.6,0l0,1.6l1.6,0L12.8,27.2z M11.9,22.5
			c-0.1-0.4-0.5-0.9-0.7-1.3l0.6-0.3c0.3,0.4,0.6,0.9,0.8,1.3L11.9,22.5z M15.4,22.4c0,0.9-0.3,2-1.5,2.6c-0.1-0.2-0.3-0.4-0.5-0.5
			c1.1-0.6,1.3-1.4,1.3-2.1l0-1.1l3,0l0,2.3c0,0.3,0,0.4,0.2,0.4l0.6,0c0.1,0,0.3,0,0.4,0c0,0.2,0,0.5,0,0.6c-0.1,0-0.3,0-0.5,0
			l-0.7,0c-0.6,0-0.8-0.3-0.8-1l0-1.6l-1.7,0L15.4,22.4z M14.8,26c0.3,0.7,0.8,1.4,1.4,1.9c0.6-0.5,1.1-1.1,1.4-1.9L14.8,26z"/>
		<path class="st0" d="M24.9,23.3l-4.1,0l0-0.6l4.1,0L24.9,23.3z M24.4,25.9l-3.2,0l0-0.6l3.2,0L24.4,25.9z M21.2,24l3.2,0l0,0.6
			l-3.2,0L21.2,24z M24.4,29.6l-2.5,0l0,0.5l-0.6,0l0-3.4l3.2,0L24.4,29.6z M21.9,27.3l0,1.6l1.9,0l0-1.6L21.9,27.3z M22.7,22.6
			c-0.1-0.4-0.5-0.9-0.7-1.3l0.6-0.3c0.3,0.4,0.6,0.9,0.8,1.3L22.7,22.6z M29.6,25.3l-2,0l0,5l-0.8,0l0-5l-2,0l0-0.7l2,0l0-3.3
			l0.8,0l0,3.3l2,0L29.6,25.3z"/>
	</g>
	<g class="st1">
		<path class="st0" d="M27.7,2.5C24.2,0.9,20.2,0.4,16.4,1c-3.8,0.7-7.3,2.5-10,5.2c-2.7,2.7-4.6,6.2-5.2,10C0.5,20,1,24,2.6,27.6
			c-1.8-3.4-2.4-7.5-1.8-11.3C1.4,12.3,3.3,8.7,6,5.9c2.8-2.8,6.4-4.6,10.3-5.2C20.2,0,24.2,0.7,27.7,2.5z"/>
		<path class="st0" d="M11.3,36.3c3.5,1.6,7.5,2.1,11.3,1.4c3.8-0.7,7.3-2.5,10-5.2c2.7-2.7,4.6-6.2,5.2-10
			c0.7-3.8,0.2-7.8-1.4-11.3c1.8,3.4,2.4,7.5,1.8,11.3c-0.6,3.9-2.5,7.5-5.2,10.3c-2.8,2.8-6.4,4.6-10.3,5.2
			C18.8,38.7,14.7,38,11.3,36.3z"/>
	</g>
</g>
</svg>
