<?xml version="1.0" encoding="utf-8"?>
<!-- Generator: Adobe Illustrator 22.0.1, SVG Export Plug-In . SVG Version: 6.00 Build 0)  -->
<svg version="1.1" id="圖層_1" xmlns="http://www.w3.org/2000/svg" xmlns:xlink="http://www.w3.org/1999/xlink" x="0px" y="0px"
	 viewBox="0 0 578.9 138" style="enable-background:new 0 0 578.9 138;" xml:space="preserve">
<style type="text/css">
	.st0{fill:#9A5357;}
</style>
<g>
	<path class="st0" d="M544.2,137.3H34.8c-18.5,0-33.6-15.4-33.6-34.4V35.1c0-18.9,15.1-34.4,33.6-34.4h52.6v4.5H34.8
		c-16,0-29.1,13.4-29.1,29.9v67.8c0,16.5,13,29.9,29.1,29.9h509.4c16,0,29.1-13.4,29.1-29.9V35.1c0-16.5-13-29.9-29.1-29.9H489V0.8
		h55.1c18.5,0,33.6,15.4,33.6,34.4v67.8C577.7,121.8,562.7,137.3,544.2,137.3z"/>
</g>
</svg>
