<?xml version="1.0" encoding="utf-8"?>
<!-- Generator: Adobe Illustrator 22.0.1, SVG Export Plug-In . SVG Version: 6.00 Build 0)  -->
<svg version="1.1" id="圖層_2_1_" xmlns="http://www.w3.org/2000/svg" xmlns:xlink="http://www.w3.org/1999/xlink" x="0px"
	 y="0px" viewBox="0 0 242.9 203" style="enable-background:new 0 0 242.9 203;" xml:space="preserve">
<style type="text/css">
	.st0{fill:#333333;stroke:#333333;stroke-width:2;stroke-miterlimit:10;}
	.st1{fill:#333333;}
</style>
<g>
	<path class="st0" d="M46.5,178.4c-3.6,0-6.6-3-6.6-6.6v-55.6c0-3.6,3-6.6,6.6-6.6h13.2c2.8,0,5.3,1.8,6.2,4.4l0.3,0.9h6.2
		c5.8,0,11.4,2,15.9,5.6c4,3.2,9.1,5,14.3,5h13.9c5.1,0,9.8,2.7,12.5,7.1l0.2,0.4c1.7,2.8,2,6.2,0.9,9.3l-0.7,1.8h3.4
		c1,0,2-0.2,2.9-0.5l49-16.3c0.9-0.3,1.8-0.4,2.7-0.4c3.3,0,6.4,1.9,7.8,5c1.8,4,0.4,8.7-3.3,10.9L142.3,173
		c-3.1,1.9-6.7,2.9-10.3,2.9H65l-0.4,0.5c-1.2,1.4-3,2.2-4.9,2.2H46.5V178.4z M46.5,112.2c-2.2,0-4,1.8-4,4v55.6c0,2.2,1.8,4,4,4
		h13.2c2.2,0,4-1.8,4-4v-55.6c0-2.2-1.8-4-4-4C59.7,112.2,46.5,112.2,46.5,112.2z M66.3,173.2H132c3.2,0,6.3-0.9,9-2.5l49.7-30.2
		c1.4-0.9,2.4-2.3,2.7-4c0.3-1.6-0.1-3.4-1.1-4.7c-1.1-1.5-2.9-2.4-4.8-2.4c-0.6,0-1.3,0.1-1.9,0.3l-49,16.3
		c-1.2,0.4-2.5,0.6-3.8,0.6h-23.6c-4.5,0-8.8,1.3-12.5,3.8l-1.9,1.3c-0.2,0.2-0.5,0.2-0.8,0.2c-0.2,0-0.4,0-0.6-0.1
		c-0.4-0.2-0.7-0.6-0.7-1.1s0.2-0.9,0.6-1.2l2-1.3c4.1-2.8,8.9-4.2,13.9-4.2H126l0.4-0.5c2-2.7,2.2-6.3,0.5-9.2l-0.2-0.4
		c-2.1-3.6-6.1-5.8-10.2-5.8h-13.9c-5.8,0-11.4-2-15.9-5.6c-4-3.2-9.1-5-14.3-5h-6.1L66.3,173.2L66.3,173.2z"/>
	<g>
		<g>
			<path class="st1" d="M133.8,79.7c-2.5,0.5-5,0.9-7.6,1.1c2.6-0.1,5.1-0.3,7.6-0.6c5.9-0.8,11.8-2.3,17.6-4.4
				c10.8-4,21.2-10.3,31.1-18.8c4.5-3.9,8.9-8.3,13-12.9c2-2.3,4-4.7,5.8-7.1c1-1.3,1.9-2.5,2.7-3.7c0.9-1.4,1.8-2.6,2.6-3.9
				c0.9-1.4,0.4-3.3-1-4.2c-0.5-0.3-1-0.4-1.6-0.4c-1.1,0-2.1,0.5-2.6,1.5c0,0.1-0.1,0.1-0.1,0.2l0,0c-0.5,1-1.2,2.2-2.1,3.7
				c-0.7,1.2-1.5,2.5-2.4,3.7c-1.6,2.4-3.3,4.8-5.1,7.2c-3.6,4.7-7.6,9.2-11.7,13.3c-9,8.8-18.8,15.6-29.1,20.2
				C145.3,76.8,139.6,78.6,133.8,79.7z"/>
		</g>
		<g>
			<path class="st1" d="M151.9,77.2c-5.8,2.1-11.8,3.7-17.9,4.5c-3.5,0.5-7,0.7-10.5,0.7c-2.6,0-5.2-0.1-7.8-0.4
				c-12.1-1.2-23.8-5-34.5-10.4c11,4.7,22.8,7.8,34.7,8.2c0.9,0,1.8,0,2.7,0c5,0,10-0.5,14.9-1.4c5.8-1.1,11.4-2.9,16.7-5.3
				c10.5-4.6,19.8-11.4,28-19.3c-3.8-2.3-12.9-5.6-27.2,1.6c-8.6,4.3-20.1,6.9-31.6,7.9c1.4,0.9,2.8,1.8,4.3,2.5
				c1.8,0.9,3.7,1.6,5.6,2.1c2,0.5,4,0.9,6.1,0.9c-2,0.5-4.2,0.5-6.3,0.3c-2.1-0.2-4.2-0.7-6.2-1.5c-2.6-1-5-2.4-7.2-4
				c-3.9,0.2-7.8,0.3-11.6,0.1c0.7,0.7,1.4,1.4,2.2,2c1.6,1.3,3.2,2.5,5.1,3.3c-2.1-0.4-4-1.3-5.8-2.3c-1.5-0.9-2.8-2-4.1-3.1
				c-8.1-0.5-15.3-2-20.4-4.4c-15.6-7.3-25.7-17.7-32.6-6.7c0,0,13.5,28.1,37.2,40c1.7-1,3.3-2.2,4.8-3.6c-0.4,1-0.9,1.9-1.5,2.8
				c-0.4,0.6-0.8,1.2-1.3,1.7c5.1,2.3,10.3,3.9,15.5,5c2.7-0.4,5.4-1.1,8-2.1c1.8-0.7,3.6-1.6,5.3-2.6c1.7-1,3.4-2.2,4.9-3.7
				c-0.4,1-0.9,1.9-1.5,2.8s-1.3,1.7-2,2.5c-1.5,1.6-3.3,2.9-5.1,4c-0.2,0.1-0.4,0.2-0.6,0.3c9.9,0.9,19.6-0.2,28.5-2.5
				c1.8-1.1,3.6-2.4,5.2-3.8c1.5-1.3,2.8-2.7,4.1-4.3c1.2-1.6,2.4-3.2,3.3-5.1c0,1.1-0.2,2.1-0.4,3.2c-0.3,1-0.6,2.1-1.1,3.1
				c-0.6,1.4-1.4,2.8-2.4,4.1c9-3.5,16.8-8.4,22.4-13.9c0-0.5,0-1,0-1.4c-0.1-2-0.3-4-0.8-6.1c0.7,0.8,1.3,1.7,1.7,2.7
				c0.4,0.9,0.8,1.8,1.1,2.7c5.1-5.7,7.9-12,7.6-18.2C172.5,67.2,162.6,73.2,151.9,77.2z"/>
		</g>
	</g>
</g>
</svg>
