<?xml version="1.0" encoding="utf-8"?>
<!-- Generator: Adobe Illustrator 22.0.1, SVG Export Plug-In . SVG Version: 6.00 Build 0)  -->
<svg version="1.1" id="圖層_2_1_" xmlns="http://www.w3.org/2000/svg" xmlns:xlink="http://www.w3.org/1999/xlink" x="0px"
	 y="0px" viewBox="0 0 242.9 203" style="enable-background:new 0 0 242.9 203;" xml:space="preserve">
<style type="text/css">
	.st0{fill:none;stroke:#333333;stroke-width:5;stroke-miterlimit:10;}
	.st1{fill:none;stroke:#333333;stroke-width:5;stroke-linecap:round;stroke-linejoin:round;stroke-miterlimit:10;}
	.st2{fill:#333333;}
	.st3{fill:none;stroke:#333333;stroke-width:6;stroke-linecap:round;stroke-linejoin:round;stroke-miterlimit:10;}
</style>
<g>
	<g>
		<circle class="st0" cx="79.1" cy="89.5" r="15.5"/>
		<circle class="st0" cx="79.1" cy="89.5" r="61.9"/>
		<path class="st1" d="M124.3,79.1c-2.7-12.4-7.3-18.7-14.6-24.8"/>
		<circle class="st2" cx="126" cy="90.3" r="3.4"/>
	</g>
	<g>
		<path class="st2" d="M217.2,139.3h-87.6c0,0-5.3,7-20.7,14.5c-15.6,7.7-31.4,6.4-31.4,6.4s0.9,10.3,10.3,10.3h129.4
			c4.7,0,8.5-3.8,8.5-8.5v-14.2C225.7,143.1,221.9,139.3,217.2,139.3z M208.3,154.3h-75c-1.7,0-3.1-1.4-3.1-3.1s1.4-3.1,3.1-3.1h75
			c1.7,0,3.1,1.4,3.1,3.1S210,154.3,208.3,154.3z"/>
	</g>
	<line class="st3" x1="97.6" y1="167.8" x2="97.6" y2="175.4"/>
	<line class="st3" x1="207.2" y1="167.8" x2="207.2" y2="175.4"/>
</g>
</svg>
