<?xml version="1.0" encoding="utf-8"?>
<!-- Generator: Adobe Illustrator 22.0.1, SVG Export Plug-In . SVG Version: 6.00 Build 0)  -->
<svg version="1.1" id="圖層_2_1_" xmlns="http://www.w3.org/2000/svg" xmlns:xlink="http://www.w3.org/1999/xlink" x="0px"
	 y="0px" viewBox="0 0 242.9 203" style="enable-background:new 0 0 242.9 203;" xml:space="preserve">
<style type="text/css">
	.st0{fill:#333333;}
	.st1{fill:none;stroke:#333333;stroke-width:5;stroke-linecap:round;stroke-linejoin:round;stroke-miterlimit:10;}
</style>
<g>
	<g>
		<g>
			<path class="st0" d="M201.5,17.5c8.2,0,14.9,6.7,14.9,14.9v110.5H25.7V32.4c0-8.2,6.7-14.9,14.9-14.9L201.5,17.5 M201.5,12.5
				H40.6c-11,0-19.9,8.9-19.9,19.9v110.5c0,2.8,2.2,5,5,5h190.7c2.8,0,5-2.2,5-5V32.4C221.4,21.5,212.4,12.5,201.5,12.5L201.5,12.5z
				"/>
		</g>
		<path class="st1" d="M217.8,144.2l15.1,30c2.5,4.9-0.2,11.4-4.7,11.4H14.6c-4.5,0-7.2-6.4-4.8-11.3l14.9-30"/>
		<line class="st1" x1="10.4" y1="176" x2="232.7" y2="176"/>
		<line class="st1" x1="93.7" y1="161" x2="150.7" y2="161"/>
	</g>
	<g>
		<path class="st0" d="M175.2,44.1c-23.6,0-48.1,0-71.7,0c0,3.4,0.1,6.8,0,10.2c-0.3,0-0.7,0-1,0.1c-4.4,0.5-8.7,1.5-12.9,3.1
			c-10.6,4-19.9,10.1-28.3,17.6c-0.4,0.3-0.2,0.6-0.1,0.9c2.2,5.5,5.2,10.6,8.8,15.3c5.9,7.6,13.1,13.4,22.1,16.8
			c3.5,1.3,7.1,2.1,10.8,2.5c0.4,0,0.5,0,0.5-0.4c0-1.8,0-3.6,0-5.3c1.5,0.1,3.1,0.3,4.6,0.3c9.4,0,18.1-2.6,26.3-7.1
			c6.1-3.4,11.6-7.6,16.9-12.1c0.7-0.6,1.4-1.2,2-1.7c0.8,0.5,1.5,0.9,2.3,1.4c2.9,1.7,5.9,3.2,8.7,5c0.5,0.3,1,0.7,1.4,1
			c0.5,0.3,0.5,0.5,0,0.9c-2.6,2-5.4,3.8-8.3,5.3c-8.2,4.3-16.9,7.3-25.8,9.6c-5.6,1.5-11.3,2.6-17.1,3.2c-3.5,0.4-7,0.5-10.4,0.2
			c-0.6-0.1-0.7,0.1-0.7,0.7c0,2.7,0,5.4,0,8.1c0.3,0,0.5,0.1,0.8,0.1c23.3,0,47.6,0,70.9,0c0,0,0.1,0,0.2,0V44.1z M103.4,104.8
			c-6-0.8-11.4-3.1-16.1-6.8C80.6,92.5,76.1,85.5,73,77.6c-0.3-0.7-0.2-1.2,0.3-1.8c5.8-7.1,13.1-11.9,21.9-14.4
			c2.7-0.8,5.5-1.3,8.3-1.4c0,1.8,0,3.7,0,5.5c0,1.2,0,1.2,1.2,1.1c8.6-0.7,15.5,2.5,21.2,8.7c0.3,0.3,0.3,0.5,0,0.7
			c-3,2.5-6,5-8.9,7.5c-0.3,0.3-0.4,0.3-0.7-0.1c-1-1.7-2.1-3.4-3.2-5.1c-2.3-3.5-5.5-5.5-9.7-5.7c0-1.8,0-3.5,0-5.3
			c0-0.6-0.2-0.6-0.7-0.6c-2.8,0.4-5.5,1-8.1,2c-4.9,1.9-9.2,4.6-13,8.2c-0.4,0.4-0.4,0.7-0.3,1.1c0.6,1.7,1.3,3.4,2.2,5
			c4.3,8.1,10.6,13.7,19.8,15.5C103.5,100.6,103.5,102.7,103.4,104.8z M147.9,75.8c-6.1,6.8-12.9,12.9-20.8,17.5
			c-4.3,2.5-8.8,4.4-13.7,5.2c-3.3,0.6-6.6,0.5-9.9-0.1c0-1.8,0-3.6,0-5.4c-5.5-2-9-6.1-11.5-11.1c-0.5-1-0.9-2.1-1.3-3.2
			c-0.1-0.3-0.1-0.5,0.1-0.7c2.6-2.6,5.5-4.7,9.1-5.4c1.2-0.2,2.4-0.4,3.6-0.1c0,0.2,0,0.3,0,0.5c0,6.5,0,13,0,19.5
			c0,0.2,0,0.4,0,0.5c2.6,0.9,5.2,1.1,7.8,0.7c3.4-0.5,6.4-1.8,9.3-3.5c6.1-3.7,11.1-8.7,15.5-14.3c0.3-0.4,0.1-0.5-0.1-0.8
			c-3.2-3.9-6.9-7.2-11.1-9.8c-6.6-4.2-13.6-6.3-21.5-5.6c0-1.8,0-3.7,0-5.5c2.2-0.3,4.4-0.2,6.7-0.1c11.2,0.8,20.8,5.5,29.4,12.5
			c3,2.5,5.8,5.2,8.4,8.2C148.2,75.3,148.2,75.5,147.9,75.8z"/>
		<path class="st0" d="M103.5,93.1L103.5,93.1L103.5,93.1L103.5,93.1L103.5,93.1z"/>
	</g>
</g>
</svg>
