<?xml version="1.0" encoding="utf-8"?>
<!-- Generator: Adobe Illustrator 22.0.1, SVG Export Plug-In . SVG Version: 6.00 Build 0)  -->
<svg version="1.1" id="圖層_2_1_" xmlns="http://www.w3.org/2000/svg" xmlns:xlink="http://www.w3.org/1999/xlink" x="0px"
	 y="0px" viewBox="0 0 242.9 203" style="enable-background:new 0 0 242.9 203;" xml:space="preserve">
<style type="text/css">
	.st0{fill:#333333;}
	.st1{fill:none;stroke:#333333;stroke-width:5;stroke-linecap:round;stroke-linejoin:round;stroke-miterlimit:10;}
</style>
<g>
	<g>
		<path class="st0" d="M164.2,50.6H78.6c-6.8,0-12.4,5.6-12.4,12.4v35.2c0,6.8,5.6,12.4,12.4,12.4h85.6c6.8,0,12.4-5.6,12.4-12.4V63
			C176.6,56.2,171,50.6,164.2,50.6z M115.4,91.3h-4.3v8.3h-7.6v-8.3H87.9l-0.4-4.6l15.8-25.3h7.7l0.1,24h4.3V91.3z M145.7,99.6
			l-10.6-15.9h-2.8v15.9h-7.6V61.5h7.6v15.6h2.1l10.5-15.6h9.5l-13.2,17.7l14.2,20.4H145.7z"/>
		<polygon class="st0" points="102.5,73.3 94.5,85.4 103.5,85.4 103.5,71.6 103.3,71.6 		"/>
	</g>
	<g>
		<g>
			<path class="st0" d="M201.5,17.5c8.2,0,14.9,6.7,14.9,14.9v110.5H25.7V32.4c0-8.2,6.7-14.9,14.9-14.9L201.5,17.5 M201.5,12.5
				H40.6c-11,0-19.9,8.9-19.9,19.9v110.5c0,2.8,2.2,5,5,5h190.7c2.8,0,5-2.2,5-5V32.4C221.4,21.5,212.4,12.5,201.5,12.5L201.5,12.5z
				"/>
		</g>
		<path class="st1" d="M217.8,144.2l15.1,30c2.5,4.9-0.2,11.4-4.7,11.4H14.6c-4.5,0-7.2-6.4-4.8-11.3l14.9-30"/>
		<line class="st1" x1="10.4" y1="176" x2="232.7" y2="176"/>
		<line class="st1" x1="93.7" y1="161" x2="150.7" y2="161"/>
	</g>
</g>
</svg>
