<?xml version="1.0" encoding="utf-8"?>
<!-- Generator: Adobe Illustrator 22.0.1, SVG Export Plug-In . SVG Version: 6.00 Build 0)  -->
<svg version="1.1" id="圖層_2_1_" xmlns="http://www.w3.org/2000/svg" xmlns:xlink="http://www.w3.org/1999/xlink" x="0px"
	 y="0px" viewBox="0 0 242.9 203" style="enable-background:new 0 0 242.9 203;" xml:space="preserve">
<style type="text/css">
	.st0{fill:#333333;}
	.st1{fill:none;stroke:#333333;stroke-width:5;stroke-linecap:round;stroke-linejoin:round;stroke-miterlimit:10;}
</style>
<g>
	<g>
		<path class="st0" d="M115.1,42.8c8.9,0,16.2,7.2,16.2,16.2v108.8c0,8.9-7.2,16.2-16.2,16.2H57c-8.9,0-16.2-7.2-16.2-16.2V58.9
			C40.8,50,48,42.7,57,42.7L115.1,42.8 M115.1,37.8H57c-11.7,0-21.2,9.5-21.2,21.2v108.8c0,11.7,9.5,21.2,21.2,21.2h58.1
			c11.7,0,21.2-9.5,21.2-21.2V58.9C136.3,47.3,126.8,37.8,115.1,37.8L115.1,37.8z"/>
	</g>
	<g>
		<path class="st0" d="M110.4,169.3H61.8c-3.9,0-7-3.1-7-7v-43.4c0-3.7,3.5-6.4,7-5.5l51.4,13c2.5,0.6,4.3,2.9,4.3,5.5v30.5
			C117.4,166.2,114.3,169.3,110.4,169.3z"/>
	</g>
	<path class="st1" d="M106.2,38v-8.5c0-5.7-4.6-10.4-10.4-10.4H76.3c-5.7,0-10.4,4.6-10.4,10.4V38"/>
	<line class="st1" x1="158.9" y1="117.4" x2="158.9" y2="81"/>
	<line class="st1" x1="158.9" y1="117.4" x2="173.5" y2="99.2"/>
	<g>
		<path class="st1" d="M137.3,164.6c6.6,3,13.9,4.7,21.6,4.7c28.7,0,51.9-23.2,51.9-51.9s-23.2-51.9-51.9-51.9
			c-7.7,0-15,1.7-21.6,4.7"/>
	</g>
</g>
</svg>
