<?xml version="1.0" encoding="utf-8"?>
<!-- Generator: Adobe Illustrator 22.0.1, SVG Export Plug-In . SVG Version: 6.00 Build 0)  -->
<svg version="1.1" id="圖層_2_1_" xmlns="http://www.w3.org/2000/svg" xmlns:xlink="http://www.w3.org/1999/xlink" x="0px"
	 y="0px" viewBox="0 0 242.9 203" style="enable-background:new 0 0 242.9 203;" xml:space="preserve">
<style type="text/css">
	.st0{fill:#333333;}
</style>
<g>
	<path class="st0" d="M77.6,9.4H37.1c-4.6,0-8.3,3.7-8.3,8.3v167.6c0,4.6,3.7,8.3,8.3,8.3h40.5c4.6,0,8.3-3.7,8.3-8.3V17.7
		C85.9,13.1,82.2,9.4,77.6,9.4z M33.8,17.7c0-1.8,1.5-3.3,3.3-3.3h40.5c1.8,0,3.3,1.5,3.3,3.3v167.6c0,1.8-1.5,3.3-3.3,3.3H37.1
		c-1.8,0-3.3-1.5-3.3-3.3V17.7z"/>
	<g>
		<path class="st0" d="M162.9,156.4c0-1.7-1.3-3-3-3h-34.7c-1.7,0-3,1.3-3,3s1.3,3,3,3h34.7C161.6,159.4,162.9,158.1,162.9,156.4z"
			/>
		<path class="st0" d="M180.1,153.4h-8.7c-1.7,0-3,1.3-3,3s1.3,3,3,3h8.7c1.7,0,3-1.3,3-3S181.8,153.4,180.1,153.4z"/>
		<path class="st0" d="M171.5,167.9h-37.6c-1.7,0-3,1.3-3,3s1.3,3,3,3h37.6c1.7,0,3-1.3,3-3S173.2,167.9,171.5,167.9z"/>
	</g>
	<g>
		<circle cx="45.7" cy="23.5" r="2.5"/>
		<path d="M66,26h5.8c1.4,0,2.5-1.1,2.5-2.5S73.2,21,71.8,21H66c-1.4,0-2.5,1.1-2.5,2.5S64.6,26,66,26z"/>
		<path d="M45.7,40.4c1.4,0,2.5-1.1,2.5-2.4v-3c0-1.4-1.1-2.5-2.5-2.5c-1.4,0-2.5,1.1-2.5,2.5v2.9C43.2,39.3,44.3,40.4,45.7,40.4z"
			/>
		<path d="M57.3,40.4c1.4,0,2.5-1.1,2.5-2.4v-3c0-1.4-1.1-2.5-2.5-2.5c-1.4,0-2.5,1.1-2.5,2.5v2.9C54.8,39.3,55.9,40.4,57.3,40.4z"
			/>
		<path d="M71.4,35c0-1.4-1.1-2.5-2.5-2.5s-2.5,1.1-2.5,2.5v2.9c0,1.4,1.1,2.5,2.5,2.5c1.4,0,2.5-1.1,2.5-2.4V35z"/>
		<path d="M45.7,57.8c1.4,0,2.5-1.1,2.5-2.5v-2.9c0-1.4-1.1-2.5-2.5-2.5c-1.4,0-2.5,1.1-2.5,2.5v2.9C43.2,56.7,44.3,57.8,45.7,57.8z
			"/>
		<path d="M57.3,57.8c1.4,0,2.5-1.1,2.5-2.5v-2.9c0-1.4-1.1-2.5-2.5-2.5c-1.4,0-2.5,1.1-2.5,2.5v2.9C54.8,56.7,55.9,57.8,57.3,57.8z
			"/>
		<path d="M71.4,52.4c0-1.4-1.1-2.5-2.5-2.5s-2.5,1.1-2.5,2.5v2.9c0,1.4,1.1,2.5,2.5,2.5c1.3,0,2.5-1.2,2.5-2.5V52.4z"/>
		<path d="M45.7,72.2c1.4,0,2.5-1.1,2.5-2.5v-2.9c0-1.4-1.1-2.5-2.5-2.5c-1.4,0-2.5,1.1-2.5,2.5v2.9C43.2,71.1,44.3,72.2,45.7,72.2z
			"/>
		<path d="M57.3,72.2c1.4,0,2.5-1.1,2.5-2.5v-2.9c0-1.4-1.1-2.5-2.5-2.5c-1.4,0-2.5,1.1-2.5,2.5v2.9C54.8,71.1,55.9,72.2,57.3,72.2z
			"/>
		<path d="M71.4,66.8c0-1.4-1.1-2.5-2.5-2.5s-2.5,1.1-2.5,2.5v2.9c0,1.4,1.1,2.5,2.5,2.5s2.5-1.1,2.5-2.5V66.8z"/>
		<path d="M45.7,104c1.4,0,2.5-1.1,2.5-2.5V84.2c0-1.4-1.1-2.5-2.5-2.5c-1.4,0-2.5,1.1-2.5,2.5v17.3C43.2,102.9,44.3,104,45.7,104z"
			/>
		<path d="M57.3,89.6c1.4,0,2.5-1.1,2.5-2.5v-2.9c0-1.4-1.1-2.5-2.5-2.5c-1.4,0-2.5,1.1-2.5,2.5v2.9C54.8,88.5,55.9,89.6,57.3,89.6z
			"/>
		<path d="M57.3,104c1.4,0,2.5-1.1,2.5-2.5v-2.9c0-1.4-1.1-2.5-2.5-2.5c-1.4,0-2.5,1.1-2.5,2.5v2.9C54.8,102.9,55.9,104,57.3,104z"
			/>
		<path d="M68.9,81.7c-1.4,0-2.5,1.1-2.5,2.5v17.3c0,1.4,1.1,2.5,2.5,2.5s2.5-1.1,2.5-2.5V84.2C71.4,82.8,70.3,81.7,68.9,81.7z"/>
		<path d="M53,121.2c0.5,0.4,1.3,0.5,2.2,0.5c0.3,0,0.6,0,0.9-0.1c0.2,0,0.3,0,0.5,0H57l0.2-0.1c0.1,0,0.1,0,0.1,0h1.5
			c1.2,0,2-0.1,2.8-0.7c1-0.7,1.3-2,0.7-3.1l-2.9-5.8c-0.4-0.8-1.3-1.3-2.2-1.3c-0.2,0-0.7,0-1.2,0.3c-0.4,0.2-0.7,0.6-0.9,1
			l-2.9,5.8l-0.2,0.4v0C51.6,119.3,52,120.5,53,121.2z"/>
		<path d="M61,139.5c-0.4-0.2-1-0.3-1.6-0.3h-4.2c-0.9,0-1.4,0.1-1.9,0.3c-0.6,0.3-1.1,0.8-1.3,1.4c-0.2,0.6-0.2,1.2,0,1.8l0.4,1
			h0.1l2.6,5.2c0.4,0.8,1.3,1.3,2.2,1.3c0.3,0,0.7,0,1.2-0.3c0.5-0.2,0.8-0.6,1.1-1.1l2.9-5.8c0.5-1,0.3-2-0.6-2.9
			C61.6,139.8,61.4,139.6,61,139.5z"/>
		<path d="M51.2,131.6v-2.1c0-1.3,0-2.2-0.3-3l-0.1-0.1c-0.4-0.8-1.3-1.3-2.2-1.3c-0.2,0-0.7,0-1.2,0.3l-5.6,2.8
			c-1.2,0.5-1.7,1.9-1.2,3.2l0.1,0.1c0.2,0.5,0.6,0.8,1.1,1.1l5.7,2.8c0.5,0.3,1,0.3,1.2,0.3c0.9,0,1.7-0.4,2.2-1.2
			c0.5-0.8,0.4-1.7,0.4-2.5C51.2,131.9,51.2,131.7,51.2,131.6z"/>
		<path d="M72.8,128.4l-5.6-2.8c-0.5-0.3-0.9-0.3-1.1-0.3c-1,0-1.8,0.5-2.2,1.4c-0.3,0.5-0.3,1.1-0.3,1.7v3.7
			c-0.1,0.6-0.1,1.7,0.1,2.3l0.1,0.2l0.1,0.2c0.3,0.4,0.6,0.7,0.9,0.9v1.3l8-4c0.6-0.3,1-0.8,1.3-1.5l0.1-0.2v-0.2
			c0-0.4,0-1-0.3-1.5C73.6,128.9,73.3,128.6,72.8,128.4z M66,135.8v-1.5l0,0V135.8C66,135.8,66,135.8,66,135.8z"/>
		<path d="M45.7,159.7c-1.4,0-2.5,1.1-2.5,2.5v2.9c0,1.4,1.1,2.5,2.5,2.5s2.5-1.1,2.5-2.5v-2.9C48.2,160.8,47.1,159.7,45.7,159.7z"
			/>
		<path d="M57.3,159.7c-1.4,0-2.5,1.1-2.5,2.5v2.9c0,1.4,1.1,2.5,2.5,2.5s2.5-1.1,2.5-2.5v-2.9C59.8,160.8,58.7,159.7,57.3,159.7z"
			/>
		<path d="M68.9,159.7c-1.4,0-2.5,1.1-2.5,2.5v2.9c0,1.4,1.1,2.5,2.5,2.5c1.3,0,2.5-1.2,2.5-2.5v-2.9
			C71.4,160.8,70.3,159.7,68.9,159.7z"/>
		<path d="M45.7,175.6c-0.6,0-1,0.5-1,1v2.9c0,0.6,0.5,1,1,1c0.6,0,1-0.4,1-1v-2.9C46.7,176,46.3,175.6,45.7,175.6z"/>
		<path d="M57.3,175.6c-0.6,0-1,0.5-1,1v2.9c0,0.6,0.5,1,1,1c0.6,0,1-0.4,1-1v-2.9C58.3,176,57.9,175.6,57.3,175.6z"/>
		<path d="M68.9,175.6c-0.6,0-1,0.5-1,1v2.9c0,0.6,0.5,1,1,1s1-0.4,1-1v-2.9C69.9,176,69.4,175.6,68.9,175.6z"/>
	</g>
	<g>
		<path class="st0" d="M153,46.1c-25.8,0-46.7,21-46.7,46.7c0,25.8,21,46.7,46.7,46.7c25.8,0,46.7-21,46.7-46.7S178.7,46.1,153,46.1
			z M152.7,128.5c-19.7,0-35.6-16-35.6-35.6c0-1.5,1.2-2.7,2.7-2.7s2.7,1.2,2.7,2.7c0,16.7,13.6,30.3,30.3,30.3
			c1.5,0,2.7,1.2,2.7,2.7C155.3,127.3,154.1,128.5,152.7,128.5z M153,102.5c-5.3,0-9.6-4.3-9.6-9.6c0-5.3,4.3-9.6,9.6-9.6
			s9.6,4.3,9.6,9.6S158.3,102.5,153,102.5z M185.7,95.5c-1.5,0-2.7-1.2-2.7-2.7c0-16.7-13.6-30.3-30.3-30.3c-1.5,0-2.7-1.2-2.7-2.7
			s1.2-2.7,2.7-2.7c19.7,0,35.6,16,35.6,35.6C188.3,94.3,187.1,95.5,185.7,95.5z"/>
	</g>
	<path class="st0" d="M202.8,9.5h-99.7c-6.2,0-11.3,5.1-11.3,11.3v160.9c0,6.2,5.1,11.3,11.3,11.3h99.7c6.2,0,11.3-5.1,11.3-11.3
		v-161C214.1,14.5,209,9.5,202.8,9.5z M103.1,14.3l99.7,0.1h0c3.5,0,6.4,2.9,6.4,6.4v160.9c0,3.5-2.9,6.4-6.4,6.4h-99.7
		c-3.5,0-6.4-2.9-6.4-6.4v-161C96.7,17.2,99.6,14.3,103.1,14.3z"/>
</g>
</svg>
