<?xml version="1.0" encoding="utf-8"?>
<!-- Generator: Adobe Illustrator 22.0.1, SVG Export Plug-In . SVG Version: 6.00 Build 0)  -->
<svg version="1.1" id="圖層_2_1_" xmlns="http://www.w3.org/2000/svg" xmlns:xlink="http://www.w3.org/1999/xlink" x="0px"
	 y="0px" viewBox="0 0 242.9 203" style="enable-background:new 0 0 242.9 203;" xml:space="preserve">
<style type="text/css">
	.st0{fill:#333333;stroke:#333333;stroke-width:2;stroke-miterlimit:10;}
</style>
<g>
	<path class="st0" d="M165.9,53.9v5.5l0,0l0,0c0,0.6,0.5,1.1,1.2,1.1c0.6,0,1.1-0.5,1.1-1.1l0,0v-5.5c0-3.9-3.5-7.1-7.8-7.1H82.6
		c-4.3,0-7.8,3.2-7.8,7.1v5.5l0,0l0,0c0,0.6,0.5,1.1,1.1,1.1S77,60,77,59.4l0,0l0,0v-5.5c0-2.7,2.5-4.9,5.5-4.9h77.8
		C163.4,49,165.9,51.2,165.9,53.9z"/>
	<path class="st0" d="M131,122.1l-4.5-1.2c-0.2-0.1-0.5-0.1-0.8-0.1c-0.9,0-1.7,0.4-2.4,0.7c-0.7,0.3-1.4,0.6-2.1,0.6
		c-0.8,0-1.3-0.3-2-0.6c-0.7-0.3-1.5-0.7-2.4-0.7c-1.5,0-3,0.7-4.3,1.2c-0.3,0.1-0.6,0.3-0.9,0.4c-0.6,0.2-0.8,0.9-0.6,1.5
		c0.2,0.4,0.6,0.7,1,0.7c0.1,0,0.3,0,0.4-0.1c0.2-0.1,0.5-0.2,0.7-0.3l0.2-0.1c1.1-0.5,2.3-1,3.3-1c0.5,0,0.9,0.2,1.5,0.5
		c0.7,0.4,1.7,0.8,2.9,0.8c1.2,0,2.1-0.4,3-0.8l0.2-0.1c0.6-0.3,1-0.4,1.3-0.4h0.1l4.6,1.2c0.1,0,0.2,0,0.3,0c0.5,0,1-0.3,1.1-0.8
		C131.9,122.9,131.6,122.3,131,122.1z"/>
	<path class="st0" d="M125.7,127.8c-0.2,0-0.4,0.1-0.6,0.2c-1.1,0.7-2.3,1-3.5,1s-2.5-0.3-3.9-1c-0.2-0.1-0.3-0.1-0.5-0.1
		c-0.4,0-0.8,0.2-1,0.6c-0.1,0.3-0.2,0.6-0.1,0.9c0.1,0.3,0.3,0.5,0.6,0.7c1.7,0.9,3.4,1.3,4.9,1.3c1.6,0,3.2-0.4,4.7-1.3
		c0.5-0.3,0.7-1,0.4-1.6C126.5,128,126.1,127.8,125.7,127.8z"/>
	<path class="st0" d="M194.8,173.1c-3.9-0.9-9.1-0.9-14.6-0.9c-10,0-21.4,0-27-5.7c-2.5-2.6-3.8-6.1-3.8-10.8l0,0v-17.1l0.2-0.2
		c9.2-10.6,16.4-25.9,20.4-43.1l0.1-0.5l0.6-0.1c4.4-0.6,7.8-4.3,7.8-8.7v-6.7l1.1-0.3c1-0.3,2-0.6,3-0.8c3.1-0.8,5.5-3.9,5.5-7.1
		V59c0-3.2-2.4-6.3-5.5-7.1c-1-0.2-2-0.5-2.9-0.8l-1.3-0.4v-5.5c0-4.9-4-8.9-8.9-8.9h-2.2l-0.2-0.5c-1.7-3.9-3.6-7.4-5.8-10.3
		C152.4,13.3,139,7,121.5,7s-31,6.3-40,18.7c-2.1,2.9-4.1,6.4-5.8,10.3l-0.2,0.5h-2.3c-4.9,0-8.9,4-8.9,8.9v5.5l-1.2,0.4
		c-1,0.3-2,0.6-3,0.8c-3.1,0.8-5.5,3.9-5.5,7.1v12.1c0,3.2,2.4,6.3,5.5,7.1c1,0.2,1.9,0.5,2.9,0.8l1.3,0.4V86c0,4.4,3.3,8.2,7.8,8.7
		l0.6,0.1l0.1,0.5c4,17.2,11.2,32.4,20.4,43l0.2,0.2v17.1h1.2h-1.2c0,4.7-1.2,8.2-3.8,10.8c-5.6,5.7-17,5.7-27,5.7
		c-5.5,0-10.6,0-14.6,0.9c-10.1,2.3-17.3,13.3-18.9,22.5l2.2,0.4c1.5-8.5,8-18.6,17.2-20.7c3.7-0.8,8.7-0.8,14.1-0.8
		c10.5,0,22.3,0,28.6-6.3c3-3,4.4-7.1,4.4-12.4l0,0v-14.6l1.4,1.3c7.7,7.3,15.9,11.1,24.5,11.1c8.5,0,16.7-3.7,24.4-11l1.4-1.3v14.6
		l0,0c0,5.2,1.5,9.4,4.4,12.3c6.3,6.3,18.2,6.3,28.6,6.3c5.3,0,10.4,0,14.1,0.8c9.2,2.1,15.7,12.2,17.2,20.7l2.2-0.4
		C212.1,186.4,204.9,175.4,194.8,173.1z M178.6,53.1l1.7,0.5c0.6,0.2,1.3,0.4,1.9,0.5c2.1,0.5,3.8,2.8,3.8,4.9v12.1
		c0,2.1-1.7,4.4-3.8,4.9c-0.6,0.2-1.2,0.3-1.9,0.5l-1.8,0.5V53.1H178.6z M78.5,35.3c1.5-3.2,3.1-5.9,4.8-8.3
		c8.6-11.8,21.5-17.7,38.2-17.7S151,15.2,159.6,27c1.8,2.4,3.4,5.1,4.9,8.3l0.5,1.1H77.9L78.5,35.3z M64.3,77l-1.8-0.5
		c-0.6-0.2-1.2-0.3-1.8-0.5c-2-0.5-3.8-2.8-3.8-4.9V59c0-2.1,1.7-4.4,3.8-4.9c0.7-0.2,1.4-0.4,2.1-0.6l1.5-0.4V77z M66.6,86V45.3
		c0-3.6,3-6.6,6.6-6.6h96.5c3.6,0,6.6,3,6.6,6.6V86c0,3.6-3,6.6-6.6,6.6h-35.1l-4.3-4.1c-1-0.9-2.1-1.4-3.4-1.4h-10.7
		c-1.3,0-2.5,0.5-3.4,1.4l-4.3,4.1H73.2C69.5,92.6,66.6,89.7,66.6,86z M121.5,151.2L121.5,151.2c-16.3,0-36.9-17.1-46.3-55.3l-0.2-1
		h34.2l5-4.7c0.5-0.5,1.1-0.7,1.9-0.7h10.7c0.7,0,1.3,0.2,1.9,0.7l5,4.7h34.2l-0.2,1C158.3,134.1,137.7,151.2,121.5,151.2z"/>
</g>
</svg>
