<?xml version="1.0" encoding="utf-8"?>
<!-- Generator: Adobe Illustrator 22.0.1, SVG Export Plug-In . SVG Version: 6.00 Build 0)  -->
<svg version="1.1" id="圖層_2_1_" xmlns="http://www.w3.org/2000/svg" xmlns:xlink="http://www.w3.org/1999/xlink" x="0px"
	 y="0px" viewBox="0 0 242.9 203" style="enable-background:new 0 0 242.9 203;" xml:space="preserve">
<style type="text/css">
	.st0{fill:#333333;stroke:#333333;stroke-width:2;stroke-miterlimit:10;}
	.st1{fill:#333333;}
</style>
<g>
	<path class="st0" d="M49.9,169.7c-3.6,0-6.6-3-6.6-6.6v-55.6c0-3.6,3-6.6,6.6-6.6h13.2c2.8,0,5.3,1.8,6.2,4.4l0.3,0.9h6.2
		c5.8,0,11.4,2,15.9,5.6c4,3.2,9.1,5,14.3,5h13.9c5.1,0,9.8,2.7,12.5,7.1l0.2,0.4c1.7,2.8,2,6.2,0.9,9.3l-0.7,1.8h3.4
		c1,0,2-0.2,2.9-0.5l49-16.3c0.9-0.3,1.8-0.4,2.7-0.4c3.3,0,6.4,1.9,7.8,5c1.8,4,0.4,8.7-3.3,10.9l-49.6,30.2
		c-3.1,1.9-6.7,2.9-10.3,2.9h-67l-0.4,0.5c-1.2,1.4-3,2.2-4.9,2.2H49.9V169.7z M49.9,103.5c-2.2,0-4,1.8-4,4v55.6c0,2.2,1.8,4,4,4
		h13.2c2.2,0,4-1.8,4-4v-55.6c0-2.2-1.8-4-4-4C63.1,103.5,49.9,103.5,49.9,103.5z M69.8,164.5h65.7c3.2,0,6.3-0.9,9-2.5l49.7-30.2
		c1.4-0.9,2.4-2.3,2.7-4c0.3-1.6-0.1-3.4-1.1-4.7c-1.1-1.5-2.9-2.4-4.8-2.4c-0.6,0-1.3,0.1-1.9,0.3l-49,16.3
		c-1.2,0.4-2.5,0.6-3.8,0.6h-23.6c-4.5,0-8.8,1.3-12.5,3.8l-1.9,1.3c-0.2,0.2-0.5,0.2-0.8,0.2c-0.2,0-0.4,0-0.6-0.1
		c-0.4-0.2-0.7-0.6-0.7-1.1s0.2-0.9,0.6-1.2l2-1.3c4.1-2.8,8.9-4.2,13.9-4.2h16.8l0.4-0.5c2-2.7,2.2-6.3,0.5-9.2l-0.2-0.4
		c-2.1-3.6-6.1-5.8-10.2-5.8h-13.9c-5.8,0-11.4-2-15.9-5.6c-4-3.2-9.1-5-14.3-5h-6.1L69.8,164.5L69.8,164.5z"/>
	<g>
		<path class="st1" d="M208.5,43.3l-172.2,32c-2.2,0.4-4.3-1.1-4.7-3.2l-0.4-1.9c-0.4-2.2,1.1-4.3,3.2-4.7l172.2-32
			c2.2-0.4,4.3,1.1,4.7,3.2l0.4,1.9C212.1,40.8,210.7,42.9,208.5,43.3z"/>
	</g>
</g>
</svg>
