<?xml version="1.0" encoding="utf-8"?>
<!-- Generator: Adobe Illustrator 22.0.1, SVG Export Plug-In . SVG Version: 6.00 Build 0)  -->
<svg version="1.1" id="圖層_2_1_" xmlns="http://www.w3.org/2000/svg" xmlns:xlink="http://www.w3.org/1999/xlink" x="0px"
	 y="0px" viewBox="0 0 242.9 203" style="enable-background:new 0 0 242.9 203;" xml:space="preserve">
<style type="text/css">
	.st0{fill:none;stroke:#333333;stroke-width:5;stroke-linecap:round;stroke-linejoin:round;stroke-miterlimit:10;}
	.st1{fill:#333333;}
</style>
<g>
	<path class="st0" d="M180.8,19.8h20.7c8.2,0,14.9,6.7,14.9,14.9v110.5H25.7V34.7c0-8.2,6.7-14.9,14.9-14.9h20.9"/>
	<path class="st0" d="M217.8,146.4l15.1,30c2.5,4.9-0.2,11.4-4.7,11.4H14.6c-4.5,0-7.2-6.4-4.8-11.3l14.9-30"/>
	<line class="st0" x1="10.4" y1="178.2" x2="232.7" y2="178.2"/>
	<line class="st0" x1="93.7" y1="163.3" x2="150.7" y2="163.3"/>
	<g>
		<g>
			<path class="st1" d="M156.7,27.8c5.9,0,10.6,4.8,10.6,10.6v68.9c0,5.9-4.8,10.6-10.6,10.6H87.8c-5.9,0-10.6-4.8-10.6-10.6V38.4
				c0-5.9,4.8-10.6,10.6-10.6L156.7,27.8 M156.7,22.8H87.8c-8.6,0-15.6,7-15.6,15.6v68.9c0,8.6,7,15.6,15.6,15.6h68.9
				c8.6,0,15.6-7,15.6-15.6V38.4C172.3,29.8,165.3,22.8,156.7,22.8L156.7,22.8z"/>
		</g>
		<circle class="st1" cx="156.9" cy="108.1" r="2.5"/>
		<g>
			<line class="st0" x1="91.5" y1="15.3" x2="91.5" y2="24.4"/>
			<line class="st0" x1="103.8" y1="15.3" x2="103.8" y2="24.4"/>
			<line class="st0" x1="116" y1="15.3" x2="116" y2="24.4"/>
			<line class="st0" x1="128.3" y1="15.3" x2="128.3" y2="24.4"/>
			<line class="st0" x1="140.6" y1="15.3" x2="140.6" y2="24.4"/>
			<line class="st0" x1="152.9" y1="15.3" x2="152.9" y2="24.4"/>
		</g>
		<g>
			<line class="st0" x1="91.5" y1="121.2" x2="91.5" y2="130.3"/>
			<line class="st0" x1="103.8" y1="121.2" x2="103.8" y2="130.3"/>
			<line class="st0" x1="116" y1="121.2" x2="116" y2="130.3"/>
			<line class="st0" x1="128.3" y1="121.2" x2="128.3" y2="130.3"/>
			<line class="st0" x1="140.6" y1="121.2" x2="140.6" y2="130.3"/>
			<line class="st0" x1="152.9" y1="121.2" x2="152.9" y2="130.3"/>
		</g>
		<g>
			<path class="st1" d="M104.8,39.8c-3.9,3.9-6,6-9.9,9.9v54.4h44.8c3.8-3.8,6-6,9.8-9.9V39.8H104.8z M134.9,81.8h-4v7.7h-7.1v-7.7
				h-14.4l-0.3-4.2l14.6-23.4h7.1v22.1h4V81.8z"/>
			<polygon class="st1" points="123,65.1 115.6,76.4 123.8,76.4 123.8,63.6 123.7,63.5 			"/>
		</g>
		<g>
			<line class="st0" x1="179.7" y1="42.1" x2="170.6" y2="42.1"/>
			<line class="st0" x1="179.7" y1="54.4" x2="170.6" y2="54.4"/>
			<line class="st0" x1="179.7" y1="66.7" x2="170.6" y2="66.7"/>
			<line class="st0" x1="179.7" y1="79" x2="170.6" y2="79"/>
			<line class="st0" x1="179.7" y1="91.2" x2="170.6" y2="91.2"/>
			<line class="st0" x1="179.7" y1="103.5" x2="170.6" y2="103.5"/>
		</g>
		<g>
			<line class="st0" x1="73.8" y1="42.1" x2="64.7" y2="42.1"/>
			<line class="st0" x1="73.8" y1="54.4" x2="64.7" y2="54.4"/>
			<line class="st0" x1="73.8" y1="66.7" x2="64.7" y2="66.7"/>
			<line class="st0" x1="73.8" y1="79" x2="64.7" y2="79"/>
			<line class="st0" x1="73.8" y1="91.2" x2="64.7" y2="91.2"/>
			<line class="st0" x1="73.8" y1="103.5" x2="64.7" y2="103.5"/>
		</g>
	</g>
</g>
</svg>
