<?xml version="1.0" encoding="utf-8"?>
<!-- Generator: Adobe Illustrator 22.0.1, SVG Export Plug-In . SVG Version: 6.00 Build 0)  -->
<svg version="1.1" id="圖層_2_1_" xmlns="http://www.w3.org/2000/svg" xmlns:xlink="http://www.w3.org/1999/xlink" x="0px"
	 y="0px" viewBox="0 0 242.9 203" style="enable-background:new 0 0 242.9 203;" xml:space="preserve">
<style type="text/css">
	.st0{fill:#333333;}
	.st1{fill:none;stroke:#333333;stroke-width:5;stroke-linecap:round;stroke-linejoin:round;stroke-miterlimit:10;}
	.st2{enable-background:new    ;}
</style>
<g>
	<g>
		<g>
			<path class="st0" d="M201.5,17.5c8.2,0,14.9,6.7,14.9,14.9v110.5H25.7V32.4c0-8.2,6.7-14.9,14.9-14.9L201.5,17.5 M201.5,12.5
				H40.6c-11,0-19.9,8.9-19.9,19.9v110.5c0,2.8,2.2,5,5,5h190.7c2.8,0,5-2.2,5-5V32.4C221.4,21.5,212.4,12.5,201.5,12.5L201.5,12.5z
				"/>
		</g>
		<path class="st1" d="M217.8,144.2l15.1,30c2.5,4.9-0.2,11.4-4.7,11.4H14.6c-4.5,0-7.2-6.4-4.8-11.3l14.9-30"/>
		<line class="st1" x1="10.4" y1="176" x2="232.7" y2="176"/>
		<line class="st1" x1="93.7" y1="161" x2="150.7" y2="161"/>
	</g>
	<g class="st2">
		<path class="st0" d="M101.3,66.1H87.7v40.4h-9.6V66.1H64.6v-7.4h36.7V66.1z"/>
		<path class="st0" d="M134.5,86.6h-18.4v19.9h-9.6V58.7h31.3v7.4h-21.7v13.2h18.4V86.6z"/>
		<path class="st0" d="M177.3,66.1h-13.7v40.4H154V66.1h-13.5v-7.4h36.7v7.4H177.3z"/>
	</g>
</g>
</svg>
