<?xml version="1.0" encoding="utf-8"?>
<!-- Generator: Adobe Illustrator 22.0.1, SVG Export Plug-In . SVG Version: 6.00 Build 0)  -->
<svg version="1.1" id="圖層_2_1_" xmlns="http://www.w3.org/2000/svg" xmlns:xlink="http://www.w3.org/1999/xlink" x="0px"
	 y="0px" viewBox="0 0 242.9 203" style="enable-background:new 0 0 242.9 203;" xml:space="preserve">
<style type="text/css">
	.st0{fill:none;stroke:#333333;stroke-width:5;stroke-linecap:round;stroke-linejoin:round;stroke-miterlimit:10;}
	.st1{fill:#333333;}
</style>
<g>
	<path class="st0" d="M180.8,23.3h20.7c8.2,0,14.9,6.7,14.9,14.9v110.5H25.7V38.1c0-8.2,6.7-14.9,14.9-14.9h20.9"/>
	<path class="st0" d="M217.8,149.9l15.1,30c2.5,4.9-0.2,11.4-4.7,11.4H14.6c-4.5,0-7.2-6.4-4.8-11.3l14.9-30"/>
	<line class="st0" x1="10.4" y1="181.7" x2="232.7" y2="181.7"/>
	<line class="st0" x1="93.7" y1="166.8" x2="150.7" y2="166.8"/>
	<g>
		<path class="st1" d="M78.3,38.7c-1.7,1.7-4.3,1.5-5.8,0s-1.7-4.1,0-5.8c28-28,73.3-28,101.3,0c1.7,1.7,1.5,4.3,0,5.8
			s-4.1,1.7-5.8,0C143.2,13.9,103,13.9,78.3,38.7z"/>
		<path class="st1" d="M92.4,52.7c-1.7,1.7-4.3,1.5-5.8,0c-1.7-1.7-1.7-4.1,0-5.8c20.3-20.3,52.9-20.3,73.1,0c1.7,1.7,1.7,4.1,0,5.8
			c-1.5,1.5-4.1,1.7-5.8,0C136.9,35.7,109.4,35.7,92.4,52.7z"/>
		<path class="st1" d="M106.3,66.7c-1.7,1.7-4.1,1.7-5.8,0c-1.5-1.5-1.7-4.1,0-5.8c12.5-12.5,32.8-12.5,45.3,0
			c1.7,1.7,1.5,4.3,0,5.8c-1.7,1.7-4.1,1.7-5.8,0C130.7,57.4,115.6,57.4,106.3,66.7z"/>
		<path class="st1" d="M129.5,77.1c3.6,3.6,3.4,9.3,0,12.7c-3.6,3.6-9.1,3.6-12.7,0c-3.4-3.4-3.6-9.1,0-12.7
			C120.2,73.7,126,73.7,129.5,77.1z"/>
	</g>
	<path class="st0" d="M186,118.4c3.7,0,7.4,0,11.2,0"/>
	<path class="st0" d="M133.8,118.4c10.5,0,20.9,0,31.4,0"/>
	<path class="st0" d="M80.2,118.4c11.1,0,22.3,0,33.4,0"/>
	<path class="st0" d="M47.2,118.4c4.2,0,8.3,0,12.5,0"/>
	<circle class="st0" cx="123.1" cy="118.8" r="8"/>
	<circle class="st0" cx="69.2" cy="118.8" r="8"/>
	<circle class="st0" cx="175" cy="118.8" r="8"/>
</g>
</svg>
