<?xml version="1.0" encoding="utf-8"?>
<!-- Generator: Adobe Illustrator 22.0.1, SVG Export Plug-In . SVG Version: 6.00 Build 0)  -->
<svg version="1.1" id="圖層_2_1_" xmlns="http://www.w3.org/2000/svg" xmlns:xlink="http://www.w3.org/1999/xlink" x="0px"
	 y="0px" viewBox="0 0 242.9 203" style="enable-background:new 0 0 242.9 203;" xml:space="preserve">
<style type="text/css">
	.st0{fill:#333333;}
	.st1{fill:none;stroke:#333333;stroke-width:5;stroke-linecap:round;stroke-linejoin:round;stroke-miterlimit:10;}
	.st2{enable-background:new    ;}
</style>
<g>
	<g>
		<g>
			<path class="st0" d="M201.5,17.5c8.2,0,14.9,6.7,14.9,14.9v110.5H25.7V32.4c0-8.2,6.7-14.9,14.9-14.9L201.5,17.5 M201.5,12.5
				H40.6c-11,0-19.9,8.9-19.9,19.9v110.5c0,2.8,2.2,5,5,5h190.7c2.8,0,5-2.2,5-5V32.4C221.4,21.5,212.4,12.5,201.5,12.5L201.5,12.5z
				"/>
		</g>
		<path class="st1" d="M217.8,144.2l15.1,30c2.5,4.9-0.2,11.4-4.7,11.4H14.6c-4.5,0-7.2-6.4-4.8-11.3l14.9-30"/>
		<line class="st1" x1="10.4" y1="176" x2="232.7" y2="176"/>
		<line class="st1" x1="93.7" y1="161" x2="150.7" y2="161"/>
	</g>
	<g class="st2">
		<path class="st0" d="M123.6,109.3h-10.9V64.2h-11.3v-8.4l22.2-2V109.3z"/>
	</g>
	<g>
		<g class="st2">
			<path class="st0" d="M147.3,70c0-0.7-0.3-1.2-1-1.7s-1.9-0.9-3.6-1.3c-2.7-0.5-4.7-1.3-6-2.4s-2.1-2.5-2.1-4.4
				c0-1.9,0.8-3.6,2.5-5c1.6-1.4,3.8-2.1,6.6-2.1c2.9,0,5.2,0.7,6.9,2.1c1.7,1.4,2.6,3.1,2.5,5.1l0,0.1h-5.9c0-0.9-0.3-1.6-0.9-2.2
				c-0.6-0.6-1.4-0.9-2.5-0.9c-1,0-1.8,0.2-2.3,0.7s-0.9,1.1-0.9,1.8c0,0.7,0.3,1.3,0.9,1.7c0.6,0.4,1.8,0.8,3.6,1.2
				c2.8,0.6,4.8,1.4,6.2,2.5c1.4,1.1,2,2.6,2,4.5c0,2-0.9,3.7-2.6,5c-1.7,1.3-4,1.9-6.9,1.9c-3,0-5.4-0.8-7.2-2.3
				c-1.8-1.5-2.6-3.3-2.5-5.2l0-0.1h5.6c0,1.2,0.4,2.1,1.2,2.6c0.8,0.5,1.7,0.8,3,0.8c1.1,0,2-0.2,2.6-0.7
				C147,71.4,147.3,70.8,147.3,70z"/>
			<path class="st0" d="M164.5,48.1v5.5h3.8v4.3h-3.8v11.5c0,0.9,0.2,1.5,0.6,1.9s0.9,0.6,1.5,0.6c0.3,0,0.6,0,0.8-0.1
				c0.2,0,0.5-0.1,0.8-0.2l0.5,4.4c-0.6,0.2-1.2,0.4-1.8,0.5c-0.6,0.1-1.2,0.2-1.9,0.2c-2.1,0-3.7-0.6-4.9-1.7
				c-1.1-1.2-1.7-3-1.7-5.5V57.9h-3.3v-4.3h3.3v-5.5H164.5z"/>
		</g>
	</g>
</g>
</svg>
